<svg width="107" height="63" viewBox="0 0 107 63" fill="none" xmlns="http://www.w3.org/2000/svg">
<g filter="url(#filter0_d)">
<rect x="4.5" y="4.5" width="98" height="54" rx="4.5" fill="white" stroke="#F98731"/>
<g clip-path="url(#clip0)" filter="url(#filter1_d)">
<path d="M29.0123 47C31.778 47 34.0227 44.76 34.0227 42V37H29.0123C26.2466 37 24.002 39.24 24.002 42C24.002 44.76 26.2466 47 29.0123 47Z" fill="#0ACF83"/>
<path d="M24.002 32C24.002 29.24 26.2466 27 29.0123 27H34.0227V37H29.0123C26.2466 37 24.002 34.76 24.002 32Z" fill="#A259FF"/>
<path d="M24.0029 22C24.0029 19.24 26.2476 17 29.0133 17H34.0237V27H29.0133C26.2476 27 24.0029 24.76 24.0029 22Z" fill="#F24E1E"/>
<path d="M34.0225 17H39.0328C41.7985 17 44.0432 19.24 44.0432 22C44.0432 24.76 41.7985 27 39.0328 27H34.0225V17Z" fill="#FF7262"/>
<path d="M44.0432 32C44.0432 34.76 41.7985 37 39.0328 37C36.2671 37 34.0225 34.76 34.0225 32C34.0225 29.24 36.2671 27 39.0328 27C41.7985 27 44.0432 29.24 44.0432 32Z" fill="#1ABCFE"/>
</g>
<path d="M81.6329 29.0526C81.689 28.752 81.7174 28.4468 81.7178 28.141C81.7144 25.3004 79.4089 23.0005 76.5683 23.0039C74.406 23.0065 72.4762 24.3613 71.7392 26.3942C70.4196 25.8689 68.9241 26.5128 68.3988 27.8324C68.3533 27.9466 68.3161 28.0639 68.2874 28.1834C66.1804 28.4985 64.7278 30.462 65.043 32.569C65.3256 34.4587 66.9489 35.8567 68.8596 35.8559H72.0741C72.4292 35.8559 72.717 35.5681 72.717 35.213C72.717 34.8579 72.4292 34.5701 72.0741 34.5701H68.8596C67.4393 34.5701 66.2879 33.4187 66.2879 31.9984C66.2879 30.5781 67.4393 29.4268 68.8596 29.4268C69.2147 29.4268 69.5025 29.1389 69.5025 28.7839C69.5037 28.0737 70.0803 27.499 70.7904 27.5002C71.1263 27.5007 71.4486 27.6326 71.6884 27.8677C71.9413 28.1169 72.3483 28.114 72.5976 27.8611C72.6911 27.7661 72.7529 27.6444 72.7742 27.5128C73.1232 25.4133 75.1081 23.9943 77.2076 24.3432C79.3071 24.6922 80.7261 26.6771 80.3771 28.7766C80.3563 28.9018 80.3293 29.0258 80.2963 29.1484C80.2224 29.4167 80.3295 29.7021 80.5618 29.8555C81.7453 30.6408 82.0681 32.2368 81.2828 33.4202C80.8075 34.1365 80.0058 34.568 79.1461 34.57H77.2174C76.8623 34.57 76.5745 34.8578 76.5745 35.2129C76.5745 35.568 76.8623 35.8559 77.2174 35.8559H79.1461C81.2765 35.8539 83.002 34.1252 82.9999 31.9947C82.9989 30.8608 82.4989 29.7848 81.6329 29.0526Z" fill="#F98731"/>
<path d="M78.3005 36.6855C78.0514 36.4449 77.6564 36.4449 77.4073 36.6855L75.2889 38.8027V29.4251C75.2889 29.0701 75.0011 28.7822 74.646 28.7822C74.2909 28.7822 74.0031 29.0701 74.0031 29.4251V38.8026L71.8859 36.6855C71.6305 36.4388 71.2235 36.4459 70.9769 36.7013C70.7362 36.9504 70.7362 37.3454 70.9769 37.5946L74.1914 40.8091C74.4421 41.0605 74.8492 41.061 75.1006 40.8102C75.101 40.8099 75.1014 40.8095 75.1018 40.8091L78.3163 37.5946C78.563 37.3392 78.5559 36.9322 78.3005 36.6855Z" fill="#F98731"/>
</g>
<defs>
<filter id="filter0_d" x="0" y="0" width="107" height="63" filterUnits="userSpaceOnUse" color-interpolation-filters="sRGB">
<feFlood flood-opacity="0" result="BackgroundImageFix"/>
<feColorMatrix in="SourceAlpha" type="matrix" values="0 0 0 0 0 0 0 0 0 0 0 0 0 0 0 0 0 0 127 0" result="hardAlpha"/>
<feOffset/>
<feGaussianBlur stdDeviation="2"/>
<feColorMatrix type="matrix" values="0 0 0 0 0 0 0 0 0 0 0 0 0 0 0 0 0 0 0.25 0"/>
<feBlend mode="normal" in2="BackgroundImageFix" result="effect1_dropShadow"/>
<feBlend mode="normal" in="SourceGraphic" in2="effect1_dropShadow" result="shape"/>
</filter>
<filter id="filter1_d" x="14" y="7" width="40.0455" height="50" filterUnits="userSpaceOnUse" color-interpolation-filters="sRGB">
<feFlood flood-opacity="0" result="BackgroundImageFix"/>
<feColorMatrix in="SourceAlpha" type="matrix" values="0 0 0 0 0 0 0 0 0 0 0 0 0 0 0 0 0 0 127 0" result="hardAlpha"/>
<feOffset/>
<feGaussianBlur stdDeviation="5"/>
<feColorMatrix type="matrix" values="0 0 0 0 0 0 0 0 0 0 0 0 0 0 0 0 0 0 0.2 0"/>
<feBlend mode="normal" in2="BackgroundImageFix" result="effect1_dropShadow"/>
<feBlend mode="normal" in="SourceGraphic" in2="effect1_dropShadow" result="shape"/>
</filter>
<clipPath id="clip0">
<rect width="20.0455" height="30" fill="white" transform="translate(24 17)"/>
</clipPath>
</defs>
</svg>
