<svg width="116" height="63" viewBox="0 0 116 63" fill="none" xmlns="http://www.w3.org/2000/svg">
<g filter="url(#filter0_d)">
<rect x="4.5" y="4.5" width="107" height="54" rx="4.5" fill="white" stroke="#F98731"/>
<path d="M29.3125 17H48.6875C51.625 17 54 19.4359 54 22.4487V41.5513C54 44.5641 51.625 47 48.6875 47H29.3125C26.375 47 24 44.5641 24 41.5513V22.4487C24 19.4359 26.375 17 29.3125 17Z" fill="#470137"/>
<path d="M39.775 24.8847L36.025 31.2308L40.025 37.9616C40.05 38.0129 40.0625 38.0642 40.05 38.1155C40.0375 38.1667 39.9875 38.1283 39.9125 38.1411H37.05C36.85 38.1411 36.7125 38.1283 36.625 38.0001C36.3625 37.4616 36.0875 36.936 35.825 36.3975C35.5625 35.8719 35.275 35.3334 34.975 34.7821C34.675 34.2308 34.375 33.6796 34.075 33.1155H34.05C33.7875 33.6667 33.5 34.218 33.2125 34.7693C32.925 35.3206 32.6375 35.8719 32.3625 36.4103C32.075 36.9488 31.7875 37.5001 31.5 38.0257C31.45 38.1539 31.35 38.1667 31.2125 38.1667H28.4625C28.4125 38.1667 28.375 38.1924 28.375 38.1283C28.3625 38.077 28.375 38.0257 28.4 37.9873L32.2875 31.4488L28.5 24.8719C28.4625 24.8206 28.45 24.7693 28.475 24.7437C28.5 24.7052 28.55 24.6924 28.6 24.6924H31.4375C31.5 24.6924 31.5625 24.7052 31.6125 24.718C31.6625 24.7437 31.7 24.7821 31.7375 24.8334C31.975 25.3847 32.25 25.936 32.5375 26.4873C32.8375 27.0385 33.125 27.577 33.4375 28.1155C33.7375 28.6539 34.0125 29.1924 34.275 29.7437H34.3C34.5625 29.1796 34.8375 28.6283 35.1125 28.0898C35.3875 27.5514 35.675 27.0129 35.9625 26.4744C36.25 25.936 36.525 25.3847 36.8 24.859C36.8125 24.8078 36.8375 24.7565 36.875 24.7308C36.925 24.7052 36.975 24.6924 37.0375 24.7052H39.675C39.7375 24.6924 39.8 24.7308 39.8125 24.7949C39.825 24.8078 39.8 24.859 39.775 24.8847Z" fill="#FF61F6"/>
<path d="M45.5501 38.4105C44.6251 38.4233 43.7001 38.231 42.8626 37.8336C42.0751 37.4618 41.4251 36.8464 40.9751 36.09C40.5126 35.308 40.2876 34.3336 40.2876 33.1669C40.2751 32.2182 40.5126 31.2823 40.9751 30.4618C41.4501 29.6285 42.1376 28.9362 42.9626 28.4746C43.8376 27.9746 44.8876 27.731 46.1251 27.731C46.1876 27.731 46.2751 27.731 46.3876 27.7439C46.5001 27.7567 46.6251 27.7567 46.7751 27.7695V23.7182C46.7751 23.6285 46.8126 23.5772 46.9001 23.5772H49.4376C49.5001 23.5644 49.5501 23.6156 49.5626 23.6669C49.5626 23.6798 49.5626 23.6926 49.5626 23.6926V35.8977C49.5626 36.1285 49.5751 36.3849 49.5876 36.6669C49.6126 36.9362 49.6251 37.1926 49.6376 37.4105C49.6376 37.5003 49.6001 37.5772 49.5126 37.6156C48.8626 37.8977 48.1751 38.1028 47.4751 38.231C46.8376 38.3464 46.2001 38.4105 45.5501 38.4105ZM46.7751 35.8464V30.2054C46.6626 30.1798 46.5501 30.1541 46.4376 30.1413C46.3001 30.1285 46.1626 30.1156 46.0251 30.1156C45.5376 30.1156 45.0501 30.2182 44.6126 30.449C44.1876 30.6669 43.8251 30.9874 43.5501 31.3977C43.2751 31.808 43.1376 32.3592 43.1376 33.0259C43.1251 33.4746 43.2001 33.9233 43.3501 34.3464C43.4751 34.6926 43.6626 35.0003 43.9126 35.2567C44.1501 35.4874 44.4376 35.6669 44.7626 35.7695C45.1001 35.8849 45.4501 35.9362 45.8001 35.9362C45.9876 35.9362 46.1626 35.9233 46.3251 35.9105C46.4876 35.9233 46.6251 35.8977 46.7751 35.8464Z" fill="#FF61F6"/>
<path d="M90.6329 29.0526C90.689 28.752 90.7174 28.4468 90.7178 28.141C90.7144 25.3004 88.4089 23.0005 85.5683 23.0039C83.406 23.0065 81.4762 24.3613 80.7392 26.3942C79.4196 25.8689 77.9241 26.5128 77.3988 27.8324C77.3533 27.9466 77.3161 28.0639 77.2874 28.1834C75.1804 28.4985 73.7278 30.462 74.043 32.569C74.3256 34.4587 75.9489 35.8567 77.8596 35.8559H81.0741C81.4292 35.8559 81.717 35.5681 81.717 35.213C81.717 34.8579 81.4292 34.5701 81.0741 34.5701H77.8596C76.4393 34.5701 75.2879 33.4187 75.2879 31.9984C75.2879 30.5781 76.4393 29.4268 77.8596 29.4268C78.2147 29.4268 78.5025 29.1389 78.5025 28.7839C78.5037 28.0737 79.0803 27.499 79.7904 27.5002C80.1263 27.5007 80.4486 27.6326 80.6884 27.8677C80.9413 28.1169 81.3483 28.114 81.5976 27.8611C81.6911 27.7661 81.7529 27.6444 81.7742 27.5128C82.1232 25.4133 84.1081 23.9943 86.2076 24.3432C88.3071 24.6922 89.7261 26.6771 89.3771 28.7766C89.3563 28.9018 89.3293 29.0258 89.2963 29.1484C89.2224 29.4167 89.3295 29.7021 89.5618 29.8555C90.7453 30.6408 91.0681 32.2368 90.2828 33.4202C89.8075 34.1365 89.0058 34.568 88.1461 34.57H86.2174C85.8623 34.57 85.5745 34.8578 85.5745 35.2129C85.5745 35.568 85.8623 35.8559 86.2174 35.8559H88.1461C90.2765 35.8539 92.002 34.1252 91.9999 31.9947C91.9989 30.8608 91.4989 29.7848 90.6329 29.0526Z" fill="#F98731"/>
<path d="M87.3005 36.6855C87.0514 36.4449 86.6564 36.4449 86.4073 36.6855L84.2889 38.8027V29.4251C84.2889 29.0701 84.0011 28.7822 83.646 28.7822C83.2909 28.7822 83.0031 29.0701 83.0031 29.4251V38.8026L80.8859 36.6855C80.6305 36.4388 80.2235 36.4459 79.9769 36.7013C79.7362 36.9504 79.7362 37.3454 79.9769 37.5946L83.1914 40.8091C83.4421 41.0605 83.8492 41.061 84.1006 40.8102C84.101 40.8099 84.1014 40.8095 84.1018 40.8091L87.3163 37.5946C87.563 37.3392 87.5559 36.9322 87.3005 36.6855Z" fill="#F98731"/>
</g>
<defs>
<filter id="filter0_d" x="0" y="0" width="116" height="63" filterUnits="userSpaceOnUse" color-interpolation-filters="sRGB">
<feFlood flood-opacity="0" result="BackgroundImageFix"/>
<feColorMatrix in="SourceAlpha" type="matrix" values="0 0 0 0 0 0 0 0 0 0 0 0 0 0 0 0 0 0 127 0" result="hardAlpha"/>
<feOffset/>
<feGaussianBlur stdDeviation="2"/>
<feColorMatrix type="matrix" values="0 0 0 0 0 0 0 0 0 0 0 0 0 0 0 0 0 0 0.25 0"/>
<feBlend mode="normal" in2="BackgroundImageFix" result="effect1_dropShadow"/>
<feBlend mode="normal" in="SourceGraphic" in2="effect1_dropShadow" result="shape"/>
</filter>
</defs>
</svg>
