<svg width="169" height="229" viewBox="0 0 169 229" fill="none" xmlns="http://www.w3.org/2000/svg">
<rect width="169" height="150" fill="#7E9FD3"/>
<path d="M46.672 189H51.244V188.256H49.384V180.564H48.616L46.708 182.46L47.236 183L48.136 182.1C48.472 181.776 48.556 181.596 48.556 181.596H48.58C48.58 181.596 48.568 181.824 48.568 182.064V188.256H46.672V189ZM52.3578 189H57.6258V188.256H53.2218C53.2338 186.012 57.4938 185.616 57.4938 182.784C57.4938 181.464 56.5338 180.42 54.9258 180.42C53.1378 180.42 52.3698 181.944 52.3698 181.944L52.9938 182.364C52.9938 182.364 53.6418 181.212 54.8778 181.212C55.9338 181.212 56.6298 181.908 56.6298 182.832C56.6298 185.112 52.3098 185.496 52.3098 188.46C52.3098 188.628 52.3218 188.808 52.3578 189ZM62.203 189.144C63.679 189.144 64.855 188.076 64.855 186.324C64.855 184.728 63.763 183.6 62.227 183.6C61.351 183.6 60.499 183.984 60.091 184.584H60.067C60.211 182.94 61.111 181.2 62.875 181.2C63.571 181.2 64.099 181.5 64.099 181.5L64.411 180.768C64.411 180.768 63.799 180.42 62.863 180.42C60.259 180.42 59.155 183.072 59.155 185.184C59.155 187.464 60.367 189.144 62.203 189.144ZM62.191 188.364C60.931 188.364 60.055 186.912 60.055 185.784C60.055 185.1 60.967 184.344 62.095 184.344C63.247 184.344 64.003 185.136 64.003 186.336C64.003 187.5 63.331 188.364 62.191 188.364ZM69.4064 189H73.9784V188.256H72.1184V180.564H71.3504L69.4424 182.46L69.9704 183L70.8704 182.1C71.2064 181.776 71.2904 181.596 71.2904 181.596H71.3144C71.3144 181.596 71.3024 181.824 71.3024 182.064V188.256H69.4064V189ZM74.9722 187.944C74.9722 187.944 75.7642 189.144 77.4442 189.144C79.0882 189.144 80.3722 187.932 80.3722 186.372C80.3722 184.848 79.1602 183.624 77.4682 183.624C76.7122 183.624 76.1842 183.948 76.1842 183.948H76.1602C76.1602 183.948 76.2082 183.768 76.2442 183.468L76.4842 181.308H79.8442V180.564H75.7642L75.3082 184.656L75.8362 184.848C75.8362 184.848 76.4722 184.392 77.3722 184.392C78.5722 184.392 79.5082 185.22 79.5082 186.372C79.5082 187.524 78.5722 188.352 77.4082 188.352C76.1242 188.352 75.5002 187.368 75.5002 187.368L74.9722 187.944ZM83.6556 189.144C86.2716 189.144 87.3636 186.492 87.3636 184.38C87.3636 182.1 86.1516 180.42 84.3156 180.42C82.8396 180.42 81.6756 181.488 81.6756 183.24C81.6756 184.836 82.7556 185.964 84.2916 185.964C85.1676 185.964 86.0196 185.58 86.4396 184.98H86.4636C86.3076 186.624 85.4196 188.364 83.6436 188.364C82.9476 188.364 82.4196 188.064 82.4196 188.064L82.1076 188.796C82.1076 188.796 82.7316 189.144 83.6556 189.144ZM84.4236 185.22C83.2716 185.22 82.5156 184.428 82.5156 183.228C82.5156 182.064 83.1876 181.2 84.3276 181.2C85.5876 181.2 86.4636 182.652 86.4636 183.78C86.4636 184.464 85.5636 185.22 84.4236 185.22ZM92.1313 189H97.3993V188.256H92.9953C93.0073 186.012 97.2673 185.616 97.2673 182.784C97.2673 181.464 96.3073 180.42 94.6993 180.42C92.9113 180.42 92.1433 181.944 92.1433 181.944L92.7673 182.364C92.7673 182.364 93.4153 181.212 94.6513 181.212C95.7073 181.212 96.4033 181.908 96.4033 182.832C96.4033 185.112 92.0833 185.496 92.0833 188.46C92.0833 188.628 92.0953 188.808 92.1313 189ZM98.8204 189H103.392V188.256H101.532V180.564H100.764L98.8564 182.46L99.3844 183L100.284 182.1C100.62 181.776 100.704 181.596 100.704 181.596H100.728C100.728 181.596 100.716 181.824 100.716 182.064V188.256H98.8204V189ZM104.41 189H108.982V188.256H107.122V180.564H106.354L104.446 182.46L104.974 183L105.874 182.1C106.21 181.776 106.294 181.596 106.294 181.596H106.318C106.318 181.596 106.306 181.824 106.306 182.064V188.256H104.41V189Z" fill="#404040"/>
<path d="M46.408 206.66H50.632V209H51.46V206.66H52.66V205.928H51.46V200.564H50.56L46.408 206.12V206.66ZM47.416 205.928V205.904L50.224 202.244C50.452 201.944 50.644 201.608 50.644 201.608H50.668C50.668 201.608 50.632 202.04 50.632 202.4V205.928H47.416ZM56.9162 209.144C59.1122 209.144 59.8202 207.224 59.8202 204.776C59.8202 202.352 59.1122 200.42 56.9162 200.42C54.7202 200.42 54.0002 202.352 54.0002 204.776C54.0002 207.224 54.7202 209.144 56.9162 209.144ZM56.9162 208.364C55.3082 208.364 54.8642 206.792 54.8642 204.776C54.8642 202.772 55.3082 201.2 56.9162 201.2C58.5122 201.2 58.9562 202.772 58.9562 204.776C58.9562 206.792 58.5122 208.364 56.9162 208.364ZM64.6508 209H69.9188V208.256H65.5148C65.5268 206.012 69.7868 205.616 69.7868 202.784C69.7868 201.464 68.8268 200.42 67.2188 200.42C65.4308 200.42 64.6628 201.944 64.6628 201.944L65.2868 202.364C65.2868 202.364 65.9348 201.212 67.1708 201.212C68.2268 201.212 68.9228 201.908 68.9228 202.832C68.9228 205.112 64.6028 205.496 64.6028 208.46C64.6028 208.628 64.6148 208.808 64.6508 209ZM71.316 207.944C71.316 207.944 72.108 209.144 73.788 209.144C75.432 209.144 76.716 207.932 76.716 206.372C76.716 204.848 75.504 203.624 73.812 203.624C73.056 203.624 72.528 203.948 72.528 203.948H72.504C72.504 203.948 72.552 203.768 72.588 203.468L72.828 201.308H76.188V200.564H72.108L71.652 204.656L72.18 204.848C72.18 204.848 72.816 204.392 73.716 204.392C74.916 204.392 75.852 205.22 75.852 206.372C75.852 207.524 74.916 208.352 73.752 208.352C72.468 208.352 71.844 207.368 71.844 207.368L71.316 207.944ZM84.338 209.144C86.534 209.144 87.242 207.224 87.242 204.776C87.242 202.352 86.534 200.42 84.338 200.42C82.142 200.42 81.422 202.352 81.422 204.776C81.422 207.224 82.142 209.144 84.338 209.144ZM84.338 208.364C82.73 208.364 82.286 206.792 82.286 204.776C82.286 202.772 82.73 201.2 84.338 201.2C85.934 201.2 86.378 202.772 86.378 204.776C86.378 206.792 85.934 208.364 84.338 208.364ZM91.9767 209H96.5487V208.256H94.6887V200.564H93.9207L92.0127 202.46L92.5407 203L93.4407 202.1C93.7767 201.776 93.8607 201.596 93.8607 201.596H93.8847C93.8847 201.596 93.8727 201.824 93.8727 202.064V208.256H91.9767V209ZM98.0585 209H98.9225L102.835 201.14V200.564H97.3505V201.308H101.299C101.719 201.308 101.935 201.284 101.935 201.284V201.308C101.935 201.308 101.695 201.632 101.467 202.088L98.0585 209Z" fill="#404040"/>
<path d="M47.86 228H48.592L49 225.66H51.076L50.668 228H51.4L51.808 225.66H53.488L53.596 224.988H51.928L52.336 222.636H54.016L54.136 221.964H52.456L52.876 219.564H52.144L51.724 221.964H49.648L50.068 219.564H49.336L48.916 221.964H47.212L47.104 222.636H48.796L48.376 224.988H46.684L46.564 225.66H48.268L47.86 228ZM49.12 224.988L49.528 222.636H51.604L51.184 224.988H49.12ZM55.8476 228H56.7116L60.6236 220.14V219.564H55.1396V220.308H59.0876C59.5076 220.308 59.7236 220.284 59.7236 220.284V220.308C59.7236 220.308 59.4836 220.632 59.2556 221.088L55.8476 228ZM62.142 228H67.11V227.256H62.97V224.124H66.174V223.38H62.97V220.308H66.894V219.564H62.142V228ZM70.4134 228.144C73.0294 228.144 74.1214 225.492 74.1214 223.38C74.1214 221.1 72.9094 219.42 71.0734 219.42C69.5974 219.42 68.4334 220.488 68.4334 222.24C68.4334 223.836 69.5134 224.964 71.0494 224.964C71.9254 224.964 72.7774 224.58 73.1974 223.98H73.2214C73.0654 225.624 72.1774 227.364 70.4014 227.364C69.7054 227.364 69.1774 227.064 69.1774 227.064L68.8654 227.796C68.8654 227.796 69.4894 228.144 70.4134 228.144ZM71.1814 224.22C70.0294 224.22 69.2734 223.428 69.2734 222.228C69.2734 221.064 69.9454 220.2 71.0854 220.2C72.3454 220.2 73.2214 221.652 73.2214 222.78C73.2214 223.464 72.3214 224.22 71.1814 224.22ZM76.1224 228H76.9504V224.22H80.0464V223.476H76.9504V220.308H80.5624V219.564H76.1224V228ZM82.2865 228H85.0105C87.5425 228 89.2465 226.464 89.2465 223.776C89.2465 221.112 87.5425 219.564 85.0105 219.564H82.2865V228ZM83.1145 227.256V220.308H84.9265C86.9905 220.308 88.3825 221.532 88.3825 223.776C88.3825 226.032 87.0025 227.256 84.9265 227.256H83.1145ZM90.4853 226.992C90.4853 226.992 91.5053 228.144 93.1613 228.144C94.7573 228.144 95.9333 226.944 95.9333 225.504C95.9333 223.68 94.3613 223.08 93.2933 223.02L95.8133 220.116V219.564H90.8813V220.308H94.0493C94.4933 220.308 94.7333 220.272 94.7333 220.272V220.296C94.7333 220.296 94.5173 220.5 94.2893 220.764L92.1773 223.236L92.3813 223.728H92.9573C94.0613 223.728 95.0813 224.34 95.0813 225.528C95.0813 226.608 94.1573 227.352 93.1493 227.352C91.8533 227.352 90.9893 226.356 90.9893 226.356L90.4853 226.992Z" fill="#404040"/>
<path d="M1.224 189H2.052V185.448H4.176L6.084 189H7.032L5.196 185.604C5.064 185.376 4.98 185.268 4.98 185.268V185.244C5.928 184.98 6.576 184.104 6.576 182.964C6.576 181.944 6.096 181.14 5.304 180.792C4.968 180.648 4.584 180.564 3.72 180.564H1.224V189ZM2.052 184.704V181.308H3.756C4.404 181.308 4.704 181.38 4.956 181.512C5.448 181.776 5.724 182.292 5.724 182.988C5.724 184.044 5.076 184.704 4.056 184.704H2.052ZM8.19516 184.776C8.19516 187.284 10.0192 189.144 12.3232 189.144C14.0992 189.144 15.0712 188.004 15.0712 188.004H15.0952C15.0952 188.004 15.0832 188.184 15.0832 188.364V189H15.8512V184.968H13.6192V185.712H15.0592V187.14C15.0592 187.14 14.0512 188.376 12.4072 188.376C10.4872 188.376 9.05916 186.84 9.05916 184.764C9.05916 182.76 10.4392 181.188 12.4792 181.188C14.0152 181.188 14.9992 182.028 14.9992 182.028L15.4432 181.404C15.4432 181.404 14.3992 180.42 12.4432 180.42C10.0192 180.42 8.19516 182.34 8.19516 184.776ZM17.8529 189H20.8289C22.2449 189 23.3609 188.136 23.3609 186.636C23.3609 185.616 22.8089 184.788 21.9449 184.548V184.524C22.5929 184.2 23.0129 183.564 23.0129 182.688C23.0129 181.368 22.0649 180.564 20.7329 180.564H17.8529V189ZM18.6809 184.224V181.308H20.7209C21.6209 181.308 22.1609 181.884 22.1609 182.748C22.1609 183.624 21.5849 184.224 20.7329 184.224H18.6809ZM18.6809 188.256V184.944H20.8289C21.8129 184.944 22.4969 185.604 22.4969 186.612C22.4969 187.62 21.8609 188.256 20.8409 188.256H18.6809Z" fill="#404040"/>
<path d="M0.66 204.728C0.66 207.188 2.436 209.144 4.932 209.144C7.008 209.144 8.16 207.836 8.16 207.836L7.68 207.248C7.68 207.248 6.648 208.376 4.944 208.376C2.94 208.376 1.524 206.732 1.524 204.716C1.524 202.724 2.94 201.188 4.92 201.188C6.504 201.188 7.488 202.124 7.488 202.124L7.932 201.512C7.932 201.512 6.912 200.42 4.896 200.42C2.484 200.42 0.66 202.28 0.66 204.728ZM9.69047 209H10.5185L10.9865 203.096C11.0225 202.64 11.0105 201.896 11.0105 201.896H11.0345C11.0345 201.896 11.2985 202.676 11.4905 203.096L13.4705 207.428H14.2505L16.2305 203.096C16.4225 202.664 16.6745 201.92 16.6745 201.92H16.6985C16.6985 201.92 16.6865 202.64 16.7225 203.096L17.1905 209H18.0185L17.3465 200.564H16.4945L14.2865 205.52C14.0945 205.952 13.8665 206.552 13.8665 206.552H13.8425C13.8425 206.552 13.6265 205.952 13.4345 205.52L11.2265 200.564H10.3625L9.69047 209ZM21.8912 209H22.7312V205.376L25.5632 200.564H24.6272L22.8392 203.624C22.5752 204.068 22.3232 204.632 22.3232 204.632H22.2992C22.2992 204.632 22.0352 204.056 21.7832 203.624L19.9952 200.564H19.0472L21.8912 205.376V209ZM26.9818 209H27.8098V204.968H29.2378L31.6498 209H32.6218L29.9338 204.572V204.548L32.4538 200.564H31.5058L29.2378 204.224H27.8098V200.564H26.9818V209Z" fill="#404040"/>
<path d="M1.224 228H2.052V224.148H6.948V228H7.776V219.564H6.948V223.404H2.052V219.564H1.224V228ZM10.224 228H15.192V227.256H11.052V224.124H14.256V223.38H11.052V220.308H14.976V219.564H10.224V228ZM16.1675 228H17.1275L18.8555 225.096C19.1195 224.652 19.3715 224.148 19.3715 224.148H19.3955C19.3955 224.148 19.6595 224.652 19.9235 225.084L21.6755 228H22.6355L19.9355 223.596L22.4075 219.564H21.4235L19.9355 222.06C19.6715 222.492 19.4315 223.032 19.4315 223.032H19.4075C19.4075 223.032 19.1075 222.492 18.8555 222.06L17.3795 219.564H16.4075L18.8555 223.596L16.1675 228Z" fill="#404040"/>
</svg>
