<svg width="169" height="229" viewBox="0 0 169 229" fill="none" xmlns="http://www.w3.org/2000/svg">
<rect width="169" height="150" fill="#5A96C6"/>
<path d="M48.64 189.144C51.256 189.144 52.348 186.492 52.348 184.38C52.348 182.1 51.136 180.42 49.3 180.42C47.824 180.42 46.66 181.488 46.66 183.24C46.66 184.836 47.74 185.964 49.276 185.964C50.152 185.964 51.004 185.58 51.424 184.98H51.448C51.292 186.624 50.404 188.364 48.628 188.364C47.932 188.364 47.404 188.064 47.404 188.064L47.092 188.796C47.092 188.796 47.716 189.144 48.64 189.144ZM49.408 185.22C48.256 185.22 47.5 184.428 47.5 183.228C47.5 182.064 48.172 181.2 49.312 181.2C50.572 181.2 51.448 182.652 51.448 183.78C51.448 184.464 50.548 185.22 49.408 185.22ZM56.881 189.144C59.077 189.144 59.785 187.224 59.785 184.776C59.785 182.352 59.077 180.42 56.881 180.42C54.685 180.42 53.965 182.352 53.965 184.776C53.965 187.224 54.685 189.144 56.881 189.144ZM56.881 188.364C55.273 188.364 54.829 186.792 54.829 184.776C54.829 182.772 55.273 181.2 56.881 181.2C58.477 181.2 58.921 182.772 58.921 184.776C58.921 186.792 58.477 188.364 56.881 188.364ZM64.5197 189H69.0917V188.256H67.2317V180.564H66.4637L64.5557 182.46L65.0837 183L65.9837 182.1C66.3197 181.776 66.4037 181.596 66.4037 181.596H66.4277C66.4277 181.596 66.4157 181.824 66.4157 182.064V188.256H64.5197V189ZM70.0855 187.944C70.0855 187.944 70.8775 189.144 72.5575 189.144C74.2015 189.144 75.4855 187.932 75.4855 186.372C75.4855 184.848 74.2735 183.624 72.5815 183.624C71.8255 183.624 71.2975 183.948 71.2975 183.948H71.2735C71.2735 183.948 71.3215 183.768 71.3575 183.468L71.5975 181.308H74.9575V180.564H70.8775L70.4215 184.656L70.9495 184.848C70.9495 184.848 71.5855 184.392 72.4855 184.392C73.6855 184.392 74.6215 185.22 74.6215 186.372C74.6215 187.524 73.6855 188.352 72.5215 188.352C71.2375 188.352 70.6135 187.368 70.6135 187.368L70.0855 187.944ZM79.8849 189.144C82.0809 189.144 82.7889 187.224 82.7889 184.776C82.7889 182.352 82.0809 180.42 79.8849 180.42C77.6889 180.42 76.9689 182.352 76.9689 184.776C76.9689 187.224 77.6889 189.144 79.8849 189.144ZM79.8849 188.364C78.2769 188.364 77.8329 186.792 77.8329 184.776C77.8329 182.772 78.2769 181.2 79.8849 181.2C81.4809 181.2 81.9249 182.772 81.9249 184.776C81.9249 186.792 81.4809 188.364 79.8849 188.364ZM87.5236 189H92.0956V188.256H90.2356V180.564H89.4676L87.5596 182.46L88.0876 183L88.9876 182.1C89.3236 181.776 89.4076 181.596 89.4076 181.596H89.4316C89.4316 181.596 89.4196 181.824 89.4196 182.064V188.256H87.5236V189ZM95.0814 189.144C97.6974 189.144 98.7894 186.492 98.7894 184.38C98.7894 182.1 97.5774 180.42 95.7414 180.42C94.2654 180.42 93.1014 181.488 93.1014 183.24C93.1014 184.836 94.1814 185.964 95.7174 185.964C96.5934 185.964 97.4454 185.58 97.8654 184.98H97.8894C97.7334 186.624 96.8454 188.364 95.0694 188.364C94.3734 188.364 93.8454 188.064 93.8454 188.064L93.5334 188.796C93.5334 188.796 94.1574 189.144 95.0814 189.144ZM95.8494 185.22C94.6974 185.22 93.9414 184.428 93.9414 183.228C93.9414 182.064 94.6134 181.2 95.7534 181.2C97.0134 181.2 97.8894 182.652 97.8894 183.78C97.8894 184.464 96.9894 185.22 95.8494 185.22ZM100.334 186.576C100.334 188.172 101.666 189.144 103.19 189.144C104.822 189.144 105.986 188.028 105.986 186.708C105.986 185.832 105.458 185.292 104.762 184.896C104.858 184.8 105.794 183.816 105.794 182.616C105.794 181.296 104.786 180.42 103.214 180.42C101.51 180.42 100.67 181.464 100.67 182.556C100.67 183.36 101.114 183.876 101.714 184.272C101.522 184.392 100.334 185.22 100.334 186.576ZM105.134 186.696C105.134 187.692 104.186 188.376 103.19 188.376C102.17 188.376 101.186 187.68 101.186 186.54C101.186 185.46 102.134 184.788 102.398 184.632C103.646 185.232 105.134 185.604 105.134 186.696ZM101.51 182.568C101.51 181.812 102.134 181.188 103.214 181.188C104.234 181.188 104.954 181.752 104.954 182.652C104.954 183.66 104.234 184.416 104.078 184.56C102.866 184.032 101.51 183.66 101.51 182.568Z" fill="#404040"/>
<path d="M46.648 207.944C46.648 207.944 47.44 209.144 49.12 209.144C50.764 209.144 52.048 207.932 52.048 206.372C52.048 204.848 50.836 203.624 49.144 203.624C48.388 203.624 47.86 203.948 47.86 203.948H47.836C47.836 203.948 47.884 203.768 47.92 203.468L48.16 201.308H51.52V200.564H47.44L46.984 204.656L47.512 204.848C47.512 204.848 48.148 204.392 49.048 204.392C50.248 204.392 51.184 205.22 51.184 206.372C51.184 207.524 50.248 208.352 49.084 208.352C47.8 208.352 47.176 207.368 47.176 207.368L46.648 207.944ZM53.3394 207.944C53.3394 207.944 54.1314 209.144 55.8114 209.144C57.4554 209.144 58.7394 207.932 58.7394 206.372C58.7394 204.848 57.5274 203.624 55.8354 203.624C55.0794 203.624 54.5514 203.948 54.5514 203.948H54.5274C54.5274 203.948 54.5754 203.768 54.6114 203.468L54.8514 201.308H58.2114V200.564H54.1314L53.6754 204.656L54.2034 204.848C54.2034 204.848 54.8394 204.392 55.7394 204.392C56.9394 204.392 57.8754 205.22 57.8754 206.372C57.8754 207.524 56.9394 208.352 55.7754 208.352C54.4914 208.352 53.8674 207.368 53.8674 207.368L53.3394 207.944ZM63.3735 209H68.6415V208.256H64.2375C64.2495 206.012 68.5095 205.616 68.5095 202.784C68.5095 201.464 67.5495 200.42 65.9415 200.42C64.1535 200.42 63.3855 201.944 63.3855 201.944L64.0095 202.364C64.0095 202.364 64.6575 201.212 65.8935 201.212C66.9495 201.212 67.6455 201.908 67.6455 202.832C67.6455 205.112 63.3255 205.496 63.3255 208.46C63.3255 208.628 63.3375 208.808 63.3735 209ZM69.5408 206.66H73.7648V209H74.5928V206.66H75.7928V205.928H74.5928V200.564H73.6928L69.5408 206.12V206.66ZM70.5488 205.928V205.904L73.3568 202.244C73.5848 201.944 73.7768 201.608 73.7768 201.608H73.8008C73.8008 201.608 73.7648 202.04 73.7648 202.4V205.928H70.5488ZM83.2716 209.144C85.4676 209.144 86.1756 207.224 86.1756 204.776C86.1756 202.352 85.4676 200.42 83.2716 200.42C81.0756 200.42 80.3556 202.352 80.3556 204.776C80.3556 207.224 81.0756 209.144 83.2716 209.144ZM83.2716 208.364C81.6636 208.364 81.2196 206.792 81.2196 204.776C81.2196 202.772 81.6636 201.2 83.2716 201.2C84.8676 201.2 85.3116 202.772 85.3116 204.776C85.3116 206.792 84.8676 208.364 83.2716 208.364ZM91.0063 209H96.2743V208.256H91.8703C91.8823 206.012 96.1423 205.616 96.1423 202.784C96.1423 201.464 95.1823 200.42 93.5743 200.42C91.7863 200.42 91.0183 201.944 91.0183 201.944L91.6423 202.364C91.6423 202.364 92.2903 201.212 93.5263 201.212C94.5823 201.212 95.2783 201.908 95.2783 202.832C95.2783 205.112 90.9583 205.496 90.9583 208.46C90.9583 208.628 90.9703 208.808 91.0063 209ZM97.7914 209H103.059V208.256H98.6554C98.6674 206.012 102.927 205.616 102.927 202.784C102.927 201.464 101.967 200.42 100.359 200.42C98.5714 200.42 97.8034 201.944 97.8034 201.944L98.4274 202.364C98.4274 202.364 99.0754 201.212 100.311 201.212C101.367 201.212 102.063 201.908 102.063 202.832C102.063 205.112 97.7434 205.496 97.7434 208.46C97.7434 208.628 97.7554 208.808 97.7914 209Z" fill="#404040"/>
<path d="M47.86 228H48.592L49 225.66H51.076L50.668 228H51.4L51.808 225.66H53.488L53.596 224.988H51.928L52.336 222.636H54.016L54.136 221.964H52.456L52.876 219.564H52.144L51.724 221.964H49.648L50.068 219.564H49.336L48.916 221.964H47.212L47.104 222.636H48.796L48.376 224.988H46.684L46.564 225.66H48.268L47.86 228ZM49.12 224.988L49.528 222.636H51.604L51.184 224.988H49.12ZM55.3316 226.944C55.3316 226.944 56.1236 228.144 57.8036 228.144C59.4476 228.144 60.7316 226.932 60.7316 225.372C60.7316 223.848 59.5196 222.624 57.8276 222.624C57.0716 222.624 56.5436 222.948 56.5436 222.948H56.5196C56.5196 222.948 56.5676 222.768 56.6036 222.468L56.8436 220.308H60.2036V219.564H56.1236L55.6676 223.656L56.1956 223.848C56.1956 223.848 56.8316 223.392 57.7316 223.392C58.9316 223.392 59.8676 224.22 59.8676 225.372C59.8676 226.524 58.9316 227.352 57.7676 227.352C56.4836 227.352 55.8596 226.368 55.8596 226.368L55.3316 226.944ZM67.735 228H68.611L65.515 219.564H64.627L61.531 228H62.407L63.367 225.312H66.763L67.735 228ZM65.083 220.44C65.083 220.44 65.263 221.136 65.407 221.532L66.511 224.592H63.607L64.735 221.532C64.879 221.136 65.059 220.44 65.059 220.44H65.083ZM71.4095 228.144C74.0255 228.144 75.1175 225.492 75.1175 223.38C75.1175 221.1 73.9055 219.42 72.0695 219.42C70.5935 219.42 69.4295 220.488 69.4295 222.24C69.4295 223.836 70.5095 224.964 72.0455 224.964C72.9215 224.964 73.7735 224.58 74.1935 223.98H74.2175C74.0615 225.624 73.1735 227.364 71.3975 227.364C70.7015 227.364 70.1735 227.064 70.1735 227.064L69.8615 227.796C69.8615 227.796 70.4855 228.144 71.4095 228.144ZM72.1775 224.22C71.0255 224.22 70.2695 223.428 70.2695 222.228C70.2695 221.064 70.9415 220.2 72.0815 220.2C73.3415 220.2 74.2175 221.652 74.2175 222.78C74.2175 223.464 73.3175 224.22 72.1775 224.22ZM79.7225 228.144C81.1985 228.144 82.3745 227.076 82.3745 225.324C82.3745 223.728 81.2825 222.6 79.7465 222.6C78.8705 222.6 78.0185 222.984 77.6105 223.584H77.5865C77.7305 221.94 78.6305 220.2 80.3945 220.2C81.0905 220.2 81.6185 220.5 81.6185 220.5L81.9305 219.768C81.9305 219.768 81.3185 219.42 80.3825 219.42C77.7785 219.42 76.6745 222.072 76.6745 224.184C76.6745 226.464 77.8865 228.144 79.7225 228.144ZM79.7105 227.364C78.4505 227.364 77.5745 225.912 77.5745 224.784C77.5745 224.1 78.4865 223.344 79.6145 223.344C80.7665 223.344 81.5225 224.136 81.5225 225.336C81.5225 226.5 80.8505 227.364 79.7105 227.364ZM83.6913 223.728C83.6913 226.188 85.4673 228.144 87.9633 228.144C90.0393 228.144 91.1913 226.836 91.1913 226.836L90.7113 226.248C90.7113 226.248 89.6793 227.376 87.9753 227.376C85.9713 227.376 84.5553 225.732 84.5553 223.716C84.5553 221.724 85.9713 220.188 87.9513 220.188C89.5353 220.188 90.5193 221.124 90.5193 221.124L90.9633 220.512C90.9633 220.512 89.9433 219.42 87.9273 219.42C85.5153 219.42 83.6913 221.28 83.6913 223.728ZM95.5897 228.144C97.0657 228.144 98.2417 227.076 98.2417 225.324C98.2417 223.728 97.1497 222.6 95.6137 222.6C94.7377 222.6 93.8857 222.984 93.4777 223.584H93.4537C93.5977 221.94 94.4977 220.2 96.2617 220.2C96.9577 220.2 97.4857 220.5 97.4857 220.5L97.7977 219.768C97.7977 219.768 97.1857 219.42 96.2497 219.42C93.6457 219.42 92.5417 222.072 92.5417 224.184C92.5417 226.464 93.7537 228.144 95.5897 228.144ZM95.5777 227.364C94.3177 227.364 93.4417 225.912 93.4417 224.784C93.4417 224.1 94.3537 223.344 95.4817 223.344C96.6337 223.344 97.3897 224.136 97.3897 225.336C97.3897 226.5 96.7177 227.364 95.5777 227.364Z" fill="#404040"/>
<path d="M1.224 189H2.052V185.448H4.176L6.084 189H7.032L5.196 185.604C5.064 185.376 4.98 185.268 4.98 185.268V185.244C5.928 184.98 6.576 184.104 6.576 182.964C6.576 181.944 6.096 181.14 5.304 180.792C4.968 180.648 4.584 180.564 3.72 180.564H1.224V189ZM2.052 184.704V181.308H3.756C4.404 181.308 4.704 181.38 4.956 181.512C5.448 181.776 5.724 182.292 5.724 182.988C5.724 184.044 5.076 184.704 4.056 184.704H2.052ZM8.19516 184.776C8.19516 187.284 10.0192 189.144 12.3232 189.144C14.0992 189.144 15.0712 188.004 15.0712 188.004H15.0952C15.0952 188.004 15.0832 188.184 15.0832 188.364V189H15.8512V184.968H13.6192V185.712H15.0592V187.14C15.0592 187.14 14.0512 188.376 12.4072 188.376C10.4872 188.376 9.05916 186.84 9.05916 184.764C9.05916 182.76 10.4392 181.188 12.4792 181.188C14.0152 181.188 14.9992 182.028 14.9992 182.028L15.4432 181.404C15.4432 181.404 14.3992 180.42 12.4432 180.42C10.0192 180.42 8.19516 182.34 8.19516 184.776ZM17.8529 189H20.8289C22.2449 189 23.3609 188.136 23.3609 186.636C23.3609 185.616 22.8089 184.788 21.9449 184.548V184.524C22.5929 184.2 23.0129 183.564 23.0129 182.688C23.0129 181.368 22.0649 180.564 20.7329 180.564H17.8529V189ZM18.6809 184.224V181.308H20.7209C21.6209 181.308 22.1609 181.884 22.1609 182.748C22.1609 183.624 21.5849 184.224 20.7329 184.224H18.6809ZM18.6809 188.256V184.944H20.8289C21.8129 184.944 22.4969 185.604 22.4969 186.612C22.4969 187.62 21.8609 188.256 20.8409 188.256H18.6809Z" fill="#404040"/>
<path d="M0.66 204.728C0.66 207.188 2.436 209.144 4.932 209.144C7.008 209.144 8.16 207.836 8.16 207.836L7.68 207.248C7.68 207.248 6.648 208.376 4.944 208.376C2.94 208.376 1.524 206.732 1.524 204.716C1.524 202.724 2.94 201.188 4.92 201.188C6.504 201.188 7.488 202.124 7.488 202.124L7.932 201.512C7.932 201.512 6.912 200.42 4.896 200.42C2.484 200.42 0.66 202.28 0.66 204.728ZM9.69047 209H10.5185L10.9865 203.096C11.0225 202.64 11.0105 201.896 11.0105 201.896H11.0345C11.0345 201.896 11.2985 202.676 11.4905 203.096L13.4705 207.428H14.2505L16.2305 203.096C16.4225 202.664 16.6745 201.92 16.6745 201.92H16.6985C16.6985 201.92 16.6865 202.64 16.7225 203.096L17.1905 209H18.0185L17.3465 200.564H16.4945L14.2865 205.52C14.0945 205.952 13.8665 206.552 13.8665 206.552H13.8425C13.8425 206.552 13.6265 205.952 13.4345 205.52L11.2265 200.564H10.3625L9.69047 209ZM21.8912 209H22.7312V205.376L25.5632 200.564H24.6272L22.8392 203.624C22.5752 204.068 22.3232 204.632 22.3232 204.632H22.2992C22.2992 204.632 22.0352 204.056 21.7832 203.624L19.9952 200.564H19.0472L21.8912 205.376V209ZM26.9818 209H27.8098V204.968H29.2378L31.6498 209H32.6218L29.9338 204.572V204.548L32.4538 200.564H31.5058L29.2378 204.224H27.8098V200.564H26.9818V209Z" fill="#404040"/>
<path d="M1.224 228H2.052V224.148H6.948V228H7.776V219.564H6.948V223.404H2.052V219.564H1.224V228ZM10.224 228H15.192V227.256H11.052V224.124H14.256V223.38H11.052V220.308H14.976V219.564H10.224V228ZM16.1675 228H17.1275L18.8555 225.096C19.1195 224.652 19.3715 224.148 19.3715 224.148H19.3955C19.3955 224.148 19.6595 224.652 19.9235 225.084L21.6755 228H22.6355L19.9355 223.596L22.4075 219.564H21.4235L19.9355 222.06C19.6715 222.492 19.4315 223.032 19.4315 223.032H19.4075C19.4075 223.032 19.1075 222.492 18.8555 222.06L17.3795 219.564H16.4075L18.8555 223.596L16.1675 228Z" fill="#404040"/>
</svg>
