<svg width="169" height="219" viewBox="0 0 169 219" fill="none" xmlns="http://www.w3.org/2000/svg">
<rect width="169" height="150" fill="#F26131"/>
<path d="M46.768 179H52.036V178.256H47.632C47.644 176.012 51.904 175.616 51.904 172.784C51.904 171.464 50.944 170.42 49.336 170.42C47.548 170.42 46.78 171.944 46.78 171.944L47.404 172.364C47.404 172.364 48.052 171.212 49.288 171.212C50.344 171.212 51.04 171.908 51.04 172.832C51.04 175.112 46.72 175.496 46.72 178.46C46.72 178.628 46.732 178.808 46.768 179ZM52.9353 176.66H57.1593V179H57.9873V176.66H59.1873V175.928H57.9873V170.564H57.0873L52.9353 176.12V176.66ZM53.9433 175.928V175.904L56.7513 172.244C56.9793 171.944 57.1713 171.608 57.1713 171.608H57.1953C57.1953 171.608 57.1593 172.04 57.1593 172.4V175.928H53.9433ZM60.4555 179H65.7235V178.256H61.3195C61.3315 176.012 65.5915 175.616 65.5915 172.784C65.5915 171.464 64.6315 170.42 63.0235 170.42C61.2355 170.42 60.4675 171.944 60.4675 171.944L61.0915 172.364C61.0915 172.364 61.7395 171.212 62.9755 171.212C64.0315 171.212 64.7275 171.908 64.7275 172.832C64.7275 175.112 60.4075 175.496 60.4075 178.46C60.4075 178.628 60.4195 178.808 60.4555 179ZM72.3353 179.144C74.9513 179.144 76.0433 176.492 76.0433 174.38C76.0433 172.1 74.8313 170.42 72.9953 170.42C71.5193 170.42 70.3553 171.488 70.3553 173.24C70.3553 174.836 71.4353 175.964 72.9713 175.964C73.8473 175.964 74.6993 175.58 75.1193 174.98H75.1433C74.9873 176.624 74.0993 178.364 72.3233 178.364C71.6273 178.364 71.0993 178.064 71.0993 178.064L70.7873 178.796C70.7873 178.796 71.4113 179.144 72.3353 179.144ZM73.1033 175.22C71.9513 175.22 71.1953 174.428 71.1953 173.228C71.1953 172.064 71.8673 171.2 73.0073 171.2C74.2673 171.2 75.1433 172.652 75.1433 173.78C75.1433 174.464 74.2433 175.22 73.1033 175.22ZM77.9843 179H78.8483L82.7603 171.14V170.564H77.2763V171.308H81.2243C81.6443 171.308 81.8603 171.284 81.8603 171.284V171.308C81.8603 171.308 81.6203 171.632 81.3923 172.088L77.9843 179ZM86.6853 176.66H90.9093V179H91.7373V176.66H92.9373V175.928H91.7373V170.564H90.8373L86.6853 176.12V176.66ZM87.6933 175.928V175.904L90.5013 172.244C90.7293 171.944 90.9213 171.608 90.9213 171.608H90.9453C90.9453 171.608 90.9093 172.04 90.9093 172.4V175.928H87.6933ZM96.0775 179.144C98.6935 179.144 99.7855 176.492 99.7855 174.38C99.7855 172.1 98.5735 170.42 96.7375 170.42C95.2615 170.42 94.0975 171.488 94.0975 173.24C94.0975 174.836 95.1775 175.964 96.7135 175.964C97.5895 175.964 98.4415 175.58 98.8615 174.98H98.8855C98.7295 176.624 97.8415 178.364 96.0655 178.364C95.3695 178.364 94.8415 178.064 94.8415 178.064L94.5295 178.796C94.5295 178.796 95.1535 179.144 96.0775 179.144ZM96.8455 175.22C95.6935 175.22 94.9375 174.428 94.9375 173.228C94.9375 172.064 95.6095 171.2 96.7495 171.2C98.0095 171.2 98.8855 172.652 98.8855 173.78C98.8855 174.464 97.9855 175.22 96.8455 175.22Z" fill="#404040"/>
<path d="M49.756 199.144C51.952 199.144 52.66 197.224 52.66 194.776C52.66 192.352 51.952 190.42 49.756 190.42C47.56 190.42 46.84 192.352 46.84 194.776C46.84 197.224 47.56 199.144 49.756 199.144ZM49.756 198.364C48.148 198.364 47.704 196.792 47.704 194.776C47.704 192.772 48.148 191.2 49.756 191.2C51.352 191.2 51.796 192.772 51.796 194.776C51.796 196.792 51.352 198.364 49.756 198.364ZM60.5507 199.144C62.0267 199.144 63.2027 198.076 63.2027 196.324C63.2027 194.728 62.1107 193.6 60.5747 193.6C59.6987 193.6 58.8467 193.984 58.4387 194.584H58.4147C58.5587 192.94 59.4587 191.2 61.2227 191.2C61.9187 191.2 62.4467 191.5 62.4467 191.5L62.7587 190.768C62.7587 190.768 62.1467 190.42 61.2107 190.42C58.6067 190.42 57.5027 193.072 57.5027 195.184C57.5027 197.464 58.7147 199.144 60.5507 199.144ZM60.5387 198.364C59.2787 198.364 58.4027 196.912 58.4027 195.784C58.4027 195.1 59.3147 194.344 60.4427 194.344C61.5947 194.344 62.3507 195.136 62.3507 196.336C62.3507 197.5 61.6787 198.364 60.5387 198.364ZM67.6154 199.144C69.8114 199.144 70.5194 197.224 70.5194 194.776C70.5194 192.352 69.8114 190.42 67.6154 190.42C65.4194 190.42 64.6994 192.352 64.6994 194.776C64.6994 197.224 65.4194 199.144 67.6154 199.144ZM67.6154 198.364C66.0074 198.364 65.5634 196.792 65.5634 194.776C65.5634 192.772 66.0074 191.2 67.6154 191.2C69.2114 191.2 69.6554 192.772 69.6554 194.776C69.6554 196.792 69.2114 198.364 67.6154 198.364ZM75.35 196.576C75.35 198.172 76.682 199.144 78.206 199.144C79.838 199.144 81.002 198.028 81.002 196.708C81.002 195.832 80.474 195.292 79.778 194.896C79.874 194.8 80.81 193.816 80.81 192.616C80.81 191.296 79.802 190.42 78.23 190.42C76.526 190.42 75.686 191.464 75.686 192.556C75.686 193.36 76.13 193.876 76.73 194.272C76.538 194.392 75.35 195.22 75.35 196.576ZM80.15 196.696C80.15 197.692 79.202 198.376 78.206 198.376C77.186 198.376 76.202 197.68 76.202 196.54C76.202 195.46 77.15 194.788 77.414 194.632C78.662 195.232 80.15 195.604 80.15 196.696ZM76.526 192.568C76.526 191.812 77.15 191.188 78.23 191.188C79.25 191.188 79.97 191.752 79.97 192.652C79.97 193.66 79.25 194.416 79.094 194.56C77.882 194.032 76.526 193.66 76.526 192.568ZM85.5568 199.144C87.7528 199.144 88.4608 197.224 88.4608 194.776C88.4608 192.352 87.7528 190.42 85.5568 190.42C83.3608 190.42 82.6408 192.352 82.6408 194.776C82.6408 197.224 83.3608 199.144 85.5568 199.144ZM85.5568 198.364C83.9488 198.364 83.5048 196.792 83.5048 194.776C83.5048 192.772 83.9488 191.2 85.5568 191.2C87.1528 191.2 87.5968 192.772 87.5968 194.776C87.5968 196.792 87.1528 198.364 85.5568 198.364ZM93.1714 197.944C93.1714 197.944 93.9634 199.144 95.6434 199.144C97.2874 199.144 98.5714 197.932 98.5714 196.372C98.5714 194.848 97.3594 193.624 95.6674 193.624C94.9114 193.624 94.3834 193.948 94.3834 193.948H94.3594C94.3594 193.948 94.4074 193.768 94.4434 193.468L94.6834 191.308H98.0434V190.564H93.9634L93.5074 194.656L94.0354 194.848C94.0354 194.848 94.6714 194.392 95.5714 194.392C96.7714 194.392 97.7074 195.22 97.7074 196.372C97.7074 197.524 96.7714 198.352 95.6074 198.352C94.3234 198.352 93.6994 197.368 93.6994 197.368L93.1714 197.944Z" fill="#404040"/>
<path d="M47.86 218H48.592L49 215.66H51.076L50.668 218H51.4L51.808 215.66H53.488L53.596 214.988H51.928L52.336 212.636H54.016L54.136 211.964H52.456L52.876 209.564H52.144L51.724 211.964H49.648L50.068 209.564H49.336L48.916 211.964H47.212L47.104 212.636H48.796L48.376 214.988H46.684L46.564 215.66H48.268L47.86 218ZM49.12 214.988L49.528 212.636H51.604L51.184 214.988H49.12ZM55.9076 218H56.7356V214.22H59.8316V213.476H56.7356V210.308H60.3476V209.564H55.9076V218ZM61.6157 218H66.8837V217.256H62.4797C62.4917 215.012 66.7517 214.616 66.7517 211.784C66.7517 210.464 65.7917 209.42 64.1837 209.42C62.3957 209.42 61.6277 210.944 61.6277 210.944L62.2517 211.364C62.2517 211.364 62.8997 210.212 64.1357 210.212C65.1917 210.212 65.8877 210.908 65.8877 211.832C65.8877 214.112 61.5677 214.496 61.5677 217.46C61.5677 217.628 61.5797 217.808 61.6157 218ZM71.4608 218.144C72.9368 218.144 74.1128 217.076 74.1128 215.324C74.1128 213.728 73.0208 212.6 71.4848 212.6C70.6088 212.6 69.7568 212.984 69.3488 213.584H69.3248C69.4688 211.94 70.3688 210.2 72.1328 210.2C72.8288 210.2 73.3568 210.5 73.3568 210.5L73.6688 209.768C73.6688 209.768 73.0568 209.42 72.1208 209.42C69.5168 209.42 68.4128 212.072 68.4128 214.184C68.4128 216.464 69.6248 218.144 71.4608 218.144ZM71.4488 217.364C70.1888 217.364 69.3128 215.912 69.3128 214.784C69.3128 214.1 70.2248 213.344 71.3528 213.344C72.5048 213.344 73.2608 214.136 73.2608 215.336C73.2608 216.5 72.5888 217.364 71.4488 217.364ZM75.4415 218H80.0135V217.256H78.1535V209.564H77.3855L75.4775 211.46L76.0055 212L76.9055 211.1C77.2415 210.776 77.3255 210.596 77.3255 210.596H77.3495C77.3495 210.596 77.3375 210.824 77.3375 211.064V217.256H75.4415V218ZM80.8994 216.992C80.8994 216.992 81.9194 218.144 83.5754 218.144C85.1714 218.144 86.3474 216.944 86.3474 215.504C86.3474 213.68 84.7754 213.08 83.7074 213.02L86.2274 210.116V209.564H81.2954V210.308H84.4634C84.9074 210.308 85.1474 210.272 85.1474 210.272V210.296C85.1474 210.296 84.9314 210.5 84.7034 210.764L82.5914 213.236L82.7954 213.728H83.3714C84.4754 213.728 85.4954 214.34 85.4954 215.528C85.4954 216.608 84.5714 217.352 83.5634 217.352C82.2674 217.352 81.4034 216.356 81.4034 216.356L80.8994 216.992ZM87.7697 218H92.3417V217.256H90.4817V209.564H89.7137L87.8057 211.46L88.3337 212L89.2337 211.1C89.5697 210.776 89.6537 210.596 89.6537 210.596H89.6777C89.6777 210.596 89.6657 210.824 89.6657 211.064V217.256H87.7697V218Z" fill="#404040"/>
<path d="M1.224 179H2.052V175.448H4.176L6.084 179H7.032L5.196 175.604C5.064 175.376 4.98 175.268 4.98 175.268V175.244C5.928 174.98 6.576 174.104 6.576 172.964C6.576 171.944 6.096 171.14 5.304 170.792C4.968 170.648 4.584 170.564 3.72 170.564H1.224V179ZM2.052 174.704V171.308H3.756C4.404 171.308 4.704 171.38 4.956 171.512C5.448 171.776 5.724 172.292 5.724 172.988C5.724 174.044 5.076 174.704 4.056 174.704H2.052ZM8.19516 174.776C8.19516 177.284 10.0192 179.144 12.3232 179.144C14.0992 179.144 15.0712 178.004 15.0712 178.004H15.0952C15.0952 178.004 15.0832 178.184 15.0832 178.364V179H15.8512V174.968H13.6192V175.712H15.0592V177.14C15.0592 177.14 14.0512 178.376 12.4072 178.376C10.4872 178.376 9.05916 176.84 9.05916 174.764C9.05916 172.76 10.4392 171.188 12.4792 171.188C14.0152 171.188 14.9992 172.028 14.9992 172.028L15.4432 171.404C15.4432 171.404 14.3992 170.42 12.4432 170.42C10.0192 170.42 8.19516 172.34 8.19516 174.776ZM17.8529 179H20.8289C22.2449 179 23.3609 178.136 23.3609 176.636C23.3609 175.616 22.8089 174.788 21.9449 174.548V174.524C22.5929 174.2 23.0129 173.564 23.0129 172.688C23.0129 171.368 22.0649 170.564 20.7329 170.564H17.8529V179ZM18.6809 174.224V171.308H20.7209C21.6209 171.308 22.1609 171.884 22.1609 172.748C22.1609 173.624 21.5849 174.224 20.7329 174.224H18.6809ZM18.6809 178.256V174.944H20.8289C21.8129 174.944 22.4969 175.604 22.4969 176.612C22.4969 177.62 21.8609 178.256 20.8409 178.256H18.6809Z" fill="#404040"/>
<path d="M0.66 194.728C0.66 197.188 2.436 199.144 4.932 199.144C7.008 199.144 8.16 197.836 8.16 197.836L7.68 197.248C7.68 197.248 6.648 198.376 4.944 198.376C2.94 198.376 1.524 196.732 1.524 194.716C1.524 192.724 2.94 191.188 4.92 191.188C6.504 191.188 7.488 192.124 7.488 192.124L7.932 191.512C7.932 191.512 6.912 190.42 4.896 190.42C2.484 190.42 0.66 192.28 0.66 194.728ZM9.69047 199H10.5185L10.9865 193.096C11.0225 192.64 11.0105 191.896 11.0105 191.896H11.0345C11.0345 191.896 11.2985 192.676 11.4905 193.096L13.4705 197.428H14.2505L16.2305 193.096C16.4225 192.664 16.6745 191.92 16.6745 191.92H16.6985C16.6985 191.92 16.6865 192.64 16.7225 193.096L17.1905 199H18.0185L17.3465 190.564H16.4945L14.2865 195.52C14.0945 195.952 13.8665 196.552 13.8665 196.552H13.8425C13.8425 196.552 13.6265 195.952 13.4345 195.52L11.2265 190.564H10.3625L9.69047 199ZM21.8912 199H22.7312V195.376L25.5632 190.564H24.6272L22.8392 193.624C22.5752 194.068 22.3232 194.632 22.3232 194.632H22.2992C22.2992 194.632 22.0352 194.056 21.7832 193.624L19.9952 190.564H19.0472L21.8912 195.376V199ZM26.9818 199H27.8098V194.968H29.2378L31.6498 199H32.6218L29.9338 194.572V194.548L32.4538 190.564H31.5058L29.2378 194.224H27.8098V190.564H26.9818V199Z" fill="#404040"/>
<path d="M1.224 218H2.052V214.148H6.948V218H7.776V209.564H6.948V213.404H2.052V209.564H1.224V218ZM10.224 218H15.192V217.256H11.052V214.124H14.256V213.38H11.052V210.308H14.976V209.564H10.224V218ZM16.1675 218H17.1275L18.8555 215.096C19.1195 214.652 19.3715 214.148 19.3715 214.148H19.3955C19.3955 214.148 19.6595 214.652 19.9235 215.084L21.6755 218H22.6355L19.9355 213.596L22.4075 209.564H21.4235L19.9355 212.06C19.6715 212.492 19.4315 213.032 19.4315 213.032H19.4075C19.4075 213.032 19.1075 212.492 18.8555 212.06L17.3795 209.564H16.4075L18.8555 213.596L16.1675 218Z" fill="#404040"/>
</svg>
