<svg width="169" height="219" viewBox="0 0 169 219" fill="none" xmlns="http://www.w3.org/2000/svg">
<rect width="169" height="150" fill="#FED099"/>
<path d="M46.768 179H52.036V178.256H47.632C47.644 176.012 51.904 175.616 51.904 172.784C51.904 171.464 50.944 170.42 49.336 170.42C47.548 170.42 46.78 171.944 46.78 171.944L47.404 172.364C47.404 172.364 48.052 171.212 49.288 171.212C50.344 171.212 51.04 171.908 51.04 172.832C51.04 175.112 46.72 175.496 46.72 178.46C46.72 178.628 46.732 178.808 46.768 179ZM53.4332 177.944C53.4332 177.944 54.2252 179.144 55.9052 179.144C57.5492 179.144 58.8332 177.932 58.8332 176.372C58.8332 174.848 57.6212 173.624 55.9292 173.624C55.1732 173.624 54.6452 173.948 54.6452 173.948H54.6212C54.6212 173.948 54.6692 173.768 54.7052 173.468L54.9452 171.308H58.3052V170.564H54.2252L53.7692 174.656L54.2972 174.848C54.2972 174.848 54.9332 174.392 55.8332 174.392C57.0332 174.392 57.9692 175.22 57.9692 176.372C57.9692 177.524 57.0332 178.352 55.8692 178.352C54.5852 178.352 53.9612 177.368 53.9612 177.368L53.4332 177.944ZM59.8846 176.66H64.1086V179H64.9366V176.66H66.1366V175.928H64.9366V170.564H64.0366L59.8846 176.12V176.66ZM60.8926 175.928V175.904L63.7006 172.244C63.9286 171.944 64.1206 171.608 64.1206 171.608H64.1446C64.1446 171.608 64.1086 172.04 64.1086 172.4V175.928H60.8926ZM70.6274 179H75.8954V178.256H71.4914C71.5034 176.012 75.7634 175.616 75.7634 172.784C75.7634 171.464 74.8034 170.42 73.1954 170.42C71.4074 170.42 70.6394 171.944 70.6394 171.944L71.2634 172.364C71.2634 172.364 71.9114 171.212 73.1474 171.212C74.2034 171.212 74.8994 171.908 74.8994 172.832C74.8994 175.112 70.5794 175.496 70.5794 178.46C70.5794 178.628 70.5914 178.808 70.6274 179ZM80.4005 179.144C82.5965 179.144 83.3045 177.224 83.3045 174.776C83.3045 172.352 82.5965 170.42 80.4005 170.42C78.2045 170.42 77.4845 172.352 77.4845 174.776C77.4845 177.224 78.2045 179.144 80.4005 179.144ZM80.4005 178.364C78.7925 178.364 78.3485 176.792 78.3485 174.776C78.3485 172.772 78.7925 171.2 80.4005 171.2C81.9965 171.2 82.4405 172.772 82.4405 174.776C82.4405 176.792 81.9965 178.364 80.4005 178.364ZM84.9125 176.576C84.9125 178.172 86.2445 179.144 87.7685 179.144C89.4005 179.144 90.5645 178.028 90.5645 176.708C90.5645 175.832 90.0365 175.292 89.3405 174.896C89.4365 174.8 90.3725 173.816 90.3725 172.616C90.3725 171.296 89.3645 170.42 87.7925 170.42C86.0885 170.42 85.2485 171.464 85.2485 172.556C85.2485 173.36 85.6925 173.876 86.2925 174.272C86.1005 174.392 84.9125 175.22 84.9125 176.576ZM89.7125 176.696C89.7125 177.692 88.7645 178.376 87.7685 178.376C86.7485 178.376 85.7645 177.68 85.7645 176.54C85.7645 175.46 86.7125 174.788 86.9765 174.632C88.2245 175.232 89.7125 175.604 89.7125 176.696ZM86.0885 172.568C86.0885 171.812 86.7125 171.188 87.7925 171.188C88.8125 171.188 89.5325 171.752 89.5325 172.652C89.5325 173.66 88.8125 174.416 88.6565 174.56C87.4445 174.032 86.0885 173.66 86.0885 172.568ZM95.2579 179H99.8299V178.256H97.9699V170.564H97.2019L95.2939 172.46L95.8219 173L96.7219 172.1C97.0579 171.776 97.1419 171.596 97.1419 171.596H97.1659C97.1659 171.596 97.1539 171.824 97.1539 172.064V178.256H95.2579V179ZM100.824 177.944C100.824 177.944 101.616 179.144 103.296 179.144C104.94 179.144 106.224 177.932 106.224 176.372C106.224 174.848 105.012 173.624 103.32 173.624C102.564 173.624 102.036 173.948 102.036 173.948H102.012C102.012 173.948 102.06 173.768 102.096 173.468L102.336 171.308H105.696V170.564H101.616L101.16 174.656L101.688 174.848C101.688 174.848 102.324 174.392 103.224 174.392C104.424 174.392 105.36 175.22 105.36 176.372C105.36 177.524 104.424 178.352 103.26 178.352C101.976 178.352 101.352 177.368 101.352 177.368L100.824 177.944ZM107.407 177.992C107.407 177.992 108.427 179.144 110.083 179.144C111.679 179.144 112.855 177.944 112.855 176.504C112.855 174.68 111.283 174.08 110.215 174.02L112.735 171.116V170.564H107.803V171.308H110.971C111.415 171.308 111.655 171.272 111.655 171.272V171.296C111.655 171.296 111.439 171.5 111.211 171.764L109.099 174.236L109.303 174.728H109.879C110.983 174.728 112.003 175.34 112.003 176.528C112.003 177.608 111.079 178.352 110.071 178.352C108.775 178.352 107.911 177.356 107.911 177.356L107.407 177.992Z" fill="#404040"/>
<path d="M49.756 199.144C51.952 199.144 52.66 197.224 52.66 194.776C52.66 192.352 51.952 190.42 49.756 190.42C47.56 190.42 46.84 192.352 46.84 194.776C46.84 197.224 47.56 199.144 49.756 199.144ZM49.756 198.364C48.148 198.364 47.704 196.792 47.704 194.776C47.704 192.772 48.148 191.2 49.756 191.2C51.352 191.2 51.796 192.772 51.796 194.776C51.796 196.792 51.352 198.364 49.756 198.364ZM57.3947 199H61.9667V198.256H60.1067V190.564H59.3387L57.4307 192.46L57.9587 193L58.8587 192.1C59.1947 191.776 59.2787 191.596 59.2787 191.596H59.3027C59.3027 191.596 59.2907 191.824 59.2907 192.064V198.256H57.3947V199ZM63.0805 196.576C63.0805 198.172 64.4125 199.144 65.9365 199.144C67.5685 199.144 68.7325 198.028 68.7325 196.708C68.7325 195.832 68.2045 195.292 67.5085 194.896C67.6045 194.8 68.5405 193.816 68.5405 192.616C68.5405 191.296 67.5325 190.42 65.9605 190.42C64.2565 190.42 63.4165 191.464 63.4165 192.556C63.4165 193.36 63.8605 193.876 64.4605 194.272C64.2685 194.392 63.0805 195.22 63.0805 196.576ZM67.8805 196.696C67.8805 197.692 66.9325 198.376 65.9365 198.376C64.9165 198.376 63.9325 197.68 63.9325 196.54C63.9325 195.46 64.8805 194.788 65.1445 194.632C66.3925 195.232 67.8805 195.604 67.8805 196.696ZM64.2565 192.568C64.2565 191.812 64.8805 191.188 65.9605 191.188C66.9805 191.188 67.7005 191.752 67.7005 192.652C67.7005 193.66 66.9805 194.416 66.8245 194.56C65.6125 194.032 64.2565 193.66 64.2565 192.568ZM73.1619 196.66H77.3859V199H78.2139V196.66H79.4139V195.928H78.2139V190.564H77.3139L73.1619 196.12V196.66ZM74.1699 195.928V195.904L76.9779 192.244C77.2059 191.944 77.3979 191.608 77.3979 191.608H77.4219C77.4219 191.608 77.3859 192.04 77.3859 192.4V195.928H74.1699ZM83.6701 199.144C85.8661 199.144 86.5741 197.224 86.5741 194.776C86.5741 192.352 85.8661 190.42 83.6701 190.42C81.4741 190.42 80.7541 192.352 80.7541 194.776C80.7541 197.224 81.4741 199.144 83.6701 199.144ZM83.6701 198.364C82.0621 198.364 81.6181 196.792 81.6181 194.776C81.6181 192.772 82.0621 191.2 83.6701 191.2C85.2661 191.2 85.7101 192.772 85.7101 194.776C85.7101 196.792 85.2661 198.364 83.6701 198.364ZM94.3927 199.144C96.5887 199.144 97.2967 197.224 97.2967 194.776C97.2967 192.352 96.5887 190.42 94.3927 190.42C92.1967 190.42 91.4767 192.352 91.4767 194.776C91.4767 197.224 92.1967 199.144 94.3927 199.144ZM94.3927 198.364C92.7847 198.364 92.3407 196.792 92.3407 194.776C92.3407 192.772 92.7847 191.2 94.3927 191.2C95.9887 191.2 96.4327 192.772 96.4327 194.776C96.4327 196.792 95.9887 198.364 94.3927 198.364Z" fill="#404040"/>
<path d="M47.86 218H48.592L49 215.66H51.076L50.668 218H51.4L51.808 215.66H53.488L53.596 214.988H51.928L52.336 212.636H54.016L54.136 211.964H52.456L52.876 209.564H52.144L51.724 211.964H49.648L50.068 209.564H49.336L48.916 211.964H47.212L47.104 212.636H48.796L48.376 214.988H46.684L46.564 215.66H48.268L47.86 218ZM49.12 214.988L49.528 212.636H51.604L51.184 214.988H49.12ZM55.9076 218H56.7356V214.22H59.8316V213.476H56.7356V210.308H60.3476V209.564H55.9076V218ZM62.0717 218H67.0397V217.256H62.8997V214.124H66.1037V213.38H62.8997V210.308H66.8237V209.564H62.0717V218ZM68.9271 218H71.6511C74.1831 218 75.8871 216.464 75.8871 213.776C75.8871 211.112 74.1831 209.564 71.6511 209.564H68.9271V218ZM69.7551 217.256V210.308H71.5671C73.6311 210.308 75.0231 211.532 75.0231 213.776C75.0231 216.032 73.6431 217.256 71.5671 217.256H69.7551ZM80.3419 218.144C82.5379 218.144 83.2459 216.224 83.2459 213.776C83.2459 211.352 82.5379 209.42 80.3419 209.42C78.1459 209.42 77.4259 211.352 77.4259 213.776C77.4259 216.224 78.1459 218.144 80.3419 218.144ZM80.3419 217.364C78.7339 217.364 78.2899 215.792 78.2899 213.776C78.2899 211.772 78.7339 210.2 80.3419 210.2C81.9379 210.2 82.3819 211.772 82.3819 213.776C82.3819 215.792 81.9379 217.364 80.3419 217.364ZM86.7259 218.144C89.3419 218.144 90.4339 215.492 90.4339 213.38C90.4339 211.1 89.2219 209.42 87.3859 209.42C85.9099 209.42 84.7459 210.488 84.7459 212.24C84.7459 213.836 85.8259 214.964 87.3619 214.964C88.2379 214.964 89.0899 214.58 89.5099 213.98H89.5339C89.3779 215.624 88.4899 217.364 86.7139 217.364C86.0179 217.364 85.4899 217.064 85.4899 217.064L85.1779 217.796C85.1779 217.796 85.8019 218.144 86.7259 218.144ZM87.4939 214.22C86.3419 214.22 85.5859 213.428 85.5859 212.228C85.5859 211.064 86.2579 210.2 87.3979 210.2C88.6579 210.2 89.5339 211.652 89.5339 212.78C89.5339 213.464 88.6339 214.22 87.4939 214.22ZM93.8509 218.144C96.4669 218.144 97.5589 215.492 97.5589 213.38C97.5589 211.1 96.3469 209.42 94.5109 209.42C93.0349 209.42 91.8709 210.488 91.8709 212.24C91.8709 213.836 92.9509 214.964 94.4869 214.964C95.3629 214.964 96.2149 214.58 96.6349 213.98H96.6589C96.5029 215.624 95.6149 217.364 93.8389 217.364C93.1429 217.364 92.6149 217.064 92.6149 217.064L92.3029 217.796C92.3029 217.796 92.9269 218.144 93.8509 218.144ZM94.6189 214.22C93.4669 214.22 92.7109 213.428 92.7109 212.228C92.7109 211.064 93.3829 210.2 94.5229 210.2C95.7829 210.2 96.6589 211.652 96.6589 212.78C96.6589 213.464 95.7589 214.22 94.6189 214.22Z" fill="#404040"/>
<path d="M1.224 179H2.052V175.448H4.176L6.084 179H7.032L5.196 175.604C5.064 175.376 4.98 175.268 4.98 175.268V175.244C5.928 174.98 6.576 174.104 6.576 172.964C6.576 171.944 6.096 171.14 5.304 170.792C4.968 170.648 4.584 170.564 3.72 170.564H1.224V179ZM2.052 174.704V171.308H3.756C4.404 171.308 4.704 171.38 4.956 171.512C5.448 171.776 5.724 172.292 5.724 172.988C5.724 174.044 5.076 174.704 4.056 174.704H2.052ZM8.19516 174.776C8.19516 177.284 10.0192 179.144 12.3232 179.144C14.0992 179.144 15.0712 178.004 15.0712 178.004H15.0952C15.0952 178.004 15.0832 178.184 15.0832 178.364V179H15.8512V174.968H13.6192V175.712H15.0592V177.14C15.0592 177.14 14.0512 178.376 12.4072 178.376C10.4872 178.376 9.05916 176.84 9.05916 174.764C9.05916 172.76 10.4392 171.188 12.4792 171.188C14.0152 171.188 14.9992 172.028 14.9992 172.028L15.4432 171.404C15.4432 171.404 14.3992 170.42 12.4432 170.42C10.0192 170.42 8.19516 172.34 8.19516 174.776ZM17.8529 179H20.8289C22.2449 179 23.3609 178.136 23.3609 176.636C23.3609 175.616 22.8089 174.788 21.9449 174.548V174.524C22.5929 174.2 23.0129 173.564 23.0129 172.688C23.0129 171.368 22.0649 170.564 20.7329 170.564H17.8529V179ZM18.6809 174.224V171.308H20.7209C21.6209 171.308 22.1609 171.884 22.1609 172.748C22.1609 173.624 21.5849 174.224 20.7329 174.224H18.6809ZM18.6809 178.256V174.944H20.8289C21.8129 174.944 22.4969 175.604 22.4969 176.612C22.4969 177.62 21.8609 178.256 20.8409 178.256H18.6809Z" fill="#404040"/>
<path d="M0.66 194.728C0.66 197.188 2.436 199.144 4.932 199.144C7.008 199.144 8.16 197.836 8.16 197.836L7.68 197.248C7.68 197.248 6.648 198.376 4.944 198.376C2.94 198.376 1.524 196.732 1.524 194.716C1.524 192.724 2.94 191.188 4.92 191.188C6.504 191.188 7.488 192.124 7.488 192.124L7.932 191.512C7.932 191.512 6.912 190.42 4.896 190.42C2.484 190.42 0.66 192.28 0.66 194.728ZM9.69047 199H10.5185L10.9865 193.096C11.0225 192.64 11.0105 191.896 11.0105 191.896H11.0345C11.0345 191.896 11.2985 192.676 11.4905 193.096L13.4705 197.428H14.2505L16.2305 193.096C16.4225 192.664 16.6745 191.92 16.6745 191.92H16.6985C16.6985 191.92 16.6865 192.64 16.7225 193.096L17.1905 199H18.0185L17.3465 190.564H16.4945L14.2865 195.52C14.0945 195.952 13.8665 196.552 13.8665 196.552H13.8425C13.8425 196.552 13.6265 195.952 13.4345 195.52L11.2265 190.564H10.3625L9.69047 199ZM21.8912 199H22.7312V195.376L25.5632 190.564H24.6272L22.8392 193.624C22.5752 194.068 22.3232 194.632 22.3232 194.632H22.2992C22.2992 194.632 22.0352 194.056 21.7832 193.624L19.9952 190.564H19.0472L21.8912 195.376V199ZM26.9818 199H27.8098V194.968H29.2378L31.6498 199H32.6218L29.9338 194.572V194.548L32.4538 190.564H31.5058L29.2378 194.224H27.8098V190.564H26.9818V199Z" fill="#404040"/>
<path d="M1.224 218H2.052V214.148H6.948V218H7.776V209.564H6.948V213.404H2.052V209.564H1.224V218ZM10.224 218H15.192V217.256H11.052V214.124H14.256V213.38H11.052V210.308H14.976V209.564H10.224V218ZM16.1675 218H17.1275L18.8555 215.096C19.1195 214.652 19.3715 214.148 19.3715 214.148H19.3955C19.3955 214.148 19.6595 214.652 19.9235 215.084L21.6755 218H22.6355L19.9355 213.596L22.4075 209.564H21.4235L19.9355 212.06C19.6715 212.492 19.4315 213.032 19.4315 213.032H19.4075C19.4075 213.032 19.1075 212.492 18.8555 212.06L17.3795 209.564H16.4075L18.8555 213.596L16.1675 218Z" fill="#404040"/>
</svg>
