<svg width="337" height="293" viewBox="0 0 337 293" fill="none" xmlns="http://www.w3.org/2000/svg">
<path d="M257.84 219H264.21V217.796H259.31C259.338 215.542 264.056 215.038 264.056 211.79C264.056 210.082 262.754 208.948 260.934 208.948C258.708 208.948 257.812 210.824 257.812 210.824L258.834 211.51C258.834 211.51 259.534 210.25 260.836 210.25C261.872 210.25 262.614 210.908 262.614 211.888C262.614 214.212 257.77 214.716 257.77 218.244C257.77 218.482 257.798 218.734 257.84 219ZM265.684 217.796C265.684 217.796 266.678 219.168 268.708 219.168C270.71 219.168 272.208 217.74 272.208 215.836C272.208 214.058 270.85 212.616 268.764 212.616C268.036 212.616 267.49 212.924 267.49 212.924H267.462C267.462 212.924 267.518 212.7 267.532 212.406L267.77 210.32H271.55V209.116H266.566L266.076 214.016L266.874 214.31C266.874 214.31 267.574 213.82 268.54 213.82C269.814 213.82 270.794 214.66 270.794 215.85C270.794 217.054 269.786 217.852 268.624 217.852C267.224 217.852 266.454 216.788 266.454 216.788L265.684 217.796ZM273.46 217.824C273.46 217.824 274.65 219.168 276.666 219.168C278.696 219.168 280.026 217.684 280.026 215.99C280.026 214.072 278.43 213.232 277.128 213.092L279.816 209.998V209.116H273.908V210.32H277.254C277.8 210.32 278.094 210.278 278.094 210.278V210.306C278.094 210.306 277.8 210.572 277.478 210.95L275.322 213.484L275.644 214.226H276.33C277.548 214.226 278.626 214.828 278.626 216.046C278.626 217.11 277.716 217.852 276.61 217.852C275.182 217.852 274.216 216.774 274.216 216.774L273.46 217.824ZM285.223 219H290.907V217.796H288.751V209.116H287.519L285.153 211.412L285.993 212.28L286.917 211.37C287.281 211.02 287.393 210.796 287.393 210.796H287.421C287.421 210.796 287.407 211.104 287.407 211.412V217.796H285.223V219ZM294.397 219.168C297.463 219.168 298.849 216.144 298.849 213.61C298.849 210.782 297.253 208.948 295.153 208.948C293.305 208.948 291.975 210.306 291.975 212.252C291.975 214.086 293.221 215.5 295.097 215.5C295.965 215.5 296.875 215.136 297.281 214.576H297.309C297.099 216.214 296.161 217.894 294.341 217.894C293.557 217.894 292.927 217.558 292.927 217.558L292.479 218.762C292.479 218.762 293.221 219.168 294.397 219.168ZM295.377 214.338C294.103 214.338 293.347 213.456 293.347 212.252C293.347 211.104 294.019 210.222 295.167 210.222C296.427 210.222 297.393 211.664 297.393 212.952C297.393 213.652 296.497 214.338 295.377 214.338ZM300.23 217.824C300.23 217.824 301.42 219.168 303.436 219.168C305.466 219.168 306.796 217.684 306.796 215.99C306.796 214.072 305.2 213.232 303.898 213.092L306.586 209.998V209.116H300.678V210.32H304.024C304.57 210.32 304.864 210.278 304.864 210.278V210.306C304.864 210.306 304.57 210.572 304.248 210.95L302.092 213.484L302.414 214.226H303.1C304.318 214.226 305.396 214.828 305.396 216.046C305.396 217.11 304.486 217.852 303.38 217.852C301.952 217.852 300.986 216.774 300.986 216.774L300.23 217.824ZM311.993 219H317.677V217.796H315.521V209.116H314.289L311.923 211.412L312.763 212.28L313.687 211.37C314.051 211.02 314.163 210.796 314.163 210.796H314.191C314.191 210.796 314.177 211.104 314.177 211.412V217.796H311.993V219ZM318.899 219H325.269V217.796H320.369C320.397 215.542 325.115 215.038 325.115 211.79C325.115 210.082 323.813 208.948 321.993 208.948C319.767 208.948 318.871 210.824 318.871 210.824L319.893 211.51C319.893 211.51 320.593 210.25 321.895 210.25C322.931 210.25 323.673 210.908 323.673 211.888C323.673 214.212 318.829 214.716 318.829 218.244C318.829 218.482 318.857 218.734 318.899 219ZM326.63 217.824C326.63 217.824 327.82 219.168 329.836 219.168C331.866 219.168 333.196 217.684 333.196 215.99C333.196 214.072 331.6 213.232 330.298 213.092L332.986 209.998V209.116H327.078V210.32H330.424C330.97 210.32 331.264 210.278 331.264 210.278V210.306C331.264 210.306 330.97 210.572 330.648 210.95L328.492 213.484L328.814 214.226H329.5C330.718 214.226 331.796 214.828 331.796 216.046C331.796 217.11 330.886 217.852 329.78 217.852C328.352 217.852 327.386 216.774 327.386 216.774L326.63 217.824Z" fill="#404040"/>
<path d="M261.368 240.168C264.014 240.168 264.868 237.9 264.868 235.044C264.868 232.202 264.014 229.948 261.368 229.948C258.736 229.948 257.882 232.202 257.882 235.044C257.882 237.9 258.736 240.168 261.368 240.168ZM261.368 238.894C259.758 238.894 259.296 237.2 259.296 235.044C259.296 232.902 259.758 231.222 261.368 231.222C262.992 231.222 263.454 232.902 263.454 235.044C263.454 237.2 262.992 238.894 261.368 238.894ZM270.186 240H276.556V238.796H271.656C271.684 236.542 276.402 236.038 276.402 232.79C276.402 231.082 275.1 229.948 273.28 229.948C271.054 229.948 270.158 231.824 270.158 231.824L271.18 232.51C271.18 232.51 271.88 231.25 273.182 231.25C274.218 231.25 274.96 231.908 274.96 232.888C274.96 235.212 270.116 235.716 270.116 239.244C270.116 239.482 270.144 239.734 270.186 240ZM277.559 237.354H282.347V240H283.705V237.354H285.049V236.178H283.705V230.116H282.123L277.559 236.486V237.354ZM279.085 236.178V236.15L281.885 232.412C282.151 232.062 282.375 231.6 282.375 231.6H282.403C282.403 231.6 282.347 232.118 282.347 232.58V236.178H279.085ZM289.883 238.796C289.883 238.796 290.877 240.168 292.907 240.168C294.909 240.168 296.407 238.74 296.407 236.836C296.407 235.058 295.049 233.616 292.963 233.616C292.235 233.616 291.689 233.924 291.689 233.924H291.661C291.661 233.924 291.717 233.7 291.731 233.406L291.969 231.32H295.749V230.116H290.765L290.275 235.016L291.073 235.31C291.073 235.31 291.773 234.82 292.739 234.82C294.013 234.82 294.993 235.66 294.993 236.85C294.993 238.054 293.985 238.852 292.823 238.852C291.423 238.852 290.653 237.788 290.653 237.788L289.883 238.796ZM297.884 240H303.568V238.796H301.412V230.116H300.18L297.814 232.412L298.654 233.28L299.578 232.37C299.942 232.02 300.054 231.796 300.054 231.796H300.082C300.082 231.796 300.068 232.104 300.068 232.412V238.796H297.884V240ZM308.329 240H314.013V238.796H311.857V230.116H310.625L308.259 232.412L309.099 233.28L310.023 232.37C310.387 232.02 310.499 231.796 310.499 231.796H310.527C310.527 231.796 310.513 232.104 310.513 232.412V238.796H308.329V240Z" fill="#404040"/>
<path d="M258.974 261H260.108L260.57 258.326H262.74L262.278 261H263.412L263.888 258.326H265.694L265.876 257.29H264.056L264.476 254.938H266.296L266.478 253.916H264.644L265.134 251.116H264L263.51 253.916H261.34L261.83 251.116H260.696L260.206 253.916H258.386L258.218 254.938H260.024L259.618 257.29H257.784L257.616 258.326H259.436L258.974 261ZM260.752 257.29L261.172 254.938H263.342L262.922 257.29H260.752ZM268.393 261H269.779V256.772H273.237V255.568H269.779V252.32H273.839V251.116H268.393V261ZM275.694 261H278.97C281.994 261 283.982 259.18 283.982 256.044C283.982 252.922 281.994 251.116 278.97 251.116H275.694V261ZM277.08 259.796V252.32H278.872C281.084 252.32 282.554 253.622 282.554 256.044C282.554 258.48 281.098 259.796 278.872 259.796H277.08ZM285.385 256.002C285.385 258.9 287.471 261.168 290.439 261.168C292.917 261.168 294.275 259.6 294.275 259.6L293.533 258.606C293.533 258.606 292.343 259.894 290.481 259.894C288.283 259.894 286.813 258.102 286.813 255.988C286.813 253.888 288.255 252.208 290.467 252.208C292.175 252.208 293.323 253.286 293.323 253.286L294.009 252.25C294.009 252.25 292.791 250.948 290.411 250.948C287.541 250.948 285.385 253.132 285.385 256.002ZM295.6 261H301.284V259.796H299.128V251.116H297.896L295.53 253.412L296.37 254.28L297.294 253.37C297.658 253.02 297.77 252.796 297.77 252.796H297.798C297.798 252.796 297.784 253.104 297.784 253.412V259.796H295.6V261ZM302.87 261H304.298L308.764 252.068V251.116H302.156V252.32H306.566C307.07 252.32 307.294 252.278 307.294 252.278V252.306C307.294 252.306 307 252.656 306.72 253.216L302.87 261ZM310.42 261H313.962C315.698 261 317.14 260.048 317.14 258.186C317.14 257.08 316.552 256.1 315.516 255.792V255.764C316.272 255.372 316.748 254.602 316.748 253.636C316.748 252.04 315.544 251.116 313.878 251.116H310.42V261ZM311.806 255.274V252.32H313.85C314.802 252.32 315.334 252.908 315.334 253.776C315.334 254.644 314.774 255.274 313.878 255.274H311.806ZM311.806 259.796V256.422H314.018C315.054 256.422 315.726 257.108 315.726 258.116C315.726 259.124 315.096 259.796 314.032 259.796H311.806Z" fill="#404040"/>
<path d="M208.344 219H209.73V215.066H211.844L213.93 219H215.498L213.398 215.164C213.216 214.842 213.104 214.716 213.104 214.716V214.688C214.182 214.338 214.882 213.274 214.882 212.014C214.882 210.712 214.224 209.718 213.216 209.34C212.838 209.2 212.404 209.116 211.368 209.116H208.344V219ZM209.73 213.862V210.32H211.326C212.096 210.32 212.418 210.404 212.684 210.544C213.188 210.824 213.468 211.342 213.468 212.07C213.468 213.176 212.796 213.862 211.718 213.862H209.73ZM216.655 214.044C216.655 217.068 218.853 219.168 221.513 219.168C223.473 219.168 224.551 217.964 224.551 217.964H224.579C224.579 217.964 224.565 218.174 224.565 218.384V219H225.783V214.03H222.913V215.234H224.523V216.662C224.523 216.662 223.431 217.894 221.723 217.894C219.651 217.894 218.083 216.312 218.083 214.016C218.083 211.902 219.483 210.208 221.807 210.208C223.487 210.208 224.593 211.174 224.593 211.174L225.293 210.138C225.293 210.138 224.061 208.948 221.695 208.948C218.811 208.948 216.655 211.188 216.655 214.044ZM227.949 219H231.491C233.227 219 234.669 218.048 234.669 216.186C234.669 215.08 234.081 214.1 233.045 213.792V213.764C233.801 213.372 234.277 212.602 234.277 211.636C234.277 210.04 233.073 209.116 231.407 209.116H227.949V219ZM229.335 213.274V210.32H231.379C232.331 210.32 232.863 210.908 232.863 211.776C232.863 212.644 232.303 213.274 231.407 213.274H229.335ZM229.335 217.796V214.422H231.547C232.583 214.422 233.255 215.108 233.255 216.116C233.255 217.124 232.625 217.796 231.561 217.796H229.335Z" fill="#404040"/>
<path d="M207.672 235.002C207.672 237.9 209.758 240.168 212.726 240.168C215.204 240.168 216.562 238.6 216.562 238.6L215.82 237.606C215.82 237.606 214.63 238.894 212.768 238.894C210.57 238.894 209.1 237.102 209.1 234.988C209.1 232.888 210.542 231.208 212.754 231.208C214.462 231.208 215.61 232.286 215.61 232.286L216.296 231.25C216.296 231.25 215.078 229.948 212.698 229.948C209.828 229.948 207.672 232.132 207.672 235.002ZM218.14 240H219.526L220.002 233.77C220.044 233.168 220.03 232.286 220.03 232.286H220.058C220.058 232.286 220.366 233.238 220.59 233.77L222.55 238.222H223.782L225.756 233.77C225.994 233.224 226.288 232.314 226.288 232.314H226.316C226.316 232.314 226.288 233.168 226.33 233.77L226.82 240H228.192L227.394 230.116H225.938L223.67 235.464C223.446 236.01 223.18 236.794 223.18 236.794H223.152C223.152 236.794 222.886 236.01 222.662 235.464L220.394 230.116H218.938L218.14 240ZM232.524 240H233.91V235.814L237.214 230.116H235.646L233.84 233.364C233.532 233.924 233.238 234.61 233.238 234.61H233.21C233.21 234.61 232.916 233.91 232.608 233.364L230.774 230.116H229.206L232.524 235.814V240ZM238.668 240H240.054V235.464H241.524L244.156 240H245.724L242.672 234.834V234.806L245.542 230.116H244.016L241.524 234.274H240.054V230.116H238.668V240Z" fill="#404040"/>
<path d="M208.344 261H209.73V256.66H214.854V261H216.24V251.116H214.854V255.456H209.73V251.116H208.344V261ZM218.926 261H224.904V259.796H220.312V256.618H223.854V255.414H220.312V252.32H224.666V251.116H218.926V261ZM225.915 261H227.469L229.261 257.962C229.583 257.416 229.849 256.828 229.849 256.828H229.877C229.877 256.828 230.185 257.402 230.507 257.962L232.299 261H233.867L230.745 255.904L233.671 251.116H232.075L230.521 253.79C230.199 254.336 229.919 254.966 229.919 254.966H229.891C229.891 254.966 229.569 254.322 229.261 253.79L227.707 251.116H226.111L229.037 255.904L225.915 261Z" fill="#404040"/>
<path d="M97.5 292.5L13.0625 146.25L181.937 146.25L97.5 292.5Z" fill="#FDC17B"/>
<path d="M257.84 40H264.21V38.796H259.31C259.338 36.542 264.056 36.038 264.056 32.79C264.056 31.082 262.754 29.948 260.934 29.948C258.708 29.948 257.812 31.824 257.812 31.824L258.834 32.51C258.834 32.51 259.534 31.25 260.836 31.25C261.872 31.25 262.614 31.908 262.614 32.888C262.614 35.212 257.77 35.716 257.77 39.244C257.77 39.482 257.798 39.734 257.84 40ZM265.213 37.354H270.001V40H271.359V37.354H272.703V36.178H271.359V30.116H269.777L265.213 36.486V37.354ZM266.739 36.178V36.15L269.539 32.412C269.805 32.062 270.029 31.6 270.029 31.6H270.057C270.057 31.6 270.001 32.118 270.001 32.58V36.178H266.739ZM277.792 40.168C279.64 40.168 280.97 38.81 280.97 36.864C280.97 35.03 279.724 33.602 277.848 33.602C276.98 33.602 276.084 33.98 275.664 34.54H275.636C275.846 32.902 276.784 31.222 278.604 31.222C279.388 31.222 280.018 31.544 280.018 31.544L280.466 30.354C280.466 30.354 279.71 29.948 278.548 29.948C275.482 29.948 274.096 32.972 274.096 35.506C274.096 38.32 275.678 40.168 277.792 40.168ZM277.778 38.894C276.518 38.894 275.552 37.452 275.552 36.164C275.552 35.45 276.448 34.778 277.568 34.778C278.828 34.778 279.598 35.66 279.598 36.864C279.598 38.012 278.912 38.894 277.778 38.894ZM286.03 40H291.714V38.796H289.558V30.116H288.326L285.96 32.412L286.8 33.28L287.724 32.37C288.088 32.02 288.2 31.796 288.2 31.796H288.228C288.228 31.796 288.214 32.104 288.214 32.412V38.796H286.03V40ZM292.656 38.824C292.656 38.824 293.846 40.168 295.862 40.168C297.892 40.168 299.222 38.684 299.222 36.99C299.222 35.072 297.626 34.232 296.324 34.092L299.012 30.998V30.116H293.104V31.32H296.45C296.996 31.32 297.29 31.278 297.29 31.278V31.306C297.29 31.306 296.996 31.572 296.674 31.95L294.518 34.484L294.84 35.226H295.526C296.744 35.226 297.822 35.828 297.822 37.046C297.822 38.11 296.912 38.852 295.806 38.852C294.378 38.852 293.412 37.774 293.412 37.774L292.656 38.824ZM301.243 40H302.671L307.137 31.068V30.116H300.529V31.32H304.939C305.443 31.32 305.667 31.278 305.667 31.278V31.306C305.667 31.306 305.373 31.656 305.093 32.216L301.243 40ZM311.717 38.796C311.717 38.796 312.711 40.168 314.741 40.168C316.743 40.168 318.241 38.74 318.241 36.836C318.241 35.058 316.883 33.616 314.797 33.616C314.069 33.616 313.523 33.924 313.523 33.924H313.495C313.495 33.924 313.551 33.7 313.565 33.406L313.803 31.32H317.583V30.116H312.599L312.109 35.016L312.907 35.31C312.907 35.31 313.607 34.82 314.573 34.82C315.847 34.82 316.827 35.66 316.827 36.85C316.827 38.054 315.819 38.852 314.657 38.852C313.257 38.852 312.487 37.788 312.487 37.788L311.717 38.796ZM319.718 40H325.402V38.796H323.246V30.116H322.014L319.648 32.412L320.488 33.28L321.412 32.37C321.776 32.02 321.888 31.796 321.888 31.796H321.916C321.916 31.796 321.902 32.104 321.902 32.412V38.796H319.718V40Z" fill="#404040"/>
<path d="M261.368 61.168C264.014 61.168 264.868 58.9 264.868 56.044C264.868 53.202 264.014 50.948 261.368 50.948C258.736 50.948 257.882 53.202 257.882 56.044C257.882 58.9 258.736 61.168 261.368 61.168ZM261.368 59.894C259.758 59.894 259.296 58.2 259.296 56.044C259.296 53.902 259.758 52.222 261.368 52.222C262.992 52.222 263.454 53.902 263.454 56.044C263.454 58.2 262.992 59.894 261.368 59.894ZM269.78 58.354H274.568V61H275.926V58.354H277.27V57.178H275.926V51.116H274.344L269.78 57.486V58.354ZM271.306 57.178V57.15L274.106 53.412C274.372 53.062 274.596 52.6 274.596 52.6H274.624C274.624 52.6 274.568 53.118 274.568 53.58V57.178H271.306ZM278.27 58.354H283.058V61H284.416V58.354H285.76V57.178H284.416V51.116H282.834L278.27 57.486V58.354ZM279.796 57.178V57.15L282.596 53.412C282.862 53.062 283.086 52.6 283.086 52.6H283.114C283.114 52.6 283.058 53.118 283.058 53.58V57.178H279.796ZM291.126 61H292.554L297.02 52.068V51.116H290.412V52.32H294.822C295.326 52.32 295.55 52.278 295.55 52.278V52.306C295.55 52.306 295.256 52.656 294.976 53.216L291.126 61ZM300.44 61.168C303.506 61.168 304.892 58.144 304.892 55.61C304.892 52.782 303.296 50.948 301.196 50.948C299.348 50.948 298.018 52.306 298.018 54.252C298.018 56.086 299.264 57.5 301.14 57.5C302.008 57.5 302.918 57.136 303.324 56.576H303.352C303.142 58.214 302.204 59.894 300.384 59.894C299.6 59.894 298.97 59.558 298.97 59.558L298.522 60.762C298.522 60.762 299.264 61.168 300.44 61.168ZM301.42 56.338C300.146 56.338 299.39 55.456 299.39 54.252C299.39 53.104 300.062 52.222 301.21 52.222C302.47 52.222 303.436 53.664 303.436 54.952C303.436 55.652 302.54 56.338 301.42 56.338ZM309.743 58.354H314.531V61H315.889V58.354H317.233V57.178H315.889V51.116H314.307L309.743 57.486V58.354ZM311.269 57.178V57.15L314.069 53.412C314.335 53.062 314.559 52.6 314.559 52.6H314.587C314.587 52.6 314.531 53.118 314.531 53.58V57.178H311.269Z" fill="#404040"/>
<path d="M258.974 82H260.108L260.57 79.326H262.74L262.278 82H263.412L263.888 79.326H265.694L265.876 78.29H264.056L264.476 75.938H266.296L266.478 74.916H264.644L265.134 72.116H264L263.51 74.916H261.34L261.83 72.116H260.696L260.206 74.916H258.386L258.218 75.938H260.024L259.618 78.29H257.784L257.616 79.326H259.436L258.974 82ZM260.752 78.29L261.172 75.938H263.342L262.922 78.29H260.752ZM268.393 82H269.779V77.772H273.237V76.568H269.779V73.32H273.839V72.116H268.393V82ZM278.872 82.168C280.72 82.168 282.05 80.81 282.05 78.864C282.05 77.03 280.804 75.602 278.928 75.602C278.06 75.602 277.164 75.98 276.744 76.54H276.716C276.926 74.902 277.864 73.222 279.684 73.222C280.468 73.222 281.098 73.544 281.098 73.544L281.546 72.354C281.546 72.354 280.79 71.948 279.628 71.948C276.562 71.948 275.176 74.972 275.176 77.506C275.176 80.32 276.758 82.168 278.872 82.168ZM278.858 80.894C277.598 80.894 276.632 79.452 276.632 78.164C276.632 77.45 277.528 76.778 278.648 76.778C279.908 76.778 280.678 77.66 280.678 78.864C280.678 80.012 279.992 80.894 278.858 80.894ZM283.528 79.144C283.528 80.936 284.998 82.168 286.972 82.168C289.03 82.168 290.36 80.81 290.36 79.27C290.36 78.248 289.772 77.632 289.016 77.17C289.142 77.03 290.192 75.91 290.192 74.594C290.192 72.97 288.918 71.948 287.084 71.948C284.998 71.948 284.004 73.222 284.004 74.538C284.004 75.448 284.466 76.05 285.11 76.512C284.844 76.694 283.528 77.632 283.528 79.144ZM288.932 79.228C288.932 80.25 288.008 80.922 286.972 80.922C285.922 80.922 284.942 80.194 284.942 79.06C284.942 77.996 285.81 77.324 286.132 77.1C287.462 77.744 288.932 78.164 288.932 79.228ZM285.376 74.566C285.376 73.81 285.978 73.194 287.07 73.194C288.106 73.194 288.834 73.768 288.834 74.678C288.834 75.714 288.12 76.47 287.966 76.624C286.692 76.078 285.376 75.658 285.376 74.566ZM294.342 82.168C297.408 82.168 298.794 79.144 298.794 76.61C298.794 73.782 297.198 71.948 295.098 71.948C293.25 71.948 291.92 73.306 291.92 75.252C291.92 77.086 293.166 78.5 295.042 78.5C295.91 78.5 296.82 78.136 297.226 77.576H297.254C297.044 79.214 296.106 80.894 294.286 80.894C293.502 80.894 292.872 80.558 292.872 80.558L292.424 81.762C292.424 81.762 293.166 82.168 294.342 82.168ZM295.322 77.338C294.048 77.338 293.292 76.456 293.292 75.252C293.292 74.104 293.964 73.222 295.112 73.222C296.372 73.222 297.338 74.664 297.338 75.952C297.338 76.652 296.442 77.338 295.322 77.338ZM300.175 80.824C300.175 80.824 301.365 82.168 303.381 82.168C305.411 82.168 306.741 80.684 306.741 78.99C306.741 77.072 305.145 76.232 303.843 76.092L306.531 72.998V72.116H300.623V73.32H303.969C304.515 73.32 304.809 73.278 304.809 73.278V73.306C304.809 73.306 304.515 73.572 304.193 73.95L302.037 76.484L302.359 77.226H303.045C304.263 77.226 305.341 77.828 305.341 79.046C305.341 80.11 304.431 80.852 303.325 80.852C301.897 80.852 300.931 79.774 300.931 79.774L300.175 80.824ZM308.119 80.824C308.119 80.824 309.309 82.168 311.325 82.168C313.355 82.168 314.685 80.684 314.685 78.99C314.685 77.072 313.089 76.232 311.787 76.092L314.475 72.998V72.116H308.567V73.32H311.913C312.459 73.32 312.753 73.278 312.753 73.278V73.306C312.753 73.306 312.459 73.572 312.137 73.95L309.981 76.484L310.303 77.226H310.989C312.207 77.226 313.285 77.828 313.285 79.046C313.285 80.11 312.375 80.852 311.269 80.852C309.841 80.852 308.875 79.774 308.875 79.774L308.119 80.824Z" fill="#404040"/>
<path d="M208.344 40H209.73V36.066H211.844L213.93 40H215.498L213.398 36.164C213.216 35.842 213.104 35.716 213.104 35.716V35.688C214.182 35.338 214.882 34.274 214.882 33.014C214.882 31.712 214.224 30.718 213.216 30.34C212.838 30.2 212.404 30.116 211.368 30.116H208.344V40ZM209.73 34.862V31.32H211.326C212.096 31.32 212.418 31.404 212.684 31.544C213.188 31.824 213.468 32.342 213.468 33.07C213.468 34.176 212.796 34.862 211.718 34.862H209.73ZM216.655 35.044C216.655 38.068 218.853 40.168 221.513 40.168C223.473 40.168 224.551 38.964 224.551 38.964H224.579C224.579 38.964 224.565 39.174 224.565 39.384V40H225.783V35.03H222.913V36.234H224.523V37.662C224.523 37.662 223.431 38.894 221.723 38.894C219.651 38.894 218.083 37.312 218.083 35.016C218.083 32.902 219.483 31.208 221.807 31.208C223.487 31.208 224.593 32.174 224.593 32.174L225.293 31.138C225.293 31.138 224.061 29.948 221.695 29.948C218.811 29.948 216.655 32.188 216.655 35.044ZM227.949 40H231.491C233.227 40 234.669 39.048 234.669 37.186C234.669 36.08 234.081 35.1 233.045 34.792V34.764C233.801 34.372 234.277 33.602 234.277 32.636C234.277 31.04 233.073 30.116 231.407 30.116H227.949V40ZM229.335 34.274V31.32H231.379C232.331 31.32 232.863 31.908 232.863 32.776C232.863 33.644 232.303 34.274 231.407 34.274H229.335ZM229.335 38.796V35.422H231.547C232.583 35.422 233.255 36.108 233.255 37.116C233.255 38.124 232.625 38.796 231.561 38.796H229.335Z" fill="#404040"/>
<path d="M207.672 56.002C207.672 58.9 209.758 61.168 212.726 61.168C215.204 61.168 216.562 59.6 216.562 59.6L215.82 58.606C215.82 58.606 214.63 59.894 212.768 59.894C210.57 59.894 209.1 58.102 209.1 55.988C209.1 53.888 210.542 52.208 212.754 52.208C214.462 52.208 215.61 53.286 215.61 53.286L216.296 52.25C216.296 52.25 215.078 50.948 212.698 50.948C209.828 50.948 207.672 53.132 207.672 56.002ZM218.14 61H219.526L220.002 54.77C220.044 54.168 220.03 53.286 220.03 53.286H220.058C220.058 53.286 220.366 54.238 220.59 54.77L222.55 59.222H223.782L225.756 54.77C225.994 54.224 226.288 53.314 226.288 53.314H226.316C226.316 53.314 226.288 54.168 226.33 54.77L226.82 61H228.192L227.394 51.116H225.938L223.67 56.464C223.446 57.01 223.18 57.794 223.18 57.794H223.152C223.152 57.794 222.886 57.01 222.662 56.464L220.394 51.116H218.938L218.14 61ZM232.524 61H233.91V56.814L237.214 51.116H235.646L233.84 54.364C233.532 54.924 233.238 55.61 233.238 55.61H233.21C233.21 55.61 232.916 54.91 232.608 54.364L230.774 51.116H229.206L232.524 56.814V61ZM238.668 61H240.054V56.464H241.524L244.156 61H245.724L242.672 55.834V55.806L245.542 51.116H244.016L241.524 55.274H240.054V51.116H238.668V61Z" fill="#404040"/>
<path d="M208.344 82H209.73V77.66H214.854V82H216.24V72.116H214.854V76.456H209.73V72.116H208.344V82ZM218.926 82H224.904V80.796H220.312V77.618H223.854V76.414H220.312V73.32H224.666V72.116H218.926V82ZM225.915 82H227.469L229.261 78.962C229.583 78.416 229.849 77.828 229.849 77.828H229.877C229.877 77.828 230.185 78.402 230.507 78.962L232.299 82H233.867L230.745 76.904L233.671 72.116H232.075L230.521 74.79C230.199 75.336 229.919 75.966 229.919 75.966H229.891C229.891 75.966 229.569 75.322 229.261 74.79L227.707 72.116H226.111L229.037 76.904L225.915 82Z" fill="#404040"/>
<path d="M97.5 0L181.937 146.25H13.0625L97.5 0Z" fill="#F68933"/>
</svg>
