<svg width="169" height="219" viewBox="0 0 169 219" fill="none" xmlns="http://www.w3.org/2000/svg">
<rect width="169" height="150" fill="#FCB534"/>
<path d="M46.768 179H52.036V178.256H47.632C47.644 176.012 51.904 175.616 51.904 172.784C51.904 171.464 50.944 170.42 49.336 170.42C47.548 170.42 46.78 171.944 46.78 171.944L47.404 172.364C47.404 172.364 48.052 171.212 49.288 171.212C50.344 171.212 51.04 171.908 51.04 172.832C51.04 175.112 46.72 175.496 46.72 178.46C46.72 178.628 46.732 178.808 46.768 179ZM53.4332 177.944C53.4332 177.944 54.2252 179.144 55.9052 179.144C57.5492 179.144 58.8332 177.932 58.8332 176.372C58.8332 174.848 57.6212 173.624 55.9292 173.624C55.1732 173.624 54.6452 173.948 54.6452 173.948H54.6212C54.6212 173.948 54.6692 173.768 54.7052 173.468L54.9452 171.308H58.3052V170.564H54.2252L53.7692 174.656L54.2972 174.848C54.2972 174.848 54.9332 174.392 55.8332 174.392C57.0332 174.392 57.9692 175.22 57.9692 176.372C57.9692 177.524 57.0332 178.352 55.8692 178.352C54.5852 178.352 53.9612 177.368 53.9612 177.368L53.4332 177.944ZM60.2446 179H65.5126V178.256H61.1086C61.1206 176.012 65.3806 175.616 65.3806 172.784C65.3806 171.464 64.4206 170.42 62.8126 170.42C61.0246 170.42 60.2566 171.944 60.2566 171.944L60.8806 172.364C60.8806 172.364 61.5286 171.212 62.7646 171.212C63.8206 171.212 64.5166 171.908 64.5166 172.832C64.5166 175.112 60.1966 175.496 60.1966 178.46C60.1966 178.628 60.2086 178.808 60.2446 179ZM70.1564 179H74.7284V178.256H72.8684V170.564H72.1004L70.1924 172.46L70.7204 173L71.6204 172.1C71.9564 171.776 72.0404 171.596 72.0404 171.596H72.0644C72.0644 171.596 72.0524 171.824 72.0524 172.064V178.256H70.1564V179ZM75.8422 176.576C75.8422 178.172 77.1742 179.144 78.6982 179.144C80.3302 179.144 81.4942 178.028 81.4942 176.708C81.4942 175.832 80.9662 175.292 80.2702 174.896C80.3662 174.8 81.3022 173.816 81.3022 172.616C81.3022 171.296 80.2942 170.42 78.7222 170.42C77.0182 170.42 76.1782 171.464 76.1782 172.556C76.1782 173.36 76.6222 173.876 77.2222 174.272C77.0302 174.392 75.8422 175.22 75.8422 176.576ZM80.6422 176.696C80.6422 177.692 79.6942 178.376 78.6982 178.376C77.6782 178.376 76.6942 177.68 76.6942 176.54C76.6942 175.46 77.6422 174.788 77.9062 174.632C79.1542 175.232 80.6422 175.604 80.6422 176.696ZM77.0182 172.568C77.0182 171.812 77.6422 171.188 78.7222 171.188C79.7422 171.188 80.4622 171.752 80.4622 172.652C80.4622 173.66 79.7422 174.416 79.5862 174.56C78.3742 174.032 77.0182 173.66 77.0182 172.568ZM82.965 179H87.537V178.256H85.677V170.564H84.909L83.001 172.46L83.529 173L84.429 172.1C84.765 171.776 84.849 171.596 84.849 171.596H84.873C84.873 171.596 84.861 171.824 84.861 172.064V178.256H82.965V179ZM91.7535 177.944C91.7535 177.944 92.5455 179.144 94.2255 179.144C95.8695 179.144 97.1535 177.932 97.1535 176.372C97.1535 174.848 95.9415 173.624 94.2495 173.624C93.4935 173.624 92.9655 173.948 92.9655 173.948H92.9415C92.9415 173.948 92.9895 173.768 93.0255 173.468L93.2655 171.308H96.6255V170.564H92.5455L92.0895 174.656L92.6175 174.848C92.6175 174.848 93.2535 174.392 94.1535 174.392C95.3535 174.392 96.2895 175.22 96.2895 176.372C96.2895 177.524 95.3535 178.352 94.1895 178.352C92.9055 178.352 92.2815 177.368 92.2815 177.368L91.7535 177.944ZM98.5649 179H103.833V178.256H99.4289C99.4409 176.012 103.701 175.616 103.701 172.784C103.701 171.464 102.741 170.42 101.133 170.42C99.3449 170.42 98.5769 171.944 98.5769 171.944L99.2009 172.364C99.2009 172.364 99.8489 171.212 101.085 171.212C102.141 171.212 102.837 171.908 102.837 172.832C102.837 175.112 98.5169 175.496 98.5169 178.46C98.5169 178.628 98.5289 178.808 98.5649 179Z" fill="#404040"/>
<path d="M49.756 199.144C51.952 199.144 52.66 197.224 52.66 194.776C52.66 192.352 51.952 190.42 49.756 190.42C47.56 190.42 46.84 192.352 46.84 194.776C46.84 197.224 47.56 199.144 49.756 199.144ZM49.756 198.364C48.148 198.364 47.704 196.792 47.704 194.776C47.704 192.772 48.148 191.2 49.756 191.2C51.352 191.2 51.796 192.772 51.796 194.776C51.796 196.792 51.352 198.364 49.756 198.364ZM57.4907 199H62.7587V198.256H58.3547C58.3667 196.012 62.6267 195.616 62.6267 192.784C62.6267 191.464 61.6667 190.42 60.0587 190.42C58.2707 190.42 57.5027 191.944 57.5027 191.944L58.1267 192.364C58.1267 192.364 58.7747 191.212 60.0107 191.212C61.0667 191.212 61.7627 191.908 61.7627 192.832C61.7627 195.112 57.4427 195.496 57.4427 198.46C57.4427 198.628 57.4547 198.808 57.4907 199ZM64.2758 196.576C64.2758 198.172 65.6078 199.144 67.1318 199.144C68.7638 199.144 69.9278 198.028 69.9278 196.708C69.9278 195.832 69.3998 195.292 68.7038 194.896C68.7998 194.8 69.7358 193.816 69.7358 192.616C69.7358 191.296 68.7278 190.42 67.1558 190.42C65.4518 190.42 64.6118 191.464 64.6118 192.556C64.6118 193.36 65.0558 193.876 65.6558 194.272C65.4638 194.392 64.2758 195.22 64.2758 196.576ZM69.0758 196.696C69.0758 197.692 68.1278 198.376 67.1318 198.376C66.1118 198.376 65.1278 197.68 65.1278 196.54C65.1278 195.46 66.0758 194.788 66.3398 194.632C67.5878 195.232 69.0758 195.604 69.0758 196.696ZM65.4518 192.568C65.4518 191.812 66.0758 191.188 67.1558 191.188C68.1758 191.188 68.8958 191.752 68.8958 192.652C68.8958 193.66 68.1758 194.416 68.0198 194.56C66.8078 194.032 65.4518 193.66 65.4518 192.568ZM75.1132 199H75.9772L79.8892 191.14V190.564H74.4052V191.308H78.3532C78.7732 191.308 78.9892 191.284 78.9892 191.284V191.308C78.9892 191.308 78.7492 191.632 78.5212 192.088L75.1132 199ZM82.8236 199.144C85.4396 199.144 86.5316 196.492 86.5316 194.38C86.5316 192.1 85.3196 190.42 83.4836 190.42C82.0076 190.42 80.8436 191.488 80.8436 193.24C80.8436 194.836 81.9236 195.964 83.4596 195.964C84.3356 195.964 85.1876 195.58 85.6076 194.98H85.6316C85.4756 196.624 84.5876 198.364 82.8116 198.364C82.1156 198.364 81.5876 198.064 81.5876 198.064L81.2756 198.796C81.2756 198.796 81.8996 199.144 82.8236 199.144ZM83.5916 195.22C82.4396 195.22 81.6836 194.428 81.6836 193.228C81.6836 192.064 82.3556 191.2 83.4956 191.2C84.7556 191.2 85.6316 192.652 85.6316 193.78C85.6316 194.464 84.7316 195.22 83.5916 195.22ZM91.2033 199H95.7753V198.256H93.9153V190.564H93.1473L91.2393 192.46L91.7673 193L92.6673 192.1C93.0033 191.776 93.0873 191.596 93.0873 191.596H93.1113C93.1113 191.596 93.0993 191.824 93.0993 192.064V198.256H91.2033V199Z" fill="#404040"/>
<path d="M47.86 218H48.592L49 215.66H51.076L50.668 218H51.4L51.808 215.66H53.488L53.596 214.988H51.928L52.336 212.636H54.016L54.136 211.964H52.456L52.876 209.564H52.144L51.724 211.964H49.648L50.068 209.564H49.336L48.916 211.964H47.212L47.104 212.636H48.796L48.376 214.988H46.684L46.564 215.66H48.268L47.86 218ZM49.12 214.988L49.528 212.636H51.604L51.184 214.988H49.12ZM55.9076 218H56.7356V214.22H59.8316V213.476H56.7356V210.308H60.3476V209.564H55.9076V218ZM61.5077 213.728C61.5077 216.188 63.2837 218.144 65.7797 218.144C67.8557 218.144 69.0077 216.836 69.0077 216.836L68.5277 216.248C68.5277 216.248 67.4957 217.376 65.7917 217.376C63.7877 217.376 62.3717 215.732 62.3717 213.716C62.3717 211.724 63.7877 210.188 65.7677 210.188C67.3517 210.188 68.3357 211.124 68.3357 211.124L68.7797 210.512C68.7797 210.512 67.7597 209.42 65.7437 209.42C63.3317 209.42 61.5077 211.28 61.5077 213.728ZM70.8021 218H73.7781C75.1941 218 76.3101 217.136 76.3101 215.636C76.3101 214.616 75.7581 213.788 74.8941 213.548V213.524C75.5421 213.2 75.9621 212.564 75.9621 211.688C75.9621 210.368 75.0141 209.564 73.6821 209.564H70.8021V218ZM71.6301 213.224V210.308H73.6701C74.5701 210.308 75.1101 210.884 75.1101 211.748C75.1101 212.624 74.5341 213.224 73.6821 213.224H71.6301ZM71.6301 217.256V213.944H73.7781C74.7621 213.944 75.4461 214.604 75.4461 215.612C75.4461 216.62 74.8101 217.256 73.7901 217.256H71.6301ZM77.7378 216.944C77.7378 216.944 78.5298 218.144 80.2098 218.144C81.8538 218.144 83.1378 216.932 83.1378 215.372C83.1378 213.848 81.9258 212.624 80.2338 212.624C79.4778 212.624 78.9498 212.948 78.9498 212.948H78.9258C78.9258 212.948 78.9738 212.768 79.0098 212.468L79.2498 210.308H82.6098V209.564H78.5298L78.0738 213.656L78.6018 213.848C78.6018 213.848 79.2378 213.392 80.1378 213.392C81.3378 213.392 82.2738 214.22 82.2738 215.372C82.2738 216.524 81.3378 217.352 80.1738 217.352C78.8898 217.352 78.2658 216.368 78.2658 216.368L77.7378 216.944ZM84.3213 216.992C84.3213 216.992 85.3413 218.144 86.9973 218.144C88.5933 218.144 89.7693 216.944 89.7693 215.504C89.7693 213.68 88.1973 213.08 87.1293 213.02L89.6493 210.116V209.564H84.7173V210.308H87.8853C88.3293 210.308 88.5693 210.272 88.5693 210.272V210.296C88.5693 210.296 88.3533 210.5 88.1253 210.764L86.0133 213.236L86.2173 213.728H86.7933C87.8973 213.728 88.9173 214.34 88.9173 215.528C88.9173 216.608 87.9933 217.352 86.9853 217.352C85.6893 217.352 84.8253 216.356 84.8253 216.356L84.3213 216.992ZM90.9275 215.66H95.1515V218H95.9795V215.66H97.1795V214.928H95.9795V209.564H95.0795L90.9275 215.12V215.66ZM91.9355 214.928V214.904L94.7435 211.244C94.9715 210.944 95.1635 210.608 95.1635 210.608H95.1875C95.1875 210.608 95.1515 211.04 95.1515 211.4V214.928H91.9355Z" fill="#404040"/>
<path d="M1.224 179H2.052V175.448H4.176L6.084 179H7.032L5.196 175.604C5.064 175.376 4.98 175.268 4.98 175.268V175.244C5.928 174.98 6.576 174.104 6.576 172.964C6.576 171.944 6.096 171.14 5.304 170.792C4.968 170.648 4.584 170.564 3.72 170.564H1.224V179ZM2.052 174.704V171.308H3.756C4.404 171.308 4.704 171.38 4.956 171.512C5.448 171.776 5.724 172.292 5.724 172.988C5.724 174.044 5.076 174.704 4.056 174.704H2.052ZM8.19516 174.776C8.19516 177.284 10.0192 179.144 12.3232 179.144C14.0992 179.144 15.0712 178.004 15.0712 178.004H15.0952C15.0952 178.004 15.0832 178.184 15.0832 178.364V179H15.8512V174.968H13.6192V175.712H15.0592V177.14C15.0592 177.14 14.0512 178.376 12.4072 178.376C10.4872 178.376 9.05916 176.84 9.05916 174.764C9.05916 172.76 10.4392 171.188 12.4792 171.188C14.0152 171.188 14.9992 172.028 14.9992 172.028L15.4432 171.404C15.4432 171.404 14.3992 170.42 12.4432 170.42C10.0192 170.42 8.19516 172.34 8.19516 174.776ZM17.8529 179H20.8289C22.2449 179 23.3609 178.136 23.3609 176.636C23.3609 175.616 22.8089 174.788 21.9449 174.548V174.524C22.5929 174.2 23.0129 173.564 23.0129 172.688C23.0129 171.368 22.0649 170.564 20.7329 170.564H17.8529V179ZM18.6809 174.224V171.308H20.7209C21.6209 171.308 22.1609 171.884 22.1609 172.748C22.1609 173.624 21.5849 174.224 20.7329 174.224H18.6809ZM18.6809 178.256V174.944H20.8289C21.8129 174.944 22.4969 175.604 22.4969 176.612C22.4969 177.62 21.8609 178.256 20.8409 178.256H18.6809Z" fill="#404040"/>
<path d="M0.66 194.728C0.66 197.188 2.436 199.144 4.932 199.144C7.008 199.144 8.16 197.836 8.16 197.836L7.68 197.248C7.68 197.248 6.648 198.376 4.944 198.376C2.94 198.376 1.524 196.732 1.524 194.716C1.524 192.724 2.94 191.188 4.92 191.188C6.504 191.188 7.488 192.124 7.488 192.124L7.932 191.512C7.932 191.512 6.912 190.42 4.896 190.42C2.484 190.42 0.66 192.28 0.66 194.728ZM9.69047 199H10.5185L10.9865 193.096C11.0225 192.64 11.0105 191.896 11.0105 191.896H11.0345C11.0345 191.896 11.2985 192.676 11.4905 193.096L13.4705 197.428H14.2505L16.2305 193.096C16.4225 192.664 16.6745 191.92 16.6745 191.92H16.6985C16.6985 191.92 16.6865 192.64 16.7225 193.096L17.1905 199H18.0185L17.3465 190.564H16.4945L14.2865 195.52C14.0945 195.952 13.8665 196.552 13.8665 196.552H13.8425C13.8425 196.552 13.6265 195.952 13.4345 195.52L11.2265 190.564H10.3625L9.69047 199ZM21.8912 199H22.7312V195.376L25.5632 190.564H24.6272L22.8392 193.624C22.5752 194.068 22.3232 194.632 22.3232 194.632H22.2992C22.2992 194.632 22.0352 194.056 21.7832 193.624L19.9952 190.564H19.0472L21.8912 195.376V199ZM26.9818 199H27.8098V194.968H29.2378L31.6498 199H32.6218L29.9338 194.572V194.548L32.4538 190.564H31.5058L29.2378 194.224H27.8098V190.564H26.9818V199Z" fill="#404040"/>
<path d="M1.224 218H2.052V214.148H6.948V218H7.776V209.564H6.948V213.404H2.052V209.564H1.224V218ZM10.224 218H15.192V217.256H11.052V214.124H14.256V213.38H11.052V210.308H14.976V209.564H10.224V218ZM16.1675 218H17.1275L18.8555 215.096C19.1195 214.652 19.3715 214.148 19.3715 214.148H19.3955C19.3955 214.148 19.6595 214.652 19.9235 215.084L21.6755 218H22.6355L19.9355 213.596L22.4075 209.564H21.4235L19.9355 212.06C19.6715 212.492 19.4315 213.032 19.4315 213.032H19.4075C19.4075 213.032 19.1075 212.492 18.8555 212.06L17.3795 209.564H16.4075L18.8555 213.596L16.1675 218Z" fill="#404040"/>
</svg>
