<svg width="169" height="219" viewBox="0 0 169 219" fill="none" xmlns="http://www.w3.org/2000/svg">
<rect x="0.000488281" width="169" height="150" fill="#FDC783"/>
<path d="M46.7685 179H52.0365V178.256H47.6325C47.6445 176.012 51.9045 175.616 51.9045 172.784C51.9045 171.464 50.9445 170.42 49.3365 170.42C47.5485 170.42 46.7805 171.944 46.7805 171.944L47.4045 172.364C47.4045 172.364 48.0525 171.212 49.2885 171.212C50.3445 171.212 51.0405 171.908 51.0405 172.832C51.0405 175.112 46.7205 175.496 46.7205 178.46C46.7205 178.628 46.7325 178.808 46.7685 179ZM53.4336 177.944C53.4336 177.944 54.2256 179.144 55.9056 179.144C57.5496 179.144 58.8336 177.932 58.8336 176.372C58.8336 174.848 57.6216 173.624 55.9296 173.624C55.1736 173.624 54.6456 173.948 54.6456 173.948H54.6216C54.6216 173.948 54.6696 173.768 54.7056 173.468L54.9456 171.308H58.3056V170.564H54.2256L53.7696 174.656L54.2976 174.848C54.2976 174.848 54.9336 174.392 55.8336 174.392C57.0336 174.392 57.9696 175.22 57.9696 176.372C57.9696 177.524 57.0336 178.352 55.8696 178.352C54.5856 178.352 53.9616 177.368 53.9616 177.368L53.4336 177.944ZM60.0171 177.992C60.0171 177.992 61.0371 179.144 62.6931 179.144C64.2891 179.144 65.4651 177.944 65.4651 176.504C65.4651 174.68 63.8931 174.08 62.8251 174.02L65.3451 171.116V170.564H60.4131V171.308H63.5811C64.0251 171.308 64.2651 171.272 64.2651 171.272V171.296C64.2651 171.296 64.0491 171.5 63.8211 171.764L61.7091 174.236L61.9131 174.728H62.4891C63.5931 174.728 64.6131 175.34 64.6131 176.528C64.6131 177.608 63.6891 178.352 62.6811 178.352C61.3851 178.352 60.5211 177.356 60.5211 177.356L60.0171 177.992ZM70.11 179H74.682V178.256H72.822V170.564H72.054L70.146 172.46L70.674 173L71.574 172.1C71.91 171.776 71.994 171.596 71.994 171.596H72.018C72.018 171.596 72.006 171.824 72.006 172.064V178.256H70.11V179ZM77.6678 179.144C80.2838 179.144 81.3758 176.492 81.3758 174.38C81.3758 172.1 80.1638 170.42 78.3278 170.42C76.8518 170.42 75.6878 171.488 75.6878 173.24C75.6878 174.836 76.7678 175.964 78.3038 175.964C79.1798 175.964 80.0318 175.58 80.4518 174.98H80.4758C80.3198 176.624 79.4318 178.364 77.6558 178.364C76.9598 178.364 76.4318 178.064 76.4318 178.064L76.1198 178.796C76.1198 178.796 76.7438 179.144 77.6678 179.144ZM78.4358 175.22C77.2838 175.22 76.5278 174.428 76.5278 173.228C76.5278 172.064 77.1998 171.2 78.3398 171.2C79.5998 171.2 80.4758 172.652 80.4758 173.78C80.4758 174.464 79.5758 175.22 78.4358 175.22ZM84.7928 179.144C87.4088 179.144 88.5008 176.492 88.5008 174.38C88.5008 172.1 87.2888 170.42 85.4528 170.42C83.9768 170.42 82.8128 171.488 82.8128 173.24C82.8128 174.836 83.8928 175.964 85.4288 175.964C86.3048 175.964 87.1568 175.58 87.5768 174.98H87.6008C87.4448 176.624 86.5568 178.364 84.7808 178.364C84.0848 178.364 83.5568 178.064 83.5568 178.064L83.2448 178.796C83.2448 178.796 83.8688 179.144 84.7928 179.144ZM85.5608 175.22C84.4088 175.22 83.6528 174.428 83.6528 173.228C83.6528 172.064 84.3248 171.2 85.4648 171.2C86.7248 171.2 87.6008 172.652 87.6008 173.78C87.6008 174.464 86.7008 175.22 85.5608 175.22ZM93.1725 179H97.7445V178.256H95.8845V170.564H95.1165L93.2085 172.46L93.7365 173L94.6365 172.1C94.9725 171.776 95.0565 171.596 95.0565 171.596H95.0805C95.0805 171.596 95.0685 171.824 95.0685 172.064V178.256H93.1725V179ZM98.6303 177.992C98.6303 177.992 99.6503 179.144 101.306 179.144C102.902 179.144 104.078 177.944 104.078 176.504C104.078 174.68 102.506 174.08 101.438 174.02L103.958 171.116V170.564H99.0263V171.308H102.194C102.638 171.308 102.878 171.272 102.878 171.272V171.296C102.878 171.296 102.662 171.5 102.434 171.764L100.322 174.236L100.526 174.728H101.102C102.206 174.728 103.226 175.34 103.226 176.528C103.226 177.608 102.302 178.352 101.294 178.352C99.9983 178.352 99.1343 177.356 99.1343 177.356L98.6303 177.992ZM105.501 179H110.073V178.256H108.213V170.564H107.445L105.537 172.46L106.065 173L106.965 172.1C107.301 171.776 107.385 171.596 107.385 171.596H107.409C107.409 171.596 107.397 171.824 107.397 172.064V178.256H105.501V179Z" fill="#404040"/>
<path d="M49.7565 199.144C51.9525 199.144 52.6605 197.224 52.6605 194.776C52.6605 192.352 51.9525 190.42 49.7565 190.42C47.5605 190.42 46.8405 192.352 46.8405 194.776C46.8405 197.224 47.5605 199.144 49.7565 199.144ZM49.7565 198.364C48.1485 198.364 47.7045 196.792 47.7045 194.776C47.7045 192.772 48.1485 191.2 49.7565 191.2C51.3525 191.2 51.7965 192.772 51.7965 194.776C51.7965 196.792 51.3525 198.364 49.7565 198.364ZM57.4911 199H62.7591V198.256H58.3551C58.3671 196.012 62.6271 195.616 62.6271 192.784C62.6271 191.464 61.6671 190.42 60.0591 190.42C58.2711 190.42 57.5031 191.944 57.5031 191.944L58.1271 192.364C58.1271 192.364 58.7751 191.212 60.0111 191.212C61.0671 191.212 61.7631 191.908 61.7631 192.832C61.7631 195.112 57.4431 195.496 57.4431 198.46C57.4431 198.628 57.4551 198.808 57.4911 199ZM64.1803 199H68.7523V198.256H66.8923V190.564H66.1243L64.2163 192.46L64.7443 193L65.6443 192.1C65.9803 191.776 66.0643 191.596 66.0643 191.596H66.0883C66.0883 191.596 66.0763 191.824 66.0763 192.064V198.256H64.1803V199ZM72.7288 196.66H76.9528V199H77.7808V196.66H78.9808V195.928H77.7808V190.564H76.8808L72.7288 196.12V196.66ZM73.7368 195.928V195.904L76.5448 192.244C76.7728 191.944 76.9648 191.608 76.9648 191.608H76.9888C76.9888 191.608 76.9528 192.04 76.9528 192.4V195.928H73.7368ZM80.249 196.576C80.249 198.172 81.581 199.144 83.105 199.144C84.737 199.144 85.901 198.028 85.901 196.708C85.901 195.832 85.373 195.292 84.677 194.896C84.773 194.8 85.709 193.816 85.709 192.616C85.709 191.296 84.701 190.42 83.129 190.42C81.425 190.42 80.585 191.464 80.585 192.556C80.585 193.36 81.029 193.876 81.629 194.272C81.437 194.392 80.249 195.22 80.249 196.576ZM85.049 196.696C85.049 197.692 84.101 198.376 83.105 198.376C82.085 198.376 81.101 197.68 81.101 196.54C81.101 195.46 82.049 194.788 82.313 194.632C83.561 195.232 85.049 195.604 85.049 196.696ZM81.425 192.568C81.425 191.812 82.049 191.188 83.129 191.188C84.149 191.188 84.869 191.752 84.869 192.652C84.869 193.66 84.149 194.416 83.993 194.56C82.781 194.032 81.425 193.66 81.425 192.568ZM90.5944 199H95.1664V198.256H93.3064V190.564H92.5384L90.6304 192.46L91.1584 193L92.0584 192.1C92.3944 191.776 92.4784 191.596 92.4784 191.596H92.5024C92.5024 191.596 92.4904 191.824 92.4904 192.064V198.256H90.5944V199Z" fill="#404040"/>
<path d="M47.8605 218H48.5925L49.0005 215.66H51.0765L50.6685 218H51.4005L51.8085 215.66H53.4885L53.5965 214.988H51.9285L52.3365 212.636H54.0165L54.1365 211.964H52.4565L52.8765 209.564H52.1445L51.7245 211.964H49.6485L50.0685 209.564H49.3365L48.9165 211.964H47.2125L47.1045 212.636H48.7965L48.3765 214.988H46.6845L46.5645 215.66H48.2685L47.8605 218ZM49.1205 214.988L49.5285 212.636H51.6045L51.1845 214.988H49.1205ZM55.9081 218H56.7361V214.22H59.8321V213.476H56.7361V210.308H60.3481V209.564H55.9081V218ZM62.0721 218H64.7961C67.3281 218 69.0321 216.464 69.0321 213.776C69.0321 211.112 67.3281 209.564 64.7961 209.564H62.0721V218ZM62.9001 217.256V210.308H64.7121C66.7761 210.308 68.1681 211.532 68.1681 213.776C68.1681 216.032 66.7881 217.256 64.7121 217.256H62.9001ZM70.391 213.728C70.391 216.188 72.167 218.144 74.663 218.144C76.739 218.144 77.891 216.836 77.891 216.836L77.411 216.248C77.411 216.248 76.379 217.376 74.675 217.376C72.671 217.376 71.255 215.732 71.255 213.716C71.255 211.724 72.671 210.188 74.651 210.188C76.235 210.188 77.219 211.124 77.219 211.124L77.663 210.512C77.663 210.512 76.643 209.42 74.627 209.42C72.215 209.42 70.391 211.28 70.391 213.728ZM79.6254 218H80.4894L84.4014 210.14V209.564H78.9174V210.308H82.8654C83.2854 210.308 83.5014 210.284 83.5014 210.284V210.308C83.5014 210.308 83.2614 210.632 83.0334 211.088L79.6254 218ZM85.4638 215.576C85.4638 217.172 86.7958 218.144 88.3198 218.144C89.9518 218.144 91.1158 217.028 91.1158 215.708C91.1158 214.832 90.5878 214.292 89.8918 213.896C89.9878 213.8 90.9238 212.816 90.9238 211.616C90.9238 210.296 89.9158 209.42 88.3438 209.42C86.6398 209.42 85.7998 210.464 85.7998 211.556C85.7998 212.36 86.2438 212.876 86.8438 213.272C86.6518 213.392 85.4638 214.22 85.4638 215.576ZM90.2638 215.696C90.2638 216.692 89.3158 217.376 88.3198 217.376C87.2998 217.376 86.3158 216.68 86.3158 215.54C86.3158 214.46 87.2638 213.788 87.5278 213.632C88.7758 214.232 90.2638 214.604 90.2638 215.696ZM86.6398 211.568C86.6398 210.812 87.2638 210.188 88.3438 210.188C89.3638 210.188 90.0838 210.752 90.0838 211.652C90.0838 212.66 89.3638 213.416 89.2078 213.56C87.9958 213.032 86.6398 212.66 86.6398 211.568ZM92.4546 216.992C92.4546 216.992 93.4746 218.144 95.1306 218.144C96.7266 218.144 97.9026 216.944 97.9026 215.504C97.9026 213.68 96.3306 213.08 95.2626 213.02L97.7826 210.116V209.564H92.8506V210.308H96.0186C96.4626 210.308 96.7026 210.272 96.7026 210.272V210.296C96.7026 210.296 96.4866 210.5 96.2586 210.764L94.1466 213.236L94.3506 213.728H94.9266C96.0306 213.728 97.0506 214.34 97.0506 215.528C97.0506 216.608 96.1266 217.352 95.1186 217.352C93.8226 217.352 92.9586 216.356 92.9586 216.356L92.4546 216.992Z" fill="#404040"/>
<path d="M1.22449 179H2.05249V175.448H4.17649L6.08449 179H7.03249L5.19649 175.604C5.06449 175.376 4.98049 175.268 4.98049 175.268V175.244C5.92849 174.98 6.57649 174.104 6.57649 172.964C6.57649 171.944 6.09649 171.14 5.30449 170.792C4.96849 170.648 4.58449 170.564 3.72049 170.564H1.22449V179ZM2.05249 174.704V171.308H3.75649C4.40449 171.308 4.70449 171.38 4.95649 171.512C5.44849 171.776 5.72449 172.292 5.72449 172.988C5.72449 174.044 5.07649 174.704 4.05649 174.704H2.05249ZM8.19564 174.776C8.19564 177.284 10.0196 179.144 12.3236 179.144C14.0996 179.144 15.0716 178.004 15.0716 178.004H15.0956C15.0956 178.004 15.0836 178.184 15.0836 178.364V179H15.8516V174.968H13.6196V175.712H15.0596V177.14C15.0596 177.14 14.0516 178.376 12.4076 178.376C10.4876 178.376 9.05964 176.84 9.05964 174.764C9.05964 172.76 10.4396 171.188 12.4796 171.188C14.0156 171.188 14.9996 172.028 14.9996 172.028L15.4436 171.404C15.4436 171.404 14.3996 170.42 12.4436 170.42C10.0196 170.42 8.19564 172.34 8.19564 174.776ZM17.8534 179H20.8294C22.2454 179 23.3614 178.136 23.3614 176.636C23.3614 175.616 22.8094 174.788 21.9454 174.548V174.524C22.5934 174.2 23.0134 173.564 23.0134 172.688C23.0134 171.368 22.0654 170.564 20.7334 170.564H17.8534V179ZM18.6814 174.224V171.308H20.7214C21.6214 171.308 22.1614 171.884 22.1614 172.748C22.1614 173.624 21.5854 174.224 20.7334 174.224H18.6814ZM18.6814 178.256V174.944H20.8294C21.8134 174.944 22.4974 175.604 22.4974 176.612C22.4974 177.62 21.8614 178.256 20.8414 178.256H18.6814Z" fill="#404040"/>
<path d="M0.660488 194.728C0.660488 197.188 2.43649 199.144 4.93249 199.144C7.00849 199.144 8.16049 197.836 8.16049 197.836L7.68049 197.248C7.68049 197.248 6.64849 198.376 4.94449 198.376C2.94049 198.376 1.52449 196.732 1.52449 194.716C1.52449 192.724 2.94049 191.188 4.92049 191.188C6.50449 191.188 7.48849 192.124 7.48849 192.124L7.93249 191.512C7.93249 191.512 6.91249 190.42 4.89649 190.42C2.48449 190.42 0.660488 192.28 0.660488 194.728ZM9.69096 199H10.519L10.987 193.096C11.023 192.64 11.011 191.896 11.011 191.896H11.035C11.035 191.896 11.299 192.676 11.491 193.096L13.471 197.428H14.251L16.231 193.096C16.423 192.664 16.675 191.92 16.675 191.92H16.699C16.699 191.92 16.687 192.64 16.723 193.096L17.191 199H18.019L17.347 190.564H16.495L14.287 195.52C14.095 195.952 13.867 196.552 13.867 196.552H13.843C13.843 196.552 13.627 195.952 13.435 195.52L11.227 190.564H10.363L9.69096 199ZM21.8917 199H22.7317V195.376L25.5637 190.564H24.6277L22.8397 193.624C22.5757 194.068 22.3237 194.632 22.3237 194.632H22.2997C22.2997 194.632 22.0357 194.056 21.7837 193.624L19.9957 190.564H19.0477L21.8917 195.376V199ZM26.9823 199H27.8103V194.968H29.2383L31.6503 199H32.6223L29.9343 194.572V194.548L32.4543 190.564H31.5063L29.2383 194.224H27.8103V190.564H26.9823V199Z" fill="#404040"/>
<path d="M1.22449 218H2.05249V214.148H6.94849V218H7.77649V209.564H6.94849V213.404H2.05249V209.564H1.22449V218ZM10.2245 218H15.1925V217.256H11.0525V214.124H14.2565V213.38H11.0525V210.308H14.9765V209.564H10.2245V218ZM16.168 218H17.128L18.856 215.096C19.12 214.652 19.372 214.148 19.372 214.148H19.396C19.396 214.148 19.66 214.652 19.924 215.084L21.676 218H22.636L19.936 213.596L22.408 209.564H21.424L19.936 212.06C19.672 212.492 19.432 213.032 19.432 213.032H19.408C19.408 213.032 19.108 212.492 18.856 212.06L17.38 209.564H16.408L18.856 213.596L16.168 218Z" fill="#404040"/>
</svg>
