<svg width="169" height="219" viewBox="0 0 169 219" fill="none" xmlns="http://www.w3.org/2000/svg">
<rect x="0.000488281" width="169" height="150" fill="#E5AD40"/>
<path d="M46.7685 179H52.0365V178.256H47.6325C47.6445 176.012 51.9045 175.616 51.9045 172.784C51.9045 171.464 50.9445 170.42 49.3365 170.42C47.5485 170.42 46.7805 171.944 46.7805 171.944L47.4045 172.364C47.4045 172.364 48.0525 171.212 49.2885 171.212C50.3445 171.212 51.0405 171.908 51.0405 172.832C51.0405 175.112 46.7205 175.496 46.7205 178.46C46.7205 178.628 46.7325 178.808 46.7685 179ZM53.5536 179H58.8216V178.256H54.4176C54.4296 176.012 58.6896 175.616 58.6896 172.784C58.6896 171.464 57.7296 170.42 56.1216 170.42C54.3336 170.42 53.5656 171.944 53.5656 171.944L54.1896 172.364C54.1896 172.364 54.8376 171.212 56.0736 171.212C57.1296 171.212 57.8256 171.908 57.8256 172.832C57.8256 175.112 53.5056 175.496 53.5056 178.46C53.5056 178.628 53.5176 178.808 53.5536 179ZM62.2108 179.144C64.8268 179.144 65.9188 176.492 65.9188 174.38C65.9188 172.1 64.7068 170.42 62.8708 170.42C61.3948 170.42 60.2308 171.488 60.2308 173.24C60.2308 174.836 61.3108 175.964 62.8468 175.964C63.7228 175.964 64.5748 175.58 64.9948 174.98H65.0188C64.8628 176.624 63.9748 178.364 62.1988 178.364C61.5028 178.364 60.9748 178.064 60.9748 178.064L60.6628 178.796C60.6628 178.796 61.2868 179.144 62.2108 179.144ZM62.9788 175.22C61.8268 175.22 61.0708 174.428 61.0708 173.228C61.0708 172.064 61.7428 171.2 62.8828 171.2C64.1428 171.2 65.0188 172.652 65.0188 173.78C65.0188 174.464 64.1188 175.22 62.9788 175.22ZM70.5905 179H75.1625V178.256H73.3025V170.564H72.5345L70.6265 172.46L71.1545 173L72.0545 172.1C72.3905 171.776 72.4745 171.596 72.4745 171.596H72.4985C72.4985 171.596 72.4865 171.824 72.4865 172.064V178.256H70.5905V179ZM76.6723 179H77.5363L81.4483 171.14V170.564H75.9643V171.308H79.9123C80.3323 171.308 80.5483 171.284 80.5483 171.284V171.308C80.5483 171.308 80.3083 171.632 80.0803 172.088L76.6723 179ZM82.2827 177.992C82.2827 177.992 83.3027 179.144 84.9587 179.144C86.5547 179.144 87.7307 177.944 87.7307 176.504C87.7307 174.68 86.1587 174.08 85.0907 174.02L87.6107 171.116V170.564H82.6787V171.308H85.8467C86.2907 171.308 86.5307 171.272 86.5307 171.272V171.296C86.5307 171.296 86.3147 171.5 86.0867 171.764L83.9747 174.236L84.1787 174.728H84.7547C85.8587 174.728 86.8787 175.34 86.8787 176.528C86.8787 177.608 85.9547 178.352 84.9467 178.352C83.6507 178.352 82.7867 177.356 82.7867 177.356L82.2827 177.992ZM95.5316 179.144C97.0076 179.144 98.1836 178.076 98.1836 176.324C98.1836 174.728 97.0916 173.6 95.5556 173.6C94.6796 173.6 93.8276 173.984 93.4196 174.584H93.3956C93.5396 172.94 94.4396 171.2 96.2036 171.2C96.8996 171.2 97.4276 171.5 97.4276 171.5L97.7396 170.768C97.7396 170.768 97.1276 170.42 96.1916 170.42C93.5876 170.42 92.4836 173.072 92.4836 175.184C92.4836 177.464 93.6956 179.144 95.5316 179.144ZM95.5196 178.364C94.2596 178.364 93.3836 176.912 93.3836 175.784C93.3836 175.1 94.2956 174.344 95.4236 174.344C96.5756 174.344 97.3316 175.136 97.3316 176.336C97.3316 177.5 96.6596 178.364 95.5196 178.364ZM99.2483 176.66H103.472V179H104.3V176.66H105.5V175.928H104.3V170.564H103.4L99.2483 176.12V176.66ZM100.256 175.928V175.904L103.064 172.244C103.292 171.944 103.484 171.608 103.484 171.608H103.508C103.508 171.608 103.472 172.04 103.472 172.4V175.928H100.256Z" fill="#404040"/>
<path d="M49.7565 199.144C51.9525 199.144 52.6605 197.224 52.6605 194.776C52.6605 192.352 51.9525 190.42 49.7565 190.42C47.5605 190.42 46.8405 192.352 46.8405 194.776C46.8405 197.224 47.5605 199.144 49.7565 199.144ZM49.7565 198.364C48.1485 198.364 47.7045 196.792 47.7045 194.776C47.7045 192.772 48.1485 191.2 49.7565 191.2C51.3525 191.2 51.7965 192.772 51.7965 194.776C51.7965 196.792 51.3525 198.364 49.7565 198.364ZM57.4911 199H62.7591V198.256H58.3551C58.3671 196.012 62.6271 195.616 62.6271 192.784C62.6271 191.464 61.6671 190.42 60.0591 190.42C58.2711 190.42 57.5031 191.944 57.5031 191.944L58.1271 192.364C58.1271 192.364 58.7751 191.212 60.0111 191.212C61.0671 191.212 61.7631 191.908 61.7631 192.832C61.7631 195.112 57.4431 195.496 57.4431 198.46C57.4431 198.628 57.4551 198.808 57.4911 199ZM63.6585 196.66H67.8825V199H68.7105V196.66H69.9105V195.928H68.7105V190.564H67.8105L63.6585 196.12V196.66ZM64.6665 195.928V195.904L67.4745 192.244C67.7025 191.944 67.8945 191.608 67.8945 191.608H67.9185C67.9185 191.608 67.8825 192.04 67.8825 192.4V195.928H64.6665ZM74.7973 199H75.6613L79.5733 191.14V190.564H74.0893V191.308H78.0373C78.4573 191.308 78.6733 191.284 78.6733 191.284V191.308C78.6733 191.308 78.4333 191.632 78.2053 192.088L74.7973 199ZM80.6357 199H85.9037V198.256H81.4997C81.5117 196.012 85.7717 195.616 85.7717 192.784C85.7717 191.464 84.8117 190.42 83.2037 190.42C81.4157 190.42 80.6477 191.944 80.6477 191.944L81.2717 192.364C81.2717 192.364 81.9197 191.212 83.1557 191.212C84.2117 191.212 84.9077 191.908 84.9077 192.832C84.9077 195.112 80.5877 195.496 80.5877 198.46C80.5877 198.628 80.5997 198.808 80.6357 199ZM90.5475 199H95.1195V198.256H93.2595V190.564H92.4915L90.5835 192.46L91.1115 193L92.0115 192.1C92.3475 191.776 92.4315 191.596 92.4315 191.596H92.4555C92.4555 191.596 92.4435 191.824 92.4435 192.064V198.256H90.5475V199ZM99.2213 199.144C101.417 199.144 102.125 197.224 102.125 194.776C102.125 192.352 101.417 190.42 99.2213 190.42C97.0253 190.42 96.3053 192.352 96.3053 194.776C96.3053 197.224 97.0253 199.144 99.2213 199.144ZM99.2213 198.364C97.6133 198.364 97.1693 196.792 97.1693 194.776C97.1693 192.772 97.6133 191.2 99.2213 191.2C100.817 191.2 101.261 192.772 101.261 194.776C101.261 196.792 100.817 198.364 99.2213 198.364Z" fill="#404040"/>
<path d="M47.8605 218H48.5925L49.0005 215.66H51.0765L50.6685 218H51.4005L51.8085 215.66H53.4885L53.5965 214.988H51.9285L52.3365 212.636H54.0165L54.1365 211.964H52.4565L52.8765 209.564H52.1445L51.7245 211.964H49.6485L50.0685 209.564H49.3365L48.9165 211.964H47.2125L47.1045 212.636H48.7965L48.3765 214.988H46.6845L46.5645 215.66H48.2685L47.8605 218ZM49.1205 214.988L49.5285 212.636H51.6045L51.1845 214.988H49.1205ZM55.9081 218H60.8761V217.256H56.7361V214.124H59.9401V213.38H56.7361V210.308H60.6601V209.564H55.9081V218ZM62.1876 216.944C62.1876 216.944 62.9796 218.144 64.6596 218.144C66.3036 218.144 67.5876 216.932 67.5876 215.372C67.5876 213.848 66.3756 212.624 64.6836 212.624C63.9276 212.624 63.3996 212.948 63.3996 212.948H63.3756C63.3756 212.948 63.4236 212.768 63.4596 212.468L63.6996 210.308H67.0596V209.564H62.9796L62.5236 213.656L63.0516 213.848C63.0516 213.848 63.6876 213.392 64.5876 213.392C65.7876 213.392 66.7236 214.22 66.7236 215.372C66.7236 216.524 65.7876 217.352 64.6236 217.352C63.3396 217.352 62.7156 216.368 62.7156 216.368L62.1876 216.944ZM74.591 218H75.467L72.371 209.564H71.483L68.387 218H69.263L70.223 215.312H73.619L74.591 218ZM71.939 210.44C71.939 210.44 72.119 211.136 72.263 211.532L73.367 214.592H70.463L71.591 211.532C71.735 211.136 71.915 210.44 71.915 210.44H71.939ZM76.8495 218H79.5735C82.1055 218 83.8095 216.464 83.8095 213.776C83.8095 211.112 82.1055 209.564 79.5735 209.564H76.8495V218ZM77.6775 217.256V210.308H79.4895C81.5535 210.308 82.9455 211.532 82.9455 213.776C82.9455 216.032 81.5655 217.256 79.4895 217.256H77.6775ZM84.9163 215.66H89.1403V218H89.9683V215.66H91.1683V214.928H89.9683V209.564H89.0683L84.9163 215.12V215.66ZM85.9243 214.928V214.904L88.7323 211.244C88.9603 210.944 89.1523 210.608 89.1523 210.608H89.1763C89.1763 210.608 89.1403 211.04 89.1403 211.4V214.928H85.9243ZM95.4245 218.144C97.6205 218.144 98.3285 216.224 98.3285 213.776C98.3285 211.352 97.6205 209.42 95.4245 209.42C93.2285 209.42 92.5085 211.352 92.5085 213.776C92.5085 216.224 93.2285 218.144 95.4245 218.144ZM95.4245 217.364C93.8165 217.364 93.3725 215.792 93.3725 213.776C93.3725 211.772 93.8165 210.2 95.4245 210.2C97.0205 210.2 97.4645 211.772 97.4645 213.776C97.4645 215.792 97.0205 217.364 95.4245 217.364Z" fill="#404040"/>
<path d="M1.22449 179H2.05249V175.448H4.17649L6.08449 179H7.03249L5.19649 175.604C5.06449 175.376 4.98049 175.268 4.98049 175.268V175.244C5.92849 174.98 6.57649 174.104 6.57649 172.964C6.57649 171.944 6.09649 171.14 5.30449 170.792C4.96849 170.648 4.58449 170.564 3.72049 170.564H1.22449V179ZM2.05249 174.704V171.308H3.75649C4.40449 171.308 4.70449 171.38 4.95649 171.512C5.44849 171.776 5.72449 172.292 5.72449 172.988C5.72449 174.044 5.07649 174.704 4.05649 174.704H2.05249ZM8.19564 174.776C8.19564 177.284 10.0196 179.144 12.3236 179.144C14.0996 179.144 15.0716 178.004 15.0716 178.004H15.0956C15.0956 178.004 15.0836 178.184 15.0836 178.364V179H15.8516V174.968H13.6196V175.712H15.0596V177.14C15.0596 177.14 14.0516 178.376 12.4076 178.376C10.4876 178.376 9.05964 176.84 9.05964 174.764C9.05964 172.76 10.4396 171.188 12.4796 171.188C14.0156 171.188 14.9996 172.028 14.9996 172.028L15.4436 171.404C15.4436 171.404 14.3996 170.42 12.4436 170.42C10.0196 170.42 8.19564 172.34 8.19564 174.776ZM17.8534 179H20.8294C22.2454 179 23.3614 178.136 23.3614 176.636C23.3614 175.616 22.8094 174.788 21.9454 174.548V174.524C22.5934 174.2 23.0134 173.564 23.0134 172.688C23.0134 171.368 22.0654 170.564 20.7334 170.564H17.8534V179ZM18.6814 174.224V171.308H20.7214C21.6214 171.308 22.1614 171.884 22.1614 172.748C22.1614 173.624 21.5854 174.224 20.7334 174.224H18.6814ZM18.6814 178.256V174.944H20.8294C21.8134 174.944 22.4974 175.604 22.4974 176.612C22.4974 177.62 21.8614 178.256 20.8414 178.256H18.6814Z" fill="#404040"/>
<path d="M0.660488 194.728C0.660488 197.188 2.43649 199.144 4.93249 199.144C7.00849 199.144 8.16049 197.836 8.16049 197.836L7.68049 197.248C7.68049 197.248 6.64849 198.376 4.94449 198.376C2.94049 198.376 1.52449 196.732 1.52449 194.716C1.52449 192.724 2.94049 191.188 4.92049 191.188C6.50449 191.188 7.48849 192.124 7.48849 192.124L7.93249 191.512C7.93249 191.512 6.91249 190.42 4.89649 190.42C2.48449 190.42 0.660488 192.28 0.660488 194.728ZM9.69096 199H10.519L10.987 193.096C11.023 192.64 11.011 191.896 11.011 191.896H11.035C11.035 191.896 11.299 192.676 11.491 193.096L13.471 197.428H14.251L16.231 193.096C16.423 192.664 16.675 191.92 16.675 191.92H16.699C16.699 191.92 16.687 192.64 16.723 193.096L17.191 199H18.019L17.347 190.564H16.495L14.287 195.52C14.095 195.952 13.867 196.552 13.867 196.552H13.843C13.843 196.552 13.627 195.952 13.435 195.52L11.227 190.564H10.363L9.69096 199ZM21.8917 199H22.7317V195.376L25.5637 190.564H24.6277L22.8397 193.624C22.5757 194.068 22.3237 194.632 22.3237 194.632H22.2997C22.2997 194.632 22.0357 194.056 21.7837 193.624L19.9957 190.564H19.0477L21.8917 195.376V199ZM26.9823 199H27.8103V194.968H29.2383L31.6503 199H32.6223L29.9343 194.572V194.548L32.4543 190.564H31.5063L29.2383 194.224H27.8103V190.564H26.9823V199Z" fill="#404040"/>
<path d="M1.22449 218H2.05249V214.148H6.94849V218H7.77649V209.564H6.94849V213.404H2.05249V209.564H1.22449V218ZM10.2245 218H15.1925V217.256H11.0525V214.124H14.2565V213.38H11.0525V210.308H14.9765V209.564H10.2245V218ZM16.168 218H17.128L18.856 215.096C19.12 214.652 19.372 214.148 19.372 214.148H19.396C19.396 214.148 19.66 214.652 19.924 215.084L21.676 218H22.636L19.936 213.596L22.408 209.564H21.424L19.936 212.06C19.672 212.492 19.432 213.032 19.432 213.032H19.408C19.408 213.032 19.108 212.492 18.856 212.06L17.38 209.564H16.408L18.856 213.596L16.168 218Z" fill="#404040"/>
</svg>
