<svg width="337" height="293" viewBox="0 0 337 293" fill="none" xmlns="http://www.w3.org/2000/svg">
<path d="M257.84 219H264.21V217.796H259.31C259.338 215.542 264.056 215.038 264.056 211.79C264.056 210.082 262.754 208.948 260.934 208.948C258.708 208.948 257.812 210.824 257.812 210.824L258.834 211.51C258.834 211.51 259.534 210.25 260.836 210.25C261.872 210.25 262.614 210.908 262.614 211.888C262.614 214.212 257.77 214.716 257.77 218.244C257.77 218.482 257.798 218.734 257.84 219ZM265.684 217.796C265.684 217.796 266.678 219.168 268.708 219.168C270.71 219.168 272.208 217.74 272.208 215.836C272.208 214.058 270.85 212.616 268.764 212.616C268.036 212.616 267.49 212.924 267.49 212.924H267.462C267.462 212.924 267.518 212.7 267.532 212.406L267.77 210.32H271.55V209.116H266.566L266.076 214.016L266.874 214.31C266.874 214.31 267.574 213.82 268.54 213.82C269.814 213.82 270.794 214.66 270.794 215.85C270.794 217.054 269.786 217.852 268.624 217.852C267.224 217.852 266.454 216.788 266.454 216.788L265.684 217.796ZM273.573 217.796C273.573 217.796 274.567 219.168 276.597 219.168C278.599 219.168 280.097 217.74 280.097 215.836C280.097 214.058 278.739 212.616 276.653 212.616C275.925 212.616 275.379 212.924 275.379 212.924H275.351C275.351 212.924 275.407 212.7 275.421 212.406L275.659 210.32H279.439V209.116H274.455L273.965 214.016L274.763 214.31C274.763 214.31 275.463 213.82 276.429 213.82C277.703 213.82 278.683 214.66 278.683 215.85C278.683 217.054 277.675 217.852 276.513 217.852C275.113 217.852 274.343 216.788 274.343 216.788L273.573 217.796ZM285.225 219H291.595V217.796H286.695C286.723 215.542 291.441 215.038 291.441 211.79C291.441 210.082 290.139 208.948 288.319 208.948C286.093 208.948 285.197 210.824 285.197 210.824L286.219 211.51C286.219 211.51 286.919 210.25 288.221 210.25C289.257 210.25 289.999 210.908 289.999 211.888C289.999 214.212 285.155 214.716 285.155 218.244C285.155 218.482 285.183 218.734 285.225 219ZM292.599 216.354H297.387V219H298.745V216.354H300.089V215.178H298.745V209.116H297.163L292.599 215.486V216.354ZM294.125 215.178V215.15L296.925 211.412C297.191 211.062 297.415 210.6 297.415 210.6H297.443C297.443 210.6 297.387 211.118 297.387 211.58V215.178H294.125ZM301.859 219H303.287L307.753 210.068V209.116H301.145V210.32H305.555C306.059 210.32 306.283 210.278 306.283 210.278V210.306C306.283 210.306 305.989 210.656 305.709 211.216L301.859 219ZM312.445 219H318.129V217.796H315.973V209.116H314.741L312.375 211.412L313.215 212.28L314.139 211.37C314.503 211.02 314.615 210.796 314.615 210.796H314.643C314.643 210.796 314.629 211.104 314.629 211.412V217.796H312.445V219ZM318.698 216.354H323.486V219H324.844V216.354H326.188V215.178H324.844V209.116H323.262L318.698 215.486V216.354ZM320.224 215.178V215.15L323.024 211.412C323.29 211.062 323.514 210.6 323.514 210.6H323.542C323.542 210.6 323.486 211.118 323.486 211.58V215.178H320.224ZM327.314 217.824C327.314 217.824 328.504 219.168 330.52 219.168C332.55 219.168 333.88 217.684 333.88 215.99C333.88 214.072 332.284 213.232 330.982 213.092L333.67 209.998V209.116H327.762V210.32H331.108C331.654 210.32 331.948 210.278 331.948 210.278V210.306C331.948 210.306 331.654 210.572 331.332 210.95L329.176 213.484L329.498 214.226H330.184C331.402 214.226 332.48 214.828 332.48 216.046C332.48 217.11 331.57 217.852 330.464 217.852C329.036 217.852 328.07 216.774 328.07 216.774L327.314 217.824Z" fill="#404040"/>
<path d="M261.368 240.168C264.014 240.168 264.868 237.9 264.868 235.044C264.868 232.202 264.014 229.948 261.368 229.948C258.736 229.948 257.882 232.202 257.882 235.044C257.882 237.9 258.736 240.168 261.368 240.168ZM261.368 238.894C259.758 238.894 259.296 237.2 259.296 235.044C259.296 232.902 259.758 231.222 261.368 231.222C262.992 231.222 263.454 232.902 263.454 235.044C263.454 237.2 262.992 238.894 261.368 238.894ZM269.906 238.824C269.906 238.824 271.096 240.168 273.112 240.168C275.142 240.168 276.472 238.684 276.472 236.99C276.472 235.072 274.876 234.232 273.574 234.092L276.262 230.998V230.116H270.354V231.32H273.7C274.246 231.32 274.54 231.278 274.54 231.278V231.306C274.54 231.306 274.246 231.572 273.924 231.95L271.768 234.484L272.09 235.226H272.776C273.994 235.226 275.072 235.828 275.072 237.046C275.072 238.11 274.162 238.852 273.056 238.852C271.628 238.852 270.662 237.774 270.662 237.774L269.906 238.824ZM281.319 237.354H286.107V240H287.465V237.354H288.809V236.178H287.465V230.116H285.883L281.319 236.486V237.354ZM282.845 236.178V236.15L285.645 232.412C285.911 232.062 286.135 231.6 286.135 231.6H286.163C286.163 231.6 286.107 232.118 286.107 232.58V236.178H282.845ZM289.809 237.354H294.597V240H295.955V237.354H297.299V236.178H295.955V230.116H294.373L289.809 236.486V237.354ZM291.335 236.178V236.15L294.135 232.412C294.401 232.062 294.625 231.6 294.625 231.6H294.653C294.653 231.6 294.597 232.118 294.597 232.58V236.178H291.335ZM305.829 240.168C308.475 240.168 309.329 237.9 309.329 235.044C309.329 232.202 308.475 229.948 305.829 229.948C303.197 229.948 302.343 232.202 302.343 235.044C302.343 237.9 303.197 240.168 305.829 240.168ZM305.829 238.894C304.219 238.894 303.757 237.2 303.757 235.044C303.757 232.902 304.219 231.222 305.829 231.222C307.453 231.222 307.915 232.902 307.915 235.044C307.915 237.2 307.453 238.894 305.829 238.894Z" fill="#404040"/>
<path d="M258.974 261H260.108L260.57 258.326H262.74L262.278 261H263.412L263.888 258.326H265.694L265.876 257.29H264.056L264.476 254.938H266.296L266.478 253.916H264.644L265.134 251.116H264L263.51 253.916H261.34L261.83 251.116H260.696L260.206 253.916H258.386L258.218 254.938H260.024L259.618 257.29H257.784L257.616 258.326H259.436L258.974 261ZM260.752 257.29L261.172 254.938H263.342L262.922 257.29H260.752ZM268.393 261H269.779V256.772H273.237V255.568H269.779V252.32H273.839V251.116H268.393V261ZM275.694 261H277.08V256.772H280.538V255.568H277.08V252.32H281.14V251.116H275.694V261ZM282.995 261H284.381V256.772H287.839V255.568H284.381V252.32H288.441V251.116H282.995V261ZM290.156 261H291.584L296.05 252.068V251.116H289.442V252.32H293.852C294.356 252.32 294.58 252.278 294.58 252.278V252.306C294.58 252.306 294.286 252.656 294.006 253.216L290.156 261ZM297.16 258.144C297.16 259.936 298.63 261.168 300.604 261.168C302.662 261.168 303.992 259.81 303.992 258.27C303.992 257.248 303.404 256.632 302.648 256.17C302.774 256.03 303.824 254.91 303.824 253.594C303.824 251.97 302.55 250.948 300.716 250.948C298.63 250.948 297.636 252.222 297.636 253.538C297.636 254.448 298.098 255.05 298.742 255.512C298.476 255.694 297.16 256.632 297.16 258.144ZM302.564 258.228C302.564 259.25 301.64 259.922 300.604 259.922C299.554 259.922 298.574 259.194 298.574 258.06C298.574 256.996 299.442 256.324 299.764 256.1C301.094 256.744 302.564 257.164 302.564 258.228ZM299.008 253.566C299.008 252.81 299.61 252.194 300.702 252.194C301.738 252.194 302.466 252.768 302.466 253.678C302.466 254.714 301.752 255.47 301.598 255.624C300.324 255.078 299.008 254.658 299.008 253.566ZM306.21 261H307.596V256.772H311.054V255.568H307.596V252.32H311.656V251.116H306.21V261Z" fill="#404040"/>
<path d="M208.344 219H209.73V215.066H211.844L213.93 219H215.498L213.398 215.164C213.216 214.842 213.104 214.716 213.104 214.716V214.688C214.182 214.338 214.882 213.274 214.882 212.014C214.882 210.712 214.224 209.718 213.216 209.34C212.838 209.2 212.404 209.116 211.368 209.116H208.344V219ZM209.73 213.862V210.32H211.326C212.096 210.32 212.418 210.404 212.684 210.544C213.188 210.824 213.468 211.342 213.468 212.07C213.468 213.176 212.796 213.862 211.718 213.862H209.73ZM216.655 214.044C216.655 217.068 218.853 219.168 221.513 219.168C223.473 219.168 224.551 217.964 224.551 217.964H224.579C224.579 217.964 224.565 218.174 224.565 218.384V219H225.783V214.03H222.913V215.234H224.523V216.662C224.523 216.662 223.431 217.894 221.723 217.894C219.651 217.894 218.083 216.312 218.083 214.016C218.083 211.902 219.483 210.208 221.807 210.208C223.487 210.208 224.593 211.174 224.593 211.174L225.293 210.138C225.293 210.138 224.061 208.948 221.695 208.948C218.811 208.948 216.655 211.188 216.655 214.044ZM227.95 219H231.492C233.228 219 234.67 218.048 234.67 216.186C234.67 215.08 234.082 214.1 233.046 213.792V213.764C233.802 213.372 234.278 212.602 234.278 211.636C234.278 210.04 233.074 209.116 231.408 209.116H227.95V219ZM229.336 213.274V210.32H231.38C232.332 210.32 232.864 210.908 232.864 211.776C232.864 212.644 232.304 213.274 231.408 213.274H229.336ZM229.336 217.796V214.422H231.548C232.584 214.422 233.256 215.108 233.256 216.116C233.256 217.124 232.626 217.796 231.562 217.796H229.336Z" fill="#404040"/>
<path d="M207.672 235.002C207.672 237.9 209.758 240.168 212.726 240.168C215.204 240.168 216.562 238.6 216.562 238.6L215.82 237.606C215.82 237.606 214.63 238.894 212.768 238.894C210.57 238.894 209.1 237.102 209.1 234.988C209.1 232.888 210.542 231.208 212.754 231.208C214.462 231.208 215.61 232.286 215.61 232.286L216.296 231.25C216.296 231.25 215.078 229.948 212.698 229.948C209.828 229.948 207.672 232.132 207.672 235.002ZM218.14 240H219.526L220.002 233.77C220.044 233.168 220.03 232.286 220.03 232.286H220.058C220.058 232.286 220.366 233.238 220.59 233.77L222.55 238.222H223.782L225.756 233.77C225.994 233.224 226.288 232.314 226.288 232.314H226.316C226.316 232.314 226.288 233.168 226.33 233.77L226.82 240H228.192L227.394 230.116H225.938L223.67 235.464C223.446 236.01 223.18 236.794 223.18 236.794H223.152C223.152 236.794 222.886 236.01 222.662 235.464L220.394 230.116H218.938L218.14 240ZM232.524 240H233.91V235.814L237.214 230.116H235.646L233.84 233.364C233.532 233.924 233.238 234.61 233.238 234.61H233.21C233.21 234.61 232.916 233.91 232.608 233.364L230.774 230.116H229.206L232.524 235.814V240ZM238.669 240H240.055V235.464H241.525L244.157 240H245.725L242.673 234.834V234.806L245.543 230.116H244.017L241.525 234.274H240.055V230.116H238.669V240Z" fill="#404040"/>
<path d="M208.344 261H209.73V256.66H214.854V261H216.24V251.116H214.854V255.456H209.73V251.116H208.344V261ZM218.927 261H224.905V259.796H220.313V256.618H223.855V255.414H220.313V252.32H224.667V251.116H218.927V261ZM225.916 261H227.47L229.262 257.962C229.584 257.416 229.85 256.828 229.85 256.828H229.878C229.878 256.828 230.186 257.402 230.508 257.962L232.3 261H233.868L230.746 255.904L233.672 251.116H232.076L230.522 253.79C230.2 254.336 229.92 254.966 229.92 254.966H229.892C229.892 254.966 229.57 254.322 229.262 253.79L227.708 251.116H226.112L229.038 255.904L225.916 261Z" fill="#404040"/>
<path d="M97.5005 292.5L13.063 146.25L181.938 146.25L97.5005 292.5Z" fill="#FFF78F"/>
<path d="M257.84 40H264.21V38.796H259.31C259.338 36.542 264.056 36.038 264.056 32.79C264.056 31.082 262.754 29.948 260.934 29.948C258.708 29.948 257.812 31.824 257.812 31.824L258.834 32.51C258.834 32.51 259.534 31.25 260.836 31.25C261.872 31.25 262.614 31.908 262.614 32.888C262.614 35.212 257.77 35.716 257.77 39.244C257.77 39.482 257.798 39.734 257.84 40ZM265.684 38.796C265.684 38.796 266.678 40.168 268.708 40.168C270.71 40.168 272.208 38.74 272.208 36.836C272.208 35.058 270.85 33.616 268.764 33.616C268.036 33.616 267.49 33.924 267.49 33.924H267.462C267.462 33.924 267.518 33.7 267.532 33.406L267.77 31.32H271.55V30.116H266.566L266.076 35.016L266.874 35.31C266.874 35.31 267.574 34.82 268.54 34.82C269.814 34.82 270.794 35.66 270.794 36.85C270.794 38.054 269.786 38.852 268.624 38.852C267.224 38.852 266.454 37.788 266.454 37.788L265.684 38.796ZM273.573 38.796C273.573 38.796 274.567 40.168 276.597 40.168C278.599 40.168 280.097 38.74 280.097 36.836C280.097 35.058 278.739 33.616 276.653 33.616C275.925 33.616 275.379 33.924 275.379 33.924H275.351C275.351 33.924 275.407 33.7 275.421 33.406L275.659 31.32H279.439V30.116H274.455L273.965 35.016L274.763 35.31C274.763 35.31 275.463 34.82 276.429 34.82C277.703 34.82 278.683 35.66 278.683 36.85C278.683 38.054 277.675 38.852 276.513 38.852C275.113 38.852 274.343 37.788 274.343 37.788L273.573 38.796ZM285.225 40H291.595V38.796H286.695C286.723 36.542 291.441 36.038 291.441 32.79C291.441 31.082 290.139 29.948 288.319 29.948C286.093 29.948 285.197 31.824 285.197 31.824L286.219 32.51C286.219 32.51 286.919 31.25 288.221 31.25C289.257 31.25 289.999 31.908 289.999 32.888C289.999 35.212 285.155 35.716 285.155 39.244C285.155 39.482 285.183 39.734 285.225 40ZM296.765 40.168C299.411 40.168 300.265 37.9 300.265 35.044C300.265 32.202 299.411 29.948 296.765 29.948C294.133 29.948 293.279 32.202 293.279 35.044C293.279 37.9 294.133 40.168 296.765 40.168ZM296.765 38.894C295.155 38.894 294.693 37.2 294.693 35.044C294.693 32.902 295.155 31.222 296.765 31.222C298.389 31.222 298.851 32.902 298.851 35.044C298.851 37.2 298.389 38.894 296.765 38.894ZM301.581 37.354H306.369V40H307.727V37.354H309.071V36.178H307.727V30.116H306.145L301.581 36.486V37.354ZM303.107 36.178V36.15L305.907 32.412C306.173 32.062 306.397 31.6 306.397 31.6H306.425C306.425 31.6 306.369 32.118 306.369 32.58V36.178H303.107ZM313.905 38.796C313.905 38.796 314.899 40.168 316.929 40.168C318.931 40.168 320.429 38.74 320.429 36.836C320.429 35.058 319.071 33.616 316.985 33.616C316.257 33.616 315.711 33.924 315.711 33.924H315.683C315.683 33.924 315.739 33.7 315.753 33.406L315.991 31.32H319.771V30.116H314.787L314.297 35.016L315.095 35.31C315.095 35.31 315.795 34.82 316.761 34.82C318.035 34.82 319.015 35.66 319.015 36.85C319.015 38.054 318.007 38.852 316.845 38.852C315.445 38.852 314.675 37.788 314.675 37.788L313.905 38.796ZM321.92 37.144C321.92 38.936 323.39 40.168 325.364 40.168C327.422 40.168 328.752 38.81 328.752 37.27C328.752 36.248 328.164 35.632 327.408 35.17C327.534 35.03 328.584 33.91 328.584 32.594C328.584 30.97 327.31 29.948 325.476 29.948C323.39 29.948 322.396 31.222 322.396 32.538C322.396 33.448 322.858 34.05 323.502 34.512C323.236 34.694 321.92 35.632 321.92 37.144ZM327.324 37.228C327.324 38.25 326.4 38.922 325.364 38.922C324.314 38.922 323.334 38.194 323.334 37.06C323.334 35.996 324.202 35.324 324.524 35.1C325.854 35.744 327.324 36.164 327.324 37.228ZM323.768 32.566C323.768 31.81 324.37 31.194 325.462 31.194C326.498 31.194 327.226 31.768 327.226 32.678C327.226 33.714 326.512 34.47 326.358 34.624C325.084 34.078 323.768 33.658 323.768 32.566Z" fill="#404040"/>
<path d="M261.368 61.168C264.014 61.168 264.868 58.9 264.868 56.044C264.868 53.202 264.014 50.948 261.368 50.948C258.736 50.948 257.882 53.202 257.882 56.044C257.882 58.9 258.736 61.168 261.368 61.168ZM261.368 59.894C259.758 59.894 259.296 58.2 259.296 56.044C259.296 53.902 259.758 52.222 261.368 52.222C262.992 52.222 263.454 53.902 263.454 56.044C263.454 58.2 262.992 59.894 261.368 59.894ZM270.186 61H276.556V59.796H271.656C271.684 57.542 276.402 57.038 276.402 53.79C276.402 52.082 275.1 50.948 273.28 50.948C271.054 50.948 270.158 52.824 270.158 52.824L271.18 53.51C271.18 53.51 271.88 52.25 273.182 52.25C274.218 52.25 274.96 52.908 274.96 53.888C274.96 56.212 270.116 56.716 270.116 60.244C270.116 60.482 270.144 60.734 270.186 61ZM281.726 61.168C284.372 61.168 285.226 58.9 285.226 56.044C285.226 53.202 284.372 50.948 281.726 50.948C279.094 50.948 278.24 53.202 278.24 56.044C278.24 58.9 279.094 61.168 281.726 61.168ZM281.726 59.894C280.116 59.894 279.654 58.2 279.654 56.044C279.654 53.902 280.116 52.222 281.726 52.222C283.35 52.222 283.812 53.902 283.812 56.044C283.812 58.2 283.35 59.894 281.726 59.894ZM290.908 61H292.336L296.802 52.068V51.116H290.194V52.32H294.604C295.108 52.32 295.332 52.278 295.332 52.278V52.306C295.332 52.306 295.038 52.656 294.758 53.216L290.908 61ZM298.318 61H299.746L304.212 52.068V51.116H297.604V52.32H302.014C302.518 52.32 302.742 52.278 302.742 52.278V52.306C302.742 52.306 302.448 52.656 302.168 53.216L298.318 61ZM312.488 61.168C315.134 61.168 315.988 58.9 315.988 56.044C315.988 53.202 315.134 50.948 312.488 50.948C309.856 50.948 309.002 53.202 309.002 56.044C309.002 58.9 309.856 61.168 312.488 61.168ZM312.488 59.894C310.878 59.894 310.416 58.2 310.416 56.044C310.416 53.902 310.878 52.222 312.488 52.222C314.112 52.222 314.574 53.902 314.574 56.044C314.574 58.2 314.112 59.894 312.488 59.894Z" fill="#404040"/>
<path d="M258.974 82H260.108L260.57 79.326H262.74L262.278 82H263.412L263.888 79.326H265.694L265.876 78.29H264.056L264.476 75.938H266.296L266.478 74.916H264.644L265.134 72.116H264L263.51 74.916H261.34L261.83 72.116H260.696L260.206 74.916H258.386L258.218 75.938H260.024L259.618 78.29H257.784L257.616 79.326H259.436L258.974 82ZM260.752 78.29L261.172 75.938H263.342L262.922 78.29H260.752ZM268.393 82H269.779V77.772H273.237V76.568H269.779V73.32H273.839V72.116H268.393V82ZM275.694 82H277.08V77.772H280.538V76.568H277.08V73.32H281.14V72.116H275.694V82ZM282.323 77.002C282.323 79.9 284.409 82.168 287.377 82.168C289.855 82.168 291.213 80.6 291.213 80.6L290.471 79.606C290.471 79.606 289.281 80.894 287.419 80.894C285.221 80.894 283.751 79.102 283.751 76.988C283.751 74.888 285.193 73.208 287.405 73.208C289.113 73.208 290.261 74.286 290.261 74.286L290.947 73.25C290.947 73.25 289.729 71.948 287.349 71.948C284.479 71.948 282.323 74.132 282.323 77.002ZM292.358 77.002C292.358 79.9 294.444 82.168 297.412 82.168C299.89 82.168 301.248 80.6 301.248 80.6L300.506 79.606C300.506 79.606 299.316 80.894 297.454 80.894C295.256 80.894 293.786 79.102 293.786 76.988C293.786 74.888 295.228 73.208 297.44 73.208C299.148 73.208 300.296 74.286 300.296 74.286L300.982 73.25C300.982 73.25 299.764 71.948 297.384 71.948C294.514 71.948 292.358 74.132 292.358 77.002ZM302.35 80.824C302.35 80.824 303.54 82.168 305.556 82.168C307.586 82.168 308.916 80.684 308.916 78.99C308.916 77.072 307.32 76.232 306.018 76.092L308.706 72.998V72.116H302.798V73.32H306.144C306.69 73.32 306.984 73.278 306.984 73.278V73.306C306.984 73.306 306.69 73.572 306.368 73.95L304.212 76.484L304.534 77.226H305.22C306.438 77.226 307.516 77.828 307.516 79.046C307.516 80.11 306.606 80.852 305.5 80.852C304.072 80.852 303.106 79.774 303.106 79.774L302.35 80.824ZM316.971 82H318.413L314.857 72.116H313.401L309.845 82H311.273L312.253 79.158H315.977L316.971 82ZM314.143 73.474C314.143 73.474 314.353 74.37 314.521 74.874L315.613 78.01H312.617L313.723 74.874C313.891 74.37 314.115 73.474 314.115 73.474H314.143Z" fill="#404040"/>
<path d="M208.344 40H209.73V36.066H211.844L213.93 40H215.498L213.398 36.164C213.216 35.842 213.104 35.716 213.104 35.716V35.688C214.182 35.338 214.882 34.274 214.882 33.014C214.882 31.712 214.224 30.718 213.216 30.34C212.838 30.2 212.404 30.116 211.368 30.116H208.344V40ZM209.73 34.862V31.32H211.326C212.096 31.32 212.418 31.404 212.684 31.544C213.188 31.824 213.468 32.342 213.468 33.07C213.468 34.176 212.796 34.862 211.718 34.862H209.73ZM216.655 35.044C216.655 38.068 218.853 40.168 221.513 40.168C223.473 40.168 224.551 38.964 224.551 38.964H224.579C224.579 38.964 224.565 39.174 224.565 39.384V40H225.783V35.03H222.913V36.234H224.523V37.662C224.523 37.662 223.431 38.894 221.723 38.894C219.651 38.894 218.083 37.312 218.083 35.016C218.083 32.902 219.483 31.208 221.807 31.208C223.487 31.208 224.593 32.174 224.593 32.174L225.293 31.138C225.293 31.138 224.061 29.948 221.695 29.948C218.811 29.948 216.655 32.188 216.655 35.044ZM227.95 40H231.492C233.228 40 234.67 39.048 234.67 37.186C234.67 36.08 234.082 35.1 233.046 34.792V34.764C233.802 34.372 234.278 33.602 234.278 32.636C234.278 31.04 233.074 30.116 231.408 30.116H227.95V40ZM229.336 34.274V31.32H231.38C232.332 31.32 232.864 31.908 232.864 32.776C232.864 33.644 232.304 34.274 231.408 34.274H229.336ZM229.336 38.796V35.422H231.548C232.584 35.422 233.256 36.108 233.256 37.116C233.256 38.124 232.626 38.796 231.562 38.796H229.336Z" fill="#404040"/>
<path d="M207.672 56.002C207.672 58.9 209.758 61.168 212.726 61.168C215.204 61.168 216.562 59.6 216.562 59.6L215.82 58.606C215.82 58.606 214.63 59.894 212.768 59.894C210.57 59.894 209.1 58.102 209.1 55.988C209.1 53.888 210.542 52.208 212.754 52.208C214.462 52.208 215.61 53.286 215.61 53.286L216.296 52.25C216.296 52.25 215.078 50.948 212.698 50.948C209.828 50.948 207.672 53.132 207.672 56.002ZM218.14 61H219.526L220.002 54.77C220.044 54.168 220.03 53.286 220.03 53.286H220.058C220.058 53.286 220.366 54.238 220.59 54.77L222.55 59.222H223.782L225.756 54.77C225.994 54.224 226.288 53.314 226.288 53.314H226.316C226.316 53.314 226.288 54.168 226.33 54.77L226.82 61H228.192L227.394 51.116H225.938L223.67 56.464C223.446 57.01 223.18 57.794 223.18 57.794H223.152C223.152 57.794 222.886 57.01 222.662 56.464L220.394 51.116H218.938L218.14 61ZM232.524 61H233.91V56.814L237.214 51.116H235.646L233.84 54.364C233.532 54.924 233.238 55.61 233.238 55.61H233.21C233.21 55.61 232.916 54.91 232.608 54.364L230.774 51.116H229.206L232.524 56.814V61ZM238.669 61H240.055V56.464H241.525L244.157 61H245.725L242.673 55.834V55.806L245.543 51.116H244.017L241.525 55.274H240.055V51.116H238.669V61Z" fill="#404040"/>
<path d="M208.344 82H209.73V77.66H214.854V82H216.24V72.116H214.854V76.456H209.73V72.116H208.344V82ZM218.927 82H224.905V80.796H220.313V77.618H223.855V76.414H220.313V73.32H224.667V72.116H218.927V82ZM225.916 82H227.47L229.262 78.962C229.584 78.416 229.85 77.828 229.85 77.828H229.878C229.878 77.828 230.186 78.402 230.508 78.962L232.3 82H233.868L230.746 76.904L233.672 72.116H232.076L230.522 74.79C230.2 75.336 229.92 75.966 229.92 75.966H229.892C229.892 75.966 229.57 75.322 229.262 74.79L227.708 72.116H226.112L229.038 76.904L225.916 82Z" fill="#404040"/>
<path d="M97.5005 0L181.938 146.25H13.063L97.5005 0Z" fill="#FFCC3A"/>
</svg>
