<svg width="169" height="219" viewBox="0 0 169 219" fill="none" xmlns="http://www.w3.org/2000/svg">
<rect x="0.000488281" width="169" height="150" fill="#FFF680"/>
<path d="M46.7685 179H52.0365V178.256H47.6325C47.6445 176.012 51.9045 175.616 51.9045 172.784C51.9045 171.464 50.9445 170.42 49.3365 170.42C47.5485 170.42 46.7805 171.944 46.7805 171.944L47.4045 172.364C47.4045 172.364 48.0525 171.212 49.2885 171.212C50.3445 171.212 51.0405 171.908 51.0405 172.832C51.0405 175.112 46.7205 175.496 46.7205 178.46C46.7205 178.628 46.7325 178.808 46.7685 179ZM53.4336 177.944C53.4336 177.944 54.2256 179.144 55.9056 179.144C57.5496 179.144 58.8336 177.932 58.8336 176.372C58.8336 174.848 57.6216 173.624 55.9296 173.624C55.1736 173.624 54.6456 173.948 54.6456 173.948H54.6216C54.6216 173.948 54.6696 173.768 54.7056 173.468L54.9456 171.308H58.3056V170.564H54.2256L53.7696 174.656L54.2976 174.848C54.2976 174.848 54.9336 174.392 55.8336 174.392C57.0336 174.392 57.9696 175.22 57.9696 176.372C57.9696 177.524 57.0336 178.352 55.8696 178.352C54.5856 178.352 53.9616 177.368 53.9616 177.368L53.4336 177.944ZM60.1251 177.944C60.1251 177.944 60.9171 179.144 62.5971 179.144C64.2411 179.144 65.5251 177.932 65.5251 176.372C65.5251 174.848 64.3131 173.624 62.6211 173.624C61.8651 173.624 61.3371 173.948 61.3371 173.948H61.3131C61.3131 173.948 61.3611 173.768 61.3971 173.468L61.6371 171.308H64.9971V170.564H60.9171L60.4611 174.656L60.9891 174.848C60.9891 174.848 61.6251 174.392 62.5251 174.392C63.7251 174.392 64.6611 175.22 64.6611 176.372C64.6611 177.524 63.7251 178.352 62.5611 178.352C61.2771 178.352 60.6531 177.368 60.6531 177.368L60.1251 177.944ZM70.1591 179H75.4271V178.256H71.0231C71.0351 176.012 75.2951 175.616 75.2951 172.784C75.2951 171.464 74.3351 170.42 72.7271 170.42C70.9391 170.42 70.1711 171.944 70.1711 171.944L70.7951 172.364C70.7951 172.364 71.4431 171.212 72.6791 171.212C73.7351 171.212 74.4311 171.908 74.4311 172.832C74.4311 175.112 70.1111 175.496 70.1111 178.46C70.1111 178.628 70.1231 178.808 70.1591 179ZM76.3265 176.66H80.5505V179H81.3785V176.66H82.5785V175.928H81.3785V170.564H80.4785L76.3265 176.12V176.66ZM77.3345 175.928V175.904L80.1425 172.244C80.3705 171.944 80.5625 171.608 80.5625 171.608H80.5865C80.5865 171.608 80.5505 172.04 80.5505 172.4V175.928H77.3345ZM86.9066 179.144C88.3826 179.144 89.5586 178.076 89.5586 176.324C89.5586 174.728 88.4666 173.6 86.9306 173.6C86.0546 173.6 85.2026 173.984 84.7946 174.584H84.7706C84.9146 172.94 85.8146 171.2 87.5786 171.2C88.2746 171.2 88.8026 171.5 88.8026 171.5L89.1146 170.768C89.1146 170.768 88.5026 170.42 87.5666 170.42C84.9626 170.42 83.8586 173.072 83.8586 175.184C83.8586 177.464 85.0706 179.144 86.9066 179.144ZM86.8946 178.364C85.6346 178.364 84.7586 176.912 84.7586 175.784C84.7586 175.1 85.6706 174.344 86.7986 174.344C87.9506 174.344 88.7066 175.136 88.7066 176.336C88.7066 177.5 88.0346 178.364 86.8946 178.364ZM94.11 179H98.682V178.256H96.822V170.564H96.054L94.146 172.46L94.674 173L95.574 172.1C95.91 171.776 95.994 171.596 95.994 171.596H96.018C96.018 171.596 96.006 171.824 96.006 172.064V178.256H94.11V179ZM99.7958 179H105.064V178.256H100.66C100.672 176.012 104.932 175.616 104.932 172.784C104.932 171.464 103.972 170.42 102.364 170.42C100.576 170.42 99.8078 171.944 99.8078 171.944L100.432 172.364C100.432 172.364 101.08 171.212 102.316 171.212C103.372 171.212 104.068 171.908 104.068 172.832C104.068 175.112 99.7478 175.496 99.7478 178.46C99.7478 178.628 99.7598 178.808 99.7958 179ZM106.581 176.576C106.581 178.172 107.913 179.144 109.437 179.144C111.069 179.144 112.233 178.028 112.233 176.708C112.233 175.832 111.705 175.292 111.009 174.896C111.105 174.8 112.041 173.816 112.041 172.616C112.041 171.296 111.033 170.42 109.461 170.42C107.757 170.42 106.917 171.464 106.917 172.556C106.917 173.36 107.361 173.876 107.961 174.272C107.769 174.392 106.581 175.22 106.581 176.576ZM111.381 176.696C111.381 177.692 110.433 178.376 109.437 178.376C108.417 178.376 107.433 177.68 107.433 176.54C107.433 175.46 108.381 174.788 108.645 174.632C109.893 175.232 111.381 175.604 111.381 176.696ZM107.757 172.568C107.757 171.812 108.381 171.188 109.461 171.188C110.481 171.188 111.201 171.752 111.201 172.652C111.201 173.66 110.481 174.416 110.325 174.56C109.113 174.032 107.757 173.66 107.757 172.568Z" fill="#404040"/>
<path d="M49.7565 199.144C51.9525 199.144 52.6605 197.224 52.6605 194.776C52.6605 192.352 51.9525 190.42 49.7565 190.42C47.5605 190.42 46.8405 192.352 46.8405 194.776C46.8405 197.224 47.5605 199.144 49.7565 199.144ZM49.7565 198.364C48.1485 198.364 47.7045 196.792 47.7045 194.776C47.7045 192.772 48.1485 191.2 49.7565 191.2C51.3525 191.2 51.7965 192.772 51.7965 194.776C51.7965 196.792 51.3525 198.364 49.7565 198.364ZM57.1311 196.66H61.3551V199H62.1831V196.66H63.3831V195.928H62.1831V190.564H61.2831L57.1311 196.12V196.66ZM58.1391 195.928V195.904L60.9471 192.244C61.1751 191.944 61.3671 191.608 61.3671 191.608H61.3911C61.3911 191.608 61.3551 192.04 61.3551 192.4V195.928H58.1391ZM67.754 197.944C67.754 197.944 68.546 199.144 70.226 199.144C71.87 199.144 73.154 197.932 73.154 196.372C73.154 194.848 71.942 193.624 70.25 193.624C69.494 193.624 68.966 193.948 68.966 193.948H68.942C68.942 193.948 68.99 193.768 69.026 193.468L69.266 191.308H72.626V190.564H68.546L68.09 194.656L68.618 194.848C68.618 194.848 69.254 194.392 70.154 194.392C71.354 194.392 72.29 195.22 72.29 196.372C72.29 197.524 71.354 198.352 70.19 198.352C68.906 198.352 68.282 197.368 68.282 197.368L67.754 197.944ZM77.5534 199.144C79.7494 199.144 80.4574 197.224 80.4574 194.776C80.4574 192.352 79.7494 190.42 77.5534 190.42C75.3574 190.42 74.6374 192.352 74.6374 194.776C74.6374 197.224 75.3574 199.144 77.5534 199.144ZM77.5534 198.364C75.9454 198.364 75.5014 196.792 75.5014 194.776C75.5014 192.772 75.9454 191.2 77.5534 191.2C79.1494 191.2 79.5934 192.772 79.5934 194.776C79.5934 196.792 79.1494 198.364 77.5534 198.364ZM88.276 199.144C90.472 199.144 91.18 197.224 91.18 194.776C91.18 192.352 90.472 190.42 88.276 190.42C86.08 190.42 85.36 192.352 85.36 194.776C85.36 197.224 86.08 199.144 88.276 199.144ZM88.276 198.364C86.668 198.364 86.224 196.792 86.224 194.776C86.224 192.772 86.668 191.2 88.276 191.2C89.872 191.2 90.316 192.772 90.316 194.776C90.316 196.792 89.872 198.364 88.276 198.364Z" fill="#404040"/>
<path d="M47.8605 218H48.5925L49.0005 215.66H51.0765L50.6685 218H51.4005L51.8085 215.66H53.4885L53.5965 214.988H51.9285L52.3365 212.636H54.0165L54.1365 211.964H52.4565L52.8765 209.564H52.1445L51.7245 211.964H49.6485L50.0685 209.564H49.3365L48.9165 211.964H47.2125L47.1045 212.636H48.7965L48.3765 214.988H46.6845L46.5645 215.66H48.2685L47.8605 218ZM49.1205 214.988L49.5285 212.636H51.6045L51.1845 214.988H49.1205ZM55.9081 218H56.7361V214.22H59.8321V213.476H56.7361V210.308H60.3481V209.564H55.9081V218ZM62.0721 218H62.9001V214.22H65.9961V213.476H62.9001V210.308H66.5121V209.564H62.0721V218ZM68.2362 218H69.0642V214.22H72.1602V213.476H69.0642V210.308H72.6762V209.564H68.2362V218ZM77.0043 218.144C78.4803 218.144 79.6563 217.076 79.6563 215.324C79.6563 213.728 78.5643 212.6 77.0283 212.6C76.1523 212.6 75.3003 212.984 74.8923 213.584H74.8683C75.0123 211.94 75.9123 210.2 77.6763 210.2C78.3723 210.2 78.9003 210.5 78.9003 210.5L79.2123 209.768C79.2123 209.768 78.6003 209.42 77.6643 209.42C75.0603 209.42 73.9563 212.072 73.9563 214.184C73.9563 216.464 75.1683 218.144 77.0043 218.144ZM76.9923 217.364C75.7323 217.364 74.8563 215.912 74.8563 214.784C74.8563 214.1 75.7683 213.344 76.8963 213.344C78.0483 213.344 78.8043 214.136 78.8043 215.336C78.8043 216.5 78.1323 217.364 76.9923 217.364ZM81.081 215.576C81.081 217.172 82.413 218.144 83.937 218.144C85.569 218.144 86.733 217.028 86.733 215.708C86.733 214.832 86.205 214.292 85.509 213.896C85.605 213.8 86.541 212.816 86.541 211.616C86.541 210.296 85.533 209.42 83.961 209.42C82.257 209.42 81.417 210.464 81.417 211.556C81.417 212.36 81.861 212.876 82.461 213.272C82.269 213.392 81.081 214.22 81.081 215.576ZM85.881 215.696C85.881 216.692 84.933 217.376 83.937 217.376C82.917 217.376 81.933 216.68 81.933 215.54C81.933 214.46 82.881 213.788 83.145 213.632C84.393 214.232 85.881 214.604 85.881 215.696ZM82.257 211.568C82.257 210.812 82.881 210.188 83.961 210.188C84.981 210.188 85.701 210.752 85.701 211.652C85.701 212.66 84.981 213.416 84.825 213.56C83.613 213.032 82.257 212.66 82.257 211.568ZM91.2877 218.144C93.4837 218.144 94.1917 216.224 94.1917 213.776C94.1917 211.352 93.4837 209.42 91.2877 209.42C89.0917 209.42 88.3717 211.352 88.3717 213.776C88.3717 216.224 89.0917 218.144 91.2877 218.144ZM91.2877 217.364C89.6797 217.364 89.2357 215.792 89.2357 213.776C89.2357 211.772 89.6797 210.2 91.2877 210.2C92.8837 210.2 93.3277 211.772 93.3277 213.776C93.3277 215.792 92.8837 217.364 91.2877 217.364Z" fill="#404040"/>
<path d="M1.22449 179H2.05249V175.448H4.17649L6.08449 179H7.03249L5.19649 175.604C5.06449 175.376 4.98049 175.268 4.98049 175.268V175.244C5.92849 174.98 6.57649 174.104 6.57649 172.964C6.57649 171.944 6.09649 171.14 5.30449 170.792C4.96849 170.648 4.58449 170.564 3.72049 170.564H1.22449V179ZM2.05249 174.704V171.308H3.75649C4.40449 171.308 4.70449 171.38 4.95649 171.512C5.44849 171.776 5.72449 172.292 5.72449 172.988C5.72449 174.044 5.07649 174.704 4.05649 174.704H2.05249ZM8.19564 174.776C8.19564 177.284 10.0196 179.144 12.3236 179.144C14.0996 179.144 15.0716 178.004 15.0716 178.004H15.0956C15.0956 178.004 15.0836 178.184 15.0836 178.364V179H15.8516V174.968H13.6196V175.712H15.0596V177.14C15.0596 177.14 14.0516 178.376 12.4076 178.376C10.4876 178.376 9.05964 176.84 9.05964 174.764C9.05964 172.76 10.4396 171.188 12.4796 171.188C14.0156 171.188 14.9996 172.028 14.9996 172.028L15.4436 171.404C15.4436 171.404 14.3996 170.42 12.4436 170.42C10.0196 170.42 8.19564 172.34 8.19564 174.776ZM17.8534 179H20.8294C22.2454 179 23.3614 178.136 23.3614 176.636C23.3614 175.616 22.8094 174.788 21.9454 174.548V174.524C22.5934 174.2 23.0134 173.564 23.0134 172.688C23.0134 171.368 22.0654 170.564 20.7334 170.564H17.8534V179ZM18.6814 174.224V171.308H20.7214C21.6214 171.308 22.1614 171.884 22.1614 172.748C22.1614 173.624 21.5854 174.224 20.7334 174.224H18.6814ZM18.6814 178.256V174.944H20.8294C21.8134 174.944 22.4974 175.604 22.4974 176.612C22.4974 177.62 21.8614 178.256 20.8414 178.256H18.6814Z" fill="#404040"/>
<path d="M0.660488 194.728C0.660488 197.188 2.43649 199.144 4.93249 199.144C7.00849 199.144 8.16049 197.836 8.16049 197.836L7.68049 197.248C7.68049 197.248 6.64849 198.376 4.94449 198.376C2.94049 198.376 1.52449 196.732 1.52449 194.716C1.52449 192.724 2.94049 191.188 4.92049 191.188C6.50449 191.188 7.48849 192.124 7.48849 192.124L7.93249 191.512C7.93249 191.512 6.91249 190.42 4.89649 190.42C2.48449 190.42 0.660488 192.28 0.660488 194.728ZM9.69096 199H10.519L10.987 193.096C11.023 192.64 11.011 191.896 11.011 191.896H11.035C11.035 191.896 11.299 192.676 11.491 193.096L13.471 197.428H14.251L16.231 193.096C16.423 192.664 16.675 191.92 16.675 191.92H16.699C16.699 191.92 16.687 192.64 16.723 193.096L17.191 199H18.019L17.347 190.564H16.495L14.287 195.52C14.095 195.952 13.867 196.552 13.867 196.552H13.843C13.843 196.552 13.627 195.952 13.435 195.52L11.227 190.564H10.363L9.69096 199ZM21.8917 199H22.7317V195.376L25.5637 190.564H24.6277L22.8397 193.624C22.5757 194.068 22.3237 194.632 22.3237 194.632H22.2997C22.2997 194.632 22.0357 194.056 21.7837 193.624L19.9957 190.564H19.0477L21.8917 195.376V199ZM26.9823 199H27.8103V194.968H29.2383L31.6503 199H32.6223L29.9343 194.572V194.548L32.4543 190.564H31.5063L29.2383 194.224H27.8103V190.564H26.9823V199Z" fill="#404040"/>
<path d="M1.22449 218H2.05249V214.148H6.94849V218H7.77649V209.564H6.94849V213.404H2.05249V209.564H1.22449V218ZM10.2245 218H15.1925V217.256H11.0525V214.124H14.2565V213.38H11.0525V210.308H14.9765V209.564H10.2245V218ZM16.168 218H17.128L18.856 215.096C19.12 214.652 19.372 214.148 19.372 214.148H19.396C19.396 214.148 19.66 214.652 19.924 215.084L21.676 218H22.636L19.936 213.596L22.408 209.564H21.424L19.936 212.06C19.672 212.492 19.432 213.032 19.432 213.032H19.408C19.408 213.032 19.108 212.492 18.856 212.06L17.38 209.564H16.408L18.856 213.596L16.168 218Z" fill="#404040"/>
</svg>
