<svg width="169" height="219" viewBox="0 0 169 219" fill="none" xmlns="http://www.w3.org/2000/svg">
<rect width="169" height="150" fill="#F15A22"/>
<path d="M46.768 179H52.036V178.256H47.632C47.644 176.012 51.904 175.616 51.904 172.784C51.904 171.464 50.944 170.42 49.336 170.42C47.548 170.42 46.78 171.944 46.78 171.944L47.404 172.364C47.404 172.364 48.052 171.212 49.288 171.212C50.344 171.212 51.04 171.908 51.04 172.832C51.04 175.112 46.72 175.496 46.72 178.46C46.72 178.628 46.732 178.808 46.768 179ZM52.9353 176.66H57.1593V179H57.9873V176.66H59.1873V175.928H57.9873V170.564H57.0873L52.9353 176.12V176.66ZM53.9433 175.928V175.904L56.7513 172.244C56.9793 171.944 57.1713 171.608 57.1713 171.608H57.1953C57.1953 171.608 57.1593 172.04 57.1593 172.4V175.928H53.9433ZM60.3595 179H64.9315V178.256H63.0715V170.564H62.3035L60.3955 172.46L60.9235 173L61.8235 172.1C62.1595 171.776 62.2435 171.596 62.2435 171.596H62.2675C62.2675 171.596 62.2555 171.824 62.2555 172.064V178.256H60.3595V179ZM71.14 179.144C73.756 179.144 74.848 176.492 74.848 174.38C74.848 172.1 73.636 170.42 71.8 170.42C70.324 170.42 69.16 171.488 69.16 173.24C69.16 174.836 70.24 175.964 71.776 175.964C72.652 175.964 73.504 175.58 73.924 174.98H73.948C73.792 176.624 72.904 178.364 71.128 178.364C70.432 178.364 69.904 178.064 69.904 178.064L69.592 178.796C69.592 178.796 70.216 179.144 71.14 179.144ZM71.908 175.22C70.756 175.22 70 174.428 70 173.228C70 172.064 70.672 171.2 71.812 171.2C73.072 171.2 73.948 172.652 73.948 173.78C73.948 174.464 73.048 175.22 71.908 175.22ZM79.381 179.144C81.577 179.144 82.285 177.224 82.285 174.776C82.285 172.352 81.577 170.42 79.381 170.42C77.185 170.42 76.465 172.352 76.465 174.776C76.465 177.224 77.185 179.144 79.381 179.144ZM79.381 178.364C77.773 178.364 77.329 176.792 77.329 174.776C77.329 172.772 77.773 171.2 79.381 171.2C80.977 171.2 81.421 172.772 81.421 174.776C81.421 176.792 80.977 178.364 79.381 178.364ZM86.8877 177.992C86.8877 177.992 87.9077 179.144 89.5637 179.144C91.1597 179.144 92.3357 177.944 92.3357 176.504C92.3357 174.68 90.7637 174.08 89.6957 174.02L92.2157 171.116V170.564H87.2837V171.308H90.4517C90.8957 171.308 91.1357 171.272 91.1357 171.272V171.296C91.1357 171.296 90.9197 171.5 90.6917 171.764L88.5797 174.236L88.7837 174.728H89.3597C90.4637 174.728 91.4837 175.34 91.4837 176.528C91.4837 177.608 90.5597 178.352 89.5517 178.352C88.2557 178.352 87.3917 177.356 87.3917 177.356L86.8877 177.992ZM93.4939 176.66H97.7179V179H98.5459V176.66H99.7459V175.928H98.5459V170.564H97.6459L93.4939 176.12V176.66ZM94.5019 175.928V175.904L97.3099 172.244C97.5379 171.944 97.7299 171.608 97.7299 171.608H97.7539C97.7539 171.608 97.7179 172.04 97.7179 172.4V175.928H94.5019Z" fill="#404040"/>
<path d="M49.756 199.144C51.952 199.144 52.66 197.224 52.66 194.776C52.66 192.352 51.952 190.42 49.756 190.42C47.56 190.42 46.84 192.352 46.84 194.776C46.84 197.224 47.56 199.144 49.756 199.144ZM49.756 198.364C48.148 198.364 47.704 196.792 47.704 194.776C47.704 192.772 48.148 191.2 49.756 191.2C51.352 191.2 51.796 192.772 51.796 194.776C51.796 196.792 51.352 198.364 49.756 198.364ZM60.5507 199.144C62.0267 199.144 63.2027 198.076 63.2027 196.324C63.2027 194.728 62.1107 193.6 60.5747 193.6C59.6987 193.6 58.8467 193.984 58.4387 194.584H58.4147C58.5587 192.94 59.4587 191.2 61.2227 191.2C61.9187 191.2 62.4467 191.5 62.4467 191.5L62.7587 190.768C62.7587 190.768 62.1467 190.42 61.2107 190.42C58.6067 190.42 57.5027 193.072 57.5027 195.184C57.5027 197.464 58.7147 199.144 60.5507 199.144ZM60.5387 198.364C59.2787 198.364 58.4027 196.912 58.4027 195.784C58.4027 195.1 59.3147 194.344 60.4427 194.344C61.5947 194.344 62.3507 195.136 62.3507 196.336C62.3507 197.5 61.6787 198.364 60.5387 198.364ZM64.3994 197.992C64.3994 197.992 65.4194 199.144 67.0754 199.144C68.6714 199.144 69.8474 197.944 69.8474 196.504C69.8474 194.68 68.2754 194.08 67.2074 194.02L69.7274 191.116V190.564H64.7954V191.308H67.9634C68.4074 191.308 68.6474 191.272 68.6474 191.272V191.296C68.6474 191.296 68.4314 191.5 68.2034 191.764L66.0914 194.236L66.2954 194.728H66.8714C67.9754 194.728 68.9954 195.34 68.9954 196.528C68.9954 197.608 68.0714 198.352 67.0634 198.352C65.7674 198.352 64.9034 197.356 64.9034 197.356L64.3994 197.992ZM74.5883 196.576C74.5883 198.172 75.9203 199.144 77.4443 199.144C79.0763 199.144 80.2403 198.028 80.2403 196.708C80.2403 195.832 79.7123 195.292 79.0163 194.896C79.1123 194.8 80.0483 193.816 80.0483 192.616C80.0483 191.296 79.0403 190.42 77.4683 190.42C75.7643 190.42 74.9243 191.464 74.9243 192.556C74.9243 193.36 75.3683 193.876 75.9683 194.272C75.7763 194.392 74.5883 195.22 74.5883 196.576ZM79.3883 196.696C79.3883 197.692 78.4403 198.376 77.4443 198.376C76.4243 198.376 75.4403 197.68 75.4403 196.54C75.4403 195.46 76.3883 194.788 76.6523 194.632C77.9003 195.232 79.3883 195.604 79.3883 196.696ZM75.7643 192.568C75.7643 191.812 76.3883 191.188 77.4683 191.188C78.4883 191.188 79.2083 191.752 79.2083 192.652C79.2083 193.66 78.4883 194.416 78.3323 194.56C77.1203 194.032 75.7643 193.66 75.7643 192.568ZM84.8671 199.144C86.3431 199.144 87.5191 198.076 87.5191 196.324C87.5191 194.728 86.4271 193.6 84.8911 193.6C84.0151 193.6 83.1631 193.984 82.7551 194.584H82.7311C82.8751 192.94 83.7751 191.2 85.5391 191.2C86.2351 191.2 86.7631 191.5 86.7631 191.5L87.0751 190.768C87.0751 190.768 86.4631 190.42 85.5271 190.42C82.9231 190.42 81.8191 193.072 81.8191 195.184C81.8191 197.464 83.0311 199.144 84.8671 199.144ZM84.8551 198.364C83.5951 198.364 82.7191 196.912 82.7191 195.784C82.7191 195.1 83.6311 194.344 84.7591 194.344C85.9111 194.344 86.6671 195.136 86.6671 196.336C86.6671 197.5 85.9951 198.364 84.8551 198.364ZM92.0464 197.944C92.0464 197.944 92.8384 199.144 94.5184 199.144C96.1624 199.144 97.4464 197.932 97.4464 196.372C97.4464 194.848 96.2344 193.624 94.5424 193.624C93.7864 193.624 93.2584 193.948 93.2584 193.948H93.2344C93.2344 193.948 93.2824 193.768 93.3184 193.468L93.5584 191.308H96.9184V190.564H92.8384L92.3824 194.656L92.9104 194.848C92.9104 194.848 93.5464 194.392 94.4464 194.392C95.6464 194.392 96.5824 195.22 96.5824 196.372C96.5824 197.524 95.6464 198.352 94.4824 198.352C93.1984 198.352 92.5744 197.368 92.5744 197.368L92.0464 197.944Z" fill="#404040"/>
<path d="M47.86 218H48.592L49 215.66H51.076L50.668 218H51.4L51.808 215.66H53.488L53.596 214.988H51.928L52.336 212.636H54.016L54.136 211.964H52.456L52.876 209.564H52.144L51.724 211.964H49.648L50.068 209.564H49.336L48.916 211.964H47.212L47.104 212.636H48.796L48.376 214.988H46.684L46.564 215.66H48.268L47.86 218ZM49.12 214.988L49.528 212.636H51.604L51.184 214.988H49.12ZM55.9076 218H56.7356V214.22H59.8316V213.476H56.7356V210.308H60.3476V209.564H55.9076V218ZM61.5197 218H66.0917V217.256H64.2317V209.564H63.4637L61.5557 211.46L62.0837 212L62.9837 211.1C63.3197 210.776 63.4037 210.596 63.4037 210.596H63.4277C63.4277 210.596 63.4157 210.824 63.4157 211.064V217.256H61.5197V218ZM67.0855 216.944C67.0855 216.944 67.8775 218.144 69.5575 218.144C71.2015 218.144 72.4855 216.932 72.4855 215.372C72.4855 213.848 71.2735 212.624 69.5815 212.624C68.8255 212.624 68.2975 212.948 68.2975 212.948H68.2735C68.2735 212.948 68.3215 212.768 68.3575 212.468L68.5975 210.308H71.9575V209.564H67.8775L67.4215 213.656L67.9495 213.848C67.9495 213.848 68.5855 213.392 69.4855 213.392C70.6855 213.392 71.6215 214.22 71.6215 215.372C71.6215 216.524 70.6855 217.352 69.5215 217.352C68.2375 217.352 67.6135 216.368 67.6135 216.368L67.0855 216.944ZM79.4889 218H80.3649L77.2689 209.564H76.3809L73.2849 218H74.1609L75.1209 215.312H78.5169L79.4889 218ZM76.8369 210.44C76.8369 210.44 77.0169 211.136 77.1609 211.532L78.2649 214.592H75.3609L76.4889 211.532C76.6329 211.136 76.8129 210.44 76.8129 210.44H76.8369ZM81.2914 218H86.5594V217.256H82.1554C82.1674 215.012 86.4274 214.616 86.4274 211.784C86.4274 210.464 85.4674 209.42 83.8594 209.42C82.0714 209.42 81.3034 210.944 81.3034 210.944L81.9274 211.364C81.9274 211.364 82.5754 210.212 83.8114 210.212C84.8674 210.212 85.5634 210.908 85.5634 211.832C85.5634 214.112 81.2434 214.496 81.2434 217.46C81.2434 217.628 81.2554 217.808 81.2914 218ZM88.0766 218H93.3446V217.256H88.9406C88.9526 215.012 93.2126 214.616 93.2126 211.784C93.2126 210.464 92.2526 209.42 90.6446 209.42C88.8566 209.42 88.0886 210.944 88.0886 210.944L88.7126 211.364C88.7126 211.364 89.3606 210.212 90.5966 210.212C91.6526 210.212 92.3486 210.908 92.3486 211.832C92.3486 214.112 88.0286 214.496 88.0286 217.46C88.0286 217.628 88.0406 217.808 88.0766 218Z" fill="#404040"/>
<path d="M1.224 179H2.052V175.448H4.176L6.084 179H7.032L5.196 175.604C5.064 175.376 4.98 175.268 4.98 175.268V175.244C5.928 174.98 6.576 174.104 6.576 172.964C6.576 171.944 6.096 171.14 5.304 170.792C4.968 170.648 4.584 170.564 3.72 170.564H1.224V179ZM2.052 174.704V171.308H3.756C4.404 171.308 4.704 171.38 4.956 171.512C5.448 171.776 5.724 172.292 5.724 172.988C5.724 174.044 5.076 174.704 4.056 174.704H2.052ZM8.19516 174.776C8.19516 177.284 10.0192 179.144 12.3232 179.144C14.0992 179.144 15.0712 178.004 15.0712 178.004H15.0952C15.0952 178.004 15.0832 178.184 15.0832 178.364V179H15.8512V174.968H13.6192V175.712H15.0592V177.14C15.0592 177.14 14.0512 178.376 12.4072 178.376C10.4872 178.376 9.05916 176.84 9.05916 174.764C9.05916 172.76 10.4392 171.188 12.4792 171.188C14.0152 171.188 14.9992 172.028 14.9992 172.028L15.4432 171.404C15.4432 171.404 14.3992 170.42 12.4432 170.42C10.0192 170.42 8.19516 172.34 8.19516 174.776ZM17.8529 179H20.8289C22.2449 179 23.3609 178.136 23.3609 176.636C23.3609 175.616 22.8089 174.788 21.9449 174.548V174.524C22.5929 174.2 23.0129 173.564 23.0129 172.688C23.0129 171.368 22.0649 170.564 20.7329 170.564H17.8529V179ZM18.6809 174.224V171.308H20.7209C21.6209 171.308 22.1609 171.884 22.1609 172.748C22.1609 173.624 21.5849 174.224 20.7329 174.224H18.6809ZM18.6809 178.256V174.944H20.8289C21.8129 174.944 22.4969 175.604 22.4969 176.612C22.4969 177.62 21.8609 178.256 20.8409 178.256H18.6809Z" fill="#404040"/>
<path d="M0.66 194.728C0.66 197.188 2.436 199.144 4.932 199.144C7.008 199.144 8.16 197.836 8.16 197.836L7.68 197.248C7.68 197.248 6.648 198.376 4.944 198.376C2.94 198.376 1.524 196.732 1.524 194.716C1.524 192.724 2.94 191.188 4.92 191.188C6.504 191.188 7.488 192.124 7.488 192.124L7.932 191.512C7.932 191.512 6.912 190.42 4.896 190.42C2.484 190.42 0.66 192.28 0.66 194.728ZM9.69047 199H10.5185L10.9865 193.096C11.0225 192.64 11.0105 191.896 11.0105 191.896H11.0345C11.0345 191.896 11.2985 192.676 11.4905 193.096L13.4705 197.428H14.2505L16.2305 193.096C16.4225 192.664 16.6745 191.92 16.6745 191.92H16.6985C16.6985 191.92 16.6865 192.64 16.7225 193.096L17.1905 199H18.0185L17.3465 190.564H16.4945L14.2865 195.52C14.0945 195.952 13.8665 196.552 13.8665 196.552H13.8425C13.8425 196.552 13.6265 195.952 13.4345 195.52L11.2265 190.564H10.3625L9.69047 199ZM21.8912 199H22.7312V195.376L25.5632 190.564H24.6272L22.8392 193.624C22.5752 194.068 22.3232 194.632 22.3232 194.632H22.2992C22.2992 194.632 22.0352 194.056 21.7832 193.624L19.9952 190.564H19.0472L21.8912 195.376V199ZM26.9818 199H27.8098V194.968H29.2378L31.6498 199H32.6218L29.9338 194.572V194.548L32.4538 190.564H31.5058L29.2378 194.224H27.8098V190.564H26.9818V199Z" fill="#404040"/>
<path d="M1.224 218H2.052V214.148H6.948V218H7.776V209.564H6.948V213.404H2.052V209.564H1.224V218ZM10.224 218H15.192V217.256H11.052V214.124H14.256V213.38H11.052V210.308H14.976V209.564H10.224V218ZM16.1675 218H17.1275L18.8555 215.096C19.1195 214.652 19.3715 214.148 19.3715 214.148H19.3955C19.3955 214.148 19.6595 214.652 19.9235 215.084L21.6755 218H22.6355L19.9355 213.596L22.4075 209.564H21.4235L19.9355 212.06C19.6715 212.492 19.4315 213.032 19.4315 213.032H19.4075C19.4075 213.032 19.1075 212.492 18.8555 212.06L17.3795 209.564H16.4075L18.8555 213.596L16.1675 218Z" fill="#404040"/>
</svg>
