<svg width="804" height="407" viewBox="0 0 804 407" fill="none" xmlns="http://www.w3.org/2000/svg">
<rect x="0.999023" y="12.8623" width="749" height="392.275" fill="#3B5998" stroke="white" stroke-width="2" stroke-dasharray="6.26 6.26"/>
<rect x="0.999512" y="307" width="749" height="98" fill="#3B5998" stroke="white" stroke-width="2" stroke-dasharray="6.26 6.26"/>
<rect x="31.791" y="43.6553" width="687.416" height="361.983" stroke="white" stroke-dasharray="6.26 6.26"/>
<rect x="557" y="331" width="163" height="51" fill="white"/>
<path d="M586.473 364H588.057V359.824H590.601C592.665 359.824 594.153 358.384 594.153 356.24C594.153 354.096 592.665 352.704 590.601 352.704H586.473V364ZM588.057 358.448V354.08H590.361C591.705 354.08 592.537 354.88 592.537 356.24C592.537 357.6 591.705 358.448 590.345 358.448H588.057ZM595.216 361.728C595.216 363.344 596.576 364.192 597.968 364.192C599.904 364.192 600.56 362.592 600.56 362.592H600.592C600.592 362.592 600.56 362.864 600.56 363.232V364H602V358.88C602 356.832 600.848 355.712 598.8 355.712C596.944 355.712 595.776 356.672 595.776 356.672L596.416 357.808C596.416 357.808 597.424 357.024 598.672 357.024C599.696 357.024 600.448 357.472 600.448 358.8V358.944H600.096C598.736 358.944 595.216 359.056 595.216 361.728ZM596.784 361.648C596.784 360.192 598.896 360.112 600.064 360.112H600.464V360.368C600.464 361.568 599.616 362.944 598.304 362.944C597.296 362.944 596.784 362.304 596.784 361.648ZM604.325 364H605.877V360.688C605.877 360.192 605.925 359.696 606.069 359.232C606.437 358.032 607.349 357.328 608.341 357.328C608.581 357.328 608.789 357.376 608.789 357.376V355.84C608.789 355.84 608.597 355.808 608.389 355.808C607.141 355.808 606.197 356.736 605.829 357.92H605.797C605.797 357.92 605.829 357.648 605.829 357.312V355.904H604.325V364ZM610.661 361.04C610.661 363.744 612.725 364.064 613.765 364.064C614.085 364.064 614.309 364.032 614.309 364.032V362.656C614.309 362.656 614.165 362.688 613.941 362.688C613.349 362.688 612.213 362.48 612.213 360.864V357.264H614.165V356.016H612.213V353.68H610.709V356.016H609.605V357.264H610.661V361.04ZM616.059 364H617.611V360.208C617.611 359.808 617.643 359.44 617.739 359.12C618.075 357.952 619.067 357.136 620.299 357.136C621.595 357.136 621.835 358.032 621.835 359.168V364H623.387V358.816C623.387 356.752 622.507 355.712 620.603 355.712C618.843 355.712 617.883 356.864 617.563 357.568H617.531C617.531 357.568 617.563 357.296 617.563 356.976V355.904H616.059V364ZM625.14 359.952C625.14 362.352 626.884 364.192 629.428 364.192C631.364 364.192 632.564 363.04 632.564 363.04L631.924 361.904C631.924 361.904 630.916 362.848 629.524 362.848C628.084 362.848 626.82 361.952 626.74 360.176H632.644C632.644 360.176 632.692 359.712 632.692 359.504C632.692 357.408 631.476 355.712 629.188 355.712C626.884 355.712 625.14 357.376 625.14 359.952ZM626.788 359.008C627.012 357.68 627.972 356.944 629.156 356.944C630.196 356.944 631.06 357.616 631.108 359.008H626.788ZM634.575 364H636.127V360.688C636.127 360.192 636.175 359.696 636.319 359.232C636.687 358.032 637.599 357.328 638.591 357.328C638.831 357.328 639.039 357.376 639.039 357.376V355.84C639.039 355.84 638.847 355.808 638.639 355.808C637.391 355.808 636.447 356.736 636.079 357.92H636.047C636.047 357.92 636.079 357.648 636.079 357.312V355.904H634.575V364ZM640.175 355.632H641.327L642.367 352.512H640.863L640.175 355.632ZM643.419 363.008C643.419 363.008 644.507 364.192 646.491 364.192C648.267 364.192 649.419 363.184 649.419 361.84C649.419 359.184 645.259 359.504 645.259 358.048C645.259 357.344 645.915 357.056 646.587 357.056C647.867 357.056 648.587 357.776 648.587 357.776L649.211 356.608C649.211 356.608 648.379 355.712 646.603 355.712C644.987 355.712 643.675 356.544 643.675 358.016C643.675 360.656 647.835 360.352 647.835 361.84C647.835 362.496 647.163 362.848 646.491 362.848C645.083 362.848 644.171 361.904 644.171 361.904L643.419 363.008ZM655.676 364H662.316V362.624H657.26V352.704H655.676V364ZM663.233 359.936C663.233 362.4 665.185 364.192 667.601 364.192C670.017 364.192 671.969 362.4 671.969 359.936C671.969 357.488 670.017 355.712 667.601 355.712C665.185 355.712 663.233 357.488 663.233 359.936ZM664.817 359.936C664.817 358.256 666.081 357.056 667.601 357.056C669.137 357.056 670.385 358.256 670.385 359.936C670.385 361.632 669.137 362.848 667.601 362.848C666.081 362.848 664.817 361.632 664.817 359.936ZM674.529 365.472L674.017 366.688C674.801 367.088 675.809 367.36 676.785 367.36C678.833 367.36 680.865 366.336 680.865 363.664V355.904H679.377V356.656C679.377 356.8 679.393 356.912 679.393 356.912H679.361C679.361 356.912 678.769 355.712 676.817 355.712C674.577 355.712 673.281 357.44 673.281 359.76C673.281 362.096 674.641 363.904 676.897 363.904C678.065 363.904 678.817 363.44 679.297 362.64H679.329C679.329 362.64 679.313 362.896 679.313 363.152V363.744C679.313 365.392 678.161 366.016 676.753 366.016C675.537 366.016 674.529 365.472 674.529 365.472ZM677.201 362.56C675.745 362.56 674.849 361.408 674.849 359.728C674.849 358.08 675.649 357.056 677.057 357.056C678.321 357.056 679.345 357.664 679.345 359.776C679.345 361.888 678.321 362.56 677.201 362.56ZM682.702 359.936C682.702 362.4 684.654 364.192 687.07 364.192C689.486 364.192 691.438 362.4 691.438 359.936C691.438 357.488 689.486 355.712 687.07 355.712C684.654 355.712 682.702 357.488 682.702 359.936ZM684.286 359.936C684.286 358.256 685.55 357.056 687.07 357.056C688.606 357.056 689.854 358.256 689.854 359.936C689.854 361.632 688.606 362.848 687.07 362.848C685.55 362.848 684.286 361.632 684.286 359.936Z" fill="#404040"/>
<rect x="30.9995" y="331" width="163" height="51" fill="white"/>
<path d="M58.7909 358.288C58.7909 361.6 61.1749 364.192 64.5669 364.192C67.3989 364.192 68.9509 362.4 68.9509 362.4L68.103 361.264C68.103 361.264 66.7429 362.736 64.6149 362.736C62.1029 362.736 60.4229 360.688 60.4229 358.272C60.4229 355.872 62.0709 353.952 64.5989 353.952C66.551 353.952 67.8629 355.184 67.8629 355.184L68.6469 354C68.6469 354 67.2549 352.512 64.5349 352.512C61.2549 352.512 58.7909 355.008 58.7909 358.288ZM70.1938 359.936C70.1938 362.4 72.1458 364.192 74.5618 364.192C76.9778 364.192 78.9298 362.4 78.9298 359.936C78.9298 357.488 76.9778 355.712 74.5618 355.712C72.1458 355.712 70.1938 357.488 70.1938 359.936ZM71.7778 359.936C71.7778 358.256 73.0418 357.056 74.5618 357.056C76.0978 357.056 77.3458 358.256 77.3458 359.936C77.3458 361.632 76.0978 362.848 74.5618 362.848C73.0418 362.848 71.7778 361.632 71.7778 359.936ZM80.7702 364H82.3222V360.688C82.3222 360.192 82.3702 359.696 82.5142 359.232C82.8822 358.032 83.7942 357.328 84.7862 357.328C85.0262 357.328 85.2342 357.376 85.2342 357.376V355.84C85.2342 355.84 85.0422 355.808 84.8342 355.808C83.5862 355.808 82.6422 356.736 82.2742 357.92H82.2422C82.2422 357.92 82.2742 357.648 82.2742 357.312V355.904H80.7702V364ZM86.1633 359.952C86.1633 362.352 87.9073 364.192 90.4513 364.192C92.3873 364.192 93.5873 363.04 93.5873 363.04L92.9473 361.904C92.9473 361.904 91.9393 362.848 90.5473 362.848C89.1073 362.848 87.8433 361.952 87.7633 360.176H93.6673C93.6673 360.176 93.7153 359.712 93.7153 359.504C93.7153 357.408 92.4993 355.712 90.2113 355.712C87.9073 355.712 86.1633 357.376 86.1633 359.952ZM87.8113 359.008C88.0353 357.68 88.9953 356.944 90.1793 356.944C91.2193 356.944 92.0833 357.616 92.1313 359.008H87.8113ZM95.5983 367.2H97.1503V363.568C97.1503 363.152 97.1183 362.864 97.1183 362.864H97.1503C97.1503 362.864 97.8543 364.192 99.6303 364.192C101.742 364.192 103.294 362.528 103.294 359.952C103.294 357.44 101.918 355.712 99.7423 355.712C97.7103 355.712 97.0223 357.184 97.0223 357.184H96.9903C96.9903 357.184 97.0223 356.912 97.0223 356.592V355.904H95.5983V367.2ZM97.1023 359.984C97.1023 357.92 98.2223 357.072 99.4383 357.072C100.782 357.072 101.726 358.208 101.726 359.968C101.726 361.808 100.67 362.864 99.3903 362.864C97.9023 362.864 97.1023 361.424 97.1023 359.984ZM105.096 361.792C105.096 363.824 106.392 364.064 107.272 364.064C107.544 364.064 107.784 364.032 107.784 364.032V362.656C107.784 362.656 107.656 362.672 107.512 362.672C107.032 362.672 106.648 362.496 106.648 361.52V352.704H105.096V361.792ZM109.314 361.088C109.314 363.232 110.258 364.192 112.082 364.192C113.666 364.192 114.722 363.136 115.058 362.336H115.09C115.09 362.336 115.058 362.592 115.058 362.928V364H116.562V355.904H115.01V359.696C115.01 361.296 114.034 362.752 112.386 362.752C111.09 362.752 110.866 361.856 110.866 360.736V355.904H109.314V361.088ZM118.333 363.008C118.333 363.008 119.421 364.192 121.405 364.192C123.181 364.192 124.333 363.184 124.333 361.84C124.333 359.184 120.173 359.504 120.173 358.048C120.173 357.344 120.829 357.056 121.501 357.056C122.781 357.056 123.501 357.776 123.501 357.776L124.125 356.608C124.125 356.608 123.293 355.712 121.517 355.712C119.901 355.712 118.589 356.544 118.589 358.016C118.589 360.656 122.749 360.352 122.749 361.84C122.749 362.496 122.077 362.848 121.405 362.848C119.997 362.848 119.085 361.904 119.085 361.904L118.333 363.008ZM130.59 364H137.23V362.624H132.174V352.704H130.59V364ZM138.147 359.936C138.147 362.4 140.099 364.192 142.515 364.192C144.931 364.192 146.883 362.4 146.883 359.936C146.883 357.488 144.931 355.712 142.515 355.712C140.099 355.712 138.147 357.488 138.147 359.936ZM139.731 359.936C139.731 358.256 140.995 357.056 142.515 357.056C144.051 357.056 145.299 358.256 145.299 359.936C145.299 361.632 144.051 362.848 142.515 362.848C140.995 362.848 139.731 361.632 139.731 359.936ZM149.443 365.472L148.931 366.688C149.715 367.088 150.723 367.36 151.699 367.36C153.747 367.36 155.779 366.336 155.779 363.664V355.904H154.291V356.656C154.291 356.8 154.307 356.912 154.307 356.912H154.275C154.275 356.912 153.683 355.712 151.731 355.712C149.491 355.712 148.195 357.44 148.195 359.76C148.195 362.096 149.555 363.904 151.811 363.904C152.979 363.904 153.731 363.44 154.211 362.64H154.243C154.243 362.64 154.227 362.896 154.227 363.152V363.744C154.227 365.392 153.075 366.016 151.667 366.016C150.451 366.016 149.443 365.472 149.443 365.472ZM152.115 362.56C150.659 362.56 149.763 361.408 149.763 359.728C149.763 358.08 150.563 357.056 151.971 357.056C153.235 357.056 154.259 357.664 154.259 359.776C154.259 361.888 153.235 362.56 152.115 362.56ZM157.616 359.936C157.616 362.4 159.568 364.192 161.984 364.192C164.4 364.192 166.352 362.4 166.352 359.936C166.352 357.488 164.4 355.712 161.984 355.712C159.568 355.712 157.616 357.488 157.616 359.936ZM159.2 359.936C159.2 358.256 160.464 357.056 161.984 357.056C163.52 357.056 164.768 358.256 164.768 359.936C164.768 361.632 163.52 362.848 161.984 362.848C160.464 362.848 159.2 361.632 159.2 359.936Z" fill="#404040"/>
<path d="M39.8 141H60.1V136.7H52.4V105.7H48L39.55 113.9L42.55 117L45.85 113.75C47.15 112.5 47.55 111.7 47.55 111.7H47.65C47.65 111.7 47.6 112.8 47.6 113.9V136.7H39.8V141ZM65.2629 141H70.3629V135.85H65.2629V141ZM89.4 123.15C89.4 133.5 96.85 141.6 107.45 141.6C116.3 141.6 121.15 136 121.15 136L118.5 132.45C118.5 132.45 114.25 137.05 107.6 137.05C99.75 137.05 94.5 130.65 94.5 123.1C94.5 115.6 99.65 109.6 107.55 109.6C113.65 109.6 117.75 113.45 117.75 113.45L120.2 109.75C120.2 109.75 115.85 105.1 107.35 105.1C97.1 105.1 89.4 112.9 89.4 123.15ZM125.034 128.3C125.034 136 131.134 141.6 138.684 141.6C146.234 141.6 152.334 136 152.334 128.3C152.334 120.65 146.234 115.1 138.684 115.1C131.134 115.1 125.034 120.65 125.034 128.3ZM129.984 128.3C129.984 123.05 133.934 119.3 138.684 119.3C143.484 119.3 147.384 123.05 147.384 128.3C147.384 133.6 143.484 137.4 138.684 137.4C133.934 137.4 129.984 133.6 129.984 128.3ZM158.085 151H162.935V139.65C162.935 138.35 162.835 137.45 162.835 137.45H162.935C162.935 137.45 165.135 141.6 170.685 141.6C177.285 141.6 182.135 136.4 182.135 128.35C182.135 120.5 177.835 115.1 171.035 115.1C164.685 115.1 162.535 119.7 162.535 119.7H162.435C162.435 119.7 162.535 118.85 162.535 117.85V115.7H158.085V151ZM162.785 128.45C162.785 122 166.285 119.35 170.085 119.35C174.285 119.35 177.235 122.9 177.235 128.4C177.235 134.15 173.935 137.45 169.935 137.45C165.285 137.45 162.785 132.95 162.785 128.45ZM184.516 149.95C184.516 149.95 186.566 151.5 189.416 151.5C192.966 151.5 196.066 149.45 197.616 145.55L209.466 115.7H204.216L198.066 132.3C197.616 133.6 197.216 135.3 197.216 135.3H197.116C197.116 135.3 196.666 133.55 196.166 132.25L189.816 115.7H184.366L194.966 140.7L193.716 143.6C192.766 145.9 191.116 147.3 189.166 147.3C187.616 147.3 186.216 146.25 186.216 146.25L184.516 149.95Z" fill="white"/>
<path d="M439.627 167H441.805L442.553 157.21C442.619 156.264 442.597 154.878 442.597 154.878H442.641C442.641 154.878 443.125 156.374 443.477 157.21L446.557 164.206H448.493L451.595 157.21C451.969 156.352 452.431 154.922 452.431 154.922H452.475C452.475 154.922 452.431 156.264 452.497 157.21L453.267 167H455.423L454.169 151.468H451.881L448.317 159.872C447.965 160.73 447.547 161.962 447.547 161.962H447.503C447.503 161.962 447.085 160.73 446.733 159.872L443.169 151.468H440.881L439.627 167ZM457.826 163.876C457.826 166.098 459.696 167.264 461.61 167.264C464.272 167.264 465.174 165.064 465.174 165.064H465.218C465.218 165.064 465.174 165.438 465.174 165.944V167H467.154V159.96C467.154 157.144 465.57 155.604 462.754 155.604C460.202 155.604 458.596 156.924 458.596 156.924L459.476 158.486C459.476 158.486 460.862 157.408 462.578 157.408C463.986 157.408 465.02 158.024 465.02 159.85V160.048H464.536C462.666 160.048 457.826 160.202 457.826 163.876ZM459.982 163.766C459.982 161.764 462.886 161.654 464.492 161.654H465.042V162.006C465.042 163.656 463.876 165.548 462.072 165.548C460.686 165.548 459.982 164.668 459.982 163.766ZM470.329 153.646H472.485V151.468H470.329V153.646ZM470.351 167H472.485V155.868H470.351V167ZM475.829 167H477.963V161.786C477.963 161.236 478.007 160.73 478.139 160.29C478.601 158.684 479.965 157.562 481.659 157.562C483.441 157.562 483.771 158.794 483.771 160.356V167H485.905V159.872C485.905 157.034 484.695 155.604 482.077 155.604C479.657 155.604 478.337 157.188 477.897 158.156H477.853C477.853 158.156 477.897 157.782 477.897 157.342V155.868H475.829V167ZM494.119 159.146C494.119 163.7 497.397 167.264 502.061 167.264C505.955 167.264 508.089 164.8 508.089 164.8L506.923 163.238C506.923 163.238 505.053 165.262 502.127 165.262C498.673 165.262 496.363 162.446 496.363 159.124C496.363 155.824 498.629 153.184 502.105 153.184C504.789 153.184 506.593 154.878 506.593 154.878L507.671 153.25C507.671 153.25 505.757 151.204 502.017 151.204C497.507 151.204 494.119 154.636 494.119 159.146ZM509.798 161.412C509.798 164.8 512.482 167.264 515.804 167.264C519.126 167.264 521.81 164.8 521.81 161.412C521.81 158.046 519.126 155.604 515.804 155.604C512.482 155.604 509.798 158.046 509.798 161.412ZM511.976 161.412C511.976 159.102 513.714 157.452 515.804 157.452C517.916 157.452 519.632 159.102 519.632 161.412C519.632 163.744 517.916 165.416 515.804 165.416C513.714 165.416 511.976 163.744 511.976 161.412ZM524.341 167H526.475V161.786C526.475 161.236 526.519 160.73 526.651 160.29C527.113 158.684 528.477 157.562 530.171 157.562C531.953 157.562 532.283 158.794 532.283 160.356V167H534.417V159.872C534.417 157.034 533.207 155.604 530.589 155.604C528.169 155.604 526.849 157.188 526.409 158.156H526.365C526.365 158.156 526.409 157.782 526.409 157.342V155.868H524.341V167ZM538.059 162.93C538.059 166.648 540.897 167.088 542.327 167.088C542.767 167.088 543.075 167.044 543.075 167.044V165.152C543.075 165.152 542.877 165.196 542.569 165.196C541.755 165.196 540.193 164.91 540.193 162.688V157.738H542.877V156.022H540.193V152.81H538.125V156.022H536.607V157.738H538.059V162.93ZM544.712 161.434C544.712 164.734 547.11 167.264 550.608 167.264C553.27 167.264 554.92 165.68 554.92 165.68L554.04 164.118C554.04 164.118 552.654 165.416 550.74 165.416C548.76 165.416 547.022 164.184 546.912 161.742H555.03C555.03 161.742 555.096 161.104 555.096 160.818C555.096 157.936 553.424 155.604 550.278 155.604C547.11 155.604 544.712 157.892 544.712 161.434ZM546.978 160.136C547.286 158.31 548.606 157.298 550.234 157.298C551.664 157.298 552.852 158.222 552.918 160.136H546.978ZM557.685 167H559.819V161.786C559.819 161.236 559.863 160.73 559.995 160.29C560.457 158.684 561.821 157.562 563.515 157.562C565.297 157.562 565.627 158.794 565.627 160.356V167H567.761V159.872C567.761 157.034 566.551 155.604 563.933 155.604C561.513 155.604 560.193 157.188 559.753 158.156H559.709C559.709 158.156 559.753 157.782 559.753 157.342V155.868H557.685V167ZM571.403 162.93C571.403 166.648 574.241 167.088 575.671 167.088C576.111 167.088 576.419 167.044 576.419 167.044V165.152C576.419 165.152 576.221 165.196 575.913 165.196C575.099 165.196 573.537 164.91 573.537 162.688V157.738H576.221V156.022H573.537V152.81H571.469V156.022H569.951V157.738H571.403V162.93ZM579.243 158.134H581.487V155.868H579.243V158.134ZM579.243 167H581.487V164.734H579.243V167ZM440.111 197H442.289V181.468H440.111V197ZM445.941 193.964C445.941 196.758 447.723 197.088 448.933 197.088C449.307 197.088 449.637 197.044 449.637 197.044V195.152C449.637 195.152 449.461 195.174 449.263 195.174C448.603 195.174 448.075 194.932 448.075 193.59V181.468H445.941V193.964ZM451.764 193.964C451.764 196.758 453.546 197.088 454.756 197.088C455.13 197.088 455.46 197.044 455.46 197.044V195.152C455.46 195.152 455.284 195.174 455.086 195.174C454.426 195.174 453.898 194.932 453.898 193.59V181.468H451.764V193.964ZM457.564 192.996C457.564 195.944 458.862 197.264 461.37 197.264C463.548 197.264 465 195.812 465.462 194.712H465.506C465.506 194.712 465.462 195.064 465.462 195.526V197H467.53V185.868H465.396V191.082C465.396 193.282 464.054 195.284 461.788 195.284C460.006 195.284 459.698 194.052 459.698 192.512V185.868H457.564V192.996ZM469.964 195.636C469.964 195.636 471.46 197.264 474.188 197.264C476.63 197.264 478.214 195.878 478.214 194.03C478.214 190.378 472.494 190.818 472.494 188.816C472.494 187.848 473.396 187.452 474.32 187.452C476.08 187.452 477.07 188.442 477.07 188.442L477.928 186.836C477.928 186.836 476.784 185.604 474.342 185.604C472.12 185.604 470.316 186.748 470.316 188.772C470.316 192.402 476.036 191.984 476.036 194.03C476.036 194.932 475.112 195.416 474.188 195.416C472.252 195.416 470.998 194.118 470.998 194.118L469.964 195.636ZM481.19 192.93C481.19 196.648 484.028 197.088 485.458 197.088C485.898 197.088 486.206 197.044 486.206 197.044V195.152C486.206 195.152 486.008 195.196 485.7 195.196C484.886 195.196 483.324 194.91 483.324 192.688V187.738H486.008V186.022H483.324V182.81H481.256V186.022H479.738V187.738H481.19V192.93ZM488.612 197H490.746V192.446C490.746 191.764 490.812 191.082 491.01 190.444C491.516 188.794 492.77 187.826 494.134 187.826C494.464 187.826 494.75 187.892 494.75 187.892V185.78C494.75 185.78 494.486 185.736 494.2 185.736C492.484 185.736 491.186 187.012 490.68 188.64H490.636C490.636 188.64 490.68 188.266 490.68 187.804V185.868H488.612V197ZM495.96 193.876C495.96 196.098 497.83 197.264 499.744 197.264C502.406 197.264 503.308 195.064 503.308 195.064H503.352C503.352 195.064 503.308 195.438 503.308 195.944V197H505.288V189.96C505.288 187.144 503.704 185.604 500.888 185.604C498.336 185.604 496.73 186.924 496.73 186.924L497.61 188.486C497.61 188.486 498.996 187.408 500.712 187.408C502.12 187.408 503.154 188.024 503.154 189.85V190.048H502.67C500.8 190.048 495.96 190.202 495.96 193.876ZM498.116 193.766C498.116 191.764 501.02 191.654 502.626 191.654H503.176V192.006C503.176 193.656 502.01 195.548 500.206 195.548C498.82 195.548 498.116 194.668 498.116 193.766ZM508.883 192.93C508.883 196.648 511.721 197.088 513.151 197.088C513.591 197.088 513.899 197.044 513.899 197.044V195.152C513.899 195.152 513.701 195.196 513.393 195.196C512.579 195.196 511.017 194.91 511.017 192.688V187.738H513.701V186.022H511.017V182.81H508.949V186.022H507.431V187.738H508.883V192.93ZM516.284 183.646H518.44V181.468H516.284V183.646ZM516.306 197H518.44V185.868H516.306V197ZM520.97 191.412C520.97 194.8 523.654 197.264 526.976 197.264C530.298 197.264 532.982 194.8 532.982 191.412C532.982 188.046 530.298 185.604 526.976 185.604C523.654 185.604 520.97 188.046 520.97 191.412ZM523.148 191.412C523.148 189.102 524.886 187.452 526.976 187.452C529.088 187.452 530.804 189.102 530.804 191.412C530.804 193.744 529.088 195.416 526.976 195.416C524.886 195.416 523.148 193.744 523.148 191.412ZM535.513 197H537.647V191.786C537.647 191.236 537.691 190.73 537.823 190.29C538.285 188.684 539.649 187.562 541.343 187.562C543.125 187.562 543.455 188.794 543.455 190.356V197H545.589V189.872C545.589 187.034 544.379 185.604 541.761 185.604C539.341 185.604 538.021 187.188 537.581 188.156H537.537C537.537 188.156 537.581 187.782 537.581 187.342V185.868H535.513V197ZM547.889 197.924H549.781L555.369 180.632H553.477L547.889 197.924ZM563.754 197H565.932V181.468H563.754V197ZM569.716 197H571.85V191.918C571.85 191.412 571.872 190.906 571.982 190.466C572.4 188.882 573.544 187.54 575.172 187.54C576.888 187.54 577.108 188.882 577.108 190.334V197H579.242V191.918C579.242 191.346 579.286 190.84 579.396 190.378C579.792 188.86 580.958 187.54 582.52 187.54C584.192 187.54 584.5 188.772 584.5 190.334V197H586.634V189.872C586.634 187.034 585.468 185.604 582.96 185.604C581.156 185.604 579.616 186.792 579 188.134H578.956C578.582 186.462 577.482 185.604 575.612 185.604C573.874 185.604 572.312 186.858 571.784 188.156H571.74C571.74 188.156 571.784 187.782 571.784 187.342V185.868H569.716V197ZM588.923 193.876C588.923 196.098 590.793 197.264 592.707 197.264C595.369 197.264 596.271 195.064 596.271 195.064H596.315C596.315 195.064 596.271 195.438 596.271 195.944V197H598.251V189.96C598.251 187.144 596.667 185.604 593.851 185.604C591.299 185.604 589.693 186.924 589.693 186.924L590.573 188.486C590.573 188.486 591.959 187.408 593.675 187.408C595.083 187.408 596.117 188.024 596.117 189.85V190.048H595.633C593.763 190.048 588.923 190.202 588.923 193.876ZM591.079 193.766C591.079 191.764 593.983 191.654 595.589 191.654H596.139V192.006C596.139 193.656 594.973 195.548 593.169 195.548C591.783 195.548 591.079 194.668 591.079 193.766ZM602.438 199.024L601.734 200.696C602.812 201.246 604.198 201.62 605.54 201.62C608.356 201.62 611.15 200.212 611.15 196.538V185.868H609.104V186.902C609.104 187.1 609.126 187.254 609.126 187.254H609.082C609.082 187.254 608.268 185.604 605.584 185.604C602.504 185.604 600.722 187.98 600.722 191.17C600.722 194.382 602.592 196.868 605.694 196.868C607.3 196.868 608.334 196.23 608.994 195.13H609.038C609.038 195.13 609.016 195.482 609.016 195.834V196.648C609.016 198.914 607.432 199.772 605.496 199.772C603.824 199.772 602.438 199.024 602.438 199.024ZM606.112 195.02C604.11 195.02 602.878 193.436 602.878 191.126C602.878 188.86 603.978 187.452 605.914 187.452C607.652 187.452 609.06 188.288 609.06 191.192C609.06 194.096 607.652 195.02 606.112 195.02ZM613.719 191.434C613.719 194.734 616.117 197.264 619.615 197.264C622.277 197.264 623.927 195.68 623.927 195.68L623.047 194.118C623.047 194.118 621.661 195.416 619.747 195.416C617.767 195.416 616.029 194.184 615.919 191.742H624.037C624.037 191.742 624.103 191.104 624.103 190.818C624.103 187.936 622.431 185.604 619.285 185.604C616.117 185.604 613.719 187.892 613.719 191.434ZM615.985 190.136C616.293 188.31 617.613 187.298 619.241 187.298C620.671 187.298 621.859 188.222 621.925 190.136H615.985ZM625.813 197.924H627.705L633.293 180.632H631.401L625.813 197.924ZM641.677 197H643.855V191.258H647.353C650.191 191.258 652.237 189.278 652.237 186.33C652.237 183.382 650.191 181.468 647.353 181.468H641.677V197ZM643.855 189.366V183.36H647.023C648.871 183.36 650.015 184.46 650.015 186.33C650.015 188.2 648.871 189.366 647.001 189.366H643.855ZM653.699 193.876C653.699 196.098 655.569 197.264 657.483 197.264C660.145 197.264 661.047 195.064 661.047 195.064H661.091C661.091 195.064 661.047 195.438 661.047 195.944V197H663.027V189.96C663.027 187.144 661.443 185.604 658.627 185.604C656.075 185.604 654.469 186.924 654.469 186.924L655.349 188.486C655.349 188.486 656.735 187.408 658.451 187.408C659.859 187.408 660.893 188.024 660.893 189.85V190.048H660.409C658.539 190.048 653.699 190.202 653.699 193.876ZM655.855 193.766C655.855 191.764 658.759 191.654 660.365 191.654H660.915V192.006C660.915 193.656 659.749 195.548 657.945 195.548C656.559 195.548 655.855 194.668 655.855 193.766ZM666.621 192.93C666.621 196.648 669.459 197.088 670.889 197.088C671.329 197.088 671.637 197.044 671.637 197.044V195.152C671.637 195.152 671.439 195.196 671.131 195.196C670.317 195.196 668.755 194.91 668.755 192.688V187.738H671.439V186.022H668.755V182.81H666.687V186.022H665.169V187.738H666.621V192.93ZM674.506 192.93C674.506 196.648 677.344 197.088 678.774 197.088C679.214 197.088 679.522 197.044 679.522 197.044V195.152C679.522 195.152 679.324 195.196 679.016 195.196C678.202 195.196 676.64 194.91 676.64 192.688V187.738H679.324V186.022H676.64V182.81H674.572V186.022H673.054V187.738H674.506V192.93ZM681.159 191.434C681.159 194.734 683.557 197.264 687.055 197.264C689.717 197.264 691.367 195.68 691.367 195.68L690.487 194.118C690.487 194.118 689.101 195.416 687.187 195.416C685.207 195.416 683.469 194.184 683.359 191.742H691.477C691.477 191.742 691.543 191.104 691.543 190.818C691.543 187.936 689.871 185.604 686.725 185.604C683.557 185.604 681.159 187.892 681.159 191.434ZM683.425 190.136C683.733 188.31 685.053 187.298 686.681 187.298C688.111 187.298 689.299 188.222 689.365 190.136H683.425ZM694.132 197H696.266V192.446C696.266 191.764 696.332 191.082 696.53 190.444C697.036 188.794 698.29 187.826 699.654 187.826C699.984 187.826 700.27 187.892 700.27 187.892V185.78C700.27 185.78 700.006 185.736 699.72 185.736C698.004 185.736 696.706 187.012 696.2 188.64H696.156C696.156 188.64 696.2 188.266 696.2 187.804V185.868H694.132V197ZM702.382 197H704.516V191.786C704.516 191.236 704.56 190.73 704.692 190.29C705.154 188.684 706.518 187.562 708.212 187.562C709.994 187.562 710.324 188.794 710.324 190.356V197H712.458V189.872C712.458 187.034 711.248 185.604 708.63 185.604C706.21 185.604 704.89 187.188 704.45 188.156H704.406C704.406 188.156 704.45 187.782 704.45 187.342V185.868H702.382V197Z" fill="white"/>
<path d="M39.304 198H55.108V195.768H41.896C41.932 189.036 54.712 187.848 54.712 179.352C54.712 175.392 51.832 172.26 47.008 172.26C41.644 172.26 39.34 176.832 39.34 176.832L41.212 178.092C41.212 178.092 43.156 174.636 46.864 174.636C50.032 174.636 52.12 176.724 52.12 179.496C52.12 186.336 39.16 187.488 39.16 196.38C39.16 196.884 39.196 197.424 39.304 198ZM60.3795 198H63.2235V195.12H60.3795V198ZM77.718 195.192C77.718 195.192 80.562 198.432 85.746 198.432C90.498 198.432 93.414 195.372 93.414 191.592C93.414 183.276 80.778 185.004 80.778 178.992C80.778 176.76 82.866 174.636 86.106 174.636C89.418 174.636 91.65 176.796 91.65 176.796L92.874 174.708C92.874 174.708 90.498 172.26 86.106 172.26C81.426 172.26 78.222 175.428 78.222 179.064C78.222 186.912 90.858 185.292 90.858 191.664C90.858 194.4 88.59 196.056 85.818 196.056C81.822 196.056 79.194 193.284 79.194 193.284L77.718 195.192ZM97.9891 191.412C97.9891 196.128 99.7891 198.432 104.037 198.432C108.033 198.432 110.409 195.624 111.129 193.86H111.201C111.201 193.86 111.129 194.508 111.129 195.3V198H113.505V179.892H111.057V188.568C111.057 192.492 108.501 196.128 104.361 196.128C100.869 196.128 100.437 193.608 100.437 190.764V179.892H97.9891V191.412ZM119.405 198H121.781V196.38C121.781 195.516 121.709 194.904 121.709 194.904H121.781C121.781 194.904 123.401 198.432 127.721 198.432C132.473 198.432 135.893 194.688 135.893 188.964C135.893 183.348 132.869 179.46 128.009 179.46C123.365 179.46 121.853 182.952 121.853 182.952H121.781C121.781 182.952 121.853 182.304 121.853 181.476V172.692H119.405V198ZM121.781 189C121.781 183.852 124.625 181.692 127.649 181.692C131.033 181.692 133.373 184.536 133.373 188.964C133.373 193.572 130.745 196.272 127.541 196.272C123.653 196.272 121.781 192.636 121.781 189ZM149.3 185.184C149.3 192.564 154.628 198.432 162.116 198.432C168.344 198.432 171.8 194.508 171.8 194.508L170.36 192.744C170.36 192.744 167.264 196.128 162.152 196.128C156.14 196.128 151.892 191.196 151.892 185.148C151.892 179.172 156.14 174.564 162.08 174.564C166.832 174.564 169.784 177.372 169.784 177.372L171.116 175.536C171.116 175.536 168.056 172.26 162.008 172.26C154.772 172.26 149.3 177.84 149.3 185.184ZM175.132 188.856C175.132 194.328 179.416 198.432 184.708 198.432C190 198.432 194.284 194.328 194.284 188.856C194.284 183.492 190 179.46 184.708 179.46C179.416 179.46 175.132 183.492 175.132 188.856ZM177.652 188.856C177.652 184.752 180.82 181.692 184.708 181.692C188.596 181.692 191.764 184.752 191.764 188.856C191.764 193.068 188.596 196.236 184.708 196.236C180.82 196.236 177.652 193.068 177.652 188.856ZM198.858 205.2H201.306V196.56C201.306 195.624 201.234 194.976 201.234 194.976H201.306C201.306 194.976 202.89 198.432 207.246 198.432C211.926 198.432 215.346 194.688 215.346 188.964C215.346 183.348 212.322 179.46 207.462 179.46C202.674 179.46 201.198 183.06 201.198 183.06H201.126C201.126 183.06 201.198 182.448 201.198 181.656V179.892H198.858V205.2ZM201.234 189C201.234 183.852 204.078 181.692 207.102 181.692C210.486 181.692 212.826 184.536 212.826 188.964C212.826 193.572 210.198 196.272 206.994 196.272C203.25 196.272 201.234 192.636 201.234 189ZM217.357 204.48C217.357 204.48 218.653 205.56 220.525 205.56C222.937 205.56 224.809 204.084 225.745 201.78L234.673 179.892H232.009L226.789 193.104C226.429 194.004 226.177 195.012 226.177 195.012H226.105C226.105 195.012 225.817 194.004 225.457 193.104L220.129 179.892H217.429L224.989 197.856L223.873 200.412C223.153 202.068 222.037 203.364 220.453 203.364C219.301 203.364 218.293 202.536 218.293 202.536L217.357 204.48Z" fill="white"/>
<path d="M37.98 245.3C37.98 245.3 39.68 247.24 42.34 247.24C44.76 247.24 46.78 245.36 46.78 242.96C46.78 239.66 43.84 238.82 42.16 238.82L46.68 233.6V233H38.66V233.8H44.4C45.1 233.8 45.48 233.76 45.48 233.76V233.8C45.48 233.8 45.16 234.08 44.86 234.44L40.94 239.02L41.18 239.62H42.14C44.04 239.62 45.88 240.78 45.88 242.96C45.88 245.02 44.16 246.4 42.38 246.4C40.08 246.4 38.62 244.66 38.62 244.66L37.98 245.3ZM49.5217 247H50.7417V245.74H49.5217V247ZM60.2147 247H64.6147C68.7747 247 71.5947 244.46 71.5947 240C71.5947 235.56 68.7747 233 64.6147 233H60.2147V247ZM61.0747 246.2V233.8H64.4747C68.1947 233.8 70.6947 236 70.6947 240C70.6947 244.02 68.1947 246.2 64.4747 246.2H61.0747ZM74.5589 234.46H75.5589V233H74.5589V234.46ZM74.6389 247H75.4789V237H74.6389V247ZM78.1344 245.8C78.1344 245.8 79.3344 247.24 81.7544 247.24C83.5944 247.24 84.9544 246.14 84.9544 244.54C84.9544 241.22 79.4544 242 79.4544 239.4C79.4544 238.1 80.5744 237.58 81.7144 237.58C83.4144 237.58 84.2344 238.52 84.2344 238.52L84.7344 237.84C84.7344 237.84 83.8144 236.76 81.7744 236.76C80.0744 236.76 78.5744 237.68 78.5744 239.46C78.5744 242.72 84.0744 242 84.0744 244.54C84.0744 245.78 82.9944 246.42 81.7744 246.42C79.7944 246.42 78.6744 245.16 78.6744 245.16L78.1344 245.8ZM87.0053 242.02C87.0053 245.2 89.3453 247.24 92.1653 247.24C94.6453 247.24 95.9453 245.68 95.9453 245.68L95.5053 244.98C95.5053 244.98 94.3653 246.42 92.1653 246.42C89.8253 246.42 87.8853 244.68 87.8853 242.02C87.8853 239.32 89.8253 237.58 92.1653 237.58C94.0853 237.58 95.2253 238.86 95.2253 238.86L95.7453 238.18C95.7453 238.18 94.5453 236.76 92.1653 236.76C89.3853 236.76 87.0053 238.84 87.0053 242.02ZM98.6209 244.98C98.6209 246.86 100.001 247.08 100.581 247.08C100.761 247.08 100.941 247.04 100.941 247.04V246.26C100.941 246.26 100.801 246.28 100.641 246.28C100.181 246.28 99.4609 246.12 99.4609 244.72V233H98.6209V244.98ZM102.51 244.34C102.51 246.34 104.29 247.24 105.91 247.24C108.51 247.24 109.43 244.78 109.41 244.78H109.45C109.45 244.78 109.37 245.14 109.37 245.68V247H110.21V240.54C110.21 238.04 108.97 236.76 106.67 236.76C104.49 236.76 103.29 237.86 103.29 237.86L103.77 238.54C103.77 238.54 104.89 237.58 106.63 237.58C108.23 237.58 109.37 238.34 109.37 240.56V240.9H108.71C106.93 240.9 102.51 240.94 102.51 244.34ZM103.39 244.28C103.39 241.68 107.03 241.68 108.73 241.68H109.37V242.22C109.37 244.2 108.13 246.46 105.95 246.46C104.25 246.46 103.39 245.34 103.39 244.28ZM113.504 234.46H114.504V233H113.504V234.46ZM113.584 247H114.424V237H113.584V247ZM117.94 247H118.78V242.12C118.78 241.64 118.82 241.18 118.94 240.76C119.4 239.1 120.8 237.54 122.58 237.54C124.78 237.54 125.02 239.24 125.02 240.96V247H125.86V242.12C125.86 241.54 125.92 241.04 126.06 240.58C126.5 239.02 127.92 237.54 129.58 237.54C131.7 237.54 132.08 239.08 132.08 240.96V247H132.92V240.66C132.92 238.28 132.16 236.76 129.58 236.76C127.86 236.76 126.34 238.08 125.78 239.48H125.74C125.52 237.7 124.58 236.76 122.58 236.76C121.02 236.76 119.24 238.08 118.74 239.58H118.7C118.7 239.58 118.78 239.22 118.78 238.76V237H117.94V247ZM135.599 242.02C135.599 245.2 137.939 247.24 140.759 247.24C142.919 247.24 144.319 245.86 144.319 245.86L143.859 245.16C143.859 245.16 142.679 246.42 140.759 246.42C138.439 246.42 136.479 244.76 136.479 241.86H144.499C144.499 241.86 144.539 241.54 144.539 241.32C144.539 238.9 143.179 236.76 140.459 236.76C137.899 236.76 135.599 238.64 135.599 242.02ZM136.539 241.08C136.899 238.74 138.599 237.54 140.439 237.54C142.099 237.54 143.559 238.64 143.659 241.08H136.539ZM147.354 247H148.194V242.68C148.194 242.02 148.274 241.28 148.494 240.58C148.934 239.1 149.914 237.78 151.474 237.78C151.694 237.78 151.934 237.82 151.934 237.82V236.98C151.934 236.98 151.654 236.92 151.354 236.92C149.774 236.92 148.654 238.18 148.154 239.72H148.114C148.114 239.72 148.194 239.36 148.194 238.9V237H147.354V247Z" fill="white"/>
<path d="M331.671 30.796C331.671 30.796 332.665 32.168 334.695 32.168C336.697 32.168 338.195 30.74 338.195 28.836C338.195 27.058 336.837 25.616 334.751 25.616C334.023 25.616 333.477 25.924 333.477 25.924H333.449C333.449 25.924 333.505 25.7 333.519 25.406L333.757 23.32H337.537V22.116H332.553L332.063 27.016L332.861 27.31C332.861 27.31 333.561 26.82 334.527 26.82C335.801 26.82 336.781 27.66 336.781 28.85C336.781 30.054 335.773 30.852 334.611 30.852C333.211 30.852 332.441 29.788 332.441 29.788L331.671 30.796ZM343.256 32.168C345.902 32.168 346.756 29.9 346.756 27.044C346.756 24.202 345.902 21.948 343.256 21.948C340.624 21.948 339.77 24.202 339.77 27.044C339.77 29.9 340.624 32.168 343.256 32.168ZM343.256 30.894C341.646 30.894 341.184 29.2 341.184 27.044C341.184 24.902 341.646 23.222 343.256 23.222C344.88 23.222 345.342 24.902 345.342 27.044C345.342 29.2 344.88 30.894 343.256 30.894ZM348.702 34.8H350.06V31.622C350.06 31.258 350.032 31.006 350.032 31.006H350.06C350.06 31.006 350.676 32.168 352.23 32.168C354.078 32.168 355.436 30.712 355.436 28.458C355.436 26.26 354.232 24.748 352.328 24.748C350.55 24.748 349.948 26.036 349.948 26.036H349.92C349.92 26.036 349.948 25.798 349.948 25.518V24.916H348.702V34.8ZM350.018 28.486C350.018 26.68 350.998 25.938 352.062 25.938C353.238 25.938 354.064 26.932 354.064 28.472C354.064 30.082 353.14 31.006 352.02 31.006C350.718 31.006 350.018 29.746 350.018 28.486ZM359.548 29.242C359.548 29.242 359.66 29.466 359.758 29.634L361.242 32H362.782L360.374 28.36L362.656 24.916H361.102L359.786 27.072C359.674 27.254 359.548 27.492 359.548 27.492H359.52C359.52 27.492 359.394 27.254 359.282 27.072L357.966 24.916H356.412L358.694 28.36L356.286 32H357.826L359.31 29.634C359.408 29.466 359.52 29.242 359.52 29.242H359.548ZM368.027 32H369.413V28.346H371.639C373.445 28.346 374.747 27.086 374.747 25.21C374.747 23.334 373.445 22.116 371.639 22.116H368.027V32ZM369.413 27.142V23.32H371.429C372.605 23.32 373.333 24.02 373.333 25.21C373.333 26.4 372.605 27.142 371.415 27.142H369.413ZM375.677 30.012C375.677 31.426 376.867 32.168 378.085 32.168C379.779 32.168 380.353 30.768 380.353 30.768H380.381C380.381 30.768 380.353 31.006 380.353 31.328V32H381.613V27.52C381.613 25.728 380.605 24.748 378.813 24.748C377.189 24.748 376.167 25.588 376.167 25.588L376.727 26.582C376.727 26.582 377.609 25.896 378.701 25.896C379.597 25.896 380.255 26.288 380.255 27.45V27.576H379.947C378.757 27.576 375.677 27.674 375.677 30.012ZM377.049 29.942C377.049 28.668 378.897 28.598 379.919 28.598H380.269V28.822C380.269 29.872 379.527 31.076 378.379 31.076C377.497 31.076 377.049 30.516 377.049 29.942ZM383.185 28.458C383.185 30.656 384.389 32.168 386.307 32.168C388.057 32.168 388.631 30.852 388.631 30.852H388.659C388.659 30.852 388.645 31.048 388.645 31.328V32H389.933V22.116H388.575V25.392C388.575 25.658 388.603 25.868 388.603 25.868H388.575C388.575 25.868 388.029 24.748 386.391 24.748C384.515 24.748 383.185 26.204 383.185 28.458ZM384.571 28.458C384.571 26.848 385.495 25.924 386.615 25.924C387.959 25.924 388.617 27.184 388.617 28.444C388.617 30.25 387.623 30.992 386.573 30.992C385.397 30.992 384.571 29.998 384.571 28.458ZM391.593 28.458C391.593 30.656 392.797 32.168 394.715 32.168C396.465 32.168 397.039 30.852 397.039 30.852H397.067C397.067 30.852 397.053 31.048 397.053 31.328V32H398.341V22.116H396.983V25.392C396.983 25.658 397.011 25.868 397.011 25.868H396.983C396.983 25.868 396.437 24.748 394.799 24.748C392.923 24.748 391.593 26.204 391.593 28.458ZM392.979 28.458C392.979 26.848 393.903 25.924 395.023 25.924C396.367 25.924 397.025 27.184 397.025 28.444C397.025 30.25 396.031 30.992 394.981 30.992C393.805 30.992 392.979 29.998 392.979 28.458ZM400.449 23.502H401.821V22.116H400.449V23.502ZM400.463 32H401.821V24.916H400.463V32ZM403.95 32H405.308V28.682C405.308 28.332 405.336 28.01 405.42 27.73C405.714 26.708 406.582 25.994 407.66 25.994C408.794 25.994 409.004 26.778 409.004 27.772V32H410.362V27.464C410.362 25.658 409.592 24.748 407.926 24.748C406.386 24.748 405.546 25.756 405.266 26.372H405.238C405.238 26.372 405.266 26.134 405.266 25.854V24.916H403.95V32ZM413.015 33.288L412.567 34.352C413.253 34.702 414.135 34.94 414.989 34.94C416.781 34.94 418.559 34.044 418.559 31.706V24.916H417.257V25.574C417.257 25.7 417.271 25.798 417.271 25.798H417.243C417.243 25.798 416.725 24.748 415.017 24.748C413.057 24.748 411.923 26.26 411.923 28.29C411.923 30.334 413.113 31.916 415.087 31.916C416.109 31.916 416.767 31.51 417.187 30.81H417.215C417.215 30.81 417.201 31.034 417.201 31.258V31.776C417.201 33.218 416.193 33.764 414.961 33.764C413.897 33.764 413.015 33.288 413.015 33.288ZM415.353 30.74C414.079 30.74 413.295 29.732 413.295 28.262C413.295 26.82 413.995 25.924 415.227 25.924C416.333 25.924 417.229 26.456 417.229 28.304C417.229 30.152 416.333 30.74 415.353 30.74Z" fill="white"/>
<path d="M737.796 198.328C737.796 198.328 739.168 197.334 739.168 195.304C739.168 193.302 737.74 191.804 735.836 191.804C734.058 191.804 732.616 193.162 732.616 195.248C732.616 195.976 732.924 196.522 732.924 196.522L732.924 196.55C732.924 196.55 732.7 196.494 732.406 196.48L730.32 196.242L730.32 192.462L729.116 192.462L729.116 197.446L734.016 197.936L734.31 197.138C734.31 197.138 733.82 196.438 733.82 195.472C733.82 194.198 734.66 193.218 735.85 193.218C737.054 193.218 737.852 194.226 737.852 195.388C737.852 196.788 736.788 197.558 736.788 197.558L737.796 198.328ZM739.168 186.743C739.168 184.097 736.9 183.243 734.044 183.243C731.202 183.243 728.948 184.097 728.948 186.743C728.948 189.375 731.202 190.229 734.044 190.229C736.9 190.229 739.168 189.375 739.168 186.743ZM737.894 186.743C737.894 188.353 736.2 188.815 734.044 188.815C731.902 188.815 730.222 188.353 730.222 186.743C730.222 185.119 731.902 184.657 734.044 184.657C736.2 184.657 737.894 185.119 737.894 186.743ZM741.8 181.297L741.8 179.939L738.622 179.939C738.258 179.939 738.006 179.967 738.006 179.967L738.006 179.939C738.006 179.939 739.168 179.323 739.168 177.769C739.168 175.921 737.712 174.563 735.458 174.563C733.26 174.563 731.748 175.767 731.748 177.671C731.748 179.449 733.036 180.051 733.036 180.051L733.036 180.079C733.036 180.079 732.798 180.051 732.518 180.051L731.916 180.051L731.916 181.297L741.8 181.297ZM735.486 179.981C733.68 179.981 732.938 179.001 732.938 177.937C732.938 176.761 733.932 175.935 735.472 175.935C737.082 175.935 738.006 176.859 738.006 177.979C738.006 179.281 736.746 179.981 735.486 179.981ZM736.242 170.451C736.242 170.451 736.466 170.339 736.634 170.241L739 168.757L739 167.217L735.36 169.625L731.916 167.343L731.916 168.897L734.072 170.213C734.254 170.325 734.492 170.451 734.492 170.451L734.492 170.479C734.492 170.479 734.254 170.605 734.072 170.717L731.916 172.033L731.916 173.587L735.36 171.305L739 173.713L739 172.173L736.634 170.689C736.466 170.591 736.242 170.479 736.242 170.479L736.242 170.451ZM739 161.972L739 160.586L735.346 160.586L735.346 158.36C735.346 156.554 734.086 155.252 732.21 155.252C730.334 155.252 729.116 156.554 729.116 158.36L729.116 161.972L739 161.972ZM734.142 160.586L730.32 160.586L730.32 158.57C730.32 157.394 731.02 156.666 732.21 156.666C733.4 156.666 734.142 157.394 734.142 158.584L734.142 160.586ZM737.012 154.323C738.426 154.323 739.168 153.133 739.168 151.915C739.168 150.221 737.768 149.646 737.768 149.646L737.768 149.618C737.768 149.618 738.006 149.646 738.328 149.646L739 149.646L739 148.386L734.52 148.386C732.728 148.386 731.748 149.394 731.748 151.187C731.748 152.811 732.588 153.833 732.588 153.833L733.582 153.273C733.582 153.273 732.896 152.391 732.896 151.298C732.896 150.402 733.288 149.744 734.45 149.744L734.576 149.744L734.576 150.053C734.576 151.242 734.674 154.323 737.012 154.323ZM736.942 152.951C735.668 152.951 735.598 151.102 735.598 150.08L735.598 149.731L735.822 149.731C736.872 149.731 738.076 150.473 738.076 151.621C738.076 152.503 737.516 152.951 736.942 152.951ZM735.458 146.814C737.656 146.814 739.168 145.61 739.168 143.692C739.168 141.942 737.852 141.368 737.852 141.368L737.852 141.34C737.852 141.34 738.048 141.354 738.328 141.354L739 141.354L739 140.066L729.116 140.066L729.116 141.424L732.392 141.424C732.658 141.424 732.868 141.396 732.868 141.396L732.868 141.424C732.868 141.424 731.748 141.97 731.748 143.608C731.748 145.484 733.204 146.814 735.458 146.814ZM735.458 145.428C733.848 145.428 732.924 144.504 732.924 143.384C732.924 142.04 734.184 141.382 735.444 141.382C737.25 141.382 737.992 142.376 737.992 143.426C737.992 144.602 736.998 145.428 735.458 145.428ZM735.458 138.406C737.656 138.406 739.168 137.202 739.168 135.284C739.168 133.534 737.852 132.96 737.852 132.96L737.852 132.932C737.852 132.932 738.048 132.946 738.328 132.946L739 132.946L739 131.658L729.116 131.658L729.116 133.016L732.392 133.016C732.658 133.016 732.868 132.988 732.868 132.988L732.868 133.016C732.868 133.016 731.748 133.562 731.748 135.2C731.748 137.076 733.204 138.406 735.458 138.406ZM735.458 137.02C733.848 137.02 732.924 136.096 732.924 134.976C732.924 133.632 734.184 132.974 735.444 132.974C737.25 132.974 737.992 133.968 737.992 135.018C737.992 136.194 736.998 137.02 735.458 137.02ZM730.502 129.55L730.502 128.178L729.116 128.178L729.116 129.55L730.502 129.55ZM739 129.536L739 128.178L731.916 128.178L731.916 129.536L739 129.536ZM739 126.049L739 124.691L735.682 124.691C735.332 124.691 735.01 124.663 734.73 124.579C733.708 124.285 732.994 123.417 732.994 122.339C732.994 121.205 733.778 120.995 734.772 120.995L739 120.995L739 119.637L734.464 119.637C732.658 119.637 731.748 120.407 731.748 122.073C731.748 123.613 732.756 124.453 733.372 124.733L733.372 124.761C733.372 124.761 733.134 124.733 732.854 124.733L731.916 124.733L731.916 126.049L739 126.049ZM740.288 116.984L741.352 117.432C741.702 116.746 741.94 115.864 741.94 115.01C741.94 113.218 741.044 111.44 738.706 111.44L731.916 111.44L731.916 112.742L732.574 112.742C732.7 112.742 732.798 112.728 732.798 112.728L732.798 112.756C732.798 112.756 731.748 113.274 731.748 114.982C731.748 116.942 733.26 118.076 735.29 118.076C737.334 118.076 738.916 116.886 738.916 114.912C738.916 113.89 738.51 113.232 737.81 112.812L737.81 112.784C737.81 112.784 738.034 112.798 738.258 112.798L738.776 112.798C740.218 112.798 740.764 113.806 740.764 115.038C740.764 116.102 740.288 116.984 740.288 116.984ZM737.74 114.646C737.74 115.92 736.732 116.704 735.262 116.704C733.82 116.704 732.924 116.004 732.924 114.772C732.924 113.666 733.456 112.77 735.304 112.77C737.152 112.77 737.74 113.666 737.74 114.646Z" fill="white"/>
<path d="M18.796 198.328C18.796 198.328 20.168 197.334 20.168 195.304C20.168 193.302 18.74 191.804 16.836 191.804C15.058 191.804 13.616 193.162 13.616 195.248C13.616 195.976 13.924 196.522 13.924 196.522L13.924 196.55C13.924 196.55 13.7 196.494 13.406 196.48L11.32 196.242L11.32 192.462L10.116 192.462L10.116 197.446L15.016 197.936L15.31 197.138C15.31 197.138 14.82 196.438 14.82 195.472C14.82 194.198 15.66 193.218 16.85 193.218C18.054 193.218 18.852 194.226 18.852 195.388C18.852 196.788 17.788 197.558 17.788 197.558L18.796 198.328ZM20.168 186.743C20.168 184.097 17.9 183.243 15.044 183.243C12.202 183.243 9.948 184.097 9.948 186.743C9.948 189.375 12.202 190.229 15.044 190.229C17.9 190.229 20.168 189.375 20.168 186.743ZM18.894 186.743C18.894 188.353 17.2 188.815 15.044 188.815C12.902 188.815 11.222 188.353 11.222 186.743C11.222 185.119 12.902 184.657 15.044 184.657C17.2 184.657 18.894 185.119 18.894 186.743ZM22.8 181.297L22.8 179.939L19.622 179.939C19.258 179.939 19.006 179.967 19.006 179.967L19.006 179.939C19.006 179.939 20.168 179.323 20.168 177.769C20.168 175.921 18.712 174.563 16.458 174.563C14.26 174.563 12.748 175.767 12.748 177.671C12.748 179.449 14.036 180.051 14.036 180.051L14.036 180.079C14.036 180.079 13.798 180.051 13.518 180.051L12.916 180.051L12.916 181.297L22.8 181.297ZM16.486 179.981C14.68 179.981 13.938 179.001 13.938 177.937C13.938 176.761 14.932 175.935 16.472 175.935C18.082 175.935 19.006 176.859 19.006 177.979C19.006 179.281 17.746 179.981 16.486 179.981ZM17.242 170.451C17.242 170.451 17.466 170.339 17.634 170.241L20 168.757L20 167.217L16.36 169.625L12.916 167.343L12.916 168.897L15.072 170.213C15.254 170.325 15.492 170.451 15.492 170.451L15.492 170.479C15.492 170.479 15.254 170.605 15.072 170.717L12.916 172.033L12.916 173.587L16.36 171.305L20 173.713L20 172.173L17.634 170.689C17.466 170.591 17.242 170.479 17.242 170.479L17.242 170.451ZM20 161.972L20 160.586L16.346 160.586L16.346 158.36C16.346 156.554 15.086 155.252 13.21 155.252C11.334 155.252 10.116 156.554 10.116 158.36L10.116 161.972L20 161.972ZM15.142 160.586L11.32 160.586L11.32 158.57C11.32 157.394 12.02 156.666 13.21 156.666C14.4 156.666 15.142 157.394 15.142 158.584L15.142 160.586ZM18.012 154.323C19.426 154.323 20.168 153.133 20.168 151.915C20.168 150.221 18.768 149.646 18.768 149.646L18.768 149.618C18.768 149.618 19.006 149.646 19.328 149.646L20 149.646L20 148.386L15.52 148.386C13.728 148.386 12.748 149.394 12.748 151.187C12.748 152.811 13.588 153.833 13.588 153.833L14.582 153.273C14.582 153.273 13.896 152.391 13.896 151.298C13.896 150.402 14.288 149.744 15.45 149.744L15.576 149.744L15.576 150.053C15.576 151.242 15.674 154.323 18.012 154.323ZM17.942 152.951C16.668 152.951 16.598 151.102 16.598 150.08L16.598 149.731L16.822 149.731C17.872 149.731 19.076 150.473 19.076 151.621C19.076 152.503 18.516 152.951 17.942 152.951ZM16.458 146.814C18.656 146.814 20.168 145.61 20.168 143.692C20.168 141.942 18.852 141.368 18.852 141.368L18.852 141.34C18.852 141.34 19.048 141.354 19.328 141.354L20 141.354L20 140.066L10.116 140.066L10.116 141.424L13.392 141.424C13.658 141.424 13.868 141.396 13.868 141.396L13.868 141.424C13.868 141.424 12.748 141.97 12.748 143.608C12.748 145.484 14.204 146.814 16.458 146.814ZM16.458 145.428C14.848 145.428 13.924 144.504 13.924 143.384C13.924 142.04 15.184 141.382 16.444 141.382C18.25 141.382 18.992 142.376 18.992 143.426C18.992 144.602 17.998 145.428 16.458 145.428ZM16.458 138.406C18.656 138.406 20.168 137.202 20.168 135.284C20.168 133.534 18.852 132.96 18.852 132.96L18.852 132.932C18.852 132.932 19.048 132.946 19.328 132.946L20 132.946L20 131.658L10.116 131.658L10.116 133.016L13.392 133.016C13.658 133.016 13.868 132.988 13.868 132.988L13.868 133.016C13.868 133.016 12.748 133.562 12.748 135.2C12.748 137.076 14.204 138.406 16.458 138.406ZM16.458 137.02C14.848 137.02 13.924 136.096 13.924 134.976C13.924 133.632 15.184 132.974 16.444 132.974C18.25 132.974 18.992 133.968 18.992 135.018C18.992 136.194 17.998 137.02 16.458 137.02ZM11.502 129.55L11.502 128.178L10.116 128.178L10.116 129.55L11.502 129.55ZM20 129.536L20 128.178L12.916 128.178L12.916 129.536L20 129.536ZM20 126.049L20 124.691L16.682 124.691C16.332 124.691 16.01 124.663 15.73 124.579C14.708 124.285 13.994 123.417 13.994 122.339C13.994 121.205 14.778 120.995 15.772 120.995L20 120.995L20 119.637L15.464 119.637C13.658 119.637 12.748 120.407 12.748 122.073C12.748 123.613 13.756 124.453 14.372 124.733L14.372 124.761C14.372 124.761 14.134 124.733 13.854 124.733L12.916 124.733L12.916 126.049L20 126.049ZM21.288 116.984L22.352 117.432C22.702 116.746 22.94 115.864 22.94 115.01C22.94 113.218 22.044 111.44 19.706 111.44L12.916 111.44L12.916 112.742L13.574 112.742C13.7 112.742 13.798 112.728 13.798 112.728L13.798 112.756C13.798 112.756 12.748 113.274 12.748 114.982C12.748 116.942 14.26 118.076 16.29 118.076C18.334 118.076 19.916 116.886 19.916 114.912C19.916 113.89 19.51 113.232 18.81 112.812L18.81 112.784C18.81 112.784 19.034 112.798 19.258 112.798L19.776 112.798C21.218 112.798 21.764 113.806 21.764 115.038C21.764 116.102 21.288 116.984 21.288 116.984ZM18.74 114.646C18.74 115.92 17.732 116.704 16.262 116.704C14.82 116.704 13.924 116.004 13.924 114.772C13.924 113.666 14.456 112.77 16.304 112.77C18.152 112.77 18.74 113.666 18.74 114.646Z" fill="white"/>
<line x1="376.5" y1="11.8633" x2="376.5" y2="43.1549" stroke="white" stroke-dasharray="6.26 6.26"/>
<line x1="751" y1="209.501" x2="719.708" y2="209.501" stroke="white" stroke-dasharray="6.26 6.26"/>
<line x1="31.291" y1="209.501" x2="-0.000639006" y2="209.501" stroke="white" stroke-dasharray="6.26 6.26"/>
<path fill-rule="evenodd" clip-rule="evenodd" d="M759 4L5 4V2L759 2V4Z" fill="#737373"/>
<path fill-rule="evenodd" clip-rule="evenodd" d="M760 3L760 406L758 406L758 3L760 3Z" fill="#737373"/>
<path fill-rule="evenodd" clip-rule="evenodd" d="M6 3C6 1.34315 4.65685 0 3 0C1.34315 0 0 1.34315 0 3C0 4.65685 1.34315 6 3 6C4.65685 6 6 4.65685 6 3Z" fill="#F98731"/>
<path fill-rule="evenodd" clip-rule="evenodd" d="M762 3C762 1.34315 760.657 0 759 0C757.343 0 756 1.34315 756 3C756 4.65685 757.343 6 759 6C760.657 6 762 4.65685 762 3Z" fill="#F98731"/>
<path fill-rule="evenodd" clip-rule="evenodd" d="M762 403C762 401.343 760.657 400 759 400C757.343 400 756 401.343 756 403C756 404.657 757.343 406 759 406C760.657 406 762 404.657 762 403Z" fill="#F98731"/>
<path fill-rule="evenodd" clip-rule="evenodd" d="M759 41L789 41L789 43L759 43L759 41Z" fill="#737373"/>
<path fill-rule="evenodd" clip-rule="evenodd" d="M779 42.5C779 49.4036 784.596 55 791.5 55C798.404 55 804 49.4036 804 42.5C804 35.5964 798.404 30 791.5 30C784.596 30 779 35.5964 779 42.5Z" fill="#F98731"/>
<path d="M787.982 48H794.478V46.624H792.014V36.704H790.606L787.902 39.328L788.862 40.32L789.918 39.28C790.334 38.88 790.462 38.624 790.462 38.624H790.494C790.494 38.624 790.478 38.976 790.478 39.328V46.624H787.982V48Z" fill="white"/>
<path fill-rule="evenodd" clip-rule="evenodd" d="M246 187L276 187L276 189L246 189L246 187Z" fill="white"/>
<path fill-rule="evenodd" clip-rule="evenodd" d="M266 188.5C266 195.404 271.596 201 278.5 201C285.404 201 291 195.404 291 188.5C291 181.596 285.404 176 278.5 176C271.596 176 266 181.596 266 188.5Z" fill="#F98731"/>
<path d="M274.101 192.656C274.101 192.656 275.461 194.192 277.765 194.192C280.085 194.192 281.605 192.496 281.605 190.56C281.605 188.368 279.781 187.408 278.293 187.248L281.365 183.712V182.704H274.613V184.08H278.437C279.061 184.08 279.397 184.032 279.397 184.032V184.064C279.397 184.064 279.061 184.368 278.693 184.8L276.229 187.696L276.597 188.544H277.381C278.773 188.544 280.005 189.232 280.005 190.624C280.005 191.84 278.965 192.688 277.701 192.688C276.069 192.688 274.965 191.456 274.965 191.456L274.101 192.656Z" fill="white"/>
<path fill-rule="evenodd" clip-rule="evenodd" d="M517 355L547 355L547 357L517 357L517 355Z" fill="white"/>
<path fill-rule="evenodd" clip-rule="evenodd" d="M502 356.5C502 363.404 507.596 369 514.5 369C521.404 369 527 363.404 527 356.5C527 349.596 521.404 344 514.5 344C507.596 344 502 349.596 502 356.5Z" fill="#F98731"/>
<path d="M510.26 360.624C510.26 360.624 511.396 362.192 513.716 362.192C516.004 362.192 517.716 360.56 517.716 358.384C517.716 356.352 516.164 354.704 513.78 354.704C512.948 354.704 512.324 355.056 512.324 355.056H512.292C512.292 355.056 512.356 354.8 512.372 354.464L512.644 352.08H516.964V350.704H511.268L510.708 356.304L511.62 356.64C511.62 356.64 512.42 356.08 513.524 356.08C514.98 356.08 516.1 357.04 516.1 358.4C516.1 359.776 514.948 360.688 513.62 360.688C512.02 360.688 511.14 359.472 511.14 359.472L510.26 360.624Z" fill="white"/>
<path fill-rule="evenodd" clip-rule="evenodd" d="M220 128L250 128L250 130L220 130L220 128Z" fill="white"/>
<path fill-rule="evenodd" clip-rule="evenodd" d="M240 129.5C240 136.404 245.596 142 252.5 142C259.404 142 265 136.404 265 129.5C265 122.596 259.404 117 252.5 117C245.596 117 240 122.596 240 129.5Z" fill="#F98731"/>
<path d="M248.382 135H255.662V133.624H250.062C250.094 131.048 255.486 130.472 255.486 126.76C255.486 124.808 253.998 123.512 251.918 123.512C249.374 123.512 248.35 125.656 248.35 125.656L249.518 126.44C249.518 126.44 250.318 125 251.806 125C252.99 125 253.838 125.752 253.838 126.872C253.838 129.528 248.302 130.104 248.302 134.136C248.302 134.408 248.334 134.696 248.382 135Z" fill="white"/>
<path fill-rule="evenodd" clip-rule="evenodd" d="M163 242L193 242L193 244L163 244L163 242Z" fill="white"/>
<path fill-rule="evenodd" clip-rule="evenodd" d="M183 243.5C183 250.404 188.596 256 195.5 256C202.404 256 208 250.404 208 243.5C208 236.596 202.404 231 195.5 231C188.596 231 183 236.596 183 243.5Z" fill="#F98731"/>
<path d="M190.644 245.976H196.116V249H197.668V245.976H199.204V244.632H197.668V237.704H195.86L190.644 244.984V245.976ZM192.388 244.632V244.6L195.588 240.328C195.892 239.928 196.148 239.4 196.148 239.4H196.18C196.18 239.4 196.116 239.992 196.116 240.52V244.632H192.388Z" fill="white"/>
</svg>
