<svg width="752" height="227" viewBox="0 0 752 227" fill="none" xmlns="http://www.w3.org/2000/svg">
<g clip-path="url(#clip0_2877_1124)">
<path d="M198.76 74.0817H126.508L167.906 145.756L198.76 74.0817Z" fill="url(#paint0_linear_2877_1124)"/>
<path d="M262.731 73.4569C280.384 73.4569 289.133 83.7362 289.133 83.7362L282.743 93.1095C277.529 88.0354 270.569 85.1509 263.294 85.0485C249.124 85.0485 238.829 95.609 238.829 110.044C238.829 124.479 249.124 135.32 263.7 135.32C276.76 135.32 285.383 125.947 285.383 125.947L290.804 135.805C290.804 135.805 281.072 147.053 262.684 147.053C240.595 147.053 225.035 131.43 225.035 110.247C225.082 89.3758 240.579 73.4569 262.731 73.4569Z" fill="#808285"/>
<path d="M336.094 73.4569C357.075 73.4569 374.025 88.8759 374.025 110.138C374.025 131.399 357.075 147.084 336.094 147.084C315.114 147.084 298.164 131.462 298.164 110.138C298.164 88.8134 315.114 73.4569 336.094 73.4569ZM336.094 135.414C349.436 135.414 360.262 124.854 360.262 110.138C360.262 95.4216 349.436 85.1422 336.094 85.1422C322.753 85.1422 311.911 95.5622 311.911 110.138C311.911 124.713 322.894 135.414 336.094 135.414Z" fill="#808285"/>
<path d="M387.178 75.1284H400.191V87.3449C400.191 89.1083 400.102 90.8706 399.925 92.6251H400.191C403.393 82.3458 411.595 74.3004 422.421 74.3004C423.587 74.308 424.751 74.3968 425.905 74.566V87.9072C424.626 87.635 423.323 87.4937 422.015 87.4855C413.392 87.4855 405.471 93.6093 402.284 104.029C401.098 108.135 400.534 112.395 400.613 116.667V145.428H387.178V75.1284Z" fill="#808285"/>
<path d="M466.335 73.4569C486.191 73.4569 496.751 88.1885 496.751 106.388C496.751 108.185 496.345 112.215 496.345 112.215H445.074C445.761 127.634 456.743 135.414 469.241 135.414C481.332 135.414 490.081 127.228 490.081 127.228L495.642 137.086C488.048 143.558 478.391 147.104 468.413 147.084C446.323 147.084 431.17 131.118 431.17 110.278C431.17 87.9073 446.323 73.4569 466.335 73.4569ZM483.004 102.077C482.582 89.9851 475.084 84.158 466.054 84.158C455.775 84.158 447.433 90.5475 445.495 102.077H483.004Z" fill="#808285"/>
<path d="M510.373 75.1285H522.73V81.0961C522.73 83.8768 522.465 86.2358 522.465 86.2358H522.73C522.73 86.2358 528.713 73.4569 546.351 73.4569C565.253 73.4569 577.204 88.4697 577.204 110.278C577.204 132.649 563.722 147.084 545.382 147.084C541.098 147.218 536.854 146.223 533.076 144.199C529.298 142.176 526.118 139.195 523.855 135.555H523.574C523.771 137.59 523.864 139.634 523.855 141.679V173.188H510.373V75.1285ZM543.304 135.555C554.412 135.555 563.613 126.385 563.613 110.419C563.613 95.1247 555.411 85.2672 543.742 85.2672C533.181 85.2672 523.433 92.6252 523.433 110.559C523.433 123.057 530.369 135.555 543.304 135.555Z" fill="#58595B"/>
<path d="M590.125 47.3367H603.591V123.885C603.591 132.368 606.934 133.899 611.09 133.899C611.883 133.896 612.676 133.849 613.464 133.758V145.693C611.987 145.875 610.5 145.969 609.012 145.974C601.373 145.974 590.125 143.897 590.125 126.244V47.3367Z" fill="#58595B"/>
<path d="M624.023 75.1284H637.49V117.089C637.49 126.806 639.442 134.586 650.69 134.586C665 134.586 673.483 121.948 673.483 108.029V75.1284H686.949V145.428H673.889V136.055C673.886 134.337 673.979 132.621 674.17 130.915H673.889C671.564 135.782 667.897 139.884 663.32 142.738C658.742 145.591 653.444 147.077 648.05 147.021C632.209 147.021 624.023 138.695 624.023 120.073V75.1284Z" fill="#58595B"/>
<path d="M706.118 127.228C711.581 132.363 718.759 135.281 726.255 135.414C732.097 135.414 737.924 132.29 737.924 126.666C737.924 113.746 701.806 116.386 701.806 93.4688C701.806 80.6899 713.195 73.4569 727.223 73.4569C742.658 73.4569 749.875 81.2679 749.875 81.2679L744.455 91.4067C739.641 87.2488 733.457 85.0225 727.098 85.1578C721.256 85.1578 715.554 87.6574 715.554 93.7812C715.554 106.419 751.688 103.639 751.688 126.697C751.688 138.367 741.674 147.115 726.255 147.115C716.363 147.31 706.789 143.619 699.588 136.836L706.118 127.228Z" fill="#58595B"/>
<path d="M167.906 145.771V55.757L125.93 73.0818L167.906 145.771Z" fill="#FDC17B"/>
<path d="M125.93 73.0508L167.906 145.772H83.9531L125.93 73.0508Z" fill="#F68A33"/>
<path d="M83.9687 0.345581L125.93 73.0351H41.9922L83.9687 0.345581Z" fill="#FFCB3B"/>
<path d="M41.9766 73.0352H125.945L83.9531 145.772L41.9766 73.0352Z" fill="#E4018B"/>
<path d="M45.3202 78.7839L45.3047 78.7994V78.7839H45.3202Z" fill="#E51E25"/>
<path d="M83.9687 0.329834L41.9921 73.035L0 0.329834H83.9687Z" fill="#FFF68F"/>
<path d="M65.9096 114.496L83.9531 145.725H0L41.9765 73.0352L65.9096 114.496Z" fill="#60C5BA"/>
<path d="M0 145.724H83.9531L41.9765 218.414L0 145.724Z" fill="#B0DFE3"/>
</g>
<defs>
<linearGradient id="paint0_linear_2877_1124" x1="6934.82" y1="5102.02" x2="9431.15" y2="3649.74" gradientUnits="userSpaceOnUse">
<stop offset="0.24" stop-color="#BCBEC0"/>
<stop offset="1" stop-color="#E6E7E8"/>
</linearGradient>
<clipPath id="clip0_2877_1124">
<rect width="752" height="226.02" fill="white" transform="translate(0 0.329834)"/>
</clipPath>
</defs>
</svg>
