<svg width="1152" height="293" viewBox="0 0 1152 293" fill="none" xmlns="http://www.w3.org/2000/svg">
<rect x="983" y="37" width="169" height="150" rx="3" fill="#FFD673"/>
<path d="M1029.77 216H1035.04V215.256H1030.63C1030.64 213.012 1034.9 212.616 1034.9 209.784C1034.9 208.464 1033.94 207.42 1032.34 207.42C1030.55 207.42 1029.78 208.944 1029.78 208.944L1030.4 209.364C1030.4 209.364 1031.05 208.212 1032.29 208.212C1033.34 208.212 1034.04 208.908 1034.04 209.832C1034.04 212.112 1029.72 212.496 1029.72 215.46C1029.72 215.628 1029.73 215.808 1029.77 216ZM1036.43 214.944C1036.43 214.944 1037.23 216.144 1038.91 216.144C1040.55 216.144 1041.83 214.932 1041.83 213.372C1041.83 211.848 1040.62 210.624 1038.93 210.624C1038.17 210.624 1037.65 210.948 1037.65 210.948H1037.62C1037.62 210.948 1037.67 210.768 1037.71 210.468L1037.95 208.308H1041.31V207.564H1037.23L1036.77 211.656L1037.3 211.848C1037.3 211.848 1037.93 211.392 1038.83 211.392C1040.03 211.392 1040.97 212.22 1040.97 213.372C1040.97 214.524 1040.03 215.352 1038.87 215.352C1037.59 215.352 1036.96 214.368 1036.96 214.368L1036.43 214.944ZM1043.12 214.944C1043.12 214.944 1043.92 216.144 1045.6 216.144C1047.24 216.144 1048.52 214.932 1048.52 213.372C1048.52 211.848 1047.31 210.624 1045.62 210.624C1044.86 210.624 1044.34 210.948 1044.34 210.948H1044.31C1044.31 210.948 1044.36 210.768 1044.4 210.468L1044.64 208.308H1048V207.564H1043.92L1043.46 211.656L1043.99 211.848C1043.99 211.848 1044.62 211.392 1045.52 211.392C1046.72 211.392 1047.66 212.22 1047.66 213.372C1047.66 214.524 1046.72 215.352 1045.56 215.352C1044.28 215.352 1043.65 214.368 1043.65 214.368L1043.12 214.944ZM1053.16 216H1058.43V215.256H1054.02C1054.03 213.012 1058.29 212.616 1058.29 209.784C1058.29 208.464 1057.33 207.42 1055.73 207.42C1053.94 207.42 1053.17 208.944 1053.17 208.944L1053.79 209.364C1053.79 209.364 1054.44 208.212 1055.68 208.212C1056.73 208.212 1057.43 208.908 1057.43 209.832C1057.43 212.112 1053.11 212.496 1053.11 215.46C1053.11 215.628 1053.12 215.808 1053.16 216ZM1059.85 216H1064.42V215.256H1062.56V207.564H1061.79L1059.88 209.46L1060.41 210L1061.31 209.1C1061.65 208.776 1061.73 208.596 1061.73 208.596H1061.76C1061.76 208.596 1061.74 208.824 1061.74 209.064V215.256H1059.85V216ZM1064.97 213.66H1069.2V216H1070.03V213.66H1071.23V212.928H1070.03V207.564H1069.13L1064.97 213.12V213.66ZM1065.98 212.928V212.904L1068.79 209.244C1069.02 208.944 1069.21 208.608 1069.21 208.608H1069.23C1069.23 208.608 1069.2 209.04 1069.2 209.4V212.928H1065.98ZM1075.62 216H1080.19V215.256H1078.33V207.564H1077.57L1075.66 209.46L1076.19 210L1077.09 209.1C1077.42 208.776 1077.51 208.596 1077.51 208.596H1077.53C1077.53 208.596 1077.52 208.824 1077.52 209.064V215.256H1075.62V216ZM1081.21 216H1085.78V215.256H1083.92V207.564H1083.16L1081.25 209.46L1081.78 210L1082.68 209.1C1083.01 208.776 1083.1 208.596 1083.1 208.596H1083.12C1083.12 208.596 1083.11 208.824 1083.11 209.064V215.256H1081.21V216ZM1086.78 214.944C1086.78 214.944 1087.57 216.144 1089.25 216.144C1090.89 216.144 1092.18 214.932 1092.18 213.372C1092.18 211.848 1090.96 210.624 1089.27 210.624C1088.52 210.624 1087.99 210.948 1087.99 210.948H1087.96C1087.96 210.948 1088.01 210.768 1088.05 210.468L1088.29 208.308H1091.65V207.564H1087.57L1087.11 211.656L1087.64 211.848C1087.64 211.848 1088.28 211.392 1089.18 211.392C1090.38 211.392 1091.31 212.22 1091.31 213.372C1091.31 214.524 1090.38 215.352 1089.21 215.352C1087.93 215.352 1087.3 214.368 1087.3 214.368L1086.78 214.944Z" fill="#404040"/>
<path d="M1032.76 236.144C1034.95 236.144 1035.66 234.224 1035.66 231.776C1035.66 229.352 1034.95 227.42 1032.76 227.42C1030.56 227.42 1029.84 229.352 1029.84 231.776C1029.84 234.224 1030.56 236.144 1032.76 236.144ZM1032.76 235.364C1031.15 235.364 1030.7 233.792 1030.7 231.776C1030.7 229.772 1031.15 228.2 1032.76 228.2C1034.35 228.2 1034.8 229.772 1034.8 231.776C1034.8 233.792 1034.35 235.364 1032.76 235.364ZM1040.39 236H1044.97V235.256H1043.11V227.564H1042.34L1040.43 229.46L1040.96 230L1041.86 229.1C1042.19 228.776 1042.28 228.596 1042.28 228.596H1042.3C1042.3 228.596 1042.29 228.824 1042.29 229.064V235.256H1040.39V236ZM1049.14 236.144C1050.62 236.144 1051.79 235.076 1051.79 233.324C1051.79 231.728 1050.7 230.6 1049.16 230.6C1048.29 230.6 1047.44 230.984 1047.03 231.584H1047C1047.15 229.94 1048.05 228.2 1049.81 228.2C1050.51 228.2 1051.04 228.5 1051.04 228.5L1051.35 227.768C1051.35 227.768 1050.74 227.42 1049.8 227.42C1047.2 227.42 1046.09 230.072 1046.09 232.184C1046.09 234.464 1047.3 236.144 1049.14 236.144ZM1049.13 235.364C1047.87 235.364 1046.99 233.912 1046.99 232.784C1046.99 232.1 1047.9 231.344 1049.03 231.344C1050.18 231.344 1050.94 232.136 1050.94 233.336C1050.94 234.5 1050.27 235.364 1049.13 235.364ZM1056.32 234.944C1056.32 234.944 1057.11 236.144 1058.79 236.144C1060.44 236.144 1061.72 234.932 1061.72 233.372C1061.72 231.848 1060.51 230.624 1058.82 230.624C1058.06 230.624 1057.53 230.948 1057.53 230.948H1057.51C1057.51 230.948 1057.56 230.768 1057.59 230.468L1057.83 228.308H1061.19V227.564H1057.11L1056.66 231.656L1057.18 231.848C1057.18 231.848 1057.82 231.392 1058.72 231.392C1059.92 231.392 1060.86 232.22 1060.86 233.372C1060.86 234.524 1059.92 235.352 1058.76 235.352C1057.47 235.352 1056.85 234.368 1056.85 234.368L1056.32 234.944ZM1063.01 234.944C1063.01 234.944 1063.8 236.144 1065.48 236.144C1067.13 236.144 1068.41 234.932 1068.41 233.372C1068.41 231.848 1067.2 230.624 1065.51 230.624C1064.75 230.624 1064.22 230.948 1064.22 230.948H1064.2C1064.2 230.948 1064.25 230.768 1064.28 230.468L1064.52 228.308H1067.88V227.564H1063.8L1063.35 231.656L1063.88 231.848C1063.88 231.848 1064.51 231.392 1065.41 231.392C1066.61 231.392 1067.55 232.22 1067.55 233.372C1067.55 234.524 1066.61 235.352 1065.45 235.352C1064.16 235.352 1063.54 234.368 1063.54 234.368L1063.01 234.944ZM1076.03 236.144C1078.23 236.144 1078.94 234.224 1078.94 231.776C1078.94 229.352 1078.23 227.42 1076.03 227.42C1073.84 227.42 1073.12 229.352 1073.12 231.776C1073.12 234.224 1073.84 236.144 1076.03 236.144ZM1076.03 235.364C1074.43 235.364 1073.98 233.792 1073.98 231.776C1073.98 229.772 1074.43 228.2 1076.03 228.2C1077.63 228.2 1078.07 229.772 1078.07 231.776C1078.07 233.792 1077.63 235.364 1076.03 235.364Z" fill="#404040"/>
<path d="M1030.86 255H1031.59L1032 252.66H1034.08L1033.67 255H1034.4L1034.81 252.66H1036.49L1036.6 251.988H1034.93L1035.34 249.636H1037.02L1037.14 248.964H1035.46L1035.88 246.564H1035.14L1034.72 248.964H1032.65L1033.07 246.564H1032.34L1031.92 248.964H1030.21L1030.1 249.636H1031.8L1031.38 251.988H1029.68L1029.56 252.66H1031.27L1030.86 255ZM1032.12 251.988L1032.53 249.636H1034.6L1034.18 251.988H1032.12ZM1038.91 255H1039.74V251.22H1042.83V250.476H1039.74V247.308H1043.35V246.564H1038.91V255ZM1045.07 255H1045.9V251.22H1049V250.476H1045.9V247.308H1049.51V246.564H1045.07V255ZM1051.24 255H1053.96C1056.49 255 1058.2 253.464 1058.2 250.776C1058.2 248.112 1056.49 246.564 1053.96 246.564H1051.24V255ZM1052.06 254.256V247.308H1053.88C1055.94 247.308 1057.33 248.532 1057.33 250.776C1057.33 253.032 1055.95 254.256 1053.88 254.256H1052.06ZM1062.72 255.144C1064.2 255.144 1065.37 254.076 1065.37 252.324C1065.37 250.728 1064.28 249.6 1062.75 249.6C1061.87 249.6 1061.02 249.984 1060.61 250.584H1060.59C1060.73 248.94 1061.63 247.2 1063.39 247.2C1064.09 247.2 1064.62 247.5 1064.62 247.5L1064.93 246.768C1064.93 246.768 1064.32 246.42 1063.38 246.42C1060.78 246.42 1059.67 249.072 1059.67 251.184C1059.67 253.464 1060.89 255.144 1062.72 255.144ZM1062.71 254.364C1061.45 254.364 1060.57 252.912 1060.57 251.784C1060.57 251.1 1061.49 250.344 1062.61 250.344C1063.77 250.344 1064.52 251.136 1064.52 252.336C1064.52 253.5 1063.85 254.364 1062.71 254.364ZM1067.2 255H1068.06L1071.97 247.14V246.564H1066.49V247.308H1070.44C1070.86 247.308 1071.07 247.284 1071.07 247.284V247.308C1071.07 247.308 1070.83 247.632 1070.6 248.088L1067.2 255ZM1072.81 253.992C1072.81 253.992 1073.83 255.144 1075.48 255.144C1077.08 255.144 1078.25 253.944 1078.25 252.504C1078.25 250.68 1076.68 250.08 1075.61 250.02L1078.13 247.116V246.564H1073.2V247.308H1076.37C1076.81 247.308 1077.05 247.272 1077.05 247.272V247.296C1077.05 247.296 1076.84 247.5 1076.61 247.764L1074.5 250.236L1074.7 250.728H1075.28C1076.38 250.728 1077.4 251.34 1077.4 252.528C1077.4 253.608 1076.48 254.352 1075.47 254.352C1074.17 254.352 1073.31 253.356 1073.31 253.356L1072.81 253.992Z" fill="#404040"/>
<path d="M984.224 216H985.052V212.448H987.176L989.084 216H990.032L988.196 212.604C988.064 212.376 987.98 212.268 987.98 212.268V212.244C988.928 211.98 989.576 211.104 989.576 209.964C989.576 208.944 989.096 208.14 988.304 207.792C987.968 207.648 987.584 207.564 986.72 207.564H984.224V216ZM985.052 211.704V208.308H986.756C987.404 208.308 987.704 208.38 987.956 208.512C988.448 208.776 988.724 209.292 988.724 209.988C988.724 211.044 988.076 211.704 987.056 211.704H985.052ZM991.195 211.776C991.195 214.284 993.019 216.144 995.323 216.144C997.099 216.144 998.071 215.004 998.071 215.004H998.095C998.095 215.004 998.083 215.184 998.083 215.364V216H998.851V211.968H996.619V212.712H998.059V214.14C998.059 214.14 997.051 215.376 995.407 215.376C993.487 215.376 992.059 213.84 992.059 211.764C992.059 209.76 993.439 208.188 995.479 208.188C997.015 208.188 997.999 209.028 997.999 209.028L998.443 208.404C998.443 208.404 997.399 207.42 995.443 207.42C993.019 207.42 991.195 209.34 991.195 211.776ZM1000.85 216H1003.83C1005.24 216 1006.36 215.136 1006.36 213.636C1006.36 212.616 1005.81 211.788 1004.94 211.548V211.524C1005.59 211.2 1006.01 210.564 1006.01 209.688C1006.01 208.368 1005.06 207.564 1003.73 207.564H1000.85V216ZM1001.68 211.224V208.308H1003.72C1004.62 208.308 1005.16 208.884 1005.16 209.748C1005.16 210.624 1004.58 211.224 1003.73 211.224H1001.68ZM1001.68 215.256V211.944H1003.83C1004.81 211.944 1005.5 212.604 1005.5 213.612C1005.5 214.62 1004.86 215.256 1003.84 215.256H1001.68Z" fill="#404040"/>
<path d="M983.66 231.728C983.66 234.188 985.436 236.144 987.932 236.144C990.008 236.144 991.16 234.836 991.16 234.836L990.68 234.248C990.68 234.248 989.648 235.376 987.944 235.376C985.94 235.376 984.524 233.732 984.524 231.716C984.524 229.724 985.94 228.188 987.92 228.188C989.504 228.188 990.488 229.124 990.488 229.124L990.932 228.512C990.932 228.512 989.912 227.42 987.896 227.42C985.484 227.42 983.66 229.28 983.66 231.728ZM992.69 236H993.518L993.986 230.096C994.022 229.64 994.01 228.896 994.01 228.896H994.034C994.034 228.896 994.298 229.676 994.49 230.096L996.47 234.428H997.25L999.23 230.096C999.422 229.664 999.674 228.92 999.674 228.92H999.698C999.698 228.92 999.686 229.64 999.722 230.096L1000.19 236H1001.02L1000.35 227.564H999.494L997.286 232.52C997.094 232.952 996.866 233.552 996.866 233.552H996.842C996.842 233.552 996.626 232.952 996.434 232.52L994.226 227.564H993.362L992.69 236ZM1004.89 236H1005.73V232.376L1008.56 227.564H1007.63L1005.84 230.624C1005.58 231.068 1005.32 231.632 1005.32 231.632H1005.3C1005.3 231.632 1005.04 231.056 1004.78 230.624L1003 227.564H1002.05L1004.89 232.376V236ZM1009.98 236H1010.81V231.968H1012.24L1014.65 236H1015.62L1012.93 231.572V231.548L1015.45 227.564H1014.51L1012.24 231.224H1010.81V227.564H1009.98V236Z" fill="#404040"/>
<path d="M984.224 255H985.052V251.148H989.948V255H990.776V246.564H989.948V250.404H985.052V246.564H984.224V255ZM993.224 255H998.192V254.256H994.052V251.124H997.256V250.38H994.052V247.308H997.976V246.564H993.224V255ZM999.167 255H1000.13L1001.86 252.096C1002.12 251.652 1002.37 251.148 1002.37 251.148H1002.4C1002.4 251.148 1002.66 251.652 1002.92 252.084L1004.68 255H1005.64L1002.94 250.596L1005.41 246.564H1004.42L1002.94 249.06C1002.67 249.492 1002.43 250.032 1002.43 250.032H1002.41C1002.41 250.032 1002.11 249.492 1001.86 249.06L1000.38 246.564H999.407L1001.86 250.596L999.167 255Z" fill="#404040"/>
<rect x="789" y="37" width="169" height="150" rx="3" fill="#FFF580"/>
<path d="M835.768 216H841.036V215.256H836.632C836.644 213.012 840.904 212.616 840.904 209.784C840.904 208.464 839.944 207.42 838.336 207.42C836.548 207.42 835.78 208.944 835.78 208.944L836.404 209.364C836.404 209.364 837.052 208.212 838.288 208.212C839.344 208.212 840.04 208.908 840.04 209.832C840.04 212.112 835.72 212.496 835.72 215.46C835.72 215.628 835.732 215.808 835.768 216ZM842.433 214.944C842.433 214.944 843.225 216.144 844.905 216.144C846.549 216.144 847.833 214.932 847.833 213.372C847.833 211.848 846.621 210.624 844.929 210.624C844.173 210.624 843.645 210.948 843.645 210.948H843.621C843.621 210.948 843.669 210.768 843.705 210.468L843.945 208.308H847.305V207.564H843.225L842.769 211.656L843.297 211.848C843.297 211.848 843.933 211.392 844.833 211.392C846.033 211.392 846.969 212.22 846.969 213.372C846.969 214.524 846.033 215.352 844.869 215.352C843.585 215.352 842.961 214.368 842.961 214.368L842.433 214.944ZM849.125 214.944C849.125 214.944 849.917 216.144 851.597 216.144C853.241 216.144 854.525 214.932 854.525 213.372C854.525 211.848 853.313 210.624 851.621 210.624C850.865 210.624 850.337 210.948 850.337 210.948H850.313C850.313 210.948 850.361 210.768 850.397 210.468L850.637 208.308H853.997V207.564H849.917L849.461 211.656L849.989 211.848C849.989 211.848 850.625 211.392 851.525 211.392C852.725 211.392 853.661 212.22 853.661 213.372C853.661 214.524 852.725 215.352 851.561 215.352C850.277 215.352 849.653 214.368 849.653 214.368L849.125 214.944ZM859.159 216H864.427V215.256H860.023C860.035 213.012 864.295 212.616 864.295 209.784C864.295 208.464 863.335 207.42 861.727 207.42C859.939 207.42 859.171 208.944 859.171 208.944L859.795 209.364C859.795 209.364 860.443 208.212 861.679 208.212C862.735 208.212 863.431 208.908 863.431 209.832C863.431 212.112 859.111 212.496 859.111 215.46C859.111 215.628 859.123 215.808 859.159 216ZM865.326 213.66H869.55V216H870.378V213.66H871.578V212.928H870.378V207.564H869.478L865.326 213.12V213.66ZM866.334 212.928V212.904L869.142 209.244C869.37 208.944 869.562 208.608 869.562 208.608H869.586C869.586 208.608 869.55 209.04 869.55 209.4V212.928H866.334ZM875.906 216.144C877.382 216.144 878.558 215.076 878.558 213.324C878.558 211.728 877.466 210.6 875.93 210.6C875.054 210.6 874.202 210.984 873.794 211.584H873.77C873.914 209.94 874.814 208.2 876.578 208.2C877.274 208.2 877.802 208.5 877.802 208.5L878.114 207.768C878.114 207.768 877.502 207.42 876.566 207.42C873.962 207.42 872.858 210.072 872.858 212.184C872.858 214.464 874.07 216.144 875.906 216.144ZM875.894 215.364C874.634 215.364 873.758 213.912 873.758 212.784C873.758 212.1 874.67 211.344 875.798 211.344C876.95 211.344 877.706 212.136 877.706 213.336C877.706 214.5 877.034 215.364 875.894 215.364ZM883.11 216H887.682V215.256H885.822V207.564H885.054L883.146 209.46L883.674 210L884.574 209.1C884.91 208.776 884.994 208.596 884.994 208.596H885.018C885.018 208.596 885.006 208.824 885.006 209.064V215.256H883.11V216ZM888.795 216H894.063V215.256H889.659C889.671 213.012 893.931 212.616 893.931 209.784C893.931 208.464 892.971 207.42 891.363 207.42C889.575 207.42 888.807 208.944 888.807 208.944L889.431 209.364C889.431 209.364 890.079 208.212 891.315 208.212C892.371 208.212 893.067 208.908 893.067 209.832C893.067 212.112 888.747 212.496 888.747 215.46C888.747 215.628 888.759 215.808 888.795 216ZM895.581 213.576C895.581 215.172 896.913 216.144 898.437 216.144C900.069 216.144 901.233 215.028 901.233 213.708C901.233 212.832 900.705 212.292 900.009 211.896C900.105 211.8 901.041 210.816 901.041 209.616C901.041 208.296 900.033 207.42 898.461 207.42C896.757 207.42 895.917 208.464 895.917 209.556C895.917 210.36 896.361 210.876 896.961 211.272C896.769 211.392 895.581 212.22 895.581 213.576ZM900.381 213.696C900.381 214.692 899.433 215.376 898.437 215.376C897.417 215.376 896.433 214.68 896.433 213.54C896.433 212.46 897.381 211.788 897.645 211.632C898.893 212.232 900.381 212.604 900.381 213.696ZM896.757 209.568C896.757 208.812 897.381 208.188 898.461 208.188C899.481 208.188 900.201 208.752 900.201 209.652C900.201 210.66 899.481 211.416 899.325 211.56C898.113 211.032 896.757 210.66 896.757 209.568Z" fill="#404040"/>
<path d="M838.756 236.144C840.952 236.144 841.66 234.224 841.66 231.776C841.66 229.352 840.952 227.42 838.756 227.42C836.56 227.42 835.84 229.352 835.84 231.776C835.84 234.224 836.56 236.144 838.756 236.144ZM838.756 235.364C837.148 235.364 836.704 233.792 836.704 231.776C836.704 229.772 837.148 228.2 838.756 228.2C840.352 228.2 840.796 229.772 840.796 231.776C840.796 233.792 840.352 235.364 838.756 235.364ZM846.131 233.66H850.355V236H851.183V233.66H852.383V232.928H851.183V227.564H850.283L846.131 233.12V233.66ZM847.139 232.928V232.904L849.947 229.244C850.175 228.944 850.367 228.608 850.367 228.608H850.391C850.391 228.608 850.355 229.04 850.355 229.4V232.928H847.139ZM856.753 234.944C856.753 234.944 857.545 236.144 859.225 236.144C860.869 236.144 862.153 234.932 862.153 233.372C862.153 231.848 860.941 230.624 859.249 230.624C858.493 230.624 857.965 230.948 857.965 230.948H857.941C857.941 230.948 857.989 230.768 858.025 230.468L858.265 228.308H861.625V227.564H857.545L857.089 231.656L857.617 231.848C857.617 231.848 858.253 231.392 859.153 231.392C860.353 231.392 861.289 232.22 861.289 233.372C861.289 234.524 860.353 235.352 859.189 235.352C857.905 235.352 857.281 234.368 857.281 234.368L856.753 234.944ZM866.553 236.144C868.749 236.144 869.457 234.224 869.457 231.776C869.457 229.352 868.749 227.42 866.553 227.42C864.357 227.42 863.637 229.352 863.637 231.776C863.637 234.224 864.357 236.144 866.553 236.144ZM866.553 235.364C864.945 235.364 864.501 233.792 864.501 231.776C864.501 229.772 864.945 228.2 866.553 228.2C868.149 228.2 868.593 229.772 868.593 231.776C868.593 233.792 868.149 235.364 866.553 235.364ZM877.276 236.144C879.472 236.144 880.18 234.224 880.18 231.776C880.18 229.352 879.472 227.42 877.276 227.42C875.08 227.42 874.36 229.352 874.36 231.776C874.36 234.224 875.08 236.144 877.276 236.144ZM877.276 235.364C875.668 235.364 875.224 233.792 875.224 231.776C875.224 229.772 875.668 228.2 877.276 228.2C878.872 228.2 879.316 229.772 879.316 231.776C879.316 233.792 878.872 235.364 877.276 235.364Z" fill="#404040"/>
<path d="M836.86 255H837.592L838 252.66H840.076L839.668 255H840.4L840.808 252.66H842.488L842.596 251.988H840.928L841.336 249.636H843.016L843.136 248.964H841.456L841.876 246.564H841.144L840.724 248.964H838.648L839.068 246.564H838.336L837.916 248.964H836.212L836.104 249.636H837.796L837.376 251.988H835.684L835.564 252.66H837.268L836.86 255ZM838.12 251.988L838.528 249.636H840.604L840.184 251.988H838.12ZM844.908 255H845.736V251.22H848.832V250.476H845.736V247.308H849.348V246.564H844.908V255ZM851.072 255H851.9V251.22H854.996V250.476H851.9V247.308H855.512V246.564H851.072V255ZM857.236 255H858.064V251.22H861.16V250.476H858.064V247.308H861.676V246.564H857.236V255ZM862.824 253.944C862.824 253.944 863.616 255.144 865.296 255.144C866.94 255.144 868.224 253.932 868.224 252.372C868.224 250.848 867.012 249.624 865.32 249.624C864.564 249.624 864.036 249.948 864.036 249.948H864.012C864.012 249.948 864.06 249.768 864.096 249.468L864.336 247.308H867.696V246.564H863.616L863.16 250.656L863.688 250.848C863.688 250.848 864.324 250.392 865.224 250.392C866.424 250.392 867.36 251.22 867.36 252.372C867.36 253.524 866.424 254.352 865.26 254.352C863.976 254.352 863.352 253.368 863.352 253.368L862.824 253.944ZM869.635 252.576C869.635 254.172 870.967 255.144 872.491 255.144C874.123 255.144 875.287 254.028 875.287 252.708C875.287 251.832 874.759 251.292 874.063 250.896C874.159 250.8 875.095 249.816 875.095 248.616C875.095 247.296 874.087 246.42 872.515 246.42C870.811 246.42 869.971 247.464 869.971 248.556C869.971 249.36 870.415 249.876 871.015 250.272C870.823 250.392 869.635 251.22 869.635 252.576ZM874.435 252.696C874.435 253.692 873.487 254.376 872.491 254.376C871.471 254.376 870.487 253.68 870.487 252.54C870.487 251.46 871.435 250.788 871.699 250.632C872.947 251.232 874.435 251.604 874.435 252.696ZM870.811 248.568C870.811 247.812 871.435 247.188 872.515 247.188C873.535 247.188 874.255 247.752 874.255 248.652C874.255 249.66 873.535 250.416 873.379 250.56C872.167 250.032 870.811 249.66 870.811 248.568ZM879.842 255.144C882.038 255.144 882.746 253.224 882.746 250.776C882.746 248.352 882.038 246.42 879.842 246.42C877.646 246.42 876.926 248.352 876.926 250.776C876.926 253.224 877.646 255.144 879.842 255.144ZM879.842 254.364C878.234 254.364 877.79 252.792 877.79 250.776C877.79 248.772 878.234 247.2 879.842 247.2C881.438 247.2 881.882 248.772 881.882 250.776C881.882 252.792 881.438 254.364 879.842 254.364Z" fill="#404040"/>
<path d="M790.224 216H791.052V212.448H793.176L795.084 216H796.032L794.196 212.604C794.064 212.376 793.98 212.268 793.98 212.268V212.244C794.928 211.98 795.576 211.104 795.576 209.964C795.576 208.944 795.096 208.14 794.304 207.792C793.968 207.648 793.584 207.564 792.72 207.564H790.224V216ZM791.052 211.704V208.308H792.756C793.404 208.308 793.704 208.38 793.956 208.512C794.448 208.776 794.724 209.292 794.724 209.988C794.724 211.044 794.076 211.704 793.056 211.704H791.052ZM797.195 211.776C797.195 214.284 799.019 216.144 801.323 216.144C803.099 216.144 804.071 215.004 804.071 215.004H804.095C804.095 215.004 804.083 215.184 804.083 215.364V216H804.851V211.968H802.619V212.712H804.059V214.14C804.059 214.14 803.051 215.376 801.407 215.376C799.487 215.376 798.059 213.84 798.059 211.764C798.059 209.76 799.439 208.188 801.479 208.188C803.015 208.188 803.999 209.028 803.999 209.028L804.443 208.404C804.443 208.404 803.399 207.42 801.443 207.42C799.019 207.42 797.195 209.34 797.195 211.776ZM806.853 216H809.829C811.245 216 812.361 215.136 812.361 213.636C812.361 212.616 811.809 211.788 810.945 211.548V211.524C811.593 211.2 812.013 210.564 812.013 209.688C812.013 208.368 811.065 207.564 809.733 207.564H806.853V216ZM807.681 211.224V208.308H809.721C810.621 208.308 811.161 208.884 811.161 209.748C811.161 210.624 810.585 211.224 809.733 211.224H807.681ZM807.681 215.256V211.944H809.829C810.813 211.944 811.497 212.604 811.497 213.612C811.497 214.62 810.861 215.256 809.841 215.256H807.681Z" fill="#404040"/>
<path d="M789.66 231.728C789.66 234.188 791.436 236.144 793.932 236.144C796.008 236.144 797.16 234.836 797.16 234.836L796.68 234.248C796.68 234.248 795.648 235.376 793.944 235.376C791.94 235.376 790.524 233.732 790.524 231.716C790.524 229.724 791.94 228.188 793.92 228.188C795.504 228.188 796.488 229.124 796.488 229.124L796.932 228.512C796.932 228.512 795.912 227.42 793.896 227.42C791.484 227.42 789.66 229.28 789.66 231.728ZM798.69 236H799.518L799.986 230.096C800.022 229.64 800.01 228.896 800.01 228.896H800.034C800.034 228.896 800.298 229.676 800.49 230.096L802.47 234.428H803.25L805.23 230.096C805.422 229.664 805.674 228.92 805.674 228.92H805.698C805.698 228.92 805.686 229.64 805.722 230.096L806.19 236H807.018L806.346 227.564H805.494L803.286 232.52C803.094 232.952 802.866 233.552 802.866 233.552H802.842C802.842 233.552 802.626 232.952 802.434 232.52L800.226 227.564H799.362L798.69 236ZM810.891 236H811.731V232.376L814.563 227.564H813.627L811.839 230.624C811.575 231.068 811.323 231.632 811.323 231.632H811.299C811.299 231.632 811.035 231.056 810.783 230.624L808.995 227.564H808.047L810.891 232.376V236ZM815.982 236H816.81V231.968H818.238L820.65 236H821.622L818.934 231.572V231.548L821.454 227.564H820.506L818.238 231.224H816.81V227.564H815.982V236Z" fill="#404040"/>
<path d="M790.224 255H791.052V251.148H795.948V255H796.776V246.564H795.948V250.404H791.052V246.564H790.224V255ZM799.224 255H804.192V254.256H800.052V251.124H803.256V250.38H800.052V247.308H803.976V246.564H799.224V255ZM805.167 255H806.127L807.855 252.096C808.119 251.652 808.371 251.148 808.371 251.148H808.395C808.395 251.148 808.659 251.652 808.923 252.084L810.675 255H811.635L808.935 250.596L811.407 246.564H810.423L808.935 249.06C808.671 249.492 808.431 250.032 808.431 250.032H808.407C808.407 250.032 808.107 249.492 807.855 249.06L806.379 246.564H805.407L807.855 250.596L805.167 255Z" fill="#404040"/>
<rect x="595" y="37" width="169" height="150" rx="3" fill="#FDC783"/>
<path d="M641.768 216H647.036V215.256H642.632C642.644 213.012 646.904 212.616 646.904 209.784C646.904 208.464 645.944 207.42 644.336 207.42C642.548 207.42 641.78 208.944 641.78 208.944L642.404 209.364C642.404 209.364 643.052 208.212 644.288 208.212C645.344 208.212 646.04 208.908 646.04 209.832C646.04 212.112 641.72 212.496 641.72 215.46C641.72 215.628 641.732 215.808 641.768 216ZM648.433 214.944C648.433 214.944 649.225 216.144 650.905 216.144C652.549 216.144 653.833 214.932 653.833 213.372C653.833 211.848 652.621 210.624 650.929 210.624C650.173 210.624 649.645 210.948 649.645 210.948H649.621C649.621 210.948 649.669 210.768 649.705 210.468L649.945 208.308H653.305V207.564H649.225L648.769 211.656L649.297 211.848C649.297 211.848 649.933 211.392 650.833 211.392C652.033 211.392 652.969 212.22 652.969 213.372C652.969 214.524 652.033 215.352 650.869 215.352C649.585 215.352 648.961 214.368 648.961 214.368L648.433 214.944ZM655.017 214.992C655.017 214.992 656.037 216.144 657.693 216.144C659.289 216.144 660.465 214.944 660.465 213.504C660.465 211.68 658.893 211.08 657.825 211.02L660.345 208.116V207.564H655.413V208.308H658.581C659.025 208.308 659.265 208.272 659.265 208.272V208.296C659.265 208.296 659.049 208.5 658.821 208.764L656.709 211.236L656.913 211.728H657.489C658.593 211.728 659.613 212.34 659.613 213.528C659.613 214.608 658.689 215.352 657.681 215.352C656.385 215.352 655.521 214.356 655.521 214.356L655.017 214.992ZM665.11 216H669.682V215.256H667.822V207.564H667.054L665.146 209.46L665.674 210L666.574 209.1C666.91 208.776 666.994 208.596 666.994 208.596H667.018C667.018 208.596 667.006 208.824 667.006 209.064V215.256H665.11V216ZM672.667 216.144C675.283 216.144 676.375 213.492 676.375 211.38C676.375 209.1 675.163 207.42 673.327 207.42C671.851 207.42 670.687 208.488 670.687 210.24C670.687 211.836 671.767 212.964 673.303 212.964C674.179 212.964 675.031 212.58 675.451 211.98H675.475C675.319 213.624 674.431 215.364 672.655 215.364C671.959 215.364 671.431 215.064 671.431 215.064L671.119 215.796C671.119 215.796 671.743 216.144 672.667 216.144ZM673.435 212.22C672.283 212.22 671.527 211.428 671.527 210.228C671.527 209.064 672.199 208.2 673.339 208.2C674.599 208.2 675.475 209.652 675.475 210.78C675.475 211.464 674.575 212.22 673.435 212.22ZM679.792 216.144C682.408 216.144 683.5 213.492 683.5 211.38C683.5 209.1 682.288 207.42 680.452 207.42C678.976 207.42 677.812 208.488 677.812 210.24C677.812 211.836 678.892 212.964 680.428 212.964C681.304 212.964 682.156 212.58 682.576 211.98H682.6C682.444 213.624 681.556 215.364 679.78 215.364C679.084 215.364 678.556 215.064 678.556 215.064L678.244 215.796C678.244 215.796 678.868 216.144 679.792 216.144ZM680.56 212.22C679.408 212.22 678.652 211.428 678.652 210.228C678.652 209.064 679.324 208.2 680.464 208.2C681.724 208.2 682.6 209.652 682.6 210.78C682.6 211.464 681.7 212.22 680.56 212.22ZM688.172 216H692.744V215.256H690.884V207.564H690.116L688.208 209.46L688.736 210L689.636 209.1C689.972 208.776 690.056 208.596 690.056 208.596H690.08C690.08 208.596 690.068 208.824 690.068 209.064V215.256H688.172V216ZM693.63 214.992C693.63 214.992 694.65 216.144 696.306 216.144C697.902 216.144 699.078 214.944 699.078 213.504C699.078 211.68 697.506 211.08 696.438 211.02L698.958 208.116V207.564H694.026V208.308H697.194C697.638 208.308 697.878 208.272 697.878 208.272V208.296C697.878 208.296 697.662 208.5 697.434 208.764L695.322 211.236L695.526 211.728H696.102C697.206 211.728 698.226 212.34 698.226 213.528C698.226 214.608 697.302 215.352 696.294 215.352C694.998 215.352 694.134 214.356 694.134 214.356L693.63 214.992ZM700.5 216H705.072V215.256H703.212V207.564H702.444L700.536 209.46L701.064 210L701.964 209.1C702.3 208.776 702.384 208.596 702.384 208.596H702.408C702.408 208.596 702.396 208.824 702.396 209.064V215.256H700.5V216Z" fill="#404040"/>
<path d="M644.756 236.144C646.952 236.144 647.66 234.224 647.66 231.776C647.66 229.352 646.952 227.42 644.756 227.42C642.56 227.42 641.84 229.352 641.84 231.776C641.84 234.224 642.56 236.144 644.756 236.144ZM644.756 235.364C643.148 235.364 642.704 233.792 642.704 231.776C642.704 229.772 643.148 228.2 644.756 228.2C646.352 228.2 646.796 229.772 646.796 231.776C646.796 233.792 646.352 235.364 644.756 235.364ZM652.491 236H657.759V235.256H653.355C653.367 233.012 657.627 232.616 657.627 229.784C657.627 228.464 656.667 227.42 655.059 227.42C653.271 227.42 652.503 228.944 652.503 228.944L653.127 229.364C653.127 229.364 653.775 228.212 655.011 228.212C656.067 228.212 656.763 228.908 656.763 229.832C656.763 232.112 652.443 232.496 652.443 235.46C652.443 235.628 652.455 235.808 652.491 236ZM659.18 236H663.752V235.256H661.892V227.564H661.124L659.216 229.46L659.744 230L660.644 229.1C660.98 228.776 661.064 228.596 661.064 228.596H661.088C661.088 228.596 661.076 228.824 661.076 229.064V235.256H659.18V236ZM667.728 233.66H671.952V236H672.78V233.66H673.98V232.928H672.78V227.564H671.88L667.728 233.12V233.66ZM668.736 232.928V232.904L671.544 229.244C671.772 228.944 671.964 228.608 671.964 228.608H671.988C671.988 228.608 671.952 229.04 671.952 229.4V232.928H668.736ZM675.248 233.576C675.248 235.172 676.58 236.144 678.104 236.144C679.736 236.144 680.9 235.028 680.9 233.708C680.9 232.832 680.372 232.292 679.676 231.896C679.772 231.8 680.708 230.816 680.708 229.616C680.708 228.296 679.7 227.42 678.128 227.42C676.424 227.42 675.584 228.464 675.584 229.556C675.584 230.36 676.028 230.876 676.628 231.272C676.436 231.392 675.248 232.22 675.248 233.576ZM680.048 233.696C680.048 234.692 679.1 235.376 678.104 235.376C677.084 235.376 676.1 234.68 676.1 233.54C676.1 232.46 677.048 231.788 677.312 231.632C678.56 232.232 680.048 232.604 680.048 233.696ZM676.424 229.568C676.424 228.812 677.048 228.188 678.128 228.188C679.148 228.188 679.868 228.752 679.868 229.652C679.868 230.66 679.148 231.416 678.992 231.56C677.78 231.032 676.424 230.66 676.424 229.568ZM685.594 236H690.166V235.256H688.306V227.564H687.538L685.63 229.46L686.158 230L687.058 229.1C687.394 228.776 687.478 228.596 687.478 228.596H687.502C687.502 228.596 687.49 228.824 687.49 229.064V235.256H685.594V236Z" fill="#404040"/>
<path d="M642.86 255H643.592L644 252.66H646.076L645.668 255H646.4L646.808 252.66H648.488L648.596 251.988H646.928L647.336 249.636H649.016L649.136 248.964H647.456L647.876 246.564H647.144L646.724 248.964H644.648L645.068 246.564H644.336L643.916 248.964H642.212L642.104 249.636H643.796L643.376 251.988H641.684L641.564 252.66H643.268L642.86 255ZM644.12 251.988L644.528 249.636H646.604L646.184 251.988H644.12ZM650.908 255H651.736V251.22H654.832V250.476H651.736V247.308H655.348V246.564H650.908V255ZM657.072 255H659.796C662.328 255 664.032 253.464 664.032 250.776C664.032 248.112 662.328 246.564 659.796 246.564H657.072V255ZM657.9 254.256V247.308H659.712C661.776 247.308 663.168 248.532 663.168 250.776C663.168 253.032 661.788 254.256 659.712 254.256H657.9ZM665.39 250.728C665.39 253.188 667.166 255.144 669.662 255.144C671.738 255.144 672.89 253.836 672.89 253.836L672.41 253.248C672.41 253.248 671.378 254.376 669.674 254.376C667.67 254.376 666.254 252.732 666.254 250.716C666.254 248.724 667.67 247.188 669.65 247.188C671.234 247.188 672.218 248.124 672.218 248.124L672.662 247.512C672.662 247.512 671.642 246.42 669.626 246.42C667.214 246.42 665.39 248.28 665.39 250.728ZM674.625 255H675.489L679.401 247.14V246.564H673.917V247.308H677.865C678.285 247.308 678.501 247.284 678.501 247.284V247.308C678.501 247.308 678.261 247.632 678.033 248.088L674.625 255ZM680.463 252.576C680.463 254.172 681.795 255.144 683.319 255.144C684.951 255.144 686.115 254.028 686.115 252.708C686.115 251.832 685.587 251.292 684.891 250.896C684.987 250.8 685.923 249.816 685.923 248.616C685.923 247.296 684.915 246.42 683.343 246.42C681.639 246.42 680.799 247.464 680.799 248.556C680.799 249.36 681.243 249.876 681.843 250.272C681.651 250.392 680.463 251.22 680.463 252.576ZM685.263 252.696C685.263 253.692 684.315 254.376 683.319 254.376C682.299 254.376 681.315 253.68 681.315 252.54C681.315 251.46 682.263 250.788 682.527 250.632C683.775 251.232 685.263 251.604 685.263 252.696ZM681.639 248.568C681.639 247.812 682.263 247.188 683.343 247.188C684.363 247.188 685.083 247.752 685.083 248.652C685.083 249.66 684.363 250.416 684.207 250.56C682.995 250.032 681.639 249.66 681.639 248.568ZM687.454 253.992C687.454 253.992 688.474 255.144 690.13 255.144C691.726 255.144 692.902 253.944 692.902 252.504C692.902 250.68 691.33 250.08 690.262 250.02L692.782 247.116V246.564H687.85V247.308H691.018C691.462 247.308 691.702 247.272 691.702 247.272V247.296C691.702 247.296 691.486 247.5 691.258 247.764L689.146 250.236L689.35 250.728H689.926C691.03 250.728 692.05 251.34 692.05 252.528C692.05 253.608 691.126 254.352 690.118 254.352C688.822 254.352 687.958 253.356 687.958 253.356L687.454 253.992Z" fill="#404040"/>
<path d="M596.224 216H597.052V212.448H599.176L601.084 216H602.032L600.196 212.604C600.064 212.376 599.98 212.268 599.98 212.268V212.244C600.928 211.98 601.576 211.104 601.576 209.964C601.576 208.944 601.096 208.14 600.304 207.792C599.968 207.648 599.584 207.564 598.72 207.564H596.224V216ZM597.052 211.704V208.308H598.756C599.404 208.308 599.704 208.38 599.956 208.512C600.448 208.776 600.724 209.292 600.724 209.988C600.724 211.044 600.076 211.704 599.056 211.704H597.052ZM603.195 211.776C603.195 214.284 605.019 216.144 607.323 216.144C609.099 216.144 610.071 215.004 610.071 215.004H610.095C610.095 215.004 610.083 215.184 610.083 215.364V216H610.851V211.968H608.619V212.712H610.059V214.14C610.059 214.14 609.051 215.376 607.407 215.376C605.487 215.376 604.059 213.84 604.059 211.764C604.059 209.76 605.439 208.188 607.479 208.188C609.015 208.188 609.999 209.028 609.999 209.028L610.443 208.404C610.443 208.404 609.399 207.42 607.443 207.42C605.019 207.42 603.195 209.34 603.195 211.776ZM612.853 216H615.829C617.245 216 618.361 215.136 618.361 213.636C618.361 212.616 617.809 211.788 616.945 211.548V211.524C617.593 211.2 618.013 210.564 618.013 209.688C618.013 208.368 617.065 207.564 615.733 207.564H612.853V216ZM613.681 211.224V208.308H615.721C616.621 208.308 617.161 208.884 617.161 209.748C617.161 210.624 616.585 211.224 615.733 211.224H613.681ZM613.681 215.256V211.944H615.829C616.813 211.944 617.497 212.604 617.497 213.612C617.497 214.62 616.861 215.256 615.841 215.256H613.681Z" fill="#404040"/>
<path d="M595.66 231.728C595.66 234.188 597.436 236.144 599.932 236.144C602.008 236.144 603.16 234.836 603.16 234.836L602.68 234.248C602.68 234.248 601.648 235.376 599.944 235.376C597.94 235.376 596.524 233.732 596.524 231.716C596.524 229.724 597.94 228.188 599.92 228.188C601.504 228.188 602.488 229.124 602.488 229.124L602.932 228.512C602.932 228.512 601.912 227.42 599.896 227.42C597.484 227.42 595.66 229.28 595.66 231.728ZM604.69 236H605.518L605.986 230.096C606.022 229.64 606.01 228.896 606.01 228.896H606.034C606.034 228.896 606.298 229.676 606.49 230.096L608.47 234.428H609.25L611.23 230.096C611.422 229.664 611.674 228.92 611.674 228.92H611.698C611.698 228.92 611.686 229.64 611.722 230.096L612.19 236H613.018L612.346 227.564H611.494L609.286 232.52C609.094 232.952 608.866 233.552 608.866 233.552H608.842C608.842 233.552 608.626 232.952 608.434 232.52L606.226 227.564H605.362L604.69 236ZM616.891 236H617.731V232.376L620.563 227.564H619.627L617.839 230.624C617.575 231.068 617.323 231.632 617.323 231.632H617.299C617.299 231.632 617.035 231.056 616.783 230.624L614.995 227.564H614.047L616.891 232.376V236ZM621.982 236H622.81V231.968H624.238L626.65 236H627.622L624.934 231.572V231.548L627.454 227.564H626.506L624.238 231.224H622.81V227.564H621.982V236Z" fill="#404040"/>
<path d="M596.224 255H597.052V251.148H601.948V255H602.776V246.564H601.948V250.404H597.052V246.564H596.224V255ZM605.224 255H610.192V254.256H606.052V251.124H609.256V250.38H606.052V247.308H609.976V246.564H605.224V255ZM611.167 255H612.127L613.855 252.096C614.119 251.652 614.371 251.148 614.371 251.148H614.395C614.395 251.148 614.659 251.652 614.923 252.084L616.675 255H617.635L614.935 250.596L617.407 246.564H616.423L614.935 249.06C614.671 249.492 614.431 250.032 614.431 250.032H614.407C614.407 250.032 614.107 249.492 613.855 249.06L612.379 246.564H611.407L613.855 250.596L611.167 255Z" fill="#404040"/>
<rect x="401" y="37" width="169" height="150" rx="3" fill="#E5AC40"/>
<path d="M447.768 216H453.036V215.256H448.632C448.644 213.012 452.904 212.616 452.904 209.784C452.904 208.464 451.944 207.42 450.336 207.42C448.548 207.42 447.78 208.944 447.78 208.944L448.404 209.364C448.404 209.364 449.052 208.212 450.288 208.212C451.344 208.212 452.04 208.908 452.04 209.832C452.04 212.112 447.72 212.496 447.72 215.46C447.72 215.628 447.732 215.808 447.768 216ZM454.553 216H459.821V215.256H455.417C455.429 213.012 459.689 212.616 459.689 209.784C459.689 208.464 458.729 207.42 457.121 207.42C455.333 207.42 454.565 208.944 454.565 208.944L455.189 209.364C455.189 209.364 455.837 208.212 457.073 208.212C458.129 208.212 458.825 208.908 458.825 209.832C458.825 212.112 454.505 212.496 454.505 215.46C454.505 215.628 454.517 215.808 454.553 216ZM463.21 216.144C465.826 216.144 466.918 213.492 466.918 211.38C466.918 209.1 465.706 207.42 463.87 207.42C462.394 207.42 461.23 208.488 461.23 210.24C461.23 211.836 462.31 212.964 463.846 212.964C464.722 212.964 465.574 212.58 465.994 211.98H466.018C465.862 213.624 464.974 215.364 463.198 215.364C462.502 215.364 461.974 215.064 461.974 215.064L461.662 215.796C461.662 215.796 462.286 216.144 463.21 216.144ZM463.978 212.22C462.826 212.22 462.07 211.428 462.07 210.228C462.07 209.064 462.742 208.2 463.882 208.2C465.142 208.2 466.018 209.652 466.018 210.78C466.018 211.464 465.118 212.22 463.978 212.22ZM471.59 216H476.162V215.256H474.302V207.564H473.534L471.626 209.46L472.154 210L473.054 209.1C473.39 208.776 473.474 208.596 473.474 208.596H473.498C473.498 208.596 473.486 208.824 473.486 209.064V215.256H471.59V216ZM477.672 216H478.536L482.448 208.14V207.564H476.964V208.308H480.912C481.332 208.308 481.548 208.284 481.548 208.284V208.308C481.548 208.308 481.308 208.632 481.08 209.088L477.672 216ZM483.51 216H488.778V215.256H484.374C484.386 213.012 488.646 212.616 488.646 209.784C488.646 208.464 487.686 207.42 486.078 207.42C484.29 207.42 483.522 208.944 483.522 208.944L484.146 209.364C484.146 209.364 484.794 208.212 486.03 208.212C487.086 208.212 487.782 208.908 487.782 209.832C487.782 212.112 483.462 212.496 483.462 215.46C483.462 215.628 483.474 215.808 483.51 216ZM496.578 216.144C498.054 216.144 499.23 215.076 499.23 213.324C499.23 211.728 498.138 210.6 496.602 210.6C495.726 210.6 494.874 210.984 494.466 211.584H494.442C494.586 209.94 495.486 208.2 497.25 208.2C497.946 208.2 498.474 208.5 498.474 208.5L498.786 207.768C498.786 207.768 498.174 207.42 497.238 207.42C494.634 207.42 493.53 210.072 493.53 212.184C493.53 214.464 494.742 216.144 496.578 216.144ZM496.566 215.364C495.306 215.364 494.43 213.912 494.43 212.784C494.43 212.1 495.342 211.344 496.47 211.344C497.622 211.344 498.378 212.136 498.378 213.336C498.378 214.5 497.706 215.364 496.566 215.364ZM500.295 213.66H504.519V216H505.347V213.66H506.547V212.928H505.347V207.564H504.447L500.295 213.12V213.66ZM501.303 212.928V212.904L504.111 209.244C504.339 208.944 504.531 208.608 504.531 208.608H504.555C504.555 208.608 504.519 209.04 504.519 209.4V212.928H501.303Z" fill="#404040"/>
<path d="M450.756 236.144C452.952 236.144 453.66 234.224 453.66 231.776C453.66 229.352 452.952 227.42 450.756 227.42C448.56 227.42 447.84 229.352 447.84 231.776C447.84 234.224 448.56 236.144 450.756 236.144ZM450.756 235.364C449.148 235.364 448.704 233.792 448.704 231.776C448.704 229.772 449.148 228.2 450.756 228.2C452.352 228.2 452.796 229.772 452.796 231.776C452.796 233.792 452.352 235.364 450.756 235.364ZM458.491 236H463.759V235.256H459.355C459.367 233.012 463.627 232.616 463.627 229.784C463.627 228.464 462.667 227.42 461.059 227.42C459.271 227.42 458.503 228.944 458.503 228.944L459.127 229.364C459.127 229.364 459.775 228.212 461.011 228.212C462.067 228.212 462.763 228.908 462.763 229.832C462.763 232.112 458.443 232.496 458.443 235.46C458.443 235.628 458.455 235.808 458.491 236ZM465.156 234.944C465.156 234.944 465.948 236.144 467.628 236.144C469.272 236.144 470.556 234.932 470.556 233.372C470.556 231.848 469.344 230.624 467.652 230.624C466.896 230.624 466.368 230.948 466.368 230.948H466.344C466.344 230.948 466.392 230.768 466.428 230.468L466.668 228.308H470.028V227.564H465.948L465.492 231.656L466.02 231.848C466.02 231.848 466.656 231.392 467.556 231.392C468.756 231.392 469.692 232.22 469.692 233.372C469.692 234.524 468.756 235.352 467.592 235.352C466.308 235.352 465.684 234.368 465.684 234.368L465.156 234.944ZM475.586 236H476.45L480.362 228.14V227.564H474.878V228.308H478.826C479.246 228.308 479.462 228.284 479.462 228.284V228.308C479.462 228.308 479.222 228.632 478.994 229.088L475.586 236ZM481.424 236H486.692V235.256H482.288C482.3 233.012 486.56 232.616 486.56 229.784C486.56 228.464 485.6 227.42 483.992 227.42C482.204 227.42 481.436 228.944 481.436 228.944L482.06 229.364C482.06 229.364 482.708 228.212 483.944 228.212C485 228.212 485.696 228.908 485.696 229.832C485.696 232.112 481.376 232.496 481.376 235.46C481.376 235.628 481.388 235.808 481.424 236ZM491.336 236H495.908V235.256H494.048V227.564H493.28L491.372 229.46L491.9 230L492.8 229.1C493.136 228.776 493.22 228.596 493.22 228.596H493.244C493.244 228.596 493.232 228.824 493.232 229.064V235.256H491.336V236ZM500.01 236.144C502.206 236.144 502.914 234.224 502.914 231.776C502.914 229.352 502.206 227.42 500.01 227.42C497.814 227.42 497.094 229.352 497.094 231.776C497.094 234.224 497.814 236.144 500.01 236.144ZM500.01 235.364C498.402 235.364 497.958 233.792 497.958 231.776C497.958 229.772 498.402 228.2 500.01 228.2C501.606 228.2 502.05 229.772 502.05 231.776C502.05 233.792 501.606 235.364 500.01 235.364Z" fill="#404040"/>
<path d="M448.86 255H449.592L450 252.66H452.076L451.668 255H452.4L452.808 252.66H454.488L454.596 251.988H452.928L453.336 249.636H455.016L455.136 248.964H453.456L453.876 246.564H453.144L452.724 248.964H450.648L451.068 246.564H450.336L449.916 248.964H448.212L448.104 249.636H449.796L449.376 251.988H447.684L447.564 252.66H449.268L448.86 255ZM450.12 251.988L450.528 249.636H452.604L452.184 251.988H450.12ZM456.908 255H461.876V254.256H457.736V251.124H460.94V250.38H457.736V247.308H461.66V246.564H456.908V255ZM463.187 253.944C463.187 253.944 463.979 255.144 465.659 255.144C467.303 255.144 468.587 253.932 468.587 252.372C468.587 250.848 467.375 249.624 465.683 249.624C464.927 249.624 464.399 249.948 464.399 249.948H464.375C464.375 249.948 464.423 249.768 464.459 249.468L464.699 247.308H468.059V246.564H463.979L463.523 250.656L464.051 250.848C464.051 250.848 464.687 250.392 465.587 250.392C466.787 250.392 467.723 251.22 467.723 252.372C467.723 253.524 466.787 254.352 465.623 254.352C464.339 254.352 463.715 253.368 463.715 253.368L463.187 253.944ZM475.59 255H476.466L473.37 246.564H472.482L469.386 255H470.262L471.222 252.312H474.618L475.59 255ZM472.938 247.44C472.938 247.44 473.118 248.136 473.262 248.532L474.366 251.592H471.462L472.59 248.532C472.734 248.136 472.914 247.44 472.914 247.44H472.938ZM477.226 250.728C477.226 253.188 479.002 255.144 481.498 255.144C483.574 255.144 484.726 253.836 484.726 253.836L484.246 253.248C484.246 253.248 483.214 254.376 481.51 254.376C479.506 254.376 478.09 252.732 478.09 250.716C478.09 248.724 479.506 247.188 481.486 247.188C483.07 247.188 484.054 248.124 484.054 248.124L484.498 247.512C484.498 247.512 483.478 246.42 481.462 246.42C479.05 246.42 477.226 248.28 477.226 250.728ZM485.705 252.66H489.929V255H490.757V252.66H491.957V251.928H490.757V246.564H489.857L485.705 252.12V252.66ZM486.713 251.928V251.904L489.521 248.244C489.749 247.944 489.941 247.608 489.941 247.608H489.965C489.965 247.608 489.929 248.04 489.929 248.4V251.928H486.713ZM496.213 255.144C498.409 255.144 499.117 253.224 499.117 250.776C499.117 248.352 498.409 246.42 496.213 246.42C494.017 246.42 493.297 248.352 493.297 250.776C493.297 253.224 494.017 255.144 496.213 255.144ZM496.213 254.364C494.605 254.364 494.161 252.792 494.161 250.776C494.161 248.772 494.605 247.2 496.213 247.2C497.809 247.2 498.253 248.772 498.253 250.776C498.253 252.792 497.809 254.364 496.213 254.364Z" fill="#404040"/>
<path d="M402.224 216H403.052V212.448H405.176L407.084 216H408.032L406.196 212.604C406.064 212.376 405.98 212.268 405.98 212.268V212.244C406.928 211.98 407.576 211.104 407.576 209.964C407.576 208.944 407.096 208.14 406.304 207.792C405.968 207.648 405.584 207.564 404.72 207.564H402.224V216ZM403.052 211.704V208.308H404.756C405.404 208.308 405.704 208.38 405.956 208.512C406.448 208.776 406.724 209.292 406.724 209.988C406.724 211.044 406.076 211.704 405.056 211.704H403.052ZM409.195 211.776C409.195 214.284 411.019 216.144 413.323 216.144C415.099 216.144 416.071 215.004 416.071 215.004H416.095C416.095 215.004 416.083 215.184 416.083 215.364V216H416.851V211.968H414.619V212.712H416.059V214.14C416.059 214.14 415.051 215.376 413.407 215.376C411.487 215.376 410.059 213.84 410.059 211.764C410.059 209.76 411.439 208.188 413.479 208.188C415.015 208.188 415.999 209.028 415.999 209.028L416.443 208.404C416.443 208.404 415.399 207.42 413.443 207.42C411.019 207.42 409.195 209.34 409.195 211.776ZM418.853 216H421.829C423.245 216 424.361 215.136 424.361 213.636C424.361 212.616 423.809 211.788 422.945 211.548V211.524C423.593 211.2 424.013 210.564 424.013 209.688C424.013 208.368 423.065 207.564 421.733 207.564H418.853V216ZM419.681 211.224V208.308H421.721C422.621 208.308 423.161 208.884 423.161 209.748C423.161 210.624 422.585 211.224 421.733 211.224H419.681ZM419.681 215.256V211.944H421.829C422.813 211.944 423.497 212.604 423.497 213.612C423.497 214.62 422.861 215.256 421.841 215.256H419.681Z" fill="#404040"/>
<path d="M401.66 231.728C401.66 234.188 403.436 236.144 405.932 236.144C408.008 236.144 409.16 234.836 409.16 234.836L408.68 234.248C408.68 234.248 407.648 235.376 405.944 235.376C403.94 235.376 402.524 233.732 402.524 231.716C402.524 229.724 403.94 228.188 405.92 228.188C407.504 228.188 408.488 229.124 408.488 229.124L408.932 228.512C408.932 228.512 407.912 227.42 405.896 227.42C403.484 227.42 401.66 229.28 401.66 231.728ZM410.69 236H411.518L411.986 230.096C412.022 229.64 412.01 228.896 412.01 228.896H412.034C412.034 228.896 412.298 229.676 412.49 230.096L414.47 234.428H415.25L417.23 230.096C417.422 229.664 417.674 228.92 417.674 228.92H417.698C417.698 228.92 417.686 229.64 417.722 230.096L418.19 236H419.018L418.346 227.564H417.494L415.286 232.52C415.094 232.952 414.866 233.552 414.866 233.552H414.842C414.842 233.552 414.626 232.952 414.434 232.52L412.226 227.564H411.362L410.69 236ZM422.891 236H423.731V232.376L426.563 227.564H425.627L423.839 230.624C423.575 231.068 423.323 231.632 423.323 231.632H423.299C423.299 231.632 423.035 231.056 422.783 230.624L420.995 227.564H420.047L422.891 232.376V236ZM427.982 236H428.81V231.968H430.238L432.65 236H433.622L430.934 231.572V231.548L433.454 227.564H432.506L430.238 231.224H428.81V227.564H427.982V236Z" fill="#404040"/>
<path d="M402.224 255H403.052V251.148H407.948V255H408.776V246.564H407.948V250.404H403.052V246.564H402.224V255ZM411.224 255H416.192V254.256H412.052V251.124H415.256V250.38H412.052V247.308H415.976V246.564H411.224V255ZM417.167 255H418.127L419.855 252.096C420.119 251.652 420.371 251.148 420.371 251.148H420.395C420.395 251.148 420.659 251.652 420.923 252.084L422.675 255H423.635L420.935 250.596L423.407 246.564H422.423L420.935 249.06C420.671 249.492 420.431 250.032 420.431 250.032H420.407C420.407 250.032 420.107 249.492 419.855 249.06L418.379 246.564H417.407L419.855 250.596L417.167 255Z" fill="#404040"/>
<path d="M257.84 219H264.21V217.796H259.31C259.338 215.542 264.056 215.038 264.056 211.79C264.056 210.082 262.754 208.948 260.934 208.948C258.708 208.948 257.812 210.824 257.812 210.824L258.834 211.51C258.834 211.51 259.534 210.25 260.836 210.25C261.872 210.25 262.614 210.908 262.614 211.888C262.614 214.212 257.77 214.716 257.77 218.244C257.77 218.482 257.798 218.734 257.84 219ZM265.684 217.796C265.684 217.796 266.678 219.168 268.708 219.168C270.71 219.168 272.208 217.74 272.208 215.836C272.208 214.058 270.85 212.616 268.764 212.616C268.036 212.616 267.49 212.924 267.49 212.924H267.462C267.462 212.924 267.518 212.7 267.532 212.406L267.77 210.32H271.55V209.116H266.566L266.076 214.016L266.874 214.31C266.874 214.31 267.574 213.82 268.54 213.82C269.814 213.82 270.794 214.66 270.794 215.85C270.794 217.054 269.786 217.852 268.624 217.852C267.224 217.852 266.454 216.788 266.454 216.788L265.684 217.796ZM273.572 217.796C273.572 217.796 274.566 219.168 276.596 219.168C278.598 219.168 280.096 217.74 280.096 215.836C280.096 214.058 278.738 212.616 276.652 212.616C275.924 212.616 275.378 212.924 275.378 212.924H275.35C275.35 212.924 275.406 212.7 275.42 212.406L275.658 210.32H279.438V209.116H274.454L273.964 214.016L274.762 214.31C274.762 214.31 275.462 213.82 276.428 213.82C277.702 213.82 278.682 214.66 278.682 215.85C278.682 217.054 277.674 217.852 276.512 217.852C275.112 217.852 274.342 216.788 274.342 216.788L273.572 217.796ZM285.225 219H291.595V217.796H286.695C286.723 215.542 291.441 215.038 291.441 211.79C291.441 210.082 290.139 208.948 288.319 208.948C286.093 208.948 285.197 210.824 285.197 210.824L286.219 211.51C286.219 211.51 286.919 210.25 288.221 210.25C289.257 210.25 289.999 210.908 289.999 211.888C289.999 214.212 285.155 214.716 285.155 218.244C285.155 218.482 285.183 218.734 285.225 219ZM292.598 216.354H297.386V219H298.744V216.354H300.088V215.178H298.744V209.116H297.162L292.598 215.486V216.354ZM294.124 215.178V215.15L296.924 211.412C297.19 211.062 297.414 210.6 297.414 210.6H297.442C297.442 210.6 297.386 211.118 297.386 211.58V215.178H294.124ZM305.176 219.168C307.024 219.168 308.354 217.81 308.354 215.864C308.354 214.03 307.108 212.602 305.232 212.602C304.364 212.602 303.468 212.98 303.048 213.54H303.02C303.23 211.902 304.168 210.222 305.988 210.222C306.772 210.222 307.402 210.544 307.402 210.544L307.85 209.354C307.85 209.354 307.094 208.948 305.932 208.948C302.866 208.948 301.48 211.972 301.48 214.506C301.48 217.32 303.062 219.168 305.176 219.168ZM305.162 217.894C303.902 217.894 302.936 216.452 302.936 215.164C302.936 214.45 303.832 213.778 304.952 213.778C306.212 213.778 306.982 214.66 306.982 215.864C306.982 217.012 306.296 217.894 305.162 217.894ZM313.415 219H319.099V217.796H316.943V209.116H315.711L313.345 211.412L314.185 212.28L315.109 211.37C315.473 211.02 315.585 210.796 315.585 210.796H315.613C315.613 210.796 315.599 211.104 315.599 211.412V217.796H313.415V219ZM319.668 216.354H324.456V219H325.814V216.354H327.158V215.178H325.814V209.116H324.232L319.668 215.486V216.354ZM321.194 215.178V215.15L323.994 211.412C324.26 211.062 324.484 210.6 324.484 210.6H324.512C324.512 210.6 324.456 211.118 324.456 211.58V215.178H321.194ZM328.285 217.824C328.285 217.824 329.475 219.168 331.491 219.168C333.521 219.168 334.851 217.684 334.851 215.99C334.851 214.072 333.255 213.232 331.953 213.092L334.641 209.998V209.116H328.733V210.32H332.079C332.625 210.32 332.919 210.278 332.919 210.278V210.306C332.919 210.306 332.625 210.572 332.303 210.95L330.147 213.484L330.469 214.226H331.155C332.373 214.226 333.451 214.828 333.451 216.046C333.451 217.11 332.541 217.852 331.435 217.852C330.007 217.852 329.041 216.774 329.041 216.774L328.285 217.824Z" fill="#404040"/>
<path d="M261.368 240.168C264.014 240.168 264.868 237.9 264.868 235.044C264.868 232.202 264.014 229.948 261.368 229.948C258.736 229.948 257.882 232.202 257.882 235.044C257.882 237.9 258.736 240.168 261.368 240.168ZM261.368 238.894C259.758 238.894 259.296 237.2 259.296 235.044C259.296 232.902 259.758 231.222 261.368 231.222C262.992 231.222 263.454 232.902 263.454 235.044C263.454 237.2 262.992 238.894 261.368 238.894ZM269.78 237.354H274.568V240H275.926V237.354H277.27V236.178H275.926V230.116H274.344L269.78 236.486V237.354ZM271.306 236.178V236.15L274.106 232.412C274.372 232.062 274.596 231.6 274.596 231.6H274.624C274.624 231.6 274.568 232.118 274.568 232.58V236.178H271.306ZM281.866 237.354H286.654V240H288.012V237.354H289.356V236.178H288.012V230.116H286.43L281.866 236.486V237.354ZM283.392 236.178V236.15L286.192 232.412C286.458 232.062 286.682 231.6 286.682 231.6H286.71C286.71 231.6 286.654 232.118 286.654 232.58V236.178H283.392ZM290.356 237.354H295.144V240H296.502V237.354H297.846V236.178H296.502V230.116H294.92L290.356 236.486V237.354ZM291.882 236.178V236.15L294.682 232.412C294.948 232.062 295.172 231.6 295.172 231.6H295.2C295.2 231.6 295.144 232.118 295.144 232.58V236.178H291.882ZM306.376 240.168C309.022 240.168 309.876 237.9 309.876 235.044C309.876 232.202 309.022 229.948 306.376 229.948C303.744 229.948 302.89 232.202 302.89 235.044C302.89 237.9 303.744 240.168 306.376 240.168ZM306.376 238.894C304.766 238.894 304.304 237.2 304.304 235.044C304.304 232.902 304.766 231.222 306.376 231.222C308 231.222 308.462 232.902 308.462 235.044C308.462 237.2 308 238.894 306.376 238.894Z" fill="#404040"/>
<path d="M258.974 261H260.108L260.57 258.326H262.74L262.278 261H263.412L263.888 258.326H265.694L265.876 257.29H264.056L264.476 254.938H266.296L266.478 253.916H264.644L265.134 251.116H264L263.51 253.916H261.34L261.83 251.116H260.696L260.206 253.916H258.386L258.218 254.938H260.024L259.618 257.29H257.784L257.616 258.326H259.436L258.974 261ZM260.752 257.29L261.172 254.938H263.342L262.922 257.29H260.752ZM268.393 261H269.779V256.772H273.237V255.568H269.779V252.32H273.839V251.116H268.393V261ZM275.694 261H277.08V256.772H280.538V255.568H277.08V252.32H281.14V251.116H275.694V261ZM282.994 261H284.38V256.772H287.838V255.568H284.38V252.32H288.44V251.116H282.994V261ZM293.473 261.168C295.321 261.168 296.651 259.81 296.651 257.864C296.651 256.03 295.405 254.602 293.529 254.602C292.661 254.602 291.765 254.98 291.345 255.54H291.317C291.527 253.902 292.465 252.222 294.285 252.222C295.069 252.222 295.699 252.544 295.699 252.544L296.147 251.354C296.147 251.354 295.391 250.948 294.229 250.948C291.163 250.948 289.777 253.972 289.777 256.506C289.777 259.32 291.359 261.168 293.473 261.168ZM293.459 259.894C292.199 259.894 291.233 258.452 291.233 257.164C291.233 256.45 292.129 255.778 293.249 255.778C294.509 255.778 295.279 256.66 295.279 257.864C295.279 259.012 294.593 259.894 293.459 259.894ZM298.13 258.144C298.13 259.936 299.6 261.168 301.574 261.168C303.632 261.168 304.962 259.81 304.962 258.27C304.962 257.248 304.374 256.632 303.618 256.17C303.744 256.03 304.794 254.91 304.794 253.594C304.794 251.97 303.52 250.948 301.686 250.948C299.6 250.948 298.606 252.222 298.606 253.538C298.606 254.448 299.068 255.05 299.712 255.512C299.446 255.694 298.13 256.632 298.13 258.144ZM303.534 258.228C303.534 259.25 302.61 259.922 301.574 259.922C300.524 259.922 299.544 259.194 299.544 258.06C299.544 256.996 300.412 256.324 300.734 256.1C302.064 256.744 303.534 257.164 303.534 258.228ZM299.978 253.566C299.978 252.81 300.58 252.194 301.672 252.194C302.708 252.194 303.436 252.768 303.436 253.678C303.436 254.714 302.722 255.47 302.568 255.624C301.294 255.078 299.978 254.658 299.978 253.566ZM307.18 261H308.566V256.772H312.024V255.568H308.566V252.32H312.626V251.116H307.18V261Z" fill="#404040"/>
<path d="M208.344 219H209.73V215.066H211.844L213.93 219H215.498L213.398 215.164C213.216 214.842 213.104 214.716 213.104 214.716V214.688C214.182 214.338 214.882 213.274 214.882 212.014C214.882 210.712 214.224 209.718 213.216 209.34C212.838 209.2 212.404 209.116 211.368 209.116H208.344V219ZM209.73 213.862V210.32H211.326C212.096 210.32 212.418 210.404 212.684 210.544C213.188 210.824 213.468 211.342 213.468 212.07C213.468 213.176 212.796 213.862 211.718 213.862H209.73ZM216.655 214.044C216.655 217.068 218.853 219.168 221.513 219.168C223.473 219.168 224.551 217.964 224.551 217.964H224.579C224.579 217.964 224.565 218.174 224.565 218.384V219H225.783V214.03H222.913V215.234H224.523V216.662C224.523 216.662 223.431 217.894 221.723 217.894C219.651 217.894 218.083 216.312 218.083 214.016C218.083 211.902 219.483 210.208 221.807 210.208C223.487 210.208 224.593 211.174 224.593 211.174L225.293 210.138C225.293 210.138 224.061 208.948 221.695 208.948C218.811 208.948 216.655 211.188 216.655 214.044ZM227.949 219H231.491C233.227 219 234.669 218.048 234.669 216.186C234.669 215.08 234.081 214.1 233.045 213.792V213.764C233.801 213.372 234.277 212.602 234.277 211.636C234.277 210.04 233.073 209.116 231.407 209.116H227.949V219ZM229.335 213.274V210.32H231.379C232.331 210.32 232.863 210.908 232.863 211.776C232.863 212.644 232.303 213.274 231.407 213.274H229.335ZM229.335 217.796V214.422H231.547C232.583 214.422 233.255 215.108 233.255 216.116C233.255 217.124 232.625 217.796 231.561 217.796H229.335Z" fill="#404040"/>
<path d="M207.672 235.002C207.672 237.9 209.758 240.168 212.726 240.168C215.204 240.168 216.562 238.6 216.562 238.6L215.82 237.606C215.82 237.606 214.63 238.894 212.768 238.894C210.57 238.894 209.1 237.102 209.1 234.988C209.1 232.888 210.542 231.208 212.754 231.208C214.462 231.208 215.61 232.286 215.61 232.286L216.296 231.25C216.296 231.25 215.078 229.948 212.698 229.948C209.828 229.948 207.672 232.132 207.672 235.002ZM218.14 240H219.526L220.002 233.77C220.044 233.168 220.03 232.286 220.03 232.286H220.058C220.058 232.286 220.366 233.238 220.59 233.77L222.55 238.222H223.782L225.756 233.77C225.994 233.224 226.288 232.314 226.288 232.314H226.316C226.316 232.314 226.288 233.168 226.33 233.77L226.82 240H228.192L227.394 230.116H225.938L223.67 235.464C223.446 236.01 223.18 236.794 223.18 236.794H223.152C223.152 236.794 222.886 236.01 222.662 235.464L220.394 230.116H218.938L218.14 240ZM232.524 240H233.91V235.814L237.214 230.116H235.646L233.84 233.364C233.532 233.924 233.238 234.61 233.238 234.61H233.21C233.21 234.61 232.916 233.91 232.608 233.364L230.774 230.116H229.206L232.524 235.814V240ZM238.668 240H240.054V235.464H241.524L244.156 240H245.724L242.672 234.834V234.806L245.542 230.116H244.016L241.524 234.274H240.054V230.116H238.668V240Z" fill="#404040"/>
<path d="M208.344 261H209.73V256.66H214.854V261H216.24V251.116H214.854V255.456H209.73V251.116H208.344V261ZM218.926 261H224.904V259.796H220.312V256.618H223.854V255.414H220.312V252.32H224.666V251.116H218.926V261ZM225.915 261H227.469L229.261 257.962C229.583 257.416 229.849 256.828 229.849 256.828H229.877C229.877 256.828 230.185 257.402 230.507 257.962L232.299 261H233.867L230.745 255.904L233.671 251.116H232.075L230.521 253.79C230.199 254.336 229.919 254.966 229.919 254.966H229.891C229.891 254.966 229.569 254.322 229.261 253.79L227.707 251.116H226.111L229.037 255.904L225.915 261Z" fill="#404040"/>
<path d="M97.5 292.5L13.0625 146.25L181.937 146.25L97.5 292.5Z" fill="#FFF68F"/>
<path d="M257.84 40H264.21V38.796H259.31C259.338 36.542 264.056 36.038 264.056 32.79C264.056 31.082 262.754 29.948 260.934 29.948C258.708 29.948 257.812 31.824 257.812 31.824L258.834 32.51C258.834 32.51 259.534 31.25 260.836 31.25C261.872 31.25 262.614 31.908 262.614 32.888C262.614 35.212 257.77 35.716 257.77 39.244C257.77 39.482 257.798 39.734 257.84 40ZM265.684 38.796C265.684 38.796 266.678 40.168 268.708 40.168C270.71 40.168 272.208 38.74 272.208 36.836C272.208 35.058 270.85 33.616 268.764 33.616C268.036 33.616 267.49 33.924 267.49 33.924H267.462C267.462 33.924 267.518 33.7 267.532 33.406L267.77 31.32H271.55V30.116H266.566L266.076 35.016L266.874 35.31C266.874 35.31 267.574 34.82 268.54 34.82C269.814 34.82 270.794 35.66 270.794 36.85C270.794 38.054 269.786 38.852 268.624 38.852C267.224 38.852 266.454 37.788 266.454 37.788L265.684 38.796ZM273.572 38.796C273.572 38.796 274.566 40.168 276.596 40.168C278.598 40.168 280.096 38.74 280.096 36.836C280.096 35.058 278.738 33.616 276.652 33.616C275.924 33.616 275.378 33.924 275.378 33.924H275.35C275.35 33.924 275.406 33.7 275.42 33.406L275.658 31.32H279.438V30.116H274.454L273.964 35.016L274.762 35.31C274.762 35.31 275.462 34.82 276.428 34.82C277.702 34.82 278.682 35.66 278.682 36.85C278.682 38.054 277.674 38.852 276.512 38.852C275.112 38.852 274.342 37.788 274.342 37.788L273.572 38.796ZM285.225 40H291.595V38.796H286.695C286.723 36.542 291.441 36.038 291.441 32.79C291.441 31.082 290.139 29.948 288.319 29.948C286.093 29.948 285.197 31.824 285.197 31.824L286.219 32.51C286.219 32.51 286.919 31.25 288.221 31.25C289.257 31.25 289.999 31.908 289.999 32.888C289.999 35.212 285.155 35.716 285.155 39.244C285.155 39.482 285.183 39.734 285.225 40ZM296.764 40.168C299.41 40.168 300.264 37.9 300.264 35.044C300.264 32.202 299.41 29.948 296.764 29.948C294.132 29.948 293.278 32.202 293.278 35.044C293.278 37.9 294.132 40.168 296.764 40.168ZM296.764 38.894C295.154 38.894 294.692 37.2 294.692 35.044C294.692 32.902 295.154 31.222 296.764 31.222C298.388 31.222 298.85 32.902 298.85 35.044C298.85 37.2 298.388 38.894 296.764 38.894ZM301.706 38.824C301.706 38.824 302.896 40.168 304.912 40.168C306.942 40.168 308.272 38.684 308.272 36.99C308.272 35.072 306.676 34.232 305.374 34.092L308.062 30.998V30.116H302.154V31.32H305.5C306.046 31.32 306.34 31.278 306.34 31.278V31.306C306.34 31.306 306.046 31.572 305.724 31.95L303.568 34.484L303.89 35.226H304.576C305.794 35.226 306.872 35.828 306.872 37.046C306.872 38.11 305.962 38.852 304.856 38.852C303.428 38.852 302.462 37.774 302.462 37.774L301.706 38.824ZM313.358 38.796C313.358 38.796 314.352 40.168 316.382 40.168C318.384 40.168 319.882 38.74 319.882 36.836C319.882 35.058 318.524 33.616 316.438 33.616C315.71 33.616 315.164 33.924 315.164 33.924H315.136C315.136 33.924 315.192 33.7 315.206 33.406L315.444 31.32H319.224V30.116H314.24L313.75 35.016L314.548 35.31C314.548 35.31 315.248 34.82 316.214 34.82C317.488 34.82 318.468 35.66 318.468 36.85C318.468 38.054 317.46 38.852 316.298 38.852C314.898 38.852 314.128 37.788 314.128 37.788L313.358 38.796ZM321.372 37.144C321.372 38.936 322.842 40.168 324.816 40.168C326.874 40.168 328.204 38.81 328.204 37.27C328.204 36.248 327.616 35.632 326.86 35.17C326.986 35.03 328.036 33.91 328.036 32.594C328.036 30.97 326.762 29.948 324.928 29.948C322.842 29.948 321.848 31.222 321.848 32.538C321.848 33.448 322.31 34.05 322.954 34.512C322.688 34.694 321.372 35.632 321.372 37.144ZM326.776 37.228C326.776 38.25 325.852 38.922 324.816 38.922C323.766 38.922 322.786 38.194 322.786 37.06C322.786 35.996 323.654 35.324 323.976 35.1C325.306 35.744 326.776 36.164 326.776 37.228ZM323.22 32.566C323.22 31.81 323.822 31.194 324.914 31.194C325.95 31.194 326.678 31.768 326.678 32.678C326.678 33.714 325.964 34.47 325.81 34.624C324.536 34.078 323.22 33.658 323.22 32.566Z" fill="#404040"/>
<path d="M261.368 61.168C264.014 61.168 264.868 58.9 264.868 56.044C264.868 53.202 264.014 50.948 261.368 50.948C258.736 50.948 257.882 53.202 257.882 56.044C257.882 58.9 258.736 61.168 261.368 61.168ZM261.368 59.894C259.758 59.894 259.296 58.2 259.296 56.044C259.296 53.902 259.758 52.222 261.368 52.222C262.992 52.222 263.454 53.902 263.454 56.044C263.454 58.2 262.992 59.894 261.368 59.894ZM270.186 61H276.556V59.796H271.656C271.684 57.542 276.402 57.038 276.402 53.79C276.402 52.082 275.1 50.948 273.28 50.948C271.054 50.948 270.158 52.824 270.158 52.824L271.18 53.51C271.18 53.51 271.88 52.25 273.182 52.25C274.218 52.25 274.96 52.908 274.96 53.888C274.96 56.212 270.116 56.716 270.116 60.244C270.116 60.482 270.144 60.734 270.186 61ZM281.725 61.168C284.371 61.168 285.225 58.9 285.225 56.044C285.225 53.202 284.371 50.948 281.725 50.948C279.093 50.948 278.239 53.202 278.239 56.044C278.239 58.9 279.093 61.168 281.725 61.168ZM281.725 59.894C280.115 59.894 279.653 58.2 279.653 56.044C279.653 53.902 280.115 52.222 281.725 52.222C283.349 52.222 283.811 53.902 283.811 56.044C283.811 58.2 283.349 59.894 281.725 59.894ZM290.907 61H292.335L296.801 52.068V51.116H290.193V52.32H294.603C295.107 52.32 295.331 52.278 295.331 52.278V52.306C295.331 52.306 295.037 52.656 294.757 53.216L290.907 61ZM298.317 61H299.745L304.211 52.068V51.116H297.603V52.32H302.013C302.517 52.32 302.741 52.278 302.741 52.278V52.306C302.741 52.306 302.447 52.656 302.167 53.216L298.317 61ZM312.487 61.168C315.133 61.168 315.987 58.9 315.987 56.044C315.987 53.202 315.133 50.948 312.487 50.948C309.855 50.948 309.001 53.202 309.001 56.044C309.001 58.9 309.855 61.168 312.487 61.168ZM312.487 59.894C310.877 59.894 310.415 58.2 310.415 56.044C310.415 53.902 310.877 52.222 312.487 52.222C314.111 52.222 314.573 53.902 314.573 56.044C314.573 58.2 314.111 59.894 312.487 59.894Z" fill="#404040"/>
<path d="M258.974 82H260.108L260.57 79.326H262.74L262.278 82H263.412L263.888 79.326H265.694L265.876 78.29H264.056L264.476 75.938H266.296L266.478 74.916H264.644L265.134 72.116H264L263.51 74.916H261.34L261.83 72.116H260.696L260.206 74.916H258.386L258.218 75.938H260.024L259.618 78.29H257.784L257.616 79.326H259.436L258.974 82ZM260.752 78.29L261.172 75.938H263.342L262.922 78.29H260.752ZM268.393 82H269.779V77.772H273.237V76.568H269.779V73.32H273.839V72.116H268.393V82ZM275.694 82H277.08V77.772H280.538V76.568H277.08V73.32H281.14V72.116H275.694V82ZM282.322 77.002C282.322 79.9 284.408 82.168 287.376 82.168C289.854 82.168 291.212 80.6 291.212 80.6L290.47 79.606C290.47 79.606 289.28 80.894 287.418 80.894C285.22 80.894 283.75 79.102 283.75 76.988C283.75 74.888 285.192 73.208 287.404 73.208C289.112 73.208 290.26 74.286 290.26 74.286L290.946 73.25C290.946 73.25 289.728 71.948 287.348 71.948C284.478 71.948 282.322 74.132 282.322 77.002ZM293.098 82H296.64C298.376 82 299.818 81.048 299.818 79.186C299.818 78.08 299.23 77.1 298.194 76.792V76.764C298.95 76.372 299.426 75.602 299.426 74.636C299.426 73.04 298.222 72.116 296.556 72.116H293.098V82ZM294.484 76.274V73.32H296.528C297.48 73.32 298.012 73.908 298.012 74.776C298.012 75.644 297.452 76.274 296.556 76.274H294.484ZM294.484 80.796V77.422H296.696C297.732 77.422 298.404 78.108 298.404 79.116C298.404 80.124 297.774 80.796 296.71 80.796H294.484ZM301.187 80.824C301.187 80.824 302.377 82.168 304.393 82.168C306.423 82.168 307.753 80.684 307.753 78.99C307.753 77.072 306.157 76.232 304.855 76.092L307.543 72.998V72.116H301.635V73.32H304.981C305.527 73.32 305.821 73.278 305.821 73.278V73.306C305.821 73.306 305.527 73.572 305.205 73.95L303.049 76.484L303.371 77.226H304.057C305.275 77.226 306.353 77.828 306.353 79.046C306.353 80.11 305.443 80.852 304.337 80.852C302.909 80.852 301.943 79.774 301.943 79.774L301.187 80.824ZM315.808 82H317.25L313.694 72.116H312.238L308.682 82H310.11L311.09 79.158H314.814L315.808 82ZM312.98 73.474C312.98 73.474 313.19 74.37 313.358 74.874L314.45 78.01H311.454L312.56 74.874C312.728 74.37 312.952 73.474 312.952 73.474H312.98Z" fill="#404040"/>
<path d="M208.344 40H209.73V36.066H211.844L213.93 40H215.498L213.398 36.164C213.216 35.842 213.104 35.716 213.104 35.716V35.688C214.182 35.338 214.882 34.274 214.882 33.014C214.882 31.712 214.224 30.718 213.216 30.34C212.838 30.2 212.404 30.116 211.368 30.116H208.344V40ZM209.73 34.862V31.32H211.326C212.096 31.32 212.418 31.404 212.684 31.544C213.188 31.824 213.468 32.342 213.468 33.07C213.468 34.176 212.796 34.862 211.718 34.862H209.73ZM216.655 35.044C216.655 38.068 218.853 40.168 221.513 40.168C223.473 40.168 224.551 38.964 224.551 38.964H224.579C224.579 38.964 224.565 39.174 224.565 39.384V40H225.783V35.03H222.913V36.234H224.523V37.662C224.523 37.662 223.431 38.894 221.723 38.894C219.651 38.894 218.083 37.312 218.083 35.016C218.083 32.902 219.483 31.208 221.807 31.208C223.487 31.208 224.593 32.174 224.593 32.174L225.293 31.138C225.293 31.138 224.061 29.948 221.695 29.948C218.811 29.948 216.655 32.188 216.655 35.044ZM227.949 40H231.491C233.227 40 234.669 39.048 234.669 37.186C234.669 36.08 234.081 35.1 233.045 34.792V34.764C233.801 34.372 234.277 33.602 234.277 32.636C234.277 31.04 233.073 30.116 231.407 30.116H227.949V40ZM229.335 34.274V31.32H231.379C232.331 31.32 232.863 31.908 232.863 32.776C232.863 33.644 232.303 34.274 231.407 34.274H229.335ZM229.335 38.796V35.422H231.547C232.583 35.422 233.255 36.108 233.255 37.116C233.255 38.124 232.625 38.796 231.561 38.796H229.335Z" fill="#404040"/>
<path d="M207.672 56.002C207.672 58.9 209.758 61.168 212.726 61.168C215.204 61.168 216.562 59.6 216.562 59.6L215.82 58.606C215.82 58.606 214.63 59.894 212.768 59.894C210.57 59.894 209.1 58.102 209.1 55.988C209.1 53.888 210.542 52.208 212.754 52.208C214.462 52.208 215.61 53.286 215.61 53.286L216.296 52.25C216.296 52.25 215.078 50.948 212.698 50.948C209.828 50.948 207.672 53.132 207.672 56.002ZM218.14 61H219.526L220.002 54.77C220.044 54.168 220.03 53.286 220.03 53.286H220.058C220.058 53.286 220.366 54.238 220.59 54.77L222.55 59.222H223.782L225.756 54.77C225.994 54.224 226.288 53.314 226.288 53.314H226.316C226.316 53.314 226.288 54.168 226.33 54.77L226.82 61H228.192L227.394 51.116H225.938L223.67 56.464C223.446 57.01 223.18 57.794 223.18 57.794H223.152C223.152 57.794 222.886 57.01 222.662 56.464L220.394 51.116H218.938L218.14 61ZM232.524 61H233.91V56.814L237.214 51.116H235.646L233.84 54.364C233.532 54.924 233.238 55.61 233.238 55.61H233.21C233.21 55.61 232.916 54.91 232.608 54.364L230.774 51.116H229.206L232.524 56.814V61ZM238.668 61H240.054V56.464H241.524L244.156 61H245.724L242.672 55.834V55.806L245.542 51.116H244.016L241.524 55.274H240.054V51.116H238.668V61Z" fill="#404040"/>
<path d="M208.344 82H209.73V77.66H214.854V82H216.24V72.116H214.854V76.456H209.73V72.116H208.344V82ZM218.926 82H224.904V80.796H220.312V77.618H223.854V76.414H220.312V73.32H224.666V72.116H218.926V82ZM225.915 82H227.469L229.261 78.962C229.583 78.416 229.849 77.828 229.849 77.828H229.877C229.877 77.828 230.185 78.402 230.507 78.962L232.299 82H233.867L230.745 76.904L233.671 72.116H232.075L230.521 74.79C230.199 75.336 229.919 75.966 229.919 75.966H229.891C229.891 75.966 229.569 75.322 229.261 74.79L227.707 72.116H226.111L229.037 76.904L225.915 82Z" fill="#404040"/>
<path d="M97.5 0L181.937 146.25H13.0625L97.5 0Z" fill="#FFCB3A"/>
</svg>
