<svg width="750" height="308" viewBox="0 0 750 308" fill="none" xmlns="http://www.w3.org/2000/svg">
<g clip-path="url(#clip0_2877_1060)">
<path d="M62.0107 121.94H1V183.336H62.0107V121.94Z" fill="#EC008C"/>
<path d="M283.258 122.033C298.015 122.033 305.328 130.753 305.328 130.753L299.987 138.705C295.628 134.4 289.81 131.953 283.728 131.867C271.883 131.867 263.277 140.825 263.277 153.07C263.277 165.315 271.883 174.512 284.068 174.512C294.985 174.512 302.194 166.561 302.194 166.561L306.725 174.923C306.725 174.923 298.589 184.464 283.219 184.464C264.753 184.464 251.746 171.212 251.746 153.242C251.785 135.537 264.74 122.033 283.258 122.033Z" fill="#808285"/>
<path d="M344.585 122.033C362.123 122.033 376.292 135.113 376.292 153.15C376.292 171.186 362.123 184.491 344.585 184.491C327.046 184.491 312.877 171.239 312.877 153.15C312.877 135.06 327.046 122.033 344.585 122.033ZM344.585 174.592C355.737 174.592 364.787 165.633 364.787 153.15C364.787 140.666 355.737 131.946 344.585 131.946C333.432 131.946 324.369 140.785 324.369 153.15C324.369 165.514 333.55 174.592 344.585 174.592Z" fill="#808285"/>
<path d="M387.287 123.451H398.165V133.815C398.165 135.31 398.091 136.805 397.943 138.294H398.165C400.843 129.574 407.699 122.749 416.749 122.749C417.723 122.755 418.696 122.831 419.661 122.974V134.292C418.592 134.061 417.502 133.941 416.409 133.934C409.2 133.934 402.579 139.129 399.915 147.968C398.924 151.45 398.452 155.064 398.518 158.689V183.086H387.287V123.451Z" fill="#808285"/>
<path d="M453.459 122.033C470.057 122.033 478.885 134.53 478.885 149.969C478.885 151.493 478.546 154.912 478.546 154.912H435.685C436.26 167.992 445.44 174.592 455.888 174.592C465.996 174.592 473.309 167.647 473.309 167.647L477.958 176.01C471.609 181.5 463.537 184.508 455.196 184.491C436.73 184.491 424.062 170.947 424.062 153.269C424.062 134.292 436.73 122.033 453.459 122.033ZM467.393 146.311C467.04 136.054 460.772 131.111 453.224 131.111C444.631 131.111 437.657 136.531 436.038 146.311H467.393Z" fill="#808285"/>
<path d="M490.273 123.451H500.603V128.514C500.603 130.873 500.381 132.874 500.381 132.874H500.603C500.603 132.874 505.605 122.033 520.349 122.033C536.15 122.033 546.141 134.769 546.141 153.269C546.141 172.246 534.871 184.491 519.539 184.491C515.958 184.604 512.41 183.761 509.252 182.044C506.093 180.328 503.435 177.799 501.543 174.711H501.308C501.473 176.437 501.552 178.171 501.543 179.906V206.635H490.273V123.451ZM517.802 174.711C527.087 174.711 534.779 166.932 534.779 153.388C534.779 140.414 527.923 132.052 518.168 132.052C509.34 132.052 501.191 138.294 501.191 153.507C501.191 164.109 506.989 174.711 517.802 174.711Z" fill="#58595B"/>
<path d="M556.939 99.8757H568.196V164.811C568.196 172.007 570.991 173.306 574.465 173.306C575.128 173.304 575.791 173.264 576.45 173.187V183.311C575.215 183.465 573.972 183.545 572.728 183.55C566.342 183.55 556.939 181.787 556.939 166.812V99.8757Z" fill="#58595B"/>
<path d="M585.279 123.451H596.536V159.047C596.536 167.29 598.169 173.889 607.571 173.889C619.534 173.889 626.625 163.168 626.625 151.36V123.451H637.882V183.086H626.964V175.135C626.961 173.678 627.04 172.223 627.199 170.775H626.964C625.021 174.904 621.955 178.384 618.129 180.804C614.302 183.225 609.873 184.486 605.364 184.438C592.122 184.438 585.279 177.374 585.279 161.578V123.451Z" fill="#58595B"/>
<path d="M653.904 167.647C658.471 172.003 664.471 174.479 670.737 174.592C675.622 174.592 680.493 171.941 680.493 167.17C680.493 156.211 650.3 158.45 650.3 139.009C650.3 128.169 659.82 122.033 671.547 122.033C684.45 122.033 690.483 128.66 690.483 128.66L685.951 137.26C681.928 133.733 676.758 131.845 671.443 131.959C666.558 131.959 661.792 134.08 661.792 139.275C661.792 149.996 691.998 147.637 691.998 167.197C691.998 177.096 683.627 184.517 670.737 184.517C662.469 184.683 654.465 181.552 648.445 175.797L653.904 167.647Z" fill="#58595B"/>
<path d="M496.959 232.02C499.63 232.02 501.827 229.727 501.827 225.814C501.827 221.9 499.867 219.639 497.086 219.639C494.557 219.639 492.186 221.483 492.186 225.846C492.186 228.941 493.877 232.02 497.007 232.02H496.959ZM490.227 218.115H492.186V219.607C492.208 220.008 492.208 220.409 492.186 220.81C492.667 219.836 493.419 219.026 494.349 218.482C495.279 217.937 496.346 217.681 497.418 217.747C501.495 217.747 504.024 221.05 504.024 225.766C504.024 230.481 501.163 233.785 497.244 233.785C496.229 233.814 495.226 233.555 494.349 233.037C493.472 232.518 492.756 231.76 492.281 230.85C492.304 231.298 492.304 231.748 492.281 232.197V239.574H490.227V218.115Z" fill="#808285"/>
<path d="M507.879 218.115H509.902V220.842C509.923 221.248 509.923 221.654 509.902 222.06C510.143 220.946 510.737 219.943 511.593 219.204C512.45 218.465 513.521 218.032 514.644 217.971C514.914 217.974 515.184 218.001 515.45 218.051V220.104C515.197 220.084 514.944 220.084 514.691 220.104C513.631 220.189 512.628 220.624 511.835 221.342C511.041 222.06 510.501 223.022 510.298 224.081C510.014 225.055 509.876 226.065 509.887 227.08V233.496H507.832L507.879 218.115Z" fill="#808285"/>
<path d="M522.848 232.084C525.74 232.084 527.479 229.021 527.479 226.375V225.701H526.578C524.191 225.701 519.434 225.781 519.434 229.181C519.453 229.603 519.557 230.016 519.741 230.395C519.924 230.774 520.183 231.11 520.5 231.383C520.818 231.655 521.188 231.858 521.586 231.979C521.985 232.1 522.403 232.135 522.816 232.084H522.848ZM526.609 223.985H527.447V223.536C527.532 223.008 527.494 222.468 527.338 221.957C527.181 221.447 526.91 220.98 526.545 220.594C526.18 220.208 525.732 219.914 525.236 219.734C524.739 219.554 524.209 219.494 523.686 219.558C522.146 219.582 520.652 220.099 519.418 221.034L518.454 219.43C520.007 218.25 521.905 217.635 523.844 217.682C527.479 217.682 529.502 219.735 529.502 223.584V233.431H527.542V231.747C527.518 231.32 527.518 230.892 527.542 230.464C527.112 231.459 526.403 232.304 525.504 232.895C524.605 233.485 523.555 233.794 522.484 233.784C519.956 233.784 517.332 232.293 517.332 229.245C517.332 224.049 523.986 223.921 526.609 223.921" fill="#808285"/>
<path d="M541.15 217.746C542.174 217.709 543.194 217.885 544.148 218.263C545.102 218.641 545.97 219.213 546.698 219.944L545.639 221.547C544.458 220.365 542.872 219.692 541.214 219.671C540.419 219.657 539.629 219.808 538.895 220.116C538.16 220.424 537.495 220.881 536.941 221.46C536.387 222.038 535.956 222.726 535.674 223.48C535.392 224.235 535.266 225.04 535.303 225.846C535.275 226.655 535.409 227.461 535.698 228.216C535.987 228.97 536.424 229.657 536.983 230.235C537.542 230.812 538.211 231.269 538.949 231.576C539.687 231.883 540.479 232.034 541.277 232.02C542.186 232.014 543.084 231.818 543.916 231.446C544.748 231.074 545.495 230.532 546.113 229.855L547.046 231.459C546.275 232.244 545.355 232.863 544.341 233.276C543.328 233.69 542.242 233.89 541.15 233.865C539.055 233.865 537.045 233.02 535.563 231.516C534.081 230.012 533.248 227.972 533.248 225.846C533.248 223.719 534.081 221.679 535.563 220.175C537.045 218.671 539.055 217.827 541.15 217.827" fill="#808285"/>
<path d="M551.359 220.04H549.367V218.308H551.39V213.913H553.445V218.356H557.238V220.088H553.445V227.738C553.445 231.331 555.705 231.796 556.843 231.796C557.074 231.82 557.307 231.82 557.538 231.796V233.656C557.249 233.681 556.958 233.681 556.669 233.656C554.93 233.656 551.406 233.079 551.406 227.947L551.359 220.04Z" fill="#808285"/>
<path d="M560.874 218.115H562.929V233.48H560.874V218.115ZM560.874 212.005H562.929V214.603H560.795L560.874 212.005Z" fill="#808285"/>
<path d="M574.751 217.746C575.774 217.709 576.794 217.885 577.748 218.263C578.702 218.641 579.57 219.213 580.298 219.944L579.239 221.547C578.058 220.365 576.472 219.692 574.814 219.671C573.2 219.671 571.652 220.321 570.511 221.479C569.37 222.637 568.729 224.208 568.729 225.846C568.729 227.483 569.37 229.054 570.511 230.212C571.652 231.37 573.2 232.02 574.814 232.02C575.725 232.015 576.626 231.82 577.461 231.448C578.295 231.075 579.046 230.533 579.666 229.855L580.598 231.459C579.827 232.244 578.908 232.863 577.894 233.276C576.881 233.69 575.795 233.89 574.703 233.865C572.607 233.865 570.597 233.02 569.115 231.516C567.633 230.012 566.801 227.972 566.801 225.846C566.801 223.719 567.633 221.679 569.115 220.175C570.597 218.671 572.607 217.827 574.703 217.827" fill="#808285"/>
<path d="M595.044 224.193C594.918 220.986 592.99 219.494 590.729 219.494C589.439 219.468 588.186 219.938 587.221 220.809C586.257 221.68 585.653 222.889 585.53 224.193H595.044ZM590.793 217.778C594.981 217.778 597.115 220.986 597.115 224.867C597.115 225.236 597.115 225.942 597.115 225.942H585.498C585.458 226.741 585.582 227.54 585.862 228.288C586.142 229.036 586.572 229.718 587.125 230.289C587.677 230.86 588.34 231.309 589.072 231.607C589.804 231.905 590.589 232.045 591.377 232.02C593.082 231.986 594.716 231.325 595.977 230.16L596.909 231.763C595.352 233.124 593.369 233.88 591.314 233.896C590.267 233.932 589.224 233.749 588.249 233.359C587.274 232.969 586.389 232.379 585.648 231.627C584.907 230.875 584.326 229.977 583.942 228.988C583.557 227.999 583.377 226.94 583.412 225.877C583.342 224.844 583.484 223.807 583.828 222.832C584.172 221.857 584.712 220.964 585.413 220.211C586.113 219.458 586.96 218.86 587.9 218.455C588.839 218.05 589.851 217.847 590.872 217.858" fill="#808285"/>
<path d="M609.125 212.005H611.18V220.329C611.201 220.745 611.201 221.163 611.18 221.58C611.71 220.419 612.562 219.44 613.631 218.762C614.7 218.085 615.941 217.737 617.201 217.763C620.931 217.763 622.259 219.944 622.259 223.729V233.512H620.204V224.274C620.204 221.868 619.856 219.719 616.933 219.719C615.667 219.734 614.442 220.171 613.445 220.962C612.448 221.753 611.736 222.855 611.417 224.098C611.238 224.761 611.158 225.447 611.18 226.135V233.512H609.125V212.005Z" fill="#808285"/>
<path d="M631.22 232.084C634.113 232.084 635.867 229.021 635.867 226.375V225.701H634.998C632.611 225.701 627.854 225.781 627.854 229.181C627.873 229.602 627.977 230.013 628.159 230.391C628.342 230.768 628.599 231.104 628.915 231.376C629.231 231.648 629.598 231.852 629.995 231.974C630.392 232.096 630.809 232.133 631.22 232.084ZM635.013 223.985H635.867V223.536C635.952 223.008 635.914 222.468 635.758 221.957C635.601 221.447 635.33 220.98 634.965 220.594C634.6 220.208 634.152 219.914 633.655 219.734C633.159 219.555 632.629 219.494 632.105 219.559C630.561 219.584 629.063 220.1 627.822 221.034L626.858 219.43C628.412 218.254 630.309 217.639 632.248 217.682C635.899 217.682 637.906 219.735 637.906 223.584V233.432H635.962V231.748C635.962 230.978 635.962 230.465 635.962 230.465C635.531 231.462 634.82 232.309 633.917 232.899C633.015 233.49 631.962 233.797 630.888 233.784C628.36 233.784 625.752 232.293 625.752 229.246C625.752 224.049 632.406 223.921 635.013 223.921" fill="#808285"/>
<path d="M649.442 232.02C652.129 232.02 654.326 229.727 654.326 225.814C654.326 221.9 652.366 219.639 649.584 219.639C647.056 219.639 644.669 221.483 644.669 225.846C644.669 228.941 646.36 232.02 649.49 232.02H649.442ZM642.678 218.115H644.638V219.607C644.659 220.007 644.659 220.409 644.638 220.81C645.121 219.834 645.876 219.024 646.808 218.48C647.741 217.935 648.811 217.68 649.885 217.746C653.946 217.746 656.475 221.05 656.475 225.765C656.475 230.481 653.615 233.785 649.695 233.785C648.681 233.811 647.68 233.55 646.803 233.031C645.927 232.513 645.21 231.758 644.732 230.85C644.755 231.298 644.755 231.748 644.732 232.197V239.574H642.678V218.115Z" fill="#808285"/>
<path d="M667.24 232.02C669.911 232.02 672.124 229.727 672.124 225.814C672.124 221.9 670.164 219.639 667.382 219.639C664.853 219.639 662.467 221.483 662.467 225.846C662.467 228.941 664.158 232.02 667.208 232.02H667.24ZM660.396 218.115H662.356V219.607C662.378 220.007 662.378 220.409 662.356 220.81C662.84 219.834 663.595 219.024 664.527 218.48C665.46 217.935 666.529 217.68 667.603 217.746C671.665 217.746 674.194 221.05 674.194 225.765C674.194 230.481 671.333 233.785 667.414 233.785C666.414 233.808 665.427 233.552 664.561 233.046C663.694 232.54 662.981 231.803 662.498 230.914C662.521 231.362 662.521 231.812 662.498 232.261V239.574H660.444L660.396 218.115Z" fill="#808285"/>
<path d="M676.627 237.345C677.146 237.753 677.773 237.993 678.429 238.034C679.756 238.034 680.689 236.944 681.289 235.532L682.222 233.367L675.9 218.115H678.16L682.617 229.342C682.917 230.112 683.154 230.946 683.154 230.946C683.301 230.402 683.475 229.867 683.676 229.342L688.038 218.115H690.266L682.791 236.703C682.482 237.632 681.896 238.439 681.114 239.014C680.333 239.589 679.394 239.902 678.429 239.911C677.47 239.899 676.541 239.579 675.773 238.997L676.627 237.345Z" fill="#808285"/>
<path d="M229.457 122.563H168.166L203.284 183.364L229.457 122.563Z" fill="url(#paint0_linear_2877_1060)"/>
<path d="M203.284 183.378V107.019L167.676 121.715L203.284 183.378Z" fill="#FDC17B"/>
<path d="M167.675 121.689L203.284 183.378H132.066L167.675 121.689Z" fill="#F68A33"/>
<path d="M132.079 60.0134L167.675 121.676H96.4707L132.079 60.0134Z" fill="#FFCB3B"/>
<path d="M96.459 121.676H167.689L132.068 183.378L96.459 121.676Z" fill="#E4018B"/>
<path d="M99.2944 126.552L99.2812 126.566V126.552H99.2944Z" fill="#E51E25"/>
<path d="M132.08 60L96.4714 121.676L60.8496 60H132.08Z" fill="#FFF68F"/>
<path d="M116.76 156.847L132.067 183.338H60.8496L96.4582 121.676L116.76 156.847Z" fill="#60C5BA"/>
<path d="M60.8496 183.338H132.067L96.4582 245L60.8496 183.338Z" fill="#B0DFE3"/>
<path d="M386.197 183.562H0.416016" stroke="#EC008C" stroke-width="0.802139" stroke-dasharray="3.19 3.19"/>
<path d="M386.196 122.037H0.65625" stroke="#EC008C" stroke-width="0.802139" stroke-dasharray="3.19 3.19"/>
<path d="M61.3145 68.6633V239.888" stroke="#EC008C" stroke-width="1.29947" stroke-dasharray="5.12 5.12"/>
<path d="M69.0469 245.006H685.828" stroke="#EC008C" stroke-width="1.29947" stroke-dasharray="5.17 5.17"/>
<path d="M690.992 237.337V66.0964" stroke="#EC008C" stroke-width="1.29947" stroke-dasharray="5.12 5.12"/>
<path d="M683.245 60.9949H66.4805" stroke="#EC008C" stroke-width="1.29947" stroke-dasharray="5.17 5.17"/>
<path d="M61.3145 242.423V244.973H63.8973M63.8973 60.9626H61.3145V63.5134L63.8973 60.9626ZM690.994 63.5134V60.9626H688.411L690.994 63.5134ZM688.411 244.973H690.994V242.423L688.411 244.973Z" stroke="#EC008C" stroke-width="1.29947"/>
<path d="M0.65625 8.64722V301.123" stroke="#EC008C" stroke-width="1.29947" stroke-dasharray="5.28 5.28"/>
<path d="M8.45312 306.401H744.143" stroke="#EC008C" stroke-width="1.29947" stroke-dasharray="5.2 5.2"/>
<path d="M749.342 298.492V6.00024" stroke="#EC008C" stroke-width="1.29947" stroke-dasharray="5.28 5.28"/>
<path d="M741.545 0.738037H5.85547" stroke="#EC008C" stroke-width="1.29947" stroke-dasharray="5.2 5.2"/>
<path d="M0.65625 303.77V306.417H3.20705M3.20705 0.738037H0.65625V3.36905L3.20705 0.738037ZM749.341 3.36905V0.738037H746.742L749.341 3.36905ZM746.742 306.401H749.341V303.77L746.742 306.401Z" stroke="#EC008C" stroke-width="1.29947"/>
<path d="M18.0133 168.94H23.1258L29.0214 158.945C30.0807 157.149 30.9558 155.214 30.9558 155.214H31.0479C31.0479 155.214 32.0612 157.103 33.1206 158.945L39.0161 168.94H44.1747L33.9036 152.175L43.5299 136.422H38.2792L33.1666 145.22C32.1073 147.016 31.1861 149.089 31.1861 149.089H31.094C31.094 149.089 30.0346 146.97 29.0214 145.22L23.9088 136.422H18.6581L28.2844 152.175L18.0133 168.94Z" fill="white"/>
<path d="M191.011 -0.0600586H130V61.3357H191.011V-0.0600586Z" fill="#EC008C"/>
<path d="M147.013 45.9399H152.126L158.021 35.9452C159.081 34.1489 159.956 32.2144 159.956 32.2144H160.048C160.048 32.2144 161.061 34.1028 162.121 35.9452L168.016 45.9399H173.175L162.904 29.1745L172.53 13.4224H167.279L162.167 22.2196C161.107 24.0159 160.186 26.0886 160.186 26.0886H160.094C160.094 26.0886 159.035 23.9699 158.021 22.2196L152.909 13.4224H147.658L157.284 29.1745L147.013 45.9399Z" fill="white"/>
</g>
<defs>
<linearGradient id="paint0_linear_2877_1060" x1="5943.64" y1="4387.75" x2="8061.27" y2="3155.79" gradientUnits="userSpaceOnUse">
<stop offset="0.24" stop-color="#BCBEC0"/>
<stop offset="1" stop-color="#E6E7E8"/>
</linearGradient>
<clipPath id="clip0_2877_1060">
<rect width="750" height="307.043" fill="white" transform="translate(0 0.0600586)"/>
</clipPath>
</defs>
</svg>
