<svg width="1152" height="293" viewBox="0 0 1152 293" fill="none" xmlns="http://www.w3.org/2000/svg">
<rect x="983" y="37" width="169" height="150" rx="3" fill="#FDD099"/>
<path d="M1029.77 216H1035.04V215.256H1030.63C1030.64 213.012 1034.9 212.616 1034.9 209.784C1034.9 208.464 1033.94 207.42 1032.34 207.42C1030.55 207.42 1029.78 208.944 1029.78 208.944L1030.4 209.364C1030.4 209.364 1031.05 208.212 1032.29 208.212C1033.34 208.212 1034.04 208.908 1034.04 209.832C1034.04 212.112 1029.72 212.496 1029.72 215.46C1029.72 215.628 1029.73 215.808 1029.77 216ZM1036.43 214.944C1036.43 214.944 1037.23 216.144 1038.91 216.144C1040.55 216.144 1041.83 214.932 1041.83 213.372C1041.83 211.848 1040.62 210.624 1038.93 210.624C1038.17 210.624 1037.65 210.948 1037.65 210.948H1037.62C1037.62 210.948 1037.67 210.768 1037.71 210.468L1037.95 208.308H1041.31V207.564H1037.23L1036.77 211.656L1037.3 211.848C1037.3 211.848 1037.93 211.392 1038.83 211.392C1040.03 211.392 1040.97 212.22 1040.97 213.372C1040.97 214.524 1040.03 215.352 1038.87 215.352C1037.59 215.352 1036.96 214.368 1036.96 214.368L1036.43 214.944ZM1043.02 214.992C1043.02 214.992 1044.04 216.144 1045.69 216.144C1047.29 216.144 1048.46 214.944 1048.46 213.504C1048.46 211.68 1046.89 211.08 1045.82 211.02L1048.34 208.116V207.564H1043.41V208.308H1046.58C1047.02 208.308 1047.26 208.272 1047.26 208.272V208.296C1047.26 208.296 1047.05 208.5 1046.82 208.764L1044.71 211.236L1044.91 211.728H1045.49C1046.59 211.728 1047.61 212.34 1047.61 213.528C1047.61 214.608 1046.69 215.352 1045.68 215.352C1044.38 215.352 1043.52 214.356 1043.52 214.356L1043.02 214.992ZM1053.21 216H1058.47V215.256H1054.07C1054.08 213.012 1058.34 212.616 1058.34 209.784C1058.34 208.464 1057.38 207.42 1055.77 207.42C1053.99 207.42 1053.22 208.944 1053.22 208.944L1053.84 209.364C1053.84 209.364 1054.49 208.212 1055.73 208.212C1056.78 208.212 1057.48 208.908 1057.48 209.832C1057.48 212.112 1053.16 212.496 1053.16 215.46C1053.16 215.628 1053.17 215.808 1053.21 216ZM1062.98 216.144C1065.17 216.144 1065.88 214.224 1065.88 211.776C1065.88 209.352 1065.17 207.42 1062.98 207.42C1060.78 207.42 1060.06 209.352 1060.06 211.776C1060.06 214.224 1060.78 216.144 1062.98 216.144ZM1062.98 215.364C1061.37 215.364 1060.93 213.792 1060.93 211.776C1060.93 209.772 1061.37 208.2 1062.98 208.2C1064.57 208.2 1065.02 209.772 1065.02 211.776C1065.02 213.792 1064.57 215.364 1062.98 215.364ZM1067.49 213.576C1067.49 215.172 1068.82 216.144 1070.35 216.144C1071.98 216.144 1073.14 215.028 1073.14 213.708C1073.14 212.832 1072.61 212.292 1071.92 211.896C1072.01 211.8 1072.95 210.816 1072.95 209.616C1072.95 208.296 1071.94 207.42 1070.37 207.42C1068.67 207.42 1067.83 208.464 1067.83 209.556C1067.83 210.36 1068.27 210.876 1068.87 211.272C1068.68 211.392 1067.49 212.22 1067.49 213.576ZM1072.29 213.696C1072.29 214.692 1071.34 215.376 1070.35 215.376C1069.33 215.376 1068.34 214.68 1068.34 213.54C1068.34 212.46 1069.29 211.788 1069.55 211.632C1070.8 212.232 1072.29 212.604 1072.29 213.696ZM1068.67 209.568C1068.67 208.812 1069.29 208.188 1070.37 208.188C1071.39 208.188 1072.11 208.752 1072.11 209.652C1072.11 210.66 1071.39 211.416 1071.23 211.56C1070.02 211.032 1068.67 210.66 1068.67 209.568ZM1077.84 216H1082.41V215.256H1080.55V207.564H1079.78L1077.87 209.46L1078.4 210L1079.3 209.1C1079.64 208.776 1079.72 208.596 1079.72 208.596H1079.74C1079.74 208.596 1079.73 208.824 1079.73 209.064V215.256H1077.84V216ZM1083.4 214.944C1083.4 214.944 1084.19 216.144 1085.87 216.144C1087.52 216.144 1088.8 214.932 1088.8 213.372C1088.8 211.848 1087.59 210.624 1085.9 210.624C1085.14 210.624 1084.61 210.948 1084.61 210.948H1084.59C1084.59 210.948 1084.64 210.768 1084.67 210.468L1084.91 208.308H1088.27V207.564H1084.19L1083.74 211.656L1084.27 211.848C1084.27 211.848 1084.9 211.392 1085.8 211.392C1087 211.392 1087.94 212.22 1087.94 213.372C1087.94 214.524 1087 215.352 1085.84 215.352C1084.55 215.352 1083.93 214.368 1083.93 214.368L1083.4 214.944ZM1089.99 214.992C1089.99 214.992 1091.01 216.144 1092.66 216.144C1094.26 216.144 1095.43 214.944 1095.43 213.504C1095.43 211.68 1093.86 211.08 1092.79 211.02L1095.31 208.116V207.564H1090.38V208.308H1093.55C1093.99 208.308 1094.23 208.272 1094.23 208.272V208.296C1094.23 208.296 1094.02 208.5 1093.79 208.764L1091.68 211.236L1091.88 211.728H1092.46C1093.56 211.728 1094.58 212.34 1094.58 213.528C1094.58 214.608 1093.66 215.352 1092.65 215.352C1091.35 215.352 1090.49 214.356 1090.49 214.356L1089.99 214.992Z" fill="#404040"/>
<path d="M1032.76 236.144C1034.95 236.144 1035.66 234.224 1035.66 231.776C1035.66 229.352 1034.95 227.42 1032.76 227.42C1030.56 227.42 1029.84 229.352 1029.84 231.776C1029.84 234.224 1030.56 236.144 1032.76 236.144ZM1032.76 235.364C1031.15 235.364 1030.7 233.792 1030.7 231.776C1030.7 229.772 1031.15 228.2 1032.76 228.2C1034.35 228.2 1034.8 229.772 1034.8 231.776C1034.8 233.792 1034.35 235.364 1032.76 235.364ZM1040.39 236H1044.97V235.256H1043.11V227.564H1042.34L1040.43 229.46L1040.96 230L1041.86 229.1C1042.19 228.776 1042.28 228.596 1042.28 228.596H1042.3C1042.3 228.596 1042.29 228.824 1042.29 229.064V235.256H1040.39V236ZM1046.08 233.576C1046.08 235.172 1047.41 236.144 1048.94 236.144C1050.57 236.144 1051.73 235.028 1051.73 233.708C1051.73 232.832 1051.2 232.292 1050.51 231.896C1050.6 231.8 1051.54 230.816 1051.54 229.616C1051.54 228.296 1050.53 227.42 1048.96 227.42C1047.26 227.42 1046.42 228.464 1046.42 229.556C1046.42 230.36 1046.86 230.876 1047.46 231.272C1047.27 231.392 1046.08 232.22 1046.08 233.576ZM1050.88 233.696C1050.88 234.692 1049.93 235.376 1048.94 235.376C1047.92 235.376 1046.93 234.68 1046.93 233.54C1046.93 232.46 1047.88 231.788 1048.14 231.632C1049.39 232.232 1050.88 232.604 1050.88 233.696ZM1047.26 229.568C1047.26 228.812 1047.88 228.188 1048.96 228.188C1049.98 228.188 1050.7 228.752 1050.7 229.652C1050.7 230.66 1049.98 231.416 1049.82 231.56C1048.61 231.032 1047.26 230.66 1047.26 229.568ZM1056.16 233.66H1060.39V236H1061.21V233.66H1062.41V232.928H1061.21V227.564H1060.31L1056.16 233.12V233.66ZM1057.17 232.928V232.904L1059.98 229.244C1060.21 228.944 1060.4 228.608 1060.4 228.608H1060.42C1060.42 228.608 1060.39 229.04 1060.39 229.4V232.928H1057.17ZM1066.67 236.144C1068.87 236.144 1069.57 234.224 1069.57 231.776C1069.57 229.352 1068.87 227.42 1066.67 227.42C1064.47 227.42 1063.75 229.352 1063.75 231.776C1063.75 234.224 1064.47 236.144 1066.67 236.144ZM1066.67 235.364C1065.06 235.364 1064.62 233.792 1064.62 231.776C1064.62 229.772 1065.06 228.2 1066.67 228.2C1068.27 228.2 1068.71 229.772 1068.71 231.776C1068.71 233.792 1068.27 235.364 1066.67 235.364ZM1074.31 236H1078.88V235.256H1077.02V227.564H1076.25L1074.34 229.46L1074.87 230L1075.77 229.1C1076.11 228.776 1076.19 228.596 1076.19 228.596H1076.22C1076.22 228.596 1076.2 228.824 1076.2 229.064V235.256H1074.31V236Z" fill="#404040"/>
<path d="M1030.86 255H1031.59L1032 252.66H1034.08L1033.67 255H1034.4L1034.81 252.66H1036.49L1036.6 251.988H1034.93L1035.34 249.636H1037.02L1037.14 248.964H1035.46L1035.88 246.564H1035.14L1034.72 248.964H1032.65L1033.07 246.564H1032.34L1031.92 248.964H1030.21L1030.1 249.636H1031.8L1031.38 251.988H1029.68L1029.56 252.66H1031.27L1030.86 255ZM1032.12 251.988L1032.53 249.636H1034.6L1034.18 251.988H1032.12ZM1038.91 255H1039.74V251.22H1042.83V250.476H1039.74V247.308H1043.35V246.564H1038.91V255ZM1045.07 255H1047.8C1050.33 255 1052.03 253.464 1052.03 250.776C1052.03 248.112 1050.33 246.564 1047.8 246.564H1045.07V255ZM1045.9 254.256V247.308H1047.71C1049.78 247.308 1051.17 248.532 1051.17 250.776C1051.17 253.032 1049.79 254.256 1047.71 254.256H1045.9ZM1053.95 255H1056.68C1059.21 255 1060.91 253.464 1060.91 250.776C1060.91 248.112 1059.21 246.564 1056.68 246.564H1053.95V255ZM1054.78 254.256V247.308H1056.59C1058.66 247.308 1060.05 248.532 1060.05 250.776C1060.05 253.032 1058.67 254.256 1056.59 254.256H1054.78ZM1065.37 255.144C1067.57 255.144 1068.27 253.224 1068.27 250.776C1068.27 248.352 1067.57 246.42 1065.37 246.42C1063.17 246.42 1062.45 248.352 1062.45 250.776C1062.45 253.224 1063.17 255.144 1065.37 255.144ZM1065.37 254.364C1063.76 254.364 1063.32 252.792 1063.32 250.776C1063.32 248.772 1063.76 247.2 1065.37 247.2C1066.97 247.2 1067.41 248.772 1067.41 250.776C1067.41 252.792 1066.97 254.364 1065.37 254.364ZM1071.75 255.144C1074.37 255.144 1075.46 252.492 1075.46 250.38C1075.46 248.1 1074.25 246.42 1072.41 246.42C1070.94 246.42 1069.77 247.488 1069.77 249.24C1069.77 250.836 1070.85 251.964 1072.39 251.964C1073.27 251.964 1074.12 251.58 1074.54 250.98H1074.56C1074.41 252.624 1073.52 254.364 1071.74 254.364C1071.05 254.364 1070.52 254.064 1070.52 254.064L1070.21 254.796C1070.21 254.796 1070.83 255.144 1071.75 255.144ZM1072.52 251.22C1071.37 251.22 1070.61 250.428 1070.61 249.228C1070.61 248.064 1071.29 247.2 1072.43 247.2C1073.69 247.2 1074.56 248.652 1074.56 249.78C1074.56 250.464 1073.66 251.22 1072.52 251.22ZM1078.88 255.144C1081.49 255.144 1082.59 252.492 1082.59 250.38C1082.59 248.1 1081.37 246.42 1079.54 246.42C1078.06 246.42 1076.9 247.488 1076.9 249.24C1076.9 250.836 1077.98 251.964 1079.51 251.964C1080.39 251.964 1081.24 251.58 1081.66 250.98H1081.69C1081.53 252.624 1080.64 254.364 1078.87 254.364C1078.17 254.364 1077.64 254.064 1077.64 254.064L1077.33 254.796C1077.33 254.796 1077.95 255.144 1078.88 255.144ZM1079.65 251.22C1078.49 251.22 1077.74 250.428 1077.74 249.228C1077.74 248.064 1078.41 247.2 1079.55 247.2C1080.81 247.2 1081.69 248.652 1081.69 249.78C1081.69 250.464 1080.79 251.22 1079.65 251.22Z" fill="#404040"/>
<path d="M984.224 216H985.052V212.448H987.176L989.084 216H990.032L988.196 212.604C988.064 212.376 987.98 212.268 987.98 212.268V212.244C988.928 211.98 989.576 211.104 989.576 209.964C989.576 208.944 989.096 208.14 988.304 207.792C987.968 207.648 987.584 207.564 986.72 207.564H984.224V216ZM985.052 211.704V208.308H986.756C987.404 208.308 987.704 208.38 987.956 208.512C988.448 208.776 988.724 209.292 988.724 209.988C988.724 211.044 988.076 211.704 987.056 211.704H985.052ZM991.195 211.776C991.195 214.284 993.019 216.144 995.323 216.144C997.099 216.144 998.071 215.004 998.071 215.004H998.095C998.095 215.004 998.083 215.184 998.083 215.364V216H998.851V211.968H996.619V212.712H998.059V214.14C998.059 214.14 997.051 215.376 995.407 215.376C993.487 215.376 992.059 213.84 992.059 211.764C992.059 209.76 993.439 208.188 995.479 208.188C997.015 208.188 997.999 209.028 997.999 209.028L998.443 208.404C998.443 208.404 997.399 207.42 995.443 207.42C993.019 207.42 991.195 209.34 991.195 211.776ZM1000.85 216H1003.83C1005.24 216 1006.36 215.136 1006.36 213.636C1006.36 212.616 1005.81 211.788 1004.94 211.548V211.524C1005.59 211.2 1006.01 210.564 1006.01 209.688C1006.01 208.368 1005.06 207.564 1003.73 207.564H1000.85V216ZM1001.68 211.224V208.308H1003.72C1004.62 208.308 1005.16 208.884 1005.16 209.748C1005.16 210.624 1004.58 211.224 1003.73 211.224H1001.68ZM1001.68 215.256V211.944H1003.83C1004.81 211.944 1005.5 212.604 1005.5 213.612C1005.5 214.62 1004.86 215.256 1003.84 215.256H1001.68Z" fill="#404040"/>
<path d="M983.66 231.728C983.66 234.188 985.436 236.144 987.932 236.144C990.008 236.144 991.16 234.836 991.16 234.836L990.68 234.248C990.68 234.248 989.648 235.376 987.944 235.376C985.94 235.376 984.524 233.732 984.524 231.716C984.524 229.724 985.94 228.188 987.92 228.188C989.504 228.188 990.488 229.124 990.488 229.124L990.932 228.512C990.932 228.512 989.912 227.42 987.896 227.42C985.484 227.42 983.66 229.28 983.66 231.728ZM992.69 236H993.518L993.986 230.096C994.022 229.64 994.01 228.896 994.01 228.896H994.034C994.034 228.896 994.298 229.676 994.49 230.096L996.47 234.428H997.25L999.23 230.096C999.422 229.664 999.674 228.92 999.674 228.92H999.698C999.698 228.92 999.686 229.64 999.722 230.096L1000.19 236H1001.02L1000.35 227.564H999.494L997.286 232.52C997.094 232.952 996.866 233.552 996.866 233.552H996.842C996.842 233.552 996.626 232.952 996.434 232.52L994.226 227.564H993.362L992.69 236ZM1004.89 236H1005.73V232.376L1008.56 227.564H1007.63L1005.84 230.624C1005.58 231.068 1005.32 231.632 1005.32 231.632H1005.3C1005.3 231.632 1005.04 231.056 1004.78 230.624L1003 227.564H1002.05L1004.89 232.376V236ZM1009.98 236H1010.81V231.968H1012.24L1014.65 236H1015.62L1012.93 231.572V231.548L1015.45 227.564H1014.51L1012.24 231.224H1010.81V227.564H1009.98V236Z" fill="#404040"/>
<path d="M984.224 255H985.052V251.148H989.948V255H990.776V246.564H989.948V250.404H985.052V246.564H984.224V255ZM993.224 255H998.192V254.256H994.052V251.124H997.256V250.38H994.052V247.308H997.976V246.564H993.224V255ZM999.167 255H1000.13L1001.86 252.096C1002.12 251.652 1002.37 251.148 1002.37 251.148H1002.4C1002.4 251.148 1002.66 251.652 1002.92 252.084L1004.68 255H1005.64L1002.94 250.596L1005.41 246.564H1004.42L1002.94 249.06C1002.67 249.492 1002.43 250.032 1002.43 250.032H1002.41C1002.41 250.032 1002.11 249.492 1001.86 249.06L1000.38 246.564H999.407L1001.86 250.596L999.167 255Z" fill="#404040"/>
<rect x="789" y="37" width="169" height="150" rx="3" fill="#FCB533"/>
<path d="M835.768 216H841.036V215.256H836.632C836.644 213.012 840.904 212.616 840.904 209.784C840.904 208.464 839.944 207.42 838.336 207.42C836.548 207.42 835.78 208.944 835.78 208.944L836.404 209.364C836.404 209.364 837.052 208.212 838.288 208.212C839.344 208.212 840.04 208.908 840.04 209.832C840.04 212.112 835.72 212.496 835.72 215.46C835.72 215.628 835.732 215.808 835.768 216ZM842.433 214.944C842.433 214.944 843.225 216.144 844.905 216.144C846.549 216.144 847.833 214.932 847.833 213.372C847.833 211.848 846.621 210.624 844.929 210.624C844.173 210.624 843.645 210.948 843.645 210.948H843.621C843.621 210.948 843.669 210.768 843.705 210.468L843.945 208.308H847.305V207.564H843.225L842.769 211.656L843.297 211.848C843.297 211.848 843.933 211.392 844.833 211.392C846.033 211.392 846.969 212.22 846.969 213.372C846.969 214.524 846.033 215.352 844.869 215.352C843.585 215.352 842.961 214.368 842.961 214.368L842.433 214.944ZM849.245 216H854.513V215.256H850.109C850.121 213.012 854.381 212.616 854.381 209.784C854.381 208.464 853.421 207.42 851.813 207.42C850.025 207.42 849.257 208.944 849.257 208.944L849.881 209.364C849.881 209.364 850.529 208.212 851.765 208.212C852.821 208.212 853.517 208.908 853.517 209.832C853.517 212.112 849.197 212.496 849.197 215.46C849.197 215.628 849.209 215.808 849.245 216ZM859.156 216H863.728V215.256H861.868V207.564H861.1L859.192 209.46L859.72 210L860.62 209.1C860.956 208.776 861.04 208.596 861.04 208.596H861.064C861.064 208.596 861.052 208.824 861.052 209.064V215.256H859.156V216ZM864.842 213.576C864.842 215.172 866.174 216.144 867.698 216.144C869.33 216.144 870.494 215.028 870.494 213.708C870.494 212.832 869.966 212.292 869.27 211.896C869.366 211.8 870.302 210.816 870.302 209.616C870.302 208.296 869.294 207.42 867.722 207.42C866.018 207.42 865.178 208.464 865.178 209.556C865.178 210.36 865.622 210.876 866.222 211.272C866.03 211.392 864.842 212.22 864.842 213.576ZM869.642 213.696C869.642 214.692 868.694 215.376 867.698 215.376C866.678 215.376 865.694 214.68 865.694 213.54C865.694 212.46 866.642 211.788 866.906 211.632C868.154 212.232 869.642 212.604 869.642 213.696ZM866.018 209.568C866.018 208.812 866.642 208.188 867.722 208.188C868.742 208.188 869.462 208.752 869.462 209.652C869.462 210.66 868.742 211.416 868.586 211.56C867.374 211.032 866.018 210.66 866.018 209.568ZM871.965 216H876.537V215.256H874.677V207.564H873.909L872.001 209.46L872.529 210L873.429 209.1C873.765 208.776 873.849 208.596 873.849 208.596H873.873C873.873 208.596 873.861 208.824 873.861 209.064V215.256H871.965V216ZM880.753 214.944C880.753 214.944 881.545 216.144 883.225 216.144C884.869 216.144 886.153 214.932 886.153 213.372C886.153 211.848 884.941 210.624 883.249 210.624C882.493 210.624 881.965 210.948 881.965 210.948H881.941C881.941 210.948 881.989 210.768 882.025 210.468L882.265 208.308H885.625V207.564H881.545L881.089 211.656L881.617 211.848C881.617 211.848 882.253 211.392 883.153 211.392C884.353 211.392 885.289 212.22 885.289 213.372C885.289 214.524 884.353 215.352 883.189 215.352C881.905 215.352 881.281 214.368 881.281 214.368L880.753 214.944ZM887.469 216H892.041V215.256H890.181V207.564H889.413L887.505 209.46L888.033 210L888.933 209.1C889.269 208.776 889.353 208.596 889.353 208.596H889.377C889.377 208.596 889.365 208.824 889.365 209.064V215.256H887.469V216Z" fill="#404040"/>
<path d="M838.756 236.144C840.952 236.144 841.66 234.224 841.66 231.776C841.66 229.352 840.952 227.42 838.756 227.42C836.56 227.42 835.84 229.352 835.84 231.776C835.84 234.224 836.56 236.144 838.756 236.144ZM838.756 235.364C837.148 235.364 836.704 233.792 836.704 231.776C836.704 229.772 837.148 228.2 838.756 228.2C840.352 228.2 840.796 229.772 840.796 231.776C840.796 233.792 840.352 235.364 838.756 235.364ZM846.491 236H851.759V235.256H847.355C847.367 233.012 851.627 232.616 851.627 229.784C851.627 228.464 850.667 227.42 849.059 227.42C847.271 227.42 846.503 228.944 846.503 228.944L847.127 229.364C847.127 229.364 847.775 228.212 849.011 228.212C850.067 228.212 850.763 228.908 850.763 229.832C850.763 232.112 846.443 232.496 846.443 235.46C846.443 235.628 846.455 235.808 846.491 236ZM853.276 233.576C853.276 235.172 854.608 236.144 856.132 236.144C857.764 236.144 858.928 235.028 858.928 233.708C858.928 232.832 858.4 232.292 857.704 231.896C857.8 231.8 858.736 230.816 858.736 229.616C858.736 228.296 857.728 227.42 856.156 227.42C854.452 227.42 853.612 228.464 853.612 229.556C853.612 230.36 854.056 230.876 854.656 231.272C854.464 231.392 853.276 232.22 853.276 233.576ZM858.076 233.696C858.076 234.692 857.128 235.376 856.132 235.376C855.112 235.376 854.128 234.68 854.128 233.54C854.128 232.46 855.076 231.788 855.34 231.632C856.588 232.232 858.076 232.604 858.076 233.696ZM854.452 229.568C854.452 228.812 855.076 228.188 856.156 228.188C857.176 228.188 857.896 228.752 857.896 229.652C857.896 230.66 857.176 231.416 857.02 231.56C855.808 231.032 854.452 230.66 854.452 229.568ZM863.717 233.576C863.717 235.172 865.049 236.144 866.573 236.144C868.205 236.144 869.369 235.028 869.369 233.708C869.369 232.832 868.841 232.292 868.145 231.896C868.241 231.8 869.177 230.816 869.177 229.616C869.177 228.296 868.169 227.42 866.597 227.42C864.893 227.42 864.053 228.464 864.053 229.556C864.053 230.36 864.497 230.876 865.097 231.272C864.905 231.392 863.717 232.22 863.717 233.576ZM868.517 233.696C868.517 234.692 867.569 235.376 866.573 235.376C865.553 235.376 864.569 234.68 864.569 233.54C864.569 232.46 865.517 231.788 865.781 231.632C867.029 232.232 868.517 232.604 868.517 233.696ZM864.893 229.568C864.893 228.812 865.517 228.188 866.597 228.188C867.617 228.188 868.337 228.752 868.337 229.652C868.337 230.66 867.617 231.416 867.461 231.56C866.249 231.032 864.893 230.66 864.893 229.568ZM873.924 236.144C876.12 236.144 876.828 234.224 876.828 231.776C876.828 229.352 876.12 227.42 873.924 227.42C871.728 227.42 871.008 229.352 871.008 231.776C871.008 234.224 871.728 236.144 873.924 236.144ZM873.924 235.364C872.316 235.364 871.872 233.792 871.872 231.776C871.872 229.772 872.316 228.2 873.924 228.2C875.52 228.2 875.964 229.772 875.964 231.776C875.964 233.792 875.52 235.364 873.924 235.364ZM881.563 236H886.135V235.256H884.275V227.564H883.507L881.599 229.46L882.127 230L883.027 229.1C883.363 228.776 883.447 228.596 883.447 228.596H883.471C883.471 228.596 883.459 228.824 883.459 229.064V235.256H881.563V236Z" fill="#404040"/>
<path d="M836.86 255H837.592L838 252.66H840.076L839.668 255H840.4L840.808 252.66H842.488L842.596 251.988H840.928L841.336 249.636H843.016L843.136 248.964H841.456L841.876 246.564H841.144L840.724 248.964H838.648L839.068 246.564H838.336L837.916 248.964H836.212L836.104 249.636H837.796L837.376 251.988H835.684L835.564 252.66H837.268L836.86 255ZM838.12 251.988L838.528 249.636H840.604L840.184 251.988H838.12ZM844.908 255H845.736V251.22H848.832V250.476H845.736V247.308H849.348V246.564H844.908V255ZM850.508 250.728C850.508 253.188 852.284 255.144 854.78 255.144C856.856 255.144 858.008 253.836 858.008 253.836L857.528 253.248C857.528 253.248 856.496 254.376 854.792 254.376C852.788 254.376 851.372 252.732 851.372 250.716C851.372 248.724 852.788 247.188 854.768 247.188C856.352 247.188 857.336 248.124 857.336 248.124L857.78 247.512C857.78 247.512 856.76 246.42 854.744 246.42C852.332 246.42 850.508 248.28 850.508 250.728ZM859.802 255H862.778C864.194 255 865.31 254.136 865.31 252.636C865.31 251.616 864.758 250.788 863.894 250.548V250.524C864.542 250.2 864.962 249.564 864.962 248.688C864.962 247.368 864.014 246.564 862.682 246.564H859.802V255ZM860.63 250.224V247.308H862.67C863.57 247.308 864.11 247.884 864.11 248.748C864.11 249.624 863.534 250.224 862.682 250.224H860.63ZM860.63 254.256V250.944H862.778C863.762 250.944 864.446 251.604 864.446 252.612C864.446 253.62 863.81 254.256 862.79 254.256H860.63ZM866.738 253.944C866.738 253.944 867.53 255.144 869.21 255.144C870.854 255.144 872.138 253.932 872.138 252.372C872.138 250.848 870.926 249.624 869.234 249.624C868.478 249.624 867.95 249.948 867.95 249.948H867.926C867.926 249.948 867.974 249.768 868.01 249.468L868.25 247.308H871.61V246.564H867.53L867.074 250.656L867.602 250.848C867.602 250.848 868.238 250.392 869.138 250.392C870.338 250.392 871.274 251.22 871.274 252.372C871.274 253.524 870.338 254.352 869.174 254.352C867.89 254.352 867.266 253.368 867.266 253.368L866.738 253.944ZM873.321 253.992C873.321 253.992 874.341 255.144 875.997 255.144C877.593 255.144 878.769 253.944 878.769 252.504C878.769 250.68 877.197 250.08 876.129 250.02L878.649 247.116V246.564H873.717V247.308H876.885C877.329 247.308 877.569 247.272 877.569 247.272V247.296C877.569 247.296 877.353 247.5 877.125 247.764L875.013 250.236L875.217 250.728H875.793C876.897 250.728 877.917 251.34 877.917 252.528C877.917 253.608 876.993 254.352 875.985 254.352C874.689 254.352 873.825 253.356 873.825 253.356L873.321 253.992ZM880.06 253.992C880.06 253.992 881.08 255.144 882.736 255.144C884.332 255.144 885.508 253.944 885.508 252.504C885.508 250.68 883.936 250.08 882.868 250.02L885.388 247.116V246.564H880.456V247.308H883.624C884.068 247.308 884.308 247.272 884.308 247.272V247.296C884.308 247.296 884.092 247.5 883.864 247.764L881.752 250.236L881.956 250.728H882.532C883.636 250.728 884.656 251.34 884.656 252.528C884.656 253.608 883.732 254.352 882.724 254.352C881.428 254.352 880.564 253.356 880.564 253.356L880.06 253.992Z" fill="#404040"/>
<path d="M790.224 216H791.052V212.448H793.176L795.084 216H796.032L794.196 212.604C794.064 212.376 793.98 212.268 793.98 212.268V212.244C794.928 211.98 795.576 211.104 795.576 209.964C795.576 208.944 795.096 208.14 794.304 207.792C793.968 207.648 793.584 207.564 792.72 207.564H790.224V216ZM791.052 211.704V208.308H792.756C793.404 208.308 793.704 208.38 793.956 208.512C794.448 208.776 794.724 209.292 794.724 209.988C794.724 211.044 794.076 211.704 793.056 211.704H791.052ZM797.195 211.776C797.195 214.284 799.019 216.144 801.323 216.144C803.099 216.144 804.071 215.004 804.071 215.004H804.095C804.095 215.004 804.083 215.184 804.083 215.364V216H804.851V211.968H802.619V212.712H804.059V214.14C804.059 214.14 803.051 215.376 801.407 215.376C799.487 215.376 798.059 213.84 798.059 211.764C798.059 209.76 799.439 208.188 801.479 208.188C803.015 208.188 803.999 209.028 803.999 209.028L804.443 208.404C804.443 208.404 803.399 207.42 801.443 207.42C799.019 207.42 797.195 209.34 797.195 211.776ZM806.853 216H809.829C811.245 216 812.361 215.136 812.361 213.636C812.361 212.616 811.809 211.788 810.945 211.548V211.524C811.593 211.2 812.013 210.564 812.013 209.688C812.013 208.368 811.065 207.564 809.733 207.564H806.853V216ZM807.681 211.224V208.308H809.721C810.621 208.308 811.161 208.884 811.161 209.748C811.161 210.624 810.585 211.224 809.733 211.224H807.681ZM807.681 215.256V211.944H809.829C810.813 211.944 811.497 212.604 811.497 213.612C811.497 214.62 810.861 215.256 809.841 215.256H807.681Z" fill="#404040"/>
<path d="M789.66 231.728C789.66 234.188 791.436 236.144 793.932 236.144C796.008 236.144 797.16 234.836 797.16 234.836L796.68 234.248C796.68 234.248 795.648 235.376 793.944 235.376C791.94 235.376 790.524 233.732 790.524 231.716C790.524 229.724 791.94 228.188 793.92 228.188C795.504 228.188 796.488 229.124 796.488 229.124L796.932 228.512C796.932 228.512 795.912 227.42 793.896 227.42C791.484 227.42 789.66 229.28 789.66 231.728ZM798.69 236H799.518L799.986 230.096C800.022 229.64 800.01 228.896 800.01 228.896H800.034C800.034 228.896 800.298 229.676 800.49 230.096L802.47 234.428H803.25L805.23 230.096C805.422 229.664 805.674 228.92 805.674 228.92H805.698C805.698 228.92 805.686 229.64 805.722 230.096L806.19 236H807.018L806.346 227.564H805.494L803.286 232.52C803.094 232.952 802.866 233.552 802.866 233.552H802.842C802.842 233.552 802.626 232.952 802.434 232.52L800.226 227.564H799.362L798.69 236ZM810.891 236H811.731V232.376L814.563 227.564H813.627L811.839 230.624C811.575 231.068 811.323 231.632 811.323 231.632H811.299C811.299 231.632 811.035 231.056 810.783 230.624L808.995 227.564H808.047L810.891 232.376V236ZM815.982 236H816.81V231.968H818.238L820.65 236H821.622L818.934 231.572V231.548L821.454 227.564H820.506L818.238 231.224H816.81V227.564H815.982V236Z" fill="#404040"/>
<path d="M790.224 255H791.052V251.148H795.948V255H796.776V246.564H795.948V250.404H791.052V246.564H790.224V255ZM799.224 255H804.192V254.256H800.052V251.124H803.256V250.38H800.052V247.308H803.976V246.564H799.224V255ZM805.167 255H806.127L807.855 252.096C808.119 251.652 808.371 251.148 808.371 251.148H808.395C808.395 251.148 808.659 251.652 808.923 252.084L810.675 255H811.635L808.935 250.596L811.407 246.564H810.423L808.935 249.06C808.671 249.492 808.431 250.032 808.431 250.032H808.407C808.407 250.032 808.107 249.492 807.855 249.06L806.379 246.564H805.407L807.855 250.596L805.167 255Z" fill="#404040"/>
<rect x="595" y="37" width="169" height="150" rx="3" fill="#F16130"/>
<path d="M641.768 216H647.036V215.256H642.632C642.644 213.012 646.904 212.616 646.904 209.784C646.904 208.464 645.944 207.42 644.336 207.42C642.548 207.42 641.78 208.944 641.78 208.944L642.404 209.364C642.404 209.364 643.052 208.212 644.288 208.212C645.344 208.212 646.04 208.908 646.04 209.832C646.04 212.112 641.72 212.496 641.72 215.46C641.72 215.628 641.732 215.808 641.768 216ZM647.935 213.66H652.159V216H652.987V213.66H654.187V212.928H652.987V207.564H652.087L647.935 213.12V213.66ZM648.943 212.928V212.904L651.751 209.244C651.979 208.944 652.171 208.608 652.171 208.608H652.195C652.195 208.608 652.159 209.04 652.159 209.4V212.928H648.943ZM655.36 216H659.932V215.256H658.072V207.564H657.304L655.396 209.46L655.924 210L656.824 209.1C657.16 208.776 657.244 208.596 657.244 208.596H657.268C657.268 208.596 657.256 208.824 657.256 209.064V215.256H655.36V216ZM666.14 216.144C668.756 216.144 669.848 213.492 669.848 211.38C669.848 209.1 668.636 207.42 666.8 207.42C665.324 207.42 664.16 208.488 664.16 210.24C664.16 211.836 665.24 212.964 666.776 212.964C667.652 212.964 668.504 212.58 668.924 211.98H668.948C668.792 213.624 667.904 215.364 666.128 215.364C665.432 215.364 664.904 215.064 664.904 215.064L664.592 215.796C664.592 215.796 665.216 216.144 666.14 216.144ZM666.908 212.22C665.756 212.22 665 211.428 665 210.228C665 209.064 665.672 208.2 666.812 208.2C668.072 208.2 668.948 209.652 668.948 210.78C668.948 211.464 668.048 212.22 666.908 212.22ZM671.789 216H672.653L676.565 208.14V207.564H671.081V208.308H675.029C675.449 208.308 675.665 208.284 675.665 208.284V208.308C675.665 208.308 675.425 208.632 675.197 209.088L671.789 216ZM680.49 213.66H684.714V216H685.542V213.66H686.742V212.928H685.542V207.564H684.642L680.49 213.12V213.66ZM681.498 212.928V212.904L684.306 209.244C684.534 208.944 684.726 208.608 684.726 208.608H684.75C684.75 208.608 684.714 209.04 684.714 209.4V212.928H681.498ZM688.01 213.576C688.01 215.172 689.342 216.144 690.866 216.144C692.498 216.144 693.662 215.028 693.662 213.708C693.662 212.832 693.134 212.292 692.438 211.896C692.534 211.8 693.47 210.816 693.47 209.616C693.47 208.296 692.462 207.42 690.89 207.42C689.186 207.42 688.346 208.464 688.346 209.556C688.346 210.36 688.79 210.876 689.39 211.272C689.198 211.392 688.01 212.22 688.01 213.576ZM692.81 213.696C692.81 214.692 691.862 215.376 690.866 215.376C689.846 215.376 688.862 214.68 688.862 213.54C688.862 212.46 689.81 211.788 690.074 211.632C691.322 212.232 692.81 212.604 692.81 213.696ZM689.186 209.568C689.186 208.812 689.81 208.188 690.89 208.188C691.91 208.188 692.63 208.752 692.63 209.652C692.63 210.66 691.91 211.416 691.754 211.56C690.542 211.032 689.186 210.66 689.186 209.568Z" fill="#404040"/>
<path d="M644.756 236.144C646.952 236.144 647.66 234.224 647.66 231.776C647.66 229.352 646.952 227.42 644.756 227.42C642.56 227.42 641.84 229.352 641.84 231.776C641.84 234.224 642.56 236.144 644.756 236.144ZM644.756 235.364C643.148 235.364 642.704 233.792 642.704 231.776C642.704 229.772 643.148 228.2 644.756 228.2C646.352 228.2 646.796 229.772 646.796 231.776C646.796 233.792 646.352 235.364 644.756 235.364ZM655.551 236.144C657.027 236.144 658.203 235.076 658.203 233.324C658.203 231.728 657.111 230.6 655.575 230.6C654.699 230.6 653.847 230.984 653.439 231.584H653.415C653.559 229.94 654.459 228.2 656.223 228.2C656.919 228.2 657.447 228.5 657.447 228.5L657.759 227.768C657.759 227.768 657.147 227.42 656.211 227.42C653.607 227.42 652.503 230.072 652.503 232.184C652.503 234.464 653.715 236.144 655.551 236.144ZM655.539 235.364C654.279 235.364 653.403 233.912 653.403 232.784C653.403 232.1 654.315 231.344 655.443 231.344C656.595 231.344 657.351 232.136 657.351 233.336C657.351 234.5 656.679 235.364 655.539 235.364ZM662.615 236.144C664.811 236.144 665.519 234.224 665.519 231.776C665.519 229.352 664.811 227.42 662.615 227.42C660.419 227.42 659.699 229.352 659.699 231.776C659.699 234.224 660.419 236.144 662.615 236.144ZM662.615 235.364C661.007 235.364 660.563 233.792 660.563 231.776C660.563 229.772 661.007 228.2 662.615 228.2C664.211 228.2 664.655 229.772 664.655 231.776C664.655 233.792 664.211 235.364 662.615 235.364ZM670.35 233.576C670.35 235.172 671.682 236.144 673.206 236.144C674.838 236.144 676.002 235.028 676.002 233.708C676.002 232.832 675.474 232.292 674.778 231.896C674.874 231.8 675.81 230.816 675.81 229.616C675.81 228.296 674.802 227.42 673.23 227.42C671.526 227.42 670.686 228.464 670.686 229.556C670.686 230.36 671.13 230.876 671.73 231.272C671.538 231.392 670.35 232.22 670.35 233.576ZM675.15 233.696C675.15 234.692 674.202 235.376 673.206 235.376C672.186 235.376 671.202 234.68 671.202 233.54C671.202 232.46 672.15 231.788 672.414 231.632C673.662 232.232 675.15 232.604 675.15 233.696ZM671.526 229.568C671.526 228.812 672.15 228.188 673.23 228.188C674.25 228.188 674.97 228.752 674.97 229.652C674.97 230.66 674.25 231.416 674.094 231.56C672.882 231.032 671.526 230.66 671.526 229.568ZM680.557 236.144C682.753 236.144 683.461 234.224 683.461 231.776C683.461 229.352 682.753 227.42 680.557 227.42C678.361 227.42 677.641 229.352 677.641 231.776C677.641 234.224 678.361 236.144 680.557 236.144ZM680.557 235.364C678.949 235.364 678.505 233.792 678.505 231.776C678.505 229.772 678.949 228.2 680.557 228.2C682.153 228.2 682.597 229.772 682.597 231.776C682.597 233.792 682.153 235.364 680.557 235.364ZM688.171 234.944C688.171 234.944 688.963 236.144 690.643 236.144C692.287 236.144 693.571 234.932 693.571 233.372C693.571 231.848 692.359 230.624 690.667 230.624C689.911 230.624 689.383 230.948 689.383 230.948H689.359C689.359 230.948 689.407 230.768 689.443 230.468L689.683 228.308H693.043V227.564H688.963L688.507 231.656L689.035 231.848C689.035 231.848 689.671 231.392 690.571 231.392C691.771 231.392 692.707 232.22 692.707 233.372C692.707 234.524 691.771 235.352 690.607 235.352C689.323 235.352 688.699 234.368 688.699 234.368L688.171 234.944Z" fill="#404040"/>
<path d="M642.86 255H643.592L644 252.66H646.076L645.668 255H646.4L646.808 252.66H648.488L648.596 251.988H646.928L647.336 249.636H649.016L649.136 248.964H647.456L647.876 246.564H647.144L646.724 248.964H644.648L645.068 246.564H644.336L643.916 248.964H642.212L642.104 249.636H643.796L643.376 251.988H641.684L641.564 252.66H643.268L642.86 255ZM644.12 251.988L644.528 249.636H646.604L646.184 251.988H644.12ZM650.908 255H651.736V251.22H654.832V250.476H651.736V247.308H655.348V246.564H650.908V255ZM656.52 255H661.092V254.256H659.232V246.564H658.464L656.556 248.46L657.084 249L657.984 248.1C658.32 247.776 658.404 247.596 658.404 247.596H658.428C658.428 247.596 658.416 247.824 658.416 248.064V254.256H656.52V255ZM665.266 255.144C666.742 255.144 667.918 254.076 667.918 252.324C667.918 250.728 666.826 249.6 665.29 249.6C664.414 249.6 663.562 249.984 663.154 250.584H663.13C663.274 248.94 664.174 247.2 665.938 247.2C666.634 247.2 667.162 247.5 667.162 247.5L667.474 246.768C667.474 246.768 666.862 246.42 665.926 246.42C663.322 246.42 662.218 249.072 662.218 251.184C662.218 253.464 663.43 255.144 665.266 255.144ZM665.254 254.364C663.994 254.364 663.118 252.912 663.118 251.784C663.118 251.1 664.03 250.344 665.158 250.344C666.31 250.344 667.066 251.136 667.066 252.336C667.066 253.5 666.394 254.364 665.254 254.364ZM669.246 255H673.818V254.256H671.958V246.564H671.19L669.282 248.46L669.81 249L670.71 248.1C671.046 247.776 671.13 247.596 671.13 247.596H671.154C671.154 247.596 671.142 247.824 671.142 248.064V254.256H669.246V255ZM674.704 253.992C674.704 253.992 675.724 255.144 677.38 255.144C678.976 255.144 680.152 253.944 680.152 252.504C680.152 250.68 678.58 250.08 677.512 250.02L680.032 247.116V246.564H675.1V247.308H678.268C678.712 247.308 678.952 247.272 678.952 247.272V247.296C678.952 247.296 678.736 247.5 678.508 247.764L676.396 250.236L676.6 250.728H677.176C678.28 250.728 679.3 251.34 679.3 252.528C679.3 253.608 678.376 254.352 677.368 254.352C676.072 254.352 675.208 253.356 675.208 253.356L674.704 253.992ZM684.658 255.144C686.854 255.144 687.562 253.224 687.562 250.776C687.562 248.352 686.854 246.42 684.658 246.42C682.462 246.42 681.742 248.352 681.742 250.776C681.742 253.224 682.462 255.144 684.658 255.144ZM684.658 254.364C683.05 254.364 682.606 252.792 682.606 250.776C682.606 248.772 683.05 247.2 684.658 247.2C686.254 247.2 686.698 248.772 686.698 250.776C686.698 252.792 686.254 254.364 684.658 254.364Z" fill="#404040"/>
<path d="M596.224 216H597.052V212.448H599.176L601.084 216H602.032L600.196 212.604C600.064 212.376 599.98 212.268 599.98 212.268V212.244C600.928 211.98 601.576 211.104 601.576 209.964C601.576 208.944 601.096 208.14 600.304 207.792C599.968 207.648 599.584 207.564 598.72 207.564H596.224V216ZM597.052 211.704V208.308H598.756C599.404 208.308 599.704 208.38 599.956 208.512C600.448 208.776 600.724 209.292 600.724 209.988C600.724 211.044 600.076 211.704 599.056 211.704H597.052ZM603.195 211.776C603.195 214.284 605.019 216.144 607.323 216.144C609.099 216.144 610.071 215.004 610.071 215.004H610.095C610.095 215.004 610.083 215.184 610.083 215.364V216H610.851V211.968H608.619V212.712H610.059V214.14C610.059 214.14 609.051 215.376 607.407 215.376C605.487 215.376 604.059 213.84 604.059 211.764C604.059 209.76 605.439 208.188 607.479 208.188C609.015 208.188 609.999 209.028 609.999 209.028L610.443 208.404C610.443 208.404 609.399 207.42 607.443 207.42C605.019 207.42 603.195 209.34 603.195 211.776ZM612.853 216H615.829C617.245 216 618.361 215.136 618.361 213.636C618.361 212.616 617.809 211.788 616.945 211.548V211.524C617.593 211.2 618.013 210.564 618.013 209.688C618.013 208.368 617.065 207.564 615.733 207.564H612.853V216ZM613.681 211.224V208.308H615.721C616.621 208.308 617.161 208.884 617.161 209.748C617.161 210.624 616.585 211.224 615.733 211.224H613.681ZM613.681 215.256V211.944H615.829C616.813 211.944 617.497 212.604 617.497 213.612C617.497 214.62 616.861 215.256 615.841 215.256H613.681Z" fill="#404040"/>
<path d="M595.66 231.728C595.66 234.188 597.436 236.144 599.932 236.144C602.008 236.144 603.16 234.836 603.16 234.836L602.68 234.248C602.68 234.248 601.648 235.376 599.944 235.376C597.94 235.376 596.524 233.732 596.524 231.716C596.524 229.724 597.94 228.188 599.92 228.188C601.504 228.188 602.488 229.124 602.488 229.124L602.932 228.512C602.932 228.512 601.912 227.42 599.896 227.42C597.484 227.42 595.66 229.28 595.66 231.728ZM604.69 236H605.518L605.986 230.096C606.022 229.64 606.01 228.896 606.01 228.896H606.034C606.034 228.896 606.298 229.676 606.49 230.096L608.47 234.428H609.25L611.23 230.096C611.422 229.664 611.674 228.92 611.674 228.92H611.698C611.698 228.92 611.686 229.64 611.722 230.096L612.19 236H613.018L612.346 227.564H611.494L609.286 232.52C609.094 232.952 608.866 233.552 608.866 233.552H608.842C608.842 233.552 608.626 232.952 608.434 232.52L606.226 227.564H605.362L604.69 236ZM616.891 236H617.731V232.376L620.563 227.564H619.627L617.839 230.624C617.575 231.068 617.323 231.632 617.323 231.632H617.299C617.299 231.632 617.035 231.056 616.783 230.624L614.995 227.564H614.047L616.891 232.376V236ZM621.982 236H622.81V231.968H624.238L626.65 236H627.622L624.934 231.572V231.548L627.454 227.564H626.506L624.238 231.224H622.81V227.564H621.982V236Z" fill="#404040"/>
<path d="M596.224 255H597.052V251.148H601.948V255H602.776V246.564H601.948V250.404H597.052V246.564H596.224V255ZM605.224 255H610.192V254.256H606.052V251.124H609.256V250.38H606.052V247.308H609.976V246.564H605.224V255ZM611.167 255H612.127L613.855 252.096C614.119 251.652 614.371 251.148 614.371 251.148H614.395C614.395 251.148 614.659 251.652 614.923 252.084L616.675 255H617.635L614.935 250.596L617.407 246.564H616.423L614.935 249.06C614.671 249.492 614.431 250.032 614.431 250.032H614.407C614.407 250.032 614.107 249.492 613.855 249.06L612.379 246.564H611.407L613.855 250.596L611.167 255Z" fill="#404040"/>
<rect x="401" y="37" width="169" height="150" rx="3" fill="#F05A22"/>
<path d="M447.768 216H453.036V215.256H448.632C448.644 213.012 452.904 212.616 452.904 209.784C452.904 208.464 451.944 207.42 450.336 207.42C448.548 207.42 447.78 208.944 447.78 208.944L448.404 209.364C448.404 209.364 449.052 208.212 450.288 208.212C451.344 208.212 452.04 208.908 452.04 209.832C452.04 212.112 447.72 212.496 447.72 215.46C447.72 215.628 447.732 215.808 447.768 216ZM453.935 213.66H458.159V216H458.987V213.66H460.187V212.928H458.987V207.564H458.087L453.935 213.12V213.66ZM454.943 212.928V212.904L457.751 209.244C457.979 208.944 458.171 208.608 458.171 208.608H458.195C458.195 208.608 458.159 209.04 458.159 209.4V212.928H454.943ZM464.444 216.144C466.64 216.144 467.348 214.224 467.348 211.776C467.348 209.352 466.64 207.42 464.444 207.42C462.248 207.42 461.528 209.352 461.528 211.776C461.528 214.224 462.248 216.144 464.444 216.144ZM464.444 215.364C462.836 215.364 462.392 213.792 462.392 211.776C462.392 209.772 462.836 208.2 464.444 208.2C466.04 208.2 466.484 209.772 466.484 211.776C466.484 213.792 466.04 215.364 464.444 215.364ZM474.05 216.144C476.666 216.144 477.758 213.492 477.758 211.38C477.758 209.1 476.546 207.42 474.71 207.42C473.234 207.42 472.07 208.488 472.07 210.24C472.07 211.836 473.15 212.964 474.686 212.964C475.562 212.964 476.414 212.58 476.834 211.98H476.858C476.702 213.624 475.814 215.364 474.038 215.364C473.342 215.364 472.814 215.064 472.814 215.064L472.502 215.796C472.502 215.796 473.126 216.144 474.05 216.144ZM474.818 212.22C473.666 212.22 472.91 211.428 472.91 210.228C472.91 209.064 473.582 208.2 474.722 208.2C475.982 208.2 476.858 209.652 476.858 210.78C476.858 211.464 475.958 212.22 474.818 212.22ZM482.291 216.144C484.487 216.144 485.195 214.224 485.195 211.776C485.195 209.352 484.487 207.42 482.291 207.42C480.095 207.42 479.375 209.352 479.375 211.776C479.375 214.224 480.095 216.144 482.291 216.144ZM482.291 215.364C480.683 215.364 480.239 213.792 480.239 211.776C480.239 209.772 480.683 208.2 482.291 208.2C483.887 208.2 484.331 209.772 484.331 211.776C484.331 213.792 483.887 215.364 482.291 215.364ZM489.798 214.992C489.798 214.992 490.818 216.144 492.474 216.144C494.07 216.144 495.246 214.944 495.246 213.504C495.246 211.68 493.674 211.08 492.606 211.02L495.126 208.116V207.564H490.194V208.308H493.362C493.806 208.308 494.046 208.272 494.046 208.272V208.296C494.046 208.296 493.83 208.5 493.602 208.764L491.49 211.236L491.694 211.728H492.27C493.374 211.728 494.394 212.34 494.394 213.528C494.394 214.608 493.47 215.352 492.462 215.352C491.166 215.352 490.302 214.356 490.302 214.356L489.798 214.992ZM496.404 213.66H500.628V216H501.456V213.66H502.656V212.928H501.456V207.564H500.556L496.404 213.12V213.66ZM497.412 212.928V212.904L500.22 209.244C500.448 208.944 500.64 208.608 500.64 208.608H500.664C500.664 208.608 500.628 209.04 500.628 209.4V212.928H497.412Z" fill="#404040"/>
<path d="M450.756 236.144C452.952 236.144 453.66 234.224 453.66 231.776C453.66 229.352 452.952 227.42 450.756 227.42C448.56 227.42 447.84 229.352 447.84 231.776C447.84 234.224 448.56 236.144 450.756 236.144ZM450.756 235.364C449.148 235.364 448.704 233.792 448.704 231.776C448.704 229.772 449.148 228.2 450.756 228.2C452.352 228.2 452.796 229.772 452.796 231.776C452.796 233.792 452.352 235.364 450.756 235.364ZM461.551 236.144C463.027 236.144 464.203 235.076 464.203 233.324C464.203 231.728 463.111 230.6 461.575 230.6C460.699 230.6 459.847 230.984 459.439 231.584H459.415C459.559 229.94 460.459 228.2 462.223 228.2C462.919 228.2 463.447 228.5 463.447 228.5L463.759 227.768C463.759 227.768 463.147 227.42 462.211 227.42C459.607 227.42 458.503 230.072 458.503 232.184C458.503 234.464 459.715 236.144 461.551 236.144ZM461.539 235.364C460.279 235.364 459.403 233.912 459.403 232.784C459.403 232.1 460.315 231.344 461.443 231.344C462.595 231.344 463.351 232.136 463.351 233.336C463.351 234.5 462.679 235.364 461.539 235.364ZM465.627 236H470.895V235.256H466.491C466.503 233.012 470.763 232.616 470.763 229.784C470.763 228.464 469.803 227.42 468.195 227.42C466.407 227.42 465.639 228.944 465.639 228.944L466.263 229.364C466.263 229.364 466.911 228.212 468.147 228.212C469.203 228.212 469.899 228.908 469.899 229.832C469.899 232.112 465.579 232.496 465.579 235.46C465.579 235.628 465.591 235.808 465.627 236ZM475.635 233.576C475.635 235.172 476.967 236.144 478.491 236.144C480.123 236.144 481.287 235.028 481.287 233.708C481.287 232.832 480.759 232.292 480.063 231.896C480.159 231.8 481.095 230.816 481.095 229.616C481.095 228.296 480.087 227.42 478.515 227.42C476.811 227.42 475.971 228.464 475.971 229.556C475.971 230.36 476.415 230.876 477.015 231.272C476.823 231.392 475.635 232.22 475.635 233.576ZM480.435 233.696C480.435 234.692 479.487 235.376 478.491 235.376C477.471 235.376 476.487 234.68 476.487 233.54C476.487 232.46 477.435 231.788 477.699 231.632C478.947 232.232 480.435 232.604 480.435 233.696ZM476.811 229.568C476.811 228.812 477.435 228.188 478.515 228.188C479.535 228.188 480.255 228.752 480.255 229.652C480.255 230.66 479.535 231.416 479.379 231.56C478.167 231.032 476.811 230.66 476.811 229.568ZM485.914 236.144C487.39 236.144 488.566 235.076 488.566 233.324C488.566 231.728 487.474 230.6 485.938 230.6C485.062 230.6 484.21 230.984 483.802 231.584H483.778C483.922 229.94 484.822 228.2 486.586 228.2C487.282 228.2 487.81 228.5 487.81 228.5L488.122 227.768C488.122 227.768 487.51 227.42 486.574 227.42C483.97 227.42 482.866 230.072 482.866 232.184C482.866 234.464 484.078 236.144 485.914 236.144ZM485.902 235.364C484.642 235.364 483.766 233.912 483.766 232.784C483.766 232.1 484.678 231.344 485.806 231.344C486.958 231.344 487.714 232.136 487.714 233.336C487.714 234.5 487.042 235.364 485.902 235.364ZM496.273 236.144C497.749 236.144 498.925 235.076 498.925 233.324C498.925 231.728 497.833 230.6 496.297 230.6C495.421 230.6 494.569 230.984 494.161 231.584H494.137C494.281 229.94 495.181 228.2 496.945 228.2C497.641 228.2 498.169 228.5 498.169 228.5L498.481 227.768C498.481 227.768 497.869 227.42 496.933 227.42C494.329 227.42 493.225 230.072 493.225 232.184C493.225 234.464 494.437 236.144 496.273 236.144ZM496.261 235.364C495.001 235.364 494.125 233.912 494.125 232.784C494.125 232.1 495.037 231.344 496.165 231.344C497.317 231.344 498.073 232.136 498.073 233.336C498.073 234.5 497.401 235.364 496.261 235.364Z" fill="#404040"/>
<path d="M448.86 255H449.592L450 252.66H452.076L451.668 255H452.4L452.808 252.66H454.488L454.596 251.988H452.928L453.336 249.636H455.016L455.136 248.964H453.456L453.876 246.564H453.144L452.724 248.964H450.648L451.068 246.564H450.336L449.916 248.964H448.212L448.104 249.636H449.796L449.376 251.988H447.684L447.564 252.66H449.268L448.86 255ZM450.12 251.988L450.528 249.636H452.604L452.184 251.988H450.12ZM456.908 255H457.736V251.22H460.832V250.476H457.736V247.308H461.348V246.564H456.908V255ZM465.604 255.144C467.8 255.144 468.508 253.224 468.508 250.776C468.508 248.352 467.8 246.42 465.604 246.42C463.408 246.42 462.688 248.352 462.688 250.776C462.688 253.224 463.408 255.144 465.604 255.144ZM465.604 254.364C463.996 254.364 463.552 252.792 463.552 250.776C463.552 248.772 463.996 247.2 465.604 247.2C467.2 247.2 467.644 248.772 467.644 250.776C467.644 252.792 467.2 254.364 465.604 254.364ZM469.996 253.944C469.996 253.944 470.788 255.144 472.468 255.144C474.112 255.144 475.396 253.932 475.396 252.372C475.396 250.848 474.184 249.624 472.492 249.624C471.736 249.624 471.208 249.948 471.208 249.948H471.184C471.184 249.948 471.232 249.768 471.268 249.468L471.508 247.308H474.868V246.564H470.788L470.332 250.656L470.86 250.848C470.86 250.848 471.496 250.392 472.396 250.392C473.596 250.392 474.532 251.22 474.532 252.372C474.532 253.524 473.596 254.352 472.432 254.352C471.148 254.352 470.524 253.368 470.524 253.368L469.996 253.944ZM482.399 255H483.275L480.179 246.564H479.291L476.195 255H477.071L478.031 252.312H481.427L482.399 255ZM479.747 247.44C479.747 247.44 479.927 248.136 480.071 248.532L481.175 251.592H478.271L479.399 248.532C479.543 248.136 479.723 247.44 479.723 247.44H479.747ZM484.202 255H489.47V254.256H485.066C485.078 252.012 489.338 251.616 489.338 248.784C489.338 247.464 488.378 246.42 486.77 246.42C484.982 246.42 484.214 247.944 484.214 247.944L484.838 248.364C484.838 248.364 485.486 247.212 486.722 247.212C487.778 247.212 488.474 247.908 488.474 248.832C488.474 251.112 484.154 251.496 484.154 254.46C484.154 254.628 484.166 254.808 484.202 255ZM490.987 255H496.255V254.256H491.851C491.863 252.012 496.123 251.616 496.123 248.784C496.123 247.464 495.163 246.42 493.555 246.42C491.767 246.42 490.999 247.944 490.999 247.944L491.623 248.364C491.623 248.364 492.271 247.212 493.507 247.212C494.563 247.212 495.259 247.908 495.259 248.832C495.259 251.112 490.939 251.496 490.939 254.46C490.939 254.628 490.951 254.808 490.987 255Z" fill="#404040"/>
<path d="M402.224 216H403.052V212.448H405.176L407.084 216H408.032L406.196 212.604C406.064 212.376 405.98 212.268 405.98 212.268V212.244C406.928 211.98 407.576 211.104 407.576 209.964C407.576 208.944 407.096 208.14 406.304 207.792C405.968 207.648 405.584 207.564 404.72 207.564H402.224V216ZM403.052 211.704V208.308H404.756C405.404 208.308 405.704 208.38 405.956 208.512C406.448 208.776 406.724 209.292 406.724 209.988C406.724 211.044 406.076 211.704 405.056 211.704H403.052ZM409.195 211.776C409.195 214.284 411.019 216.144 413.323 216.144C415.099 216.144 416.071 215.004 416.071 215.004H416.095C416.095 215.004 416.083 215.184 416.083 215.364V216H416.851V211.968H414.619V212.712H416.059V214.14C416.059 214.14 415.051 215.376 413.407 215.376C411.487 215.376 410.059 213.84 410.059 211.764C410.059 209.76 411.439 208.188 413.479 208.188C415.015 208.188 415.999 209.028 415.999 209.028L416.443 208.404C416.443 208.404 415.399 207.42 413.443 207.42C411.019 207.42 409.195 209.34 409.195 211.776ZM418.853 216H421.829C423.245 216 424.361 215.136 424.361 213.636C424.361 212.616 423.809 211.788 422.945 211.548V211.524C423.593 211.2 424.013 210.564 424.013 209.688C424.013 208.368 423.065 207.564 421.733 207.564H418.853V216ZM419.681 211.224V208.308H421.721C422.621 208.308 423.161 208.884 423.161 209.748C423.161 210.624 422.585 211.224 421.733 211.224H419.681ZM419.681 215.256V211.944H421.829C422.813 211.944 423.497 212.604 423.497 213.612C423.497 214.62 422.861 215.256 421.841 215.256H419.681Z" fill="#404040"/>
<path d="M401.66 231.728C401.66 234.188 403.436 236.144 405.932 236.144C408.008 236.144 409.16 234.836 409.16 234.836L408.68 234.248C408.68 234.248 407.648 235.376 405.944 235.376C403.94 235.376 402.524 233.732 402.524 231.716C402.524 229.724 403.94 228.188 405.92 228.188C407.504 228.188 408.488 229.124 408.488 229.124L408.932 228.512C408.932 228.512 407.912 227.42 405.896 227.42C403.484 227.42 401.66 229.28 401.66 231.728ZM410.69 236H411.518L411.986 230.096C412.022 229.64 412.01 228.896 412.01 228.896H412.034C412.034 228.896 412.298 229.676 412.49 230.096L414.47 234.428H415.25L417.23 230.096C417.422 229.664 417.674 228.92 417.674 228.92H417.698C417.698 228.92 417.686 229.64 417.722 230.096L418.19 236H419.018L418.346 227.564H417.494L415.286 232.52C415.094 232.952 414.866 233.552 414.866 233.552H414.842C414.842 233.552 414.626 232.952 414.434 232.52L412.226 227.564H411.362L410.69 236ZM422.891 236H423.731V232.376L426.563 227.564H425.627L423.839 230.624C423.575 231.068 423.323 231.632 423.323 231.632H423.299C423.299 231.632 423.035 231.056 422.783 230.624L420.995 227.564H420.047L422.891 232.376V236ZM427.982 236H428.81V231.968H430.238L432.65 236H433.622L430.934 231.572V231.548L433.454 227.564H432.506L430.238 231.224H428.81V227.564H427.982V236Z" fill="#404040"/>
<path d="M402.224 255H403.052V251.148H407.948V255H408.776V246.564H407.948V250.404H403.052V246.564H402.224V255ZM411.224 255H416.192V254.256H412.052V251.124H415.256V250.38H412.052V247.308H415.976V246.564H411.224V255ZM417.167 255H418.127L419.855 252.096C420.119 251.652 420.371 251.148 420.371 251.148H420.395C420.395 251.148 420.659 251.652 420.923 252.084L422.675 255H423.635L420.935 250.596L423.407 246.564H422.423L420.935 249.06C420.671 249.492 420.431 250.032 420.431 250.032H420.407C420.407 250.032 420.107 249.492 419.855 249.06L418.379 246.564H417.407L419.855 250.596L417.167 255Z" fill="#404040"/>
<path d="M257.84 219H264.21V217.796H259.31C259.338 215.542 264.056 215.038 264.056 211.79C264.056 210.082 262.754 208.948 260.934 208.948C258.708 208.948 257.812 210.824 257.812 210.824L258.834 211.51C258.834 211.51 259.534 210.25 260.836 210.25C261.872 210.25 262.614 210.908 262.614 211.888C262.614 214.212 257.77 214.716 257.77 218.244C257.77 218.482 257.798 218.734 257.84 219ZM265.684 217.796C265.684 217.796 266.678 219.168 268.708 219.168C270.71 219.168 272.208 217.74 272.208 215.836C272.208 214.058 270.85 212.616 268.764 212.616C268.036 212.616 267.49 212.924 267.49 212.924H267.462C267.462 212.924 267.518 212.7 267.532 212.406L267.77 210.32H271.55V209.116H266.566L266.076 214.016L266.874 214.31C266.874 214.31 267.574 213.82 268.54 213.82C269.814 213.82 270.794 214.66 270.794 215.85C270.794 217.054 269.786 217.852 268.624 217.852C267.224 217.852 266.454 216.788 266.454 216.788L265.684 217.796ZM273.74 219H280.11V217.796H275.21C275.238 215.542 279.956 215.038 279.956 211.79C279.956 210.082 278.654 208.948 276.834 208.948C274.608 208.948 273.712 210.824 273.712 210.824L274.734 211.51C274.734 211.51 275.434 210.25 276.736 210.25C277.772 210.25 278.514 210.908 278.514 211.888C278.514 214.212 273.67 214.716 273.67 218.244C273.67 218.482 273.698 218.734 273.74 219ZM285.292 219H290.976V217.796H288.82V209.116H287.588L285.222 211.412L286.062 212.28L286.986 211.37C287.35 211.02 287.462 210.796 287.462 210.796H287.49C287.49 210.796 287.476 211.104 287.476 211.412V217.796H285.292V219ZM294.465 219.168C297.531 219.168 298.917 216.144 298.917 213.61C298.917 210.782 297.321 208.948 295.221 208.948C293.373 208.948 292.043 210.306 292.043 212.252C292.043 214.086 293.289 215.5 295.165 215.5C296.033 215.5 296.943 215.136 297.349 214.576H297.377C297.167 216.214 296.229 217.894 294.409 217.894C293.625 217.894 292.995 217.558 292.995 217.558L292.547 218.762C292.547 218.762 293.289 219.168 294.465 219.168ZM295.445 214.338C294.171 214.338 293.415 213.456 293.415 212.252C293.415 211.104 294.087 210.222 295.235 210.222C296.495 210.222 297.461 211.664 297.461 212.952C297.461 213.652 296.565 214.338 295.445 214.338ZM300.298 217.824C300.298 217.824 301.488 219.168 303.504 219.168C305.534 219.168 306.864 217.684 306.864 215.99C306.864 214.072 305.268 213.232 303.966 213.092L306.654 209.998V209.116H300.746V210.32H304.092C304.638 210.32 304.932 210.278 304.932 210.278V210.306C304.932 210.306 304.638 210.572 304.316 210.95L302.16 213.484L302.482 214.226H303.168C304.386 214.226 305.464 214.828 305.464 216.046C305.464 217.11 304.554 217.852 303.448 217.852C302.02 217.852 301.054 216.774 301.054 216.774L300.298 217.824ZM312.061 219H317.745V217.796H315.589V209.116H314.357L311.991 211.412L312.831 212.28L313.755 211.37C314.119 211.02 314.231 210.796 314.231 210.796H314.259C314.259 210.796 314.245 211.104 314.245 211.412V217.796H312.061V219ZM318.967 219H325.337V217.796H320.437C320.465 215.542 325.183 215.038 325.183 211.79C325.183 210.082 323.881 208.948 322.061 208.948C319.835 208.948 318.939 210.824 318.939 210.824L319.961 211.51C319.961 211.51 320.661 210.25 321.963 210.25C322.999 210.25 323.741 210.908 323.741 211.888C323.741 214.212 318.897 214.716 318.897 218.244C318.897 218.482 318.925 218.734 318.967 219ZM326.979 219H333.349V217.796H328.449C328.477 215.542 333.195 215.038 333.195 211.79C333.195 210.082 331.893 208.948 330.073 208.948C327.847 208.948 326.951 210.824 326.951 210.824L327.973 211.51C327.973 211.51 328.673 210.25 329.975 210.25C331.011 210.25 331.753 210.908 331.753 211.888C331.753 214.212 326.909 214.716 326.909 218.244C326.909 218.482 326.937 218.734 326.979 219Z" fill="#404040"/>
<path d="M261.368 240.168C264.014 240.168 264.868 237.9 264.868 235.044C264.868 232.202 264.014 229.948 261.368 229.948C258.736 229.948 257.882 232.202 257.882 235.044C257.882 237.9 258.736 240.168 261.368 240.168ZM261.368 238.894C259.758 238.894 259.296 237.2 259.296 235.044C259.296 232.902 259.758 231.222 261.368 231.222C262.992 231.222 263.454 232.902 263.454 235.044C263.454 237.2 262.992 238.894 261.368 238.894ZM270.186 240H276.556V238.796H271.656C271.684 236.542 276.402 236.038 276.402 232.79C276.402 231.082 275.1 229.948 273.28 229.948C271.054 229.948 270.158 231.824 270.158 231.824L271.18 232.51C271.18 232.51 271.88 231.25 273.182 231.25C274.218 231.25 274.96 231.908 274.96 232.888C274.96 235.212 270.116 235.716 270.116 239.244C270.116 239.482 270.144 239.734 270.186 240ZM277.917 238.824C277.917 238.824 279.107 240.168 281.123 240.168C283.153 240.168 284.483 238.684 284.483 236.99C284.483 235.072 282.887 234.232 281.585 234.092L284.273 230.998V230.116H278.365V231.32H281.711C282.257 231.32 282.551 231.278 282.551 231.278V231.306C282.551 231.306 282.257 231.572 281.935 231.95L279.779 234.484L280.101 235.226H280.787C282.005 235.226 283.083 235.828 283.083 237.046C283.083 238.11 282.173 238.852 281.067 238.852C279.639 238.852 278.673 237.774 278.673 237.774L277.917 238.824ZM289.568 238.796C289.568 238.796 290.562 240.168 292.592 240.168C294.594 240.168 296.092 238.74 296.092 236.836C296.092 235.058 294.734 233.616 292.648 233.616C291.92 233.616 291.374 233.924 291.374 233.924H291.346C291.346 233.924 291.402 233.7 291.416 233.406L291.654 231.32H295.434V230.116H290.45L289.96 235.016L290.758 235.31C290.758 235.31 291.458 234.82 292.424 234.82C293.698 234.82 294.678 235.66 294.678 236.85C294.678 238.054 293.67 238.852 292.508 238.852C291.108 238.852 290.338 237.788 290.338 237.788L289.568 238.796ZM297.625 240H303.995V238.796H299.095C299.123 236.542 303.841 236.038 303.841 232.79C303.841 231.082 302.539 229.948 300.719 229.948C298.493 229.948 297.597 231.824 297.597 231.824L298.619 232.51C298.619 232.51 299.319 231.25 300.621 231.25C301.657 231.25 302.399 231.908 302.399 232.888C302.399 235.212 297.555 235.716 297.555 239.244C297.555 239.482 297.583 239.734 297.625 240ZM309.177 240H314.861V238.796H312.705V230.116H311.473L309.107 232.412L309.947 233.28L310.871 232.37C311.235 232.02 311.347 231.796 311.347 231.796H311.375C311.375 231.796 311.361 232.104 311.361 232.412V238.796H309.177V240Z" fill="#404040"/>
<path d="M258.974 261H260.108L260.57 258.326H262.74L262.278 261H263.412L263.888 258.326H265.694L265.876 257.29H264.056L264.476 254.938H266.296L266.478 253.916H264.644L265.134 251.116H264L263.51 253.916H261.34L261.83 251.116H260.696L260.206 253.916H258.386L258.218 254.938H260.024L259.618 257.29H257.784L257.616 258.326H259.436L258.974 261ZM260.752 257.29L261.172 254.938H263.342L262.922 257.29H260.752ZM268.393 261H269.779V256.772H273.237V255.568H269.779V252.32H273.839V251.116H268.393V261ZM275.022 256.002C275.022 258.9 277.108 261.168 280.076 261.168C282.554 261.168 283.912 259.6 283.912 259.6L283.17 258.606C283.17 258.606 281.98 259.894 280.118 259.894C277.92 259.894 276.45 258.102 276.45 255.988C276.45 253.888 277.892 252.208 280.104 252.208C281.812 252.208 282.96 253.286 282.96 253.286L283.646 252.25C283.646 252.25 282.428 250.948 280.048 250.948C277.178 250.948 275.022 253.132 275.022 256.002ZM285.057 256.002C285.057 258.9 287.143 261.168 290.111 261.168C292.589 261.168 293.947 259.6 293.947 259.6L293.205 258.606C293.205 258.606 292.015 259.894 290.153 259.894C287.955 259.894 286.485 258.102 286.485 255.988C286.485 253.888 287.927 252.208 290.139 252.208C291.847 252.208 292.995 253.286 292.995 253.286L293.681 252.25C293.681 252.25 292.463 250.948 290.083 250.948C287.213 250.948 285.057 253.132 285.057 256.002ZM295.272 261H300.956V259.796H298.8V251.116H297.568L295.202 253.412L296.042 254.28L296.966 253.37C297.33 253.02 297.442 252.796 297.442 252.796H297.47C297.47 252.796 297.456 253.104 297.456 253.412V259.796H295.272V261ZM302.542 261H303.97L308.436 252.068V251.116H301.828V252.32H306.238C306.742 252.32 306.966 252.278 306.966 252.278V252.306C306.966 252.306 306.672 252.656 306.392 253.216L302.542 261ZM315.986 261H317.428L313.872 251.116H312.416L308.86 261H310.288L311.268 258.158H314.992L315.986 261ZM313.158 252.474C313.158 252.474 313.368 253.37 313.536 253.874L314.628 257.01H311.632L312.738 253.874C312.906 253.37 313.13 252.474 313.13 252.474H313.158Z" fill="#404040"/>
<path d="M208.344 219H209.73V215.066H211.844L213.93 219H215.498L213.398 215.164C213.216 214.842 213.104 214.716 213.104 214.716V214.688C214.182 214.338 214.882 213.274 214.882 212.014C214.882 210.712 214.224 209.718 213.216 209.34C212.838 209.2 212.404 209.116 211.368 209.116H208.344V219ZM209.73 213.862V210.32H211.326C212.096 210.32 212.418 210.404 212.684 210.544C213.188 210.824 213.468 211.342 213.468 212.07C213.468 213.176 212.796 213.862 211.718 213.862H209.73ZM216.655 214.044C216.655 217.068 218.853 219.168 221.513 219.168C223.473 219.168 224.551 217.964 224.551 217.964H224.579C224.579 217.964 224.565 218.174 224.565 218.384V219H225.783V214.03H222.913V215.234H224.523V216.662C224.523 216.662 223.431 217.894 221.723 217.894C219.651 217.894 218.083 216.312 218.083 214.016C218.083 211.902 219.483 210.208 221.807 210.208C223.487 210.208 224.593 211.174 224.593 211.174L225.293 210.138C225.293 210.138 224.061 208.948 221.695 208.948C218.811 208.948 216.655 211.188 216.655 214.044ZM227.949 219H231.491C233.227 219 234.669 218.048 234.669 216.186C234.669 215.08 234.081 214.1 233.045 213.792V213.764C233.801 213.372 234.277 212.602 234.277 211.636C234.277 210.04 233.073 209.116 231.407 209.116H227.949V219ZM229.335 213.274V210.32H231.379C232.331 210.32 232.863 210.908 232.863 211.776C232.863 212.644 232.303 213.274 231.407 213.274H229.335ZM229.335 217.796V214.422H231.547C232.583 214.422 233.255 215.108 233.255 216.116C233.255 217.124 232.625 217.796 231.561 217.796H229.335Z" fill="#404040"/>
<path d="M207.672 235.002C207.672 237.9 209.758 240.168 212.726 240.168C215.204 240.168 216.562 238.6 216.562 238.6L215.82 237.606C215.82 237.606 214.63 238.894 212.768 238.894C210.57 238.894 209.1 237.102 209.1 234.988C209.1 232.888 210.542 231.208 212.754 231.208C214.462 231.208 215.61 232.286 215.61 232.286L216.296 231.25C216.296 231.25 215.078 229.948 212.698 229.948C209.828 229.948 207.672 232.132 207.672 235.002ZM218.14 240H219.526L220.002 233.77C220.044 233.168 220.03 232.286 220.03 232.286H220.058C220.058 232.286 220.366 233.238 220.59 233.77L222.55 238.222H223.782L225.756 233.77C225.994 233.224 226.288 232.314 226.288 232.314H226.316C226.316 232.314 226.288 233.168 226.33 233.77L226.82 240H228.192L227.394 230.116H225.938L223.67 235.464C223.446 236.01 223.18 236.794 223.18 236.794H223.152C223.152 236.794 222.886 236.01 222.662 235.464L220.394 230.116H218.938L218.14 240ZM232.524 240H233.91V235.814L237.214 230.116H235.646L233.84 233.364C233.532 233.924 233.238 234.61 233.238 234.61H233.21C233.21 234.61 232.916 233.91 232.608 233.364L230.774 230.116H229.206L232.524 235.814V240ZM238.668 240H240.054V235.464H241.524L244.156 240H245.724L242.672 234.834V234.806L245.542 230.116H244.016L241.524 234.274H240.054V230.116H238.668V240Z" fill="#404040"/>
<path d="M208.344 261H209.73V256.66H214.854V261H216.24V251.116H214.854V255.456H209.73V251.116H208.344V261ZM218.926 261H224.904V259.796H220.312V256.618H223.854V255.414H220.312V252.32H224.666V251.116H218.926V261ZM225.915 261H227.469L229.261 257.962C229.583 257.416 229.849 256.828 229.849 256.828H229.877C229.877 256.828 230.185 257.402 230.507 257.962L232.299 261H233.867L230.745 255.904L233.671 251.116H232.075L230.521 253.79C230.199 254.336 229.919 254.966 229.919 254.966H229.891C229.891 254.966 229.569 254.322 229.261 253.79L227.707 251.116H226.111L229.037 255.904L225.915 261Z" fill="#404040"/>
<path d="M97.5 292.5L13.0625 146.25L181.937 146.25L97.5 292.5Z" fill="#FCC17A"/>
<path d="M257.84 40H264.21V38.796H259.31C259.338 36.542 264.056 36.038 264.056 32.79C264.056 31.082 262.754 29.948 260.934 29.948C258.708 29.948 257.812 31.824 257.812 31.824L258.834 32.51C258.834 32.51 259.534 31.25 260.836 31.25C261.872 31.25 262.614 31.908 262.614 32.888C262.614 35.212 257.77 35.716 257.77 39.244C257.77 39.482 257.798 39.734 257.84 40ZM265.213 37.354H270.001V40H271.359V37.354H272.703V36.178H271.359V30.116H269.777L265.213 36.486V37.354ZM266.739 36.178V36.15L269.539 32.412C269.805 32.062 270.029 31.6 270.029 31.6H270.057C270.057 31.6 270.001 32.118 270.001 32.58V36.178H266.739ZM277.792 40.168C279.64 40.168 280.97 38.81 280.97 36.864C280.97 35.03 279.724 33.602 277.848 33.602C276.98 33.602 276.084 33.98 275.664 34.54H275.636C275.846 32.902 276.784 31.222 278.604 31.222C279.388 31.222 280.018 31.544 280.018 31.544L280.466 30.354C280.466 30.354 279.71 29.948 278.548 29.948C275.482 29.948 274.096 32.972 274.096 35.506C274.096 38.32 275.678 40.168 277.792 40.168ZM277.778 38.894C276.518 38.894 275.552 37.452 275.552 36.164C275.552 35.45 276.448 34.778 277.568 34.778C278.828 34.778 279.598 35.66 279.598 36.864C279.598 38.012 278.912 38.894 277.778 38.894ZM286.03 40H291.714V38.796H289.558V30.116H288.326L285.96 32.412L286.8 33.28L287.724 32.37C288.088 32.02 288.2 31.796 288.2 31.796H288.228C288.228 31.796 288.214 32.104 288.214 32.412V38.796H286.03V40ZM292.656 38.824C292.656 38.824 293.846 40.168 295.862 40.168C297.892 40.168 299.222 38.684 299.222 36.99C299.222 35.072 297.626 34.232 296.324 34.092L299.012 30.998V30.116H293.104V31.32H296.45C296.996 31.32 297.29 31.278 297.29 31.278V31.306C297.29 31.306 296.996 31.572 296.674 31.95L294.518 34.484L294.84 35.226H295.526C296.744 35.226 297.822 35.828 297.822 37.046C297.822 38.11 296.912 38.852 295.806 38.852C294.378 38.852 293.412 37.774 293.412 37.774L292.656 38.824ZM301.243 40H302.671L307.137 31.068V30.116H300.529V31.32H304.939C305.443 31.32 305.667 31.278 305.667 31.278V31.306C305.667 31.306 305.373 31.656 305.093 32.216L301.243 40ZM311.717 38.796C311.717 38.796 312.711 40.168 314.741 40.168C316.743 40.168 318.241 38.74 318.241 36.836C318.241 35.058 316.883 33.616 314.797 33.616C314.069 33.616 313.523 33.924 313.523 33.924H313.495C313.495 33.924 313.551 33.7 313.565 33.406L313.803 31.32H317.583V30.116H312.599L312.109 35.016L312.907 35.31C312.907 35.31 313.607 34.82 314.573 34.82C315.847 34.82 316.827 35.66 316.827 36.85C316.827 38.054 315.819 38.852 314.657 38.852C313.257 38.852 312.487 37.788 312.487 37.788L311.717 38.796ZM323.302 40.168C325.948 40.168 326.802 37.9 326.802 35.044C326.802 32.202 325.948 29.948 323.302 29.948C320.67 29.948 319.816 32.202 319.816 35.044C319.816 37.9 320.67 40.168 323.302 40.168ZM323.302 38.894C321.692 38.894 321.23 37.2 321.23 35.044C321.23 32.902 321.692 31.222 323.302 31.222C324.926 31.222 325.388 32.902 325.388 35.044C325.388 37.2 324.926 38.894 323.302 38.894Z" fill="#404040"/>
<path d="M261.368 61.168C264.014 61.168 264.868 58.9 264.868 56.044C264.868 53.202 264.014 50.948 261.368 50.948C258.736 50.948 257.882 53.202 257.882 56.044C257.882 58.9 258.736 61.168 261.368 61.168ZM261.368 59.894C259.758 59.894 259.296 58.2 259.296 56.044C259.296 53.902 259.758 52.222 261.368 52.222C262.992 52.222 263.454 53.902 263.454 56.044C263.454 58.2 262.992 59.894 261.368 59.894ZM269.78 58.354H274.568V61H275.926V58.354H277.27V57.178H275.926V51.116H274.344L269.78 57.486V58.354ZM271.306 57.178V57.15L274.106 53.412C274.372 53.062 274.596 52.6 274.596 52.6H274.624C274.624 52.6 274.568 53.118 274.568 53.58V57.178H271.306ZM278.27 58.354H283.058V61H284.416V58.354H285.76V57.178H284.416V51.116H282.834L278.27 57.486V58.354ZM279.796 57.178V57.15L282.596 53.412C282.862 53.062 283.086 52.6 283.086 52.6H283.114C283.114 52.6 283.058 53.118 283.058 53.58V57.178H279.796ZM290.72 58.144C290.72 59.936 292.19 61.168 294.164 61.168C296.222 61.168 297.552 59.81 297.552 58.27C297.552 57.248 296.964 56.632 296.208 56.17C296.334 56.03 297.384 54.91 297.384 53.594C297.384 51.97 296.11 50.948 294.276 50.948C292.19 50.948 291.196 52.222 291.196 53.538C291.196 54.448 291.658 55.05 292.302 55.512C292.036 55.694 290.72 56.632 290.72 58.144ZM296.124 58.228C296.124 59.25 295.2 59.922 294.164 59.922C293.114 59.922 292.134 59.194 292.134 58.06C292.134 56.996 293.002 56.324 293.324 56.1C294.654 56.744 296.124 57.164 296.124 58.228ZM292.568 53.566C292.568 52.81 293.17 52.194 294.262 52.194C295.298 52.194 296.026 52.768 296.026 53.678C296.026 54.714 295.312 55.47 295.158 55.624C293.884 55.078 292.568 54.658 292.568 53.566ZM302.794 61.168C305.44 61.168 306.294 58.9 306.294 56.044C306.294 53.202 305.44 50.948 302.794 50.948C300.162 50.948 299.308 53.202 299.308 56.044C299.308 58.9 300.162 61.168 302.794 61.168ZM302.794 59.894C301.184 59.894 300.722 58.2 300.722 56.044C300.722 53.902 301.184 52.222 302.794 52.222C304.418 52.222 304.88 53.902 304.88 56.044C304.88 58.2 304.418 59.894 302.794 59.894ZM311.205 58.354H315.993V61H317.351V58.354H318.695V57.178H317.351V51.116H315.769L311.205 57.486V58.354ZM312.731 57.178V57.15L315.531 53.412C315.797 53.062 316.021 52.6 316.021 52.6H316.049C316.049 52.6 315.993 53.118 315.993 53.58V57.178H312.731Z" fill="#404040"/>
<path d="M258.974 82H260.108L260.57 79.326H262.74L262.278 82H263.412L263.888 79.326H265.694L265.876 78.29H264.056L264.476 75.938H266.296L266.478 74.916H264.644L265.134 72.116H264L263.51 74.916H261.34L261.83 72.116H260.696L260.206 74.916H258.386L258.218 75.938H260.024L259.618 78.29H257.784L257.616 79.326H259.436L258.974 82ZM260.752 78.29L261.172 75.938H263.342L262.922 78.29H260.752ZM268.393 82H269.779V77.772H273.237V76.568H269.779V73.32H273.839V72.116H268.393V82ZM278.872 82.168C280.72 82.168 282.05 80.81 282.05 78.864C282.05 77.03 280.804 75.602 278.928 75.602C278.06 75.602 277.164 75.98 276.744 76.54H276.716C276.926 74.902 277.864 73.222 279.684 73.222C280.468 73.222 281.098 73.544 281.098 73.544L281.546 72.354C281.546 72.354 280.79 71.948 279.628 71.948C276.562 71.948 275.176 74.972 275.176 77.506C275.176 80.32 276.758 82.168 278.872 82.168ZM278.858 80.894C277.598 80.894 276.632 79.452 276.632 78.164C276.632 77.45 277.528 76.778 278.648 76.778C279.908 76.778 280.678 77.66 280.678 78.864C280.678 80.012 279.992 80.894 278.858 80.894ZM283.528 79.144C283.528 80.936 284.998 82.168 286.972 82.168C289.03 82.168 290.36 80.81 290.36 79.27C290.36 78.248 289.772 77.632 289.016 77.17C289.142 77.03 290.192 75.91 290.192 74.594C290.192 72.97 288.918 71.948 287.084 71.948C284.998 71.948 284.004 73.222 284.004 74.538C284.004 75.448 284.466 76.05 285.11 76.512C284.844 76.694 283.528 77.632 283.528 79.144ZM288.932 79.228C288.932 80.25 288.008 80.922 286.972 80.922C285.922 80.922 284.942 80.194 284.942 79.06C284.942 77.996 285.81 77.324 286.132 77.1C287.462 77.744 288.932 78.164 288.932 79.228ZM285.376 74.566C285.376 73.81 285.978 73.194 287.07 73.194C288.106 73.194 288.834 73.768 288.834 74.678C288.834 75.714 288.12 76.47 287.966 76.624C286.692 76.078 285.376 75.658 285.376 74.566ZM294.342 82.168C297.408 82.168 298.794 79.144 298.794 76.61C298.794 73.782 297.198 71.948 295.098 71.948C293.25 71.948 291.92 73.306 291.92 75.252C291.92 77.086 293.166 78.5 295.042 78.5C295.91 78.5 296.82 78.136 297.226 77.576H297.254C297.044 79.214 296.106 80.894 294.286 80.894C293.502 80.894 292.872 80.558 292.872 80.558L292.424 81.762C292.424 81.762 293.166 82.168 294.342 82.168ZM295.322 77.338C294.048 77.338 293.292 76.456 293.292 75.252C293.292 74.104 293.964 73.222 295.112 73.222C296.372 73.222 297.338 74.664 297.338 75.952C297.338 76.652 296.442 77.338 295.322 77.338ZM300.175 80.824C300.175 80.824 301.365 82.168 303.381 82.168C305.411 82.168 306.741 80.684 306.741 78.99C306.741 77.072 305.145 76.232 303.843 76.092L306.531 72.998V72.116H300.623V73.32H303.969C304.515 73.32 304.809 73.278 304.809 73.278V73.306C304.809 73.306 304.515 73.572 304.193 73.95L302.037 76.484L302.359 77.226H303.045C304.263 77.226 305.341 77.828 305.341 79.046C305.341 80.11 304.431 80.852 303.325 80.852C301.897 80.852 300.931 79.774 300.931 79.774L300.175 80.824ZM308.399 82H314.769V80.796H309.869C309.897 78.542 314.615 78.038 314.615 74.79C314.615 73.082 313.313 71.948 311.493 71.948C309.267 71.948 308.371 73.824 308.371 73.824L309.393 74.51C309.393 74.51 310.093 73.25 311.395 73.25C312.431 73.25 313.173 73.908 313.173 74.888C313.173 77.212 308.329 77.716 308.329 81.244C308.329 81.482 308.357 81.734 308.399 82Z" fill="#404040"/>
<path d="M208.344 40H209.73V36.066H211.844L213.93 40H215.498L213.398 36.164C213.216 35.842 213.104 35.716 213.104 35.716V35.688C214.182 35.338 214.882 34.274 214.882 33.014C214.882 31.712 214.224 30.718 213.216 30.34C212.838 30.2 212.404 30.116 211.368 30.116H208.344V40ZM209.73 34.862V31.32H211.326C212.096 31.32 212.418 31.404 212.684 31.544C213.188 31.824 213.468 32.342 213.468 33.07C213.468 34.176 212.796 34.862 211.718 34.862H209.73ZM216.655 35.044C216.655 38.068 218.853 40.168 221.513 40.168C223.473 40.168 224.551 38.964 224.551 38.964H224.579C224.579 38.964 224.565 39.174 224.565 39.384V40H225.783V35.03H222.913V36.234H224.523V37.662C224.523 37.662 223.431 38.894 221.723 38.894C219.651 38.894 218.083 37.312 218.083 35.016C218.083 32.902 219.483 31.208 221.807 31.208C223.487 31.208 224.593 32.174 224.593 32.174L225.293 31.138C225.293 31.138 224.061 29.948 221.695 29.948C218.811 29.948 216.655 32.188 216.655 35.044ZM227.949 40H231.491C233.227 40 234.669 39.048 234.669 37.186C234.669 36.08 234.081 35.1 233.045 34.792V34.764C233.801 34.372 234.277 33.602 234.277 32.636C234.277 31.04 233.073 30.116 231.407 30.116H227.949V40ZM229.335 34.274V31.32H231.379C232.331 31.32 232.863 31.908 232.863 32.776C232.863 33.644 232.303 34.274 231.407 34.274H229.335ZM229.335 38.796V35.422H231.547C232.583 35.422 233.255 36.108 233.255 37.116C233.255 38.124 232.625 38.796 231.561 38.796H229.335Z" fill="#404040"/>
<path d="M207.672 56.002C207.672 58.9 209.758 61.168 212.726 61.168C215.204 61.168 216.562 59.6 216.562 59.6L215.82 58.606C215.82 58.606 214.63 59.894 212.768 59.894C210.57 59.894 209.1 58.102 209.1 55.988C209.1 53.888 210.542 52.208 212.754 52.208C214.462 52.208 215.61 53.286 215.61 53.286L216.296 52.25C216.296 52.25 215.078 50.948 212.698 50.948C209.828 50.948 207.672 53.132 207.672 56.002ZM218.14 61H219.526L220.002 54.77C220.044 54.168 220.03 53.286 220.03 53.286H220.058C220.058 53.286 220.366 54.238 220.59 54.77L222.55 59.222H223.782L225.756 54.77C225.994 54.224 226.288 53.314 226.288 53.314H226.316C226.316 53.314 226.288 54.168 226.33 54.77L226.82 61H228.192L227.394 51.116H225.938L223.67 56.464C223.446 57.01 223.18 57.794 223.18 57.794H223.152C223.152 57.794 222.886 57.01 222.662 56.464L220.394 51.116H218.938L218.14 61ZM232.524 61H233.91V56.814L237.214 51.116H235.646L233.84 54.364C233.532 54.924 233.238 55.61 233.238 55.61H233.21C233.21 55.61 232.916 54.91 232.608 54.364L230.774 51.116H229.206L232.524 56.814V61ZM238.668 61H240.054V56.464H241.524L244.156 61H245.724L242.672 55.834V55.806L245.542 51.116H244.016L241.524 55.274H240.054V51.116H238.668V61Z" fill="#404040"/>
<path d="M208.344 82H209.73V77.66H214.854V82H216.24V72.116H214.854V76.456H209.73V72.116H208.344V82ZM218.926 82H224.904V80.796H220.312V77.618H223.854V76.414H220.312V73.32H224.666V72.116H218.926V82ZM225.915 82H227.469L229.261 78.962C229.583 78.416 229.849 77.828 229.849 77.828H229.877C229.877 77.828 230.185 78.402 230.507 78.962L232.299 82H233.867L230.745 76.904L233.671 72.116H232.075L230.521 74.79C230.199 75.336 229.919 75.966 229.919 75.966H229.891C229.891 75.966 229.569 75.322 229.261 74.79L227.707 72.116H226.111L229.037 76.904L225.915 82Z" fill="#404040"/>
<path d="M97.5 0L181.937 146.25H13.0625L97.5 0Z" fill="#F68932"/>
</svg>
