<svg width="809" height="150" viewBox="0 0 809 150" fill="none" xmlns="http://www.w3.org/2000/svg">
<path d="M471.928 50.2975C484.07 50.2975 490.087 57.3677 490.087 57.3677L485.692 63.8147C482.105 60.3247 477.318 58.3407 472.314 58.2703C462.569 58.2703 455.488 65.5339 455.488 75.4623C455.488 85.3907 462.569 92.8477 472.594 92.8477C481.577 92.8477 487.508 86.4007 487.508 86.4007L491.236 93.1808C491.236 93.1808 484.542 100.917 471.895 100.917C456.702 100.917 446 90.1722 446 75.602C446.032 61.2466 456.691 50.2975 471.928 50.2975Z" fill="#808285"/>
<path d="M522.388 50.2975C536.818 50.2975 548.477 60.9028 548.477 75.5267C548.477 90.1507 536.818 100.939 522.388 100.939C507.957 100.939 496.299 90.1937 496.299 75.5267C496.299 60.8598 507.957 50.2975 522.388 50.2975ZM522.388 92.9121C531.564 92.9121 539.01 85.6485 539.01 75.5267C539.01 65.405 531.564 58.3347 522.388 58.3347C513.211 58.3347 505.754 65.5017 505.754 75.5267C505.754 85.5518 513.308 92.9121 522.388 92.9121Z" fill="#808285"/>
<path d="M557.521 51.4471H566.472V59.8496C566.472 61.0625 566.411 62.2747 566.289 63.4814H566.472C568.675 56.4112 574.316 50.8776 581.762 50.8776C582.564 50.8828 583.365 50.9438 584.158 51.0602V60.2365C583.279 60.0492 582.382 59.952 581.483 59.9463C575.552 59.9463 570.104 64.1584 567.912 71.3253C567.096 74.149 566.708 77.0792 566.762 80.018V99.7995H557.521V51.4471Z" fill="#808285"/>
<path d="M611.968 50.2975C625.625 50.2975 632.889 60.43 632.889 72.9479C632.889 74.1836 632.609 76.9558 632.609 76.9558H597.344C597.817 87.5611 605.371 92.9121 613.967 92.9121C622.283 92.9121 628.301 87.2818 628.301 87.2818L632.126 94.0619C626.902 98.5134 620.26 100.952 613.397 100.939C598.204 100.939 587.781 89.9573 587.781 75.6234C587.781 60.2366 598.204 50.2975 611.968 50.2975ZM623.433 69.9823C623.143 61.6657 617.985 57.6578 611.775 57.6578C604.705 57.6578 598.967 62.0525 597.634 69.9823H623.433Z" fill="#808285"/>
<path d="M642.258 51.4472H650.757V55.5518C650.757 57.4644 650.574 59.0869 650.574 59.0869H650.757C650.757 59.0869 654.872 50.2975 667.004 50.2975C680.005 50.2975 688.225 60.6234 688.225 75.6234C688.225 91.0103 678.952 100.939 666.337 100.939C663.391 101.031 660.472 100.347 657.873 98.9548C655.274 97.563 653.087 95.5125 651.531 93.0088H651.337C651.473 94.4087 651.537 95.8145 651.531 97.2209V118.894H642.258V51.4472ZM664.908 93.0088C672.548 93.0088 678.877 86.7015 678.877 75.7201C678.877 65.2008 673.236 58.4207 665.209 58.4207C657.945 58.4207 651.241 63.4816 651.241 75.8169C651.241 84.4128 656.011 93.0088 664.908 93.0088Z" fill="#58595B"/>
<path d="M697.111 32.3317H706.374V84.9822C706.374 90.8167 708.673 91.8698 711.531 91.8698C712.077 91.8681 712.622 91.8358 713.164 91.7731V99.9822C712.148 100.107 711.126 100.172 710.102 100.176C704.848 100.176 697.111 98.7466 697.111 86.6047V32.3317Z" fill="#58595B"/>
<path d="M720.428 51.447H729.69V80.3081C729.69 86.9915 731.033 92.3425 738.769 92.3425C748.612 92.3425 754.446 83.6498 754.446 74.076V51.447H763.709V99.7995H754.726V93.3525C754.723 92.1714 754.788 90.9912 754.919 89.8174H754.726C753.127 93.1654 750.605 95.9868 747.456 97.9494C744.307 99.9121 740.664 100.934 736.954 100.896C726.058 100.896 720.428 95.1684 720.428 82.3604V51.447Z" fill="#58595B"/>
<path d="M776.892 87.2818C780.649 90.8136 785.586 92.8207 790.742 92.9121C794.761 92.9121 798.769 90.7631 798.769 86.895C798.769 78.0088 773.926 79.8247 773.926 64.0618C773.926 55.2724 781.759 50.2975 791.408 50.2975C802.024 50.2975 806.989 55.67 806.989 55.67L803.26 62.6435C799.949 59.7837 795.696 58.2524 791.322 58.3455C787.304 58.3455 783.382 60.0647 783.382 64.2767C783.382 72.9694 808.235 71.0568 808.235 86.9164C808.235 94.943 801.347 100.96 790.742 100.96C783.939 101.094 777.354 98.5559 772.4 93.8899L776.892 87.2818Z" fill="#58595B"/>
<path d="M647.54 139.476C649.737 139.476 651.545 137.617 651.545 134.444C651.545 131.271 649.932 129.437 647.644 129.437C645.563 129.437 643.612 130.933 643.612 134.47C643.612 136.979 645.004 139.476 647.579 139.476H647.54ZM642 128.202H643.612V129.411C643.63 129.736 643.63 130.061 643.612 130.386C644.008 129.596 644.627 128.94 645.392 128.499C646.157 128.057 647.035 127.85 647.917 127.903C651.272 127.903 653.352 130.581 653.352 134.405C653.352 138.228 650.999 140.907 647.774 140.907C646.939 140.931 646.114 140.72 645.392 140.3C644.671 139.879 644.081 139.265 643.69 138.527C643.709 138.891 643.709 139.255 643.69 139.619V145.601H642V128.202Z" fill="#808285"/>
<path d="M656.525 128.201H658.19V130.412C658.207 130.741 658.207 131.071 658.19 131.4C658.388 130.497 658.876 129.683 659.581 129.084C660.286 128.485 661.168 128.134 662.091 128.084C662.314 128.087 662.535 128.109 662.754 128.149V129.814C662.546 129.798 662.338 129.798 662.13 129.814C661.258 129.883 660.432 130.236 659.78 130.818C659.127 131.4 658.683 132.18 658.515 133.039C658.282 133.828 658.168 134.648 658.177 135.471V140.672H656.486L656.525 128.201Z" fill="#808285"/>
<path d="M668.841 139.528C671.221 139.528 672.651 137.044 672.651 134.898V134.352H671.91C669.946 134.352 666.032 134.417 666.032 137.174C666.048 137.516 666.134 137.851 666.284 138.158C666.435 138.465 666.648 138.738 666.91 138.959C667.171 139.18 667.475 139.344 667.803 139.442C668.131 139.54 668.475 139.569 668.815 139.528H668.841ZM671.936 132.961H672.625V132.597C672.695 132.169 672.664 131.731 672.535 131.317C672.406 130.903 672.183 130.524 671.883 130.211C671.583 129.899 671.214 129.66 670.806 129.514C670.397 129.368 669.961 129.32 669.53 129.372C668.263 129.391 667.035 129.81 666.019 130.568L665.226 129.268C666.503 128.311 668.065 127.812 669.66 127.85C672.651 127.85 674.316 129.515 674.316 132.636V140.62H672.703V139.255C672.684 138.908 672.684 138.561 672.703 138.214C672.349 139.021 671.766 139.706 671.027 140.185C670.287 140.663 669.423 140.914 668.542 140.906C666.461 140.906 664.303 139.697 664.303 137.226C664.303 133.013 669.777 132.909 671.936 132.909" fill="#808285"/>
<path d="M683.898 127.902C684.741 127.872 685.58 128.015 686.365 128.321C687.15 128.628 687.864 129.091 688.463 129.684L687.592 130.984C686.62 130.026 685.315 129.48 683.95 129.463C683.296 129.451 682.647 129.574 682.042 129.824C681.438 130.073 680.891 130.444 680.435 130.913C679.979 131.382 679.624 131.94 679.392 132.552C679.161 133.163 679.057 133.816 679.087 134.469C679.064 135.125 679.175 135.779 679.412 136.391C679.65 137.003 680.01 137.56 680.47 138.028C680.929 138.496 681.48 138.866 682.087 139.115C682.695 139.364 683.346 139.487 684.002 139.476C684.75 139.471 685.49 139.312 686.174 139.01C686.858 138.708 687.474 138.269 687.982 137.72L688.749 139.021C688.115 139.657 687.358 140.159 686.524 140.494C685.69 140.829 684.797 140.992 683.898 140.971C682.174 140.971 680.52 140.286 679.301 139.067C678.082 137.848 677.396 136.194 677.396 134.469C677.396 132.745 678.082 131.091 679.301 129.872C680.52 128.652 682.174 127.967 683.898 127.967" fill="#808285"/>
<path d="M692.299 129.762H690.66V128.358H692.325V124.795H694.015V128.397H697.136V129.801H694.015V136.004C694.015 138.917 695.875 139.294 696.811 139.294C697.001 139.314 697.193 139.314 697.383 139.294V140.802C697.145 140.823 696.906 140.823 696.668 140.802C695.238 140.802 692.338 140.334 692.338 136.173L692.299 129.762Z" fill="#808285"/>
<path d="M700.128 128.202H701.818V140.659H700.128V128.202ZM700.128 123.247H701.818V125.354H700.062L700.128 123.247Z" fill="#808285"/>
<path d="M711.545 127.902C712.387 127.872 713.226 128.015 714.011 128.321C714.796 128.628 715.51 129.091 716.109 129.684L715.238 130.984C714.267 130.026 712.962 129.48 711.597 129.463C710.269 129.463 708.996 129.99 708.057 130.929C707.118 131.868 706.59 133.141 706.59 134.469C706.59 135.797 707.118 137.071 708.057 138.009C708.996 138.948 710.269 139.476 711.597 139.476C712.347 139.472 713.088 139.314 713.775 139.012C714.461 138.71 715.079 138.27 715.589 137.72L716.356 139.021C715.722 139.657 714.965 140.159 714.131 140.494C713.298 140.829 712.404 140.992 711.506 140.971C709.781 140.971 708.128 140.286 706.908 139.067C705.689 137.848 705.004 136.194 705.004 134.469C705.004 132.745 705.689 131.091 706.908 129.872C708.128 128.652 709.781 127.967 711.506 127.967" fill="#808285"/>
<path d="M728.241 133.13C728.137 130.529 726.551 129.32 724.691 129.32C723.629 129.298 722.598 129.679 721.805 130.386C721.012 131.092 720.514 132.072 720.413 133.13H728.241ZM724.743 127.928C728.189 127.928 729.945 130.529 729.945 133.676C729.945 133.975 729.945 134.547 729.945 134.547H720.387C720.354 135.195 720.456 135.843 720.687 136.45C720.917 137.057 721.271 137.609 721.725 138.072C722.18 138.535 722.725 138.899 723.328 139.141C723.93 139.382 724.576 139.496 725.225 139.476C726.627 139.448 727.972 138.912 729.009 137.967L729.776 139.268C728.495 140.371 726.863 140.984 725.172 140.997C724.311 141.026 723.452 140.878 722.65 140.561C721.848 140.245 721.12 139.767 720.51 139.157C719.901 138.548 719.423 137.819 719.106 137.017C718.79 136.215 718.642 135.357 718.671 134.495C718.613 133.657 718.73 132.817 719.013 132.026C719.296 131.235 719.74 130.512 720.317 129.901C720.893 129.29 721.59 128.806 722.363 128.477C723.136 128.149 723.969 127.984 724.808 127.993" fill="#808285"/>
<path d="M739.828 123.247H741.519V129.996C741.536 130.334 741.536 130.673 741.519 131.01C741.955 130.069 742.656 129.276 743.536 128.726C744.415 128.177 745.436 127.895 746.473 127.916C749.542 127.916 750.634 129.684 750.634 132.753V140.685H748.944V133.195C748.944 131.245 748.658 129.502 746.252 129.502C745.211 129.514 744.203 129.868 743.383 130.51C742.562 131.151 741.976 132.045 741.714 133.052C741.567 133.59 741.501 134.146 741.519 134.704V140.685H739.828V123.247Z" fill="#808285"/>
<path d="M758.009 139.528C760.389 139.528 761.832 137.044 761.832 134.898V134.352H761.117C759.153 134.352 755.239 134.417 755.239 137.174C755.255 137.515 755.34 137.849 755.491 138.155C755.641 138.461 755.852 138.733 756.112 138.954C756.372 139.174 756.675 139.339 757.001 139.438C757.327 139.537 757.67 139.567 758.009 139.528ZM761.13 132.961H761.832V132.597C761.902 132.169 761.871 131.731 761.742 131.317C761.614 130.903 761.39 130.524 761.09 130.212C760.79 129.899 760.421 129.66 760.013 129.514C759.604 129.369 759.168 129.32 758.737 129.372C757.467 129.393 756.234 129.811 755.213 130.568L754.42 129.268C755.699 128.314 757.26 127.815 758.854 127.85C761.858 127.85 763.51 129.515 763.51 132.636V140.62H761.91V139.255C761.91 138.631 761.91 138.214 761.91 138.214C761.556 139.023 760.971 139.71 760.228 140.189C759.486 140.667 758.619 140.917 757.736 140.906C755.655 140.906 753.51 139.697 753.51 137.226C753.51 133.013 758.984 132.909 761.13 132.909" fill="#808285"/>
<path d="M773.001 139.476C775.212 139.476 777.019 137.616 777.019 134.443C777.019 131.271 775.407 129.437 773.118 129.437C771.038 129.437 769.074 130.932 769.074 134.469C769.074 136.979 770.465 139.476 773.04 139.476H773.001ZM767.436 128.202H769.048V129.411C769.066 129.736 769.066 130.061 769.048 130.386C769.446 129.595 770.067 128.938 770.834 128.497C771.602 128.055 772.482 127.849 773.365 127.902C776.707 127.902 778.788 130.581 778.788 134.404C778.788 138.228 776.434 140.906 773.209 140.906C772.375 140.928 771.551 140.716 770.83 140.296C770.109 139.876 769.519 139.263 769.126 138.527C769.145 138.891 769.145 139.255 769.126 139.619V145.601H767.436V128.202Z" fill="#808285"/>
<path d="M787.644 139.476C789.842 139.476 791.663 137.616 791.663 134.443C791.663 131.271 790.05 129.437 787.761 129.437C785.681 129.437 783.717 130.932 783.717 134.469C783.717 136.979 785.109 139.476 787.618 139.476H787.644ZM782.014 128.202H783.626V129.411C783.644 129.736 783.644 130.061 783.626 130.386C784.024 129.595 784.645 128.938 785.412 128.497C786.18 128.055 787.06 127.849 787.943 127.902C791.285 127.902 793.366 130.581 793.366 134.404C793.366 138.228 791.012 140.906 787.787 140.906C786.965 140.925 786.153 140.718 785.44 140.308C784.727 139.897 784.14 139.299 783.743 138.579C783.762 138.943 783.762 139.307 783.743 139.671V145.601H782.053L782.014 128.202Z" fill="#808285"/>
<path d="M795.368 143.793C795.795 144.124 796.312 144.319 796.851 144.352C797.943 144.352 798.71 143.468 799.204 142.324L799.972 140.568L794.77 128.201H796.63L800.297 137.304C800.544 137.928 800.739 138.605 800.739 138.605C800.86 138.164 801.003 137.73 801.168 137.304L804.757 128.201H806.591L800.44 143.273C800.186 144.026 799.704 144.68 799.061 145.147C798.417 145.613 797.645 145.867 796.851 145.874C796.062 145.865 795.297 145.605 794.666 145.133L795.368 143.793Z" fill="#808285"/>
<path d="M427.709 50.7271H378.014L406.488 100.025L427.709 50.7271Z" fill="url(#paint0_linear_2877_1206)"/>
<path d="M406.487 100.036V38.1234L377.615 50.0396L406.487 100.036Z" fill="#FDC17B"/>
<path d="M377.616 50.0181L406.488 100.036H348.744L377.616 50.0181Z" fill="#F68A33"/>
<path d="M348.755 0.0108032L377.616 50.0073H319.883L348.755 0.0108032Z" fill="#FFCB3B"/>
<path d="M319.871 50.0073H377.625L348.743 100.036L319.871 50.0073Z" fill="#E4018B"/>
<path d="M322.171 53.9614L322.16 53.9721V53.9614H322.171Z" fill="#E51E25"/>
<path d="M348.754 0L319.883 50.0072L291 0H348.754Z" fill="#FFF68F"/>
<path d="M336.333 78.5245L348.744 100.004H291L319.872 50.0073L336.333 78.5245Z" fill="#60C5BA"/>
<path d="M291 100.004H348.744L319.872 150L291 100.004Z" fill="#B0DFE3"/>
<circle cx="75" cy="75" r="73.75" stroke="#F47424" stroke-width="2.5"/>
<path d="M142.368 61.5817H102.611L125.391 101.02L142.368 61.5817Z" fill="url(#paint1_linear_2877_1206)"/>
<path d="M125.388 101.029V51.4987L102.291 61.0316L125.388 101.029Z" fill="#FDC17B"/>
<path d="M102.293 61.0142L125.39 101.029H79.1953L102.293 61.0142Z" fill="#F68A33"/>
<path d="M79.2029 21.0085L102.292 61.0056H56.1055L79.2029 21.0085Z" fill="#FFCB3B"/>
<path d="M56.0957 61.0058H102.299L79.1931 101.029L56.0957 61.0058Z" fill="#E4018B"/>
<path d="M57.9362 64.1689L57.9277 64.1774V64.1689H57.9362Z" fill="#E51E25"/>
<path d="M79.2054 21L56.108 61.0057L33.002 21H79.2054Z" fill="#FFF68F"/>
<path d="M69.2664 83.8195L79.1948 101.003H33L56.0974 61.0058L69.2664 83.8195Z" fill="#60C5BA"/>
<path d="M33 101.003H79.1948L56.0974 141L33 101.003Z" fill="#B0DFE3"/>
<defs>
<linearGradient id="paint0_linear_2877_1206" x1="5060.83" y1="3508.99" x2="6777.82" y2="2510.1" gradientUnits="userSpaceOnUse">
<stop offset="0.24" stop-color="#BCBEC0"/>
<stop offset="1" stop-color="#E6E7E8"/>
</linearGradient>
<linearGradient id="paint1_linear_2877_1206" x1="3848.86" y1="2828.18" x2="5222.45" y2="2029.07" gradientUnits="userSpaceOnUse">
<stop offset="0.24" stop-color="#BCBEC0"/>
<stop offset="1" stop-color="#E6E7E8"/>
</linearGradient>
</defs>
</svg>
