<svg width="1152" height="293" viewBox="0 0 1152 293" fill="none" xmlns="http://www.w3.org/2000/svg">
<rect x="983" y="32" width="169" height="150" rx="3" fill="#99D1A0"/>
<path d="M1029.67 221H1034.24V220.256H1032.38V212.564H1031.62L1029.71 214.46L1030.24 215L1031.14 214.1C1031.47 213.776 1031.56 213.596 1031.56 213.596H1031.58C1031.58 213.596 1031.57 213.824 1031.57 214.064V220.256H1029.67V221ZM1035.24 219.944C1035.24 219.944 1036.03 221.144 1037.71 221.144C1039.35 221.144 1040.64 219.932 1040.64 218.372C1040.64 216.848 1039.43 215.624 1037.73 215.624C1036.98 215.624 1036.45 215.948 1036.45 215.948H1036.43C1036.43 215.948 1036.47 215.768 1036.51 215.468L1036.75 213.308H1040.11V212.564H1036.03L1035.57 216.656L1036.1 216.848C1036.1 216.848 1036.74 216.392 1037.64 216.392C1038.84 216.392 1039.77 217.22 1039.77 218.372C1039.77 219.524 1038.84 220.352 1037.67 220.352C1036.39 220.352 1035.77 219.368 1035.77 219.368L1035.24 219.944ZM1041.82 219.992C1041.82 219.992 1042.84 221.144 1044.5 221.144C1046.09 221.144 1047.27 219.944 1047.27 218.504C1047.27 216.68 1045.7 216.08 1044.63 216.02L1047.15 213.116V212.564H1042.22V213.308H1045.39C1045.83 213.308 1046.07 213.272 1046.07 213.272V213.296C1046.07 213.296 1045.85 213.5 1045.63 213.764L1043.51 216.236L1043.72 216.728H1044.29C1045.4 216.728 1046.42 217.34 1046.42 218.528C1046.42 219.608 1045.49 220.352 1044.49 220.352C1043.19 220.352 1042.33 219.356 1042.33 219.356L1041.82 219.992ZM1052.01 221H1057.28V220.256H1052.87C1052.89 218.012 1057.15 217.616 1057.15 214.784C1057.15 213.464 1056.19 212.42 1054.58 212.42C1052.79 212.42 1052.02 213.944 1052.02 213.944L1052.65 214.364C1052.65 214.364 1053.29 213.212 1054.53 213.212C1055.59 213.212 1056.28 213.908 1056.28 214.832C1056.28 217.112 1051.96 217.496 1051.96 220.46C1051.96 220.628 1051.97 220.808 1052.01 221ZM1061.78 221.144C1063.98 221.144 1064.69 219.224 1064.69 216.776C1064.69 214.352 1063.98 212.42 1061.78 212.42C1059.59 212.42 1058.87 214.352 1058.87 216.776C1058.87 219.224 1059.59 221.144 1061.78 221.144ZM1061.78 220.364C1060.18 220.364 1059.73 218.792 1059.73 216.776C1059.73 214.772 1060.18 213.2 1061.78 213.2C1063.38 213.2 1063.82 214.772 1063.82 216.776C1063.82 218.792 1063.38 220.364 1061.78 220.364ZM1068.17 221.144C1070.78 221.144 1071.88 218.492 1071.88 216.38C1071.88 214.1 1070.66 212.42 1068.83 212.42C1067.35 212.42 1066.19 213.488 1066.19 215.24C1066.19 216.836 1067.27 217.964 1068.8 217.964C1069.68 217.964 1070.53 217.58 1070.95 216.98H1070.98C1070.82 218.624 1069.93 220.364 1068.16 220.364C1067.46 220.364 1066.93 220.064 1066.93 220.064L1066.62 220.796C1066.62 220.796 1067.24 221.144 1068.17 221.144ZM1068.94 217.22C1067.78 217.22 1067.03 216.428 1067.03 215.228C1067.03 214.064 1067.7 213.2 1068.84 213.2C1070.1 213.2 1070.98 214.652 1070.98 215.78C1070.98 216.464 1070.08 217.22 1068.94 217.22ZM1076.55 221H1081.12V220.256H1079.26V212.564H1078.49L1076.58 214.46L1077.11 215L1078.01 214.1C1078.35 213.776 1078.43 213.596 1078.43 213.596H1078.46C1078.46 213.596 1078.44 213.824 1078.44 214.064V220.256H1076.55V221ZM1085.29 221.144C1086.77 221.144 1087.94 220.076 1087.94 218.324C1087.94 216.728 1086.85 215.6 1085.32 215.6C1084.44 215.6 1083.59 215.984 1083.18 216.584H1083.16C1083.3 214.94 1084.2 213.2 1085.96 213.2C1086.66 213.2 1087.19 213.5 1087.19 213.5L1087.5 212.768C1087.5 212.768 1086.89 212.42 1085.95 212.42C1083.35 212.42 1082.24 215.072 1082.24 217.184C1082.24 219.464 1083.46 221.144 1085.29 221.144ZM1085.28 220.364C1084.02 220.364 1083.14 218.912 1083.14 217.784C1083.14 217.1 1084.06 216.344 1085.18 216.344C1086.34 216.344 1087.09 217.136 1087.09 218.336C1087.09 219.5 1086.42 220.364 1085.28 220.364ZM1092.36 221.144C1094.55 221.144 1095.26 219.224 1095.26 216.776C1095.26 214.352 1094.55 212.42 1092.36 212.42C1090.16 212.42 1089.44 214.352 1089.44 216.776C1089.44 219.224 1090.16 221.144 1092.36 221.144ZM1092.36 220.364C1090.75 220.364 1090.31 218.792 1090.31 216.776C1090.31 214.772 1090.75 213.2 1092.36 213.2C1093.95 213.2 1094.4 214.772 1094.4 216.776C1094.4 218.792 1093.95 220.364 1092.36 220.364Z" fill="#404040"/>
<path d="M1029.77 241H1035.04V240.256H1030.63C1030.64 238.012 1034.9 237.616 1034.9 234.784C1034.9 233.464 1033.94 232.42 1032.34 232.42C1030.55 232.42 1029.78 233.944 1029.78 233.944L1030.4 234.364C1030.4 234.364 1031.05 233.212 1032.29 233.212C1033.34 233.212 1034.04 233.908 1034.04 234.832C1034.04 237.112 1029.72 237.496 1029.72 240.46C1029.72 240.628 1029.73 240.808 1029.77 241ZM1036.95 241H1037.81L1041.73 233.14V232.564H1036.24V233.308H1040.19C1040.61 233.308 1040.83 233.284 1040.83 233.284V233.308C1040.83 233.308 1040.59 233.632 1040.36 234.088L1036.95 241ZM1049 241.144C1051.19 241.144 1051.9 239.224 1051.9 236.776C1051.9 234.352 1051.19 232.42 1049 232.42C1046.8 232.42 1046.08 234.352 1046.08 236.776C1046.08 239.224 1046.8 241.144 1049 241.144ZM1049 240.364C1047.39 240.364 1046.95 238.792 1046.95 236.776C1046.95 234.772 1047.39 233.2 1049 233.2C1050.59 233.2 1051.04 234.772 1051.04 236.776C1051.04 238.792 1050.59 240.364 1049 240.364ZM1056.73 241H1062V240.256H1057.6C1057.61 238.012 1061.87 237.616 1061.87 234.784C1061.87 233.464 1060.91 232.42 1059.3 232.42C1057.51 232.42 1056.74 233.944 1056.74 233.944L1057.37 234.364C1057.37 234.364 1058.02 233.212 1059.25 233.212C1060.31 233.212 1061 233.908 1061 234.832C1061 237.112 1056.68 237.496 1056.68 240.46C1056.68 240.628 1056.7 240.808 1056.73 241ZM1063.29 239.992C1063.29 239.992 1064.31 241.144 1065.97 241.144C1067.56 241.144 1068.74 239.944 1068.74 238.504C1068.74 236.68 1067.17 236.08 1066.1 236.02L1068.62 233.116V232.564H1063.69V233.308H1066.85C1067.3 233.308 1067.54 233.272 1067.54 233.272V233.296C1067.54 233.296 1067.32 233.5 1067.09 233.764L1064.98 236.236L1065.19 236.728H1065.76C1066.87 236.728 1067.89 237.34 1067.89 238.528C1067.89 239.608 1066.96 240.352 1065.95 240.352C1064.66 240.352 1063.79 239.356 1063.79 239.356L1063.29 239.992ZM1073.38 241H1077.95V240.256H1076.09V232.564H1075.33L1073.42 234.46L1073.95 235L1074.85 234.1C1075.18 233.776 1075.27 233.596 1075.27 233.596H1075.29C1075.29 233.596 1075.28 233.824 1075.28 234.064V240.256H1073.38V241ZM1079.07 238.576C1079.07 240.172 1080.4 241.144 1081.92 241.144C1083.56 241.144 1084.72 240.028 1084.72 238.708C1084.72 237.832 1084.19 237.292 1083.5 236.896C1083.59 236.8 1084.53 235.816 1084.53 234.616C1084.53 233.296 1083.52 232.42 1081.95 232.42C1080.24 232.42 1079.4 233.464 1079.4 234.556C1079.4 235.36 1079.85 235.876 1080.45 236.272C1080.26 236.392 1079.07 237.22 1079.07 238.576ZM1083.87 238.696C1083.87 239.692 1082.92 240.376 1081.92 240.376C1080.9 240.376 1079.92 239.68 1079.92 238.54C1079.92 237.46 1080.87 236.788 1081.13 236.632C1082.38 237.232 1083.87 237.604 1083.87 238.696ZM1080.24 234.568C1080.24 233.812 1080.87 233.188 1081.95 233.188C1082.97 233.188 1083.69 233.752 1083.69 234.652C1083.69 235.66 1082.97 236.416 1082.81 236.56C1081.6 236.032 1080.24 235.66 1080.24 234.568Z" fill="#404040"/>
<path d="M1030.86 260H1031.59L1032 257.66H1034.08L1033.67 260H1034.4L1034.81 257.66H1036.49L1036.6 256.988H1034.93L1035.34 254.636H1037.02L1037.14 253.964H1035.46L1035.88 251.564H1035.14L1034.72 253.964H1032.65L1033.07 251.564H1032.34L1031.92 253.964H1030.21L1030.1 254.636H1031.8L1031.38 256.988H1029.68L1029.56 257.66H1031.27L1030.86 260ZM1032.12 256.988L1032.53 254.636H1034.6L1034.18 256.988H1032.12ZM1040.32 260.144C1042.94 260.144 1044.03 257.492 1044.03 255.38C1044.03 253.1 1042.82 251.42 1040.98 251.42C1039.51 251.42 1038.34 252.488 1038.34 254.24C1038.34 255.836 1039.42 256.964 1040.96 256.964C1041.84 256.964 1042.69 256.58 1043.11 255.98H1043.13C1042.98 257.624 1042.09 259.364 1040.31 259.364C1039.62 259.364 1039.09 259.064 1039.09 259.064L1038.78 259.796C1038.78 259.796 1039.4 260.144 1040.32 260.144ZM1041.09 256.22C1039.94 256.22 1039.18 255.428 1039.18 254.228C1039.18 253.064 1039.86 252.2 1041 252.2C1042.26 252.2 1043.13 253.652 1043.13 254.78C1043.13 255.464 1042.23 256.22 1041.09 256.22ZM1047.45 260.144C1050.06 260.144 1051.16 257.492 1051.16 255.38C1051.16 253.1 1049.94 251.42 1048.11 251.42C1046.63 251.42 1045.47 252.488 1045.47 254.24C1045.47 255.836 1046.55 256.964 1048.08 256.964C1048.96 256.964 1049.81 256.58 1050.23 255.98H1050.26C1050.1 257.624 1049.21 259.364 1047.44 259.364C1046.74 259.364 1046.21 259.064 1046.21 259.064L1045.9 259.796C1045.9 259.796 1046.52 260.144 1047.45 260.144ZM1048.22 256.22C1047.06 256.22 1046.31 255.428 1046.31 254.228C1046.31 253.064 1046.98 252.2 1048.12 252.2C1049.38 252.2 1050.26 253.652 1050.26 254.78C1050.26 255.464 1049.36 256.22 1048.22 256.22ZM1053.16 260H1055.88C1058.41 260 1060.12 258.464 1060.12 255.776C1060.12 253.112 1058.41 251.564 1055.88 251.564H1053.16V260ZM1053.99 259.256V252.308H1055.8C1057.86 252.308 1059.25 253.532 1059.25 255.776C1059.25 258.032 1057.87 259.256 1055.8 259.256H1053.99ZM1061.49 260H1066.06V259.256H1064.2V251.564H1063.43L1061.52 253.46L1062.05 254L1062.95 253.1C1063.29 252.776 1063.37 252.596 1063.37 252.596H1063.4C1063.4 252.596 1063.38 252.824 1063.38 253.064V259.256H1061.49V260ZM1072.77 260H1073.64L1070.55 251.564H1069.66L1066.56 260H1067.44L1068.4 257.312H1071.79L1072.77 260ZM1070.11 252.44C1070.11 252.44 1070.29 253.136 1070.44 253.532L1071.54 256.592H1068.64L1069.77 253.532C1069.91 253.136 1070.09 252.44 1070.09 252.44H1070.11ZM1077.56 260.144C1079.75 260.144 1080.46 258.224 1080.46 255.776C1080.46 253.352 1079.75 251.42 1077.56 251.42C1075.36 251.42 1074.64 253.352 1074.64 255.776C1074.64 258.224 1075.36 260.144 1077.56 260.144ZM1077.56 259.364C1075.95 259.364 1075.5 257.792 1075.5 255.776C1075.5 253.772 1075.95 252.2 1077.56 252.2C1079.15 252.2 1079.6 253.772 1079.6 255.776C1079.6 257.792 1079.15 259.364 1077.56 259.364Z" fill="#404040"/>
<path d="M984.224 221H985.052V217.448H987.176L989.084 221H990.032L988.196 217.604C988.064 217.376 987.98 217.268 987.98 217.268V217.244C988.928 216.98 989.576 216.104 989.576 214.964C989.576 213.944 989.096 213.14 988.304 212.792C987.968 212.648 987.584 212.564 986.72 212.564H984.224V221ZM985.052 216.704V213.308H986.756C987.404 213.308 987.704 213.38 987.956 213.512C988.448 213.776 988.724 214.292 988.724 214.988C988.724 216.044 988.076 216.704 987.056 216.704H985.052ZM991.195 216.776C991.195 219.284 993.019 221.144 995.323 221.144C997.099 221.144 998.071 220.004 998.071 220.004H998.095C998.095 220.004 998.083 220.184 998.083 220.364V221H998.851V216.968H996.619V217.712H998.059V219.14C998.059 219.14 997.051 220.376 995.407 220.376C993.487 220.376 992.059 218.84 992.059 216.764C992.059 214.76 993.439 213.188 995.479 213.188C997.015 213.188 997.999 214.028 997.999 214.028L998.443 213.404C998.443 213.404 997.399 212.42 995.443 212.42C993.019 212.42 991.195 214.34 991.195 216.776ZM1000.85 221H1003.83C1005.24 221 1006.36 220.136 1006.36 218.636C1006.36 217.616 1005.81 216.788 1004.94 216.548V216.524C1005.59 216.2 1006.01 215.564 1006.01 214.688C1006.01 213.368 1005.06 212.564 1003.73 212.564H1000.85V221ZM1001.68 216.224V213.308H1003.72C1004.62 213.308 1005.16 213.884 1005.16 214.748C1005.16 215.624 1004.58 216.224 1003.73 216.224H1001.68ZM1001.68 220.256V216.944H1003.83C1004.81 216.944 1005.5 217.604 1005.5 218.612C1005.5 219.62 1004.86 220.256 1003.84 220.256H1001.68Z" fill="#404040"/>
<path d="M983.66 236.728C983.66 239.188 985.436 241.144 987.932 241.144C990.008 241.144 991.16 239.836 991.16 239.836L990.68 239.248C990.68 239.248 989.648 240.376 987.944 240.376C985.94 240.376 984.524 238.732 984.524 236.716C984.524 234.724 985.94 233.188 987.92 233.188C989.504 233.188 990.488 234.124 990.488 234.124L990.932 233.512C990.932 233.512 989.912 232.42 987.896 232.42C985.484 232.42 983.66 234.28 983.66 236.728ZM992.69 241H993.518L993.986 235.096C994.022 234.64 994.01 233.896 994.01 233.896H994.034C994.034 233.896 994.298 234.676 994.49 235.096L996.47 239.428H997.25L999.23 235.096C999.422 234.664 999.674 233.92 999.674 233.92H999.698C999.698 233.92 999.686 234.64 999.722 235.096L1000.19 241H1001.02L1000.35 232.564H999.494L997.286 237.52C997.094 237.952 996.866 238.552 996.866 238.552H996.842C996.842 238.552 996.626 237.952 996.434 237.52L994.226 232.564H993.362L992.69 241ZM1004.89 241H1005.73V237.376L1008.56 232.564H1007.63L1005.84 235.624C1005.58 236.068 1005.32 236.632 1005.32 236.632H1005.3C1005.3 236.632 1005.04 236.056 1004.78 235.624L1003 232.564H1002.05L1004.89 237.376V241ZM1009.98 241H1010.81V236.968H1012.24L1014.65 241H1015.62L1012.93 236.572V236.548L1015.45 232.564H1014.51L1012.24 236.224H1010.81V232.564H1009.98V241Z" fill="#404040"/>
<path d="M984.224 260H985.052V256.148H989.948V260H990.776V251.564H989.948V255.404H985.052V251.564H984.224V260ZM993.224 260H998.192V259.256H994.052V256.124H997.256V255.38H994.052V252.308H997.976V251.564H993.224V260ZM999.167 260H1000.13L1001.86 257.096C1002.12 256.652 1002.37 256.148 1002.37 256.148H1002.4C1002.4 256.148 1002.66 256.652 1002.92 257.084L1004.68 260H1005.64L1002.94 255.596L1005.41 251.564H1004.42L1002.94 254.06C1002.67 254.492 1002.43 255.032 1002.43 255.032H1002.41C1002.41 255.032 1002.11 254.492 1001.86 254.06L1000.38 251.564H999.407L1001.86 255.596L999.167 260Z" fill="#404040"/>
<rect x="789" y="32" width="169" height="150" rx="3" fill="#A3CD39"/>
<path d="M835.672 221H840.244V220.256H838.384V212.564H837.616L835.708 214.46L836.236 215L837.136 214.1C837.472 213.776 837.556 213.596 837.556 213.596H837.58C837.58 213.596 837.568 213.824 837.568 214.064V220.256H835.672V221ZM844.418 221.144C845.894 221.144 847.07 220.076 847.07 218.324C847.07 216.728 845.978 215.6 844.442 215.6C843.566 215.6 842.714 215.984 842.306 216.584H842.282C842.426 214.94 843.326 213.2 845.09 213.2C845.786 213.2 846.314 213.5 846.314 213.5L846.626 212.768C846.626 212.768 846.014 212.42 845.078 212.42C842.474 212.42 841.37 215.072 841.37 217.184C841.37 219.464 842.582 221.144 844.418 221.144ZM844.406 220.364C843.146 220.364 842.27 218.912 842.27 217.784C842.27 217.1 843.182 216.344 844.31 216.344C845.462 216.344 846.218 217.136 846.218 218.336C846.218 219.5 845.546 220.364 844.406 220.364ZM848.267 219.992C848.267 219.992 849.287 221.144 850.943 221.144C852.539 221.144 853.715 219.944 853.715 218.504C853.715 216.68 852.143 216.08 851.075 216.02L853.595 213.116V212.564H848.663V213.308H851.831C852.275 213.308 852.515 213.272 852.515 213.272V213.296C852.515 213.296 852.299 213.5 852.071 213.764L849.959 216.236L850.163 216.728H850.739C851.843 216.728 852.863 217.34 852.863 218.528C852.863 219.608 851.939 220.352 850.931 220.352C849.635 220.352 848.771 219.356 848.771 219.356L848.267 219.992ZM858.456 221H863.724V220.256H859.32C859.332 218.012 863.592 217.616 863.592 214.784C863.592 213.464 862.632 212.42 861.024 212.42C859.236 212.42 858.468 213.944 858.468 213.944L859.092 214.364C859.092 214.364 859.74 213.212 860.976 213.212C862.032 213.212 862.728 213.908 862.728 214.832C862.728 217.112 858.408 217.496 858.408 220.46C858.408 220.628 858.42 220.808 858.456 221ZM868.229 221.144C870.425 221.144 871.133 219.224 871.133 216.776C871.133 214.352 870.425 212.42 868.229 212.42C866.033 212.42 865.313 214.352 865.313 216.776C865.313 219.224 866.033 221.144 868.229 221.144ZM868.229 220.364C866.621 220.364 866.177 218.792 866.177 216.776C866.177 214.772 866.621 213.2 868.229 213.2C869.825 213.2 870.269 214.772 870.269 216.776C870.269 218.792 869.825 220.364 868.229 220.364ZM872.621 219.944C872.621 219.944 873.413 221.144 875.093 221.144C876.737 221.144 878.021 219.932 878.021 218.372C878.021 216.848 876.809 215.624 875.117 215.624C874.361 215.624 873.833 215.948 873.833 215.948H873.809C873.809 215.948 873.857 215.768 873.893 215.468L874.133 213.308H877.493V212.564H873.413L872.957 216.656L873.485 216.848C873.485 216.848 874.121 216.392 875.021 216.392C876.221 216.392 877.157 217.22 877.157 218.372C877.157 219.524 876.221 220.352 875.057 220.352C873.773 220.352 873.149 219.368 873.149 219.368L872.621 219.944ZM882.535 219.944C882.535 219.944 883.327 221.144 885.007 221.144C886.651 221.144 887.935 219.932 887.935 218.372C887.935 216.848 886.723 215.624 885.031 215.624C884.275 215.624 883.747 215.948 883.747 215.948H883.723C883.723 215.948 883.771 215.768 883.807 215.468L884.047 213.308H887.407V212.564H883.327L882.871 216.656L883.399 216.848C883.399 216.848 884.035 216.392 884.935 216.392C886.135 216.392 887.071 217.22 887.071 218.372C887.071 219.524 886.135 220.352 884.971 220.352C883.687 220.352 883.063 219.368 883.063 219.368L882.535 219.944ZM889.742 221H890.606L894.518 213.14V212.564H889.034V213.308H892.982C893.402 213.308 893.618 213.284 893.618 213.284V213.308C893.618 213.308 893.378 213.632 893.15 214.088L889.742 221Z" fill="#404040"/>
<path d="M835.768 241H841.036V240.256H836.632C836.644 238.012 840.904 237.616 840.904 234.784C840.904 233.464 839.944 232.42 838.336 232.42C836.548 232.42 835.78 233.944 835.78 233.944L836.404 234.364C836.404 234.364 837.052 233.212 838.288 233.212C839.344 233.212 840.04 233.908 840.04 234.832C840.04 237.112 835.72 237.496 835.72 240.46C835.72 240.628 835.732 240.808 835.768 241ZM845.541 241.144C847.737 241.144 848.445 239.224 848.445 236.776C848.445 234.352 847.737 232.42 845.541 232.42C843.345 232.42 842.625 234.352 842.625 236.776C842.625 239.224 843.345 241.144 845.541 241.144ZM845.541 240.364C843.933 240.364 843.489 238.792 843.489 236.776C843.489 234.772 843.933 233.2 845.541 233.2C847.137 233.2 847.581 234.772 847.581 236.776C847.581 238.792 847.137 240.364 845.541 240.364ZM856.264 241.144C858.46 241.144 859.168 239.224 859.168 236.776C859.168 234.352 858.46 232.42 856.264 232.42C854.068 232.42 853.348 234.352 853.348 236.776C853.348 239.224 854.068 241.144 856.264 241.144ZM856.264 240.364C854.656 240.364 854.212 238.792 854.212 236.776C854.212 234.772 854.656 233.2 856.264 233.2C857.86 233.2 858.304 234.772 858.304 236.776C858.304 238.792 857.86 240.364 856.264 240.364ZM864.394 241H865.258L869.17 233.14V232.564H863.686V233.308H867.634C868.054 233.308 868.27 233.284 868.27 233.284V233.308C868.27 233.308 868.03 233.632 867.802 234.088L864.394 241ZM870.233 241H875.501V240.256H871.097C871.109 238.012 875.369 237.616 875.369 234.784C875.369 233.464 874.409 232.42 872.801 232.42C871.013 232.42 870.245 233.944 870.245 233.944L870.869 234.364C870.869 234.364 871.517 233.212 872.753 233.212C873.809 233.212 874.505 233.908 874.505 234.832C874.505 237.112 870.185 237.496 870.185 240.46C870.185 240.628 870.197 240.808 870.233 241ZM880.241 241H885.509V240.256H881.105C881.117 238.012 885.377 237.616 885.377 234.784C885.377 233.464 884.417 232.42 882.809 232.42C881.021 232.42 880.253 233.944 880.253 233.944L880.877 234.364C880.877 234.364 881.525 233.212 882.761 233.212C883.817 233.212 884.513 233.908 884.513 234.832C884.513 237.112 880.193 237.496 880.193 240.46C880.193 240.628 880.205 240.808 880.241 241ZM890.014 241.144C892.21 241.144 892.918 239.224 892.918 236.776C892.918 234.352 892.21 232.42 890.014 232.42C887.818 232.42 887.098 234.352 887.098 236.776C887.098 239.224 887.818 241.144 890.014 241.144ZM890.014 240.364C888.406 240.364 887.962 238.792 887.962 236.776C887.962 234.772 888.406 233.2 890.014 233.2C891.61 233.2 892.054 234.772 892.054 236.776C892.054 238.792 891.61 240.364 890.014 240.364Z" fill="#404040"/>
<path d="M836.86 260H837.592L838 257.66H840.076L839.668 260H840.4L840.808 257.66H842.488L842.596 256.988H840.928L841.336 254.636H843.016L843.136 253.964H841.456L841.876 251.564H841.144L840.724 253.964H838.648L839.068 251.564H838.336L837.916 253.964H836.212L836.104 254.636H837.796L837.376 256.988H835.684L835.564 257.66H837.268L836.86 260ZM838.12 256.988L838.528 254.636H840.604L840.184 256.988H838.12ZM850.044 260H850.92L847.824 251.564H846.936L843.84 260H844.716L845.676 257.312H849.072L850.044 260ZM847.392 252.44C847.392 252.44 847.572 253.136 847.716 253.532L848.82 256.592H845.916L847.044 253.532C847.188 253.136 847.368 252.44 847.368 252.44H847.392ZM851.618 258.992C851.618 258.992 852.638 260.144 854.294 260.144C855.89 260.144 857.066 258.944 857.066 257.504C857.066 255.68 855.494 255.08 854.426 255.02L856.946 252.116V251.564H852.014V252.308H855.182C855.626 252.308 855.866 252.272 855.866 252.272V252.296C855.866 252.296 855.65 252.5 855.422 252.764L853.31 255.236L853.514 255.728H854.09C855.194 255.728 856.214 256.34 856.214 257.528C856.214 258.608 855.29 259.352 854.282 259.352C852.986 259.352 852.122 258.356 852.122 258.356L851.618 258.992ZM858.476 255.728C858.476 258.188 860.252 260.144 862.748 260.144C864.824 260.144 865.976 258.836 865.976 258.836L865.496 258.248C865.496 258.248 864.464 259.376 862.76 259.376C860.756 259.376 859.34 257.732 859.34 255.716C859.34 253.724 860.756 252.188 862.736 252.188C864.32 252.188 865.304 253.124 865.304 253.124L865.748 252.512C865.748 252.512 864.728 251.42 862.712 251.42C860.3 251.42 858.476 253.28 858.476 255.728ZM867.771 260H870.495C873.027 260 874.731 258.464 874.731 255.776C874.731 253.112 873.027 251.564 870.495 251.564H867.771V260ZM868.599 259.256V252.308H870.411C872.475 252.308 873.867 253.532 873.867 255.776C873.867 258.032 872.487 259.256 870.411 259.256H868.599ZM875.97 258.992C875.97 258.992 876.99 260.144 878.646 260.144C880.242 260.144 881.418 258.944 881.418 257.504C881.418 255.68 879.846 255.08 878.778 255.02L881.298 252.116V251.564H876.366V252.308H879.534C879.978 252.308 880.218 252.272 880.218 252.272V252.296C880.218 252.296 880.002 252.5 879.774 252.764L877.662 255.236L877.866 255.728H878.442C879.546 255.728 880.566 256.34 880.566 257.528C880.566 258.608 879.642 259.352 878.634 259.352C877.338 259.352 876.474 258.356 876.474 258.356L875.97 258.992ZM884.808 260.144C887.424 260.144 888.516 257.492 888.516 255.38C888.516 253.1 887.304 251.42 885.468 251.42C883.992 251.42 882.828 252.488 882.828 254.24C882.828 255.836 883.908 256.964 885.444 256.964C886.32 256.964 887.172 256.58 887.592 255.98H887.616C887.46 257.624 886.572 259.364 884.796 259.364C884.1 259.364 883.572 259.064 883.572 259.064L883.26 259.796C883.26 259.796 883.884 260.144 884.808 260.144ZM885.576 256.22C884.424 256.22 883.668 255.428 883.668 254.228C883.668 253.064 884.34 252.2 885.48 252.2C886.74 252.2 887.616 253.652 887.616 254.78C887.616 255.464 886.716 256.22 885.576 256.22Z" fill="#404040"/>
<path d="M790.224 221H791.052V217.448H793.176L795.084 221H796.032L794.196 217.604C794.064 217.376 793.98 217.268 793.98 217.268V217.244C794.928 216.98 795.576 216.104 795.576 214.964C795.576 213.944 795.096 213.14 794.304 212.792C793.968 212.648 793.584 212.564 792.72 212.564H790.224V221ZM791.052 216.704V213.308H792.756C793.404 213.308 793.704 213.38 793.956 213.512C794.448 213.776 794.724 214.292 794.724 214.988C794.724 216.044 794.076 216.704 793.056 216.704H791.052ZM797.195 216.776C797.195 219.284 799.019 221.144 801.323 221.144C803.099 221.144 804.071 220.004 804.071 220.004H804.095C804.095 220.004 804.083 220.184 804.083 220.364V221H804.851V216.968H802.619V217.712H804.059V219.14C804.059 219.14 803.051 220.376 801.407 220.376C799.487 220.376 798.059 218.84 798.059 216.764C798.059 214.76 799.439 213.188 801.479 213.188C803.015 213.188 803.999 214.028 803.999 214.028L804.443 213.404C804.443 213.404 803.399 212.42 801.443 212.42C799.019 212.42 797.195 214.34 797.195 216.776ZM806.853 221H809.829C811.245 221 812.361 220.136 812.361 218.636C812.361 217.616 811.809 216.788 810.945 216.548V216.524C811.593 216.2 812.013 215.564 812.013 214.688C812.013 213.368 811.065 212.564 809.733 212.564H806.853V221ZM807.681 216.224V213.308H809.721C810.621 213.308 811.161 213.884 811.161 214.748C811.161 215.624 810.585 216.224 809.733 216.224H807.681ZM807.681 220.256V216.944H809.829C810.813 216.944 811.497 217.604 811.497 218.612C811.497 219.62 810.861 220.256 809.841 220.256H807.681Z" fill="#404040"/>
<path d="M789.66 236.728C789.66 239.188 791.436 241.144 793.932 241.144C796.008 241.144 797.16 239.836 797.16 239.836L796.68 239.248C796.68 239.248 795.648 240.376 793.944 240.376C791.94 240.376 790.524 238.732 790.524 236.716C790.524 234.724 791.94 233.188 793.92 233.188C795.504 233.188 796.488 234.124 796.488 234.124L796.932 233.512C796.932 233.512 795.912 232.42 793.896 232.42C791.484 232.42 789.66 234.28 789.66 236.728ZM798.69 241H799.518L799.986 235.096C800.022 234.64 800.01 233.896 800.01 233.896H800.034C800.034 233.896 800.298 234.676 800.49 235.096L802.47 239.428H803.25L805.23 235.096C805.422 234.664 805.674 233.92 805.674 233.92H805.698C805.698 233.92 805.686 234.64 805.722 235.096L806.19 241H807.018L806.346 232.564H805.494L803.286 237.52C803.094 237.952 802.866 238.552 802.866 238.552H802.842C802.842 238.552 802.626 237.952 802.434 237.52L800.226 232.564H799.362L798.69 241ZM810.891 241H811.731V237.376L814.563 232.564H813.627L811.839 235.624C811.575 236.068 811.323 236.632 811.323 236.632H811.299C811.299 236.632 811.035 236.056 810.783 235.624L808.995 232.564H808.047L810.891 237.376V241ZM815.982 241H816.81V236.968H818.238L820.65 241H821.622L818.934 236.572V236.548L821.454 232.564H820.506L818.238 236.224H816.81V232.564H815.982V241Z" fill="#404040"/>
<path d="M790.224 260H791.052V256.148H795.948V260H796.776V251.564H795.948V255.404H791.052V251.564H790.224V260ZM799.224 260H804.192V259.256H800.052V256.124H803.256V255.38H800.052V252.308H803.976V251.564H799.224V260ZM805.167 260H806.127L807.855 257.096C808.119 256.652 808.371 256.148 808.371 256.148H808.395C808.395 256.148 808.659 256.652 808.923 257.084L810.675 260H811.635L808.935 255.596L811.407 251.564H810.423L808.935 254.06C808.671 254.492 808.431 255.032 808.431 255.032H808.407C808.407 255.032 808.107 254.492 807.855 254.06L806.379 251.564H805.407L807.855 255.596L805.167 260Z" fill="#404040"/>
<rect x="595" y="32" width="169" height="150" rx="3" fill="#00A890"/>
<path d="M644.756 221.144C646.952 221.144 647.66 219.224 647.66 216.776C647.66 214.352 646.952 212.42 644.756 212.42C642.56 212.42 641.84 214.352 641.84 216.776C641.84 219.224 642.56 221.144 644.756 221.144ZM644.756 220.364C643.148 220.364 642.704 218.792 642.704 216.776C642.704 214.772 643.148 213.2 644.756 213.2C646.352 213.2 646.796 214.772 646.796 216.776C646.796 218.792 646.352 220.364 644.756 220.364ZM652.395 221H656.967V220.256H655.107V212.564H654.339L652.431 214.46L652.959 215L653.859 214.1C654.195 213.776 654.279 213.596 654.279 213.596H654.303C654.303 213.596 654.291 213.824 654.291 214.064V220.256H652.395V221ZM661.141 221.144C662.617 221.144 663.793 220.076 663.793 218.324C663.793 216.728 662.701 215.6 661.165 215.6C660.289 215.6 659.437 215.984 659.029 216.584H659.005C659.149 214.94 660.049 213.2 661.813 213.2C662.509 213.2 663.037 213.5 663.037 213.5L663.349 212.768C663.349 212.768 662.737 212.42 661.801 212.42C659.197 212.42 658.093 215.072 658.093 217.184C658.093 219.464 659.305 221.144 661.141 221.144ZM661.129 220.364C659.869 220.364 658.993 218.912 658.993 217.784C658.993 217.1 659.905 216.344 661.033 216.344C662.185 216.344 662.941 217.136 662.941 218.336C662.941 219.5 662.269 220.364 661.129 220.364ZM665.217 218.576C665.217 220.172 666.549 221.144 668.073 221.144C669.705 221.144 670.869 220.028 670.869 218.708C670.869 217.832 670.341 217.292 669.645 216.896C669.741 216.8 670.677 215.816 670.677 214.616C670.677 213.296 669.669 212.42 668.097 212.42C666.393 212.42 665.553 213.464 665.553 214.556C665.553 215.36 665.997 215.876 666.597 216.272C666.405 216.392 665.217 217.22 665.217 218.576ZM670.017 218.696C670.017 219.692 669.069 220.376 668.073 220.376C667.053 220.376 666.069 219.68 666.069 218.54C666.069 217.46 667.017 216.788 667.281 216.632C668.529 217.232 670.017 217.604 670.017 218.696ZM666.393 214.568C666.393 213.812 667.017 213.188 668.097 213.188C669.117 213.188 669.837 213.752 669.837 214.652C669.837 215.66 669.117 216.416 668.961 216.56C667.749 216.032 666.393 215.66 666.393 214.568ZM675.563 221H680.135V220.256H678.275V212.564H677.507L675.599 214.46L676.127 215L677.027 214.1C677.363 213.776 677.447 213.596 677.447 213.596H677.471C677.471 213.596 677.459 213.824 677.459 214.064V220.256H675.563V221ZM680.689 218.66H684.913V221H685.741V218.66H686.941V217.928H685.741V212.564H684.841L680.689 218.12V218.66ZM681.697 217.928V217.904L684.505 214.244C684.733 213.944 684.925 213.608 684.925 213.608H684.949C684.949 213.608 684.913 214.04 684.913 214.4V217.928H681.697ZM687.849 218.66H692.073V221H692.901V218.66H694.101V217.928H692.901V212.564H692.001L687.849 218.12V218.66ZM688.857 217.928V217.904L691.665 214.244C691.893 213.944 692.085 213.608 692.085 213.608H692.109C692.109 213.608 692.073 214.04 692.073 214.4V217.928H688.857Z" fill="#404040"/>
<path d="M641.672 241H646.244V240.256H644.384V232.564H643.616L641.708 234.46L642.236 235L643.136 234.1C643.472 233.776 643.556 233.596 643.556 233.596H643.58C643.58 233.596 643.568 233.824 643.568 234.064V240.256H641.672V241ZM650.346 241.144C652.542 241.144 653.25 239.224 653.25 236.776C653.25 234.352 652.542 232.42 650.346 232.42C648.15 232.42 647.43 234.352 647.43 236.776C647.43 239.224 648.15 241.144 650.346 241.144ZM650.346 240.364C648.738 240.364 648.294 238.792 648.294 236.776C648.294 234.772 648.738 233.2 650.346 233.2C651.942 233.2 652.386 234.772 652.386 236.776C652.386 238.792 651.942 240.364 650.346 240.364ZM657.846 241.144C660.042 241.144 660.75 239.224 660.75 236.776C660.75 234.352 660.042 232.42 657.846 232.42C655.65 232.42 654.93 234.352 654.93 236.776C654.93 239.224 655.65 241.144 657.846 241.144ZM657.846 240.364C656.238 240.364 655.794 238.792 655.794 236.776C655.794 234.772 656.238 233.2 657.846 233.2C659.442 233.2 659.886 234.772 659.886 236.776C659.886 238.792 659.442 240.364 657.846 240.364ZM668.569 241.144C670.765 241.144 671.473 239.224 671.473 236.776C671.473 234.352 670.765 232.42 668.569 232.42C666.373 232.42 665.653 234.352 665.653 236.776C665.653 239.224 666.373 241.144 668.569 241.144ZM668.569 240.364C666.961 240.364 666.517 238.792 666.517 236.776C666.517 234.772 666.961 233.2 668.569 233.2C670.165 233.2 670.609 234.772 670.609 236.776C670.609 238.792 670.165 240.364 668.569 240.364ZM676.207 241H680.779V240.256H678.919V232.564H678.151L676.243 234.46L676.771 235L677.671 234.1C678.007 233.776 678.091 233.596 678.091 233.596H678.115C678.115 233.596 678.103 233.824 678.103 234.064V240.256H676.207V241ZM681.334 238.66H685.558V241H686.386V238.66H687.586V237.928H686.386V232.564H685.486L681.334 238.12V238.66ZM682.342 237.928V237.904L685.15 234.244C685.378 233.944 685.57 233.608 685.57 233.608H685.594C685.594 233.608 685.558 234.04 685.558 234.4V237.928H682.342ZM691.849 239.992C691.849 239.992 692.869 241.144 694.525 241.144C696.121 241.144 697.297 239.944 697.297 238.504C697.297 236.68 695.725 236.08 694.657 236.02L697.177 233.116V232.564H692.245V233.308H695.413C695.857 233.308 696.097 233.272 696.097 233.272V233.296C696.097 233.296 695.881 233.5 695.653 233.764L693.541 236.236L693.745 236.728H694.321C695.425 236.728 696.445 237.34 696.445 238.528C696.445 239.608 695.521 240.352 694.513 240.352C693.217 240.352 692.353 239.356 692.353 239.356L691.849 239.992ZM698.455 238.66H702.679V241H703.507V238.66H704.707V237.928H703.507V232.564H702.607L698.455 238.12V238.66ZM699.463 237.928V237.904L702.271 234.244C702.499 233.944 702.691 233.608 702.691 233.608H702.715C702.715 233.608 702.679 234.04 702.679 234.4V237.928H699.463Z" fill="#404040"/>
<path d="M642.86 260H643.592L644 257.66H646.076L645.668 260H646.4L646.808 257.66H648.488L648.596 256.988H646.928L647.336 254.636H649.016L649.136 253.964H647.456L647.876 251.564H647.144L646.724 253.964H644.648L645.068 251.564H644.336L643.916 253.964H642.212L642.104 254.636H643.796L643.376 256.988H641.684L641.564 257.66H643.268L642.86 260ZM644.12 256.988L644.528 254.636H646.604L646.184 256.988H644.12ZM653.44 260.144C655.636 260.144 656.344 258.224 656.344 255.776C656.344 253.352 655.636 251.42 653.44 251.42C651.244 251.42 650.524 253.352 650.524 255.776C650.524 258.224 651.244 260.144 653.44 260.144ZM653.44 259.364C651.832 259.364 651.388 257.792 651.388 255.776C651.388 253.772 651.832 252.2 653.44 252.2C655.036 252.2 655.48 253.772 655.48 255.776C655.48 257.792 655.036 259.364 653.44 259.364ZM660.94 260.144C663.136 260.144 663.844 258.224 663.844 255.776C663.844 253.352 663.136 251.42 660.94 251.42C658.744 251.42 658.024 253.352 658.024 255.776C658.024 258.224 658.744 260.144 660.94 260.144ZM660.94 259.364C659.332 259.364 658.888 257.792 658.888 255.776C658.888 253.772 659.332 252.2 660.94 252.2C662.536 252.2 662.98 253.772 662.98 255.776C662.98 257.792 662.536 259.364 660.94 259.364ZM671.044 260H671.92L668.824 251.564H667.936L664.84 260H665.716L666.676 257.312H670.072L671.044 260ZM668.392 252.44C668.392 252.44 668.572 253.136 668.716 253.532L669.82 256.592H666.916L668.044 253.532C668.188 253.136 668.368 252.44 668.368 252.44H668.392ZM672.846 257.576C672.846 259.172 674.178 260.144 675.702 260.144C677.334 260.144 678.498 259.028 678.498 257.708C678.498 256.832 677.97 256.292 677.274 255.896C677.37 255.8 678.306 254.816 678.306 253.616C678.306 252.296 677.298 251.42 675.726 251.42C674.022 251.42 673.182 252.464 673.182 253.556C673.182 254.36 673.626 254.876 674.226 255.272C674.034 255.392 672.846 256.22 672.846 257.576ZM677.646 257.696C677.646 258.692 676.698 259.376 675.702 259.376C674.682 259.376 673.698 258.68 673.698 257.54C673.698 256.46 674.646 255.788 674.91 255.632C676.158 256.232 677.646 256.604 677.646 257.696ZM674.022 253.568C674.022 252.812 674.646 252.188 675.726 252.188C676.746 252.188 677.466 252.752 677.466 253.652C677.466 254.66 676.746 255.416 676.59 255.56C675.378 255.032 674.022 254.66 674.022 253.568ZM681.937 260.144C684.553 260.144 685.645 257.492 685.645 255.38C685.645 253.1 684.433 251.42 682.597 251.42C681.121 251.42 679.957 252.488 679.957 254.24C679.957 255.836 681.037 256.964 682.573 256.964C683.449 256.964 684.301 256.58 684.721 255.98H684.745C684.589 257.624 683.701 259.364 681.925 259.364C681.229 259.364 680.701 259.064 680.701 259.064L680.389 259.796C680.389 259.796 681.013 260.144 681.937 260.144ZM682.705 256.22C681.553 256.22 680.797 255.428 680.797 254.228C680.797 253.064 681.469 252.2 682.609 252.2C683.869 252.2 684.745 253.652 684.745 254.78C684.745 255.464 683.845 256.22 682.705 256.22ZM690.178 260.144C692.374 260.144 693.082 258.224 693.082 255.776C693.082 253.352 692.374 251.42 690.178 251.42C687.982 251.42 687.262 253.352 687.262 255.776C687.262 258.224 687.982 260.144 690.178 260.144ZM690.178 259.364C688.57 259.364 688.126 257.792 688.126 255.776C688.126 253.772 688.57 252.2 690.178 252.2C691.774 252.2 692.218 253.772 692.218 255.776C692.218 257.792 691.774 259.364 690.178 259.364Z" fill="#404040"/>
<path d="M596.224 221H597.052V217.448H599.176L601.084 221H602.032L600.196 217.604C600.064 217.376 599.98 217.268 599.98 217.268V217.244C600.928 216.98 601.576 216.104 601.576 214.964C601.576 213.944 601.096 213.14 600.304 212.792C599.968 212.648 599.584 212.564 598.72 212.564H596.224V221ZM597.052 216.704V213.308H598.756C599.404 213.308 599.704 213.38 599.956 213.512C600.448 213.776 600.724 214.292 600.724 214.988C600.724 216.044 600.076 216.704 599.056 216.704H597.052ZM603.195 216.776C603.195 219.284 605.019 221.144 607.323 221.144C609.099 221.144 610.071 220.004 610.071 220.004H610.095C610.095 220.004 610.083 220.184 610.083 220.364V221H610.851V216.968H608.619V217.712H610.059V219.14C610.059 219.14 609.051 220.376 607.407 220.376C605.487 220.376 604.059 218.84 604.059 216.764C604.059 214.76 605.439 213.188 607.479 213.188C609.015 213.188 609.999 214.028 609.999 214.028L610.443 213.404C610.443 213.404 609.399 212.42 607.443 212.42C605.019 212.42 603.195 214.34 603.195 216.776ZM612.853 221H615.829C617.245 221 618.361 220.136 618.361 218.636C618.361 217.616 617.809 216.788 616.945 216.548V216.524C617.593 216.2 618.013 215.564 618.013 214.688C618.013 213.368 617.065 212.564 615.733 212.564H612.853V221ZM613.681 216.224V213.308H615.721C616.621 213.308 617.161 213.884 617.161 214.748C617.161 215.624 616.585 216.224 615.733 216.224H613.681ZM613.681 220.256V216.944H615.829C616.813 216.944 617.497 217.604 617.497 218.612C617.497 219.62 616.861 220.256 615.841 220.256H613.681Z" fill="#404040"/>
<path d="M595.66 236.728C595.66 239.188 597.436 241.144 599.932 241.144C602.008 241.144 603.16 239.836 603.16 239.836L602.68 239.248C602.68 239.248 601.648 240.376 599.944 240.376C597.94 240.376 596.524 238.732 596.524 236.716C596.524 234.724 597.94 233.188 599.92 233.188C601.504 233.188 602.488 234.124 602.488 234.124L602.932 233.512C602.932 233.512 601.912 232.42 599.896 232.42C597.484 232.42 595.66 234.28 595.66 236.728ZM604.69 241H605.518L605.986 235.096C606.022 234.64 606.01 233.896 606.01 233.896H606.034C606.034 233.896 606.298 234.676 606.49 235.096L608.47 239.428H609.25L611.23 235.096C611.422 234.664 611.674 233.92 611.674 233.92H611.698C611.698 233.92 611.686 234.64 611.722 235.096L612.19 241H613.018L612.346 232.564H611.494L609.286 237.52C609.094 237.952 608.866 238.552 608.866 238.552H608.842C608.842 238.552 608.626 237.952 608.434 237.52L606.226 232.564H605.362L604.69 241ZM616.891 241H617.731V237.376L620.563 232.564H619.627L617.839 235.624C617.575 236.068 617.323 236.632 617.323 236.632H617.299C617.299 236.632 617.035 236.056 616.783 235.624L614.995 232.564H614.047L616.891 237.376V241ZM621.982 241H622.81V236.968H624.238L626.65 241H627.622L624.934 236.572V236.548L627.454 232.564H626.506L624.238 236.224H622.81V232.564H621.982V241Z" fill="#404040"/>
<path d="M596.224 260H597.052V256.148H601.948V260H602.776V251.564H601.948V255.404H597.052V251.564H596.224V260ZM605.224 260H610.192V259.256H606.052V256.124H609.256V255.38H606.052V252.308H609.976V251.564H605.224V260ZM611.167 260H612.127L613.855 257.096C614.119 256.652 614.371 256.148 614.371 256.148H614.395C614.395 256.148 614.659 256.652 614.923 257.084L616.675 260H617.635L614.935 255.596L617.407 251.564H616.423L614.935 254.06C614.671 254.492 614.431 255.032 614.431 255.032H614.407C614.407 255.032 614.107 254.492 613.855 254.06L612.379 251.564H611.407L613.855 255.596L611.167 260Z" fill="#404040"/>
<rect x="401" y="32" width="169" height="150" rx="3" fill="#008370"/>
<path d="M450.756 221.144C452.952 221.144 453.66 219.224 453.66 216.776C453.66 214.352 452.952 212.42 450.756 212.42C448.56 212.42 447.84 214.352 447.84 216.776C447.84 219.224 448.56 221.144 450.756 221.144ZM450.756 220.364C449.148 220.364 448.704 218.792 448.704 216.776C448.704 214.772 449.148 213.2 450.756 213.2C452.352 213.2 452.796 214.772 452.796 216.776C452.796 218.792 452.352 220.364 450.756 220.364ZM458.395 221H462.967V220.256H461.107V212.564H460.339L458.431 214.46L458.959 215L459.859 214.1C460.195 213.776 460.279 213.596 460.279 213.596H460.303C460.303 213.596 460.291 213.824 460.291 214.064V220.256H458.395V221ZM463.853 219.992C463.853 219.992 464.873 221.144 466.529 221.144C468.125 221.144 469.301 219.944 469.301 218.504C469.301 216.68 467.729 216.08 466.661 216.02L469.181 213.116V212.564H464.249V213.308H467.417C467.861 213.308 468.101 213.272 468.101 213.272V213.296C468.101 213.296 467.885 213.5 467.657 213.764L465.545 216.236L465.749 216.728H466.325C467.429 216.728 468.449 217.34 468.449 218.528C468.449 219.608 467.525 220.352 466.517 220.352C465.221 220.352 464.357 219.356 464.357 219.356L463.853 219.992ZM470.723 221H475.295V220.256H473.435V212.564H472.667L470.759 214.46L471.287 215L472.187 214.1C472.523 213.776 472.607 213.596 472.607 213.596H472.631C472.631 213.596 472.619 213.824 472.619 214.064V220.256H470.723V221ZM479.535 221H484.107V220.256H482.247V212.564H481.479L479.571 214.46L480.099 215L480.999 214.1C481.335 213.776 481.419 213.596 481.419 213.596H481.443C481.443 213.596 481.431 213.824 481.431 214.064V220.256H479.535V221ZM485.125 221H489.697V220.256H487.837V212.564H487.069L485.161 214.46L485.689 215L486.589 214.1C486.925 213.776 487.009 213.596 487.009 213.596H487.033C487.033 213.596 487.021 213.824 487.021 214.064V220.256H485.125V221ZM490.811 221H496.079V220.256H491.675C491.687 218.012 495.947 217.616 495.947 214.784C495.947 213.464 494.987 212.42 493.379 212.42C491.591 212.42 490.823 213.944 490.823 213.944L491.447 214.364C491.447 214.364 492.095 213.212 493.331 213.212C494.387 213.212 495.083 213.908 495.083 214.832C495.083 217.112 490.763 217.496 490.763 220.46C490.763 220.628 490.775 220.808 490.811 221Z" fill="#404040"/>
<path d="M447.672 241H452.244V240.256H450.384V232.564H449.616L447.708 234.46L448.236 235L449.136 234.1C449.472 233.776 449.556 233.596 449.556 233.596H449.58C449.58 233.596 449.568 233.824 449.568 234.064V240.256H447.672V241ZM456.346 241.144C458.542 241.144 459.25 239.224 459.25 236.776C459.25 234.352 458.542 232.42 456.346 232.42C454.15 232.42 453.43 234.352 453.43 236.776C453.43 239.224 454.15 241.144 456.346 241.144ZM456.346 240.364C454.738 240.364 454.294 238.792 454.294 236.776C454.294 234.772 454.738 233.2 456.346 233.2C457.942 233.2 458.386 234.772 458.386 236.776C458.386 238.792 457.942 240.364 456.346 240.364ZM463.846 241.144C466.042 241.144 466.75 239.224 466.75 236.776C466.75 234.352 466.042 232.42 463.846 232.42C461.65 232.42 460.93 234.352 460.93 236.776C460.93 239.224 461.65 241.144 463.846 241.144ZM463.846 240.364C462.238 240.364 461.794 238.792 461.794 236.776C461.794 234.772 462.238 233.2 463.846 233.2C465.442 233.2 465.886 234.772 465.886 236.776C465.886 238.792 465.442 240.364 463.846 240.364ZM474.569 241.144C476.765 241.144 477.473 239.224 477.473 236.776C477.473 234.352 476.765 232.42 474.569 232.42C472.373 232.42 471.653 234.352 471.653 236.776C471.653 239.224 472.373 241.144 474.569 241.144ZM474.569 240.364C472.961 240.364 472.517 238.792 472.517 236.776C472.517 234.772 472.961 233.2 474.569 233.2C476.165 233.2 476.609 234.772 476.609 236.776C476.609 238.792 476.165 240.364 474.569 240.364ZM482.207 241H486.779V240.256H484.919V232.564H484.151L482.243 234.46L482.771 235L483.671 234.1C484.007 233.776 484.091 233.596 484.091 233.596H484.115C484.115 233.596 484.103 233.824 484.103 234.064V240.256H482.207V241ZM487.773 239.944C487.773 239.944 488.565 241.144 490.245 241.144C491.889 241.144 493.173 239.932 493.173 238.372C493.173 236.848 491.961 235.624 490.269 235.624C489.513 235.624 488.985 235.948 488.985 235.948H488.961C488.961 235.948 489.009 235.768 489.045 235.468L489.285 233.308H492.645V232.564H488.565L488.109 236.656L488.637 236.848C488.637 236.848 489.273 236.392 490.173 236.392C491.373 236.392 492.309 237.22 492.309 238.372C492.309 239.524 491.373 240.352 490.209 240.352C488.925 240.352 488.301 239.368 488.301 239.368L487.773 239.944ZM497.447 238.66H501.671V241H502.499V238.66H503.699V237.928H502.499V232.564H501.599L497.447 238.12V238.66ZM498.455 237.928V237.904L501.263 234.244C501.491 233.944 501.683 233.608 501.683 233.608H501.707C501.707 233.608 501.671 234.04 501.671 234.4V237.928H498.455ZM506.839 241.144C509.455 241.144 510.547 238.492 510.547 236.38C510.547 234.1 509.335 232.42 507.499 232.42C506.023 232.42 504.859 233.488 504.859 235.24C504.859 236.836 505.939 237.964 507.475 237.964C508.351 237.964 509.203 237.58 509.623 236.98H509.647C509.491 238.624 508.603 240.364 506.827 240.364C506.131 240.364 505.603 240.064 505.603 240.064L505.291 240.796C505.291 240.796 505.915 241.144 506.839 241.144ZM507.607 237.22C506.455 237.22 505.699 236.428 505.699 235.228C505.699 234.064 506.371 233.2 507.511 233.2C508.771 233.2 509.647 234.652 509.647 235.78C509.647 236.464 508.747 237.22 507.607 237.22Z" fill="#404040"/>
<path d="M448.86 260H449.592L450 257.66H452.076L451.668 260H452.4L452.808 257.66H454.488L454.596 256.988H452.928L453.336 254.636H455.016L455.136 253.964H453.456L453.876 251.564H453.144L452.724 253.964H450.648L451.068 251.564H450.336L449.916 253.964H448.212L448.104 254.636H449.796L449.376 256.988H447.684L447.564 257.66H449.268L448.86 260ZM450.12 256.988L450.528 254.636H452.604L452.184 256.988H450.12ZM459.44 260.144C461.636 260.144 462.344 258.224 462.344 255.776C462.344 253.352 461.636 251.42 459.44 251.42C457.244 251.42 456.524 253.352 456.524 255.776C456.524 258.224 457.244 260.144 459.44 260.144ZM459.44 259.364C457.832 259.364 457.388 257.792 457.388 255.776C457.388 253.772 457.832 252.2 459.44 252.2C461.036 252.2 461.48 253.772 461.48 255.776C461.48 257.792 461.036 259.364 459.44 259.364ZM466.94 260.144C469.136 260.144 469.844 258.224 469.844 255.776C469.844 253.352 469.136 251.42 466.94 251.42C464.744 251.42 464.024 253.352 464.024 255.776C464.024 258.224 464.744 260.144 466.94 260.144ZM466.94 259.364C465.332 259.364 464.888 257.792 464.888 255.776C464.888 253.772 465.332 252.2 466.94 252.2C468.536 252.2 468.98 253.772 468.98 255.776C468.98 257.792 468.536 259.364 466.94 259.364ZM471.452 257.576C471.452 259.172 472.784 260.144 474.308 260.144C475.94 260.144 477.104 259.028 477.104 257.708C477.104 256.832 476.576 256.292 475.88 255.896C475.976 255.8 476.912 254.816 476.912 253.616C476.912 252.296 475.904 251.42 474.332 251.42C472.628 251.42 471.788 252.464 471.788 253.556C471.788 254.36 472.232 254.876 472.832 255.272C472.64 255.392 471.452 256.22 471.452 257.576ZM476.252 257.696C476.252 258.692 475.304 259.376 474.308 259.376C473.288 259.376 472.304 258.68 472.304 257.54C472.304 256.46 473.252 255.788 473.516 255.632C474.764 256.232 476.252 256.604 476.252 257.696ZM472.628 253.568C472.628 252.812 473.252 252.188 474.332 252.188C475.352 252.188 476.072 252.752 476.072 253.652C476.072 254.66 475.352 255.416 475.196 255.56C473.984 255.032 472.628 254.66 472.628 253.568ZM478.442 258.992C478.442 258.992 479.462 260.144 481.118 260.144C482.714 260.144 483.89 258.944 483.89 257.504C483.89 255.68 482.318 255.08 481.25 255.02L483.77 252.116V251.564H478.838V252.308H482.006C482.45 252.308 482.69 252.272 482.69 252.272V252.296C482.69 252.296 482.474 252.5 482.246 252.764L480.134 255.236L480.338 255.728H480.914C482.018 255.728 483.038 256.34 483.038 257.528C483.038 258.608 482.114 259.352 481.106 259.352C479.81 259.352 478.946 258.356 478.946 258.356L478.442 258.992ZM485.805 260H486.669L490.581 252.14V251.564H485.097V252.308H489.045C489.465 252.308 489.681 252.284 489.681 252.284V252.308C489.681 252.308 489.441 252.632 489.213 253.088L485.805 260ZM494.631 260.144C496.827 260.144 497.535 258.224 497.535 255.776C497.535 253.352 496.827 251.42 494.631 251.42C492.435 251.42 491.715 253.352 491.715 255.776C491.715 258.224 492.435 260.144 494.631 260.144ZM494.631 259.364C493.023 259.364 492.579 257.792 492.579 255.776C492.579 253.772 493.023 252.2 494.631 252.2C496.227 252.2 496.671 253.772 496.671 255.776C496.671 257.792 496.227 259.364 494.631 259.364Z" fill="#404040"/>
<path d="M402.224 221H403.052V217.448H405.176L407.084 221H408.032L406.196 217.604C406.064 217.376 405.98 217.268 405.98 217.268V217.244C406.928 216.98 407.576 216.104 407.576 214.964C407.576 213.944 407.096 213.14 406.304 212.792C405.968 212.648 405.584 212.564 404.72 212.564H402.224V221ZM403.052 216.704V213.308H404.756C405.404 213.308 405.704 213.38 405.956 213.512C406.448 213.776 406.724 214.292 406.724 214.988C406.724 216.044 406.076 216.704 405.056 216.704H403.052ZM409.195 216.776C409.195 219.284 411.019 221.144 413.323 221.144C415.099 221.144 416.071 220.004 416.071 220.004H416.095C416.095 220.004 416.083 220.184 416.083 220.364V221H416.851V216.968H414.619V217.712H416.059V219.14C416.059 219.14 415.051 220.376 413.407 220.376C411.487 220.376 410.059 218.84 410.059 216.764C410.059 214.76 411.439 213.188 413.479 213.188C415.015 213.188 415.999 214.028 415.999 214.028L416.443 213.404C416.443 213.404 415.399 212.42 413.443 212.42C411.019 212.42 409.195 214.34 409.195 216.776ZM418.853 221H421.829C423.245 221 424.361 220.136 424.361 218.636C424.361 217.616 423.809 216.788 422.945 216.548V216.524C423.593 216.2 424.013 215.564 424.013 214.688C424.013 213.368 423.065 212.564 421.733 212.564H418.853V221ZM419.681 216.224V213.308H421.721C422.621 213.308 423.161 213.884 423.161 214.748C423.161 215.624 422.585 216.224 421.733 216.224H419.681ZM419.681 220.256V216.944H421.829C422.813 216.944 423.497 217.604 423.497 218.612C423.497 219.62 422.861 220.256 421.841 220.256H419.681Z" fill="#404040"/>
<path d="M401.66 236.728C401.66 239.188 403.436 241.144 405.932 241.144C408.008 241.144 409.16 239.836 409.16 239.836L408.68 239.248C408.68 239.248 407.648 240.376 405.944 240.376C403.94 240.376 402.524 238.732 402.524 236.716C402.524 234.724 403.94 233.188 405.92 233.188C407.504 233.188 408.488 234.124 408.488 234.124L408.932 233.512C408.932 233.512 407.912 232.42 405.896 232.42C403.484 232.42 401.66 234.28 401.66 236.728ZM410.69 241H411.518L411.986 235.096C412.022 234.64 412.01 233.896 412.01 233.896H412.034C412.034 233.896 412.298 234.676 412.49 235.096L414.47 239.428H415.25L417.23 235.096C417.422 234.664 417.674 233.92 417.674 233.92H417.698C417.698 233.92 417.686 234.64 417.722 235.096L418.19 241H419.018L418.346 232.564H417.494L415.286 237.52C415.094 237.952 414.866 238.552 414.866 238.552H414.842C414.842 238.552 414.626 237.952 414.434 237.52L412.226 232.564H411.362L410.69 241ZM422.891 241H423.731V237.376L426.563 232.564H425.627L423.839 235.624C423.575 236.068 423.323 236.632 423.323 236.632H423.299C423.299 236.632 423.035 236.056 422.783 235.624L420.995 232.564H420.047L422.891 237.376V241ZM427.982 241H428.81V236.968H430.238L432.65 241H433.622L430.934 236.572V236.548L433.454 232.564H432.506L430.238 236.224H428.81V232.564H427.982V241Z" fill="#404040"/>
<path d="M402.224 260H403.052V256.148H407.948V260H408.776V251.564H407.948V255.404H403.052V251.564H402.224V260ZM411.224 260H416.192V259.256H412.052V256.124H415.256V255.38H412.052V252.308H415.976V251.564H411.224V260ZM417.167 260H418.127L419.855 257.096C420.119 256.652 420.371 256.148 420.371 256.148H420.395C420.395 256.148 420.659 256.652 420.923 257.084L422.675 260H423.635L420.935 255.596L423.407 251.564H422.423L420.935 254.06C420.671 254.492 420.431 255.032 420.431 255.032H420.407C420.407 255.032 420.107 254.492 419.855 254.06L418.379 251.564H417.407L419.855 255.596L417.167 260Z" fill="#404040"/>
<path d="M257.784 219H263.468V217.796H261.312V209.116H260.08L257.714 211.412L258.554 212.28L259.478 211.37C259.842 211.02 259.954 210.796 259.954 210.796H259.982C259.982 210.796 259.968 211.104 259.968 211.412V217.796H257.784V219ZM265.054 219H266.482L270.948 210.068V209.116H264.34V210.32H268.75C269.254 210.32 269.478 210.278 269.478 210.278V210.306C269.478 210.306 269.184 210.656 268.904 211.216L265.054 219ZM271.393 216.354H276.181V219H277.539V216.354H278.883V215.178H277.539V209.116H275.957L271.393 215.486V216.354ZM272.919 215.178V215.15L275.719 211.412C275.985 211.062 276.209 210.6 276.209 210.6H276.237C276.237 210.6 276.181 211.118 276.181 211.58V215.178H272.919ZM283.885 219H290.255V217.796H285.355C285.383 215.542 290.101 215.038 290.101 211.79C290.101 210.082 288.799 208.948 286.979 208.948C284.753 208.948 283.857 210.824 283.857 210.824L284.879 211.51C284.879 211.51 285.579 210.25 286.881 210.25C287.917 210.25 288.659 210.908 288.659 211.888C288.659 214.212 283.815 214.716 283.815 218.244C283.815 218.482 283.843 218.734 283.885 219ZM291.897 219H298.267V217.796H293.367C293.395 215.542 298.113 215.038 298.113 211.79C298.113 210.082 296.811 208.948 294.991 208.948C292.765 208.948 291.869 210.824 291.869 210.824L292.891 211.51C292.891 211.51 293.591 210.25 294.893 210.25C295.929 210.25 296.671 210.908 296.671 211.888C296.671 214.212 291.827 214.716 291.827 218.244C291.827 218.482 291.855 218.734 291.897 219ZM299.628 217.824C299.628 217.824 300.818 219.168 302.834 219.168C304.864 219.168 306.194 217.684 306.194 215.99C306.194 214.072 304.598 213.232 303.296 213.092L305.984 209.998V209.116H300.076V210.32H303.422C303.968 210.32 304.262 210.278 304.262 210.278V210.306C304.262 210.306 303.968 210.572 303.646 210.95L301.49 213.484L301.812 214.226H302.498C303.716 214.226 304.794 214.828 304.794 216.046C304.794 217.11 303.884 217.852 302.778 217.852C301.35 217.852 300.384 216.774 300.384 216.774L299.628 217.824ZM311.447 219H317.817V217.796H312.917C312.945 215.542 317.663 215.038 317.663 211.79C317.663 210.082 316.361 208.948 314.541 208.948C312.315 208.948 311.419 210.824 311.419 210.824L312.441 211.51C312.441 211.51 313.141 210.25 314.443 210.25C315.479 210.25 316.221 210.908 316.221 211.888C316.221 214.212 311.377 214.716 311.377 218.244C311.377 218.482 311.405 218.734 311.447 219ZM319.459 219H325.829V217.796H320.929C320.957 215.542 325.675 215.038 325.675 211.79C325.675 210.082 324.373 208.948 322.553 208.948C320.327 208.948 319.431 210.824 319.431 210.824L320.453 211.51C320.453 211.51 321.153 210.25 322.455 210.25C323.491 210.25 324.233 210.908 324.233 211.888C324.233 214.212 319.389 214.716 319.389 218.244C319.389 218.482 319.417 218.734 319.459 219ZM331.153 219.168C333.001 219.168 334.331 217.81 334.331 215.864C334.331 214.03 333.085 212.602 331.209 212.602C330.341 212.602 329.445 212.98 329.025 213.54H328.997C329.207 211.902 330.145 210.222 331.965 210.222C332.749 210.222 333.379 210.544 333.379 210.544L333.827 209.354C333.827 209.354 333.071 208.948 331.909 208.948C328.843 208.948 327.457 211.972 327.457 214.506C327.457 217.32 329.039 219.168 331.153 219.168ZM331.139 217.894C329.879 217.894 328.913 216.452 328.913 215.164C328.913 214.45 329.809 213.778 330.929 213.778C332.189 213.778 332.959 214.66 332.959 215.864C332.959 217.012 332.273 217.894 331.139 217.894Z" fill="#404040"/>
<path d="M257.84 240H264.21V238.796H259.31C259.338 236.542 264.056 236.038 264.056 232.79C264.056 231.082 262.754 229.948 260.934 229.948C258.708 229.948 257.812 231.824 257.812 231.824L258.834 232.51C258.834 232.51 259.534 231.25 260.836 231.25C261.872 231.25 262.614 231.908 262.614 232.888C262.614 235.212 257.77 235.716 257.77 239.244C257.77 239.482 257.798 239.734 257.84 240ZM265.572 238.824C265.572 238.824 266.762 240.168 268.778 240.168C270.808 240.168 272.138 238.684 272.138 236.99C272.138 235.072 270.542 234.232 269.24 234.092L271.928 230.998V230.116H266.02V231.32H269.366C269.912 231.32 270.206 231.278 270.206 231.278V231.306C270.206 231.306 269.912 231.572 269.59 231.95L267.434 234.484L267.756 235.226H268.442C269.66 235.226 270.738 235.828 270.738 237.046C270.738 238.11 269.828 238.852 268.722 238.852C267.294 238.852 266.328 237.774 266.328 237.774L265.572 238.824ZM277.335 240H283.019V238.796H280.863V230.116H279.631L277.265 232.412L278.105 233.28L279.029 232.37C279.393 232.02 279.505 231.796 279.505 231.796H279.533C279.533 231.796 279.519 232.104 279.519 232.412V238.796H277.335V240ZM291.364 240.168C294.01 240.168 294.864 237.9 294.864 235.044C294.864 232.202 294.01 229.948 291.364 229.948C288.732 229.948 287.878 232.202 287.878 235.044C287.878 237.9 288.732 240.168 291.364 240.168ZM291.364 238.894C289.754 238.894 289.292 237.2 289.292 235.044C289.292 232.902 289.754 231.222 291.364 231.222C292.988 231.222 293.45 232.902 293.45 235.044C293.45 237.2 292.988 238.894 291.364 238.894ZM300.126 240H305.81V238.796H303.654V230.116H302.422L300.056 232.412L300.896 233.28L301.82 232.37C302.184 232.02 302.296 231.796 302.296 231.796H302.324C302.324 231.796 302.31 232.104 302.31 232.412V238.796H300.126V240ZM306.975 240H312.659V238.796H310.503V230.116H309.271L306.905 232.412L307.745 233.28L308.669 232.37C309.033 232.02 309.145 231.796 309.145 231.796H309.173C309.173 231.796 309.159 232.104 309.159 232.412V238.796H306.975V240Z" fill="#404040"/>
<path d="M258.974 261H260.108L260.57 258.326H262.74L262.278 261H263.412L263.888 258.326H265.694L265.876 257.29H264.056L264.476 254.938H266.296L266.478 253.916H264.644L265.134 251.116H264L263.51 253.916H261.34L261.83 251.116H260.696L260.206 253.916H258.386L258.218 254.938H260.024L259.618 257.29H257.784L257.616 258.326H259.436L258.974 261ZM260.752 257.29L261.172 254.938H263.342L262.922 257.29H260.752ZM274.287 261H275.729L272.173 251.116H270.717L267.161 261H268.589L269.569 258.158H273.293L274.287 261ZM271.459 252.474C271.459 252.474 271.669 253.37 271.837 253.874L272.929 257.01H269.933L271.039 253.874C271.207 253.37 271.431 252.474 271.431 252.474H271.459ZM277.184 261H283.162V259.796H278.57V256.618H282.112V255.414H278.57V252.32H282.924V251.116H277.184V261ZM285.209 261H288.485C291.509 261 293.497 259.18 293.497 256.044C293.497 252.922 291.509 251.116 288.485 251.116H285.209V261ZM286.595 259.796V252.32H288.387C290.599 252.32 292.069 253.622 292.069 256.044C292.069 258.48 290.613 259.796 288.387 259.796H286.595ZM295.573 261H296.959V256.772H300.417V255.568H296.959V252.32H301.019V251.116H295.573V261ZM302.873 261H308.851V259.796H304.259V256.618H307.801V255.414H304.259V252.32H308.613V251.116H302.873V261ZM310.395 261H316.765V259.796H311.865C311.893 257.542 316.611 257.038 316.611 253.79C316.611 252.082 315.309 250.948 313.489 250.948C311.263 250.948 310.367 252.824 310.367 252.824L311.389 253.51C311.389 253.51 312.089 252.25 313.391 252.25C314.427 252.25 315.169 252.908 315.169 253.888C315.169 256.212 310.325 256.716 310.325 260.244C310.325 260.482 310.353 260.734 310.395 261Z" fill="#404040"/>
<path d="M208.344 219H209.73V215.066H211.844L213.93 219H215.498L213.398 215.164C213.216 214.842 213.104 214.716 213.104 214.716V214.688C214.182 214.338 214.882 213.274 214.882 212.014C214.882 210.712 214.224 209.718 213.216 209.34C212.838 209.2 212.404 209.116 211.368 209.116H208.344V219ZM209.73 213.862V210.32H211.326C212.096 210.32 212.418 210.404 212.684 210.544C213.188 210.824 213.468 211.342 213.468 212.07C213.468 213.176 212.796 213.862 211.718 213.862H209.73ZM216.655 214.044C216.655 217.068 218.853 219.168 221.513 219.168C223.473 219.168 224.551 217.964 224.551 217.964H224.579C224.579 217.964 224.565 218.174 224.565 218.384V219H225.783V214.03H222.913V215.234H224.523V216.662C224.523 216.662 223.431 217.894 221.723 217.894C219.651 217.894 218.083 216.312 218.083 214.016C218.083 211.902 219.483 210.208 221.807 210.208C223.487 210.208 224.593 211.174 224.593 211.174L225.293 210.138C225.293 210.138 224.061 208.948 221.695 208.948C218.811 208.948 216.655 211.188 216.655 214.044ZM227.949 219H231.491C233.227 219 234.669 218.048 234.669 216.186C234.669 215.08 234.081 214.1 233.045 213.792V213.764C233.801 213.372 234.277 212.602 234.277 211.636C234.277 210.04 233.073 209.116 231.407 209.116H227.949V219ZM229.335 213.274V210.32H231.379C232.331 210.32 232.863 210.908 232.863 211.776C232.863 212.644 232.303 213.274 231.407 213.274H229.335ZM229.335 217.796V214.422H231.547C232.583 214.422 233.255 215.108 233.255 216.116C233.255 217.124 232.625 217.796 231.561 217.796H229.335Z" fill="#404040"/>
<path d="M207.672 235.002C207.672 237.9 209.758 240.168 212.726 240.168C215.204 240.168 216.562 238.6 216.562 238.6L215.82 237.606C215.82 237.606 214.63 238.894 212.768 238.894C210.57 238.894 209.1 237.102 209.1 234.988C209.1 232.888 210.542 231.208 212.754 231.208C214.462 231.208 215.61 232.286 215.61 232.286L216.296 231.25C216.296 231.25 215.078 229.948 212.698 229.948C209.828 229.948 207.672 232.132 207.672 235.002ZM218.14 240H219.526L220.002 233.77C220.044 233.168 220.03 232.286 220.03 232.286H220.058C220.058 232.286 220.366 233.238 220.59 233.77L222.55 238.222H223.782L225.756 233.77C225.994 233.224 226.288 232.314 226.288 232.314H226.316C226.316 232.314 226.288 233.168 226.33 233.77L226.82 240H228.192L227.394 230.116H225.938L223.67 235.464C223.446 236.01 223.18 236.794 223.18 236.794H223.152C223.152 236.794 222.886 236.01 222.662 235.464L220.394 230.116H218.938L218.14 240ZM232.524 240H233.91V235.814L237.214 230.116H235.646L233.84 233.364C233.532 233.924 233.238 234.61 233.238 234.61H233.21C233.21 234.61 232.916 233.91 232.608 233.364L230.774 230.116H229.206L232.524 235.814V240ZM238.668 240H240.054V235.464H241.524L244.156 240H245.724L242.672 234.834V234.806L245.542 230.116H244.016L241.524 234.274H240.054V230.116H238.668V240Z" fill="#404040"/>
<path d="M208.344 261H209.73V256.66H214.854V261H216.24V251.116H214.854V255.456H209.73V251.116H208.344V261ZM218.926 261H224.904V259.796H220.312V256.618H223.854V255.414H220.312V252.32H224.666V251.116H218.926V261ZM225.915 261H227.469L229.261 257.962C229.583 257.416 229.849 256.828 229.849 256.828H229.877C229.877 256.828 230.185 257.402 230.507 257.962L232.299 261H233.867L230.745 255.904L233.671 251.116H232.075L230.521 253.79C230.199 254.336 229.919 254.966 229.919 254.966H229.891C229.891 254.966 229.569 254.322 229.261 253.79L227.707 251.116H226.111L229.037 255.904L225.915 261Z" fill="#404040"/>
<path d="M97.5 292.5L13.0625 146.25L181.937 146.25L97.5 292.5Z" fill="#AEDFE2"/>
<path d="M260.108 40.168C263.174 40.168 264.56 37.144 264.56 34.61C264.56 31.782 262.964 29.948 260.864 29.948C259.016 29.948 257.686 31.306 257.686 33.252C257.686 35.086 258.932 36.5 260.808 36.5C261.676 36.5 262.586 36.136 262.992 35.576H263.02C262.81 37.214 261.872 38.894 260.052 38.894C259.268 38.894 258.638 38.558 258.638 38.558L258.19 39.762C258.19 39.762 258.932 40.168 260.108 40.168ZM261.088 35.338C259.814 35.338 259.058 34.456 259.058 33.252C259.058 32.104 259.73 31.222 260.878 31.222C262.138 31.222 263.104 32.664 263.104 33.952C263.104 34.652 262.208 35.338 261.088 35.338ZM269.903 40.168C271.751 40.168 273.081 38.81 273.081 36.864C273.081 35.03 271.835 33.602 269.959 33.602C269.091 33.602 268.195 33.98 267.775 34.54H267.747C267.957 32.902 268.895 31.222 270.715 31.222C271.499 31.222 272.129 31.544 272.129 31.544L272.577 30.354C272.577 30.354 271.821 29.948 270.659 29.948C267.593 29.948 266.207 32.972 266.207 35.506C266.207 38.32 267.789 40.168 269.903 40.168ZM269.889 38.894C268.629 38.894 267.663 37.452 267.663 36.164C267.663 35.45 268.559 34.778 269.679 34.778C270.939 34.778 271.709 35.66 271.709 36.864C271.709 38.012 271.023 38.894 269.889 38.894ZM278.141 40H283.825V38.796H281.669V30.116H280.437L278.071 32.412L278.911 33.28L279.835 32.37C280.199 32.02 280.311 31.796 280.311 31.796H280.339C280.339 31.796 280.325 32.104 280.325 32.412V38.796H278.141V40ZM287.315 40.168C290.381 40.168 291.767 37.144 291.767 34.61C291.767 31.782 290.171 29.948 288.071 29.948C286.223 29.948 284.893 31.306 284.893 33.252C284.893 35.086 286.139 36.5 288.015 36.5C288.883 36.5 289.793 36.136 290.199 35.576H290.227C290.017 37.214 289.079 38.894 287.259 38.894C286.475 38.894 285.845 38.558 285.845 38.558L285.397 39.762C285.397 39.762 286.139 40.168 287.315 40.168ZM288.295 35.338C287.021 35.338 286.265 34.456 286.265 33.252C286.265 32.104 286.937 31.222 288.085 31.222C289.345 31.222 290.311 32.664 290.311 33.952C290.311 34.652 289.415 35.338 288.295 35.338ZM297.11 40.168C298.958 40.168 300.288 38.81 300.288 36.864C300.288 35.03 299.042 33.602 297.166 33.602C296.298 33.602 295.402 33.98 294.982 34.54H294.954C295.164 32.902 296.102 31.222 297.922 31.222C298.706 31.222 299.336 31.544 299.336 31.544L299.784 30.354C299.784 30.354 299.028 29.948 297.866 29.948C294.8 29.948 293.414 32.972 293.414 35.506C293.414 38.32 294.996 40.168 297.11 40.168ZM297.096 38.894C295.836 38.894 294.87 37.452 294.87 36.164C294.87 35.45 295.766 34.778 296.886 34.778C298.146 34.778 298.916 35.66 298.916 36.864C298.916 38.012 298.23 38.894 297.096 38.894ZM305.348 40H311.032V38.796H308.876V30.116H307.644L305.278 32.412L306.118 33.28L307.042 32.37C307.406 32.02 307.518 31.796 307.518 31.796H307.546C307.546 31.796 307.532 32.104 307.532 32.412V38.796H305.348V40ZM312.212 37.144C312.212 38.936 313.682 40.168 315.656 40.168C317.714 40.168 319.044 38.81 319.044 37.27C319.044 36.248 318.456 35.632 317.7 35.17C317.826 35.03 318.876 33.91 318.876 32.594C318.876 30.97 317.602 29.948 315.768 29.948C313.682 29.948 312.688 31.222 312.688 32.538C312.688 33.448 313.15 34.05 313.794 34.512C313.528 34.694 312.212 35.632 312.212 37.144ZM317.616 37.228C317.616 38.25 316.692 38.922 315.656 38.922C314.606 38.922 313.626 38.194 313.626 37.06C313.626 35.996 314.494 35.324 314.816 35.1C316.146 35.744 317.616 36.164 317.616 37.228ZM314.06 32.566C314.06 31.81 314.662 31.194 315.754 31.194C316.79 31.194 317.518 31.768 317.518 32.678C317.518 33.714 316.804 34.47 316.65 34.624C315.376 34.078 314.06 33.658 314.06 32.566ZM320.59 38.796C320.59 38.796 321.584 40.168 323.614 40.168C325.616 40.168 327.114 38.74 327.114 36.836C327.114 35.058 325.756 33.616 323.67 33.616C322.942 33.616 322.396 33.924 322.396 33.924H322.368C322.368 33.924 322.424 33.7 322.438 33.406L322.676 31.32H326.456V30.116H321.472L320.982 35.016L321.78 35.31C321.78 35.31 322.48 34.82 323.446 34.82C324.72 34.82 325.7 35.66 325.7 36.85C325.7 38.054 324.692 38.852 323.53 38.852C322.13 38.852 321.36 37.788 321.36 37.788L320.59 38.796Z" fill="#404040"/>
<path d="M257.672 59.796C257.672 59.796 258.666 61.168 260.696 61.168C262.698 61.168 264.196 59.74 264.196 57.836C264.196 56.058 262.838 54.616 260.752 54.616C260.024 54.616 259.478 54.924 259.478 54.924H259.45C259.45 54.924 259.506 54.7 259.52 54.406L259.758 52.32H263.538V51.116H258.554L258.064 56.016L258.862 56.31C258.862 56.31 259.562 55.82 260.528 55.82C261.802 55.82 262.782 56.66 262.782 57.85C262.782 59.054 261.774 59.852 260.612 59.852C259.212 59.852 258.442 58.788 258.442 58.788L257.672 59.796ZM265.673 61H271.357V59.796H269.201V51.116H267.969L265.603 53.412L266.443 54.28L267.367 53.37C267.731 53.02 267.843 52.796 267.843 52.796H267.871C267.871 52.796 267.857 53.104 267.857 53.412V59.796H265.673V61ZM279.702 61.168C282.348 61.168 283.202 58.9 283.202 56.044C283.202 53.202 282.348 50.948 279.702 50.948C277.07 50.948 276.216 53.202 276.216 56.044C276.216 58.9 277.07 61.168 279.702 61.168ZM279.702 59.894C278.092 59.894 277.63 58.2 277.63 56.044C277.63 53.902 278.092 52.222 279.702 52.222C281.326 52.222 281.788 53.902 281.788 56.044C281.788 58.2 281.326 59.894 279.702 59.894ZM292.202 61.168C294.05 61.168 295.38 59.81 295.38 57.864C295.38 56.03 294.134 54.602 292.258 54.602C291.39 54.602 290.494 54.98 290.074 55.54H290.046C290.256 53.902 291.194 52.222 293.014 52.222C293.798 52.222 294.428 52.544 294.428 52.544L294.876 51.354C294.876 51.354 294.12 50.948 292.958 50.948C289.892 50.948 288.506 53.972 288.506 56.506C288.506 59.32 290.088 61.168 292.202 61.168ZM292.188 59.894C290.928 59.894 289.962 58.452 289.962 57.164C289.962 56.45 290.858 55.778 291.978 55.778C293.238 55.778 294.008 56.66 294.008 57.864C294.008 59.012 293.322 59.894 292.188 59.894ZM300.496 61H306.866V59.796H301.966C301.994 57.542 306.712 57.038 306.712 53.79C306.712 52.082 305.41 50.948 303.59 50.948C301.364 50.948 300.468 52.824 300.468 52.824L301.49 53.51C301.49 53.51 302.19 52.25 303.492 52.25C304.528 52.25 305.27 52.908 305.27 53.888C305.27 56.212 300.426 56.716 300.426 60.244C300.426 60.482 300.454 60.734 300.496 61ZM308.228 59.824C308.228 59.824 309.418 61.168 311.434 61.168C313.464 61.168 314.794 59.684 314.794 57.99C314.794 56.072 313.198 55.232 311.896 55.092L314.584 51.998V51.116H308.676V52.32H312.022C312.568 52.32 312.862 52.278 312.862 52.278V52.306C312.862 52.306 312.568 52.572 312.246 52.95L310.09 55.484L310.412 56.226H311.098C312.316 56.226 313.394 56.828 313.394 58.046C313.394 59.11 312.484 59.852 311.378 59.852C309.95 59.852 308.984 58.774 308.984 58.774L308.228 59.824Z" fill="#404040"/>
<path d="M258.974 82H260.108L260.57 79.326H262.74L262.278 82H263.412L263.888 79.326H265.694L265.876 78.29H264.056L264.476 75.938H266.296L266.478 74.916H264.644L265.134 72.116H264L263.51 74.916H261.34L261.83 72.116H260.696L260.206 74.916H258.386L258.218 75.938H260.024L259.618 78.29H257.784L257.616 79.326H259.436L258.974 82ZM260.752 78.29L261.172 75.938H263.342L262.922 78.29H260.752ZM271.571 82.168C273.419 82.168 274.749 80.81 274.749 78.864C274.749 77.03 273.503 75.602 271.627 75.602C270.759 75.602 269.863 75.98 269.443 76.54H269.415C269.625 74.902 270.563 73.222 272.383 73.222C273.167 73.222 273.797 73.544 273.797 73.544L274.245 72.354C274.245 72.354 273.489 71.948 272.327 71.948C269.261 71.948 267.875 74.972 267.875 77.506C267.875 80.32 269.457 82.168 271.571 82.168ZM271.557 80.894C270.297 80.894 269.331 79.452 269.331 78.164C269.331 77.45 270.227 76.778 271.347 76.778C272.607 76.778 273.377 77.66 273.377 78.864C273.377 80.012 272.691 80.894 271.557 80.894ZM279.798 82.168C282.444 82.168 283.298 79.9 283.298 77.044C283.298 74.202 282.444 71.948 279.798 71.948C277.166 71.948 276.312 74.202 276.312 77.044C276.312 79.9 277.166 82.168 279.798 82.168ZM279.798 80.894C278.188 80.894 277.726 79.2 277.726 77.044C277.726 74.902 278.188 73.222 279.798 73.222C281.422 73.222 281.884 74.902 281.884 77.044C281.884 79.2 281.422 80.894 279.798 80.894ZM284.852 77.002C284.852 79.9 286.938 82.168 289.906 82.168C292.384 82.168 293.742 80.6 293.742 80.6L293 79.606C293 79.606 291.81 80.894 289.948 80.894C287.75 80.894 286.28 79.102 286.28 76.988C286.28 74.888 287.722 73.208 289.934 73.208C291.642 73.208 292.79 74.286 292.79 74.286L293.476 73.25C293.476 73.25 292.258 71.948 289.878 71.948C287.008 71.948 284.852 74.132 284.852 77.002ZM294.717 79.354H299.505V82H300.863V79.354H302.207V78.178H300.863V72.116H299.281L294.717 78.486V79.354ZM296.243 78.178V78.15L299.043 74.412C299.309 74.062 299.533 73.6 299.533 73.6H299.561C299.561 73.6 299.505 74.118 299.505 74.58V78.178H296.243ZM304.117 82H307.659C309.395 82 310.837 81.048 310.837 79.186C310.837 78.08 310.249 77.1 309.213 76.792V76.764C309.969 76.372 310.445 75.602 310.445 74.636C310.445 73.04 309.241 72.116 307.575 72.116H304.117V82ZM305.503 76.274V73.32H307.547C308.499 73.32 309.031 73.908 309.031 74.776C309.031 75.644 308.471 76.274 307.575 76.274H305.503ZM305.503 80.796V77.422H307.715C308.751 77.422 309.423 78.108 309.423 79.116C309.423 80.124 308.793 80.796 307.729 80.796H305.503ZM314.754 82.168C317.82 82.168 319.206 79.144 319.206 76.61C319.206 73.782 317.61 71.948 315.51 71.948C313.662 71.948 312.332 73.306 312.332 75.252C312.332 77.086 313.578 78.5 315.454 78.5C316.322 78.5 317.232 78.136 317.638 77.576H317.666C317.456 79.214 316.518 80.894 314.698 80.894C313.914 80.894 313.284 80.558 313.284 80.558L312.836 81.762C312.836 81.762 313.578 82.168 314.754 82.168ZM315.734 77.338C314.46 77.338 313.704 76.456 313.704 75.252C313.704 74.104 314.376 73.222 315.524 73.222C316.784 73.222 317.75 74.664 317.75 75.952C317.75 76.652 316.854 77.338 315.734 77.338Z" fill="#404040"/>
<path d="M208.344 40H209.73V36.066H211.844L213.93 40H215.498L213.398 36.164C213.216 35.842 213.104 35.716 213.104 35.716V35.688C214.182 35.338 214.882 34.274 214.882 33.014C214.882 31.712 214.224 30.718 213.216 30.34C212.838 30.2 212.404 30.116 211.368 30.116H208.344V40ZM209.73 34.862V31.32H211.326C212.096 31.32 212.418 31.404 212.684 31.544C213.188 31.824 213.468 32.342 213.468 33.07C213.468 34.176 212.796 34.862 211.718 34.862H209.73ZM216.655 35.044C216.655 38.068 218.853 40.168 221.513 40.168C223.473 40.168 224.551 38.964 224.551 38.964H224.579C224.579 38.964 224.565 39.174 224.565 39.384V40H225.783V35.03H222.913V36.234H224.523V37.662C224.523 37.662 223.431 38.894 221.723 38.894C219.651 38.894 218.083 37.312 218.083 35.016C218.083 32.902 219.483 31.208 221.807 31.208C223.487 31.208 224.593 32.174 224.593 32.174L225.293 31.138C225.293 31.138 224.061 29.948 221.695 29.948C218.811 29.948 216.655 32.188 216.655 35.044ZM227.949 40H231.491C233.227 40 234.669 39.048 234.669 37.186C234.669 36.08 234.081 35.1 233.045 34.792V34.764C233.801 34.372 234.277 33.602 234.277 32.636C234.277 31.04 233.073 30.116 231.407 30.116H227.949V40ZM229.335 34.274V31.32H231.379C232.331 31.32 232.863 31.908 232.863 32.776C232.863 33.644 232.303 34.274 231.407 34.274H229.335ZM229.335 38.796V35.422H231.547C232.583 35.422 233.255 36.108 233.255 37.116C233.255 38.124 232.625 38.796 231.561 38.796H229.335Z" fill="#404040"/>
<path d="M207.672 56.002C207.672 58.9 209.758 61.168 212.726 61.168C215.204 61.168 216.562 59.6 216.562 59.6L215.82 58.606C215.82 58.606 214.63 59.894 212.768 59.894C210.57 59.894 209.1 58.102 209.1 55.988C209.1 53.888 210.542 52.208 212.754 52.208C214.462 52.208 215.61 53.286 215.61 53.286L216.296 52.25C216.296 52.25 215.078 50.948 212.698 50.948C209.828 50.948 207.672 53.132 207.672 56.002ZM218.14 61H219.526L220.002 54.77C220.044 54.168 220.03 53.286 220.03 53.286H220.058C220.058 53.286 220.366 54.238 220.59 54.77L222.55 59.222H223.782L225.756 54.77C225.994 54.224 226.288 53.314 226.288 53.314H226.316C226.316 53.314 226.288 54.168 226.33 54.77L226.82 61H228.192L227.394 51.116H225.938L223.67 56.464C223.446 57.01 223.18 57.794 223.18 57.794H223.152C223.152 57.794 222.886 57.01 222.662 56.464L220.394 51.116H218.938L218.14 61ZM232.524 61H233.91V56.814L237.214 51.116H235.646L233.84 54.364C233.532 54.924 233.238 55.61 233.238 55.61H233.21C233.21 55.61 232.916 54.91 232.608 54.364L230.774 51.116H229.206L232.524 56.814V61ZM238.668 61H240.054V56.464H241.524L244.156 61H245.724L242.672 55.834V55.806L245.542 51.116H244.016L241.524 55.274H240.054V51.116H238.668V61Z" fill="#404040"/>
<path d="M208.344 82H209.73V77.66H214.854V82H216.24V72.116H214.854V76.456H209.73V72.116H208.344V82ZM218.926 82H224.904V80.796H220.312V77.618H223.854V76.414H220.312V73.32H224.666V72.116H218.926V82ZM225.915 82H227.469L229.261 78.962C229.583 78.416 229.849 77.828 229.849 77.828H229.877C229.877 77.828 230.185 78.402 230.507 78.962L232.299 82H233.867L230.745 76.904L233.671 72.116H232.075L230.521 74.79C230.199 75.336 229.919 75.966 229.919 75.966H229.891C229.891 75.966 229.569 75.322 229.261 74.79L227.707 72.116H226.111L229.037 76.904L225.915 82Z" fill="#404040"/>
<path d="M97.5 0L181.937 146.25H13.0625L97.5 0Z" fill="#60C4B9"/>
</svg>
