<svg width="929" height="266" viewBox="0 0 929 266" fill="none" xmlns="http://www.w3.org/2000/svg">
<rect width="266" height="266" rx="3" fill="#E5028B"/>
<path d="M290.728 89H292.51V83.942H295.228L297.91 89H299.926L297.226 84.068C296.992 83.654 296.848 83.492 296.848 83.492V83.456C298.234 83.006 299.134 81.638 299.134 80.018C299.134 78.344 298.288 77.066 296.992 76.58C296.506 76.4 295.948 76.292 294.616 76.292H290.728V89ZM292.51 82.394V77.84H294.562C295.552 77.84 295.966 77.948 296.308 78.128C296.956 78.488 297.316 79.154 297.316 80.09C297.316 81.512 296.452 82.394 295.066 82.394H292.51ZM301.413 82.628C301.413 86.516 304.239 89.216 307.659 89.216C310.179 89.216 311.565 87.668 311.565 87.668H311.601C311.601 87.668 311.583 87.938 311.583 88.208V89H313.149V82.61H309.459V84.158H311.529V85.994C311.529 85.994 310.125 87.578 307.929 87.578C305.265 87.578 303.249 85.544 303.249 82.592C303.249 79.874 305.049 77.696 308.037 77.696C310.197 77.696 311.619 78.938 311.619 78.938L312.519 77.606C312.519 77.606 310.935 76.076 307.893 76.076C304.185 76.076 301.413 78.956 301.413 82.628ZM315.935 89H320.489C322.721 89 324.575 87.776 324.575 85.382C324.575 83.96 323.819 82.7 322.487 82.304V82.268C323.459 81.764 324.071 80.774 324.071 79.532C324.071 77.48 322.523 76.292 320.381 76.292H315.935V89ZM317.717 81.638V77.84H320.345C321.569 77.84 322.253 78.596 322.253 79.712C322.253 80.828 321.533 81.638 320.381 81.638H317.717ZM317.717 87.452V83.114H320.561C321.893 83.114 322.757 83.996 322.757 85.292C322.757 86.588 321.947 87.452 320.579 87.452H317.717Z" fill="#404040"/>
<path d="M289.864 136.574C289.864 140.3 292.546 143.216 296.362 143.216C299.548 143.216 301.294 141.2 301.294 141.2L300.34 139.922C300.34 139.922 298.81 141.578 296.416 141.578C293.59 141.578 291.7 139.274 291.7 136.556C291.7 133.856 293.554 131.696 296.398 131.696C298.594 131.696 300.07 133.082 300.07 133.082L300.952 131.75C300.952 131.75 299.386 130.076 296.326 130.076C292.636 130.076 289.864 132.884 289.864 136.574ZM303.322 143H305.104L305.716 134.99C305.77 134.216 305.752 133.082 305.752 133.082H305.788C305.788 133.082 306.184 134.306 306.472 134.99L308.992 140.714H310.576L313.114 134.99C313.42 134.288 313.798 133.118 313.798 133.118H313.834C313.834 133.118 313.798 134.216 313.852 134.99L314.482 143H316.246L315.22 130.292H313.348L310.432 137.168C310.144 137.87 309.802 138.878 309.802 138.878H309.766C309.766 138.878 309.424 137.87 309.136 137.168L306.22 130.292H304.348L303.322 143ZM321.816 143H323.598V137.618L327.846 130.292H325.83L323.508 134.468C323.112 135.188 322.734 136.07 322.734 136.07H322.698C322.698 136.07 322.32 135.17 321.924 134.468L319.566 130.292H317.55L321.816 137.618V143ZM329.716 143H331.498V137.168H333.388L336.772 143H338.788L334.864 136.358V136.322L338.554 130.292H336.592L333.388 135.638H331.498V130.292H329.716V143Z" fill="#404040"/>
<path d="M290.728 189H292.51V183.42H299.098V189H300.88V176.292H299.098V181.872H292.51V176.292H290.728V189ZM304.333 189H312.019V187.452H306.115V183.366H310.669V181.818H306.115V177.84H311.713V176.292H304.333V189ZM313.32 189H315.318L317.622 185.094C318.036 184.392 318.378 183.636 318.378 183.636H318.414C318.414 183.636 318.81 184.374 319.224 185.094L321.528 189H323.544L319.53 182.448L323.292 176.292H321.24L319.242 179.73C318.828 180.432 318.468 181.242 318.468 181.242H318.432C318.432 181.242 318.018 180.414 317.622 179.73L315.624 176.292H313.572L317.334 182.448L313.32 189Z" fill="#404040"/>
<path d="M352.08 89H360.27V87.452H353.97C354.006 84.554 360.072 83.906 360.072 79.73C360.072 77.534 358.398 76.076 356.058 76.076C353.196 76.076 352.044 78.488 352.044 78.488L353.358 79.37C353.358 79.37 354.258 77.75 355.932 77.75C357.264 77.75 358.218 78.596 358.218 79.856C358.218 82.844 351.99 83.492 351.99 88.028C351.99 88.334 352.026 88.658 352.08 89ZM362.381 89H370.571V87.452H364.271C364.307 84.554 370.373 83.906 370.373 79.73C370.373 77.534 368.699 76.076 366.359 76.076C363.497 76.076 362.345 78.488 362.345 78.488L363.659 79.37C363.659 79.37 364.559 77.75 366.233 77.75C367.565 77.75 368.519 78.596 368.519 79.856C368.519 82.844 362.291 83.492 362.291 88.028C362.291 88.334 362.327 88.658 362.381 89ZM375.598 89.216C379.54 89.216 381.322 85.328 381.322 82.07C381.322 78.434 379.27 76.076 376.57 76.076C374.194 76.076 372.484 77.822 372.484 80.324C372.484 82.682 374.086 84.5 376.498 84.5C377.614 84.5 378.784 84.032 379.306 83.312H379.342C379.072 85.418 377.866 87.578 375.526 87.578C374.518 87.578 373.708 87.146 373.708 87.146L373.132 88.694C373.132 88.694 374.086 89.216 375.598 89.216ZM376.858 83.006C375.22 83.006 374.248 81.872 374.248 80.324C374.248 78.848 375.112 77.714 376.588 77.714C378.208 77.714 379.45 79.568 379.45 81.224C379.45 82.124 378.298 83.006 376.858 83.006ZM388.08 89H396.27V87.452H389.97C390.006 84.554 396.072 83.906 396.072 79.73C396.072 77.534 394.398 76.076 392.058 76.076C389.196 76.076 388.044 78.488 388.044 78.488L389.358 79.37C389.358 79.37 390.258 77.75 391.932 77.75C393.264 77.75 394.218 78.596 394.218 79.856C394.218 82.844 387.99 83.492 387.99 88.028C387.99 88.334 388.026 88.658 388.08 89ZM402.932 89H410.24V87.452H407.468V76.292H405.884L402.842 79.244L403.922 80.36L405.11 79.19C405.578 78.74 405.722 78.452 405.722 78.452H405.758C405.758 78.452 405.74 78.848 405.74 79.244V87.452H402.932V89ZM411.45 87.488C411.45 87.488 412.98 89.216 415.572 89.216C418.182 89.216 419.892 87.308 419.892 85.13C419.892 82.664 417.84 81.584 416.166 81.404L419.622 77.426V76.292H412.026V77.84H416.328C417.03 77.84 417.408 77.786 417.408 77.786V77.822C417.408 77.822 417.03 78.164 416.616 78.65L413.844 81.908L414.258 82.862H415.14C416.706 82.862 418.092 83.636 418.092 85.202C418.092 86.57 416.922 87.524 415.5 87.524C413.664 87.524 412.422 86.138 412.422 86.138L411.45 87.488ZM424.939 89.216C428.881 89.216 430.663 85.328 430.663 82.07C430.663 78.434 428.611 76.076 425.911 76.076C423.535 76.076 421.825 77.822 421.825 80.324C421.825 82.682 423.427 84.5 425.839 84.5C426.955 84.5 428.125 84.032 428.647 83.312H428.683C428.413 85.418 427.207 87.578 424.867 87.578C423.859 87.578 423.049 87.146 423.049 87.146L422.473 88.694C422.473 88.694 423.427 89.216 424.939 89.216ZM426.199 83.006C424.561 83.006 423.589 81.872 423.589 80.324C423.589 78.848 424.453 77.714 425.929 77.714C427.549 77.714 428.791 79.568 428.791 81.224C428.791 82.124 427.639 83.006 426.199 83.006Z" fill="#404040"/>
<path d="M356.616 143.216C360.018 143.216 361.116 140.3 361.116 136.628C361.116 132.974 360.018 130.076 356.616 130.076C353.232 130.076 352.134 132.974 352.134 136.628C352.134 140.3 353.232 143.216 356.616 143.216ZM356.616 141.578C354.546 141.578 353.952 139.4 353.952 136.628C353.952 133.874 354.546 131.714 356.616 131.714C358.704 131.714 359.298 133.874 359.298 136.628C359.298 139.4 358.704 141.578 356.616 141.578ZM370.869 143.216C374.811 143.216 376.593 139.328 376.593 136.07C376.593 132.434 374.541 130.076 371.841 130.076C369.465 130.076 367.755 131.822 367.755 134.324C367.755 136.682 369.357 138.5 371.769 138.5C372.885 138.5 374.055 138.032 374.577 137.312H374.613C374.343 139.418 373.137 141.578 370.797 141.578C369.789 141.578 368.979 141.146 368.979 141.146L368.403 142.694C368.403 142.694 369.357 143.216 370.869 143.216ZM372.129 137.006C370.491 137.006 369.519 135.872 369.519 134.324C369.519 132.848 370.383 131.714 371.859 131.714C373.479 131.714 374.721 133.568 374.721 135.224C374.721 136.124 373.569 137.006 372.129 137.006ZM381.644 143.216C385.586 143.216 387.368 139.328 387.368 136.07C387.368 132.434 385.316 130.076 382.616 130.076C380.24 130.076 378.53 131.822 378.53 134.324C378.53 136.682 380.132 138.5 382.544 138.5C383.66 138.5 384.83 138.032 385.352 137.312H385.388C385.118 139.418 383.912 141.578 381.572 141.578C380.564 141.578 379.754 141.146 379.754 141.146L379.178 142.694C379.178 142.694 380.132 143.216 381.644 143.216ZM382.904 137.006C381.266 137.006 380.294 135.872 380.294 134.324C380.294 132.848 381.158 131.714 382.634 131.714C384.254 131.714 385.496 133.568 385.496 135.224C385.496 136.124 384.344 137.006 382.904 137.006ZM393.767 141.488C393.767 141.488 395.297 143.216 397.889 143.216C400.499 143.216 402.209 141.308 402.209 139.13C402.209 136.664 400.157 135.584 398.483 135.404L401.939 131.426V130.292H394.343V131.84H398.645C399.347 131.84 399.725 131.786 399.725 131.786V131.822C399.725 131.822 399.347 132.164 398.933 132.65L396.161 135.908L396.575 136.862H397.457C399.023 136.862 400.409 137.636 400.409 139.202C400.409 140.57 399.239 141.524 397.817 141.524C395.981 141.524 394.739 140.138 394.739 140.138L393.767 141.488ZM407.256 143.216C411.198 143.216 412.98 139.328 412.98 136.07C412.98 132.434 410.928 130.076 408.228 130.076C405.852 130.076 404.142 131.822 404.142 134.324C404.142 136.682 405.744 138.5 408.156 138.5C409.272 138.5 410.442 138.032 410.964 137.312H411C410.73 139.418 409.524 141.578 407.184 141.578C406.176 141.578 405.366 141.146 405.366 141.146L404.79 142.694C404.79 142.694 405.744 143.216 407.256 143.216ZM408.516 137.006C406.878 137.006 405.906 135.872 405.906 134.324C405.906 132.848 406.77 131.714 408.246 131.714C409.866 131.714 411.108 133.568 411.108 135.224C411.108 136.124 409.956 137.006 408.516 137.006ZM419.666 143H426.974V141.452H424.202V130.292H422.618L419.576 133.244L420.656 134.36L421.844 133.19C422.312 132.74 422.456 132.452 422.456 132.452H422.492C422.492 132.452 422.474 132.848 422.474 133.244V141.452H419.666V143ZM433.081 143.216C436.483 143.216 437.581 140.3 437.581 136.628C437.581 132.974 436.483 130.076 433.081 130.076C429.697 130.076 428.599 132.974 428.599 136.628C428.599 140.3 429.697 143.216 433.081 143.216ZM433.081 141.578C431.011 141.578 430.417 139.4 430.417 136.628C430.417 133.874 431.011 131.714 433.081 131.714C435.169 131.714 435.763 133.874 435.763 136.628C435.763 139.4 435.169 141.578 433.081 141.578Z" fill="#404040"/>
<path d="M353.538 189H354.996L355.59 185.562H358.38L357.786 189H359.244L359.856 185.562H362.178L362.412 184.23H360.072L360.612 181.206H362.952L363.186 179.892H360.828L361.458 176.292H360L359.37 179.892H356.58L357.21 176.292H355.752L355.122 179.892H352.782L352.566 181.206H354.888L354.366 184.23H352.008L351.792 185.562H354.132L353.538 189ZM355.824 184.23L356.364 181.206H359.154L358.614 184.23H355.824ZM365.648 189H373.334V187.452H367.43V183.366H371.984V181.818H367.43V177.84H373.028V176.292H365.648V189ZM375.102 187.452C375.102 187.452 376.38 189.216 378.99 189.216C381.564 189.216 383.49 187.38 383.49 184.932C383.49 182.646 381.744 180.792 379.062 180.792C378.126 180.792 377.424 181.188 377.424 181.188H377.388C377.388 181.188 377.46 180.9 377.478 180.522L377.784 177.84H382.644V176.292H376.236L375.606 182.592L376.632 182.97C376.632 182.97 377.532 182.34 378.774 182.34C380.412 182.34 381.672 183.42 381.672 184.95C381.672 186.498 380.376 187.524 378.882 187.524C377.082 187.524 376.092 186.156 376.092 186.156L375.102 187.452ZM389.997 189.216C393.399 189.216 394.497 186.3 394.497 182.628C394.497 178.974 393.399 176.076 389.997 176.076C386.613 176.076 385.515 178.974 385.515 182.628C385.515 186.3 386.613 189.216 389.997 189.216ZM389.997 187.578C387.927 187.578 387.333 185.4 387.333 182.628C387.333 179.874 387.927 177.714 389.997 177.714C392.085 177.714 392.679 179.874 392.679 182.628C392.679 185.4 392.085 187.578 389.997 187.578ZM396.711 189H404.901V187.452H398.601C398.637 184.554 404.703 183.906 404.703 179.73C404.703 177.534 403.029 176.076 400.689 176.076C397.827 176.076 396.675 178.488 396.675 178.488L397.989 179.37C397.989 179.37 398.889 177.75 400.563 177.75C401.895 177.75 402.849 178.596 402.849 179.856C402.849 182.844 396.621 183.492 396.621 188.028C396.621 188.334 396.657 188.658 396.711 189ZM406.958 185.328C406.958 187.632 408.848 189.216 411.386 189.216C414.032 189.216 415.742 187.47 415.742 185.49C415.742 184.176 414.986 183.384 414.014 182.79C414.176 182.61 415.526 181.17 415.526 179.478C415.526 177.39 413.888 176.076 411.53 176.076C408.848 176.076 407.57 177.714 407.57 179.406C407.57 180.576 408.164 181.35 408.992 181.944C408.65 182.178 406.958 183.384 406.958 185.328ZM413.906 185.436C413.906 186.75 412.718 187.614 411.386 187.614C410.036 187.614 408.776 186.678 408.776 185.22C408.776 183.852 409.892 182.988 410.306 182.7C412.016 183.528 413.906 184.068 413.906 185.436ZM409.334 179.442C409.334 178.47 410.108 177.678 411.512 177.678C412.844 177.678 413.78 178.416 413.78 179.586C413.78 180.918 412.862 181.89 412.664 182.088C411.026 181.386 409.334 180.846 409.334 179.442ZM418.593 189H423.147C425.379 189 427.233 187.776 427.233 185.382C427.233 183.96 426.477 182.7 425.145 182.304V182.268C426.117 181.764 426.729 180.774 426.729 179.532C426.729 177.48 425.181 176.292 423.039 176.292H418.593V189ZM420.375 181.638V177.84H423.003C424.227 177.84 424.911 178.596 424.911 179.712C424.911 180.828 424.191 181.638 423.039 181.638H420.375ZM420.375 187.452V183.114H423.219C424.551 183.114 425.415 183.996 425.415 185.292C425.415 186.588 424.605 187.452 423.237 187.452H420.375Z" fill="#404040"/>
<rect x="485" width="266" height="266" rx="3" fill="#F98736"/>
<path d="M776.728 89H778.51V83.942H781.228L783.91 89H785.926L783.226 84.068C782.992 83.654 782.848 83.492 782.848 83.492V83.456C784.234 83.006 785.134 81.638 785.134 80.018C785.134 78.344 784.288 77.066 782.992 76.58C782.506 76.4 781.948 76.292 780.616 76.292H776.728V89ZM778.51 82.394V77.84H780.562C781.552 77.84 781.966 77.948 782.308 78.128C782.956 78.488 783.316 79.154 783.316 80.09C783.316 81.512 782.452 82.394 781.066 82.394H778.51ZM787.413 82.628C787.413 86.516 790.239 89.216 793.659 89.216C796.179 89.216 797.565 87.668 797.565 87.668H797.601C797.601 87.668 797.583 87.938 797.583 88.208V89H799.149V82.61H795.459V84.158H797.529V85.994C797.529 85.994 796.125 87.578 793.929 87.578C791.265 87.578 789.249 85.544 789.249 82.592C789.249 79.874 791.049 77.696 794.037 77.696C796.197 77.696 797.619 78.938 797.619 78.938L798.519 77.606C798.519 77.606 796.935 76.076 793.893 76.076C790.185 76.076 787.413 78.956 787.413 82.628ZM801.935 89H806.489C808.721 89 810.575 87.776 810.575 85.382C810.575 83.96 809.819 82.7 808.487 82.304V82.268C809.459 81.764 810.071 80.774 810.071 79.532C810.071 77.48 808.523 76.292 806.381 76.292H801.935V89ZM803.717 81.638V77.84H806.345C807.569 77.84 808.253 78.596 808.253 79.712C808.253 80.828 807.533 81.638 806.381 81.638H803.717ZM803.717 87.452V83.114H806.561C807.893 83.114 808.757 83.996 808.757 85.292C808.757 86.588 807.947 87.452 806.579 87.452H803.717Z" fill="#404040"/>
<path d="M775.864 136.574C775.864 140.3 778.546 143.216 782.362 143.216C785.548 143.216 787.294 141.2 787.294 141.2L786.34 139.922C786.34 139.922 784.81 141.578 782.416 141.578C779.59 141.578 777.7 139.274 777.7 136.556C777.7 133.856 779.554 131.696 782.398 131.696C784.594 131.696 786.07 133.082 786.07 133.082L786.952 131.75C786.952 131.75 785.386 130.076 782.326 130.076C778.636 130.076 775.864 132.884 775.864 136.574ZM789.322 143H791.104L791.716 134.99C791.77 134.216 791.752 133.082 791.752 133.082H791.788C791.788 133.082 792.184 134.306 792.472 134.99L794.992 140.714H796.576L799.114 134.99C799.42 134.288 799.798 133.118 799.798 133.118H799.834C799.834 133.118 799.798 134.216 799.852 134.99L800.482 143H802.246L801.22 130.292H799.348L796.432 137.168C796.144 137.87 795.802 138.878 795.802 138.878H795.766C795.766 138.878 795.424 137.87 795.136 137.168L792.22 130.292H790.348L789.322 143ZM807.816 143H809.598V137.618L813.846 130.292H811.83L809.508 134.468C809.112 135.188 808.734 136.07 808.734 136.07H808.698C808.698 136.07 808.32 135.17 807.924 134.468L805.566 130.292H803.55L807.816 137.618V143ZM815.716 143H817.498V137.168H819.388L822.772 143H824.788L820.864 136.358V136.322L824.554 130.292H822.592L819.388 135.638H817.498V130.292H815.716V143Z" fill="#404040"/>
<path d="M776.728 189H778.51V183.42H785.098V189H786.88V176.292H785.098V181.872H778.51V176.292H776.728V189ZM790.333 189H798.019V187.452H792.115V183.366H796.669V181.818H792.115V177.84H797.713V176.292H790.333V189ZM799.32 189H801.318L803.622 185.094C804.036 184.392 804.378 183.636 804.378 183.636H804.414C804.414 183.636 804.81 184.374 805.224 185.094L807.528 189H809.544L805.53 182.448L809.292 176.292H807.24L805.242 179.73C804.828 180.432 804.468 181.242 804.468 181.242H804.432C804.432 181.242 804.018 180.414 803.622 179.73L801.624 176.292H799.572L803.334 182.448L799.32 189Z" fill="#404040"/>
<path d="M838.08 89H846.27V87.452H839.97C840.006 84.554 846.072 83.906 846.072 79.73C846.072 77.534 844.398 76.076 842.058 76.076C839.196 76.076 838.044 78.488 838.044 78.488L839.358 79.37C839.358 79.37 840.258 77.75 841.932 77.75C843.264 77.75 844.218 78.596 844.218 79.856C844.218 82.844 837.99 83.492 837.99 88.028C837.99 88.334 838.026 88.658 838.08 89ZM847.56 85.598H853.716V89H855.462V85.598H857.19V84.086H855.462V76.292H853.428L847.56 84.482V85.598ZM849.522 84.086V84.05L853.122 79.244C853.464 78.794 853.752 78.2 853.752 78.2H853.788C853.788 78.2 853.716 78.866 853.716 79.46V84.086H849.522ZM861.914 89.216C865.856 89.216 867.638 85.328 867.638 82.07C867.638 78.434 865.586 76.076 862.886 76.076C860.51 76.076 858.8 77.822 858.8 80.324C858.8 82.682 860.402 84.5 862.814 84.5C863.93 84.5 865.1 84.032 865.622 83.312H865.658C865.388 85.418 864.182 87.578 861.842 87.578C860.834 87.578 860.024 87.146 860.024 87.146L859.448 88.694C859.448 88.694 860.402 89.216 861.914 89.216ZM863.174 83.006C861.536 83.006 860.564 81.872 860.564 80.324C860.564 78.848 861.428 77.714 862.904 77.714C864.524 77.714 865.766 79.568 865.766 81.224C865.766 82.124 864.614 83.006 863.174 83.006ZM874.324 89H881.632V87.452H878.86V76.292H877.276L874.234 79.244L875.314 80.36L876.502 79.19C876.97 78.74 877.114 78.452 877.114 78.452H877.15C877.15 78.452 877.132 78.848 877.132 79.244V87.452H874.324V89ZM882.843 87.488C882.843 87.488 884.373 89.216 886.965 89.216C889.575 89.216 891.285 87.308 891.285 85.13C891.285 82.664 889.233 81.584 887.559 81.404L891.015 77.426V76.292H883.419V77.84H887.721C888.423 77.84 888.801 77.786 888.801 77.786V77.822C888.801 77.822 888.423 78.164 888.009 78.65L885.237 81.908L885.651 82.862H886.533C888.099 82.862 889.485 83.636 889.485 85.202C889.485 86.57 888.315 87.524 886.893 87.524C885.057 87.524 883.815 86.138 883.815 86.138L882.843 87.488ZM893.2 87.452C893.2 87.452 894.478 89.216 897.088 89.216C899.662 89.216 901.588 87.38 901.588 84.932C901.588 82.646 899.842 80.792 897.16 80.792C896.224 80.792 895.522 81.188 895.522 81.188H895.486C895.486 81.188 895.558 80.9 895.576 80.522L895.882 77.84H900.742V76.292H894.334L893.704 82.592L894.73 82.97C894.73 82.97 895.63 82.34 896.872 82.34C898.51 82.34 899.77 83.42 899.77 84.95C899.77 86.498 898.474 87.524 896.98 87.524C895.18 87.524 894.19 86.156 894.19 86.156L893.2 87.452ZM907.966 87.452C907.966 87.452 909.244 89.216 911.854 89.216C914.428 89.216 916.354 87.38 916.354 84.932C916.354 82.646 914.608 80.792 911.926 80.792C910.99 80.792 910.288 81.188 910.288 81.188H910.252C910.252 81.188 910.324 80.9 910.342 80.522L910.648 77.84H915.508V76.292H909.1L908.47 82.592L909.496 82.97C909.496 82.97 910.396 82.34 911.638 82.34C913.276 82.34 914.536 83.42 914.536 84.95C914.536 86.498 913.24 87.524 911.746 87.524C909.946 87.524 908.956 86.156 908.956 86.156L907.966 87.452ZM917.802 85.598H923.958V89H925.704V85.598H927.432V84.086H925.704V76.292H923.67L917.802 84.482V85.598ZM919.764 84.086V84.05L923.364 79.244C923.706 78.794 923.994 78.2 923.994 78.2H924.03C924.03 78.2 923.958 78.866 923.958 79.46V84.086H919.764Z" fill="#404040"/>
<path d="M842.616 143.216C846.018 143.216 847.116 140.3 847.116 136.628C847.116 132.974 846.018 130.076 842.616 130.076C839.232 130.076 838.134 132.974 838.134 136.628C838.134 140.3 839.232 143.216 842.616 143.216ZM842.616 141.578C840.546 141.578 839.952 139.4 839.952 136.628C839.952 133.874 840.546 131.714 842.616 131.714C844.704 131.714 845.298 133.874 845.298 136.628C845.298 139.4 844.704 141.578 842.616 141.578ZM853.431 139.598H859.587V143H861.333V139.598H863.061V138.086H861.333V130.292H859.299L853.431 138.482V139.598ZM855.393 138.086V138.05L858.993 133.244C859.335 132.794 859.623 132.2 859.623 132.2H859.659C859.659 132.2 859.587 132.866 859.587 133.46V138.086H855.393ZM869.603 143.216C871.979 143.216 873.689 141.47 873.689 138.968C873.689 136.61 872.087 134.774 869.675 134.774C868.559 134.774 867.407 135.26 866.867 135.98H866.831C867.101 133.874 868.307 131.714 870.647 131.714C871.655 131.714 872.465 132.128 872.465 132.128L873.041 130.598C873.041 130.598 872.069 130.076 870.575 130.076C866.633 130.076 864.851 133.964 864.851 137.222C864.851 140.84 866.885 143.216 869.603 143.216ZM869.585 141.578C867.965 141.578 866.723 139.724 866.723 138.068C866.723 137.15 867.875 136.286 869.315 136.286C870.935 136.286 871.925 137.42 871.925 138.968C871.925 140.444 871.043 141.578 869.585 141.578ZM880.736 143H882.572L888.314 131.516V130.292H879.818V131.84H885.488C886.136 131.84 886.424 131.786 886.424 131.786V131.822C886.424 131.822 886.046 132.272 885.686 132.992L880.736 143ZM889.741 139.328C889.741 141.632 891.631 143.216 894.169 143.216C896.815 143.216 898.525 141.47 898.525 139.49C898.525 138.176 897.769 137.384 896.797 136.79C896.959 136.61 898.309 135.17 898.309 133.478C898.309 131.39 896.671 130.076 894.313 130.076C891.631 130.076 890.353 131.714 890.353 133.406C890.353 134.576 890.947 135.35 891.775 135.944C891.433 136.178 889.741 137.384 889.741 139.328ZM896.689 139.436C896.689 140.75 895.501 141.614 894.169 141.614C892.819 141.614 891.559 140.678 891.559 139.22C891.559 137.852 892.675 136.988 893.089 136.7C894.799 137.528 896.689 138.068 896.689 139.436ZM892.117 133.442C892.117 132.47 892.891 131.678 894.295 131.678C895.627 131.678 896.563 132.416 896.563 133.586C896.563 134.918 895.645 135.89 895.447 136.088C893.809 135.386 892.117 134.846 892.117 133.442ZM905.351 143H913.541V141.452H907.241C907.277 138.554 913.343 137.906 913.343 133.73C913.343 131.534 911.669 130.076 909.329 130.076C906.467 130.076 905.315 132.488 905.315 132.488L906.629 133.37C906.629 133.37 907.529 131.75 909.203 131.75C910.535 131.75 911.489 132.596 911.489 133.856C911.489 136.844 905.261 137.492 905.261 142.028C905.261 142.334 905.297 142.658 905.351 143Z" fill="#404040"/>
<path d="M839.538 189H840.996L841.59 185.562H844.38L843.786 189H845.244L845.856 185.562H848.178L848.412 184.23H846.072L846.612 181.206H848.952L849.186 179.892H846.828L847.458 176.292H846L845.37 179.892H842.58L843.21 176.292H841.752L841.122 179.892H838.782L838.566 181.206H840.888L840.366 184.23H838.008L837.792 185.562H840.132L839.538 189ZM841.824 184.23L842.364 181.206H845.154L844.614 184.23H841.824ZM851.648 189H853.43V183.564H857.876V182.016H853.43V177.84H858.65V176.292H851.648V189ZM863.303 189.216C867.245 189.216 869.027 185.328 869.027 182.07C869.027 178.434 866.975 176.076 864.275 176.076C861.899 176.076 860.189 177.822 860.189 180.324C860.189 182.682 861.791 184.5 864.203 184.5C865.319 184.5 866.489 184.032 867.011 183.312H867.047C866.777 185.418 865.571 187.578 863.231 187.578C862.223 187.578 861.413 187.146 861.413 187.146L860.837 188.694C860.837 188.694 861.791 189.216 863.303 189.216ZM864.563 183.006C862.925 183.006 861.953 181.872 861.953 180.324C861.953 178.848 862.817 177.714 864.293 177.714C865.913 177.714 867.155 179.568 867.155 181.224C867.155 182.124 866.003 183.006 864.563 183.006ZM871.108 185.328C871.108 187.632 872.998 189.216 875.536 189.216C878.182 189.216 879.892 187.47 879.892 185.49C879.892 184.176 879.136 183.384 878.164 182.79C878.326 182.61 879.676 181.17 879.676 179.478C879.676 177.39 878.038 176.076 875.68 176.076C872.998 176.076 871.72 177.714 871.72 179.406C871.72 180.576 872.314 181.35 873.142 181.944C872.8 182.178 871.108 183.384 871.108 185.328ZM878.056 185.436C878.056 186.75 876.868 187.614 875.536 187.614C874.186 187.614 872.926 186.678 872.926 185.22C872.926 183.852 874.042 182.988 874.456 182.7C876.166 183.528 878.056 184.068 878.056 185.436ZM873.484 179.442C873.484 178.47 874.258 177.678 875.662 177.678C876.994 177.678 877.93 178.416 877.93 179.586C877.93 180.918 877.012 181.89 876.814 182.088C875.176 181.386 873.484 180.846 873.484 179.442ZM882.564 189H884.4L890.142 177.516V176.292H881.646V177.84H887.316C887.964 177.84 888.252 177.786 888.252 177.786V177.822C888.252 177.822 887.874 178.272 887.514 178.992L882.564 189ZM891.263 187.488C891.263 187.488 892.793 189.216 895.385 189.216C897.995 189.216 899.705 187.308 899.705 185.13C899.705 182.664 897.653 181.584 895.979 181.404L899.435 177.426V176.292H891.839V177.84H896.141C896.843 177.84 897.221 177.786 897.221 177.786V177.822C897.221 177.822 896.843 178.164 896.429 178.65L893.657 181.908L894.071 182.862H894.953C896.519 182.862 897.905 183.636 897.905 185.202C897.905 186.57 896.735 187.524 895.313 187.524C893.477 187.524 892.235 186.138 892.235 186.138L891.263 187.488ZM906.57 189.216C908.946 189.216 910.656 187.47 910.656 184.968C910.656 182.61 909.054 180.774 906.642 180.774C905.526 180.774 904.374 181.26 903.834 181.98H903.798C904.068 179.874 905.274 177.714 907.614 177.714C908.622 177.714 909.432 178.128 909.432 178.128L910.008 176.598C910.008 176.598 909.036 176.076 907.542 176.076C903.6 176.076 901.818 179.964 901.818 183.222C901.818 186.84 903.852 189.216 906.57 189.216ZM906.552 187.578C904.932 187.578 903.69 185.724 903.69 184.068C903.69 183.15 904.842 182.286 906.282 182.286C907.902 182.286 908.892 183.42 908.892 184.968C908.892 186.444 908.01 187.578 906.552 187.578Z" fill="#404040"/>
</svg>
