<svg width="171" height="86" viewBox="0 0 171 86" fill="none" xmlns="http://www.w3.org/2000/svg">
<g clip-path="url(#clip0_2877_1018)">
<path d="M68.5658 78.3906H71.6258V80.0906H71.9913V78.3906H72.8753V78.0506H71.9913V74.1406H71.6513L68.5658 78.1356V78.3906ZM69.0758 78.0506V78.0336L71.3368 75.1351C71.4898 74.9396 71.6343 74.7271 71.6343 74.7271H71.6513C71.6513 74.7271 71.6258 75.0246 71.6258 75.2626V78.0506H69.0758ZM73.7583 79.3341C73.7583 79.3341 74.2768 80.1926 75.4328 80.1926C76.5548 80.1926 77.4643 79.3511 77.4643 78.2801C77.4643 77.2091 76.5718 76.3506 75.4328 76.3506C74.8293 76.3506 74.4128 76.6226 74.4128 76.6226H74.3958C74.3958 76.6226 74.4298 76.4866 74.4553 76.2571L74.6678 74.4806H77.1073V74.1406H74.3448L74.0048 76.9711L74.2768 77.0646C74.2768 77.0646 74.7528 76.7076 75.4328 76.7076C76.3593 76.7076 77.0818 77.3791 77.0818 78.2801C77.0818 79.1726 76.3593 79.8356 75.4328 79.8356C74.4638 79.8356 74.0558 79.1046 74.0558 79.1046L73.7583 79.3341ZM78.7114 80.0906H79.0684V78.0166C79.0684 77.8126 79.0854 77.6171 79.1364 77.4386C79.3319 76.7331 79.9269 76.0701 80.6834 76.0701C81.6184 76.0701 81.7204 76.7926 81.7204 77.5236V80.0906H82.0774V78.0166C82.0774 77.7701 82.1029 77.5576 82.1624 77.3621C82.3494 76.6991 82.9529 76.0701 83.6584 76.0701C84.5594 76.0701 84.7209 76.7246 84.7209 77.5236V80.0906H85.0779V77.3961C85.0779 76.3846 84.7549 75.7386 83.6584 75.7386C82.9274 75.7386 82.2814 76.2996 82.0434 76.8946H82.0264C81.9329 76.1381 81.5334 75.7386 80.6834 75.7386C80.0204 75.7386 79.2639 76.2996 79.0514 76.9371H79.0344C79.0344 76.9371 79.0684 76.7841 79.0684 76.5886V75.8406H78.7114V80.0906ZM86.5141 80.0906H86.8711V78.0166C86.8711 77.8126 86.8881 77.6171 86.9391 77.4386C87.1346 76.7331 87.7296 76.0701 88.4861 76.0701C89.4211 76.0701 89.5231 76.7926 89.5231 77.5236V80.0906H89.8801V78.0166C89.8801 77.7701 89.9056 77.5576 89.9651 77.3621C90.1521 76.6991 90.7556 76.0701 91.4611 76.0701C92.3621 76.0701 92.5236 76.7246 92.5236 77.5236V80.0906H92.8806V77.3961C92.8806 76.3846 92.5576 75.7386 91.4611 75.7386C90.7301 75.7386 90.0841 76.2996 89.8461 76.8946H89.8291C89.7356 76.1381 89.3361 75.7386 88.4861 75.7386C87.8231 75.7386 87.0666 76.2996 86.8541 76.9371H86.8371C86.8371 76.9371 86.8711 76.7841 86.8711 76.5886V75.8406H86.5141V80.0906Z" fill="#6D6E71"/>
<path d="M169.577 66.4043H0.503906" stroke="#EC008C" stroke-width="0.5" stroke-dasharray="2.03 2.03"/>
<path d="M59.4198 16.5383C63.4121 16.5383 65.3906 18.8631 65.3906 18.8631L63.9456 20.9829C62.7663 19.8354 61.1923 19.183 59.547 19.1599C56.3425 19.1599 54.0142 21.5482 54.0142 24.8127C54.0142 28.0773 56.3425 30.5292 59.6388 30.5292C62.5925 30.5292 64.5427 28.4094 64.5427 28.4094L65.7687 30.6387C65.7687 30.6387 63.5676 33.1825 59.4092 33.1825C54.4134 33.1825 50.8945 29.6495 50.8945 24.8587C50.9051 20.1385 54.4099 16.5383 59.4198 16.5383Z" fill="#808285"/>
<path d="M76.0118 16.5383C80.7567 16.5383 84.5901 20.0255 84.5901 24.8339C84.5901 29.6424 80.7567 33.1896 76.0118 33.1896C71.267 33.1896 67.4336 29.6565 67.4336 24.8339C67.4336 20.0113 71.267 16.5383 76.0118 16.5383ZM76.0118 30.5504C79.0291 30.5504 81.4775 28.1621 81.4775 24.8339C81.4775 21.5058 79.0291 19.1811 76.0118 19.1811C72.9946 19.1811 70.5427 21.5376 70.5427 24.8339C70.5427 28.1303 73.0264 30.5504 76.0118 30.5504Z" fill="#808285"/>
<path d="M87.5645 16.9165H90.5075V19.6793C90.5075 20.0782 90.4874 20.4767 90.4474 20.8735H90.5075C91.2318 18.5488 93.0866 16.7292 95.535 16.7292C95.7987 16.731 96.062 16.751 96.3229 16.7893V19.8065C96.0336 19.745 95.7389 19.713 95.4432 19.7111C93.4929 19.7111 91.7017 21.0961 90.9809 23.4526C90.7126 24.3811 90.5851 25.3446 90.6029 26.3109V32.8152H87.5645V16.9165Z" fill="#808285"/>
<path d="M105.467 16.5383C109.957 16.5383 112.345 19.87 112.345 23.986C112.345 24.3923 112.254 25.3038 112.254 25.3038H100.658C100.814 28.791 103.297 30.5504 106.124 30.5504C108.858 30.5504 110.837 28.6991 110.837 28.6991L112.095 30.9284C110.377 32.3922 108.193 33.1941 105.936 33.1896C100.941 33.1896 97.5137 29.5788 97.5137 24.8657C97.5137 19.8064 100.941 16.5383 105.467 16.5383ZM109.236 23.0109C109.141 20.2763 107.445 18.9585 105.403 18.9585C103.078 18.9585 101.192 20.4035 100.753 23.0109H109.236Z" fill="#808285"/>
<path d="M115.426 16.9164H118.22V18.266C118.22 18.8949 118.16 19.4284 118.16 19.4284H118.22C118.22 19.4284 119.574 16.5383 123.562 16.5383C127.837 16.5383 130.54 19.9336 130.54 24.8657C130.54 29.9251 127.491 33.1896 123.343 33.1896C122.374 33.2199 121.415 32.9949 120.56 32.5373C119.706 32.0797 118.987 31.4054 118.475 30.5822H118.411C118.456 31.0425 118.477 31.5047 118.475 31.9672V39.0933H115.426V16.9164ZM122.873 30.5822C125.385 30.5822 127.466 28.5083 127.466 24.8975C127.466 21.4387 125.612 19.2093 122.972 19.2093C120.584 19.2093 118.379 20.8734 118.379 24.9293C118.379 27.7558 119.948 30.5822 122.873 30.5822Z" fill="#58595B"/>
<path d="M133.461 10.6311H136.506V27.9431C136.506 29.8615 137.263 30.2077 138.202 30.2077C138.382 30.2072 138.561 30.1966 138.739 30.1759V32.8752C138.405 32.9163 138.069 32.9375 137.732 32.9388C136.005 32.9388 133.461 32.4689 133.461 28.4765V10.6311Z" fill="#58595B"/>
<path d="M141.129 16.9163H144.174V26.406C144.174 28.6036 144.616 30.3631 147.16 30.3631C150.396 30.3631 152.315 27.5048 152.315 24.3569V16.9163H155.36V32.815H152.406V30.6952C152.406 30.3068 152.427 29.9187 152.47 29.5328H152.406C151.881 30.6336 151.051 31.5613 150.016 32.2067C148.981 32.852 147.783 33.1881 146.563 33.1754C142.98 33.1754 141.129 31.2922 141.129 27.0808V16.9163Z" fill="#58595B"/>
<path d="M159.696 28.6991C160.931 29.8604 162.554 30.5203 164.25 30.5504C165.571 30.5504 166.889 29.8438 166.889 28.5719C166.889 25.6501 158.72 26.2472 158.72 21.0642C158.72 18.1741 161.296 16.5383 164.469 16.5383C167.959 16.5383 169.592 18.3049 169.592 18.3049L168.366 20.5978C167.277 19.6575 165.879 19.154 164.44 19.1846C163.119 19.1846 161.83 19.7499 161.83 21.1348C161.83 23.9931 170.001 23.3642 170.001 28.579C170.001 31.2182 167.737 33.1967 164.25 33.1967C162.013 33.2407 159.847 32.4061 158.219 30.8719L159.696 28.6991Z" fill="#58595B"/>
<path d="M117.234 45.8611C117.956 45.8611 118.551 45.2497 118.551 44.2064C118.551 43.1631 118.02 42.5602 117.268 42.5602C116.584 42.5602 115.942 43.0519 115.942 44.2149C115.942 45.0401 116.4 45.8611 117.246 45.8611H117.234ZM115.412 42.154H115.942V42.5516C115.948 42.6584 115.948 42.7655 115.942 42.8723C116.072 42.6126 116.276 42.3968 116.527 42.2516C116.779 42.1064 117.068 42.0383 117.358 42.0556C118.461 42.0556 119.145 42.9364 119.145 44.1935C119.145 45.4506 118.371 46.3314 117.311 46.3314C117.036 46.3394 116.765 46.2703 116.528 46.132C116.29 45.9937 116.096 45.7917 115.968 45.549C115.974 45.6686 115.974 45.7885 115.968 45.9081V47.875H115.412V42.154Z" fill="#808285"/>
<path d="M120.189 42.154H120.736V42.8809C120.742 42.9891 120.742 43.0976 120.736 43.2058C120.801 42.9088 120.962 42.6412 121.193 42.4443C121.425 42.2473 121.715 42.1318 122.019 42.1155C122.092 42.1164 122.165 42.1235 122.237 42.1369V42.6842C122.168 42.679 122.1 42.679 122.031 42.6842C121.745 42.7068 121.473 42.8228 121.259 43.0143C121.044 43.2058 120.898 43.4622 120.843 43.7446C120.766 44.0041 120.729 44.2736 120.732 44.5441V46.2545H120.176L120.189 42.154Z" fill="#808285"/>
<path d="M124.238 45.8779C125.021 45.8779 125.491 45.0613 125.491 44.3558V44.1762H125.247C124.602 44.1762 123.315 44.1976 123.315 45.104C123.32 45.2164 123.348 45.3266 123.398 45.4276C123.447 45.5286 123.517 45.6182 123.603 45.6909C123.689 45.7635 123.789 45.8177 123.897 45.8499C124.005 45.882 124.118 45.8916 124.23 45.8779H124.238ZM125.256 43.7187H125.483V43.5989C125.506 43.4582 125.495 43.3141 125.453 43.178C125.411 43.0419 125.337 42.9175 125.239 42.8147C125.14 42.7118 125.019 42.6333 124.884 42.5854C124.75 42.5375 124.606 42.5214 124.465 42.5385C124.048 42.5449 123.644 42.6826 123.311 42.9319L123.05 42.5043C123.47 42.1898 123.983 42.0257 124.508 42.0383C125.491 42.0383 126.038 42.5856 126.038 43.6118V46.2371H125.508V45.7881C125.502 45.6742 125.502 45.56 125.508 45.4461C125.392 45.7114 125.2 45.9367 124.957 46.094C124.714 46.2513 124.43 46.3338 124.14 46.3312C123.456 46.3312 122.746 45.9335 122.746 45.1211C122.746 43.7358 124.546 43.7016 125.256 43.7016" fill="#808285"/>
<path d="M129.189 42.0555C129.466 42.0456 129.742 42.0925 130 42.1932C130.258 42.294 130.493 42.4464 130.689 42.6413L130.403 43.0689C130.084 42.7536 129.655 42.5743 129.206 42.5686C128.991 42.5649 128.777 42.6052 128.578 42.6873C128.38 42.7693 128.2 42.8912 128.05 43.0455C127.9 43.1997 127.783 43.3831 127.707 43.5842C127.631 43.7853 127.597 43.9999 127.607 44.2148C127.599 44.4305 127.635 44.6454 127.714 44.8466C127.792 45.0478 127.91 45.2309 128.061 45.3849C128.212 45.5389 128.393 45.6606 128.593 45.7424C128.793 45.8242 129.007 45.8646 129.223 45.861C129.469 45.8592 129.712 45.8071 129.937 45.7078C130.162 45.6086 130.364 45.4642 130.531 45.2837L130.784 45.7113C130.575 45.9207 130.326 46.0855 130.052 46.1958C129.778 46.306 129.484 46.3594 129.189 46.3527C128.622 46.3527 128.078 46.1274 127.677 45.7265C127.276 45.3256 127.051 44.7818 127.051 44.2148C127.051 43.6478 127.276 43.104 127.677 42.703C128.078 42.3021 128.622 42.0769 129.189 42.0769" fill="#808285"/>
<path d="M131.951 42.6671H131.412V42.2053H131.959V41.0337H132.515V42.2181H133.541V42.6799H132.515V44.7194C132.515 45.6772 133.127 45.8012 133.435 45.8012C133.497 45.8078 133.56 45.8078 133.623 45.8012V46.2972C133.544 46.3039 133.466 46.3039 133.388 46.2972C132.917 46.2972 131.964 46.1433 131.964 44.775L131.951 42.6671Z" fill="#808285"/>
<path d="M134.525 42.154H135.081V46.2502H134.525V42.154ZM134.525 40.5249H135.081V41.2176H134.504L134.525 40.5249Z" fill="#808285"/>
<path d="M138.28 42.0555C138.557 42.0456 138.833 42.0925 139.091 42.1932C139.349 42.294 139.583 42.4464 139.78 42.6413L139.494 43.0689C139.175 42.7536 138.745 42.5743 138.297 42.5686C137.86 42.5686 137.441 42.742 137.133 43.0507C136.824 43.3595 136.651 43.7782 136.651 44.2148C136.651 44.6514 136.824 45.0701 137.133 45.3788C137.441 45.6875 137.86 45.861 138.297 45.861C138.543 45.8596 138.787 45.8076 139.013 45.7083C139.239 45.6091 139.442 45.4646 139.609 45.2837L139.862 45.7113C139.653 45.9207 139.404 46.0855 139.13 46.1958C138.856 46.306 138.562 46.3594 138.267 46.3527C137.7 46.3527 137.156 46.1274 136.755 45.7265C136.354 45.3256 136.129 44.7818 136.129 44.2148C136.129 43.6478 136.354 43.104 136.755 42.703C137.156 42.3021 137.7 42.0769 138.267 42.0769" fill="#808285"/>
<path d="M143.769 43.7743C143.735 42.9191 143.213 42.5215 142.602 42.5215C142.252 42.5145 141.913 42.6397 141.653 42.872C141.392 43.1043 141.228 43.4266 141.195 43.7743H143.769ZM142.619 42.064C143.752 42.064 144.329 42.9191 144.329 43.9539C144.329 44.0522 144.329 44.2403 144.329 44.2403H141.186C141.176 44.4535 141.209 44.6665 141.285 44.866C141.361 45.0654 141.477 45.2471 141.626 45.3993C141.776 45.5516 141.955 45.6713 142.153 45.7507C142.351 45.8301 142.564 45.8677 142.777 45.8609C143.238 45.8518 143.68 45.6756 144.021 45.3649L144.273 45.7925C143.852 46.1553 143.316 46.3568 142.76 46.3612C142.476 46.3707 142.194 46.3219 141.93 46.2178C141.667 46.1138 141.427 45.9566 141.227 45.7562C141.026 45.5557 140.869 45.3162 140.765 45.0525C140.661 44.7888 140.612 44.5066 140.622 44.2232C140.603 43.9477 140.641 43.6713 140.734 43.4113C140.828 43.1514 140.974 42.9135 141.163 42.7127C141.353 42.5118 141.582 42.3524 141.836 42.2445C142.09 42.1365 142.364 42.0823 142.64 42.0853" fill="#808285"/>
<path d="M147.58 40.5249H148.136V42.744C148.142 42.8551 148.142 42.9665 148.136 43.0776C148.279 42.7681 148.51 42.5072 148.799 42.3265C149.088 42.1458 149.424 42.0532 149.765 42.0599C150.774 42.0599 151.133 42.6414 151.133 43.6505V46.2588H150.577V43.7959C150.577 43.1545 150.483 42.5816 149.692 42.5816C149.35 42.5855 149.018 42.7019 148.749 42.9129C148.479 43.1238 148.286 43.4176 148.2 43.7489C148.152 43.9257 148.13 44.1087 148.136 44.2919V46.2588H147.58V40.5249Z" fill="#808285"/>
<path d="M153.556 45.8781C154.338 45.8781 154.813 45.0614 154.813 44.3559V44.1763H154.578C153.932 44.1763 152.645 44.1977 152.645 45.1042C152.65 45.2162 152.678 45.3259 152.727 45.4266C152.777 45.5273 152.846 45.6167 152.932 45.6893C153.017 45.7619 153.117 45.8161 153.224 45.8486C153.331 45.8811 153.444 45.8911 153.556 45.8781ZM154.582 43.7188H154.813V43.5991C154.836 43.4584 154.825 43.3143 154.783 43.1782C154.741 43.0421 154.667 42.9177 154.569 42.8148C154.47 42.712 154.349 42.6335 154.214 42.5855C154.08 42.5376 153.937 42.5216 153.795 42.5387C153.377 42.5456 152.972 42.6832 152.636 42.9321L152.375 42.5045C152.796 42.1909 153.309 42.0268 153.834 42.0384C154.821 42.0384 155.364 42.5857 155.364 43.6119V46.2373H154.838V45.7883C154.838 45.5831 154.838 45.4462 154.838 45.4462C154.722 45.7122 154.529 45.9379 154.285 46.0953C154.041 46.2527 153.756 46.3348 153.466 46.3313C152.782 46.3313 152.076 45.9337 152.076 45.1213C152.076 43.7359 153.876 43.7017 154.582 43.7017" fill="#808285"/>
<path d="M158.486 45.8609C159.213 45.8609 159.808 45.2495 159.808 44.2062C159.808 43.1629 159.277 42.56 158.525 42.56C157.841 42.56 157.195 43.0517 157.195 44.2148C157.195 45.04 157.653 45.8609 158.499 45.8609H158.486ZM156.656 42.1538H157.186V42.5515C157.192 42.6583 157.192 42.7653 157.186 42.8722C157.317 42.6121 157.521 42.3961 157.774 42.2509C158.026 42.1058 158.315 42.0378 158.606 42.0555C159.705 42.0555 160.389 42.9363 160.389 44.1934C160.389 45.4505 159.615 46.3313 158.555 46.3313C158.28 46.3382 158.01 46.2687 157.772 46.1305C157.535 45.9923 157.341 45.7909 157.212 45.5488C157.218 45.6685 157.218 45.7883 157.212 45.908V47.8748H156.656V42.1538Z" fill="#808285"/>
<path d="M163.301 45.8609C164.023 45.8609 164.622 45.2495 164.622 44.2062C164.622 43.1629 164.092 42.56 163.339 42.56C162.655 42.56 162.009 43.0517 162.009 44.2148C162.009 45.04 162.467 45.8609 163.292 45.8609H163.301ZM161.449 42.1538H161.979V42.5515C161.985 42.6583 161.985 42.7653 161.979 42.8722C162.11 42.6121 162.314 42.3961 162.567 42.2509C162.819 42.1058 163.108 42.0378 163.399 42.0555C164.498 42.0555 165.182 42.9363 165.182 44.1934C165.182 45.4505 164.408 46.3313 163.348 46.3313C163.077 46.3375 162.81 46.2694 162.576 46.1345C162.341 45.9995 162.148 45.8029 162.018 45.5659C162.024 45.6856 162.024 45.8054 162.018 45.9251V47.8748H161.462L161.449 42.1538Z" fill="#808285"/>
<path d="M165.84 47.2805C165.981 47.3893 166.15 47.4534 166.328 47.4644C166.687 47.4644 166.939 47.1736 167.102 46.7973L167.354 46.2201L165.644 42.1538H166.255L167.461 45.1469C167.542 45.3521 167.606 45.5745 167.606 45.5745C167.646 45.4296 167.693 45.2869 167.747 45.1469L168.927 42.1538H169.53L167.508 47.1095C167.424 47.3569 167.266 47.5723 167.054 47.7255C166.843 47.8788 166.589 47.9624 166.328 47.9646C166.068 47.9616 165.817 47.8762 165.609 47.7209L165.84 47.2805Z" fill="#808285"/>
<path d="M44.9517 16.6797H28.6113L37.9739 32.8893L44.9517 16.6797Z" fill="url(#paint0_linear_2877_1018)"/>
<path d="M37.9738 32.8928V12.5354L28.4805 16.4536L37.9738 32.8928Z" fill="#FDC17B"/>
<path d="M28.4796 16.4463L37.9729 32.8926H18.9863L28.4796 16.4463Z" fill="#F68A33"/>
<path d="M18.9914 0.00366211L28.4811 16.443H9.49805L18.9914 0.00366211Z" fill="#FFCB3B"/>
<path d="M9.49414 16.4429H28.4843L18.9874 32.8928L9.49414 16.4429Z" fill="#E4018B"/>
<path d="M10.2509 17.7432L10.2461 17.7479V17.7432H10.2509Z" fill="#E51E25"/>
<path d="M18.9901 0L9.49684 16.4428L0 0H18.9901Z" fill="#FFF68F"/>
<path d="M14.9059 25.8196L18.9866 32.8822H0L9.49331 16.4429L14.9059 25.8196Z" fill="#60C5BA"/>
<path d="M0 32.8821H18.9866L9.49331 49.3214L0 32.8821Z" fill="#B0DFE3"/>
</g>
<defs>
<linearGradient id="paint0_linear_2877_1018" x1="1568.36" y1="1153.79" x2="2132.93" y2="825.343" gradientUnits="userSpaceOnUse">
<stop offset="0.24" stop-color="#BCBEC0"/>
<stop offset="1" stop-color="#E6E7E8"/>
</linearGradient>
<clipPath id="clip0_2877_1018">
<rect width="170.08" height="85.716" fill="white"/>
</clipPath>
</defs>
</svg>
