<svg width="931" height="266" viewBox="0 0 931 266" fill="none" xmlns="http://www.w3.org/2000/svg">
<rect width="266" height="266" rx="3" fill="#404040"/>
<path d="M291.728 89H293.51V83.942H296.228L298.91 89H300.926L298.226 84.068C297.992 83.654 297.848 83.492 297.848 83.492V83.456C299.234 83.006 300.134 81.638 300.134 80.018C300.134 78.344 299.288 77.066 297.992 76.58C297.506 76.4 296.948 76.292 295.616 76.292H291.728V89ZM293.51 82.394V77.84H295.562C296.552 77.84 296.966 77.948 297.308 78.128C297.956 78.488 298.316 79.154 298.316 80.09C298.316 81.512 297.452 82.394 296.066 82.394H293.51ZM302.413 82.628C302.413 86.516 305.239 89.216 308.659 89.216C311.179 89.216 312.565 87.668 312.565 87.668H312.601C312.601 87.668 312.583 87.938 312.583 88.208V89H314.149V82.61H310.459V84.158H312.529V85.994C312.529 85.994 311.125 87.578 308.929 87.578C306.265 87.578 304.249 85.544 304.249 82.592C304.249 79.874 306.049 77.696 309.037 77.696C311.197 77.696 312.619 78.938 312.619 78.938L313.519 77.606C313.519 77.606 311.935 76.076 308.893 76.076C305.185 76.076 302.413 78.956 302.413 82.628ZM316.935 89H321.489C323.721 89 325.575 87.776 325.575 85.382C325.575 83.96 324.819 82.7 323.487 82.304V82.268C324.459 81.764 325.071 80.774 325.071 79.532C325.071 77.48 323.523 76.292 321.381 76.292H316.935V89ZM318.717 81.638V77.84H321.345C322.569 77.84 323.253 78.596 323.253 79.712C323.253 80.828 322.533 81.638 321.381 81.638H318.717ZM318.717 87.452V83.114H321.561C322.893 83.114 323.757 83.996 323.757 85.292C323.757 86.588 322.947 87.452 321.579 87.452H318.717Z" fill="#404040"/>
<path d="M290.864 136.574C290.864 140.3 293.546 143.216 297.362 143.216C300.548 143.216 302.294 141.2 302.294 141.2L301.34 139.922C301.34 139.922 299.81 141.578 297.416 141.578C294.59 141.578 292.7 139.274 292.7 136.556C292.7 133.856 294.554 131.696 297.398 131.696C299.594 131.696 301.07 133.082 301.07 133.082L301.952 131.75C301.952 131.75 300.386 130.076 297.326 130.076C293.636 130.076 290.864 132.884 290.864 136.574ZM304.322 143H306.104L306.716 134.99C306.77 134.216 306.752 133.082 306.752 133.082H306.788C306.788 133.082 307.184 134.306 307.472 134.99L309.992 140.714H311.576L314.114 134.99C314.42 134.288 314.798 133.118 314.798 133.118H314.834C314.834 133.118 314.798 134.216 314.852 134.99L315.482 143H317.246L316.22 130.292H314.348L311.432 137.168C311.144 137.87 310.802 138.878 310.802 138.878H310.766C310.766 138.878 310.424 137.87 310.136 137.168L307.22 130.292H305.348L304.322 143ZM322.816 143H324.598V137.618L328.846 130.292H326.83L324.508 134.468C324.112 135.188 323.734 136.07 323.734 136.07H323.698C323.698 136.07 323.32 135.17 322.924 134.468L320.566 130.292H318.55L322.816 137.618V143ZM330.716 143H332.498V137.168H334.388L337.772 143H339.788L335.864 136.358V136.322L339.554 130.292H337.592L334.388 135.638H332.498V130.292H330.716V143Z" fill="#404040"/>
<path d="M291.728 189H293.51V183.42H300.098V189H301.88V176.292H300.098V181.872H293.51V176.292H291.728V189ZM305.333 189H313.019V187.452H307.115V183.366H311.669V181.818H307.115V177.84H312.713V176.292H305.333V189ZM314.32 189H316.318L318.622 185.094C319.036 184.392 319.378 183.636 319.378 183.636H319.414C319.414 183.636 319.81 184.374 320.224 185.094L322.528 189H324.544L320.53 182.448L324.292 176.292H322.24L320.242 179.73C319.828 180.432 319.468 181.242 319.468 181.242H319.432C319.432 181.242 319.018 180.414 318.622 179.73L316.624 176.292H314.572L318.334 182.448L314.32 189Z" fill="#404040"/>
<path d="M357.814 89.216C360.19 89.216 361.9 87.47 361.9 84.968C361.9 82.61 360.298 80.774 357.886 80.774C356.77 80.774 355.618 81.26 355.078 81.98H355.042C355.312 79.874 356.518 77.714 358.858 77.714C359.866 77.714 360.676 78.128 360.676 78.128L361.252 76.598C361.252 76.598 360.28 76.076 358.786 76.076C354.844 76.076 353.062 79.964 353.062 83.222C353.062 86.84 355.096 89.216 357.814 89.216ZM357.796 87.578C356.176 87.578 354.934 85.724 354.934 84.068C354.934 83.15 356.086 82.286 357.526 82.286C359.146 82.286 360.136 83.42 360.136 84.968C360.136 86.444 359.254 87.578 357.796 87.578ZM363.333 85.598H369.489V89H371.235V85.598H372.963V84.086H371.235V76.292H369.201L363.333 84.482V85.598ZM365.295 84.086V84.05L368.895 79.244C369.237 78.794 369.525 78.2 369.525 78.2H369.561C369.561 78.2 369.489 78.866 369.489 79.46V84.086H365.295ZM384.128 89.216C386.504 89.216 388.214 87.47 388.214 84.968C388.214 82.61 386.612 80.774 384.2 80.774C383.084 80.774 381.932 81.26 381.392 81.98H381.356C381.626 79.874 382.832 77.714 385.172 77.714C386.18 77.714 386.99 78.128 386.99 78.128L387.566 76.598C387.566 76.598 386.594 76.076 385.1 76.076C381.158 76.076 379.376 79.964 379.376 83.222C379.376 86.84 381.41 89.216 384.128 89.216ZM384.11 87.578C382.49 87.578 381.248 85.724 381.248 84.068C381.248 83.15 382.4 82.286 383.84 82.286C385.46 82.286 386.45 83.42 386.45 84.968C386.45 86.444 385.568 87.578 384.11 87.578ZM389.648 85.598H395.804V89H397.55V85.598H399.278V84.086H397.55V76.292H395.516L389.648 84.482V85.598ZM391.61 84.086V84.05L395.21 79.244C395.552 78.794 395.84 78.2 395.84 78.2H395.876C395.876 78.2 395.804 78.866 395.804 79.46V84.086H391.61ZM410.443 89.216C412.819 89.216 414.529 87.47 414.529 84.968C414.529 82.61 412.927 80.774 410.515 80.774C409.399 80.774 408.247 81.26 407.707 81.98H407.671C407.941 79.874 409.147 77.714 411.487 77.714C412.495 77.714 413.305 78.128 413.305 78.128L413.881 76.598C413.881 76.598 412.909 76.076 411.415 76.076C407.473 76.076 405.691 79.964 405.691 83.222C405.691 86.84 407.725 89.216 410.443 89.216ZM410.425 87.578C408.805 87.578 407.563 85.724 407.563 84.068C407.563 83.15 408.715 82.286 410.155 82.286C411.775 82.286 412.765 83.42 412.765 84.968C412.765 86.444 411.883 87.578 410.425 87.578ZM415.962 85.598H422.118V89H423.864V85.598H425.592V84.086H423.864V76.292H421.83L415.962 84.482V85.598ZM417.924 84.086V84.05L421.524 79.244C421.866 78.794 422.154 78.2 422.154 78.2H422.19C422.19 78.2 422.118 78.866 422.118 79.46V84.086H417.924Z" fill="#404040"/>
<path d="M357.616 143.216C361.018 143.216 362.116 140.3 362.116 136.628C362.116 132.974 361.018 130.076 357.616 130.076C354.232 130.076 353.134 132.974 353.134 136.628C353.134 140.3 354.232 143.216 357.616 143.216ZM357.616 141.578C355.546 141.578 354.952 139.4 354.952 136.628C354.952 133.874 355.546 131.714 357.616 131.714C359.704 131.714 360.298 133.874 360.298 136.628C360.298 139.4 359.704 141.578 357.616 141.578ZM373.489 143.216C376.891 143.216 377.989 140.3 377.989 136.628C377.989 132.974 376.891 130.076 373.489 130.076C370.105 130.076 369.007 132.974 369.007 136.628C369.007 140.3 370.105 143.216 373.489 143.216ZM373.489 141.578C371.419 141.578 370.825 139.4 370.825 136.628C370.825 133.874 371.419 131.714 373.489 131.714C375.577 131.714 376.171 133.874 376.171 136.628C376.171 139.4 375.577 141.578 373.489 141.578ZM389.362 143.216C392.764 143.216 393.862 140.3 393.862 136.628C393.862 132.974 392.764 130.076 389.362 130.076C385.978 130.076 384.88 132.974 384.88 136.628C384.88 140.3 385.978 143.216 389.362 143.216ZM389.362 141.578C387.292 141.578 386.698 139.4 386.698 136.628C386.698 133.874 387.292 131.714 389.362 131.714C391.45 131.714 392.044 133.874 392.044 136.628C392.044 139.4 391.45 141.578 389.362 141.578ZM405.235 143.216C408.637 143.216 409.735 140.3 409.735 136.628C409.735 132.974 408.637 130.076 405.235 130.076C401.851 130.076 400.753 132.974 400.753 136.628C400.753 140.3 401.851 143.216 405.235 143.216ZM405.235 141.578C403.165 141.578 402.571 139.4 402.571 136.628C402.571 133.874 403.165 131.714 405.235 131.714C407.323 131.714 407.917 133.874 407.917 136.628C407.917 139.4 407.323 141.578 405.235 141.578ZM417.04 143H418.876L424.618 131.516V130.292H416.122V131.84H421.792C422.44 131.84 422.728 131.786 422.728 131.786V131.822C422.728 131.822 422.35 132.272 421.99 132.992L417.04 143ZM425.884 141.452C425.884 141.452 427.162 143.216 429.772 143.216C432.346 143.216 434.272 141.38 434.272 138.932C434.272 136.646 432.526 134.792 429.844 134.792C428.908 134.792 428.206 135.188 428.206 135.188H428.17C428.17 135.188 428.242 134.9 428.26 134.522L428.566 131.84H433.426V130.292H427.018L426.388 136.592L427.414 136.97C427.414 136.97 428.314 136.34 429.556 136.34C431.194 136.34 432.454 137.42 432.454 138.95C432.454 140.498 431.158 141.524 429.664 141.524C427.864 141.524 426.874 140.156 426.874 140.156L425.884 141.452Z" fill="#404040"/>
<path d="M354.538 189H355.996L356.59 185.562H359.38L358.786 189H360.244L360.856 185.562H363.178L363.412 184.23H361.072L361.612 181.206H363.952L364.186 179.892H361.828L362.458 176.292H361L360.37 179.892H357.58L358.21 176.292H356.752L356.122 179.892H353.782L353.566 181.206H355.888L355.366 184.23H353.008L352.792 185.562H355.132L354.538 189ZM356.824 184.23L357.364 181.206H360.154L359.614 184.23H356.824ZM365.478 185.598H371.634V189H373.38V185.598H375.108V184.086H373.38V176.292H371.346L365.478 184.482V185.598ZM367.44 184.086V184.05L371.04 179.244C371.382 178.794 371.67 178.2 371.67 178.2H371.706C371.706 178.2 371.634 178.866 371.634 179.46V184.086H367.44ZM381.452 189.216C384.854 189.216 385.952 186.3 385.952 182.628C385.952 178.974 384.854 176.076 381.452 176.076C378.068 176.076 376.97 178.974 376.97 182.628C376.97 186.3 378.068 189.216 381.452 189.216ZM381.452 187.578C379.382 187.578 378.788 185.4 378.788 182.628C378.788 179.874 379.382 177.714 381.452 177.714C383.54 177.714 384.134 179.874 384.134 182.628C384.134 185.4 383.54 187.578 381.452 187.578ZM387.644 185.598H393.8V189H395.546V185.598H397.274V184.086H395.546V176.292H393.512L387.644 184.482V185.598ZM389.606 184.086V184.05L393.206 179.244C393.548 178.794 393.836 178.2 393.836 178.2H393.872C393.872 178.2 393.8 178.866 393.8 179.46V184.086H389.606ZM403.618 189.216C407.02 189.216 408.118 186.3 408.118 182.628C408.118 178.974 407.02 176.076 403.618 176.076C400.234 176.076 399.136 178.974 399.136 182.628C399.136 186.3 400.234 189.216 403.618 189.216ZM403.618 187.578C401.548 187.578 400.954 185.4 400.954 182.628C400.954 179.874 401.548 177.714 403.618 177.714C405.706 177.714 406.3 179.874 406.3 182.628C406.3 185.4 405.706 187.578 403.618 187.578ZM409.81 185.598H415.966V189H417.712V185.598H419.44V184.086H417.712V176.292H415.678L409.81 184.482V185.598ZM411.772 184.086V184.05L415.372 179.244C415.714 178.794 416.002 178.2 416.002 178.2H416.038C416.038 178.2 415.966 178.866 415.966 179.46V184.086H411.772ZM425.784 189.216C429.186 189.216 430.284 186.3 430.284 182.628C430.284 178.974 429.186 176.076 425.784 176.076C422.4 176.076 421.302 178.974 421.302 182.628C421.302 186.3 422.4 189.216 425.784 189.216ZM425.784 187.578C423.714 187.578 423.12 185.4 423.12 182.628C423.12 179.874 423.714 177.714 425.784 177.714C427.872 177.714 428.466 179.874 428.466 182.628C428.466 185.4 427.872 187.578 425.784 187.578Z" fill="#404040"/>
<rect x="485" width="266" height="266" rx="3" fill="#737373"/>
<path d="M777.728 89H779.51V83.942H782.228L784.91 89H786.926L784.226 84.068C783.992 83.654 783.848 83.492 783.848 83.492V83.456C785.234 83.006 786.134 81.638 786.134 80.018C786.134 78.344 785.288 77.066 783.992 76.58C783.506 76.4 782.948 76.292 781.616 76.292H777.728V89ZM779.51 82.394V77.84H781.562C782.552 77.84 782.966 77.948 783.308 78.128C783.956 78.488 784.316 79.154 784.316 80.09C784.316 81.512 783.452 82.394 782.066 82.394H779.51ZM788.413 82.628C788.413 86.516 791.239 89.216 794.659 89.216C797.179 89.216 798.565 87.668 798.565 87.668H798.601C798.601 87.668 798.583 87.938 798.583 88.208V89H800.149V82.61H796.459V84.158H798.529V85.994C798.529 85.994 797.125 87.578 794.929 87.578C792.265 87.578 790.249 85.544 790.249 82.592C790.249 79.874 792.049 77.696 795.037 77.696C797.197 77.696 798.619 78.938 798.619 78.938L799.519 77.606C799.519 77.606 797.935 76.076 794.893 76.076C791.185 76.076 788.413 78.956 788.413 82.628ZM802.935 89H807.489C809.721 89 811.575 87.776 811.575 85.382C811.575 83.96 810.819 82.7 809.487 82.304V82.268C810.459 81.764 811.071 80.774 811.071 79.532C811.071 77.48 809.523 76.292 807.381 76.292H802.935V89ZM804.717 81.638V77.84H807.345C808.569 77.84 809.253 78.596 809.253 79.712C809.253 80.828 808.533 81.638 807.381 81.638H804.717ZM804.717 87.452V83.114H807.561C808.893 83.114 809.757 83.996 809.757 85.292C809.757 86.588 808.947 87.452 807.579 87.452H804.717Z" fill="#404040"/>
<path d="M776.864 136.574C776.864 140.3 779.546 143.216 783.362 143.216C786.548 143.216 788.294 141.2 788.294 141.2L787.34 139.922C787.34 139.922 785.81 141.578 783.416 141.578C780.59 141.578 778.7 139.274 778.7 136.556C778.7 133.856 780.554 131.696 783.398 131.696C785.594 131.696 787.07 133.082 787.07 133.082L787.952 131.75C787.952 131.75 786.386 130.076 783.326 130.076C779.636 130.076 776.864 132.884 776.864 136.574ZM790.322 143H792.104L792.716 134.99C792.77 134.216 792.752 133.082 792.752 133.082H792.788C792.788 133.082 793.184 134.306 793.472 134.99L795.992 140.714H797.576L800.114 134.99C800.42 134.288 800.798 133.118 800.798 133.118H800.834C800.834 133.118 800.798 134.216 800.852 134.99L801.482 143H803.246L802.22 130.292H800.348L797.432 137.168C797.144 137.87 796.802 138.878 796.802 138.878H796.766C796.766 138.878 796.424 137.87 796.136 137.168L793.22 130.292H791.348L790.322 143ZM808.816 143H810.598V137.618L814.846 130.292H812.83L810.508 134.468C810.112 135.188 809.734 136.07 809.734 136.07H809.698C809.698 136.07 809.32 135.17 808.924 134.468L806.566 130.292H804.55L808.816 137.618V143ZM816.716 143H818.498V137.168H820.388L823.772 143H825.788L821.864 136.358V136.322L825.554 130.292H823.592L820.388 135.638H818.498V130.292H816.716V143Z" fill="#404040"/>
<path d="M777.728 189H779.51V183.42H786.098V189H787.88V176.292H786.098V181.872H779.51V176.292H777.728V189ZM791.333 189H799.019V187.452H793.115V183.366H797.669V181.818H793.115V177.84H798.713V176.292H791.333V189ZM800.32 189H802.318L804.622 185.094C805.036 184.392 805.378 183.636 805.378 183.636H805.414C805.414 183.636 805.81 184.374 806.224 185.094L808.528 189H810.544L806.53 182.448L810.292 176.292H808.24L806.242 179.73C805.828 180.432 805.468 181.242 805.468 181.242H805.432C805.432 181.242 805.018 180.414 804.622 179.73L802.624 176.292H800.572L804.334 182.448L800.32 189Z" fill="#404040"/>
<path d="M839.008 89H846.316V87.452H843.544V76.292H841.96L838.918 79.244L839.998 80.36L841.186 79.19C841.654 78.74 841.798 78.452 841.798 78.452H841.834C841.834 78.452 841.816 78.848 841.816 79.244V87.452H839.008V89ZM847.815 89H855.123V87.452H852.351V76.292H850.767L847.725 79.244L848.805 80.36L849.993 79.19C850.461 78.74 850.605 78.452 850.605 78.452H850.641C850.641 78.452 850.623 78.848 850.623 79.244V87.452H847.815V89ZM856.477 87.452C856.477 87.452 857.755 89.216 860.365 89.216C862.939 89.216 864.865 87.38 864.865 84.932C864.865 82.646 863.119 80.792 860.437 80.792C859.501 80.792 858.799 81.188 858.799 81.188H858.763C858.763 81.188 858.835 80.9 858.853 80.522L859.159 77.84H864.019V76.292H857.611L856.981 82.592L858.007 82.97C858.007 82.97 858.907 82.34 860.149 82.34C861.787 82.34 863.047 83.42 863.047 84.95C863.047 86.498 861.751 87.524 860.257 87.524C858.457 87.524 857.467 86.156 857.467 86.156L856.477 87.452ZM871.387 89H878.695V87.452H875.923V76.292H874.339L871.297 79.244L872.377 80.36L873.565 79.19C874.033 78.74 874.177 78.452 874.177 78.452H874.213C874.213 78.452 874.195 78.848 874.195 79.244V87.452H871.387V89ZM880.194 89H887.502V87.452H884.73V76.292H883.146L880.104 79.244L881.184 80.36L882.372 79.19C882.84 78.74 882.984 78.452 882.984 78.452H883.02C883.02 78.452 883.002 78.848 883.002 79.244V87.452H880.194V89ZM888.856 87.452C888.856 87.452 890.134 89.216 892.744 89.216C895.318 89.216 897.244 87.38 897.244 84.932C897.244 82.646 895.498 80.792 892.816 80.792C891.88 80.792 891.178 81.188 891.178 81.188H891.142C891.142 81.188 891.214 80.9 891.232 80.522L891.538 77.84H896.398V76.292H889.99L889.36 82.592L890.386 82.97C890.386 82.97 891.286 82.34 892.528 82.34C894.166 82.34 895.426 83.42 895.426 84.95C895.426 86.498 894.13 87.524 892.636 87.524C890.836 87.524 889.846 86.156 889.846 86.156L888.856 87.452ZM903.766 89H911.074V87.452H908.302V76.292H906.718L903.676 79.244L904.756 80.36L905.944 79.19C906.412 78.74 906.556 78.452 906.556 78.452H906.592C906.592 78.452 906.574 78.848 906.574 79.244V87.452H903.766V89ZM912.572 89H919.88V87.452H917.108V76.292H915.524L912.482 79.244L913.562 80.36L914.75 79.19C915.218 78.74 915.362 78.452 915.362 78.452H915.398C915.398 78.452 915.38 78.848 915.38 79.244V87.452H912.572V89ZM921.235 87.452C921.235 87.452 922.513 89.216 925.123 89.216C927.697 89.216 929.623 87.38 929.623 84.932C929.623 82.646 927.877 80.792 925.195 80.792C924.259 80.792 923.557 81.188 923.557 81.188H923.521C923.521 81.188 923.593 80.9 923.611 80.522L923.917 77.84H928.777V76.292H922.369L921.739 82.592L922.765 82.97C922.765 82.97 923.665 82.34 924.907 82.34C926.545 82.34 927.805 83.42 927.805 84.95C927.805 86.498 926.509 87.524 925.015 87.524C923.215 87.524 922.225 86.156 922.225 86.156L921.235 87.452Z" fill="#404040"/>
<path d="M843.616 143.216C847.018 143.216 848.116 140.3 848.116 136.628C848.116 132.974 847.018 130.076 843.616 130.076C840.232 130.076 839.134 132.974 839.134 136.628C839.134 140.3 840.232 143.216 843.616 143.216ZM843.616 141.578C841.546 141.578 840.952 139.4 840.952 136.628C840.952 133.874 841.546 131.714 843.616 131.714C845.704 131.714 846.298 133.874 846.298 136.628C846.298 139.4 845.704 141.578 843.616 141.578ZM859.489 143.216C862.891 143.216 863.989 140.3 863.989 136.628C863.989 132.974 862.891 130.076 859.489 130.076C856.105 130.076 855.007 132.974 855.007 136.628C855.007 140.3 856.105 143.216 859.489 143.216ZM859.489 141.578C857.419 141.578 856.825 139.4 856.825 136.628C856.825 133.874 857.419 131.714 859.489 131.714C861.577 131.714 862.171 133.874 862.171 136.628C862.171 139.4 861.577 141.578 859.489 141.578ZM875.362 143.216C878.764 143.216 879.862 140.3 879.862 136.628C879.862 132.974 878.764 130.076 875.362 130.076C871.978 130.076 870.88 132.974 870.88 136.628C870.88 140.3 871.978 143.216 875.362 143.216ZM875.362 141.578C873.292 141.578 872.698 139.4 872.698 136.628C872.698 133.874 873.292 131.714 875.362 131.714C877.45 131.714 878.044 133.874 878.044 136.628C878.044 139.4 877.45 141.578 875.362 141.578ZM886.483 141.452C886.483 141.452 887.761 143.216 890.371 143.216C892.945 143.216 894.871 141.38 894.871 138.932C894.871 136.646 893.125 134.792 890.443 134.792C889.507 134.792 888.805 135.188 888.805 135.188H888.769C888.769 135.188 888.841 134.9 888.859 134.522L889.165 131.84H894.025V130.292H887.617L886.987 136.592L888.013 136.97C888.013 136.97 888.913 136.34 890.155 136.34C891.793 136.34 893.053 137.42 893.053 138.95C893.053 140.498 891.757 141.524 890.263 141.524C888.463 141.524 887.473 140.156 887.473 140.156L886.483 141.452ZM896.626 141.452C896.626 141.452 897.904 143.216 900.514 143.216C903.088 143.216 905.014 141.38 905.014 138.932C905.014 136.646 903.268 134.792 900.586 134.792C899.65 134.792 898.948 135.188 898.948 135.188H898.912C898.912 135.188 898.984 134.9 899.002 134.522L899.308 131.84H904.168V130.292H897.76L897.13 136.592L898.156 136.97C898.156 136.97 899.056 136.34 900.298 136.34C901.936 136.34 903.196 137.42 903.196 138.95C903.196 140.498 901.9 141.524 900.406 141.524C898.606 141.524 897.616 140.156 897.616 140.156L896.626 141.452Z" fill="#404040"/>
<path d="M840.538 189H841.996L842.59 185.562H845.38L844.786 189H846.244L846.856 185.562H849.178L849.412 184.23H847.072L847.612 181.206H849.952L850.186 179.892H847.828L848.458 176.292H847L846.37 179.892H843.58L844.21 176.292H842.752L842.122 179.892H839.782L839.566 181.206H841.888L841.366 184.23H839.008L838.792 185.562H841.132L840.538 189ZM842.824 184.23L843.364 181.206H846.154L845.614 184.23H842.824ZM852.468 189H854.304L860.046 177.516V176.292H851.55V177.84H857.22C857.868 177.84 858.156 177.786 858.156 177.786V177.822C858.156 177.822 857.778 178.272 857.418 178.992L852.468 189ZM861.167 187.488C861.167 187.488 862.697 189.216 865.289 189.216C867.899 189.216 869.609 187.308 869.609 185.13C869.609 182.664 867.557 181.584 865.883 181.404L869.339 177.426V176.292H861.743V177.84H866.045C866.747 177.84 867.125 177.786 867.125 177.786V177.822C867.125 177.822 866.747 178.164 866.333 178.65L863.561 181.908L863.975 182.862H864.857C866.423 182.862 867.809 183.636 867.809 185.202C867.809 186.57 866.639 187.524 865.217 187.524C863.381 187.524 862.139 186.138 862.139 186.138L861.167 187.488ZM872.208 189H874.044L879.786 177.516V176.292H871.29V177.84H876.96C877.608 177.84 877.896 177.786 877.896 177.786V177.822C877.896 177.822 877.518 178.272 877.158 178.992L872.208 189ZM880.908 187.488C880.908 187.488 882.438 189.216 885.03 189.216C887.64 189.216 889.35 187.308 889.35 185.13C889.35 182.664 887.298 181.584 885.624 181.404L889.08 177.426V176.292H881.484V177.84H885.786C886.488 177.84 886.866 177.786 886.866 177.786V177.822C886.866 177.822 886.488 178.164 886.074 178.65L883.302 181.908L883.716 182.862H884.598C886.164 182.862 887.55 183.636 887.55 185.202C887.55 186.57 886.38 187.524 884.958 187.524C883.122 187.524 881.88 186.138 881.88 186.138L880.908 187.488ZM891.948 189H893.784L899.526 177.516V176.292H891.03V177.84H896.7C897.348 177.84 897.636 177.786 897.636 177.786V177.822C897.636 177.822 897.258 178.272 896.898 178.992L891.948 189ZM900.648 187.488C900.648 187.488 902.178 189.216 904.77 189.216C907.38 189.216 909.09 187.308 909.09 185.13C909.09 182.664 907.038 181.584 905.364 181.404L908.82 177.426V176.292H901.224V177.84H905.526C906.228 177.84 906.606 177.786 906.606 177.786V177.822C906.606 177.822 906.228 178.164 905.814 178.65L903.042 181.908L903.456 182.862H904.338C905.904 182.862 907.29 183.636 907.29 185.202C907.29 186.57 906.12 187.524 904.698 187.524C902.862 187.524 901.62 186.138 901.62 186.138L900.648 187.488Z" fill="#404040"/>
</svg>
