<svg width="1152" height="293" viewBox="0 0 1152 293" fill="none" xmlns="http://www.w3.org/2000/svg">
<rect x="983" y="28" width="169" height="150" rx="3" fill="#EF4034"/>
<path d="M1029.77 207H1035.04V206.256H1030.63C1030.64 204.012 1034.9 203.616 1034.9 200.784C1034.9 199.464 1033.94 198.42 1032.34 198.42C1030.55 198.42 1029.78 199.944 1029.78 199.944L1030.4 200.364C1030.4 200.364 1031.05 199.212 1032.29 199.212C1033.34 199.212 1034.04 199.908 1034.04 200.832C1034.04 203.112 1029.72 203.496 1029.72 206.46C1029.72 206.628 1029.73 206.808 1029.77 207ZM1036.33 205.992C1036.33 205.992 1037.35 207.144 1039 207.144C1040.6 207.144 1041.77 205.944 1041.77 204.504C1041.77 202.68 1040.2 202.08 1039.13 202.02L1041.65 199.116V198.564H1036.72V199.308H1039.89C1040.33 199.308 1040.57 199.272 1040.57 199.272V199.296C1040.57 199.296 1040.36 199.5 1040.13 199.764L1038.02 202.236L1038.22 202.728H1038.8C1039.9 202.728 1040.92 203.34 1040.92 204.528C1040.92 205.608 1040 206.352 1038.99 206.352C1037.69 206.352 1036.83 205.356 1036.83 205.356L1036.33 205.992ZM1045.16 207.144C1047.78 207.144 1048.87 204.492 1048.87 202.38C1048.87 200.1 1047.66 198.42 1045.82 198.42C1044.35 198.42 1043.18 199.488 1043.18 201.24C1043.18 202.836 1044.26 203.964 1045.8 203.964C1046.68 203.964 1047.53 203.58 1047.95 202.98H1047.97C1047.82 204.624 1046.93 206.364 1045.15 206.364C1044.46 206.364 1043.93 206.064 1043.93 206.064L1043.62 206.796C1043.62 206.796 1044.24 207.144 1045.16 207.144ZM1045.93 203.22C1044.78 203.22 1044.02 202.428 1044.02 201.228C1044.02 200.064 1044.7 199.2 1045.84 199.2C1047.1 199.2 1047.97 200.652 1047.97 201.78C1047.97 202.464 1047.07 203.22 1045.93 203.22ZM1056.7 207.144C1058.18 207.144 1059.35 206.076 1059.35 204.324C1059.35 202.728 1058.26 201.6 1056.72 201.6C1055.85 201.6 1055 201.984 1054.59 202.584H1054.56C1054.71 200.94 1055.61 199.2 1057.37 199.2C1058.07 199.2 1058.6 199.5 1058.6 199.5L1058.91 198.768C1058.91 198.768 1058.3 198.42 1057.36 198.42C1054.76 198.42 1053.65 201.072 1053.65 203.184C1053.65 205.464 1054.86 207.144 1056.7 207.144ZM1056.69 206.364C1055.43 206.364 1054.55 204.912 1054.55 203.784C1054.55 203.1 1055.46 202.344 1056.59 202.344C1057.74 202.344 1058.5 203.136 1058.5 204.336C1058.5 205.5 1057.83 206.364 1056.69 206.364ZM1060.42 204.66H1064.64V207H1065.47V204.66H1066.67V203.928H1065.47V198.564H1064.57L1060.42 204.12V204.66ZM1061.42 203.928V203.904L1064.23 200.244C1064.46 199.944 1064.65 199.608 1064.65 199.608H1064.68C1064.68 199.608 1064.64 200.04 1064.64 200.4V203.928H1061.42ZM1071.04 205.944C1071.04 205.944 1071.83 207.144 1073.51 207.144C1075.15 207.144 1076.44 205.932 1076.44 204.372C1076.44 202.848 1075.23 201.624 1073.53 201.624C1072.78 201.624 1072.25 201.948 1072.25 201.948H1072.23C1072.23 201.948 1072.27 201.768 1072.31 201.468L1072.55 199.308H1075.91V198.564H1071.83L1071.37 202.656L1071.9 202.848C1071.9 202.848 1072.54 202.392 1073.44 202.392C1074.64 202.392 1075.57 203.22 1075.57 204.372C1075.57 205.524 1074.64 206.352 1073.47 206.352C1072.19 206.352 1071.57 205.368 1071.57 205.368L1071.04 205.944ZM1077.85 207H1083.12V206.256H1078.71C1078.73 204.012 1082.99 203.616 1082.99 200.784C1082.99 199.464 1082.03 198.42 1080.42 198.42C1078.63 198.42 1077.86 199.944 1077.86 199.944L1078.49 200.364C1078.49 200.364 1079.13 199.212 1080.37 199.212C1081.43 199.212 1082.12 199.908 1082.12 200.832C1082.12 203.112 1077.8 203.496 1077.8 206.46C1077.8 206.628 1077.81 206.808 1077.85 207Z" fill="#404040"/>
<path d="M1032.76 227.144C1034.95 227.144 1035.66 225.224 1035.66 222.776C1035.66 220.352 1034.95 218.42 1032.76 218.42C1030.56 218.42 1029.84 220.352 1029.84 222.776C1029.84 225.224 1030.56 227.144 1032.76 227.144ZM1032.76 226.364C1031.15 226.364 1030.7 224.792 1030.7 222.776C1030.7 220.772 1031.15 219.2 1032.76 219.2C1034.35 219.2 1034.8 220.772 1034.8 222.776C1034.8 224.792 1034.35 226.364 1032.76 226.364ZM1040.89 227H1041.75L1045.66 219.14V218.564H1040.18V219.308H1044.13C1044.55 219.308 1044.76 219.284 1044.76 219.284V219.308C1044.76 219.308 1044.52 219.632 1044.29 220.088L1040.89 227ZM1046.5 225.992C1046.5 225.992 1047.52 227.144 1049.17 227.144C1050.77 227.144 1051.95 225.944 1051.95 224.504C1051.95 222.68 1050.37 222.08 1049.31 222.02L1051.83 219.116V218.564H1046.89V219.308H1050.06C1050.51 219.308 1050.75 219.272 1050.75 219.272V219.296C1050.75 219.296 1050.53 219.5 1050.3 219.764L1048.19 222.236L1048.39 222.728H1048.97C1050.07 222.728 1051.09 223.34 1051.09 224.528C1051.09 225.608 1050.17 226.352 1049.16 226.352C1047.87 226.352 1047 225.356 1047 225.356L1046.5 225.992ZM1057.08 227H1057.95L1061.86 219.14V218.564H1056.37V219.308H1060.32C1060.74 219.308 1060.96 219.284 1060.96 219.284V219.308C1060.96 219.308 1060.72 219.632 1060.49 220.088L1057.08 227ZM1062.92 224.576C1062.92 226.172 1064.25 227.144 1065.78 227.144C1067.41 227.144 1068.57 226.028 1068.57 224.708C1068.57 223.832 1068.04 223.292 1067.35 222.896C1067.44 222.8 1068.38 221.816 1068.38 220.616C1068.38 219.296 1067.37 218.42 1065.8 218.42C1064.1 218.42 1063.26 219.464 1063.26 220.556C1063.26 221.36 1063.7 221.876 1064.3 222.272C1064.11 222.392 1062.92 223.22 1062.92 224.576ZM1067.72 224.696C1067.72 225.692 1066.77 226.376 1065.78 226.376C1064.76 226.376 1063.77 225.68 1063.77 224.54C1063.77 223.46 1064.72 222.788 1064.98 222.632C1066.23 223.232 1067.72 223.604 1067.72 224.696ZM1064.1 220.568C1064.1 219.812 1064.72 219.188 1065.8 219.188C1066.82 219.188 1067.54 219.752 1067.54 220.652C1067.54 221.66 1066.82 222.416 1066.66 222.56C1065.45 222.032 1064.1 221.66 1064.1 220.568ZM1076.42 227.144C1077.9 227.144 1079.07 226.076 1079.07 224.324C1079.07 222.728 1077.98 221.6 1076.45 221.6C1075.57 221.6 1074.72 221.984 1074.31 222.584H1074.29C1074.43 220.94 1075.33 219.2 1077.09 219.2C1077.79 219.2 1078.32 219.5 1078.32 219.5L1078.63 218.768C1078.63 218.768 1078.02 218.42 1077.08 218.42C1074.48 218.42 1073.37 221.072 1073.37 223.184C1073.37 225.464 1074.59 227.144 1076.42 227.144ZM1076.41 226.364C1075.15 226.364 1074.27 224.912 1074.27 223.784C1074.27 223.1 1075.19 222.344 1076.31 222.344C1077.47 222.344 1078.22 223.136 1078.22 224.336C1078.22 225.5 1077.55 226.364 1076.41 226.364Z" fill="#404040"/>
<path d="M1030.86 246H1031.59L1032 243.66H1034.08L1033.67 246H1034.4L1034.81 243.66H1036.49L1036.6 242.988H1034.93L1035.34 240.636H1037.02L1037.14 239.964H1035.46L1035.88 237.564H1035.14L1034.72 239.964H1032.65L1033.07 237.564H1032.34L1031.92 239.964H1030.21L1030.1 240.636H1031.8L1031.38 242.988H1029.68L1029.56 243.66H1031.27L1030.86 246ZM1032.12 242.988L1032.53 240.636H1034.6L1034.18 242.988H1032.12ZM1038.91 246H1043.88V245.256H1039.74V242.124H1042.94V241.38H1039.74V238.308H1043.66V237.564H1038.91V246ZM1045.76 246H1046.59V242.22H1049.69V241.476H1046.59V238.308H1050.2V237.564H1045.76V246ZM1051.11 243.66H1055.34V246H1056.16V243.66H1057.36V242.928H1056.16V237.564H1055.26L1051.11 243.12V243.66ZM1052.12 242.928V242.904L1054.93 239.244C1055.16 238.944 1055.35 238.608 1055.35 238.608H1055.37C1055.37 238.608 1055.34 239.04 1055.34 239.4V242.928H1052.12ZM1061.62 246.144C1063.82 246.144 1064.52 244.224 1064.52 241.776C1064.52 239.352 1063.82 237.42 1061.62 237.42C1059.42 237.42 1058.7 239.352 1058.7 241.776C1058.7 244.224 1059.42 246.144 1061.62 246.144ZM1061.62 245.364C1060.01 245.364 1059.57 243.792 1059.57 241.776C1059.57 239.772 1060.01 238.2 1061.62 238.2C1063.22 238.2 1063.66 239.772 1063.66 241.776C1063.66 243.792 1063.22 245.364 1061.62 245.364ZM1065.9 244.992C1065.9 244.992 1066.92 246.144 1068.58 246.144C1070.18 246.144 1071.35 244.944 1071.35 243.504C1071.35 241.68 1069.78 241.08 1068.71 241.02L1071.23 238.116V237.564H1066.3V238.308H1069.47C1069.91 238.308 1070.15 238.272 1070.15 238.272V238.296C1070.15 238.296 1069.94 238.5 1069.71 238.764L1067.6 241.236L1067.8 241.728H1068.38C1069.48 241.728 1070.5 242.34 1070.5 243.528C1070.5 244.608 1069.58 245.352 1068.57 245.352C1067.27 245.352 1066.41 244.356 1066.41 244.356L1065.9 244.992ZM1072.51 243.66H1076.73V246H1077.56V243.66H1078.76V242.928H1077.56V237.564H1076.66L1072.51 243.12V243.66ZM1073.52 242.928V242.904L1076.33 239.244C1076.55 238.944 1076.75 238.608 1076.75 238.608H1076.77C1076.77 238.608 1076.73 239.04 1076.73 239.4V242.928H1073.52Z" fill="#404040"/>
<path d="M984.224 207H985.052V203.448H987.176L989.084 207H990.032L988.196 203.604C988.064 203.376 987.98 203.268 987.98 203.268V203.244C988.928 202.98 989.576 202.104 989.576 200.964C989.576 199.944 989.096 199.14 988.304 198.792C987.968 198.648 987.584 198.564 986.72 198.564H984.224V207ZM985.052 202.704V199.308H986.756C987.404 199.308 987.704 199.38 987.956 199.512C988.448 199.776 988.724 200.292 988.724 200.988C988.724 202.044 988.076 202.704 987.056 202.704H985.052ZM991.195 202.776C991.195 205.284 993.019 207.144 995.323 207.144C997.099 207.144 998.071 206.004 998.071 206.004H998.095C998.095 206.004 998.083 206.184 998.083 206.364V207H998.851V202.968H996.619V203.712H998.059V205.14C998.059 205.14 997.051 206.376 995.407 206.376C993.487 206.376 992.059 204.84 992.059 202.764C992.059 200.76 993.439 199.188 995.479 199.188C997.015 199.188 997.999 200.028 997.999 200.028L998.443 199.404C998.443 199.404 997.399 198.42 995.443 198.42C993.019 198.42 991.195 200.34 991.195 202.776ZM1000.85 207H1003.83C1005.24 207 1006.36 206.136 1006.36 204.636C1006.36 203.616 1005.81 202.788 1004.94 202.548V202.524C1005.59 202.2 1006.01 201.564 1006.01 200.688C1006.01 199.368 1005.06 198.564 1003.73 198.564H1000.85V207ZM1001.68 202.224V199.308H1003.72C1004.62 199.308 1005.16 199.884 1005.16 200.748C1005.16 201.624 1004.58 202.224 1003.73 202.224H1001.68ZM1001.68 206.256V202.944H1003.83C1004.81 202.944 1005.5 203.604 1005.5 204.612C1005.5 205.62 1004.86 206.256 1003.84 206.256H1001.68Z" fill="#404040"/>
<path d="M983.66 222.728C983.66 225.188 985.436 227.144 987.932 227.144C990.008 227.144 991.16 225.836 991.16 225.836L990.68 225.248C990.68 225.248 989.648 226.376 987.944 226.376C985.94 226.376 984.524 224.732 984.524 222.716C984.524 220.724 985.94 219.188 987.92 219.188C989.504 219.188 990.488 220.124 990.488 220.124L990.932 219.512C990.932 219.512 989.912 218.42 987.896 218.42C985.484 218.42 983.66 220.28 983.66 222.728ZM992.69 227H993.518L993.986 221.096C994.022 220.64 994.01 219.896 994.01 219.896H994.034C994.034 219.896 994.298 220.676 994.49 221.096L996.47 225.428H997.25L999.23 221.096C999.422 220.664 999.674 219.92 999.674 219.92H999.698C999.698 219.92 999.686 220.64 999.722 221.096L1000.19 227H1001.02L1000.35 218.564H999.494L997.286 223.52C997.094 223.952 996.866 224.552 996.866 224.552H996.842C996.842 224.552 996.626 223.952 996.434 223.52L994.226 218.564H993.362L992.69 227ZM1004.89 227H1005.73V223.376L1008.56 218.564H1007.63L1005.84 221.624C1005.58 222.068 1005.32 222.632 1005.32 222.632H1005.3C1005.3 222.632 1005.04 222.056 1004.78 221.624L1003 218.564H1002.05L1004.89 223.376V227ZM1009.98 227H1010.81V222.968H1012.24L1014.65 227H1015.62L1012.93 222.572V222.548L1015.45 218.564H1014.51L1012.24 222.224H1010.81V218.564H1009.98V227Z" fill="#404040"/>
<path d="M984.224 246H985.052V242.148H989.948V246H990.776V237.564H989.948V241.404H985.052V237.564H984.224V246ZM993.224 246H998.192V245.256H994.052V242.124H997.256V241.38H994.052V238.308H997.976V237.564H993.224V246ZM999.167 246H1000.13L1001.86 243.096C1002.12 242.652 1002.37 242.148 1002.37 242.148H1002.4C1002.4 242.148 1002.66 242.652 1002.92 243.084L1004.68 246H1005.64L1002.94 241.596L1005.41 237.564H1004.42L1002.94 240.06C1002.67 240.492 1002.43 241.032 1002.43 241.032H1002.41C1002.41 241.032 1002.11 240.492 1001.86 240.06L1000.38 237.564H999.407L1001.86 241.596L999.167 246Z" fill="#404040"/>
<rect x="789" y="28" width="169" height="150" rx="3" fill="#F48365"/>
<path d="M835.768 207H841.036V206.256H836.632C836.644 204.012 840.904 203.616 840.904 200.784C840.904 199.464 839.944 198.42 838.336 198.42C836.548 198.42 835.78 199.944 835.78 199.944L836.404 200.364C836.404 200.364 837.052 199.212 838.288 199.212C839.344 199.212 840.04 199.908 840.04 200.832C840.04 203.112 835.72 203.496 835.72 206.46C835.72 206.628 835.732 206.808 835.768 207ZM841.935 204.66H846.159V207H846.987V204.66H848.187V203.928H846.987V198.564H846.087L841.935 204.12V204.66ZM842.943 203.928V203.904L845.751 200.244C845.979 199.944 846.171 199.608 846.171 199.608H846.195C846.195 199.608 846.159 200.04 846.159 200.4V203.928H842.943ZM849.096 204.66H853.32V207H854.148V204.66H855.348V203.928H854.148V198.564H853.248L849.096 204.12V204.66ZM850.104 203.928V203.904L852.912 200.244C853.14 199.944 853.332 199.608 853.332 199.608H853.356C853.356 199.608 853.32 200.04 853.32 200.4V203.928H850.104ZM859.742 207H864.314V206.256H862.454V198.564H861.686L859.778 200.46L860.306 201L861.206 200.1C861.542 199.776 861.626 199.596 861.626 199.596H861.65C861.65 199.596 861.638 199.824 861.638 200.064V206.256H859.742V207ZM865.2 205.992C865.2 205.992 866.22 207.144 867.876 207.144C869.472 207.144 870.648 205.944 870.648 204.504C870.648 202.68 869.076 202.08 868.008 202.02L870.528 199.116V198.564H865.596V199.308H868.764C869.208 199.308 869.448 199.272 869.448 199.272V199.296C869.448 199.296 869.232 199.5 869.004 199.764L866.892 202.236L867.096 202.728H867.672C868.776 202.728 869.796 203.34 869.796 204.528C869.796 205.608 868.872 206.352 867.864 206.352C866.568 206.352 865.704 205.356 865.704 205.356L865.2 205.992ZM872.07 207H876.642V206.256H874.782V198.564H874.014L872.106 200.46L872.634 201L873.534 200.1C873.87 199.776 873.954 199.596 873.954 199.596H873.978C873.978 199.596 873.966 199.824 873.966 200.064V206.256H872.07V207ZM880.883 207H885.455V206.256H883.595V198.564H882.827L880.919 200.46L881.447 201L882.347 200.1C882.683 199.776 882.767 199.596 882.767 199.596H882.791C882.791 199.596 882.779 199.824 882.779 200.064V206.256H880.883V207ZM889.557 207.144C891.753 207.144 892.461 205.224 892.461 202.776C892.461 200.352 891.753 198.42 889.557 198.42C887.361 198.42 886.641 200.352 886.641 202.776C886.641 205.224 887.361 207.144 889.557 207.144ZM889.557 206.364C887.949 206.364 887.505 204.792 887.505 202.776C887.505 200.772 887.949 199.2 889.557 199.2C891.153 199.2 891.597 200.772 891.597 202.776C891.597 204.792 891.153 206.364 889.557 206.364ZM893.973 207H898.545V206.256H896.685V198.564H895.917L894.009 200.46L894.537 201L895.437 200.1C895.773 199.776 895.857 199.596 895.857 199.596H895.881C895.881 199.596 895.869 199.824 895.869 200.064V206.256H893.973V207Z" fill="#404040"/>
<path d="M838.756 227.144C840.952 227.144 841.66 225.224 841.66 222.776C841.66 220.352 840.952 218.42 838.756 218.42C836.56 218.42 835.84 220.352 835.84 222.776C835.84 225.224 836.56 227.144 838.756 227.144ZM838.756 226.364C837.148 226.364 836.704 224.792 836.704 222.776C836.704 220.772 837.148 219.2 838.756 219.2C840.352 219.2 840.796 220.772 840.796 222.776C840.796 224.792 840.352 226.364 838.756 226.364ZM846.131 224.66H850.355V227H851.183V224.66H852.383V223.928H851.183V218.564H850.283L846.131 224.12V224.66ZM847.139 223.928V223.904L849.947 220.244C850.175 219.944 850.367 219.608 850.367 219.608H850.391C850.391 219.608 850.355 220.04 850.355 220.4V223.928H847.139ZM856.711 227.144C858.187 227.144 859.363 226.076 859.363 224.324C859.363 222.728 858.271 221.6 856.735 221.6C855.859 221.6 855.007 221.984 854.599 222.584H854.575C854.719 220.94 855.619 219.2 857.383 219.2C858.079 219.2 858.607 219.5 858.607 219.5L858.919 218.768C858.919 218.768 858.307 218.42 857.371 218.42C854.767 218.42 853.663 221.072 853.663 223.184C853.663 225.464 854.875 227.144 856.711 227.144ZM856.699 226.364C855.439 226.364 854.563 224.912 854.563 223.784C854.563 223.1 855.475 222.344 856.603 222.344C857.755 222.344 858.511 223.136 858.511 224.336C858.511 225.5 857.839 226.364 856.699 226.364ZM863.89 225.944C863.89 225.944 864.682 227.144 866.362 227.144C868.006 227.144 869.29 225.932 869.29 224.372C869.29 222.848 868.078 221.624 866.386 221.624C865.63 221.624 865.102 221.948 865.102 221.948H865.078C865.078 221.948 865.126 221.768 865.162 221.468L865.402 219.308H868.762V218.564H864.682L864.226 222.656L864.754 222.848C864.754 222.848 865.39 222.392 866.29 222.392C867.49 222.392 868.426 223.22 868.426 224.372C868.426 225.524 867.49 226.352 866.326 226.352C865.042 226.352 864.418 225.368 864.418 225.368L863.89 225.944ZM872.574 227.144C875.19 227.144 876.282 224.492 876.282 222.38C876.282 220.1 875.07 218.42 873.234 218.42C871.758 218.42 870.594 219.488 870.594 221.24C870.594 222.836 871.674 223.964 873.21 223.964C874.086 223.964 874.938 223.58 875.358 222.98H875.382C875.226 224.624 874.338 226.364 872.562 226.364C871.866 226.364 871.338 226.064 871.338 226.064L871.026 226.796C871.026 226.796 871.65 227.144 872.574 227.144ZM873.342 223.22C872.19 223.22 871.434 222.428 871.434 221.228C871.434 220.064 872.106 219.2 873.246 219.2C874.506 219.2 875.382 220.652 875.382 221.78C875.382 222.464 874.482 223.22 873.342 223.22ZM880.689 224.66H884.913V227H885.741V224.66H886.941V223.928H885.741V218.564H884.841L880.689 224.12V224.66ZM881.697 223.928V223.904L884.505 220.244C884.733 219.944 884.925 219.608 884.925 219.608H884.949C884.949 219.608 884.913 220.04 884.913 220.4V223.928H881.697Z" fill="#404040"/>
<path d="M836.86 246H837.592L838 243.66H840.076L839.668 246H840.4L840.808 243.66H842.488L842.596 242.988H840.928L841.336 240.636H843.016L843.136 239.964H841.456L841.876 237.564H841.144L840.724 239.964H838.648L839.068 237.564H838.336L837.916 239.964H836.212L836.104 240.636H837.796L837.376 242.988H835.684L835.564 243.66H837.268L836.86 246ZM838.12 242.988L838.528 240.636H840.604L840.184 242.988H838.12ZM844.908 246H845.736V242.22H848.832V241.476H845.736V238.308H849.348V237.564H844.908V246ZM850.256 243.66H854.48V246H855.308V243.66H856.508V242.928H855.308V237.564H854.408L850.256 243.12V243.66ZM851.264 242.928V242.904L854.072 239.244C854.3 238.944 854.492 238.608 854.492 238.608H854.516C854.516 238.608 854.48 239.04 854.48 239.4V242.928H851.264ZM857.776 243.576C857.776 245.172 859.108 246.144 860.632 246.144C862.264 246.144 863.428 245.028 863.428 243.708C863.428 242.832 862.9 242.292 862.204 241.896C862.3 241.8 863.236 240.816 863.236 239.616C863.236 238.296 862.228 237.42 860.656 237.42C858.952 237.42 858.112 238.464 858.112 239.556C858.112 240.36 858.556 240.876 859.156 241.272C858.964 241.392 857.776 242.22 857.776 243.576ZM862.576 243.696C862.576 244.692 861.628 245.376 860.632 245.376C859.612 245.376 858.628 244.68 858.628 243.54C858.628 242.46 859.576 241.788 859.84 241.632C861.088 242.232 862.576 242.604 862.576 243.696ZM858.952 239.568C858.952 238.812 859.576 238.188 860.656 238.188C861.676 238.188 862.396 238.752 862.396 239.652C862.396 240.66 861.676 241.416 861.52 241.56C860.308 241.032 858.952 240.66 858.952 239.568ZM864.767 244.992C864.767 244.992 865.787 246.144 867.443 246.144C869.039 246.144 870.215 244.944 870.215 243.504C870.215 241.68 868.643 241.08 867.575 241.02L870.095 238.116V237.564H865.163V238.308H868.331C868.775 238.308 869.015 238.272 869.015 238.272V238.296C869.015 238.296 868.799 238.5 868.571 238.764L866.459 241.236L866.663 241.728H867.239C868.343 241.728 869.363 242.34 869.363 243.528C869.363 244.608 868.439 245.352 867.431 245.352C866.135 245.352 865.271 244.356 865.271 244.356L864.767 244.992ZM874.793 246.144C876.269 246.144 877.445 245.076 877.445 243.324C877.445 241.728 876.353 240.6 874.817 240.6C873.941 240.6 873.089 240.984 872.681 241.584H872.657C872.801 239.94 873.701 238.2 875.465 238.2C876.161 238.2 876.689 238.5 876.689 238.5L877.001 237.768C877.001 237.768 876.389 237.42 875.453 237.42C872.849 237.42 871.745 240.072 871.745 242.184C871.745 244.464 872.957 246.144 874.793 246.144ZM874.781 245.364C873.521 245.364 872.645 243.912 872.645 242.784C872.645 242.1 873.557 241.344 874.685 241.344C875.837 241.344 876.593 242.136 876.593 243.336C876.593 244.5 875.921 245.364 874.781 245.364ZM878.75 244.944C878.75 244.944 879.542 246.144 881.222 246.144C882.866 246.144 884.15 244.932 884.15 243.372C884.15 241.848 882.938 240.624 881.246 240.624C880.49 240.624 879.962 240.948 879.962 240.948H879.938C879.938 240.948 879.986 240.768 880.022 240.468L880.262 238.308H883.622V237.564H879.542L879.086 241.656L879.614 241.848C879.614 241.848 880.25 241.392 881.15 241.392C882.35 241.392 883.286 242.22 883.286 243.372C883.286 244.524 882.35 245.352 881.186 245.352C879.902 245.352 879.278 244.368 879.278 244.368L878.75 244.944Z" fill="#404040"/>
<path d="M790.224 207H791.052V203.448H793.176L795.084 207H796.032L794.196 203.604C794.064 203.376 793.98 203.268 793.98 203.268V203.244C794.928 202.98 795.576 202.104 795.576 200.964C795.576 199.944 795.096 199.14 794.304 198.792C793.968 198.648 793.584 198.564 792.72 198.564H790.224V207ZM791.052 202.704V199.308H792.756C793.404 199.308 793.704 199.38 793.956 199.512C794.448 199.776 794.724 200.292 794.724 200.988C794.724 202.044 794.076 202.704 793.056 202.704H791.052ZM797.195 202.776C797.195 205.284 799.019 207.144 801.323 207.144C803.099 207.144 804.071 206.004 804.071 206.004H804.095C804.095 206.004 804.083 206.184 804.083 206.364V207H804.851V202.968H802.619V203.712H804.059V205.14C804.059 205.14 803.051 206.376 801.407 206.376C799.487 206.376 798.059 204.84 798.059 202.764C798.059 200.76 799.439 199.188 801.479 199.188C803.015 199.188 803.999 200.028 803.999 200.028L804.443 199.404C804.443 199.404 803.399 198.42 801.443 198.42C799.019 198.42 797.195 200.34 797.195 202.776ZM806.853 207H809.829C811.245 207 812.361 206.136 812.361 204.636C812.361 203.616 811.809 202.788 810.945 202.548V202.524C811.593 202.2 812.013 201.564 812.013 200.688C812.013 199.368 811.065 198.564 809.733 198.564H806.853V207ZM807.681 202.224V199.308H809.721C810.621 199.308 811.161 199.884 811.161 200.748C811.161 201.624 810.585 202.224 809.733 202.224H807.681ZM807.681 206.256V202.944H809.829C810.813 202.944 811.497 203.604 811.497 204.612C811.497 205.62 810.861 206.256 809.841 206.256H807.681Z" fill="#404040"/>
<path d="M789.66 222.728C789.66 225.188 791.436 227.144 793.932 227.144C796.008 227.144 797.16 225.836 797.16 225.836L796.68 225.248C796.68 225.248 795.648 226.376 793.944 226.376C791.94 226.376 790.524 224.732 790.524 222.716C790.524 220.724 791.94 219.188 793.92 219.188C795.504 219.188 796.488 220.124 796.488 220.124L796.932 219.512C796.932 219.512 795.912 218.42 793.896 218.42C791.484 218.42 789.66 220.28 789.66 222.728ZM798.69 227H799.518L799.986 221.096C800.022 220.64 800.01 219.896 800.01 219.896H800.034C800.034 219.896 800.298 220.676 800.49 221.096L802.47 225.428H803.25L805.23 221.096C805.422 220.664 805.674 219.92 805.674 219.92H805.698C805.698 219.92 805.686 220.64 805.722 221.096L806.19 227H807.018L806.346 218.564H805.494L803.286 223.52C803.094 223.952 802.866 224.552 802.866 224.552H802.842C802.842 224.552 802.626 223.952 802.434 223.52L800.226 218.564H799.362L798.69 227ZM810.891 227H811.731V223.376L814.563 218.564H813.627L811.839 221.624C811.575 222.068 811.323 222.632 811.323 222.632H811.299C811.299 222.632 811.035 222.056 810.783 221.624L808.995 218.564H808.047L810.891 223.376V227ZM815.982 227H816.81V222.968H818.238L820.65 227H821.622L818.934 222.572V222.548L821.454 218.564H820.506L818.238 222.224H816.81V218.564H815.982V227Z" fill="#404040"/>
<path d="M790.224 246H791.052V242.148H795.948V246H796.776V237.564H795.948V241.404H791.052V237.564H790.224V246ZM799.224 246H804.192V245.256H800.052V242.124H803.256V241.38H800.052V238.308H803.976V237.564H799.224V246ZM805.167 246H806.127L807.855 243.096C808.119 242.652 808.371 242.148 808.371 242.148H808.395C808.395 242.148 808.659 242.652 808.923 243.084L810.675 246H811.635L808.935 241.596L811.407 237.564H810.423L808.935 240.06C808.671 240.492 808.431 241.032 808.431 241.032H808.407C808.407 241.032 808.107 240.492 807.855 240.06L806.379 237.564H805.407L807.855 241.596L805.167 246Z" fill="#404040"/>
<rect x="595" y="28" width="169" height="150" rx="3" fill="#E20076"/>
<path d="M641.768 208.637H647.036V207.893H642.632C642.644 205.649 646.904 205.253 646.904 202.421C646.904 201.101 645.944 200.057 644.336 200.057C642.548 200.057 641.78 201.581 641.78 201.581L642.404 202.001C642.404 202.001 643.052 200.849 644.288 200.849C645.344 200.849 646.04 201.545 646.04 202.469C646.04 204.749 641.72 205.133 641.72 208.097C641.72 208.265 641.732 208.445 641.768 208.637ZM648.553 208.637H653.821V207.893H649.417C649.429 205.649 653.689 205.253 653.689 202.421C653.689 201.101 652.729 200.057 651.121 200.057C649.333 200.057 648.565 201.581 648.565 201.581L649.189 202.001C649.189 202.001 649.837 200.849 651.073 200.849C652.129 200.849 652.825 201.545 652.825 202.469C652.825 204.749 648.505 205.133 648.505 208.097C648.505 208.265 648.517 208.445 648.553 208.637ZM658.398 208.781C659.874 208.781 661.05 207.713 661.05 205.961C661.05 204.365 659.958 203.237 658.422 203.237C657.546 203.237 656.694 203.621 656.286 204.221H656.262C656.406 202.577 657.306 200.837 659.07 200.837C659.766 200.837 660.294 201.137 660.294 201.137L660.606 200.405C660.606 200.405 659.994 200.057 659.058 200.057C656.454 200.057 655.35 202.709 655.35 204.821C655.35 207.101 656.562 208.781 658.398 208.781ZM658.386 208.001C657.126 208.001 656.25 206.549 656.25 205.421C656.25 204.737 657.162 203.981 658.29 203.981C659.442 203.981 660.198 204.773 660.198 205.973C660.198 207.137 659.526 208.001 658.386 208.001ZM668.686 208.781C670.882 208.781 671.59 206.861 671.59 204.413C671.59 201.989 670.882 200.057 668.686 200.057C666.49 200.057 665.77 201.989 665.77 204.413C665.77 206.861 666.49 208.781 668.686 208.781ZM668.686 208.001C667.078 208.001 666.634 206.429 666.634 204.413C666.634 202.409 667.078 200.837 668.686 200.837C670.282 200.837 670.726 202.409 670.726 204.413C670.726 206.429 670.282 208.001 668.686 208.001ZM676.324 208.637H680.896V207.893H679.036V200.201H678.268L676.36 202.097L676.888 202.637L677.788 201.737C678.124 201.413 678.208 201.233 678.208 201.233H678.232C678.232 201.233 678.22 201.461 678.22 201.701V207.893H676.324V208.637ZM681.914 208.637H686.486V207.893H684.626V200.201H683.858L681.95 202.097L682.478 202.637L683.378 201.737C683.714 201.413 683.798 201.233 683.798 201.233H683.822C683.822 201.233 683.81 201.461 683.81 201.701V207.893H681.914V208.637ZM687.6 206.213C687.6 207.809 688.932 208.781 690.456 208.781C692.088 208.781 693.252 207.665 693.252 206.345C693.252 205.469 692.724 204.929 692.028 204.533C692.124 204.437 693.06 203.453 693.06 202.253C693.06 200.933 692.052 200.057 690.48 200.057C688.776 200.057 687.936 201.101 687.936 202.193C687.936 202.997 688.38 203.513 688.98 203.909C688.788 204.029 687.6 204.857 687.6 206.213ZM692.4 206.333C692.4 207.329 691.452 208.013 690.456 208.013C689.436 208.013 688.452 207.317 688.452 206.177C688.452 205.097 689.4 204.425 689.664 204.269C690.912 204.869 692.4 205.241 692.4 206.333ZM688.776 202.205C688.776 201.449 689.4 200.825 690.48 200.825C691.5 200.825 692.22 201.389 692.22 202.289C692.22 203.297 691.5 204.053 691.344 204.197C690.132 203.669 688.776 203.297 688.776 202.205Z" fill="#404040"/>
<path d="M644.756 228.781C646.952 228.781 647.66 226.861 647.66 224.413C647.66 221.989 646.952 220.057 644.756 220.057C642.56 220.057 641.84 221.989 641.84 224.413C641.84 226.861 642.56 228.781 644.756 228.781ZM644.756 228.001C643.148 228.001 642.704 226.429 642.704 224.413C642.704 222.409 643.148 220.837 644.756 220.837C646.352 220.837 646.796 222.409 646.796 224.413C646.796 226.429 646.352 228.001 644.756 228.001ZM652.395 228.637H656.967V227.893H655.107V220.201H654.339L652.431 222.097L652.959 222.637L653.859 221.737C654.195 221.413 654.279 221.233 654.279 221.233H654.303C654.303 221.233 654.291 221.461 654.291 221.701V227.893H652.395V228.637ZM661.069 228.781C663.265 228.781 663.973 226.861 663.973 224.413C663.973 221.989 663.265 220.057 661.069 220.057C658.873 220.057 658.153 221.989 658.153 224.413C658.153 226.861 658.873 228.781 661.069 228.781ZM661.069 228.001C659.461 228.001 659.017 226.429 659.017 224.413C659.017 222.409 659.461 220.837 661.069 220.837C662.665 220.837 663.109 222.409 663.109 224.413C663.109 226.429 662.665 228.001 661.069 228.001ZM668.569 228.781C670.765 228.781 671.473 226.861 671.473 224.413C671.473 221.989 670.765 220.057 668.569 220.057C666.373 220.057 665.653 221.989 665.653 224.413C665.653 226.861 666.373 228.781 668.569 228.781ZM668.569 228.001C666.961 228.001 666.517 226.429 666.517 224.413C666.517 222.409 666.961 220.837 668.569 220.837C670.165 220.837 670.609 222.409 670.609 224.413C670.609 226.429 670.165 228.001 668.569 228.001ZM675.943 226.297H680.167V228.637H680.995V226.297H682.195V225.565H680.995V220.201H680.095L675.943 225.757V226.297ZM676.951 225.565V225.541L679.759 221.881C679.987 221.581 680.179 221.245 680.179 221.245H680.203C680.203 221.245 680.167 221.677 680.167 222.037V225.565H676.951ZM683.463 226.213C683.463 227.809 684.795 228.781 686.319 228.781C687.951 228.781 689.115 227.665 689.115 226.345C689.115 225.469 688.587 224.929 687.891 224.533C687.987 224.437 688.923 223.453 688.923 222.253C688.923 220.933 687.915 220.057 686.343 220.057C684.639 220.057 683.799 221.101 683.799 222.193C683.799 222.997 684.243 223.513 684.843 223.909C684.651 224.029 683.463 224.857 683.463 226.213ZM688.263 226.333C688.263 227.329 687.315 228.013 686.319 228.013C685.299 228.013 684.315 227.317 684.315 226.177C684.315 225.097 685.263 224.425 685.527 224.269C686.775 224.869 688.263 225.241 688.263 226.333ZM684.639 222.205C684.639 221.449 685.263 220.825 686.343 220.825C687.363 220.825 688.083 221.389 688.083 222.289C688.083 223.297 687.363 224.053 687.207 224.197C685.995 223.669 684.639 223.297 684.639 222.205ZM693.809 228.637H698.381V227.893H696.521V220.201H695.753L693.845 222.097L694.373 222.637L695.273 221.737C695.609 221.413 695.693 221.233 695.693 221.233H695.717C695.717 221.233 695.705 221.461 695.705 221.701V227.893H693.809V228.637ZM699.399 228.637H703.971V227.893H702.111V220.201H701.343L699.435 222.097L699.963 222.637L700.863 221.737C701.199 221.413 701.283 221.233 701.283 221.233H701.307C701.307 221.233 701.295 221.461 701.295 221.701V227.893H699.399V228.637Z" fill="#404040"/>
<path d="M642.86 247.637H643.592L644 245.297H646.076L645.668 247.637H646.4L646.808 245.297H648.488L648.596 244.625H646.928L647.336 242.273H649.016L649.136 241.601H647.456L647.876 239.201H647.144L646.724 241.601H644.648L645.068 239.201H644.336L643.916 241.601H642.212L642.104 242.273H643.796L643.376 244.625H641.684L641.564 245.297H643.268L642.86 247.637ZM644.12 244.625L644.528 242.273H646.604L646.184 244.625H644.12ZM650.908 247.637H655.876V246.893H651.736V243.761H654.94V243.017H651.736V239.945H655.66V239.201H650.908V247.637ZM657.307 247.637H662.575V246.893H658.171C658.183 244.649 662.443 244.253 662.443 241.421C662.443 240.101 661.483 239.057 659.875 239.057C658.087 239.057 657.319 240.581 657.319 240.581L657.943 241.001C657.943 241.001 658.591 239.849 659.827 239.849C660.883 239.849 661.579 240.545 661.579 241.469C661.579 243.749 657.259 244.133 657.259 247.097C657.259 247.265 657.271 247.445 657.307 247.637ZM667.08 247.781C669.276 247.781 669.984 245.861 669.984 243.413C669.984 240.989 669.276 239.057 667.08 239.057C664.884 239.057 664.164 240.989 664.164 243.413C664.164 245.861 664.884 247.781 667.08 247.781ZM667.08 247.001C665.472 247.001 665.028 245.429 665.028 243.413C665.028 241.409 665.472 239.837 667.08 239.837C668.676 239.837 669.12 241.409 669.12 243.413C669.12 245.429 668.676 247.001 667.08 247.001ZM674.58 247.781C676.776 247.781 677.484 245.861 677.484 243.413C677.484 240.989 676.776 239.057 674.58 239.057C672.384 239.057 671.664 240.989 671.664 243.413C671.664 245.861 672.384 247.781 674.58 247.781ZM674.58 247.001C672.972 247.001 672.528 245.429 672.528 243.413C672.528 241.409 672.972 239.837 674.58 239.837C676.176 239.837 676.62 241.409 676.62 243.413C676.62 245.429 676.176 247.001 674.58 247.001ZM679.488 247.637H680.352L684.264 239.777V239.201H678.78V239.945H682.728C683.148 239.945 683.364 239.921 683.364 239.921V239.945C683.364 239.945 683.124 240.269 682.896 240.725L679.488 247.637ZM688.387 247.781C689.863 247.781 691.039 246.713 691.039 244.961C691.039 243.365 689.947 242.237 688.411 242.237C687.535 242.237 686.683 242.621 686.275 243.221H686.251C686.395 241.577 687.295 239.837 689.059 239.837C689.755 239.837 690.283 240.137 690.283 240.137L690.595 239.405C690.595 239.405 689.983 239.057 689.047 239.057C686.443 239.057 685.339 241.709 685.339 243.821C685.339 246.101 686.551 247.781 688.387 247.781ZM688.375 247.001C687.115 247.001 686.239 245.549 686.239 244.421C686.239 243.737 687.151 242.981 688.279 242.981C689.431 242.981 690.187 243.773 690.187 244.973C690.187 246.137 689.515 247.001 688.375 247.001Z" fill="#404040"/>
<path d="M596.224 208.637H597.052V205.085H599.176L601.084 208.637H602.032L600.196 205.241C600.064 205.013 599.98 204.905 599.98 204.905V204.881C600.928 204.617 601.576 203.741 601.576 202.601C601.576 201.581 601.096 200.777 600.304 200.429C599.968 200.285 599.584 200.201 598.72 200.201H596.224V208.637ZM597.052 204.341V200.945H598.756C599.404 200.945 599.704 201.017 599.956 201.149C600.448 201.413 600.724 201.929 600.724 202.625C600.724 203.681 600.076 204.341 599.056 204.341H597.052ZM603.195 204.413C603.195 206.921 605.019 208.781 607.323 208.781C609.099 208.781 610.071 207.641 610.071 207.641H610.095C610.095 207.641 610.083 207.821 610.083 208.001V208.637H610.851V204.605H608.619V205.349H610.059V206.777C610.059 206.777 609.051 208.013 607.407 208.013C605.487 208.013 604.059 206.477 604.059 204.401C604.059 202.397 605.439 200.825 607.479 200.825C609.015 200.825 609.999 201.665 609.999 201.665L610.443 201.041C610.443 201.041 609.399 200.057 607.443 200.057C605.019 200.057 603.195 201.977 603.195 204.413ZM612.853 208.637H615.829C617.245 208.637 618.361 207.773 618.361 206.273C618.361 205.253 617.809 204.425 616.945 204.185V204.161C617.593 203.837 618.013 203.201 618.013 202.325C618.013 201.005 617.065 200.201 615.733 200.201H612.853V208.637ZM613.681 203.861V200.945H615.721C616.621 200.945 617.161 201.521 617.161 202.385C617.161 203.261 616.585 203.861 615.733 203.861H613.681ZM613.681 207.893V204.581H615.829C616.813 204.581 617.497 205.241 617.497 206.249C617.497 207.257 616.861 207.893 615.841 207.893H613.681Z" fill="#404040"/>
<path d="M595.66 224.365C595.66 226.825 597.436 228.781 599.932 228.781C602.008 228.781 603.16 227.473 603.16 227.473L602.68 226.885C602.68 226.885 601.648 228.013 599.944 228.013C597.94 228.013 596.524 226.369 596.524 224.353C596.524 222.361 597.94 220.825 599.92 220.825C601.504 220.825 602.488 221.761 602.488 221.761L602.932 221.149C602.932 221.149 601.912 220.057 599.896 220.057C597.484 220.057 595.66 221.917 595.66 224.365ZM604.69 228.637H605.518L605.986 222.733C606.022 222.277 606.01 221.533 606.01 221.533H606.034C606.034 221.533 606.298 222.313 606.49 222.733L608.47 227.065H609.25L611.23 222.733C611.422 222.301 611.674 221.557 611.674 221.557H611.698C611.698 221.557 611.686 222.277 611.722 222.733L612.19 228.637H613.018L612.346 220.201H611.494L609.286 225.157C609.094 225.589 608.866 226.189 608.866 226.189H608.842C608.842 226.189 608.626 225.589 608.434 225.157L606.226 220.201H605.362L604.69 228.637ZM616.891 228.637H617.731V225.013L620.563 220.201H619.627L617.839 223.261C617.575 223.705 617.323 224.269 617.323 224.269H617.299C617.299 224.269 617.035 223.693 616.783 223.261L614.995 220.201H614.047L616.891 225.013V228.637ZM621.982 228.637H622.81V224.605H624.238L626.65 228.637H627.622L624.934 224.209V224.185L627.454 220.201H626.506L624.238 223.861H622.81V220.201H621.982V228.637Z" fill="#404040"/>
<path d="M596.224 247.637H597.052V243.785H601.948V247.637H602.776V239.201H601.948V243.041H597.052V239.201H596.224V247.637ZM605.224 247.637H610.192V246.893H606.052V243.761H609.256V243.017H606.052V239.945H609.976V239.201H605.224V247.637ZM611.167 247.637H612.127L613.855 244.733C614.119 244.289 614.371 243.785 614.371 243.785H614.395C614.395 243.785 614.659 244.289 614.923 244.721L616.675 247.637H617.635L614.935 243.233L617.407 239.201H616.423L614.935 241.697C614.671 242.129 614.431 242.669 614.431 242.669H614.407C614.407 242.669 614.107 242.129 613.855 241.697L612.379 239.201H611.407L613.855 243.233L611.167 247.637Z" fill="#404040"/>
<rect x="401" y="28" width="169" height="150" rx="3" fill="#A94E91"/>
<path d="M447.672 207.818H452.244V207.074H450.384V199.382H449.616L447.708 201.278L448.236 201.818L449.136 200.918C449.472 200.594 449.556 200.414 449.556 200.414H449.58C449.58 200.414 449.568 200.642 449.568 200.882V207.074H447.672V207.818ZM456.418 207.962C457.894 207.962 459.07 206.894 459.07 205.142C459.07 203.546 457.978 202.418 456.442 202.418C455.566 202.418 454.714 202.802 454.306 203.402H454.282C454.426 201.758 455.326 200.018 457.09 200.018C457.786 200.018 458.314 200.318 458.314 200.318L458.626 199.586C458.626 199.586 458.014 199.238 457.078 199.238C454.474 199.238 453.37 201.89 453.37 204.002C453.37 206.282 454.582 207.962 456.418 207.962ZM456.406 207.182C455.146 207.182 454.27 205.73 454.27 204.602C454.27 203.918 455.182 203.162 456.31 203.162C457.462 203.162 458.218 203.954 458.218 205.154C458.218 206.318 457.546 207.182 456.406 207.182ZM462.367 207.962C464.983 207.962 466.075 205.31 466.075 203.198C466.075 200.918 464.863 199.238 463.027 199.238C461.551 199.238 460.387 200.306 460.387 202.058C460.387 203.654 461.467 204.782 463.003 204.782C463.879 204.782 464.731 204.398 465.151 203.798H465.175C465.019 205.442 464.131 207.182 462.355 207.182C461.659 207.182 461.131 206.882 461.131 206.882L460.819 207.614C460.819 207.614 461.443 207.962 462.367 207.962ZM463.135 204.038C461.983 204.038 461.227 203.246 461.227 202.046C461.227 200.882 461.899 200.018 463.039 200.018C464.299 200.018 465.175 201.47 465.175 202.598C465.175 203.282 464.275 204.038 463.135 204.038ZM471.238 207.818H472.102L476.014 199.958V199.382H470.53V200.126H474.478C474.898 200.126 475.114 200.102 475.114 200.102V200.126C475.114 200.126 474.874 200.45 474.646 200.906L471.238 207.818ZM477.077 205.394C477.077 206.99 478.409 207.962 479.933 207.962C481.565 207.962 482.729 206.846 482.729 205.526C482.729 204.65 482.201 204.11 481.505 203.714C481.601 203.618 482.537 202.634 482.537 201.434C482.537 200.114 481.529 199.238 479.957 199.238C478.253 199.238 477.413 200.282 477.413 201.374C477.413 202.178 477.857 202.694 478.457 203.09C478.265 203.21 477.077 204.038 477.077 205.394ZM481.877 205.514C481.877 206.51 480.929 207.194 479.933 207.194C478.913 207.194 477.929 206.498 477.929 205.358C477.929 204.278 478.877 203.606 479.141 203.45C480.389 204.05 481.877 204.422 481.877 205.514ZM478.253 201.386C478.253 200.63 478.877 200.006 479.957 200.006C480.977 200.006 481.697 200.57 481.697 201.47C481.697 202.478 480.977 203.234 480.821 203.378C479.609 202.85 478.253 202.478 478.253 201.386ZM487.422 207.818H491.994V207.074H490.134V199.382H489.366L487.458 201.278L487.986 201.818L488.886 200.918C489.222 200.594 489.306 200.414 489.306 200.414H489.33C489.33 200.414 489.318 200.642 489.318 200.882V207.074H487.422V207.818ZM492.549 205.478H496.773V207.818H497.601V205.478H498.801V204.746H497.601V199.382H496.701L492.549 204.938V205.478ZM493.557 204.746V204.722L496.365 201.062C496.593 200.762 496.785 200.426 496.785 200.426H496.809C496.809 200.426 496.773 200.858 496.773 201.218V204.746H493.557ZM499.949 206.762C499.949 206.762 500.741 207.962 502.421 207.962C504.065 207.962 505.349 206.75 505.349 205.19C505.349 203.666 504.137 202.442 502.445 202.442C501.689 202.442 501.161 202.766 501.161 202.766H501.137C501.137 202.766 501.185 202.586 501.221 202.286L501.461 200.126H504.821V199.382H500.741L500.285 203.474L500.813 203.666C500.813 203.666 501.449 203.21 502.349 203.21C503.549 203.21 504.485 204.038 504.485 205.19C504.485 206.342 503.549 207.17 502.385 207.17C501.101 207.17 500.477 206.186 500.477 206.186L499.949 206.762Z" fill="#404040"/>
<path d="M450.756 227.962C452.952 227.962 453.66 226.042 453.66 223.594C453.66 221.17 452.952 219.238 450.756 219.238C448.56 219.238 447.84 221.17 447.84 223.594C447.84 226.042 448.56 227.962 450.756 227.962ZM450.756 227.182C449.148 227.182 448.704 225.61 448.704 223.594C448.704 221.59 449.148 220.018 450.756 220.018C452.352 220.018 452.796 221.59 452.796 223.594C452.796 225.61 452.352 227.182 450.756 227.182ZM458.371 226.762C458.371 226.762 459.163 227.962 460.843 227.962C462.487 227.962 463.771 226.75 463.771 225.19C463.771 223.666 462.559 222.442 460.867 222.442C460.111 222.442 459.583 222.766 459.583 222.766H459.559C459.559 222.766 459.607 222.586 459.643 222.286L459.883 220.126H463.243V219.382H459.163L458.707 223.474L459.235 223.666C459.235 223.666 459.871 223.21 460.771 223.21C461.971 223.21 462.907 224.038 462.907 225.19C462.907 226.342 461.971 227.17 460.807 227.17C459.523 227.17 458.899 226.186 458.899 226.186L458.371 226.762ZM464.822 225.478H469.046V227.818H469.874V225.478H471.074V224.746H469.874V219.382H468.974L464.822 224.938V225.478ZM465.83 224.746V224.722L468.638 221.062C468.866 220.762 469.058 220.426 469.058 220.426H469.082C469.082 220.426 469.046 220.858 469.046 221.218V224.746H465.83ZM475.469 227.818H480.041V227.074H478.181V219.382H477.413L475.505 221.278L476.033 221.818L476.933 220.918C477.269 220.594 477.353 220.414 477.353 220.414H477.377C477.377 220.414 477.365 220.642 477.365 220.882V227.074H475.469V227.818ZM480.596 225.478H484.82V227.818H485.648V225.478H486.848V224.746H485.648V219.382H484.748L480.596 224.938V225.478ZM481.604 224.746V224.722L484.412 221.062C484.64 220.762 484.832 220.426 484.832 220.426H484.856C484.856 220.426 484.82 220.858 484.82 221.218V224.746H481.604ZM491.11 226.81C491.11 226.81 492.13 227.962 493.786 227.962C495.382 227.962 496.558 226.762 496.558 225.322C496.558 223.498 494.986 222.898 493.918 222.838L496.438 219.934V219.382H491.506V220.126H494.674C495.118 220.126 495.358 220.09 495.358 220.09V220.114C495.358 220.114 495.142 220.318 494.914 220.582L492.802 223.054L493.006 223.546H493.582C494.686 223.546 495.706 224.158 495.706 225.346C495.706 226.426 494.782 227.17 493.774 227.17C492.478 227.17 491.614 226.174 491.614 226.174L491.11 226.81ZM497.717 225.478H501.941V227.818H502.769V225.478H503.969V224.746H502.769V219.382H501.869L497.717 224.938V225.478ZM498.725 224.746V224.722L501.533 221.062C501.761 220.762 501.953 220.426 501.953 220.426H501.977C501.977 220.426 501.941 220.858 501.941 221.218V224.746H498.725Z" fill="#404040"/>
<path d="M448.86 246.818H449.592L450 244.478H452.076L451.668 246.818H452.4L452.808 244.478H454.488L454.596 243.806H452.928L453.336 241.454H455.016L455.136 240.782H453.456L453.876 238.382H453.144L452.724 240.782H450.648L451.068 238.382H450.336L449.916 240.782H448.212L448.104 241.454H449.796L449.376 243.806H447.684L447.564 244.478H449.268L448.86 246.818ZM450.12 243.806L450.528 241.454H452.604L452.184 243.806H450.12ZM462.044 246.818H462.92L459.824 238.382H458.936L455.84 246.818H456.716L457.676 244.13H461.072L462.044 246.818ZM459.392 239.258C459.392 239.258 459.572 239.954 459.716 240.35L460.82 243.41H457.916L459.044 240.35C459.188 239.954 459.368 239.258 459.368 239.258H459.392ZM465.718 246.962C468.334 246.962 469.426 244.31 469.426 242.198C469.426 239.918 468.214 238.238 466.378 238.238C464.902 238.238 463.738 239.306 463.738 241.058C463.738 242.654 464.818 243.782 466.354 243.782C467.23 243.782 468.082 243.398 468.502 242.798H468.526C468.37 244.442 467.482 246.182 465.706 246.182C465.01 246.182 464.482 245.882 464.482 245.882L464.17 246.614C464.17 246.614 464.794 246.962 465.718 246.962ZM466.486 243.038C465.334 243.038 464.578 242.246 464.578 241.046C464.578 239.882 465.25 239.018 466.39 239.018C467.65 239.018 468.526 240.47 468.526 241.598C468.526 242.282 467.626 243.038 466.486 243.038ZM470.611 244.478H474.835V246.818H475.663V244.478H476.863V243.746H475.663V238.382H474.763L470.611 243.938V244.478ZM471.619 243.746V243.722L474.427 240.062C474.655 239.762 474.847 239.426 474.847 239.426H474.871C474.871 239.426 474.835 239.858 474.835 240.218V243.746H471.619ZM478.587 246.818H483.555V246.074H479.415V242.942H482.619V242.198H479.415V239.126H483.339V238.382H478.587V246.818ZM486.859 246.962C489.475 246.962 490.567 244.31 490.567 242.198C490.567 239.918 489.355 238.238 487.519 238.238C486.043 238.238 484.879 239.306 484.879 241.058C484.879 242.654 485.959 243.782 487.495 243.782C488.371 243.782 489.223 243.398 489.643 242.798H489.667C489.511 244.442 488.623 246.182 486.847 246.182C486.151 246.182 485.623 245.882 485.623 245.882L485.311 246.614C485.311 246.614 485.935 246.962 486.859 246.962ZM487.627 243.038C486.475 243.038 485.719 242.246 485.719 241.046C485.719 239.882 486.391 239.018 487.531 239.018C488.791 239.018 489.667 240.47 489.667 241.598C489.667 242.282 488.767 243.038 487.627 243.038ZM492.016 246.818H496.588V246.074H494.728V238.382H493.96L492.052 240.278L492.58 240.818L493.48 239.918C493.816 239.594 493.9 239.414 493.9 239.414H493.924C493.924 239.414 493.912 239.642 493.912 239.882V246.074H492.016V246.818Z" fill="#404040"/>
<path d="M402.224 207.818H403.052V204.266H405.176L407.084 207.818H408.032L406.196 204.422C406.064 204.194 405.98 204.086 405.98 204.086V204.062C406.928 203.798 407.576 202.922 407.576 201.782C407.576 200.762 407.096 199.958 406.304 199.61C405.968 199.466 405.584 199.382 404.72 199.382H402.224V207.818ZM403.052 203.522V200.126H404.756C405.404 200.126 405.704 200.198 405.956 200.33C406.448 200.594 406.724 201.11 406.724 201.806C406.724 202.862 406.076 203.522 405.056 203.522H403.052ZM409.195 203.594C409.195 206.102 411.019 207.962 413.323 207.962C415.099 207.962 416.071 206.822 416.071 206.822H416.095C416.095 206.822 416.083 207.002 416.083 207.182V207.818H416.851V203.786H414.619V204.53H416.059V205.958C416.059 205.958 415.051 207.194 413.407 207.194C411.487 207.194 410.059 205.658 410.059 203.582C410.059 201.578 411.439 200.006 413.479 200.006C415.015 200.006 415.999 200.846 415.999 200.846L416.443 200.222C416.443 200.222 415.399 199.238 413.443 199.238C411.019 199.238 409.195 201.158 409.195 203.594ZM418.853 207.818H421.829C423.245 207.818 424.361 206.954 424.361 205.454C424.361 204.434 423.809 203.606 422.945 203.366V203.342C423.593 203.018 424.013 202.382 424.013 201.506C424.013 200.186 423.065 199.382 421.733 199.382H418.853V207.818ZM419.681 203.042V200.126H421.721C422.621 200.126 423.161 200.702 423.161 201.566C423.161 202.442 422.585 203.042 421.733 203.042H419.681ZM419.681 207.074V203.762H421.829C422.813 203.762 423.497 204.422 423.497 205.43C423.497 206.438 422.861 207.074 421.841 207.074H419.681Z" fill="#404040"/>
<path d="M401.66 223.546C401.66 226.006 403.436 227.962 405.932 227.962C408.008 227.962 409.16 226.654 409.16 226.654L408.68 226.066C408.68 226.066 407.648 227.194 405.944 227.194C403.94 227.194 402.524 225.55 402.524 223.534C402.524 221.542 403.94 220.006 405.92 220.006C407.504 220.006 408.488 220.942 408.488 220.942L408.932 220.33C408.932 220.33 407.912 219.238 405.896 219.238C403.484 219.238 401.66 221.098 401.66 223.546ZM410.69 227.818H411.518L411.986 221.914C412.022 221.458 412.01 220.714 412.01 220.714H412.034C412.034 220.714 412.298 221.494 412.49 221.914L414.47 226.246H415.25L417.23 221.914C417.422 221.482 417.674 220.738 417.674 220.738H417.698C417.698 220.738 417.686 221.458 417.722 221.914L418.19 227.818H419.018L418.346 219.382H417.494L415.286 224.338C415.094 224.77 414.866 225.37 414.866 225.37H414.842C414.842 225.37 414.626 224.77 414.434 224.338L412.226 219.382H411.362L410.69 227.818ZM422.891 227.818H423.731V224.194L426.563 219.382H425.627L423.839 222.442C423.575 222.886 423.323 223.45 423.323 223.45H423.299C423.299 223.45 423.035 222.874 422.783 222.442L420.995 219.382H420.047L422.891 224.194V227.818ZM427.982 227.818H428.81V223.786H430.238L432.65 227.818H433.622L430.934 223.39V223.366L433.454 219.382H432.506L430.238 223.042H428.81V219.382H427.982V227.818Z" fill="#404040"/>
<path d="M402.224 246.818H403.052V242.966H407.948V246.818H408.776V238.382H407.948V242.222H403.052V238.382H402.224V246.818ZM411.224 246.818H416.192V246.074H412.052V242.942H415.256V242.198H412.052V239.126H415.976V238.382H411.224V246.818ZM417.167 246.818H418.127L419.855 243.914C420.119 243.47 420.371 242.966 420.371 242.966H420.395C420.395 242.966 420.659 243.47 420.923 243.902L422.675 246.818H423.635L420.935 242.414L423.407 238.382H422.423L420.935 240.878C420.671 241.31 420.431 241.85 420.431 241.85H420.407C420.407 241.85 420.107 241.31 419.855 240.878L418.379 238.382H417.407L419.855 242.414L417.167 246.818Z" fill="#404040"/>
<path d="M257.84 219H264.21V217.796H259.31C259.338 215.542 264.056 215.038 264.056 211.79C264.056 210.082 262.754 208.948 260.934 208.948C258.708 208.948 257.812 210.824 257.812 210.824L258.834 211.51C258.834 211.51 259.534 210.25 260.836 210.25C261.872 210.25 262.614 210.908 262.614 211.888C262.614 214.212 257.77 214.716 257.77 218.244C257.77 218.482 257.798 218.734 257.84 219ZM265.213 216.354H270.001V219H271.359V216.354H272.703V215.178H271.359V209.116H269.777L265.213 215.486V216.354ZM266.739 215.178V215.15L269.539 211.412C269.805 211.062 270.029 210.6 270.029 210.6H270.057C270.057 210.6 270.001 211.118 270.001 211.58V215.178H266.739ZM276.378 219.168C279.444 219.168 280.83 216.144 280.83 213.61C280.83 210.782 279.234 208.948 277.134 208.948C275.286 208.948 273.956 210.306 273.956 212.252C273.956 214.086 275.202 215.5 277.078 215.5C277.946 215.5 278.856 215.136 279.262 214.576H279.29C279.08 216.214 278.142 217.894 276.322 217.894C275.538 217.894 274.908 217.558 274.908 217.558L274.46 218.762C274.46 218.762 275.202 219.168 276.378 219.168ZM277.358 214.338C276.084 214.338 275.328 213.456 275.328 212.252C275.328 211.104 276 210.222 277.148 210.222C278.408 210.222 279.374 211.664 279.374 212.952C279.374 213.652 278.478 214.338 277.358 214.338ZM286.03 219H291.714V217.796H289.558V209.116H288.326L285.96 211.412L286.8 212.28L287.724 211.37C288.088 211.02 288.2 210.796 288.2 210.796H288.228C288.228 210.796 288.214 211.104 288.214 211.412V217.796H286.03V219ZM292.656 217.824C292.656 217.824 293.846 219.168 295.862 219.168C297.892 219.168 299.222 217.684 299.222 215.99C299.222 214.072 297.626 213.232 296.324 213.092L299.012 209.998V209.116H293.104V210.32H296.45C296.996 210.32 297.29 210.278 297.29 210.278V210.306C297.29 210.306 296.996 210.572 296.674 210.95L294.518 213.484L294.84 214.226H295.526C296.744 214.226 297.822 214.828 297.822 216.046C297.822 217.11 296.912 217.852 295.806 217.852C294.378 217.852 293.412 216.774 293.412 216.774L292.656 217.824ZM300.711 217.796C300.711 217.796 301.705 219.168 303.735 219.168C305.737 219.168 307.235 217.74 307.235 215.836C307.235 214.058 305.877 212.616 303.791 212.616C303.063 212.616 302.517 212.924 302.517 212.924H302.489C302.489 212.924 302.545 212.7 302.559 212.406L302.797 210.32H306.577V209.116H301.593L301.103 214.016L301.901 214.31C301.901 214.31 302.601 213.82 303.567 213.82C304.841 213.82 305.821 214.66 305.821 215.85C305.821 217.054 304.813 217.852 303.651 217.852C302.251 217.852 301.481 216.788 301.481 216.788L300.711 217.796ZM312.195 217.796C312.195 217.796 313.189 219.168 315.219 219.168C317.221 219.168 318.719 217.74 318.719 215.836C318.719 214.058 317.361 212.616 315.275 212.616C314.547 212.616 314.001 212.924 314.001 212.924H313.973C313.973 212.924 314.029 212.7 314.043 212.406L314.281 210.32H318.061V209.116H313.077L312.587 214.016L313.385 214.31C313.385 214.31 314.085 213.82 315.051 213.82C316.325 213.82 317.305 214.66 317.305 215.85C317.305 217.054 316.297 217.852 315.135 217.852C313.735 217.852 312.965 216.788 312.965 216.788L312.195 217.796ZM319.846 216.354H324.634V219H325.992V216.354H327.336V215.178H325.992V209.116H324.41L319.846 215.486V216.354ZM321.372 215.178V215.15L324.172 211.412C324.438 211.062 324.662 210.6 324.662 210.6H324.69C324.69 210.6 324.634 211.118 324.634 211.58V215.178H321.372Z" fill="#404040"/>
<path d="M261.368 240.168C264.014 240.168 264.868 237.9 264.868 235.044C264.868 232.202 264.014 229.948 261.368 229.948C258.736 229.948 257.882 232.202 257.882 235.044C257.882 237.9 258.736 240.168 261.368 240.168ZM261.368 238.894C259.758 238.894 259.296 237.2 259.296 235.044C259.296 232.902 259.758 231.222 261.368 231.222C262.992 231.222 263.454 232.902 263.454 235.044C263.454 237.2 262.992 238.894 261.368 238.894ZM269.78 237.354H274.568V240H275.926V237.354H277.27V236.178H275.926V230.116H274.344L269.78 236.486V237.354ZM271.306 236.178V236.15L274.106 232.412C274.372 232.062 274.596 231.6 274.596 231.6H274.624C274.624 231.6 274.568 232.118 274.568 232.58V236.178H271.306ZM282.358 240.168C284.206 240.168 285.536 238.81 285.536 236.864C285.536 235.03 284.29 233.602 282.414 233.602C281.546 233.602 280.65 233.98 280.23 234.54H280.202C280.412 232.902 281.35 231.222 283.17 231.222C283.954 231.222 284.584 231.544 284.584 231.544L285.032 230.354C285.032 230.354 284.276 229.948 283.114 229.948C280.048 229.948 278.662 232.972 278.662 235.506C278.662 238.32 280.244 240.168 282.358 240.168ZM282.344 238.894C281.084 238.894 280.118 237.452 280.118 236.164C280.118 235.45 281.014 234.778 282.134 234.778C283.394 234.778 284.164 235.66 284.164 236.864C284.164 238.012 283.478 238.894 282.344 238.894ZM291.017 240H292.445L296.911 231.068V230.116H290.303V231.32H294.713C295.217 231.32 295.441 231.278 295.441 231.278V231.306C295.441 231.306 295.147 231.656 294.867 232.216L291.017 240ZM298.021 237.144C298.021 238.936 299.491 240.168 301.465 240.168C303.523 240.168 304.853 238.81 304.853 237.27C304.853 236.248 304.265 235.632 303.509 235.17C303.635 235.03 304.685 233.91 304.685 232.594C304.685 230.97 303.411 229.948 301.577 229.948C299.491 229.948 298.497 231.222 298.497 232.538C298.497 233.448 298.959 234.05 299.603 234.512C299.337 234.694 298.021 235.632 298.021 237.144ZM303.425 237.228C303.425 238.25 302.501 238.922 301.465 238.922C300.415 238.922 299.435 238.194 299.435 237.06C299.435 235.996 300.303 235.324 300.625 235.1C301.955 235.744 303.425 236.164 303.425 237.228ZM299.869 232.566C299.869 231.81 300.471 231.194 301.563 231.194C302.599 231.194 303.327 231.768 303.327 232.678C303.327 233.714 302.613 234.47 302.459 234.624C301.185 234.078 299.869 233.658 299.869 232.566ZM310.162 240H316.532V238.796H311.632C311.66 236.542 316.378 236.038 316.378 232.79C316.378 231.082 315.076 229.948 313.256 229.948C311.03 229.948 310.134 231.824 310.134 231.824L311.156 232.51C311.156 232.51 311.856 231.25 313.158 231.25C314.194 231.25 314.936 231.908 314.936 232.888C314.936 235.212 310.092 235.716 310.092 239.244C310.092 239.482 310.12 239.734 310.162 240Z" fill="#404040"/>
<path d="M258.974 261H260.108L260.57 258.326H262.74L262.278 261H263.412L263.888 258.326H265.694L265.876 257.29H264.056L264.476 254.938H266.296L266.478 253.916H264.644L265.134 251.116H264L263.51 253.916H261.34L261.83 251.116H260.696L260.206 253.916H258.386L258.218 254.938H260.024L259.618 257.29H257.784L257.616 258.326H259.436L258.974 261ZM260.752 257.29L261.172 254.938H263.342L262.922 257.29H260.752ZM268.393 261H269.779V256.772H273.237V255.568H269.779V252.32H273.839V251.116H268.393V261ZM277.458 261.168C280.524 261.168 281.91 258.144 281.91 255.61C281.91 252.782 280.314 250.948 278.214 250.948C276.366 250.948 275.036 252.306 275.036 254.252C275.036 256.086 276.282 257.5 278.158 257.5C279.026 257.5 279.936 257.136 280.342 256.576H280.37C280.16 258.214 279.222 259.894 277.402 259.894C276.618 259.894 275.988 259.558 275.988 259.558L275.54 260.762C275.54 260.762 276.282 261.168 277.458 261.168ZM278.438 256.338C277.164 256.338 276.408 255.456 276.408 254.252C276.408 253.104 277.08 252.222 278.228 252.222C279.488 252.222 280.454 253.664 280.454 254.952C280.454 255.652 279.558 256.338 278.438 256.338ZM283.528 258.144C283.528 259.936 284.998 261.168 286.972 261.168C289.03 261.168 290.36 259.81 290.36 258.27C290.36 257.248 289.772 256.632 289.016 256.17C289.142 256.03 290.192 254.91 290.192 253.594C290.192 251.97 288.918 250.948 287.084 250.948C284.998 250.948 284.004 252.222 284.004 253.538C284.004 254.448 284.466 255.05 285.11 255.512C284.844 255.694 283.528 256.632 283.528 258.144ZM288.932 258.228C288.932 259.25 288.008 259.922 286.972 259.922C285.922 259.922 284.942 259.194 284.942 258.06C284.942 256.996 285.81 256.324 286.132 256.1C287.462 256.744 288.932 257.164 288.932 258.228ZM285.376 253.566C285.376 252.81 285.978 252.194 287.07 252.194C288.106 252.194 288.834 252.768 288.834 253.678C288.834 254.714 288.12 255.47 287.966 255.624C286.692 255.078 285.376 254.658 285.376 253.566ZM292.438 261H293.866L298.332 252.068V251.116H291.724V252.32H296.134C296.638 252.32 296.862 252.278 296.862 252.278V252.306C296.862 252.306 296.568 252.656 296.288 253.216L292.438 261ZM299.205 259.824C299.205 259.824 300.395 261.168 302.411 261.168C304.441 261.168 305.771 259.684 305.771 257.99C305.771 256.072 304.175 255.232 302.873 255.092L305.561 251.998V251.116H299.653V252.32H302.999C303.545 252.32 303.839 252.278 303.839 252.278V252.306C303.839 252.306 303.545 252.572 303.223 252.95L301.067 255.484L301.389 256.226H302.075C303.293 256.226 304.371 256.828 304.371 258.046C304.371 259.11 303.461 259.852 302.355 259.852C300.927 259.852 299.961 258.774 299.961 258.774L299.205 259.824ZM311.11 261.168C312.958 261.168 314.288 259.81 314.288 257.864C314.288 256.03 313.042 254.602 311.166 254.602C310.298 254.602 309.402 254.98 308.982 255.54H308.954C309.164 253.902 310.102 252.222 311.922 252.222C312.706 252.222 313.336 252.544 313.336 252.544L313.784 251.354C313.784 251.354 313.028 250.948 311.866 250.948C308.8 250.948 307.414 253.972 307.414 256.506C307.414 259.32 308.996 261.168 311.11 261.168ZM311.096 259.894C309.836 259.894 308.87 258.452 308.87 257.164C308.87 256.45 309.766 255.778 310.886 255.778C312.146 255.778 312.916 256.66 312.916 257.864C312.916 259.012 312.23 259.894 311.096 259.894Z" fill="#404040"/>
<path d="M208.344 219H209.73V215.066H211.844L213.93 219H215.498L213.398 215.164C213.216 214.842 213.104 214.716 213.104 214.716V214.688C214.182 214.338 214.882 213.274 214.882 212.014C214.882 210.712 214.224 209.718 213.216 209.34C212.838 209.2 212.404 209.116 211.368 209.116H208.344V219ZM209.73 213.862V210.32H211.326C212.096 210.32 212.418 210.404 212.684 210.544C213.188 210.824 213.468 211.342 213.468 212.07C213.468 213.176 212.796 213.862 211.718 213.862H209.73ZM216.655 214.044C216.655 217.068 218.853 219.168 221.513 219.168C223.473 219.168 224.551 217.964 224.551 217.964H224.579C224.579 217.964 224.565 218.174 224.565 218.384V219H225.783V214.03H222.913V215.234H224.523V216.662C224.523 216.662 223.431 217.894 221.723 217.894C219.651 217.894 218.083 216.312 218.083 214.016C218.083 211.902 219.483 210.208 221.807 210.208C223.487 210.208 224.593 211.174 224.593 211.174L225.293 210.138C225.293 210.138 224.061 208.948 221.695 208.948C218.811 208.948 216.655 211.188 216.655 214.044ZM227.949 219H231.491C233.227 219 234.669 218.048 234.669 216.186C234.669 215.08 234.081 214.1 233.045 213.792V213.764C233.801 213.372 234.277 212.602 234.277 211.636C234.277 210.04 233.073 209.116 231.407 209.116H227.949V219ZM229.335 213.274V210.32H231.379C232.331 210.32 232.863 210.908 232.863 211.776C232.863 212.644 232.303 213.274 231.407 213.274H229.335ZM229.335 217.796V214.422H231.547C232.583 214.422 233.255 215.108 233.255 216.116C233.255 217.124 232.625 217.796 231.561 217.796H229.335Z" fill="#404040"/>
<path d="M207.672 235.002C207.672 237.9 209.758 240.168 212.726 240.168C215.204 240.168 216.562 238.6 216.562 238.6L215.82 237.606C215.82 237.606 214.63 238.894 212.768 238.894C210.57 238.894 209.1 237.102 209.1 234.988C209.1 232.888 210.542 231.208 212.754 231.208C214.462 231.208 215.61 232.286 215.61 232.286L216.296 231.25C216.296 231.25 215.078 229.948 212.698 229.948C209.828 229.948 207.672 232.132 207.672 235.002ZM218.14 240H219.526L220.002 233.77C220.044 233.168 220.03 232.286 220.03 232.286H220.058C220.058 232.286 220.366 233.238 220.59 233.77L222.55 238.222H223.782L225.756 233.77C225.994 233.224 226.288 232.314 226.288 232.314H226.316C226.316 232.314 226.288 233.168 226.33 233.77L226.82 240H228.192L227.394 230.116H225.938L223.67 235.464C223.446 236.01 223.18 236.794 223.18 236.794H223.152C223.152 236.794 222.886 236.01 222.662 235.464L220.394 230.116H218.938L218.14 240ZM232.524 240H233.91V235.814L237.214 230.116H235.646L233.84 233.364C233.532 233.924 233.238 234.61 233.238 234.61H233.21C233.21 234.61 232.916 233.91 232.608 233.364L230.774 230.116H229.206L232.524 235.814V240ZM238.668 240H240.054V235.464H241.524L244.156 240H245.724L242.672 234.834V234.806L245.542 230.116H244.016L241.524 234.274H240.054V230.116H238.668V240Z" fill="#404040"/>
<path d="M208.344 261H209.73V256.66H214.854V261H216.24V251.116H214.854V255.456H209.73V251.116H208.344V261ZM218.926 261H224.904V259.796H220.312V256.618H223.854V255.414H220.312V252.32H224.666V251.116H218.926V261ZM225.915 261H227.469L229.261 257.962C229.583 257.416 229.849 256.828 229.849 256.828H229.877C229.877 256.828 230.185 257.402 230.507 257.962L232.299 261H233.867L230.745 255.904L233.671 251.116H232.075L230.521 253.79C230.199 254.336 229.919 254.966 229.919 254.966H229.891C229.891 254.966 229.569 254.322 229.261 253.79L227.707 251.116H226.111L229.037 255.904L225.915 261Z" fill="#404040"/>
<path d="M97.5 292.5L13.0625 146.25L181.937 146.25L97.5 292.5Z" fill="#F98736"/>
<path d="M257.84 39.75H264.21V38.546H259.31C259.338 36.292 264.056 35.788 264.056 32.54C264.056 30.832 262.754 29.698 260.934 29.698C258.708 29.698 257.812 31.574 257.812 31.574L258.834 32.26C258.834 32.26 259.534 31 260.836 31C261.872 31 262.614 31.658 262.614 32.638C262.614 34.962 257.77 35.466 257.77 38.994C257.77 39.232 257.798 39.484 257.84 39.75ZM265.852 39.75H272.222V38.546H267.322C267.35 36.292 272.068 35.788 272.068 32.54C272.068 30.832 270.766 29.698 268.946 29.698C266.72 29.698 265.824 31.574 265.824 31.574L266.846 32.26C266.846 32.26 267.546 31 268.848 31C269.884 31 270.626 31.658 270.626 32.638C270.626 34.962 265.782 35.466 265.782 38.994C265.782 39.232 265.81 39.484 265.852 39.75ZM276.131 39.918C279.197 39.918 280.583 36.894 280.583 34.36C280.583 31.532 278.987 29.698 276.887 29.698C275.039 29.698 273.709 31.056 273.709 33.002C273.709 34.836 274.955 36.25 276.831 36.25C277.699 36.25 278.609 35.886 279.015 35.326H279.043C278.833 36.964 277.895 38.644 276.075 38.644C275.291 38.644 274.661 38.308 274.661 38.308L274.213 39.512C274.213 39.512 274.955 39.918 276.131 39.918ZM277.111 35.088C275.837 35.088 275.081 34.206 275.081 33.002C275.081 31.854 275.753 30.972 276.901 30.972C278.161 30.972 279.127 32.414 279.127 33.702C279.127 34.402 278.231 35.088 277.111 35.088ZM285.84 39.75H292.21V38.546H287.31C287.338 36.292 292.056 35.788 292.056 32.54C292.056 30.832 290.754 29.698 288.934 29.698C286.708 29.698 285.812 31.574 285.812 31.574L286.834 32.26C286.834 32.26 287.534 31 288.836 31C289.872 31 290.614 31.658 290.614 32.638C290.614 34.962 285.77 35.466 285.77 38.994C285.77 39.232 285.798 39.484 285.84 39.75ZM297.391 39.75H303.075V38.546H300.919V29.866H299.687L297.321 32.162L298.161 33.03L299.085 32.12C299.449 31.77 299.561 31.546 299.561 31.546H299.589C299.589 31.546 299.575 31.854 299.575 32.162V38.546H297.391V39.75ZM304.017 38.574C304.017 38.574 305.207 39.918 307.223 39.918C309.253 39.918 310.583 38.434 310.583 36.74C310.583 34.822 308.987 33.982 307.685 33.842L310.373 30.748V29.866H304.465V31.07H307.811C308.357 31.07 308.651 31.028 308.651 31.028V31.056C308.651 31.056 308.357 31.322 308.035 31.7L305.879 34.234L306.201 34.976H306.887C308.105 34.976 309.183 35.578 309.183 36.796C309.183 37.86 308.273 38.602 307.167 38.602C305.739 38.602 304.773 37.524 304.773 37.524L304.017 38.574ZM314.508 39.918C317.574 39.918 318.96 36.894 318.96 34.36C318.96 31.532 317.364 29.698 315.264 29.698C313.416 29.698 312.086 31.056 312.086 33.002C312.086 34.836 313.332 36.25 315.208 36.25C316.076 36.25 316.986 35.886 317.392 35.326H317.42C317.21 36.964 316.272 38.644 314.452 38.644C313.668 38.644 313.038 38.308 313.038 38.308L312.59 39.512C312.59 39.512 313.332 39.918 314.508 39.918ZM315.488 35.088C314.214 35.088 313.458 34.206 313.458 33.002C313.458 31.854 314.13 30.972 315.278 30.972C316.538 30.972 317.504 32.414 317.504 33.702C317.504 34.402 316.608 35.088 315.488 35.088Z" fill="#404040"/>
<path d="M261.368 60.918C264.014 60.918 264.868 58.65 264.868 55.794C264.868 52.952 264.014 50.698 261.368 50.698C258.736 50.698 257.882 52.952 257.882 55.794C257.882 58.65 258.736 60.918 261.368 60.918ZM261.368 59.644C259.758 59.644 259.296 57.95 259.296 55.794C259.296 53.652 259.758 51.972 261.368 51.972C262.992 51.972 263.454 53.652 263.454 55.794C263.454 57.95 262.992 59.644 261.368 59.644ZM272.454 60.918C275.52 60.918 276.906 57.894 276.906 55.36C276.906 52.532 275.31 50.698 273.21 50.698C271.362 50.698 270.032 52.056 270.032 54.002C270.032 55.836 271.278 57.25 273.154 57.25C274.022 57.25 274.932 56.886 275.338 56.326H275.366C275.156 57.964 274.218 59.644 272.398 59.644C271.614 59.644 270.984 59.308 270.984 59.308L270.536 60.512C270.536 60.512 271.278 60.918 272.454 60.918ZM273.434 56.088C272.16 56.088 271.404 55.206 271.404 54.002C271.404 52.854 272.076 51.972 273.224 51.972C274.484 51.972 275.45 53.414 275.45 54.702C275.45 55.402 274.554 56.088 273.434 56.088ZM280.835 60.918C283.901 60.918 285.287 57.894 285.287 55.36C285.287 52.532 283.691 50.698 281.591 50.698C279.743 50.698 278.413 52.056 278.413 54.002C278.413 55.836 279.659 57.25 281.535 57.25C282.403 57.25 283.313 56.886 283.719 56.326H283.747C283.537 57.964 282.599 59.644 280.779 59.644C279.995 59.644 279.365 59.308 279.365 59.308L278.917 60.512C278.917 60.512 279.659 60.918 280.835 60.918ZM281.815 56.088C280.541 56.088 279.785 55.206 279.785 54.002C279.785 52.854 280.457 51.972 281.605 51.972C282.865 51.972 283.831 53.414 283.831 54.702C283.831 55.402 282.935 56.088 281.815 56.088ZM290.263 59.574C290.263 59.574 291.453 60.918 293.469 60.918C295.499 60.918 296.829 59.434 296.829 57.74C296.829 55.822 295.233 54.982 293.931 54.842L296.619 51.748V50.866H290.711V52.07H294.057C294.603 52.07 294.897 52.028 294.897 52.028V52.056C294.897 52.056 294.603 52.322 294.281 52.7L292.125 55.234L292.447 55.976H293.133C294.351 55.976 295.429 56.578 295.429 57.796C295.429 58.86 294.519 59.602 293.413 59.602C291.985 59.602 291.019 58.524 291.019 58.524L290.263 59.574ZM300.754 60.918C303.82 60.918 305.206 57.894 305.206 55.36C305.206 52.532 303.61 50.698 301.51 50.698C299.662 50.698 298.332 52.056 298.332 54.002C298.332 55.836 299.578 57.25 301.454 57.25C302.322 57.25 303.232 56.886 303.638 56.326H303.666C303.456 57.964 302.518 59.644 300.698 59.644C299.914 59.644 299.284 59.308 299.284 59.308L298.836 60.512C298.836 60.512 299.578 60.918 300.754 60.918ZM301.734 56.088C300.46 56.088 299.704 55.206 299.704 54.002C299.704 52.854 300.376 51.972 301.524 51.972C302.784 51.972 303.75 53.414 303.75 54.702C303.75 55.402 302.854 56.088 301.734 56.088ZM310.407 60.75H316.091V59.546H313.935V50.866H312.703L310.337 53.162L311.177 54.03L312.101 53.12C312.465 52.77 312.577 52.546 312.577 52.546H312.605C312.605 52.546 312.591 52.854 312.591 53.162V59.546H310.407V60.75ZM320.841 60.918C323.487 60.918 324.341 58.65 324.341 55.794C324.341 52.952 323.487 50.698 320.841 50.698C318.209 50.698 317.355 52.952 317.355 55.794C317.355 58.65 318.209 60.918 320.841 60.918ZM320.841 59.644C319.231 59.644 318.769 57.95 318.769 55.794C318.769 53.652 319.231 51.972 320.841 51.972C322.465 51.972 322.927 53.652 322.927 55.794C322.927 57.95 322.465 59.644 320.841 59.644Z" fill="#404040"/>
<path d="M258.974 81.75H260.108L260.57 79.076H262.74L262.278 81.75H263.412L263.888 79.076H265.694L265.876 78.04H264.056L264.476 75.688H266.296L266.478 74.666H264.644L265.134 71.866H264L263.51 74.666H261.34L261.83 71.866H260.696L260.206 74.666H258.386L258.218 75.688H260.024L259.618 78.04H257.784L257.616 79.076H259.436L258.974 81.75ZM260.752 78.04L261.172 75.688H263.342L262.922 78.04H260.752ZM268.393 81.75H274.371V80.546H269.779V77.368H273.321V76.164H269.779V73.07H274.133V71.866H268.393V81.75ZM275.746 80.546C275.746 80.546 276.74 81.918 278.77 81.918C280.772 81.918 282.27 80.49 282.27 78.586C282.27 76.808 280.912 75.366 278.826 75.366C278.098 75.366 277.552 75.674 277.552 75.674H277.524C277.524 75.674 277.58 75.45 277.594 75.156L277.832 73.07H281.612V71.866H276.628L276.138 76.766L276.936 77.06C276.936 77.06 277.636 76.57 278.602 76.57C279.876 76.57 280.856 77.41 280.856 78.6C280.856 79.804 279.848 80.602 278.686 80.602C277.286 80.602 276.516 79.538 276.516 79.538L275.746 80.546ZM287.331 81.918C289.977 81.918 290.831 79.65 290.831 76.794C290.831 73.952 289.977 71.698 287.331 71.698C284.699 71.698 283.845 73.952 283.845 76.794C283.845 79.65 284.699 81.918 287.331 81.918ZM287.331 80.644C285.721 80.644 285.259 78.95 285.259 76.794C285.259 74.652 285.721 72.972 287.331 72.972C288.955 72.972 289.417 74.652 289.417 76.794C289.417 78.95 288.955 80.644 287.331 80.644ZM292.553 81.75H298.923V80.546H294.023C294.051 78.292 298.769 77.788 298.769 74.54C298.769 72.832 297.467 71.698 295.647 71.698C293.421 71.698 292.525 73.574 292.525 73.574L293.547 74.26C293.547 74.26 294.247 73 295.549 73C296.585 73 297.327 73.658 297.327 74.638C297.327 76.962 292.483 77.466 292.483 80.994C292.483 81.232 292.511 81.484 292.553 81.75ZM300.523 78.894C300.523 80.686 301.993 81.918 303.967 81.918C306.025 81.918 307.355 80.56 307.355 79.02C307.355 77.998 306.767 77.382 306.011 76.92C306.137 76.78 307.187 75.66 307.187 74.344C307.187 72.72 305.913 71.698 304.079 71.698C301.993 71.698 300.999 72.972 300.999 74.288C300.999 75.198 301.461 75.8 302.105 76.262C301.839 76.444 300.523 77.382 300.523 78.894ZM305.927 78.978C305.927 80 305.003 80.672 303.967 80.672C302.917 80.672 301.937 79.944 301.937 78.81C301.937 77.746 302.805 77.074 303.127 76.85C304.457 77.494 305.927 77.914 305.927 78.978ZM302.371 74.316C302.371 73.56 302.973 72.944 304.065 72.944C305.101 72.944 305.829 73.518 305.829 74.428C305.829 75.464 305.115 76.22 304.961 76.374C303.687 75.828 302.371 75.408 302.371 74.316ZM309.573 81.75H313.115C314.851 81.75 316.293 80.798 316.293 78.936C316.293 77.83 315.705 76.85 314.669 76.542V76.514C315.425 76.122 315.901 75.352 315.901 74.386C315.901 72.79 314.697 71.866 313.031 71.866H309.573V81.75ZM310.959 76.024V73.07H313.003C313.955 73.07 314.487 73.658 314.487 74.526C314.487 75.394 313.927 76.024 313.031 76.024H310.959ZM310.959 80.546V77.172H313.171C314.207 77.172 314.879 77.858 314.879 78.866C314.879 79.874 314.249 80.546 313.185 80.546H310.959Z" fill="#404040"/>
<path d="M208.344 39.75H209.73V35.816H211.844L213.93 39.75H215.498L213.398 35.914C213.216 35.592 213.104 35.466 213.104 35.466V35.438C214.182 35.088 214.882 34.024 214.882 32.764C214.882 31.462 214.224 30.468 213.216 30.09C212.838 29.95 212.404 29.866 211.368 29.866H208.344V39.75ZM209.73 34.612V31.07H211.326C212.096 31.07 212.418 31.154 212.684 31.294C213.188 31.574 213.468 32.092 213.468 32.82C213.468 33.926 212.796 34.612 211.718 34.612H209.73ZM216.655 34.794C216.655 37.818 218.853 39.918 221.513 39.918C223.473 39.918 224.551 38.714 224.551 38.714H224.579C224.579 38.714 224.565 38.924 224.565 39.134V39.75H225.783V34.78H222.913V35.984H224.523V37.412C224.523 37.412 223.431 38.644 221.723 38.644C219.651 38.644 218.083 37.062 218.083 34.766C218.083 32.652 219.483 30.958 221.807 30.958C223.487 30.958 224.593 31.924 224.593 31.924L225.293 30.888C225.293 30.888 224.061 29.698 221.695 29.698C218.811 29.698 216.655 31.938 216.655 34.794ZM227.949 39.75H231.491C233.227 39.75 234.669 38.798 234.669 36.936C234.669 35.83 234.081 34.85 233.045 34.542V34.514C233.801 34.122 234.277 33.352 234.277 32.386C234.277 30.79 233.073 29.866 231.407 29.866H227.949V39.75ZM229.335 34.024V31.07H231.379C232.331 31.07 232.863 31.658 232.863 32.526C232.863 33.394 232.303 34.024 231.407 34.024H229.335ZM229.335 38.546V35.172H231.547C232.583 35.172 233.255 35.858 233.255 36.866C233.255 37.874 232.625 38.546 231.561 38.546H229.335Z" fill="#404040"/>
<path d="M207.672 55.752C207.672 58.65 209.758 60.918 212.726 60.918C215.204 60.918 216.562 59.35 216.562 59.35L215.82 58.356C215.82 58.356 214.63 59.644 212.768 59.644C210.57 59.644 209.1 57.852 209.1 55.738C209.1 53.638 210.542 51.958 212.754 51.958C214.462 51.958 215.61 53.036 215.61 53.036L216.296 52C216.296 52 215.078 50.698 212.698 50.698C209.828 50.698 207.672 52.882 207.672 55.752ZM218.14 60.75H219.526L220.002 54.52C220.044 53.918 220.03 53.036 220.03 53.036H220.058C220.058 53.036 220.366 53.988 220.59 54.52L222.55 58.972H223.782L225.756 54.52C225.994 53.974 226.288 53.064 226.288 53.064H226.316C226.316 53.064 226.288 53.918 226.33 54.52L226.82 60.75H228.192L227.394 50.866H225.938L223.67 56.214C223.446 56.76 223.18 57.544 223.18 57.544H223.152C223.152 57.544 222.886 56.76 222.662 56.214L220.394 50.866H218.938L218.14 60.75ZM232.524 60.75H233.91V56.564L237.214 50.866H235.646L233.84 54.114C233.532 54.674 233.238 55.36 233.238 55.36H233.21C233.21 55.36 232.916 54.66 232.608 54.114L230.774 50.866H229.206L232.524 56.564V60.75ZM238.668 60.75H240.054V56.214H241.524L244.156 60.75H245.724L242.672 55.584V55.556L245.542 50.866H244.016L241.524 55.024H240.054V50.866H238.668V60.75Z" fill="#404040"/>
<path d="M208.344 81.75H209.73V77.41H214.854V81.75H216.24V71.866H214.854V76.206H209.73V71.866H208.344V81.75ZM218.926 81.75H224.904V80.546H220.312V77.368H223.854V76.164H220.312V73.07H224.666V71.866H218.926V81.75ZM225.915 81.75H227.469L229.261 78.712C229.583 78.166 229.849 77.578 229.849 77.578H229.877C229.877 77.578 230.185 78.152 230.507 78.712L232.299 81.75H233.867L230.745 76.654L233.671 71.866H232.075L230.521 74.54C230.199 75.086 229.919 75.716 229.919 75.716H229.891C229.891 75.716 229.569 75.072 229.261 74.54L227.707 71.866H226.111L229.037 76.654L225.915 81.75Z" fill="#404040"/>
<path d="M97.5 0L181.937 146.25H13.0625L97.5 0Z" fill="#E5028B"/>
</svg>
