<svg width="518" height="150" viewBox="0 0 518 150" fill="none" xmlns="http://www.w3.org/2000/svg">
<path d="M180.709 50.2975C192.851 50.2975 198.868 57.3677 198.868 57.3677L194.473 63.8147C190.887 60.3247 186.1 58.3407 181.096 58.2703C171.35 58.2703 164.269 65.5339 164.269 75.4623C164.269 85.3907 171.35 92.8477 181.375 92.8477C190.358 92.8477 196.289 86.4007 196.289 86.4007L200.018 93.1808C200.018 93.1808 193.324 100.917 180.677 100.917C165.483 100.917 154.781 90.1722 154.781 75.602C154.813 61.2466 165.473 50.2975 180.709 50.2975Z" fill="#808285"/>
<path d="M231.169 50.2975C245.599 50.2975 257.258 60.9028 257.258 75.5267C257.258 90.1507 245.599 100.939 231.169 100.939C216.738 100.939 205.08 90.1937 205.08 75.5267C205.08 60.8598 216.738 50.2975 231.169 50.2975ZM231.169 92.9121C240.345 92.9121 247.791 85.6485 247.791 75.5267C247.791 65.405 240.345 58.3347 231.169 58.3347C221.993 58.3347 214.536 65.5017 214.536 75.5267C214.536 85.5518 222.089 92.9121 231.169 92.9121Z" fill="#808285"/>
<path d="M266.303 51.4471H275.253V59.8496C275.253 61.0625 275.192 62.2747 275.071 63.4814H275.253C277.456 56.4112 283.097 50.8776 290.543 50.8776C291.345 50.8828 292.146 50.9438 292.94 51.0602V60.2365C292.06 60.0492 291.163 59.952 290.264 59.9463C284.333 59.9463 278.885 64.1584 276.693 71.3253C275.877 74.149 275.489 77.0792 275.543 80.018V99.7995H266.303V51.4471Z" fill="#808285"/>
<path d="M320.749 50.2975C334.406 50.2975 341.67 60.43 341.67 72.9479C341.67 74.1836 341.391 76.9558 341.391 76.9558H306.126C306.598 87.5611 314.152 92.9121 322.748 92.9121C331.065 92.9121 337.082 87.2818 337.082 87.2818L340.907 94.0619C335.684 98.5134 329.042 100.952 322.179 100.939C306.985 100.939 296.562 89.9573 296.562 75.6234C296.562 60.2366 306.985 50.2975 320.749 50.2975ZM332.214 69.9823C331.924 61.6657 326.767 57.6578 320.556 57.6578C313.486 57.6578 307.748 62.0525 306.416 69.9823H332.214Z" fill="#808285"/>
<path d="M351.039 51.4472H359.538V55.5518C359.538 57.4644 359.356 59.0869 359.356 59.0869H359.538C359.538 59.0869 363.654 50.2975 375.785 50.2975C388.786 50.2975 397.006 60.6234 397.006 75.6234C397.006 91.0103 387.733 100.939 375.119 100.939C372.172 101.031 369.253 100.347 366.654 98.9548C364.056 97.563 361.868 95.5125 360.312 93.0088H360.119C360.254 94.4087 360.319 95.8145 360.312 97.2209V118.894H351.039V51.4472ZM373.69 93.0088C381.329 93.0088 387.658 86.7015 387.658 75.7201C387.658 65.2008 382.017 58.4207 373.99 58.4207C366.727 58.4207 360.022 63.4816 360.022 75.8168C360.022 84.4128 364.793 93.0088 373.69 93.0088Z" fill="#58595B"/>
<path d="M405.893 32.3317H415.155V84.9822C415.155 90.8167 417.454 91.8698 420.312 91.8698C420.858 91.8681 421.403 91.8358 421.946 91.7731V99.9822C420.93 100.107 419.907 100.172 418.883 100.176C413.629 100.176 405.893 98.7466 405.893 86.6047V32.3317Z" fill="#58595B"/>
<path d="M429.209 51.447H438.471V80.3081C438.471 86.9915 439.814 92.3425 447.551 92.3425C457.393 92.3425 463.228 83.6498 463.228 74.076V51.447H472.49V99.7995H463.507V93.3525C463.505 92.1714 463.569 90.9912 463.7 89.8174H463.507C461.908 93.1654 459.386 95.9868 456.237 97.9494C453.089 99.9121 449.445 100.934 445.735 100.895C434.839 100.895 429.209 95.1684 429.209 82.3604V51.447Z" fill="#58595B"/>
<path d="M485.673 87.2818C489.43 90.8136 494.368 92.8207 499.523 92.9121C503.542 92.9121 507.55 90.7632 507.55 86.895C507.55 78.0088 482.707 79.8247 482.707 64.0618C482.707 55.2724 490.541 50.2975 500.19 50.2975C510.806 50.2975 515.77 55.67 515.77 55.67L512.041 62.6435C508.731 59.7837 504.477 58.2524 500.104 58.3455C496.085 58.3455 492.163 60.0647 492.163 64.2767C492.163 72.9694 517.016 71.0568 517.016 86.9164C517.016 94.943 510.129 100.96 499.523 100.96C492.72 101.094 486.135 98.5559 481.182 93.8899L485.673 87.2818Z" fill="#58595B"/>
<path d="M356.54 139.476C358.737 139.476 360.545 137.617 360.545 134.444C360.545 131.271 358.932 129.437 356.644 129.437C354.563 129.437 352.612 130.933 352.612 134.47C352.612 136.979 354.004 139.476 356.579 139.476H356.54ZM351 128.202H352.612V129.411C352.63 129.736 352.63 130.061 352.612 130.386C353.008 129.596 353.627 128.94 354.392 128.499C355.157 128.057 356.035 127.85 356.917 127.903C360.272 127.903 362.352 130.581 362.352 134.405C362.352 138.228 359.999 140.907 356.774 140.907C355.939 140.931 355.114 140.72 354.392 140.3C353.671 139.879 353.081 139.265 352.69 138.527C352.709 138.891 352.709 139.255 352.69 139.619V145.601H351V128.202Z" fill="#808285"/>
<path d="M365.525 128.201H367.19V130.412C367.207 130.741 367.207 131.071 367.19 131.4V131.4C367.388 130.497 367.876 129.683 368.581 129.084C369.286 128.485 370.168 128.134 371.091 128.084C371.314 128.087 371.535 128.109 371.754 128.149V129.814C371.546 129.798 371.338 129.798 371.13 129.814C370.258 129.883 369.432 130.235 368.78 130.818C368.127 131.4 367.683 132.18 367.515 133.039C367.282 133.828 367.168 134.648 367.177 135.471V140.672H365.486L365.525 128.201Z" fill="#808285"/>
<path d="M377.841 139.528C380.221 139.528 381.651 137.044 381.651 134.898V134.352H380.91C378.946 134.352 375.032 134.417 375.032 137.174C375.048 137.516 375.134 137.851 375.284 138.158C375.435 138.465 375.648 138.738 375.91 138.959C376.171 139.18 376.475 139.344 376.803 139.442C377.131 139.54 377.475 139.569 377.815 139.528H377.841ZM380.936 132.961H381.625V132.597C381.695 132.169 381.664 131.73 381.535 131.317C381.406 130.903 381.183 130.524 380.883 130.211C380.583 129.899 380.214 129.66 379.806 129.514C379.397 129.368 378.961 129.32 378.53 129.372C377.263 129.391 376.035 129.81 375.019 130.568L374.226 129.268C375.503 128.311 377.065 127.812 378.66 127.85C381.651 127.85 383.316 129.515 383.316 132.636V140.62H381.703V139.255C381.684 138.908 381.684 138.561 381.703 138.214C381.349 139.021 380.766 139.706 380.027 140.185C379.287 140.663 378.423 140.914 377.542 140.906C375.461 140.906 373.303 139.697 373.303 137.226C373.303 133.013 378.777 132.909 380.936 132.909" fill="#808285"/>
<path d="M392.898 127.902C393.741 127.872 394.58 128.015 395.365 128.321C396.15 128.627 396.864 129.091 397.463 129.684L396.592 130.984C395.62 130.025 394.315 129.48 392.95 129.463C392.296 129.451 391.647 129.574 391.042 129.824C390.438 130.073 389.891 130.444 389.435 130.913C388.979 131.382 388.624 131.94 388.392 132.551C388.161 133.163 388.057 133.816 388.087 134.469C388.064 135.125 388.175 135.779 388.412 136.391C388.65 137.003 389.01 137.56 389.47 138.028C389.929 138.496 390.48 138.866 391.087 139.115C391.695 139.364 392.346 139.487 393.002 139.476C393.75 139.47 394.49 139.312 395.174 139.01C395.858 138.708 396.474 138.269 396.982 137.72L397.749 139.021C397.115 139.657 396.358 140.159 395.524 140.494C394.69 140.829 393.797 140.992 392.898 140.971C391.174 140.971 389.52 140.286 388.301 139.067C387.082 137.847 386.396 136.194 386.396 134.469C386.396 132.745 387.082 131.091 388.301 129.872C389.52 128.652 391.174 127.967 392.898 127.967" fill="#808285"/>
<path d="M401.299 129.762H399.66V128.358H401.325V124.795H403.015V128.397H406.136V129.801H403.015V136.004C403.015 138.917 404.875 139.294 405.811 139.294C406.001 139.314 406.193 139.314 406.383 139.294V140.802C406.145 140.823 405.906 140.823 405.668 140.802C404.238 140.802 401.338 140.334 401.338 136.173L401.299 129.762Z" fill="#808285"/>
<path d="M409.128 128.202H410.818V140.659H409.128V128.202ZM409.128 123.247H410.818V125.354H409.062L409.128 123.247Z" fill="#808285"/>
<path d="M420.545 127.902C421.387 127.872 422.226 128.015 423.011 128.321C423.796 128.627 424.51 129.091 425.109 129.684L424.238 130.984C423.267 130.025 421.962 129.48 420.597 129.463C419.269 129.463 417.996 129.99 417.057 130.929C416.118 131.868 415.59 133.141 415.59 134.469C415.59 135.797 416.118 137.07 417.057 138.009C417.996 138.948 419.269 139.476 420.597 139.476C421.347 139.472 422.088 139.314 422.775 139.012C423.461 138.71 424.079 138.27 424.589 137.72L425.356 139.021C424.722 139.657 423.965 140.159 423.131 140.494C422.298 140.829 421.404 140.992 420.506 140.971C418.781 140.971 417.128 140.286 415.908 139.067C414.689 137.847 414.004 136.194 414.004 134.469C414.004 132.745 414.689 131.091 415.908 129.872C417.128 128.652 418.781 127.967 420.506 127.967" fill="#808285"/>
<path d="M437.241 133.13C437.137 130.529 435.551 129.32 433.691 129.32C432.629 129.298 431.598 129.679 430.805 130.386C430.012 131.092 429.514 132.072 429.413 133.13H437.241ZM433.743 127.928C437.189 127.928 438.945 130.529 438.945 133.676C438.945 133.975 438.945 134.547 438.945 134.547H429.387C429.354 135.195 429.456 135.843 429.687 136.45C429.917 137.057 430.271 137.609 430.725 138.072C431.18 138.535 431.725 138.899 432.328 139.141C432.93 139.382 433.576 139.496 434.225 139.476C435.627 139.448 436.972 138.912 438.009 137.967L438.776 139.268C437.495 140.371 435.863 140.984 434.172 140.997C433.311 141.026 432.452 140.878 431.65 140.561C430.848 140.245 430.12 139.767 429.51 139.157C428.901 138.548 428.423 137.819 428.106 137.017C427.79 136.215 427.642 135.357 427.671 134.495C427.613 133.657 427.73 132.817 428.013 132.026C428.296 131.235 428.74 130.512 429.317 129.901C429.893 129.29 430.59 128.806 431.363 128.477C432.136 128.149 432.969 127.984 433.808 127.993" fill="#808285"/>
<path d="M448.828 123.247H450.519V129.996C450.536 130.334 450.536 130.673 450.519 131.01C450.955 130.069 451.656 129.276 452.536 128.726C453.415 128.177 454.436 127.895 455.473 127.915C458.542 127.915 459.634 129.684 459.634 132.753V140.685H457.944V133.195C457.944 131.244 457.658 129.502 455.252 129.502C454.211 129.514 453.203 129.868 452.383 130.51C451.562 131.151 450.976 132.044 450.714 133.052C450.567 133.59 450.501 134.146 450.519 134.704V140.685H448.828V123.247Z" fill="#808285"/>
<path d="M467.009 139.528C469.389 139.528 470.832 137.044 470.832 134.898V134.352H470.117C468.153 134.352 464.239 134.417 464.239 137.174C464.255 137.515 464.34 137.848 464.491 138.155C464.641 138.461 464.852 138.733 465.112 138.954C465.372 139.174 465.675 139.339 466.001 139.438C466.327 139.537 466.67 139.567 467.009 139.528ZM470.13 132.961H470.832V132.597C470.902 132.169 470.871 131.731 470.742 131.317C470.614 130.903 470.39 130.524 470.09 130.211C469.79 129.899 469.421 129.66 469.013 129.514C468.604 129.368 468.168 129.32 467.737 129.372C466.467 129.393 465.234 129.811 464.213 130.568L463.42 129.268C464.699 128.314 466.26 127.815 467.854 127.85C470.858 127.85 472.51 129.515 472.51 132.636V140.62H470.91V139.255C470.91 138.63 470.91 138.214 470.91 138.214C470.556 139.023 469.971 139.71 469.228 140.188C468.486 140.667 467.619 140.917 466.736 140.906C464.655 140.906 462.51 139.697 462.51 137.226C462.51 133.013 467.984 132.909 470.13 132.909" fill="#808285"/>
<path d="M482.001 139.476C484.212 139.476 486.019 137.616 486.019 134.443C486.019 131.271 484.407 129.437 482.118 129.437C480.038 129.437 478.074 130.932 478.074 134.469C478.074 136.979 479.465 139.476 482.04 139.476H482.001ZM476.436 128.202H478.048V129.411C478.066 129.736 478.066 130.061 478.048 130.386C478.446 129.595 479.067 128.938 479.834 128.497C480.602 128.055 481.482 127.849 482.365 127.902C485.707 127.902 487.788 130.581 487.788 134.404C487.788 138.228 485.434 140.906 482.209 140.906C481.375 140.928 480.551 140.716 479.83 140.296C479.109 139.876 478.519 139.263 478.126 138.527C478.145 138.891 478.145 139.255 478.126 139.619V145.601H476.436V128.202Z" fill="#808285"/>
<path d="M496.644 139.476C498.842 139.476 500.663 137.616 500.663 134.443C500.663 131.271 499.05 129.437 496.761 129.437C494.681 129.437 492.717 130.932 492.717 134.469C492.717 136.979 494.109 139.476 496.618 139.476H496.644ZM491.014 128.202H492.626V129.411C492.644 129.736 492.644 130.061 492.626 130.386C493.024 129.595 493.645 128.938 494.412 128.497C495.18 128.055 496.06 127.849 496.943 127.902C500.285 127.902 502.366 130.581 502.366 134.404C502.366 138.228 500.012 140.906 496.787 140.906C495.965 140.925 495.153 140.718 494.44 140.308C493.727 139.897 493.14 139.299 492.743 138.579V138.579C492.762 138.943 492.762 139.307 492.743 139.671V145.601H491.053L491.014 128.202Z" fill="#808285"/>
<path d="M504.368 143.793C504.795 144.124 505.312 144.319 505.851 144.352C506.943 144.352 507.71 143.468 508.204 142.324L508.972 140.568L503.77 128.201H505.63L509.297 137.304C509.544 137.928 509.739 138.605 509.739 138.605C509.86 138.164 510.003 137.73 510.168 137.304L513.757 128.201H515.591L509.44 143.273C509.186 144.026 508.704 144.68 508.061 145.147C507.417 145.613 506.645 145.867 505.851 145.874C505.062 145.865 504.297 145.605 503.666 145.133L504.368 143.793Z" fill="#808285"/>
<path d="M136.709 50.7271H87.0137L115.488 100.025L136.709 50.7271Z" fill="url(#paint0_linear_2877_1151)"/>
<path d="M115.487 100.036V38.1234L86.6152 50.0396L115.487 100.036Z" fill="#FDC17B"/>
<path d="M86.616 50.0181L115.488 100.036H57.7441L86.616 50.0181Z" fill="#F68A33"/>
<path d="M57.7546 0.0108032L86.6157 50.0073H28.8828L57.7546 0.0108032Z" fill="#FFCB3B"/>
<path d="M28.8711 50.0073H86.6255L57.7429 100.036L28.8711 50.0073Z" fill="#E4018B"/>
<path d="M31.1708 53.9614L31.1602 53.9721V53.9614H31.1708Z" fill="#E51E25"/>
<path d="M57.7544 0L28.8826 50.0072L0 0H57.7544Z" fill="#FFF68F"/>
<path d="M45.3331 78.5245L57.7436 100.004H0L28.8718 50.0073L45.3331 78.5245Z" fill="#60C5BA"/>
<path d="M0 100.004H57.7436L28.8718 150L0 100.004Z" fill="#B0DFE3"/>
<defs>
<linearGradient id="paint0_linear_2877_1151" x1="4769.83" y1="3508.99" x2="6486.82" y2="2510.1" gradientUnits="userSpaceOnUse">
<stop offset="0.24" stop-color="#BCBEC0"/>
<stop offset="1" stop-color="#E6E7E8"/>
</linearGradient>
</defs>
</svg>
