<svg width="1099" height="1761" viewBox="0 0 1099 1761" fill="none" xmlns="http://www.w3.org/2000/svg">
<g filter="url(#filter0_d)">
<rect width="751" height="1652" transform="translate(7 102)" fill="white"/>
<rect x="63.0444" y="1263.59" width="638.91" height="375.013" rx="27.7787" fill="#FFD9C5"/>
<path fill-rule="evenodd" clip-rule="evenodd" d="M444.122 1450.34C449.24 1452.9 449.24 1460.2 444.122 1462.76L336.993 1516.32C332.375 1518.63 326.942 1515.28 326.942 1510.11V1402.98C326.942 1397.82 332.375 1394.46 336.993 1396.77L444.122 1450.34Z" fill="#F54B23"/>
<rect x="63.0449" y="835.408" width="638.91" height="25.7806" rx="6.97138" fill="#E0E7EC"/>
<rect x="63.0449" y="1023.16" width="638.91" height="25.7806" rx="6.97138" fill="#E0E7EC"/>
<rect x="63.0449" y="1698.5" width="618.174" height="25.7806" rx="6.97138" fill="#E0E7EC"/>
<rect x="63.0449" y="1172.24" width="638.91" height="25.7806" rx="6.97138" fill="#E0E7EC"/>
<rect x="63.0449" y="980.562" width="578.382" height="25.7806" rx="6.97138" fill="#72808A"/>
<rect x="63.0449" y="1655.9" width="578.382" height="25.7806" rx="6.97138" fill="#72808A"/>
<rect x="63.0449" y="872.396" width="555.964" height="26.341" rx="6.97138" fill="#E0E7EC"/>
<rect x="63.0449" y="1060.15" width="555.964" height="26.341" rx="6.97138" fill="#E0E7EC"/>
<rect x="63.0449" y="1134.69" width="555.964" height="26.341" rx="6.97138" fill="#E0E7EC"/>
<rect x="63.0449" y="1209.23" width="597.998" height="26.341" rx="6.97138" fill="#E0E7EC"/>
<rect x="63.0449" y="909.947" width="584.547" height="25.7806" rx="6.97138" fill="#E0E7EC"/>
<rect x="63.0449" y="1097.7" width="604.163" height="25.7806" rx="6.97138" fill="#E0E7EC"/>
<rect x="63.606" y="631.404" width="312.169" height="175.595" rx="7.80424" fill="#E0E7EC"/>
<path fill-rule="evenodd" clip-rule="evenodd" d="M233.434 711.015C235.947 711.015 237.984 708.96 237.984 706.425C237.984 703.891 235.947 701.836 233.434 701.836C230.921 701.836 228.883 703.891 228.883 706.425C228.883 708.96 230.921 711.015 233.434 711.015ZM220.897 738.806H194.653C193.122 738.806 192.187 737.123 192.997 735.824L210.46 707.784C211.212 706.577 212.954 706.546 213.737 707.733C216.468 711.874 222.07 720.384 226.889 727.8L231.948 719.63C232.683 718.443 234.389 718.389 235.197 719.526L246.733 735.753C247.647 737.038 246.744 738.819 245.168 738.834L233.988 738.944L220.897 738.806Z" fill="#94A2AB"/>
<rect x="389.786" y="631.404" width="312.169" height="175.595" rx="7.80424" fill="#E0E7EC"/>
<path fill-rule="evenodd" clip-rule="evenodd" d="M559.614 711.015C562.128 711.015 564.165 708.96 564.165 706.425C564.165 703.891 562.128 701.836 559.614 701.836C557.101 701.836 555.064 703.891 555.064 706.425C555.064 708.96 557.101 711.015 559.614 711.015ZM547.078 738.806H520.834C519.303 738.806 518.368 737.123 519.177 735.824L536.641 707.784C537.393 706.577 539.135 706.546 539.918 707.733C542.649 711.874 548.251 720.384 553.07 727.8L558.129 719.63C558.863 718.443 560.569 718.389 561.378 719.526L572.914 735.753C573.827 737.038 572.924 738.819 571.348 738.834L560.169 738.944L547.078 738.806Z" fill="#94A2AB"/>
<rect x="63.0444" y="503.062" width="638.91" height="25.7806" rx="6.97138" fill="#E0E7EC"/>
<rect x="63.0444" y="540.051" width="555.964" height="26.341" rx="6.97138" fill="#E0E7EC"/>
<rect x="63.0444" y="577.602" width="584.547" height="25.7806" rx="6.97138" fill="#E0E7EC"/>
<rect x="63.0444" y="132" width="312.73" height="312.73" rx="1.56365" fill="#E0E7EC"/>
<path fill-rule="evenodd" clip-rule="evenodd" d="M234.867 277.632C237.779 277.632 240.14 275.251 240.14 272.314C240.14 269.377 237.779 266.996 234.867 266.996C231.955 266.996 229.594 269.377 229.594 272.314C229.594 275.251 231.955 277.632 234.867 277.632ZM220.298 309.835H189.93C188.156 309.835 187.073 307.885 188.011 306.379L208.247 273.888C209.118 272.49 211.137 272.454 212.044 273.829C215.209 278.628 221.7 288.488 227.284 297.082L233.146 287.615C233.997 286.24 235.974 286.177 236.91 287.495L250.278 306.297C251.336 307.786 250.29 309.85 248.464 309.868L235.51 309.995L220.298 309.835Z" fill="#94A2AB"/>
<rect x="449.754" y="342.102" width="197.838" height="19.6157" rx="5.28378" fill="#E0E7EC"/>
<rect x="407.16" y="381.895" width="77.3418" height="15.1321" rx="7.56605" fill="#E0E7EC"/>
<rect x="498.513" y="381.895" width="77.3418" height="15.1321" rx="7.56605" fill="#E0E7EC"/>
<rect x="589.865" y="381.895" width="77.3418" height="15.1321" rx="7.56605" fill="#E0E7EC"/>
<rect x="407.16" y="408.234" width="100.32" height="15.1321" rx="7.56605" fill="#E0E7EC"/>
<rect x="521.491" y="408.234" width="93.0343" height="15.1321" rx="7.56605" fill="#E0E7EC"/>
<rect x="628.537" y="408.234" width="73.4187" height="15.1321" rx="7.56605" fill="#E0E7EC"/>
<path fill-rule="evenodd" clip-rule="evenodd" d="M423.132 367.883C431.954 367.883 439.105 360.732 439.105 351.91C439.105 343.089 431.954 335.938 423.132 335.938C414.311 335.938 407.16 343.089 407.16 351.91C407.16 360.732 414.311 367.883 423.132 367.883Z" fill="#F3F5F8"/>
<path fill-rule="evenodd" clip-rule="evenodd" d="M426.171 349.312C426.171 350.818 424.933 352.039 423.407 352.039C421.88 352.039 420.643 350.818 420.643 349.312C420.643 347.807 421.88 346.586 423.407 346.586C424.933 346.586 426.171 347.807 426.171 349.312ZM418.397 358.344C418.397 355.615 420.64 353.402 423.407 353.402C426.174 353.402 428.416 355.615 428.416 358.344H418.397Z" fill="#C7D3DC"/>
<rect x="407.16" y="247.496" width="294.796" height="19.6157" rx="5.28378" fill="#E0E7EC"/>
<rect x="407.16" y="273.277" width="294.796" height="19.6157" rx="5.28378" fill="#E0E7EC"/>
<rect x="407.16" y="299.059" width="294.796" height="19.6157" rx="5.28378" fill="#E0E7EC"/>
<rect x="407.16" y="153.342" width="294.796" height="71.7373" rx="8.40672" fill="#94A2AB"/>
<rect x="63.6055" y="472.797" width="638.35" height="5.60448" rx="2.80224" fill="#E0E7EC"/>
</g>
<path d="M855 83H243C231.954 83 223 91.9543 223 103V109" stroke="#737373" stroke-width="2"/>
<path fill-rule="evenodd" clip-rule="evenodd" d="M223.894 120.211C223.526 120.948 222.474 120.948 222.106 120.211L216.724 109.447C216.391 108.782 216.875 108 217.618 108H228.382C229.125 108 229.609 108.782 229.276 109.447L223.894 120.211Z" fill="#737373"/>
<path d="M716 725.002L855 724" stroke="#72808A" stroke-width="2"/>
<path fill-rule="evenodd" clip-rule="evenodd" d="M710.789 724.106C710.052 724.474 710.052 725.526 710.789 725.894L721.553 731.276C722.218 731.609 723 731.125 723 730.382L723 719.618C723 718.875 722.218 718.391 721.553 718.724L710.789 724.106Z" fill="#72808A"/>
<path d="M716 893.002L855 892" stroke="#72808A" stroke-width="2"/>
<path fill-rule="evenodd" clip-rule="evenodd" d="M710.789 892.106C710.052 892.474 710.052 893.526 710.789 893.894L721.553 899.276C722.218 899.609 723 899.125 723 898.382L723 887.618C723 886.875 722.218 886.391 721.553 886.724L710.789 892.106Z" fill="#72808A"/>
<path d="M716 993.002L855 992" stroke="#72808A" stroke-width="2"/>
<path fill-rule="evenodd" clip-rule="evenodd" d="M710.789 992.106C710.052 992.474 710.052 993.526 710.789 993.894L721.553 999.276C722.218 999.609 723 999.125 723 998.382L723 987.618C723 986.875 722.218 986.391 721.553 986.724L710.789 992.106Z" fill="#72808A"/>
<path d="M716 1146L855 1145" stroke="#72808A" stroke-width="2"/>
<path fill-rule="evenodd" clip-rule="evenodd" d="M710.789 1145.11C710.052 1145.47 710.052 1146.53 710.789 1146.89L721.553 1152.28C722.218 1152.61 723 1152.13 723 1151.38L723 1140.62C723 1139.87 722.218 1139.39 721.553 1139.72L710.789 1145.11Z" fill="#72808A"/>
<path d="M716 1457L855 1456" stroke="#72808A" stroke-width="2"/>
<path fill-rule="evenodd" clip-rule="evenodd" d="M710.789 1456.11C710.052 1456.47 710.052 1457.53 710.789 1457.89L721.553 1463.28C722.218 1463.61 723 1463.13 723 1462.38L723 1451.62C723 1450.87 722.218 1450.39 721.553 1450.72L710.789 1456.11Z" fill="#72808A"/>
<path d="M716 1689L855 1688" stroke="#72808A" stroke-width="2"/>
<path fill-rule="evenodd" clip-rule="evenodd" d="M710.789 1688.11C710.052 1688.47 710.052 1689.53 710.789 1689.89L721.553 1695.28C722.218 1695.61 723 1695.13 723 1694.38L723 1683.62C723 1682.87 722.218 1682.39 721.553 1682.72L710.789 1688.11Z" fill="#72808A"/>
<path d="M855 113H583C571.954 113 563 121.954 563 133V139" stroke="#737373" stroke-width="2"/>
<path fill-rule="evenodd" clip-rule="evenodd" d="M563.894 150.211C563.526 150.948 562.474 150.948 562.106 150.211L556.724 139.447C556.391 138.782 556.875 138 557.618 138H568.382C569.125 138 569.609 138.782 569.276 139.447L563.894 150.211Z" fill="#737373"/>
<path d="M716 283.002L855 282" stroke="#72808A" stroke-width="2"/>
<path fill-rule="evenodd" clip-rule="evenodd" d="M710.789 282.106C710.052 282.474 710.052 283.526 710.789 283.894L721.553 289.276C722.218 289.609 723 289.125 723 288.382L723 277.618C723 276.875 722.218 276.391 721.553 276.724L710.789 282.106Z" fill="#72808A"/>
<path d="M666 352.002L855 351" stroke="#72808A" stroke-width="2"/>
<path fill-rule="evenodd" clip-rule="evenodd" d="M660.789 351.106C660.052 351.474 660.052 352.526 660.789 352.894L671.553 358.276C672.218 358.609 673 358.125 673 357.382L673 346.618C673 345.875 672.218 345.391 671.553 345.724L660.789 351.106Z" fill="#72808A"/>
<path d="M716 405.002L855 404" stroke="#72808A" stroke-width="2"/>
<path fill-rule="evenodd" clip-rule="evenodd" d="M710.789 404.106C710.052 404.474 710.052 405.526 710.789 405.894L721.553 411.276C722.218 411.609 723 411.125 723 410.382L723 399.618C723 398.875 722.218 398.391 721.553 398.724L710.789 404.106Z" fill="#72808A"/>
<path d="M716 476.002L855 475" stroke="#72808A" stroke-width="2"/>
<path fill-rule="evenodd" clip-rule="evenodd" d="M710.789 475.106C710.052 475.474 710.052 476.526 710.789 476.894L721.553 482.276C722.218 482.609 723 482.125 723 481.382L723 470.618C723 469.875 722.218 469.391 721.553 469.724L710.789 475.106Z" fill="#72808A"/>
<path d="M716 556.002L855 555" stroke="#72808A" stroke-width="2"/>
<path fill-rule="evenodd" clip-rule="evenodd" d="M710.789 555.106C710.052 555.474 710.052 556.526 710.789 556.894L721.553 562.276C722.218 562.609 723 562.125 723 561.382L723 550.618C723 549.875 722.218 549.391 721.553 549.724L710.789 555.106Z" fill="#72808A"/>
<path d="M871.536 88H875.584C877.568 88 879.216 86.912 879.216 84.784C879.216 83.52 878.544 82.4 877.36 82.048V82.016C878.224 81.568 878.768 80.688 878.768 79.584C878.768 77.76 877.392 76.704 875.488 76.704H871.536V88ZM873.12 81.456V78.08H875.456C876.544 78.08 877.152 78.752 877.152 79.744C877.152 80.736 876.512 81.456 875.488 81.456H873.12ZM873.12 86.624V82.768H875.648C876.832 82.768 877.6 83.552 877.6 84.704C877.6 85.856 876.88 86.624 875.664 86.624H873.12ZM881.261 85.792C881.261 87.824 882.557 88.064 883.437 88.064C883.709 88.064 883.949 88.032 883.949 88.032V86.656C883.949 86.656 883.821 86.672 883.677 86.672C883.197 86.672 882.813 86.496 882.813 85.52V76.704H881.261V85.792ZM884.999 83.936C884.999 86.4 886.951 88.192 889.367 88.192C891.783 88.192 893.735 86.4 893.735 83.936C893.735 81.488 891.783 79.712 889.367 79.712C886.951 79.712 884.999 81.488 884.999 83.936ZM886.583 83.936C886.583 82.256 887.847 81.056 889.367 81.056C890.903 81.056 892.151 82.256 892.151 83.936C892.151 85.632 890.903 86.848 889.367 86.848C887.847 86.848 886.583 85.632 886.583 83.936ZM896.295 89.472L895.783 90.688C896.567 91.088 897.575 91.36 898.551 91.36C900.599 91.36 902.631 90.336 902.631 87.664V79.904H901.143V80.656C901.143 80.8 901.159 80.912 901.159 80.912H901.127C901.127 80.912 900.535 79.712 898.583 79.712C896.343 79.712 895.047 81.44 895.047 83.76C895.047 86.096 896.407 87.904 898.663 87.904C899.831 87.904 900.583 87.44 901.063 86.64H901.095C901.095 86.64 901.079 86.896 901.079 87.152V87.744C901.079 89.392 899.927 90.016 898.519 90.016C897.303 90.016 896.295 89.472 896.295 89.472ZM898.967 86.56C897.511 86.56 896.615 85.408 896.615 83.728C896.615 82.08 897.415 81.056 898.823 81.056C900.087 81.056 901.111 81.664 901.111 83.776C901.111 85.888 900.087 86.56 898.967 86.56ZM909.489 88H911.073V76.704H909.489V88ZM913.825 88H915.377V84.304C915.377 83.936 915.393 83.568 915.473 83.248C915.777 82.096 916.609 81.12 917.793 81.12C919.041 81.12 919.201 82.096 919.201 83.152V88H920.753V84.304C920.753 83.888 920.785 83.52 920.865 83.184C921.153 82.08 922.001 81.12 923.137 81.12C924.353 81.12 924.577 82.016 924.577 83.152V88H926.129V82.816C926.129 80.752 925.281 79.712 923.457 79.712C922.145 79.712 921.025 80.576 920.577 81.552H920.545C920.273 80.336 919.473 79.712 918.113 79.712C916.849 79.712 915.713 80.624 915.329 81.568H915.297C915.297 81.568 915.329 81.296 915.329 80.976V79.904H913.825V88ZM927.794 85.728C927.794 87.344 929.154 88.192 930.546 88.192C932.482 88.192 933.138 86.592 933.138 86.592H933.17C933.17 86.592 933.138 86.864 933.138 87.232V88H934.578V82.88C934.578 80.832 933.426 79.712 931.378 79.712C929.522 79.712 928.354 80.672 928.354 80.672L928.994 81.808C928.994 81.808 930.002 81.024 931.25 81.024C932.274 81.024 933.026 81.472 933.026 82.8V82.944H932.674C931.314 82.944 927.794 83.056 927.794 85.728ZM929.362 85.648C929.362 84.192 931.474 84.112 932.642 84.112H933.042V84.368C933.042 85.568 932.194 86.944 930.882 86.944C929.874 86.944 929.362 86.304 929.362 85.648ZM937.624 89.472L937.112 90.688C937.896 91.088 938.904 91.36 939.88 91.36C941.928 91.36 943.96 90.336 943.96 87.664V79.904H942.472V80.656C942.472 80.8 942.488 80.912 942.488 80.912H942.456C942.456 80.912 941.864 79.712 939.911 79.712C937.672 79.712 936.376 81.44 936.376 83.76C936.376 86.096 937.736 87.904 939.992 87.904C941.16 87.904 941.912 87.44 942.392 86.64H942.424C942.424 86.64 942.408 86.896 942.408 87.152V87.744C942.408 89.392 941.256 90.016 939.848 90.016C938.632 90.016 937.624 89.472 937.624 89.472ZM940.296 86.56C938.84 86.56 937.944 85.408 937.944 83.728C937.944 82.08 938.744 81.056 940.152 81.056C941.416 81.056 942.44 81.664 942.44 83.776C942.44 85.888 941.416 86.56 940.296 86.56ZM945.828 83.952C945.828 86.352 947.572 88.192 950.116 88.192C952.052 88.192 953.252 87.04 953.252 87.04L952.612 85.904C952.612 85.904 951.604 86.848 950.212 86.848C948.772 86.848 947.508 85.952 947.428 84.176H953.332C953.332 84.176 953.38 83.712 953.38 83.504C953.38 81.408 952.164 79.712 949.876 79.712C947.572 79.712 945.828 81.376 945.828 83.952ZM947.476 83.008C947.7 81.68 948.66 80.944 949.844 80.944C950.884 80.944 951.748 81.616 951.796 83.008H947.476Z" fill="#404040"/>
<path d="M871.536 118H873.12V113.04H878.976V118H880.56V106.704H878.976V111.664H873.12V106.704H871.536V118ZM882.75 113.952C882.75 116.352 884.494 118.192 887.038 118.192C888.974 118.192 890.174 117.04 890.174 117.04L889.534 115.904C889.534 115.904 888.526 116.848 887.134 116.848C885.694 116.848 884.43 115.952 884.35 114.176H890.254C890.254 114.176 890.302 113.712 890.302 113.504C890.302 111.408 889.086 109.712 886.798 109.712C884.494 109.712 882.75 111.376 882.75 113.952ZM884.398 113.008C884.622 111.68 885.582 110.944 886.766 110.944C887.806 110.944 888.67 111.616 888.718 113.008H884.398ZM891.529 115.728C891.529 117.344 892.889 118.192 894.281 118.192C896.217 118.192 896.873 116.592 896.873 116.592H896.905C896.905 116.592 896.873 116.864 896.873 117.232V118H898.313V112.88C898.313 110.832 897.161 109.712 895.113 109.712C893.257 109.712 892.089 110.672 892.089 110.672L892.729 111.808C892.729 111.808 893.737 111.024 894.985 111.024C896.009 111.024 896.761 111.472 896.761 112.8V112.944H896.409C895.049 112.944 891.529 113.056 891.529 115.728ZM893.097 115.648C893.097 114.192 895.209 114.112 896.377 114.112H896.777V114.368C896.777 115.568 895.929 116.944 894.617 116.944C893.609 116.944 893.097 116.304 893.097 115.648ZM900.11 113.952C900.11 116.464 901.486 118.192 903.678 118.192C905.678 118.192 906.334 116.688 906.334 116.688H906.366C906.366 116.688 906.35 116.912 906.35 117.232V118H907.822V106.704H906.27V110.448C906.27 110.752 906.302 110.992 906.302 110.992H906.27C906.27 110.992 905.646 109.712 903.774 109.712C901.63 109.712 900.11 111.376 900.11 113.952ZM901.694 113.952C901.694 112.112 902.75 111.056 904.03 111.056C905.566 111.056 906.318 112.496 906.318 113.936C906.318 116 905.182 116.848 903.982 116.848C902.638 116.848 901.694 115.712 901.694 113.952ZM910.231 108.288H911.799V106.704H910.231V108.288ZM910.247 118H911.799V109.904H910.247V118ZM914.232 118H915.784V114.208C915.784 113.808 915.816 113.44 915.912 113.12C916.248 111.952 917.24 111.136 918.472 111.136C919.768 111.136 920.008 112.032 920.008 113.168V118H921.56V112.816C921.56 110.752 920.68 109.712 918.776 109.712C917.016 109.712 916.056 110.864 915.736 111.568H915.704C915.704 111.568 915.736 111.296 915.736 110.976V109.904H914.232V118ZM924.592 119.472L924.08 120.688C924.864 121.088 925.872 121.36 926.848 121.36C928.896 121.36 930.928 120.336 930.928 117.664V109.904H929.44V110.656C929.44 110.8 929.456 110.912 929.456 110.912H929.424C929.424 110.912 928.832 109.712 926.88 109.712C924.64 109.712 923.344 111.44 923.344 113.76C923.344 116.096 924.704 117.904 926.96 117.904C928.128 117.904 928.88 117.44 929.36 116.64H929.392C929.392 116.64 929.376 116.896 929.376 117.152V117.744C929.376 119.392 928.224 120.016 926.816 120.016C925.6 120.016 924.592 119.472 924.592 119.472ZM927.264 116.56C925.808 116.56 924.912 115.408 924.912 113.728C924.912 112.08 925.712 111.056 927.12 111.056C928.384 111.056 929.408 111.664 929.408 113.776C929.408 115.888 928.384 116.56 927.264 116.56ZM937.146 118H943.642V116.624H941.178V106.704H939.77L937.066 109.328L938.026 110.32L939.082 109.28C939.498 108.88 939.626 108.624 939.626 108.624H939.658C939.658 108.624 939.642 108.976 939.642 109.328V116.624H937.146V118Z" fill="#404040"/>
<path d="M870.672 285.704C870.672 285.704 872.016 287.192 874.416 287.192C876.656 287.192 878 285.752 878 284.008C878 280.344 872.528 280.968 872.528 278.632C872.528 277.736 873.376 276.984 874.576 276.984C876.016 276.984 877.056 277.96 877.056 277.96L877.776 276.648C877.776 276.648 876.672 275.512 874.576 275.512C872.448 275.512 870.928 276.904 870.928 278.664C870.928 282.136 876.4 281.608 876.4 284.056C876.4 285.128 875.504 285.72 874.448 285.72C872.768 285.72 871.568 284.504 871.568 284.504L870.672 285.704ZM879.838 284.088C879.838 286.232 880.782 287.192 882.606 287.192C884.19 287.192 885.246 286.136 885.582 285.336H885.614C885.614 285.336 885.582 285.592 885.582 285.928V287H887.086V278.904H885.534V282.696C885.534 284.296 884.558 285.752 882.91 285.752C881.614 285.752 881.39 284.856 881.39 283.736V278.904H879.838V284.088ZM889.513 287H890.985V286.408C890.985 286.056 890.953 285.8 890.953 285.8H890.985C890.985 285.8 891.721 287.192 893.529 287.192C895.657 287.192 897.209 285.528 897.209 282.952C897.209 280.44 895.833 278.712 893.657 278.712C891.753 278.712 891.065 280.088 891.065 280.088H891.033C891.033 280.088 891.065 279.8 891.065 279.4V275.704H889.513V287ZM891.017 282.984C891.017 280.92 892.137 280.072 893.353 280.072C894.697 280.072 895.641 281.208 895.641 282.968C895.641 284.808 894.585 285.864 893.305 285.864C891.769 285.864 891.017 284.424 891.017 282.984ZM903.536 287H905.12V282.04H910.976V287H912.56V275.704H910.976V280.664H905.12V275.704H903.536V287ZM914.75 282.952C914.75 285.352 916.494 287.192 919.038 287.192C920.974 287.192 922.174 286.04 922.174 286.04L921.534 284.904C921.534 284.904 920.526 285.848 919.134 285.848C917.694 285.848 916.43 284.952 916.35 283.176H922.254C922.254 283.176 922.302 282.712 922.302 282.504C922.302 280.408 921.086 278.712 918.798 278.712C916.494 278.712 914.75 280.376 914.75 282.952ZM916.398 282.008C916.622 280.68 917.582 279.944 918.766 279.944C919.806 279.944 920.67 280.616 920.718 282.008H916.398ZM923.529 284.728C923.529 286.344 924.889 287.192 926.281 287.192C928.217 287.192 928.873 285.592 928.873 285.592H928.905C928.905 285.592 928.873 285.864 928.873 286.232V287H930.313V281.88C930.313 279.832 929.161 278.712 927.113 278.712C925.257 278.712 924.089 279.672 924.089 279.672L924.729 280.808C924.729 280.808 925.737 280.024 926.985 280.024C928.009 280.024 928.761 280.472 928.761 281.8V281.944H928.409C927.049 281.944 923.529 282.056 923.529 284.728ZM925.097 284.648C925.097 283.192 927.209 283.112 928.377 283.112H928.777V283.368C928.777 284.568 927.929 285.944 926.617 285.944C925.609 285.944 925.097 285.304 925.097 284.648ZM932.11 282.952C932.11 285.464 933.486 287.192 935.678 287.192C937.678 287.192 938.334 285.688 938.334 285.688H938.366C938.366 285.688 938.35 285.912 938.35 286.232V287H939.822V275.704H938.27V279.448C938.27 279.752 938.302 279.992 938.302 279.992H938.27C938.27 279.992 937.646 278.712 935.774 278.712C933.63 278.712 932.11 280.376 932.11 282.952ZM933.694 282.952C933.694 281.112 934.75 280.056 936.03 280.056C937.566 280.056 938.318 281.496 938.318 282.936C938.318 285 937.182 285.848 935.982 285.848C934.638 285.848 933.694 284.712 933.694 282.952ZM942.231 277.288H943.799V275.704H942.231V277.288ZM942.247 287H943.799V278.904H942.247V287ZM946.232 287H947.784V283.208C947.784 282.808 947.816 282.44 947.912 282.12C948.248 280.952 949.24 280.136 950.472 280.136C951.768 280.136 952.008 281.032 952.008 282.168V287H953.56V281.816C953.56 279.752 952.68 278.712 950.776 278.712C949.016 278.712 948.056 279.864 947.736 280.568H947.704C947.704 280.568 947.736 280.296 947.736 279.976V278.904H946.232V287ZM956.592 288.472L956.08 289.688C956.864 290.088 957.872 290.36 958.848 290.36C960.896 290.36 962.928 289.336 962.928 286.664V278.904H961.44V279.656C961.44 279.8 961.456 279.912 961.456 279.912H961.424C961.424 279.912 960.832 278.712 958.88 278.712C956.64 278.712 955.344 280.44 955.344 282.76C955.344 285.096 956.704 286.904 958.96 286.904C960.128 286.904 960.88 286.44 961.36 285.64H961.392C961.392 285.64 961.376 285.896 961.376 286.152V286.744C961.376 288.392 960.224 289.016 958.816 289.016C957.6 289.016 956.592 288.472 956.592 288.472ZM959.264 285.56C957.808 285.56 956.912 284.408 956.912 282.728C956.912 281.08 957.712 280.056 959.12 280.056C960.384 280.056 961.408 280.664 961.408 282.776C961.408 284.888 960.384 285.56 959.264 285.56Z" fill="#404040"/>
<path d="M878.272 357H879.92L875.856 345.704H874.192L870.128 357H871.76L872.88 353.752H877.136L878.272 357ZM875.04 347.256C875.04 347.256 875.28 348.28 875.472 348.856L876.72 352.44H873.296L874.56 348.856C874.752 348.28 875.008 347.256 875.008 347.256H875.04ZM881.151 354.088C881.151 356.232 882.095 357.192 883.919 357.192C885.503 357.192 886.559 356.136 886.895 355.336H886.927C886.927 355.336 886.895 355.592 886.895 355.928V357H888.399V348.904H886.847V352.696C886.847 354.296 885.871 355.752 884.223 355.752C882.927 355.752 882.703 354.856 882.703 353.736V348.904H881.151V354.088ZM891.161 354.04C891.161 356.744 893.225 357.064 894.265 357.064C894.585 357.064 894.809 357.032 894.809 357.032V355.656C894.809 355.656 894.665 355.688 894.441 355.688C893.849 355.688 892.713 355.48 892.713 353.864V350.264H894.665V349.016H892.713V346.68H891.209V349.016H890.105V350.264H891.161V354.04ZM896.56 357H898.112V353.208C898.112 352.824 898.144 352.456 898.24 352.136C898.576 350.968 899.584 350.136 900.8 350.136C902.096 350.136 902.336 351.032 902.336 352.168V357H903.888V351.816C903.888 349.752 903.008 348.712 901.104 348.712C899.488 348.712 898.464 349.736 898.112 350.52H898.08C898.08 350.52 898.112 350.232 898.112 349.848V345.704H896.56V357ZM905.608 352.936C905.608 355.4 907.56 357.192 909.976 357.192C912.392 357.192 914.344 355.4 914.344 352.936C914.344 350.488 912.392 348.712 909.976 348.712C907.56 348.712 905.608 350.488 905.608 352.936ZM907.192 352.936C907.192 351.256 908.456 350.056 909.976 350.056C911.512 350.056 912.76 351.256 912.76 352.936C912.76 354.632 911.512 355.848 909.976 355.848C908.456 355.848 907.192 354.632 907.192 352.936ZM916.185 357H917.737V353.688C917.737 353.192 917.785 352.696 917.929 352.232C918.297 351.032 919.209 350.328 920.201 350.328C920.441 350.328 920.649 350.376 920.649 350.376V348.84C920.649 348.84 920.457 348.808 920.249 348.808C919.001 348.808 918.057 349.736 917.689 350.92H917.657C917.657 350.92 917.689 350.648 917.689 350.312V348.904H916.185V357ZM926.614 357H928.198V349.672C928.198 349.032 928.086 348.024 928.086 348.024H928.118C928.118 348.024 928.646 349.048 929.062 349.672L934.102 357H935.654V345.704H934.07V353.048C934.07 353.672 934.182 354.68 934.182 354.68H934.15C934.15 354.68 933.622 353.656 933.206 353.048L928.182 345.704H926.614V357ZM937.748 354.728C937.748 356.344 939.108 357.192 940.5 357.192C942.436 357.192 943.092 355.592 943.092 355.592H943.124C943.124 355.592 943.092 355.864 943.092 356.232V357H944.532V351.88C944.532 349.832 943.38 348.712 941.332 348.712C939.476 348.712 938.308 349.672 938.308 349.672L938.948 350.808C938.948 350.808 939.956 350.024 941.204 350.024C942.228 350.024 942.98 350.472 942.98 351.8V351.944H942.628C941.268 351.944 937.748 352.056 937.748 354.728ZM939.316 354.648C939.316 353.192 941.428 353.112 942.596 353.112H942.996V353.368C942.996 354.568 942.148 355.944 940.836 355.944C939.828 355.944 939.316 355.304 939.316 354.648ZM946.857 357H948.409V353.304C948.409 352.936 948.425 352.568 948.505 352.248C948.809 351.096 949.641 350.12 950.825 350.12C952.073 350.12 952.233 351.096 952.233 352.152V357H953.785V353.304C953.785 352.888 953.817 352.52 953.897 352.184C954.185 351.08 955.033 350.12 956.169 350.12C957.385 350.12 957.609 351.016 957.609 352.152V357H959.161V351.816C959.161 349.752 958.313 348.712 956.489 348.712C955.177 348.712 954.057 349.576 953.609 350.552H953.577C953.305 349.336 952.505 348.712 951.145 348.712C949.881 348.712 948.745 349.624 948.361 350.568H948.329C948.329 350.568 948.361 350.296 948.361 349.976V348.904H946.857V357ZM960.922 352.952C960.922 355.352 962.666 357.192 965.21 357.192C967.146 357.192 968.346 356.04 968.346 356.04L967.706 354.904C967.706 354.904 966.698 355.848 965.306 355.848C963.866 355.848 962.602 354.952 962.522 353.176H968.426C968.426 353.176 968.474 352.712 968.474 352.504C968.474 350.408 967.258 348.712 964.97 348.712C962.666 348.712 960.922 350.376 960.922 352.952ZM962.57 352.008C962.794 350.68 963.754 349.944 964.938 349.944C965.978 349.944 966.842 350.616 966.89 352.008H962.57Z" fill="#404040"/>
<path d="M871.536 410H873.12V404.816H874.8L877.808 410H879.6L876.112 404.096V404.064L879.392 398.704H877.648L874.8 403.456H873.12V398.704H871.536V410ZM880.5 405.952C880.5 408.352 882.244 410.192 884.788 410.192C886.724 410.192 887.924 409.04 887.924 409.04L887.284 407.904C887.284 407.904 886.276 408.848 884.884 408.848C883.444 408.848 882.18 407.952 882.1 406.176H888.004C888.004 406.176 888.052 405.712 888.052 405.504C888.052 403.408 886.836 401.712 884.548 401.712C882.244 401.712 880.5 403.376 880.5 405.952ZM882.148 405.008C882.372 403.68 883.332 402.944 884.516 402.944C885.556 402.944 886.42 403.616 886.468 405.008H882.148ZM888.799 412.864C888.799 412.864 889.455 413.36 890.367 413.36C891.503 413.36 892.495 412.704 892.991 411.456L896.783 401.904H895.103L893.135 407.216C892.991 407.632 892.863 408.176 892.863 408.176H892.831C892.831 408.176 892.687 407.616 892.527 407.2L890.495 401.904H888.751L892.143 409.904L891.743 410.832C891.439 411.568 890.911 412.016 890.287 412.016C889.791 412.016 889.343 411.68 889.343 411.68L888.799 412.864ZM899.755 410H901.483L903.147 404.8C903.275 404.384 903.371 403.92 903.371 403.92H903.403C903.403 403.92 903.499 404.384 903.627 404.8L905.307 410H907.019L909.627 401.904H907.995L906.299 407.584C906.171 408 906.107 408.448 906.107 408.448H906.075C906.075 408.448 905.979 408 905.851 407.584L904.107 401.92H902.683L900.923 407.584C900.795 408 900.715 408.448 900.715 408.448H900.683C900.667 408.448 900.603 408 900.475 407.584L898.795 401.904H897.147L899.755 410ZM910.53 405.936C910.53 408.4 912.482 410.192 914.898 410.192C917.314 410.192 919.266 408.4 919.266 405.936C919.266 403.488 917.314 401.712 914.898 401.712C912.482 401.712 910.53 403.488 910.53 405.936ZM912.114 405.936C912.114 404.256 913.378 403.056 914.898 403.056C916.434 403.056 917.682 404.256 917.682 405.936C917.682 407.632 916.434 408.848 914.898 408.848C913.378 408.848 912.114 407.632 912.114 405.936ZM921.107 410H922.659V406.688C922.659 406.192 922.707 405.696 922.851 405.232C923.219 404.032 924.131 403.328 925.123 403.328C925.363 403.328 925.571 403.376 925.571 403.376V401.84C925.571 401.84 925.379 401.808 925.171 401.808C923.923 401.808 922.979 402.736 922.611 403.92H922.579C922.579 403.92 922.611 403.648 922.611 403.312V401.904H921.107V410ZM926.579 405.952C926.579 408.464 927.955 410.192 930.147 410.192C932.147 410.192 932.803 408.688 932.803 408.688H932.835C932.835 408.688 932.819 408.912 932.819 409.232V410H934.291V398.704H932.739V402.448C932.739 402.752 932.771 402.992 932.771 402.992H932.739C932.739 402.992 932.115 401.712 930.243 401.712C928.099 401.712 926.579 403.376 926.579 405.952ZM928.163 405.952C928.163 404.112 929.219 403.056 930.499 403.056C932.035 403.056 932.787 404.496 932.787 405.936C932.787 408 931.651 408.848 930.451 408.848C929.107 408.848 928.163 407.712 928.163 405.952ZM936.06 409.008C936.06 409.008 937.148 410.192 939.132 410.192C940.908 410.192 942.06 409.184 942.06 407.84C942.06 405.184 937.9 405.504 937.9 404.048C937.9 403.344 938.556 403.056 939.228 403.056C940.508 403.056 941.228 403.776 941.228 403.776L941.852 402.608C941.852 402.608 941.02 401.712 939.244 401.712C937.628 401.712 936.316 402.544 936.316 404.016C936.316 406.656 940.476 406.352 940.476 407.84C940.476 408.496 939.804 408.848 939.132 408.848C937.724 408.848 936.812 407.904 936.812 407.904L936.06 409.008Z" fill="#404040"/>
<path d="M870.672 474.704C870.672 474.704 872.016 476.192 874.416 476.192C876.656 476.192 878 474.752 878 473.008C878 469.344 872.528 469.968 872.528 467.632C872.528 466.736 873.376 465.984 874.576 465.984C876.016 465.984 877.056 466.96 877.056 466.96L877.776 465.648C877.776 465.648 876.672 464.512 874.576 464.512C872.448 464.512 870.928 465.904 870.928 467.664C870.928 471.136 876.4 470.608 876.4 473.056C876.4 474.128 875.504 474.72 874.448 474.72C872.768 474.72 871.568 473.504 871.568 473.504L870.672 474.704ZM879.358 471.936C879.358 474.4 881.31 476.192 883.726 476.192C886.142 476.192 888.094 474.4 888.094 471.936C888.094 469.488 886.142 467.712 883.726 467.712C881.31 467.712 879.358 469.488 879.358 471.936ZM880.942 471.936C880.942 470.256 882.206 469.056 883.726 469.056C885.262 469.056 886.51 470.256 886.51 471.936C886.51 473.632 885.262 474.848 883.726 474.848C882.206 474.848 880.942 473.632 880.942 471.936ZM889.359 471.952C889.359 474.384 891.151 476.192 893.695 476.192C895.807 476.192 896.927 474.896 896.927 474.896L896.303 473.76C896.303 473.76 895.311 474.848 893.807 474.848C892.127 474.848 890.943 473.584 890.943 471.936C890.943 470.272 892.127 469.056 893.759 469.056C895.135 469.056 895.999 469.984 895.999 469.984L896.735 468.896C896.735 468.896 895.727 467.712 893.695 467.712C891.151 467.712 889.359 469.552 889.359 471.952ZM898.669 466.288H900.237V464.704H898.669V466.288ZM898.685 476H900.237V467.904H898.685V476ZM902.013 473.728C902.013 475.344 903.373 476.192 904.765 476.192C906.701 476.192 907.357 474.592 907.357 474.592H907.389C907.389 474.592 907.357 474.864 907.357 475.232V476H908.797V470.88C908.797 468.832 907.645 467.712 905.597 467.712C903.741 467.712 902.573 468.672 902.573 468.672L903.213 469.808C903.213 469.808 904.221 469.024 905.469 469.024C906.493 469.024 907.245 469.472 907.245 470.8V470.944H906.893C905.533 470.944 902.013 471.056 902.013 473.728ZM903.581 473.648C903.581 472.192 905.693 472.112 906.861 472.112H907.261V472.368C907.261 473.568 906.413 474.944 905.101 474.944C904.093 474.944 903.581 474.304 903.581 473.648ZM911.026 473.792C911.026 475.824 912.322 476.064 913.202 476.064C913.474 476.064 913.714 476.032 913.714 476.032V474.656C913.714 474.656 913.586 474.672 913.442 474.672C912.962 474.672 912.578 474.496 912.578 473.52V464.704H911.026V473.792ZM919.434 476H921.018L921.562 468.88C921.61 468.192 921.594 467.184 921.594 467.184H921.626C921.626 467.184 921.978 468.272 922.234 468.88L924.474 473.968H925.882L928.138 468.88C928.41 468.256 928.746 467.216 928.746 467.216H928.778C928.778 467.216 928.746 468.192 928.794 468.88L929.354 476H930.922L930.01 464.704H928.346L925.754 470.816C925.498 471.44 925.194 472.336 925.194 472.336H925.162C925.162 472.336 924.858 471.44 924.602 470.816L922.01 464.704H920.346L919.434 476ZM932.765 471.952C932.765 474.352 934.509 476.192 937.053 476.192C938.989 476.192 940.189 475.04 940.189 475.04L939.549 473.904C939.549 473.904 938.541 474.848 937.149 474.848C935.709 474.848 934.445 473.952 934.365 472.176H940.269C940.269 472.176 940.317 471.712 940.317 471.504C940.317 469.408 939.101 467.712 936.813 467.712C934.509 467.712 932.765 469.376 932.765 471.952ZM934.413 471.008C934.637 469.68 935.597 468.944 936.781 468.944C937.821 468.944 938.685 469.616 938.733 471.008H934.413ZM941.672 471.952C941.672 474.464 943.048 476.192 945.24 476.192C947.24 476.192 947.896 474.688 947.896 474.688H947.928C947.928 474.688 947.912 474.912 947.912 475.232V476H949.384V464.704H947.832V468.448C947.832 468.752 947.864 468.992 947.864 468.992H947.832C947.832 468.992 947.208 467.712 945.336 467.712C943.192 467.712 941.672 469.376 941.672 471.952ZM943.256 471.952C943.256 470.112 944.312 469.056 945.592 469.056C947.128 469.056 947.88 470.496 947.88 471.936C947.88 474 946.744 474.848 945.544 474.848C944.2 474.848 943.256 473.712 943.256 471.952ZM951.794 466.288H953.362V464.704H951.794V466.288ZM951.81 476H953.362V467.904H951.81V476ZM955.138 473.728C955.138 475.344 956.498 476.192 957.89 476.192C959.826 476.192 960.482 474.592 960.482 474.592H960.514C960.514 474.592 960.482 474.864 960.482 475.232V476H961.922V470.88C961.922 468.832 960.77 467.712 958.722 467.712C956.866 467.712 955.698 468.672 955.698 468.672L956.338 469.808C956.338 469.808 957.346 469.024 958.594 469.024C959.618 469.024 960.37 469.472 960.37 470.8V470.944H960.018C958.658 470.944 955.138 471.056 955.138 473.728ZM956.706 473.648C956.706 472.192 958.818 472.112 959.986 472.112H960.386V472.368C960.386 473.568 959.538 474.944 958.226 474.944C957.218 474.944 956.706 474.304 956.706 473.648ZM968.677 476H970.261V471.04H976.117V476H977.701V464.704H976.117V469.664H970.261V464.704H968.677V476ZM979.794 473.728C979.794 475.344 981.154 476.192 982.546 476.192C984.482 476.192 985.138 474.592 985.138 474.592H985.17C985.17 474.592 985.138 474.864 985.138 475.232V476H986.578V470.88C986.578 468.832 985.426 467.712 983.378 467.712C981.522 467.712 980.354 468.672 980.354 468.672L980.994 469.808C980.994 469.808 982.002 469.024 983.25 469.024C984.274 469.024 985.026 469.472 985.026 470.8V470.944H984.674C983.314 470.944 979.794 471.056 979.794 473.728ZM981.362 473.648C981.362 472.192 983.474 472.112 984.642 472.112H985.042V472.368C985.042 473.568 984.194 474.944 982.882 474.944C981.874 474.944 981.362 474.304 981.362 473.648ZM988.904 476H990.456V472.208C990.456 471.808 990.488 471.44 990.584 471.12C990.92 469.952 991.911 469.136 993.144 469.136C994.44 469.136 994.68 470.032 994.68 471.168V476H996.232V470.816C996.232 468.752 995.352 467.712 993.448 467.712C991.688 467.712 990.728 468.864 990.408 469.568H990.376C990.376 469.568 990.408 469.296 990.408 468.976V467.904H988.904V476ZM998.016 471.952C998.016 474.464 999.392 476.192 1001.58 476.192C1003.58 476.192 1004.24 474.688 1004.24 474.688H1004.27C1004.27 474.688 1004.26 474.912 1004.26 475.232V476H1005.73V464.704H1004.18V468.448C1004.18 468.752 1004.21 468.992 1004.21 468.992H1004.18C1004.18 468.992 1003.55 467.712 1001.68 467.712C999.536 467.712 998.016 469.376 998.016 471.952ZM999.6 471.952C999.6 470.112 1000.66 469.056 1001.94 469.056C1003.47 469.056 1004.22 470.496 1004.22 471.936C1004.22 474 1003.09 474.848 1001.89 474.848C1000.54 474.848 999.6 473.712 999.6 471.952ZM1008.06 473.792C1008.06 475.824 1009.35 476.064 1010.23 476.064C1010.51 476.064 1010.75 476.032 1010.75 476.032V474.656C1010.75 474.656 1010.62 474.672 1010.47 474.672C1009.99 474.672 1009.61 474.496 1009.61 473.52V464.704H1008.06V473.792ZM1011.83 471.952C1011.83 474.352 1013.57 476.192 1016.12 476.192C1018.05 476.192 1019.25 475.04 1019.25 475.04L1018.61 473.904C1018.61 473.904 1017.6 474.848 1016.21 474.848C1014.77 474.848 1013.51 473.952 1013.43 472.176H1019.33C1019.33 472.176 1019.38 471.712 1019.38 471.504C1019.38 469.408 1018.16 467.712 1015.88 467.712C1013.57 467.712 1011.83 469.376 1011.83 471.952ZM1013.48 471.008C1013.7 469.68 1014.66 468.944 1015.84 468.944C1016.88 468.944 1017.75 469.616 1017.8 471.008H1013.48ZM1020.61 475.008C1020.61 475.008 1021.69 476.192 1023.68 476.192C1025.45 476.192 1026.61 475.184 1026.61 473.84C1026.61 471.184 1022.45 471.504 1022.45 470.048C1022.45 469.344 1023.1 469.056 1023.77 469.056C1025.05 469.056 1025.77 469.776 1025.77 469.776L1026.4 468.608C1026.4 468.608 1025.57 467.712 1023.79 467.712C1022.17 467.712 1020.86 468.544 1020.86 470.016C1020.86 472.656 1025.02 472.352 1025.02 473.84C1025.02 474.496 1024.35 474.848 1023.68 474.848C1022.27 474.848 1021.36 473.904 1021.36 473.904L1020.61 475.008ZM1027.65 477.616H1028.88L1030.23 474.32H1028.64L1027.65 477.616ZM1036.09 471.952C1036.09 474.464 1037.47 476.192 1039.66 476.192C1041.66 476.192 1042.32 474.688 1042.32 474.688H1042.35C1042.35 474.688 1042.33 474.912 1042.33 475.232V476H1043.81V464.704H1042.25V468.448C1042.25 468.752 1042.29 468.992 1042.29 468.992H1042.25C1042.25 468.992 1041.63 467.712 1039.76 467.712C1037.61 467.712 1036.09 469.376 1036.09 471.952ZM1037.68 471.952C1037.68 470.112 1038.73 469.056 1040.01 469.056C1041.55 469.056 1042.3 470.496 1042.3 471.936C1042.3 474 1041.17 474.848 1039.97 474.848C1038.62 474.848 1037.68 473.712 1037.68 471.952ZM1046.12 473.088C1046.12 475.232 1047.06 476.192 1048.89 476.192C1050.47 476.192 1051.53 475.136 1051.86 474.336H1051.9C1051.9 474.336 1051.86 474.592 1051.86 474.928V476H1053.37V467.904H1051.82V471.696C1051.82 473.296 1050.84 474.752 1049.19 474.752C1047.9 474.752 1047.67 473.856 1047.67 472.736V467.904H1046.12V473.088ZM1055.79 476H1057.35V472.688C1057.35 472.192 1057.39 471.696 1057.54 471.232C1057.91 470.032 1058.82 469.328 1059.81 469.328C1060.05 469.328 1060.26 469.376 1060.26 469.376V467.84C1060.26 467.84 1060.07 467.808 1059.86 467.808C1058.61 467.808 1057.67 468.736 1057.3 469.92H1057.27C1057.27 469.92 1057.3 469.648 1057.3 469.312V467.904H1055.79V476ZM1061.14 473.728C1061.14 475.344 1062.5 476.192 1063.89 476.192C1065.83 476.192 1066.48 474.592 1066.48 474.592H1066.51C1066.51 474.592 1066.48 474.864 1066.48 475.232V476H1067.92V470.88C1067.92 468.832 1066.77 467.712 1064.72 467.712C1062.87 467.712 1061.7 468.672 1061.7 468.672L1062.34 469.808C1062.34 469.808 1063.35 469.024 1064.59 469.024C1065.62 469.024 1066.37 469.472 1066.37 470.8V470.944H1066.02C1064.66 470.944 1061.14 471.056 1061.14 473.728ZM1062.71 473.648C1062.71 472.192 1064.82 472.112 1065.99 472.112H1066.39V472.368C1066.39 473.568 1065.54 474.944 1064.23 474.944C1063.22 474.944 1062.71 474.304 1062.71 473.648ZM1070.54 473.04C1070.54 475.744 1072.6 476.064 1073.64 476.064C1073.96 476.064 1074.18 476.032 1074.18 476.032V474.656C1074.18 474.656 1074.04 474.688 1073.82 474.688C1073.22 474.688 1072.09 474.48 1072.09 472.864V469.264H1074.04V468.016H1072.09V465.68H1070.58V468.016H1069.48V469.264H1070.54V473.04ZM1075.92 466.288H1077.49V464.704H1075.92V466.288ZM1075.93 476H1077.49V467.904H1075.93V476ZM1079.33 471.936C1079.33 474.4 1081.28 476.192 1083.7 476.192C1086.11 476.192 1088.06 474.4 1088.06 471.936C1088.06 469.488 1086.11 467.712 1083.7 467.712C1081.28 467.712 1079.33 469.488 1079.33 471.936ZM1080.91 471.936C1080.91 470.256 1082.18 469.056 1083.7 469.056C1085.23 469.056 1086.48 470.256 1086.48 471.936C1086.48 473.632 1085.23 474.848 1083.7 474.848C1082.18 474.848 1080.91 473.632 1080.91 471.936ZM1089.9 476H1091.46V472.208C1091.46 471.808 1091.49 471.44 1091.58 471.12C1091.92 469.952 1092.91 469.136 1094.14 469.136C1095.44 469.136 1095.68 470.032 1095.68 471.168V476H1097.23V470.816C1097.23 468.752 1096.35 467.712 1094.45 467.712C1092.69 467.712 1091.73 468.864 1091.41 469.568H1091.38C1091.38 469.568 1091.41 469.296 1091.41 468.976V467.904H1089.9V476Z" fill="#404040"/>
<path d="M871.536 560H875.584C877.568 560 879.216 558.912 879.216 556.784C879.216 555.52 878.544 554.4 877.36 554.048V554.016C878.224 553.568 878.768 552.688 878.768 551.584C878.768 549.76 877.392 548.704 875.488 548.704H871.536V560ZM873.12 553.456V550.08H875.456C876.544 550.08 877.152 550.752 877.152 551.744C877.152 552.736 876.512 553.456 875.488 553.456H873.12ZM873.12 558.624V554.768H875.648C876.832 554.768 877.6 555.552 877.6 556.704C877.6 557.856 876.88 558.624 875.664 558.624H873.12ZM880.765 555.936C880.765 558.4 882.717 560.192 885.133 560.192C887.549 560.192 889.501 558.4 889.501 555.936C889.501 553.488 887.549 551.712 885.133 551.712C882.717 551.712 880.765 553.488 880.765 555.936ZM882.349 555.936C882.349 554.256 883.613 553.056 885.133 553.056C886.669 553.056 887.917 554.256 887.917 555.936C887.917 557.632 886.669 558.848 885.133 558.848C883.613 558.848 882.349 557.632 882.349 555.936ZM890.813 555.952C890.813 558.464 892.189 560.192 894.381 560.192C896.381 560.192 897.037 558.688 897.037 558.688H897.069C897.069 558.688 897.053 558.912 897.053 559.232V560H898.525V548.704H896.973V552.448C896.973 552.752 897.005 552.992 897.005 552.992H896.973C896.973 552.992 896.349 551.712 894.477 551.712C892.333 551.712 890.813 553.376 890.813 555.952ZM892.397 555.952C892.397 554.112 893.453 553.056 894.733 553.056C896.269 553.056 897.021 554.496 897.021 555.936C897.021 558 895.885 558.848 894.685 558.848C893.341 558.848 892.397 557.712 892.397 555.952ZM899.814 562.864C899.814 562.864 900.47 563.36 901.382 563.36C902.518 563.36 903.51 562.704 904.006 561.456L907.798 551.904H906.118L904.15 557.216C904.006 557.632 903.878 558.176 903.878 558.176H903.846C903.846 558.176 903.702 557.616 903.542 557.2L901.51 551.904H899.766L903.158 559.904L902.758 560.832C902.454 561.568 901.926 562.016 901.302 562.016C900.806 562.016 900.358 561.68 900.358 561.68L899.814 562.864ZM913.552 557.04C913.552 559.744 915.616 560.064 916.656 560.064C916.976 560.064 917.2 560.032 917.2 560.032V558.656C917.2 558.656 917.056 558.688 916.832 558.688C916.24 558.688 915.104 558.48 915.104 556.864V553.264H917.056V552.016H915.104V549.68H913.6V552.016H912.496V553.264H913.552V557.04ZM918.39 555.952C918.39 558.352 920.134 560.192 922.678 560.192C924.614 560.192 925.814 559.04 925.814 559.04L925.174 557.904C925.174 557.904 924.166 558.848 922.774 558.848C921.334 558.848 920.07 557.952 919.99 556.176H925.894C925.894 556.176 925.942 555.712 925.942 555.504C925.942 553.408 924.726 551.712 922.438 551.712C920.134 551.712 918.39 553.376 918.39 555.952ZM920.038 555.008C920.262 553.68 921.222 552.944 922.406 552.944C923.446 552.944 924.31 553.616 924.358 555.008H920.038ZM930.689 556.848C930.689 556.848 930.817 557.104 930.929 557.296L932.625 560H934.385L931.633 555.84L934.241 551.904H932.465L930.961 554.368C930.833 554.576 930.689 554.848 930.689 554.848H930.657C930.657 554.848 930.513 554.576 930.385 554.368L928.881 551.904H927.105L929.713 555.84L926.961 560H928.721L930.417 557.296C930.529 557.104 930.657 556.848 930.657 556.848H930.689ZM936.286 557.04C936.286 559.744 938.35 560.064 939.39 560.064C939.71 560.064 939.934 560.032 939.934 560.032V558.656C939.934 558.656 939.79 558.688 939.566 558.688C938.974 558.688 937.838 558.48 937.838 556.864V553.264H939.79V552.016H937.838V549.68H936.334V552.016H935.23V553.264H936.286V557.04Z" fill="#404040"/>
<path d="M870.672 727.704C870.672 727.704 872.016 729.192 874.416 729.192C876.656 729.192 878 727.752 878 726.008C878 722.344 872.528 722.968 872.528 720.632C872.528 719.736 873.376 718.984 874.576 718.984C876.016 718.984 877.056 719.96 877.056 719.96L877.776 718.648C877.776 718.648 876.672 717.512 874.576 717.512C872.448 717.512 870.928 718.904 870.928 720.664C870.928 724.136 876.4 723.608 876.4 726.056C876.4 727.128 875.504 727.72 874.448 727.72C872.768 727.72 871.568 726.504 871.568 726.504L870.672 727.704ZM879.838 726.088C879.838 728.232 880.782 729.192 882.606 729.192C884.19 729.192 885.246 728.136 885.582 727.336H885.614C885.614 727.336 885.582 727.592 885.582 727.928V729H887.086V720.904H885.534V724.696C885.534 726.296 884.558 727.752 882.91 727.752C881.614 727.752 881.39 726.856 881.39 725.736V720.904H879.838V726.088ZM889.513 732.2H891.065V728.568C891.065 728.152 891.033 727.864 891.033 727.864H891.065C891.065 727.864 891.769 729.192 893.545 729.192C895.657 729.192 897.209 727.528 897.209 724.952C897.209 722.44 895.833 720.712 893.657 720.712C891.625 720.712 890.937 722.184 890.937 722.184H890.905C890.905 722.184 890.937 721.912 890.937 721.592V720.904H889.513V732.2ZM891.017 724.984C891.017 722.92 892.137 722.072 893.353 722.072C894.697 722.072 895.641 723.208 895.641 724.968C895.641 726.808 894.585 727.864 893.305 727.864C891.817 727.864 891.017 726.424 891.017 724.984ZM899.107 732.2H900.659V728.568C900.659 728.152 900.627 727.864 900.627 727.864H900.659C900.659 727.864 901.363 729.192 903.139 729.192C905.251 729.192 906.803 727.528 906.803 724.952C906.803 722.44 905.427 720.712 903.251 720.712C901.219 720.712 900.531 722.184 900.531 722.184H900.499C900.499 722.184 900.531 721.912 900.531 721.592V720.904H899.107V732.2ZM900.611 724.984C900.611 722.92 901.731 722.072 902.947 722.072C904.291 722.072 905.235 723.208 905.235 724.968C905.235 726.808 904.179 727.864 902.899 727.864C901.411 727.864 900.611 726.424 900.611 724.984ZM908.108 724.936C908.108 727.4 910.06 729.192 912.476 729.192C914.892 729.192 916.844 727.4 916.844 724.936C916.844 722.488 914.892 720.712 912.476 720.712C910.06 720.712 908.108 722.488 908.108 724.936ZM909.692 724.936C909.692 723.256 910.956 722.056 912.476 722.056C914.012 722.056 915.26 723.256 915.26 724.936C915.26 726.632 914.012 727.848 912.476 727.848C910.956 727.848 909.692 726.632 909.692 724.936ZM918.685 729H920.237V725.688C920.237 725.192 920.285 724.696 920.429 724.232C920.797 723.032 921.709 722.328 922.701 722.328C922.941 722.328 923.149 722.376 923.149 722.376V720.84C923.149 720.84 922.957 720.808 922.749 720.808C921.501 720.808 920.557 721.736 920.189 722.92H920.157C920.157 722.92 920.189 722.648 920.189 722.312V720.904H918.685V729ZM925.021 726.04C925.021 728.744 927.085 729.064 928.125 729.064C928.445 729.064 928.669 729.032 928.669 729.032V727.656C928.669 727.656 928.525 727.688 928.301 727.688C927.709 727.688 926.573 727.48 926.573 725.864V722.264H928.525V721.016H926.573V718.68H925.069V721.016H923.965V722.264H925.021V726.04ZM930.403 719.288H931.971V717.704H930.403V719.288ZM930.419 729H931.971V720.904H930.419V729ZM934.404 729H935.956V725.208C935.956 724.808 935.988 724.44 936.084 724.12C936.42 722.952 937.411 722.136 938.644 722.136C939.94 722.136 940.18 723.032 940.18 724.168V729H941.732V723.816C941.732 721.752 940.852 720.712 938.948 720.712C937.188 720.712 936.228 721.864 935.908 722.568H935.876C935.876 722.568 935.908 722.296 935.908 721.976V720.904H934.404V729ZM944.764 730.472L944.252 731.688C945.036 732.088 946.044 732.36 947.02 732.36C949.068 732.36 951.1 731.336 951.1 728.664V720.904H949.612V721.656C949.612 721.8 949.628 721.912 949.628 721.912H949.596C949.596 721.912 949.004 720.712 947.052 720.712C944.812 720.712 943.516 722.44 943.516 724.76C943.516 727.096 944.876 728.904 947.132 728.904C948.3 728.904 949.052 728.44 949.532 727.64H949.564C949.564 727.64 949.548 727.896 949.548 728.152V728.744C949.548 730.392 948.396 731.016 946.988 731.016C945.772 731.016 944.764 730.472 944.764 730.472ZM947.436 727.56C945.98 727.56 945.084 726.408 945.084 724.728C945.084 723.08 945.884 722.056 947.292 722.056C948.556 722.056 949.58 722.664 949.58 724.776C949.58 726.888 948.556 727.56 947.436 727.56ZM957.622 719.288H959.19V717.704H957.622V719.288ZM957.638 729H959.19V720.904H957.638V729ZM961.622 729H963.174V725.304C963.174 724.936 963.19 724.568 963.27 724.248C963.574 723.096 964.406 722.12 965.59 722.12C966.838 722.12 966.998 723.096 966.998 724.152V729H968.55V725.304C968.55 724.888 968.582 724.52 968.662 724.184C968.95 723.08 969.798 722.12 970.934 722.12C972.15 722.12 972.374 723.016 972.374 724.152V729H973.926V723.816C973.926 721.752 973.078 720.712 971.254 720.712C969.942 720.712 968.822 721.576 968.374 722.552H968.342C968.07 721.336 967.27 720.712 965.91 720.712C964.646 720.712 963.51 721.624 963.126 722.568H963.094C963.094 722.568 963.126 722.296 963.126 721.976V720.904H961.622V729ZM975.591 726.728C975.591 728.344 976.951 729.192 978.343 729.192C980.279 729.192 980.935 727.592 980.935 727.592H980.967C980.967 727.592 980.935 727.864 980.935 728.232V729H982.375V723.88C982.375 721.832 981.223 720.712 979.175 720.712C977.319 720.712 976.151 721.672 976.151 721.672L976.791 722.808C976.791 722.808 977.799 722.024 979.047 722.024C980.071 722.024 980.823 722.472 980.823 723.8V723.944H980.471C979.111 723.944 975.591 724.056 975.591 726.728ZM977.159 726.648C977.159 725.192 979.271 725.112 980.439 725.112H980.839V725.368C980.839 726.568 979.991 727.944 978.679 727.944C977.671 727.944 977.159 727.304 977.159 726.648ZM985.42 730.472L984.908 731.688C985.692 732.088 986.7 732.36 987.676 732.36C989.724 732.36 991.756 731.336 991.756 728.664V720.904H990.268V721.656C990.268 721.8 990.284 721.912 990.284 721.912H990.252C990.252 721.912 989.66 720.712 987.708 720.712C985.468 720.712 984.172 722.44 984.172 724.76C984.172 727.096 985.532 728.904 987.788 728.904C988.956 728.904 989.708 728.44 990.188 727.64H990.22C990.22 727.64 990.204 727.896 990.204 728.152V728.744C990.204 730.392 989.052 731.016 987.644 731.016C986.428 731.016 985.42 730.472 985.42 730.472ZM988.092 727.56C986.636 727.56 985.74 726.408 985.74 724.728C985.74 723.08 986.54 722.056 987.948 722.056C989.212 722.056 990.236 722.664 990.236 724.776C990.236 726.888 989.212 727.56 988.092 727.56ZM993.625 724.952C993.625 727.352 995.369 729.192 997.913 729.192C999.849 729.192 1001.05 728.04 1001.05 728.04L1000.41 726.904C1000.41 726.904 999.401 727.848 998.009 727.848C996.569 727.848 995.305 726.952 995.225 725.176H1001.13C1001.13 725.176 1001.18 724.712 1001.18 724.504C1001.18 722.408 999.961 720.712 997.673 720.712C995.369 720.712 993.625 722.376 993.625 724.952ZM995.273 724.008C995.497 722.68 996.457 721.944 997.641 721.944C998.681 721.944 999.545 722.616 999.593 724.008H995.273Z" fill="#404040"/>
<path d="M871.536 898H875.584C877.568 898 879.216 896.912 879.216 894.784C879.216 893.52 878.544 892.4 877.36 892.048V892.016C878.224 891.568 878.768 890.688 878.768 889.584C878.768 887.76 877.392 886.704 875.488 886.704H871.536V898ZM873.12 891.456V888.08H875.456C876.544 888.08 877.152 888.752 877.152 889.744C877.152 890.736 876.512 891.456 875.488 891.456H873.12ZM873.12 896.624V892.768H875.648C876.832 892.768 877.6 893.552 877.6 894.704C877.6 895.856 876.88 896.624 875.664 896.624H873.12ZM880.765 893.936C880.765 896.4 882.717 898.192 885.133 898.192C887.549 898.192 889.501 896.4 889.501 893.936C889.501 891.488 887.549 889.712 885.133 889.712C882.717 889.712 880.765 891.488 880.765 893.936ZM882.349 893.936C882.349 892.256 883.613 891.056 885.133 891.056C886.669 891.056 887.917 892.256 887.917 893.936C887.917 895.632 886.669 896.848 885.133 896.848C883.613 896.848 882.349 895.632 882.349 893.936ZM890.813 893.952C890.813 896.464 892.189 898.192 894.381 898.192C896.381 898.192 897.037 896.688 897.037 896.688H897.069C897.069 896.688 897.053 896.912 897.053 897.232V898H898.525V886.704H896.973V890.448C896.973 890.752 897.005 890.992 897.005 890.992H896.973C896.973 890.992 896.349 889.712 894.477 889.712C892.333 889.712 890.813 891.376 890.813 893.952ZM892.397 893.952C892.397 892.112 893.453 891.056 894.733 891.056C896.269 891.056 897.021 892.496 897.021 893.936C897.021 896 895.885 896.848 894.685 896.848C893.341 896.848 892.397 895.712 892.397 893.952ZM899.814 900.864C899.814 900.864 900.47 901.36 901.382 901.36C902.518 901.36 903.51 900.704 904.006 899.456L907.798 889.904H906.118L904.15 895.216C904.006 895.632 903.878 896.176 903.878 896.176H903.846C903.846 896.176 903.702 895.616 903.542 895.2L901.51 889.904H899.766L903.158 897.904L902.758 898.832C902.454 899.568 901.926 900.016 901.302 900.016C900.806 900.016 900.358 899.68 900.358 899.68L899.814 900.864ZM913.552 895.04C913.552 897.744 915.616 898.064 916.656 898.064C916.976 898.064 917.2 898.032 917.2 898.032V896.656C917.2 896.656 917.056 896.688 916.832 896.688C916.24 896.688 915.104 896.48 915.104 894.864V891.264H917.056V890.016H915.104V887.68H913.6V890.016H912.496V891.264H913.552V895.04ZM918.39 893.952C918.39 896.352 920.134 898.192 922.678 898.192C924.614 898.192 925.814 897.04 925.814 897.04L925.174 895.904C925.174 895.904 924.166 896.848 922.774 896.848C921.334 896.848 920.07 895.952 919.99 894.176H925.894C925.894 894.176 925.942 893.712 925.942 893.504C925.942 891.408 924.726 889.712 922.438 889.712C920.134 889.712 918.39 891.376 918.39 893.952ZM920.038 893.008C920.262 891.68 921.222 890.944 922.406 890.944C923.446 890.944 924.31 891.616 924.358 893.008H920.038ZM930.689 894.848C930.689 894.848 930.817 895.104 930.929 895.296L932.625 898H934.385L931.633 893.84L934.241 889.904H932.465L930.961 892.368C930.833 892.576 930.689 892.848 930.689 892.848H930.657C930.657 892.848 930.513 892.576 930.385 892.368L928.881 889.904H927.105L929.713 893.84L926.961 898H928.721L930.417 895.296C930.529 895.104 930.657 894.848 930.657 894.848H930.689ZM936.286 895.04C936.286 897.744 938.35 898.064 939.39 898.064C939.71 898.064 939.934 898.032 939.934 898.032V896.656C939.934 896.656 939.79 896.688 939.566 896.688C938.974 896.688 937.838 896.48 937.838 894.864V891.264H939.79V890.016H937.838V887.68H936.334V890.016H935.23V891.264H936.286V895.04Z" fill="#404040"/>
<path d="M871.536 998H873.12V993.04H878.976V998H880.56V986.704H878.976V991.664H873.12V986.704H871.536V998ZM882.75 993.952C882.75 996.352 884.494 998.192 887.038 998.192C888.974 998.192 890.174 997.04 890.174 997.04L889.534 995.904C889.534 995.904 888.526 996.848 887.134 996.848C885.694 996.848 884.43 995.952 884.35 994.176H890.254C890.254 994.176 890.302 993.712 890.302 993.504C890.302 991.408 889.086 989.712 886.798 989.712C884.494 989.712 882.75 991.376 882.75 993.952ZM884.398 993.008C884.622 991.68 885.582 990.944 886.766 990.944C887.806 990.944 888.67 991.616 888.718 993.008H884.398ZM891.529 995.728C891.529 997.344 892.889 998.192 894.281 998.192C896.217 998.192 896.873 996.592 896.873 996.592H896.905C896.905 996.592 896.873 996.864 896.873 997.232V998H898.313V992.88C898.313 990.832 897.161 989.712 895.113 989.712C893.257 989.712 892.089 990.672 892.089 990.672L892.729 991.808C892.729 991.808 893.737 991.024 894.985 991.024C896.009 991.024 896.761 991.472 896.761 992.8V992.944H896.409C895.049 992.944 891.529 993.056 891.529 995.728ZM893.097 995.648C893.097 994.192 895.209 994.112 896.377 994.112H896.777V994.368C896.777 995.568 895.929 996.944 894.617 996.944C893.609 996.944 893.097 996.304 893.097 995.648ZM900.11 993.952C900.11 996.464 901.486 998.192 903.678 998.192C905.678 998.192 906.334 996.688 906.334 996.688H906.366C906.366 996.688 906.35 996.912 906.35 997.232V998H907.822V986.704H906.27V990.448C906.27 990.752 906.302 990.992 906.302 990.992H906.27C906.27 990.992 905.646 989.712 903.774 989.712C901.63 989.712 900.11 991.376 900.11 993.952ZM901.694 993.952C901.694 992.112 902.75 991.056 904.03 991.056C905.566 991.056 906.318 992.496 906.318 993.936C906.318 996 905.182 996.848 903.982 996.848C902.638 996.848 901.694 995.712 901.694 993.952ZM910.231 988.288H911.799V986.704H910.231V988.288ZM910.247 998H911.799V989.904H910.247V998ZM914.232 998H915.784V994.208C915.784 993.808 915.816 993.44 915.912 993.12C916.248 991.952 917.24 991.136 918.472 991.136C919.768 991.136 920.008 992.032 920.008 993.168V998H921.56V992.816C921.56 990.752 920.68 989.712 918.776 989.712C917.016 989.712 916.056 990.864 915.736 991.568H915.704C915.704 991.568 915.736 991.296 915.736 990.976V989.904H914.232V998ZM924.592 999.472L924.08 1000.69C924.864 1001.09 925.872 1001.36 926.848 1001.36C928.896 1001.36 930.928 1000.34 930.928 997.664V989.904H929.44V990.656C929.44 990.8 929.456 990.912 929.456 990.912H929.424C929.424 990.912 928.832 989.712 926.88 989.712C924.64 989.712 923.344 991.44 923.344 993.76C923.344 996.096 924.704 997.904 926.96 997.904C928.128 997.904 928.88 997.44 929.36 996.64H929.392C929.392 996.64 929.376 996.896 929.376 997.152V997.744C929.376 999.392 928.224 1000.02 926.816 1000.02C925.6 1000.02 924.592 999.472 924.592 999.472ZM927.264 996.56C925.808 996.56 924.912 995.408 924.912 993.728C924.912 992.08 925.712 991.056 927.12 991.056C928.384 991.056 929.408 991.664 929.408 993.776C929.408 995.888 928.384 996.56 927.264 996.56ZM937.21 998H944.49V996.624H938.89C938.922 994.048 944.314 993.472 944.314 989.76C944.314 987.808 942.826 986.512 940.746 986.512C938.202 986.512 937.178 988.656 937.178 988.656L938.346 989.44C938.346 989.44 939.146 988 940.634 988C941.818 988 942.666 988.752 942.666 989.872C942.666 992.528 937.13 993.104 937.13 997.136C937.13 997.408 937.162 997.696 937.21 998Z" fill="#404040"/>
<path d="M871.536 1150H875.584C877.568 1150 879.216 1148.91 879.216 1146.78C879.216 1145.52 878.544 1144.4 877.36 1144.05V1144.02C878.224 1143.57 878.768 1142.69 878.768 1141.58C878.768 1139.76 877.392 1138.7 875.488 1138.7H871.536V1150ZM873.12 1143.46V1140.08H875.456C876.544 1140.08 877.152 1140.75 877.152 1141.74C877.152 1142.74 876.512 1143.46 875.488 1143.46H873.12ZM873.12 1148.62V1144.77H875.648C876.832 1144.77 877.6 1145.55 877.6 1146.7C877.6 1147.86 876.88 1148.62 875.664 1148.62H873.12ZM880.765 1145.94C880.765 1148.4 882.717 1150.19 885.133 1150.19C887.549 1150.19 889.501 1148.4 889.501 1145.94C889.501 1143.49 887.549 1141.71 885.133 1141.71C882.717 1141.71 880.765 1143.49 880.765 1145.94ZM882.349 1145.94C882.349 1144.26 883.613 1143.06 885.133 1143.06C886.669 1143.06 887.917 1144.26 887.917 1145.94C887.917 1147.63 886.669 1148.85 885.133 1148.85C883.613 1148.85 882.349 1147.63 882.349 1145.94ZM890.813 1145.95C890.813 1148.46 892.189 1150.19 894.381 1150.19C896.381 1150.19 897.037 1148.69 897.037 1148.69H897.069C897.069 1148.69 897.053 1148.91 897.053 1149.23V1150H898.525V1138.7H896.973V1142.45C896.973 1142.75 897.005 1142.99 897.005 1142.99H896.973C896.973 1142.99 896.349 1141.71 894.477 1141.71C892.333 1141.71 890.813 1143.38 890.813 1145.95ZM892.397 1145.95C892.397 1144.11 893.453 1143.06 894.733 1143.06C896.269 1143.06 897.021 1144.5 897.021 1145.94C897.021 1148 895.885 1148.85 894.685 1148.85C893.341 1148.85 892.397 1147.71 892.397 1145.95ZM899.814 1152.86C899.814 1152.86 900.47 1153.36 901.382 1153.36C902.518 1153.36 903.51 1152.7 904.006 1151.46L907.798 1141.9H906.118L904.15 1147.22C904.006 1147.63 903.878 1148.18 903.878 1148.18H903.846C903.846 1148.18 903.702 1147.62 903.542 1147.2L901.51 1141.9H899.766L903.158 1149.9L902.758 1150.83C902.454 1151.57 901.926 1152.02 901.302 1152.02C900.806 1152.02 900.358 1151.68 900.358 1151.68L899.814 1152.86ZM913.552 1147.04C913.552 1149.74 915.616 1150.06 916.656 1150.06C916.976 1150.06 917.2 1150.03 917.2 1150.03V1148.66C917.2 1148.66 917.056 1148.69 916.832 1148.69C916.24 1148.69 915.104 1148.48 915.104 1146.86V1143.26H917.056V1142.02H915.104V1139.68H913.6V1142.02H912.496V1143.26H913.552V1147.04ZM918.39 1145.95C918.39 1148.35 920.134 1150.19 922.678 1150.19C924.614 1150.19 925.814 1149.04 925.814 1149.04L925.174 1147.9C925.174 1147.9 924.166 1148.85 922.774 1148.85C921.334 1148.85 920.07 1147.95 919.99 1146.18H925.894C925.894 1146.18 925.942 1145.71 925.942 1145.5C925.942 1143.41 924.726 1141.71 922.438 1141.71C920.134 1141.71 918.39 1143.38 918.39 1145.95ZM920.038 1145.01C920.262 1143.68 921.222 1142.94 922.406 1142.94C923.446 1142.94 924.31 1143.62 924.358 1145.01H920.038ZM930.689 1146.85C930.689 1146.85 930.817 1147.1 930.929 1147.3L932.625 1150H934.385L931.633 1145.84L934.241 1141.9H932.465L930.961 1144.37C930.833 1144.58 930.689 1144.85 930.689 1144.85H930.657C930.657 1144.85 930.513 1144.58 930.385 1144.37L928.881 1141.9H927.105L929.713 1145.84L926.961 1150H928.721L930.417 1147.3C930.529 1147.1 930.657 1146.85 930.657 1146.85H930.689ZM936.286 1147.04C936.286 1149.74 938.35 1150.06 939.39 1150.06C939.71 1150.06 939.934 1150.03 939.934 1150.03V1148.66C939.934 1148.66 939.79 1148.69 939.566 1148.69C938.974 1148.69 937.838 1148.48 937.838 1146.86V1143.26H939.79V1142.02H937.838V1139.68H936.334V1142.02H935.23V1143.26H936.286V1147.04Z" fill="#404040"/>
<path d="M871.536 1461H873.12V1456.5H875.536L877.92 1461H879.712L877.312 1456.62C877.104 1456.25 876.976 1456.1 876.976 1456.1V1456.07C878.208 1455.67 879.008 1454.46 879.008 1453.02C879.008 1451.53 878.256 1450.39 877.104 1449.96C876.672 1449.8 876.176 1449.7 874.992 1449.7H871.536V1461ZM873.12 1455.13V1451.08H874.944C875.824 1451.08 876.192 1451.18 876.496 1451.34C877.072 1451.66 877.392 1452.25 877.392 1453.08C877.392 1454.34 876.624 1455.13 875.392 1455.13H873.12ZM880.906 1456.95C880.906 1459.35 882.65 1461.19 885.194 1461.19C887.13 1461.19 888.33 1460.04 888.33 1460.04L887.69 1458.9C887.69 1458.9 886.682 1459.85 885.29 1459.85C883.85 1459.85 882.586 1458.95 882.506 1457.18H888.41C888.41 1457.18 888.458 1456.71 888.458 1456.5C888.458 1454.41 887.242 1452.71 884.954 1452.71C882.65 1452.71 880.906 1454.38 880.906 1456.95ZM882.554 1456.01C882.778 1454.68 883.738 1453.94 884.922 1453.94C885.962 1453.94 886.826 1454.62 886.874 1456.01H882.554ZM890.245 1458.79C890.245 1460.82 891.541 1461.06 892.421 1461.06C892.693 1461.06 892.933 1461.03 892.933 1461.03V1459.66C892.933 1459.66 892.805 1459.67 892.661 1459.67C892.181 1459.67 891.797 1459.5 891.797 1458.52V1449.7H890.245V1458.79ZM893.919 1458.73C893.919 1460.34 895.279 1461.19 896.671 1461.19C898.607 1461.19 899.263 1459.59 899.263 1459.59H899.295C899.295 1459.59 899.263 1459.86 899.263 1460.23V1461H900.703V1455.88C900.703 1453.83 899.551 1452.71 897.503 1452.71C895.647 1452.71 894.479 1453.67 894.479 1453.67L895.119 1454.81C895.119 1454.81 896.127 1454.02 897.375 1454.02C898.399 1454.02 899.151 1454.47 899.151 1455.8V1455.94H898.799C897.439 1455.94 893.919 1456.06 893.919 1458.73ZM895.487 1458.65C895.487 1457.19 897.599 1457.11 898.767 1457.11H899.167V1457.37C899.167 1458.57 898.319 1459.94 897.007 1459.94C895.999 1459.94 895.487 1459.3 895.487 1458.65ZM903.318 1458.04C903.318 1460.74 905.382 1461.06 906.422 1461.06C906.742 1461.06 906.966 1461.03 906.966 1461.03V1459.66C906.966 1459.66 906.822 1459.69 906.598 1459.69C906.006 1459.69 904.87 1459.48 904.87 1457.86V1454.26H906.822V1453.02H904.87V1450.68H903.366V1453.02H902.262V1454.26H903.318V1458.04ZM908.156 1456.95C908.156 1459.35 909.9 1461.19 912.444 1461.19C914.38 1461.19 915.58 1460.04 915.58 1460.04L914.94 1458.9C914.94 1458.9 913.932 1459.85 912.54 1459.85C911.1 1459.85 909.836 1458.95 909.756 1457.18H915.66C915.66 1457.18 915.708 1456.71 915.708 1456.5C915.708 1454.41 914.492 1452.71 912.204 1452.71C909.9 1452.71 908.156 1454.38 908.156 1456.95ZM909.804 1456.01C910.028 1454.68 910.988 1453.94 912.172 1453.94C913.212 1453.94 914.076 1454.62 914.124 1456.01H909.804ZM917.063 1456.95C917.063 1459.46 918.439 1461.19 920.631 1461.19C922.631 1461.19 923.287 1459.69 923.287 1459.69H923.319C923.319 1459.69 923.303 1459.91 923.303 1460.23V1461H924.775V1449.7H923.223V1453.45C923.223 1453.75 923.255 1453.99 923.255 1453.99H923.223C923.223 1453.99 922.599 1452.71 920.727 1452.71C918.583 1452.71 917.063 1454.38 917.063 1456.95ZM918.647 1456.95C918.647 1455.11 919.703 1454.06 920.983 1454.06C922.519 1454.06 923.271 1455.5 923.271 1456.94C923.271 1459 922.135 1459.85 920.935 1459.85C919.591 1459.85 918.647 1458.71 918.647 1456.95ZM931.31 1464.2H932.862V1460.57C932.862 1460.15 932.83 1459.86 932.83 1459.86H932.862C932.862 1459.86 933.566 1461.19 935.342 1461.19C937.454 1461.19 939.006 1459.53 939.006 1456.95C939.006 1454.44 937.63 1452.71 935.454 1452.71C933.422 1452.71 932.734 1454.18 932.734 1454.18H932.702C932.702 1454.18 932.734 1453.91 932.734 1453.59V1452.9H931.31V1464.2ZM932.814 1456.98C932.814 1454.92 933.934 1454.07 935.15 1454.07C936.494 1454.07 937.438 1455.21 937.438 1456.97C937.438 1458.81 936.382 1459.86 935.102 1459.86C933.614 1459.86 932.814 1458.42 932.814 1456.98ZM940.312 1456.94C940.312 1459.4 942.264 1461.19 944.68 1461.19C947.096 1461.19 949.048 1459.4 949.048 1456.94C949.048 1454.49 947.096 1452.71 944.68 1452.71C942.264 1452.71 940.312 1454.49 940.312 1456.94ZM941.896 1456.94C941.896 1455.26 943.16 1454.06 944.68 1454.06C946.216 1454.06 947.464 1455.26 947.464 1456.94C947.464 1458.63 946.216 1459.85 944.68 1459.85C943.16 1459.85 941.896 1458.63 941.896 1456.94ZM950.36 1456.95C950.36 1459.46 951.736 1461.19 953.928 1461.19C955.928 1461.19 956.584 1459.69 956.584 1459.69H956.616C956.616 1459.69 956.6 1459.91 956.6 1460.23V1461H958.072V1449.7H956.52V1453.45C956.52 1453.75 956.552 1453.99 956.552 1453.99H956.52C956.52 1453.99 955.896 1452.71 954.024 1452.71C951.88 1452.71 950.36 1454.38 950.36 1456.95ZM951.944 1456.95C951.944 1455.11 953 1454.06 954.28 1454.06C955.816 1454.06 956.568 1455.5 956.568 1456.94C956.568 1459 955.432 1459.85 954.232 1459.85C952.888 1459.85 951.944 1458.71 951.944 1456.95ZM959.921 1456.95C959.921 1459.38 961.713 1461.19 964.257 1461.19C966.369 1461.19 967.489 1459.9 967.489 1459.9L966.865 1458.76C966.865 1458.76 965.873 1459.85 964.369 1459.85C962.689 1459.85 961.505 1458.58 961.505 1456.94C961.505 1455.27 962.689 1454.06 964.321 1454.06C965.697 1454.06 966.561 1454.98 966.561 1454.98L967.297 1453.9C967.297 1453.9 966.289 1452.71 964.257 1452.71C961.713 1452.71 959.921 1454.55 959.921 1456.95ZM968.591 1458.73C968.591 1460.34 969.951 1461.19 971.343 1461.19C973.279 1461.19 973.935 1459.59 973.935 1459.59H973.967C973.967 1459.59 973.935 1459.86 973.935 1460.23V1461H975.375V1455.88C975.375 1453.83 974.223 1452.71 972.175 1452.71C970.319 1452.71 969.151 1453.67 969.151 1453.67L969.791 1454.81C969.791 1454.81 970.799 1454.02 972.047 1454.02C973.071 1454.02 973.823 1454.47 973.823 1455.8V1455.94H973.471C972.111 1455.94 968.591 1456.06 968.591 1458.73ZM970.159 1458.65C970.159 1457.19 972.271 1457.11 973.439 1457.11H973.839V1457.37C973.839 1458.57 972.991 1459.94 971.679 1459.94C970.671 1459.94 970.159 1459.3 970.159 1458.65ZM977.044 1460.01C977.044 1460.01 978.132 1461.19 980.116 1461.19C981.892 1461.19 983.044 1460.18 983.044 1458.84C983.044 1456.18 978.884 1456.5 978.884 1455.05C978.884 1454.34 979.54 1454.06 980.212 1454.06C981.492 1454.06 982.212 1454.78 982.212 1454.78L982.836 1453.61C982.836 1453.61 982.004 1452.71 980.228 1452.71C978.612 1452.71 977.3 1453.54 977.3 1455.02C977.3 1457.66 981.46 1457.35 981.46 1458.84C981.46 1459.5 980.788 1459.85 980.116 1459.85C978.708 1459.85 977.796 1458.9 977.796 1458.9L977.044 1460.01ZM985.208 1458.04C985.208 1460.74 987.272 1461.06 988.312 1461.06C988.632 1461.06 988.856 1461.03 988.856 1461.03V1459.66C988.856 1459.66 988.712 1459.69 988.488 1459.69C987.896 1459.69 986.76 1459.48 986.76 1457.86V1454.26H988.712V1453.02H986.76V1450.68H985.256V1453.02H984.152V1454.26H985.208V1458.04Z" fill="#404040"/>
<path d="M871.536 1693H873.12V1688.82H875.664C877.728 1688.82 879.216 1687.38 879.216 1685.24C879.216 1683.1 877.728 1681.7 875.664 1681.7H871.536V1693ZM873.12 1687.45V1683.08H875.424C876.768 1683.08 877.6 1683.88 877.6 1685.24C877.6 1686.6 876.768 1687.45 875.408 1687.45H873.12ZM880.343 1688.94C880.343 1691.4 882.295 1693.19 884.711 1693.19C887.127 1693.19 889.079 1691.4 889.079 1688.94C889.079 1686.49 887.127 1684.71 884.711 1684.71C882.295 1684.71 880.343 1686.49 880.343 1688.94ZM881.927 1688.94C881.927 1687.26 883.191 1686.06 884.711 1686.06C886.247 1686.06 887.495 1687.26 887.495 1688.94C887.495 1690.63 886.247 1691.85 884.711 1691.85C883.191 1691.85 881.927 1690.63 881.927 1688.94ZM890.391 1688.95C890.391 1691.46 891.767 1693.19 893.959 1693.19C895.959 1693.19 896.615 1691.69 896.615 1691.69H896.647C896.647 1691.69 896.631 1691.91 896.631 1692.23V1693H898.103V1681.7H896.551V1685.45C896.551 1685.75 896.583 1685.99 896.583 1685.99H896.551C896.551 1685.99 895.927 1684.71 894.055 1684.71C891.911 1684.71 890.391 1686.38 890.391 1688.95ZM891.975 1688.95C891.975 1687.11 893.031 1686.06 894.311 1686.06C895.847 1686.06 896.599 1687.5 896.599 1688.94C896.599 1691 895.463 1691.85 894.263 1691.85C892.919 1691.85 891.975 1690.71 891.975 1688.95ZM899.953 1688.95C899.953 1691.38 901.745 1693.19 904.289 1693.19C906.401 1693.19 907.521 1691.9 907.521 1691.9L906.897 1690.76C906.897 1690.76 905.905 1691.85 904.401 1691.85C902.721 1691.85 901.537 1690.58 901.537 1688.94C901.537 1687.27 902.721 1686.06 904.353 1686.06C905.729 1686.06 906.593 1686.98 906.593 1686.98L907.329 1685.9C907.329 1685.9 906.321 1684.71 904.289 1684.71C901.745 1684.71 899.953 1686.55 899.953 1688.95ZM908.623 1690.73C908.623 1692.34 909.983 1693.19 911.375 1693.19C913.311 1693.19 913.967 1691.59 913.967 1691.59H913.999C913.999 1691.59 913.967 1691.86 913.967 1692.23V1693H915.407V1687.88C915.407 1685.83 914.255 1684.71 912.207 1684.71C910.351 1684.71 909.183 1685.67 909.183 1685.67L909.823 1686.81C909.823 1686.81 910.831 1686.02 912.079 1686.02C913.103 1686.02 913.855 1686.47 913.855 1687.8V1687.94H913.503C912.143 1687.94 908.623 1688.06 908.623 1690.73ZM910.191 1690.65C910.191 1689.19 912.303 1689.11 913.471 1689.11H913.871V1689.37C913.871 1690.57 913.023 1691.94 911.711 1691.94C910.703 1691.94 910.191 1691.3 910.191 1690.65ZM917.076 1692.01C917.076 1692.01 918.164 1693.19 920.148 1693.19C921.924 1693.19 923.076 1692.18 923.076 1690.84C923.076 1688.18 918.916 1688.5 918.916 1687.05C918.916 1686.34 919.572 1686.06 920.244 1686.06C921.524 1686.06 922.244 1686.78 922.244 1686.78L922.868 1685.61C922.868 1685.61 922.036 1684.71 920.26 1684.71C918.644 1684.71 917.332 1685.54 917.332 1687.02C917.332 1689.66 921.492 1689.35 921.492 1690.84C921.492 1691.5 920.82 1691.85 920.148 1691.85C918.74 1691.85 917.828 1690.9 917.828 1690.9L917.076 1692.01ZM925.24 1690.04C925.24 1692.74 927.304 1693.06 928.344 1693.06C928.664 1693.06 928.888 1693.03 928.888 1693.03V1691.66C928.888 1691.66 928.744 1691.69 928.52 1691.69C927.928 1691.69 926.792 1691.48 926.792 1689.86V1686.26H928.744V1685.02H926.792V1682.68H925.288V1685.02H924.184V1686.26H925.24V1690.04ZM935.083 1690.04C935.083 1692.74 937.147 1693.06 938.187 1693.06C938.507 1693.06 938.731 1693.03 938.731 1693.03V1691.66C938.731 1691.66 938.587 1691.69 938.363 1691.69C937.771 1691.69 936.635 1691.48 936.635 1689.86V1686.26H938.587V1685.02H936.635V1682.68H935.131V1685.02H934.027V1686.26H935.083V1690.04ZM940.466 1683.29H942.034V1681.7H940.466V1683.29ZM940.482 1693H942.034V1684.9H940.482V1693ZM944.802 1690.04C944.802 1692.74 946.866 1693.06 947.906 1693.06C948.226 1693.06 948.45 1693.03 948.45 1693.03V1691.66C948.45 1691.66 948.306 1691.69 948.082 1691.69C947.49 1691.69 946.354 1691.48 946.354 1689.86V1686.26H948.306V1685.02H946.354V1682.68H944.85V1685.02H943.746V1686.26H944.802V1690.04ZM950.104 1690.79C950.104 1692.82 951.4 1693.06 952.28 1693.06C952.552 1693.06 952.792 1693.03 952.792 1693.03V1691.66C952.792 1691.66 952.664 1691.67 952.52 1691.67C952.04 1691.67 951.656 1691.5 951.656 1690.52V1681.7H950.104V1690.79ZM953.875 1688.95C953.875 1691.35 955.619 1693.19 958.163 1693.19C960.099 1693.19 961.299 1692.04 961.299 1692.04L960.659 1690.9C960.659 1690.9 959.651 1691.85 958.259 1691.85C956.819 1691.85 955.555 1690.95 955.475 1689.18H961.379C961.379 1689.18 961.427 1688.71 961.427 1688.5C961.427 1686.41 960.211 1684.71 957.923 1684.71C955.619 1684.71 953.875 1686.38 953.875 1688.95ZM955.523 1688.01C955.747 1686.68 956.707 1685.94 957.891 1685.94C958.931 1685.94 959.795 1686.62 959.843 1688.01H955.523ZM966.763 1690.73C966.763 1692.34 968.123 1693.19 969.515 1693.19C971.451 1693.19 972.107 1691.59 972.107 1691.59H972.139C972.139 1691.59 972.107 1691.86 972.107 1692.23V1693H973.547V1687.88C973.547 1685.83 972.395 1684.71 970.347 1684.71C968.491 1684.71 967.323 1685.67 967.323 1685.67L967.963 1686.81C967.963 1686.81 968.971 1686.02 970.219 1686.02C971.243 1686.02 971.995 1686.47 971.995 1687.8V1687.94H971.643C970.283 1687.94 966.763 1688.06 966.763 1690.73ZM968.331 1690.65C968.331 1689.19 970.443 1689.11 971.611 1689.11H972.011V1689.37C972.011 1690.57 971.163 1691.94 969.851 1691.94C968.843 1691.94 968.331 1691.3 968.331 1690.65ZM975.872 1693H977.424V1689.21C977.424 1688.81 977.456 1688.44 977.552 1688.12C977.888 1686.95 978.88 1686.14 980.112 1686.14C981.408 1686.14 981.648 1687.03 981.648 1688.17V1693H983.2V1687.82C983.2 1685.75 982.32 1684.71 980.416 1684.71C978.656 1684.71 977.696 1685.86 977.376 1686.57H977.344C977.344 1686.57 977.376 1686.3 977.376 1685.98V1684.9H975.872V1693ZM984.985 1688.95C984.985 1691.46 986.361 1693.19 988.553 1693.19C990.553 1693.19 991.209 1691.69 991.209 1691.69H991.241C991.241 1691.69 991.225 1691.91 991.225 1692.23V1693H992.697V1681.7H991.145V1685.45C991.145 1685.75 991.177 1685.99 991.177 1685.99H991.145C991.145 1685.99 990.521 1684.71 988.649 1684.71C986.505 1684.71 984.985 1686.38 984.985 1688.95ZM986.569 1688.95C986.569 1687.11 987.625 1686.06 988.905 1686.06C990.441 1686.06 991.193 1687.5 991.193 1688.94C991.193 1691 990.057 1691.85 988.857 1691.85C987.513 1691.85 986.569 1690.71 986.569 1688.95ZM1002.81 1688.95C1002.81 1691.46 1004.19 1693.19 1006.38 1693.19C1008.38 1693.19 1009.04 1691.69 1009.04 1691.69H1009.07C1009.07 1691.69 1009.05 1691.91 1009.05 1692.23V1693H1010.53V1681.7H1008.97V1685.45C1008.97 1685.75 1009.01 1685.99 1009.01 1685.99H1008.97C1008.97 1685.99 1008.35 1684.71 1006.48 1684.71C1004.33 1684.71 1002.81 1686.38 1002.81 1688.95ZM1004.4 1688.95C1004.4 1687.11 1005.45 1686.06 1006.73 1686.06C1008.27 1686.06 1009.02 1687.5 1009.02 1688.94C1009.02 1691 1007.89 1691.85 1006.69 1691.85C1005.34 1691.85 1004.4 1690.71 1004.4 1688.95ZM1012.39 1688.95C1012.39 1691.35 1014.13 1693.19 1016.68 1693.19C1018.61 1693.19 1019.81 1692.04 1019.81 1692.04L1019.17 1690.9C1019.17 1690.9 1018.17 1691.85 1016.77 1691.85C1015.33 1691.85 1014.07 1690.95 1013.99 1689.18H1019.89C1019.89 1689.18 1019.94 1688.71 1019.94 1688.5C1019.94 1686.41 1018.73 1684.71 1016.44 1684.71C1014.13 1684.71 1012.39 1686.38 1012.39 1688.95ZM1014.04 1688.01C1014.26 1686.68 1015.22 1685.94 1016.41 1685.94C1017.45 1685.94 1018.31 1686.62 1018.36 1688.01H1014.04ZM1021.17 1692.01C1021.17 1692.01 1022.26 1693.19 1024.24 1693.19C1026.02 1693.19 1027.17 1692.18 1027.17 1690.84C1027.17 1688.18 1023.01 1688.5 1023.01 1687.05C1023.01 1686.34 1023.67 1686.06 1024.34 1686.06C1025.62 1686.06 1026.34 1686.78 1026.34 1686.78L1026.96 1685.61C1026.96 1685.61 1026.13 1684.71 1024.35 1684.71C1022.74 1684.71 1021.43 1685.54 1021.43 1687.02C1021.43 1689.66 1025.59 1689.35 1025.59 1690.84C1025.59 1691.5 1024.91 1691.85 1024.24 1691.85C1022.83 1691.85 1021.92 1690.9 1021.92 1690.9L1021.17 1692.01ZM1028.42 1688.95C1028.42 1691.38 1030.21 1693.19 1032.76 1693.19C1034.87 1693.19 1035.99 1691.9 1035.99 1691.9L1035.37 1690.76C1035.37 1690.76 1034.37 1691.85 1032.87 1691.85C1031.19 1691.85 1030.01 1690.58 1030.01 1688.94C1030.01 1687.27 1031.19 1686.06 1032.82 1686.06C1034.2 1686.06 1035.06 1686.98 1035.06 1686.98L1035.8 1685.9C1035.8 1685.9 1034.79 1684.71 1032.76 1684.71C1030.21 1684.71 1028.42 1686.55 1028.42 1688.95ZM1037.75 1693H1039.3V1689.69C1039.3 1689.19 1039.35 1688.7 1039.49 1688.23C1039.86 1687.03 1040.77 1686.33 1041.76 1686.33C1042 1686.33 1042.21 1686.38 1042.21 1686.38V1684.84C1042.21 1684.84 1042.02 1684.81 1041.81 1684.81C1040.56 1684.81 1039.62 1685.74 1039.25 1686.92H1039.22C1039.22 1686.92 1039.25 1686.65 1039.25 1686.31V1684.9H1037.75V1693ZM1043.73 1683.29H1045.3V1681.7H1043.73V1683.29ZM1043.75 1693H1045.3V1684.9H1043.75V1693ZM1047.73 1696.2H1049.28V1692.57C1049.28 1692.15 1049.25 1691.86 1049.25 1691.86H1049.28C1049.28 1691.86 1049.99 1693.19 1051.76 1693.19C1053.88 1693.19 1055.43 1691.53 1055.43 1688.95C1055.43 1686.44 1054.05 1684.71 1051.88 1684.71C1049.84 1684.71 1049.16 1686.18 1049.16 1686.18H1049.12C1049.12 1686.18 1049.16 1685.91 1049.16 1685.59V1684.9H1047.73V1696.2ZM1049.24 1688.98C1049.24 1686.92 1050.36 1686.07 1051.57 1686.07C1052.92 1686.07 1053.86 1687.21 1053.86 1688.97C1053.86 1690.81 1052.8 1691.86 1051.52 1691.86C1050.04 1691.86 1049.24 1690.42 1049.24 1688.98ZM1057.66 1690.04C1057.66 1692.74 1059.73 1693.06 1060.77 1693.06C1061.09 1693.06 1061.31 1693.03 1061.31 1693.03V1691.66C1061.31 1691.66 1061.17 1691.69 1060.94 1691.69C1060.35 1691.69 1059.21 1691.48 1059.21 1689.86V1686.26H1061.17V1685.02H1059.21V1682.68H1057.71V1685.02H1056.61V1686.26H1057.66V1690.04ZM1063.04 1683.29H1064.61V1681.7H1063.04V1683.29ZM1063.06 1693H1064.61V1684.9H1063.06V1693ZM1066.45 1688.94C1066.45 1691.4 1068.4 1693.19 1070.82 1693.19C1073.24 1693.19 1075.19 1691.4 1075.19 1688.94C1075.19 1686.49 1073.24 1684.71 1070.82 1684.71C1068.4 1684.71 1066.45 1686.49 1066.45 1688.94ZM1068.04 1688.94C1068.04 1687.26 1069.3 1686.06 1070.82 1686.06C1072.36 1686.06 1073.6 1687.26 1073.6 1688.94C1073.6 1690.63 1072.36 1691.85 1070.82 1691.85C1069.3 1691.85 1068.04 1690.63 1068.04 1688.94ZM1077.03 1693H1078.58V1689.21C1078.58 1688.81 1078.61 1688.44 1078.71 1688.12C1079.04 1686.95 1080.04 1686.14 1081.27 1686.14C1082.56 1686.14 1082.8 1687.03 1082.8 1688.17V1693H1084.36V1687.82C1084.36 1685.75 1083.48 1684.71 1081.57 1684.71C1079.81 1684.71 1078.85 1685.86 1078.53 1686.57H1078.5C1078.5 1686.57 1078.53 1686.3 1078.53 1685.98V1684.9H1077.03V1693Z" fill="#404040"/>
<path d="M9.34 20H16.022C19.428 20 22.392 18.336 22.392 14.644C22.392 12.772 21.43 10.9 19.402 10.302V10.25C20.806 9.496 21.638 8.014 21.638 6.298C21.638 3.256 19.272 1.54 15.944 1.54H9.34V20ZM12.694 9.08V4.426H15.892C17.452 4.426 18.232 5.388 18.232 6.714C18.232 8.04 17.4 9.08 15.944 9.08H12.694ZM12.694 17.114V11.784H16.282C17.972 11.784 18.96 12.902 18.96 14.436C18.96 15.996 17.998 17.114 16.282 17.114H12.694ZM25.3196 15.866C25.3196 19.662 27.5816 20.13 29.4016 20.13C29.9476 20.13 30.4416 20.052 30.4416 20.052V17.166C30.4416 17.166 30.2076 17.192 29.9476 17.192C29.0896 17.192 28.5956 16.828 28.5956 15.372V1.54H25.3196V15.866ZM31.9023 13.37C31.9023 17.452 35.1523 20.312 39.2083 20.312C43.2383 20.312 46.4883 17.452 46.4883 13.37C46.4883 9.314 43.2383 6.428 39.1823 6.428C35.1523 6.428 31.9023 9.314 31.9023 13.37ZM35.2563 13.37C35.2563 10.926 37.0503 9.236 39.2083 9.236C41.3403 9.236 43.1343 10.926 43.1343 13.37C43.1343 15.84 41.3403 17.504 39.2083 17.504C37.0503 17.504 35.2563 15.84 35.2563 13.37ZM50.4923 21.794L49.5043 24.316C50.7783 24.992 52.5463 25.46 54.2103 25.46C57.6683 25.46 61.2043 23.744 61.2043 19.194V6.74H58.1103V7.754C58.1103 7.962 58.1363 8.118 58.1363 8.118H58.0583C58.0583 8.118 57.0183 6.428 54.1323 6.428C50.3103 6.428 48.2563 9.392 48.2563 13.032C48.2563 16.672 50.4143 19.74 54.2103 19.74C55.9783 19.74 57.1223 19.116 57.9023 17.946H57.9543C57.9543 17.946 57.9023 18.336 57.9023 18.648V19.428C57.9023 21.794 56.1863 22.652 54.1583 22.652C52.1563 22.652 50.4923 21.794 50.4923 21.794ZM54.9123 16.958C52.7803 16.958 51.5843 15.242 51.5843 12.928C51.5843 10.692 52.7023 9.236 54.7043 9.236C56.4983 9.236 57.9803 10.042 57.9803 13.058C57.9803 16.048 56.4983 16.958 54.9123 16.958ZM63.7137 18.362C63.7137 18.362 65.5597 20.312 68.8617 20.312C72.0077 20.312 73.9317 18.544 73.9317 16.334C73.9317 12.07 67.4837 12.304 67.4837 10.432C67.4837 9.6 68.3157 9.236 69.1737 9.236C71.2017 9.236 72.4237 10.38 72.4237 10.38L73.6457 7.936C73.6457 7.936 72.1897 6.428 69.1997 6.428C66.3397 6.428 64.1297 7.858 64.1297 10.328C64.1297 14.592 70.5777 14.332 70.5777 16.308C70.5777 17.088 69.7717 17.504 68.8357 17.504C66.6777 17.504 65.2217 16.048 65.2217 16.048L63.7137 18.362ZM83.4298 20H94.7658V17.114H86.7838V1.54H83.4298V20ZM95.8075 16.178C95.8075 18.83 97.9395 20.312 100.305 20.312C103.321 20.312 104.361 17.972 104.335 17.972H104.387C104.387 17.972 104.335 18.388 104.335 18.908V20H107.377V11.706C107.377 8.352 105.349 6.428 101.865 6.428C98.7195 6.428 96.6655 8.066 96.6655 8.066L97.9135 10.432C97.9135 10.432 99.6555 9.158 101.553 9.158C103.009 9.158 104.101 9.756 104.101 11.498V11.68H103.659C101.501 11.68 95.8075 11.966 95.8075 16.178ZM99.1355 16.022C99.1355 14.176 101.865 13.942 103.555 13.942H104.127V14.254C104.127 15.866 102.879 17.738 101.137 17.738C99.7855 17.738 99.1355 16.906 99.1355 16.022ZM109.02 24.602C109.02 24.602 110.19 25.46 111.776 25.46C113.778 25.46 115.624 24.42 116.56 22.002L122.488 6.74H118.874L116.274 14.436C116.04 15.138 115.832 16.178 115.832 16.178H115.78C115.78 16.178 115.546 15.086 115.286 14.384L112.504 6.74H108.786L114.376 19.792L113.882 20.962C113.388 22.132 112.504 22.678 111.594 22.678C110.84 22.678 110.112 22.132 110.112 22.132L109.02 24.602ZM123.385 13.37C123.385 17.452 126.635 20.312 130.691 20.312C134.721 20.312 137.971 17.452 137.971 13.37C137.971 9.314 134.721 6.428 130.665 6.428C126.635 6.428 123.385 9.314 123.385 13.37ZM126.739 13.37C126.739 10.926 128.533 9.236 130.691 9.236C132.823 9.236 134.617 10.926 134.617 13.37C134.617 15.84 132.823 17.504 130.691 17.504C128.533 17.504 126.739 15.84 126.739 13.37ZM140.441 15.268C140.441 18.882 142.209 20.312 145.043 20.312C147.305 20.312 148.995 18.934 149.645 17.556H149.697C149.697 17.556 149.645 17.972 149.645 18.492V20H152.817V6.74H149.515V12.824C149.515 15.19 148.189 17.296 145.797 17.296C144.159 17.296 143.743 16.204 143.743 14.592V6.74H140.441V15.268ZM157.038 15.138C157.038 19.584 160.704 20.13 162.55 20.13C163.174 20.13 163.564 20.052 163.564 20.052V17.166C163.564 17.166 163.33 17.218 162.966 17.218C162.056 17.218 160.34 16.906 160.34 14.722V9.574H163.356V6.948H160.34V3.126H157.116V6.948H155.322V9.574H157.038V15.138Z" fill="#404040"/>
<defs>
<filter id="filter0_d" x="0.0204458" y="95.0204" width="764.959" height="1665.96" filterUnits="userSpaceOnUse" color-interpolation-filters="sRGB">
<feFlood flood-opacity="0" result="BackgroundImageFix"/>
<feColorMatrix in="SourceAlpha" type="matrix" values="0 0 0 0 0 0 0 0 0 0 0 0 0 0 0 0 0 0 127 0" result="hardAlpha"/>
<feOffset/>
<feGaussianBlur stdDeviation="3.48978"/>
<feColorMatrix type="matrix" values="0 0 0 0 0 0 0 0 0 0 0 0 0 0 0 0 0 0 0.2 0"/>
<feBlend mode="normal" in2="BackgroundImageFix" result="effect1_dropShadow"/>
<feBlend mode="normal" in="SourceGraphic" in2="effect1_dropShadow" result="shape"/>
</filter>
</defs>
</svg>
