<svg width="459" height="383" viewBox="0 0 459 383" fill="none" xmlns="http://www.w3.org/2000/svg">
<mask id="mask0" mask-type="alpha" maskUnits="userSpaceOnUse" x="0" y="0" width="459" height="383">
<rect width="459" height="383" fill="white"/>
</mask>
<g mask="url(#mask0)">
<path d="M283.468 243.842C284.034 243.841 284.59 243.694 285.083 243.414L378.47 190.616C379.229 190.186 379.787 189.472 380.02 188.631C380.254 187.79 380.144 186.891 379.716 186.131L306.161 56.0299C305.948 55.6536 305.664 55.3228 305.323 55.0566C304.983 54.7903 304.593 54.5937 304.177 54.4781C303.76 54.3624 303.325 54.33 302.896 54.3826C302.467 54.4352 302.052 54.5718 301.676 54.7847L208.289 107.583C207.53 108.013 206.972 108.727 206.739 109.567C206.505 110.408 206.615 111.307 207.043 112.067L280.598 242.168C280.81 242.546 281.094 242.877 281.435 243.143C281.775 243.41 282.165 243.606 282.582 243.721C282.871 243.801 283.168 243.841 283.468 243.842Z" fill="#E6E6E6"/>
<path d="M308.765 61.127L309.141 61.7908L210.443 117.591L210.068 116.927L308.765 61.127Z" fill="white"/>
<path d="M315.52 73.075L315.895 73.7388L217.198 129.539L216.822 128.875L315.52 73.075Z" fill="white"/>
<path d="M322.275 85.0232L322.651 85.687L223.953 141.487L223.578 140.823L322.275 85.0232Z" fill="white"/>
<path d="M329.03 96.9712L329.405 97.635L230.708 153.435L230.332 152.771L329.03 96.9712Z" fill="white"/>
<path d="M335.785 108.919L336.161 109.583L237.463 165.383L237.088 164.719L335.785 108.919Z" fill="white"/>
<path d="M342.54 120.867L342.916 121.531L244.218 177.331L243.843 176.668L342.54 120.867Z" fill="white"/>
<path d="M349.295 132.815L349.671 133.479L250.973 189.279L250.598 188.616L349.295 132.815Z" fill="white"/>
<path d="M356.05 144.763L356.425 145.427L257.728 201.227L257.352 200.563L356.05 144.763Z" fill="white"/>
<path d="M362.805 156.712L363.181 157.375L264.483 213.176L264.108 212.512L362.805 156.712Z" fill="white"/>
<path d="M369.56 168.66L369.935 169.323L271.238 225.124L270.862 224.46L369.56 168.66Z" fill="white"/>
<path d="M376.315 180.608L376.691 181.271L277.993 237.072L277.618 236.408L376.315 180.608Z" fill="white"/>
<path d="M292.155 224.054C292.721 224.053 293.277 223.906 293.77 223.626L387.157 170.828C387.916 170.398 388.474 169.684 388.707 168.843C388.941 168.002 388.831 167.103 388.403 166.343L314.848 36.2418C314.635 35.8655 314.351 35.5347 314.01 35.2685C313.67 35.0022 313.28 34.8056 312.864 34.69C312.447 34.5744 312.012 34.5419 311.583 34.5945C311.154 34.6471 310.739 34.7838 310.363 34.9966L216.976 87.7944C216.217 88.2247 215.659 88.9386 215.426 89.7793C215.192 90.6201 215.302 91.5191 215.73 92.2793L289.285 222.38C289.497 222.757 289.781 223.089 290.122 223.355C290.462 223.622 290.852 223.818 291.269 223.932C291.558 224.013 291.855 224.053 292.155 224.054Z" fill="#F2F2F2"/>
<path d="M317.453 41.3392L317.828 42.0029L219.13 97.803L218.755 97.1392L317.453 41.3392Z" fill="white"/>
<path d="M324.207 53.2873L324.583 53.951L225.885 109.751L225.51 109.087L324.207 53.2873Z" fill="white"/>
<path d="M330.962 65.2352L331.338 65.8989L232.64 121.699L232.265 121.035L330.962 65.2352Z" fill="white"/>
<path d="M337.718 77.1833L338.093 77.847L239.395 133.647L239.02 132.983L337.718 77.1833Z" fill="white"/>
<path d="M344.472 89.1313L344.848 89.795L246.15 145.595L245.775 144.931L344.472 89.1313Z" fill="white"/>
<path d="M351.228 101.08L351.603 101.743L252.905 157.543L252.53 156.88L351.228 101.08Z" fill="white"/>
<path d="M357.983 113.027L358.358 113.691L259.661 169.491L259.285 168.827L357.983 113.027Z" fill="white"/>
<path d="M364.738 124.975L365.113 125.639L266.415 181.439L266.04 180.775L364.738 124.975Z" fill="white"/>
<path d="M371.492 136.924L371.868 137.588L273.17 193.388L272.795 192.724L371.492 136.924Z" fill="white"/>
<path d="M378.248 148.872L378.623 149.536L279.925 205.336L279.55 204.672L378.248 148.872Z" fill="white"/>
<path d="M385.002 160.82L385.378 161.483L286.68 217.283L286.305 216.62L385.002 160.82Z" fill="white"/>
<path d="M301.46 33.7843H450.708V241.316H301.46C300.924 241.316 300.41 241.103 300.031 240.724C299.652 240.345 299.439 239.831 299.439 239.295V35.8057C299.439 35.2696 299.652 34.7555 300.031 34.3764C300.41 33.9973 300.924 33.7843 301.46 33.7843ZM442.285 235.589C443.018 235.589 443.735 235.372 444.344 234.965C444.954 234.557 445.429 233.979 445.709 233.301C445.99 232.624 446.063 231.879 445.92 231.16C445.777 230.441 445.424 229.781 444.906 229.263C444.388 228.744 443.727 228.391 443.008 228.248C442.29 228.105 441.544 228.179 440.867 228.459C440.19 228.74 439.611 229.215 439.204 229.824C438.797 230.434 438.58 231.15 438.58 231.883C438.58 232.37 438.675 232.852 438.862 233.301C439.048 233.751 439.321 234.16 439.665 234.504C440.009 234.848 440.418 235.121 440.867 235.307C441.317 235.493 441.799 235.589 442.285 235.589ZM442.285 216.723C443.018 216.723 443.735 216.505 444.344 216.098C444.954 215.691 445.429 215.112 445.709 214.435C445.99 213.758 446.063 213.012 445.92 212.294C445.777 211.575 445.424 210.914 444.906 210.396C444.388 209.878 443.727 209.525 443.008 209.382C442.29 209.239 441.544 209.312 440.867 209.593C440.19 209.873 439.611 210.348 439.204 210.958C438.797 211.567 438.58 212.284 438.58 213.017C438.58 213.503 438.675 213.985 438.862 214.435C439.048 214.884 439.321 215.293 439.665 215.637C440.009 215.981 440.418 216.254 440.867 216.44C441.317 216.627 441.799 216.723 442.285 216.723ZM442.285 197.856C443.018 197.856 443.735 197.639 444.344 197.231C444.954 196.824 445.429 196.245 445.709 195.568C445.99 194.891 446.063 194.146 445.92 193.427C445.777 192.708 445.424 192.048 444.906 191.53C444.388 191.011 443.727 190.658 443.008 190.515C442.29 190.372 441.544 190.446 440.867 190.726C440.19 191.007 439.611 191.482 439.204 192.091C438.797 192.701 438.58 193.417 438.58 194.15C438.58 194.637 438.675 195.119 438.862 195.568C439.048 196.018 439.321 196.426 439.665 196.771C440.009 197.115 440.418 197.388 440.867 197.574C441.317 197.76 441.799 197.856 442.285 197.856ZM442.285 178.989C443.018 178.989 443.735 178.772 444.344 178.365C444.954 177.958 445.429 177.379 445.709 176.702C445.99 176.025 446.063 175.279 445.92 174.561C445.777 173.842 445.424 173.181 444.906 172.663C444.388 172.145 443.727 171.792 443.008 171.649C442.29 171.506 441.544 171.579 440.867 171.86C440.19 172.14 439.611 172.615 439.204 173.225C438.797 173.834 438.58 174.551 438.58 175.283C438.58 175.77 438.675 176.252 438.862 176.702C439.048 177.151 439.321 177.56 439.665 177.904C440.009 178.248 440.418 178.521 440.867 178.707C441.317 178.894 441.799 178.989 442.285 178.989ZM442.285 160.123C443.018 160.123 443.735 159.905 444.344 159.498C444.954 159.091 445.429 158.512 445.709 157.835C445.99 157.158 446.063 156.413 445.92 155.694C445.777 154.975 445.424 154.315 444.906 153.796C444.388 153.278 443.727 152.925 443.008 152.782C442.29 152.639 441.544 152.713 440.867 152.993C440.19 153.274 439.611 153.749 439.204 154.358C438.797 154.967 438.58 155.684 438.58 156.417C438.58 156.904 438.675 157.385 438.862 157.835C439.048 158.285 439.321 158.693 439.665 159.037C440.009 159.382 440.418 159.655 440.867 159.841C441.317 160.027 441.799 160.123 442.285 160.123ZM442.285 141.256C443.018 141.256 443.735 141.039 444.344 140.632C444.954 140.225 445.429 139.646 445.709 138.969C445.99 138.291 446.063 137.546 445.92 136.827C445.777 136.108 445.424 135.448 444.906 134.93C444.388 134.412 443.727 134.059 443.008 133.916C442.29 133.773 441.544 133.846 440.867 134.127C440.19 134.407 439.611 134.882 439.204 135.491C438.797 136.101 438.58 136.817 438.58 137.55C438.58 138.037 438.675 138.519 438.862 138.969C439.048 139.418 439.321 139.827 439.665 140.171C440.009 140.515 440.418 140.788 440.867 140.974C441.317 141.16 441.799 141.256 442.285 141.256ZM442.285 122.39C443.018 122.39 443.735 122.172 444.344 121.765C444.954 121.358 445.429 120.779 445.709 120.102C445.99 119.425 446.063 118.68 445.92 117.961C445.777 117.242 445.424 116.582 444.906 116.063C444.388 115.545 443.727 115.192 443.008 115.049C442.29 114.906 441.544 114.979 440.867 115.26C440.19 115.54 439.611 116.015 439.204 116.625C438.797 117.234 438.58 117.951 438.58 118.684C438.58 119.17 438.675 119.652 438.862 120.102C439.048 120.552 439.321 120.96 439.665 121.304C440.009 121.648 440.418 121.921 440.867 122.108C441.317 122.294 441.799 122.39 442.285 122.39ZM442.285 103.523C443.018 103.523 443.735 103.306 444.344 102.899C444.954 102.491 445.429 101.913 445.709 101.235C445.99 100.558 446.063 99.8131 445.92 99.0943C445.777 98.3754 445.424 97.715 444.906 97.1968C444.388 96.6785 443.727 96.3255 443.008 96.1825C442.29 96.0395 441.544 96.1129 440.867 96.3934C440.19 96.6739 439.611 97.1489 439.204 97.7584C438.797 98.3678 438.58 99.0843 438.58 99.8172C438.58 100.304 438.675 100.786 438.862 101.235C439.048 101.685 439.321 102.094 439.665 102.438C440.009 102.782 440.418 103.055 440.867 103.241C441.317 103.427 441.799 103.523 442.285 103.523ZM442.285 84.6566C443.018 84.6566 443.735 84.4393 444.344 84.0321C444.954 83.6249 445.429 83.0461 445.709 82.3689C445.99 81.6917 446.063 80.9466 445.92 80.2277C445.777 79.5088 445.424 78.8485 444.906 78.3302C444.388 77.8119 443.727 77.459 443.008 77.316C442.29 77.173 441.544 77.2464 440.867 77.5269C440.19 77.8074 439.611 78.2824 439.204 78.8918C438.797 79.5012 438.58 80.2177 438.58 80.9507C438.58 81.4374 438.675 81.9193 438.862 82.3689C439.048 82.8185 439.321 83.2271 439.665 83.5712C440.009 83.9153 440.418 84.1883 440.867 84.3745C441.317 84.5608 441.799 84.6566 442.285 84.6566ZM442.285 65.7901C443.018 65.7901 443.735 65.5727 444.344 65.1655C444.954 64.7583 445.429 64.1795 445.709 63.5023C445.99 62.8252 446.063 62.08 445.92 61.3612C445.777 60.6423 445.424 59.9819 444.906 59.4636C444.388 58.9454 443.727 58.5924 443.008 58.4494C442.29 58.3064 441.544 58.3798 440.867 58.6603C440.19 58.9408 439.611 59.4158 439.204 60.0252C438.797 60.6347 438.58 61.3512 438.58 62.0841C438.58 62.5708 438.675 63.0527 438.862 63.5023C439.048 63.952 439.321 64.3605 439.665 64.7046C440.009 65.0488 440.418 65.3217 440.867 65.508C441.317 65.6942 441.799 65.7901 442.285 65.7901ZM442.285 46.9235C443.018 46.9235 443.735 46.7062 444.344 46.299C444.954 45.8917 445.429 45.313 445.709 44.6358C445.99 43.9586 446.063 43.2135 445.92 42.4946C445.777 41.7757 445.424 41.1154 444.906 40.5971C444.388 40.0788 443.727 39.7258 443.008 39.5829C442.29 39.4399 441.544 39.5132 440.867 39.7937C440.19 40.0742 439.611 40.5492 439.204 41.1587C438.797 41.7681 438.58 42.4846 438.58 43.2176C438.58 43.7043 438.675 44.1862 438.862 44.6358C439.048 45.0854 439.321 45.4939 439.665 45.8381C440.009 46.1822 440.418 46.4552 440.867 46.6414C441.317 46.8277 441.799 46.9235 442.285 46.9235Z" fill="#3F3D56"/>
<path d="M364.132 146.72L352.373 158.545L364.132 170.369L366.777 167.675L357.886 158.619L366.852 149.489L364.132 146.72Z" fill="#F47424"/>
<path d="M374.006 146.72L386.157 158.545L374.006 170.369L371.272 167.675L380.461 158.62L371.196 149.489L374.006 146.72Z" fill="#F47424"/>
<path d="M450.709 45.2391C451.709 45.2391 460.479 45.1919 460.479 43.5546C460.479 41.9173 451.709 41.8701 450.709 41.8701V42.5439C455.874 42.5439 459.224 43.1222 459.763 43.5546C459.224 43.9871 455.874 44.5653 450.709 44.5653C445.555 44.5653 442.209 43.9896 441.658 43.5576C441.92 43.3725 442.991 42.9846 445.862 42.7364L445.804 42.0652C440.938 42.4857 440.938 43.2623 440.938 43.5546C440.938 45.1919 449.709 45.2391 450.709 45.2391Z" fill="#2F2E41"/>
<path d="M450.709 63.7686C451.709 63.7686 460.479 63.7213 460.479 62.084C460.479 60.4467 451.709 60.3995 450.709 60.3995V61.0733C455.874 61.0733 459.224 61.6516 459.763 62.0841C459.224 62.5165 455.874 63.0948 450.709 63.0948C445.555 63.0948 442.209 62.519 441.658 62.087C441.92 61.902 442.991 61.5141 445.862 61.2658L445.804 60.5947C440.938 61.0151 440.938 61.7918 440.938 62.0841C440.938 63.7214 449.709 63.7686 450.709 63.7686Z" fill="#2F2E41"/>
<path d="M450.709 82.635C451.709 82.635 460.479 82.5878 460.479 80.9505C460.479 79.3132 451.709 79.266 450.709 79.266V79.9398C455.874 79.9398 459.224 80.518 459.763 80.9505C459.224 81.383 455.874 81.9612 450.709 81.9612C445.555 81.9612 442.209 81.3854 441.658 80.9535C441.92 80.7684 442.991 80.3805 445.862 80.1323L445.804 79.4611C440.938 79.8816 440.938 80.6582 440.938 80.9505C440.938 82.5878 449.709 82.635 450.709 82.635Z" fill="#2F2E41"/>
<path d="M450.709 101.502C451.709 101.502 460.479 101.455 460.479 99.8172C460.479 98.1799 451.709 98.1327 450.709 98.1327V98.8065C455.874 98.8065 459.224 99.3847 459.763 99.8172C459.224 100.25 455.874 100.828 450.709 100.828C445.555 100.828 442.209 100.252 441.658 99.8202C441.92 99.6351 442.991 99.2472 445.862 98.999L445.804 98.3278C440.938 98.7483 440.938 99.5249 440.938 99.8172C440.938 101.455 449.709 101.502 450.709 101.502Z" fill="#2F2E41"/>
<path d="M450.709 120.368C451.709 120.368 460.479 120.321 460.479 118.684C460.479 117.046 451.709 116.999 450.709 116.999V117.673C455.874 117.673 459.224 118.251 459.763 118.684C459.224 119.116 455.874 119.695 450.709 119.695C445.555 119.695 442.209 119.119 441.658 118.687C441.92 118.502 442.991 118.114 445.862 117.866L445.804 117.194C440.938 117.615 440.938 118.391 440.938 118.684C440.938 120.321 449.709 120.368 450.709 120.368Z" fill="#2F2E41"/>
<path d="M450.709 139.235C451.709 139.235 460.479 139.188 460.479 137.55C460.479 135.913 451.709 135.866 450.709 135.866V136.54C455.874 136.54 459.224 137.118 459.763 137.55C459.224 137.983 455.874 138.561 450.709 138.561C445.555 138.561 442.209 137.985 441.658 137.553C441.92 137.368 442.991 136.98 445.862 136.732L445.804 136.061C440.938 136.481 440.938 137.258 440.938 137.55C440.938 139.188 449.709 139.235 450.709 139.235Z" fill="#2F2E41"/>
<path d="M450.709 158.101C451.709 158.101 460.479 158.054 460.479 156.417C460.479 154.78 451.709 154.732 450.709 154.732V155.406C455.874 155.406 459.224 155.984 459.763 156.417C459.224 156.849 455.874 157.428 450.709 157.428C445.555 157.428 442.209 156.852 441.658 156.42C441.92 156.235 442.991 155.847 445.862 155.599L445.804 154.927C440.938 155.348 440.938 156.125 440.938 156.417C440.938 158.054 449.709 158.101 450.709 158.101Z" fill="#2F2E41"/>
<path d="M450.709 176.968C451.709 176.968 460.479 176.921 460.479 175.283C460.479 173.646 451.709 173.599 450.709 173.599V174.273C455.874 174.273 459.224 174.851 459.763 175.283C459.224 175.716 455.874 176.294 450.709 176.294C445.555 176.294 442.209 175.718 441.658 175.286C441.92 175.101 442.991 174.713 445.862 174.465L445.804 173.794C440.938 174.214 440.938 174.991 440.938 175.283C440.938 176.921 449.709 176.968 450.709 176.968Z" fill="#2F2E41"/>
<path d="M450.709 195.834C451.709 195.834 460.479 195.787 460.479 194.15C460.479 192.512 451.709 192.465 450.709 192.465V193.139C455.874 193.139 459.224 193.717 459.763 194.15C459.224 194.582 455.874 195.16 450.709 195.16C445.555 195.16 442.209 194.585 441.658 194.153C441.92 193.968 442.991 193.58 445.862 193.331L445.804 192.66C440.938 193.081 440.938 193.857 440.938 194.15C440.938 195.787 449.709 195.834 450.709 195.834Z" fill="#2F2E41"/>
<path d="M450.709 214.701C451.709 214.701 460.479 214.654 460.479 213.017C460.479 211.379 451.709 211.332 450.709 211.332V212.006C455.874 212.006 459.224 212.584 459.763 213.017C459.224 213.449 455.874 214.027 450.709 214.027C445.555 214.027 442.209 213.452 441.658 213.02C441.92 212.835 442.991 212.447 445.862 212.198L445.804 211.527C440.938 211.948 440.938 212.724 440.938 213.017C440.938 214.654 449.709 214.701 450.709 214.701Z" fill="#2F2E41"/>
<path d="M450.709 233.568C451.709 233.568 460.479 233.52 460.479 231.883C460.479 230.246 451.709 230.198 450.709 230.198V230.872C455.874 230.872 459.224 231.451 459.763 231.883C459.224 232.315 455.874 232.894 450.709 232.894C445.555 232.894 442.209 232.318 441.658 231.886C441.92 231.701 442.991 231.313 445.862 231.065L445.804 230.394C440.938 230.814 440.938 231.591 440.938 231.883C440.938 233.52 449.709 233.568 450.709 233.568Z" fill="#2F2E41"/>
<path d="M331.951 113.125H406.069C406.65 113.124 407.207 112.893 407.617 112.483C408.028 112.072 408.259 111.515 408.259 110.935V81.9612C408.259 81.3807 408.028 80.824 407.617 80.4135C407.207 80.003 406.65 79.772 406.069 79.7714H331.951C331.37 79.772 330.814 80.003 330.403 80.4135C329.993 80.824 329.762 81.3807 329.761 81.9612V110.935C329.762 111.515 329.993 112.072 330.403 112.483C330.814 112.893 331.37 113.124 331.951 113.125Z" fill="white"/>
<path d="M359.576 89.71H378.443C378.889 89.71 379.318 89.5325 379.634 89.2166C379.95 88.9007 380.127 88.4722 380.127 88.0254C380.127 87.5787 379.95 87.1502 379.634 86.8343C379.318 86.5184 378.889 86.3409 378.443 86.3409H359.576C359.129 86.3409 358.701 86.5184 358.385 86.8343C358.069 87.1502 357.892 87.5787 357.892 88.0254C357.892 88.4722 358.069 88.9007 358.385 89.2166C358.701 89.5325 359.129 89.71 359.576 89.71H359.576Z" fill="#F47424"/>
<path d="M349.132 98.1326H388.887C389.334 98.1326 389.762 97.9551 390.078 97.6392C390.394 97.3233 390.572 96.8948 390.572 96.4481C390.572 96.0013 390.394 95.5728 390.078 95.2569C389.762 94.941 389.334 94.7635 388.887 94.7635H349.132C348.686 94.7635 348.257 94.941 347.941 95.2569C347.625 95.5728 347.448 96.0013 347.448 96.4481C347.448 96.8948 347.625 97.3233 347.941 97.6392C348.257 97.9551 348.686 98.1326 349.132 98.1326Z" fill="#F47424"/>
<path d="M349.132 106.555H388.887C389.334 106.555 389.762 106.378 390.078 106.062C390.394 105.746 390.572 105.317 390.572 104.871C390.572 104.424 390.394 103.995 390.078 103.68C389.762 103.364 389.334 103.186 388.887 103.186H349.132C348.686 103.186 348.257 103.364 347.941 103.68C347.625 103.995 347.448 104.424 347.448 104.871C347.448 105.317 347.625 105.746 347.941 106.062C348.257 106.378 348.686 106.555 349.132 106.555Z" fill="#F47424"/>
<path d="M271.582 8.52789e-10H89.2446C88.2456 0.00085809 87.2878 0.398088 86.5814 1.10449C85.8749 1.81088 85.4777 2.76872 85.4768 3.76773V181.49C85.4777 182.489 85.8749 183.447 86.5814 184.154C87.2878 184.86 88.2456 185.257 89.2446 185.258H105.232V184.182H89.2446C88.531 184.181 87.8468 183.898 87.3421 183.393C86.8375 182.888 86.5536 182.204 86.5528 181.49V3.76773C86.5536 3.05406 86.8375 2.36985 87.3421 1.86521C87.8468 1.36057 88.531 1.07671 89.2446 1.07588H271.582C272.296 1.07582 272.981 1.35927 273.487 1.86397C273.992 2.36868 274.277 3.05338 274.278 3.76773V181.49C274.278 182.016 274.124 182.53 273.833 182.968C273.575 183.354 273.224 183.668 272.813 183.884C272.433 184.081 272.01 184.183 271.582 184.182H255.595V185.258H271.582C272.127 185.258 272.665 185.14 273.159 184.912C273.654 184.683 274.093 184.35 274.447 183.936C274.477 183.904 274.504 183.869 274.529 183.832C274.754 183.557 274.936 183.25 275.069 182.921C275.258 182.468 275.355 181.981 275.354 181.49V3.76773C275.353 2.76806 274.955 1.80973 274.248 1.10326C273.54 0.396793 272.582 -2.12412e-05 271.582 8.52789e-10Z" fill="#3F3D56"/>
<path d="M274.814 15.1025H86.0142V16.1796H274.814V15.1025Z" fill="#3F3D56"/>
<path d="M95.1693 11.3111C96.9538 11.3111 98.4005 9.86437 98.4005 8.07979C98.4005 6.2952 96.9538 4.84851 95.1693 4.84851C93.3847 4.84851 91.938 6.2952 91.938 8.07979C91.938 9.86437 93.3847 11.3111 95.1693 11.3111Z" fill="#3F3D56"/>
<path d="M104.459 11.3111C106.244 11.3111 107.69 9.86437 107.69 8.07979C107.69 6.2952 106.244 4.84851 104.459 4.84851C102.674 4.84851 101.228 6.2952 101.228 8.07979C101.228 9.86437 102.674 11.3111 104.459 11.3111Z" fill="#3F3D56"/>
<path d="M113.749 11.3111C115.534 11.3111 116.981 9.86437 116.981 8.07979C116.981 6.2952 115.534 4.84851 113.749 4.84851C111.965 4.84851 110.518 6.2952 110.518 8.07979C110.518 9.86437 111.965 11.3111 113.749 11.3111Z" fill="#3F3D56"/>
<path d="M226 40.0347H134.831C133.341 40.0347 131.913 39.4429 130.859 38.3895C129.806 37.3361 129.214 35.9074 129.214 34.4177C129.214 32.928 129.806 31.4992 130.859 30.4458C131.913 29.3924 133.341 28.8007 134.831 28.8007H226C227.489 28.8007 228.918 29.3924 229.972 30.4458C231.025 31.4992 231.617 32.928 231.617 34.4177C231.617 35.9074 231.025 37.3361 229.972 38.3895C228.918 39.4429 227.489 40.0347 226 40.0347ZM134.831 29.6648C133.571 29.6648 132.362 30.1656 131.47 31.0569C130.579 31.9482 130.078 33.1571 130.078 34.4177C130.078 35.6782 130.579 36.8871 131.47 37.7785C132.362 38.6698 133.571 39.1705 134.831 39.1705H226C227.26 39.1705 228.469 38.6698 229.361 37.7785C230.252 36.8871 230.753 35.6782 230.753 34.4177C230.753 33.1571 230.252 31.9482 229.361 31.0569C228.469 30.1656 227.26 29.6648 226 29.6648H134.831Z" fill="#3F3D56"/>
<path d="M249.116 118.498H111.715C109.768 118.495 107.9 117.721 106.523 116.344C105.146 114.967 104.372 113.1 104.37 111.152V67.0802C104.372 65.1328 105.146 63.2657 106.523 61.8887C107.9 60.5116 109.768 59.7371 111.715 59.7349H249.116C251.063 59.7371 252.93 60.5116 254.308 61.8887C255.685 63.2657 256.459 65.1328 256.461 67.0802V111.152C256.459 113.1 255.685 114.967 254.308 116.344C252.93 117.721 251.063 118.495 249.116 118.498ZM111.715 60.599C109.997 60.601 108.349 61.2844 107.134 62.4995C105.919 63.7145 105.236 65.3619 105.234 67.0802V111.152C105.236 112.871 105.919 114.518 107.134 115.733C108.349 116.948 109.997 117.631 111.715 117.633H249.116C250.834 117.631 252.482 116.948 253.697 115.733C254.912 114.518 255.595 112.871 255.597 111.152V67.0802C255.595 65.3619 254.912 63.7145 253.697 62.4995C252.482 61.2844 250.834 60.601 249.116 60.599H111.715Z" fill="#3F3D56"/>
<path d="M198.434 86.7398H150.473C149.556 86.7398 148.677 86.3756 148.029 85.7274C147.381 85.0791 147.017 84.1999 147.017 83.2832C147.017 82.3664 147.381 81.4872 148.029 80.839C148.677 80.1907 149.556 79.8265 150.473 79.8265H198.434C199.351 79.8265 200.23 80.1907 200.878 80.839C201.526 81.4872 201.891 82.3664 201.891 83.2832C201.891 84.1999 201.526 85.0791 200.878 85.7274C200.23 86.3756 199.351 86.7398 198.434 86.7398Z" fill="#F47424"/>
<path d="M242.938 98.4059H150.473C149.556 98.4059 148.677 98.0418 148.029 97.3935C147.381 96.7453 147.017 95.8661 147.017 94.9493C147.017 94.0326 147.381 93.1533 148.029 92.5051C148.677 91.8569 149.556 91.4927 150.473 91.4927H242.938C243.855 91.4927 244.734 91.8569 245.382 92.5051C246.031 93.1533 246.395 94.0326 246.395 94.9493C246.395 95.8661 246.031 96.7453 245.382 97.3935C244.734 98.0418 243.855 98.4059 242.938 98.4059Z" fill="#F47424"/>
<path d="M127.399 102.079C134.558 102.079 140.361 96.2752 140.361 89.1163C140.361 81.9574 134.558 76.1539 127.399 76.1539C120.24 76.1539 114.437 81.9574 114.437 89.1163C114.437 96.2752 120.24 102.079 127.399 102.079Z" fill="#F47424"/>
<path d="M242.933 112.449H230.835C229.918 112.449 229.039 112.084 228.39 111.436C227.742 110.788 227.378 109.909 227.378 108.992C227.378 108.075 227.742 107.196 228.39 106.548C229.039 105.9 229.918 105.535 230.835 105.535H242.933C243.85 105.535 244.729 105.9 245.377 106.548C246.025 107.196 246.389 108.075 246.389 108.992C246.389 109.909 246.025 110.788 245.377 111.436C244.729 112.084 243.85 112.449 242.933 112.449Z" fill="white"/>
<path d="M242.933 112.449H230.835C229.918 112.449 229.039 112.084 228.39 111.436C227.742 110.788 227.378 109.909 227.378 108.992C227.378 108.075 227.742 107.196 228.39 106.548C229.039 105.9 229.918 105.535 230.835 105.535H242.933C243.85 105.535 244.729 105.9 245.377 106.548C246.025 107.196 246.389 108.075 246.389 108.992C246.389 109.909 246.025 110.788 245.377 111.436C244.729 112.084 243.85 112.449 242.933 112.449Z" fill="#CCCCCC"/>
<path d="M249.115 139.238H111.714C109.766 139.24 107.9 140.015 106.523 141.392C105.146 142.769 104.371 144.636 104.368 146.583V190.655C104.371 192.602 105.146 194.469 106.523 195.846C107.9 197.223 109.766 197.998 111.714 198H249.115C251.062 197.998 252.929 197.224 254.306 195.847C255.683 194.47 256.458 192.602 256.46 190.655V146.583C256.458 144.635 255.683 142.768 254.306 141.391C252.929 140.014 251.062 139.24 249.115 139.238ZM255.596 190.655C255.594 192.373 254.911 194.021 253.696 195.236C252.481 196.451 250.833 197.135 249.115 197.136H111.714C109.995 197.134 108.348 196.451 107.133 195.236C105.918 194.02 105.234 192.373 105.232 190.655V146.583C105.234 144.865 105.918 143.217 107.133 142.002C108.348 140.787 109.995 140.104 111.714 140.102H249.115C250.833 140.103 252.481 140.786 253.696 142.002C254.911 143.217 255.594 144.864 255.596 146.583V190.655Z" fill="#3F3D56"/>
<path d="M198.434 166.242H150.473C149.556 166.242 148.677 165.878 148.029 165.23C147.381 164.582 147.017 163.702 147.017 162.786C147.017 161.869 147.381 160.99 148.029 160.342C148.677 159.693 149.556 159.329 150.473 159.329H198.434C199.351 159.329 200.23 159.693 200.878 160.342C201.526 160.99 201.891 161.869 201.891 162.786C201.891 163.702 201.526 164.582 200.878 165.23C200.23 165.878 199.351 166.242 198.434 166.242Z" fill="#F47424"/>
<path d="M242.938 177.908H150.473C149.556 177.908 148.677 177.544 148.029 176.896C147.381 176.248 147.017 175.369 147.017 174.452C147.017 173.535 147.381 172.656 148.029 172.008C148.677 171.359 149.556 170.995 150.473 170.995H242.938C243.855 170.995 244.734 171.359 245.382 172.008C246.031 172.656 246.395 173.535 246.395 174.452C246.395 175.369 246.031 176.248 245.382 176.896C244.734 177.544 243.855 177.908 242.938 177.908Z" fill="#F47424"/>
<path d="M127.399 181.581C134.558 181.581 140.361 175.778 140.361 168.619C140.361 161.46 134.558 155.656 127.399 155.656C120.24 155.656 114.437 161.46 114.437 168.619C114.437 175.778 120.24 181.581 127.399 181.581Z" fill="#F47424"/>
<path d="M242.933 191.951H230.835C229.918 191.951 229.039 191.587 228.39 190.939C227.742 190.29 227.378 189.411 227.378 188.494C227.378 187.578 227.742 186.699 228.39 186.05C229.039 185.402 229.918 185.038 230.835 185.038H242.933C243.85 185.038 244.729 185.402 245.377 186.05C246.025 186.699 246.389 187.578 246.389 188.494C246.389 189.411 246.025 190.29 245.377 190.939C244.729 191.587 243.85 191.951 242.933 191.951Z" fill="#CCCCCC"/>
<path d="M304.998 232.846C304.532 231.738 303.75 230.79 302.751 230.122C301.751 229.453 300.577 229.092 299.375 229.083H187.123C185.509 229.084 183.962 229.726 182.821 230.867C181.68 232.008 181.038 233.555 181.038 235.168V377.178C181.038 378.791 181.68 380.339 182.821 381.48C183.962 382.62 185.509 383.262 187.123 383.263H299.379C300.992 383.261 302.538 382.619 303.679 381.478C304.82 380.337 305.462 378.791 305.464 377.178V235.168C305.466 234.371 305.31 233.582 305.003 232.846H304.998ZM304.108 377.178C304.107 378.433 303.608 379.636 302.72 380.523C301.833 381.411 300.63 381.91 299.375 381.911H187.123C185.867 381.911 184.664 381.413 183.776 380.525C182.888 379.638 182.389 378.434 182.389 377.179V235.169C182.391 233.914 182.89 232.711 183.777 231.824C184.665 230.936 185.868 230.437 187.123 230.435H299.379C300.324 230.439 301.247 230.724 302.03 231.255C302.812 231.785 303.419 232.536 303.773 233.413C303.841 233.588 303.901 233.766 303.951 233.947C304.058 234.346 304.112 234.757 304.112 235.169L304.108 377.178Z" fill="#3F3D56"/>
<path d="M281.573 262.612H247.761C247.043 262.612 246.355 262.327 245.848 261.819C245.341 261.312 245.056 260.624 245.056 259.906C245.056 259.189 245.341 258.501 245.848 257.994C246.355 257.486 247.043 257.201 247.761 257.201H281.573C282.29 257.201 282.978 257.486 283.485 257.994C283.993 258.501 284.278 259.189 284.278 259.906C284.278 260.624 283.993 261.312 283.485 261.819C282.978 262.327 282.29 262.612 281.573 262.612Z" fill="#3F3D56"/>
<path d="M281.573 276.812H247.761C247.405 276.813 247.053 276.743 246.725 276.607C246.396 276.472 246.097 276.273 245.846 276.021C245.594 275.77 245.395 275.472 245.259 275.143C245.122 274.815 245.052 274.463 245.052 274.107C245.052 273.752 245.122 273.4 245.259 273.071C245.395 272.743 245.594 272.444 245.846 272.193C246.097 271.942 246.396 271.743 246.725 271.607C247.053 271.471 247.405 271.402 247.761 271.402H281.573C281.928 271.402 282.281 271.471 282.609 271.607C282.938 271.743 283.236 271.942 283.488 272.193C283.74 272.444 283.939 272.743 284.075 273.071C284.211 273.4 284.282 273.752 284.282 274.107C284.282 274.463 284.211 274.815 284.075 275.143C283.939 275.472 283.74 275.77 283.488 276.021C283.236 276.273 282.938 276.472 282.609 276.607C282.281 276.743 281.928 276.813 281.573 276.812Z" fill="#3F3D56"/>
<path d="M230.413 284.898H205.703C204.896 284.897 204.123 284.577 203.552 284.006C202.981 283.435 202.661 282.662 202.66 281.855V252.696C202.661 251.889 202.981 251.115 203.552 250.545C204.123 249.974 204.896 249.653 205.703 249.652H230.413C231.219 249.653 231.993 249.974 232.564 250.545C233.134 251.115 233.455 251.889 233.456 252.696V281.855C233.455 282.662 233.134 283.435 232.564 284.006C231.993 284.577 231.219 284.897 230.413 284.898Z" fill="#F47424"/>
<path d="M281.338 305.891H204.924C204.206 305.891 203.518 305.606 203.011 305.099C202.503 304.591 202.219 303.903 202.219 303.186C202.219 302.468 202.503 301.78 203.011 301.273C203.518 300.766 204.206 300.481 204.924 300.481H281.338C282.056 300.481 282.744 300.766 283.251 301.273C283.758 301.78 284.043 302.468 284.043 303.186C284.043 303.903 283.758 304.591 283.251 305.099C282.744 305.606 282.056 305.891 281.338 305.891Z" fill="#CCCCCC"/>
<path d="M281.338 320.092H204.924C204.206 320.092 203.518 319.807 203.011 319.299C202.503 318.792 202.219 318.104 202.219 317.386C202.219 316.669 202.503 315.981 203.011 315.474C203.518 314.966 204.206 314.681 204.924 314.681H281.338C282.056 314.681 282.744 314.966 283.251 315.474C283.758 315.981 284.043 316.669 284.043 317.386C284.043 318.104 283.758 318.792 283.251 319.299C282.744 319.807 282.056 320.092 281.338 320.092Z" fill="#CCCCCC"/>
<path d="M281.339 334.292H204.924C204.207 334.291 203.52 334.006 203.013 333.499C202.507 332.992 202.222 332.304 202.222 331.587C202.222 330.871 202.507 330.183 203.013 329.676C203.52 329.169 204.207 328.883 204.924 328.882H281.339C281.694 328.882 282.046 328.951 282.375 329.087C282.704 329.223 283.002 329.422 283.254 329.673C283.505 329.925 283.705 330.223 283.841 330.551C283.977 330.88 284.047 331.232 284.047 331.587C284.047 331.943 283.977 332.295 283.841 332.623C283.705 332.952 283.505 333.25 283.254 333.501C283.002 333.753 282.704 333.952 282.375 334.088C282.046 334.223 281.694 334.293 281.339 334.292Z" fill="#CCCCCC"/>
<path d="M281.338 348.494H204.924C204.206 348.494 203.518 348.209 203.011 347.701C202.503 347.194 202.219 346.506 202.219 345.789C202.219 345.071 202.503 344.383 203.011 343.876C203.518 343.368 204.206 343.083 204.924 343.083H281.338C282.056 343.083 282.744 343.368 283.251 343.876C283.758 344.383 284.043 345.071 284.043 345.789C284.043 346.506 283.758 347.194 283.251 347.701C282.744 348.209 282.056 348.494 281.338 348.494Z" fill="#CCCCCC"/>
<path d="M281.338 362.695H204.924C204.206 362.695 203.518 362.41 203.011 361.902C202.503 361.395 202.219 360.707 202.219 359.989C202.219 359.272 202.503 358.584 203.011 358.077C203.518 357.569 204.206 357.284 204.924 357.284H281.338C282.056 357.284 282.744 357.569 283.251 358.077C283.758 358.584 284.043 359.272 284.043 359.989C284.043 360.707 283.758 361.395 283.251 361.902C282.744 362.41 282.056 362.695 281.338 362.695Z" fill="#CCCCCC"/>
<path d="M305.599 256.365C320.017 256.365 331.705 244.677 331.705 230.259C331.705 215.842 320.017 204.154 305.599 204.154C291.181 204.154 279.494 215.842 279.494 230.259C279.494 244.677 291.181 256.365 305.599 256.365Z" fill="#F47424"/>
<path d="M313.938 224.047C313.641 223.751 313.117 223.751 312.821 224.047L297.799 239.082C297.619 239.261 297.538 239.516 297.578 239.767C297.619 240.018 297.778 240.234 298.004 240.348L299.237 240.965V243.042L295.459 244.123L291.645 240.306L292.726 236.524H294.801L295.417 237.759C295.531 237.985 295.747 238.144 295.997 238.185C296.04 238.192 296.082 238.195 296.124 238.195C296.331 238.195 296.533 238.114 296.682 237.964L311.704 222.93C311.852 222.781 311.935 222.581 311.935 222.371C311.935 222.161 311.852 221.96 311.704 221.812L308.799 218.905C308.651 218.757 308.451 218.673 308.241 218.673H308.239C308.029 218.674 307.828 218.758 307.68 218.907L291.569 235.177C291.561 235.185 291.562 235.197 291.554 235.205C291.473 235.293 291.405 235.394 291.37 235.517L289.999 240.319L288.211 246.583C288.132 246.859 288.209 247.156 288.412 247.359C288.563 247.509 288.764 247.59 288.971 247.59C289.043 247.59 289.116 247.58 289.187 247.56L295.446 245.771L300.244 244.399C300.258 244.394 300.268 244.384 300.283 244.379C300.332 244.361 300.376 244.333 300.422 244.306C300.467 244.28 300.512 244.256 300.55 244.221C300.56 244.212 300.573 244.209 300.583 244.199L316.84 228.074C316.989 227.927 317.073 227.725 317.073 227.515C317.074 227.305 316.991 227.103 316.842 226.954L313.938 224.047Z" fill="white"/>
<path d="M322.004 218.48L317.265 213.738C316.072 212.543 313.995 212.541 312.796 213.74L309.903 216.662C309.597 216.971 309.598 217.469 309.905 217.777L317.968 225.847C318.122 226.001 318.324 226.078 318.526 226.078C318.728 226.078 318.928 226.002 319.083 225.849L322.004 222.951C322.601 222.354 322.929 221.56 322.929 220.716C322.929 219.872 322.601 219.078 322.004 218.48Z" fill="white"/>
<path d="M124.353 146.324C123.598 145.389 122.572 144.709 121.416 144.377C120.26 144.045 119.03 144.077 117.893 144.469L3.95308 183.895C3.22791 184.146 2.55925 184.537 1.98529 185.046C1.41133 185.555 0.94333 186.173 0.608039 186.863C0.272748 187.553 0.0767329 188.302 0.0312062 189.068C-0.0143205 189.834 0.0915256 190.601 0.342701 191.326L30.5982 278.763C31.1068 280.225 32.1745 281.427 33.5675 282.104C34.9605 282.781 36.565 282.877 38.0293 282.373L151.97 242.946C153.432 242.438 154.634 241.37 155.311 239.977C155.987 238.584 156.084 236.98 155.58 235.515L125.324 148.079C125.105 147.442 124.777 146.848 124.353 146.324Z" fill="white"/>
<path d="M124.353 146.324C123.598 145.389 122.572 144.709 121.416 144.377C120.26 144.045 119.03 144.077 117.893 144.469L3.95308 183.895C3.22791 184.146 2.55925 184.537 1.98529 185.046C1.41133 185.555 0.94333 186.173 0.608039 186.863C0.272748 187.553 0.0767329 188.302 0.0312062 189.068C-0.0143205 189.834 0.0915256 190.601 0.342701 191.326L30.5982 278.763C31.1068 280.225 32.1745 281.427 33.5675 282.104C34.9605 282.781 36.565 282.877 38.0293 282.373L151.97 242.946C153.432 242.438 154.634 241.37 155.311 239.977C155.987 238.584 156.084 236.98 155.58 235.515L125.324 148.079C125.105 147.442 124.777 146.848 124.353 146.324ZM154.93 235.74C155.376 237.032 155.29 238.448 154.693 239.677C154.096 240.906 153.036 241.848 151.745 242.297L37.8045 281.724C36.5126 282.169 35.0967 282.084 33.8675 281.486C32.6383 280.889 31.6962 279.829 31.2478 278.538L0.992205 191.102C0.546899 189.81 0.632201 188.394 1.2294 187.165C1.8266 185.935 2.88692 184.993 4.17782 184.545L118.118 145.118C119.41 144.673 120.826 144.758 122.055 145.355C123.284 145.953 124.226 147.013 124.675 148.304L154.93 235.74Z" fill="#3F3D56"/>
<path d="M118.697 157.364L139.824 218.418C139.894 218.62 139.923 218.834 139.91 219.047C139.898 219.26 139.843 219.469 139.75 219.661C139.657 219.853 139.527 220.025 139.367 220.166C139.207 220.308 139.021 220.417 138.819 220.487L35.1754 256.351C35.1018 256.377 35.0261 256.397 34.9492 256.41C34.5654 256.484 34.1678 256.417 33.8293 256.221C33.4909 256.026 33.2342 255.715 33.1064 255.346L11.9799 194.292C11.91 194.09 11.8805 193.876 11.8932 193.663C11.9058 193.45 11.9603 193.241 12.0536 193.049C12.1468 192.857 12.277 192.685 12.4366 192.544C12.5963 192.402 12.7823 192.293 12.9841 192.223L116.628 156.359C116.83 156.289 117.044 156.26 117.257 156.272C117.47 156.285 117.678 156.339 117.871 156.433C118.063 156.526 118.234 156.656 118.376 156.816C118.518 156.975 118.627 157.161 118.697 157.363L118.697 157.364Z" fill="#E6E6E6"/>
<path d="M50.1356 220.016C57.5833 217.439 61.5317 209.312 58.9546 201.864C56.3775 194.416 48.2507 190.468 40.803 193.045C33.3552 195.622 29.4068 203.749 31.9839 211.197C34.5611 218.645 42.6879 222.593 50.1356 220.016Z" fill="#F47424"/>
<path d="M102.137 233.454L35.9819 256.346C35.8995 256.376 35.8145 256.398 35.728 256.412L48.2629 191.389C48.337 190.986 48.517 190.609 48.7844 190.298C49.0518 189.987 49.397 189.752 49.7848 189.618C50.1726 189.483 50.5891 189.455 50.9917 189.534C51.3943 189.614 51.7686 189.798 52.0763 190.07L85.6596 219.173L87.2678 220.566L102.137 233.454Z" fill="#3F3D56"/>
<path opacity="0.2" d="M102.137 233.454L79.5502 241.27L85.0649 221.328L85.4617 219.892L85.66 219.173L87.2678 220.565L102.137 233.454Z" fill="black"/>
<path d="M138.972 220.709L81.7532 240.508L87.268 220.566L87.6645 219.129L94.8503 193.141C95.3215 191.438 97.5707 190.564 99.1002 191.38C99.2034 191.436 99.3028 191.499 99.398 191.568L138.972 220.709Z" fill="#3F3D56"/>
<path d="M124.353 146.324C123.598 145.389 122.572 144.709 121.416 144.377C120.26 144.045 119.03 144.077 117.893 144.469L3.95308 183.895C3.22791 184.146 2.55925 184.537 1.98529 185.046C1.41133 185.555 0.94333 186.173 0.608039 186.863C0.272748 187.553 0.0767329 188.302 0.0312062 189.068C-0.0143205 189.834 0.0915256 190.601 0.342701 191.326L30.5982 278.763C31.1068 280.225 32.1745 281.427 33.5675 282.104C34.9605 282.781 36.565 282.877 38.0293 282.373L151.97 242.946C153.432 242.438 154.634 241.37 155.311 239.977C155.987 238.584 156.084 236.98 155.58 235.515L125.324 148.079C125.105 147.442 124.777 146.848 124.353 146.324ZM154.93 235.74C155.376 237.032 155.29 238.448 154.693 239.677C154.096 240.906 153.036 241.848 151.745 242.297L37.8045 281.724C36.5126 282.169 35.0967 282.084 33.8675 281.486C32.6383 280.889 31.6962 279.829 31.2478 278.538L0.992205 191.102C0.546899 189.81 0.632201 188.394 1.2294 187.165C1.8266 185.935 2.88692 184.993 4.17782 184.545L118.118 145.118C119.41 144.673 120.826 144.758 122.055 145.355C123.284 145.953 124.226 147.013 124.675 148.304L154.93 235.74Z" fill="#3F3D56"/>
<path d="M144.603 248.835L144.575 313.44C144.575 313.654 144.533 313.865 144.451 314.063C144.369 314.26 144.25 314.439 144.099 314.59C143.948 314.741 143.768 314.861 143.571 314.943C143.374 315.024 143.162 315.066 142.949 315.066L142.948 315.066L33.2752 315.019C33.1971 315.02 33.1191 315.013 33.0421 315.001C32.6553 314.945 32.3015 314.751 32.0457 314.456C31.7899 314.16 31.6492 313.783 31.6494 313.392L31.6772 248.786C31.6773 248.572 31.7193 248.361 31.8011 248.164C31.8828 247.966 32.0026 247.787 32.1536 247.636C32.3046 247.485 32.4839 247.365 32.6811 247.284C32.8784 247.202 33.0899 247.16 33.3034 247.16L33.3045 247.16L142.977 247.207C143.191 247.207 143.402 247.249 143.599 247.331C143.797 247.413 143.976 247.533 144.127 247.684C144.278 247.835 144.398 248.014 144.479 248.211C144.561 248.409 144.603 248.62 144.603 248.834L144.603 248.835Z" fill="#E6E6E6"/>
<path d="M67.0207 283.324C73.6532 279.067 75.5791 270.24 71.3222 263.607C67.0654 256.975 58.2378 255.049 51.6054 259.306C44.9729 263.563 43.047 272.39 47.3039 279.023C51.5607 285.655 60.3883 287.581 67.0207 283.324Z" fill="#F47424"/>
<path d="M104.043 315.309L34.039 315.279C33.9513 315.28 33.8638 315.273 33.7774 315.258L66.9106 257.924C67.1128 257.566 67.4062 257.269 67.7608 257.063C68.1154 256.856 68.5184 256.748 68.9288 256.748C69.3391 256.748 69.7421 256.857 70.0965 257.064C70.4509 257.271 70.744 257.568 70.9459 257.925L93.1492 296.42L94.213 298.262L104.043 315.309Z" fill="#3F3D56"/>
<path opacity="0.2" d="M104.042 315.309L80.1412 315.298L91.8815 298.261L92.7266 297.034L93.1487 296.42L94.2129 298.262L104.042 315.309Z" fill="black"/>
<path d="M143.02 315.326L82.4727 315.299L94.213 298.262L95.0578 297.035L110.356 274.832C111.359 273.377 113.771 273.287 114.949 274.559C115.028 274.646 115.101 274.738 115.169 274.834L143.02 315.326Z" fill="#3F3D56"/>
<path d="M151.493 338.225C152.415 337.304 152.934 336.056 152.936 334.753L151.493 338.225ZM151.493 338.225C150.572 339.146 149.323 339.663 148.021 339.664L151.493 338.225ZM27.452 339.612L148.02 339.664L27.452 339.612ZM27.452 339.612C27.4519 339.612 27.4518 339.612 27.4517 339.612L27.452 339.612ZM24.0229 238.702C23.1014 239.623 22.5827 240.871 22.5805 242.174L24.0229 238.702ZM24.0229 238.702C24.9443 237.781 26.1933 237.264 27.4959 237.263M24.0229 238.702L27.4959 237.263M27.4959 237.263L27.4962 237.263M27.4959 237.263L27.4962 237.263M27.4962 237.263L148.064 237.315L27.4962 237.263ZM151.536 238.757C150.616 237.836 149.367 237.317 148.065 237.315L151.536 238.757ZM151.536 238.757C152.457 239.679 152.975 240.928 152.976 242.23L151.536 238.757ZM153.789 240.173L153.789 240.173C153.364 238.995 152.587 237.976 151.563 237.256C150.539 236.535 149.318 236.147 148.066 236.145L148.065 236.145L27.4965 236.093C26.6975 236.092 25.9063 236.249 25.1679 236.554C24.4296 236.86 23.7587 237.307 23.1935 237.872C22.6283 238.437 22.1799 239.107 21.874 239.845C21.5681 240.583 21.4106 241.374 21.4106 242.173C21.4106 242.173 21.4106 242.173 21.4106 242.173L21.3706 334.696L21.3706 334.697C21.3722 336.309 22.0131 337.855 23.1529 338.996C24.2927 340.137 25.8383 340.779 27.4508 340.782L27.4512 340.782L148.02 340.834L148.02 340.834C149.633 340.833 151.179 340.192 152.32 339.052C153.461 337.912 154.103 336.367 154.106 334.754L154.106 334.754L154.146 242.231C154.147 241.529 154.026 240.833 153.789 240.173ZM152.976 242.23L152.936 334.753L152.976 242.23ZM22.5405 334.697L22.5805 242.174L22.5405 334.697Z" fill="#F98731" stroke="#F98731" stroke-width="0.482633"/>
<path d="M444.21 369.016H320.382C318.627 369.014 316.945 368.317 315.704 367.077C314.462 365.838 313.764 364.157 313.762 362.404V322.736C313.764 320.983 314.462 319.303 315.704 318.063C316.945 316.824 318.627 316.126 320.382 316.125H444.21C445.965 316.126 447.648 316.824 448.889 318.063C450.13 319.303 450.828 320.983 450.83 322.736V362.404C450.828 364.157 450.13 365.838 448.889 367.077C447.648 368.317 445.965 369.014 444.21 369.016ZM320.382 316.902C318.834 316.904 317.349 317.519 316.254 318.613C315.159 319.707 314.543 321.189 314.541 322.736V362.404C314.543 363.951 315.159 365.434 316.254 366.527C317.349 367.621 318.834 368.236 320.382 368.238H444.21C445.759 368.236 447.244 367.621 448.339 366.527C449.434 365.434 450.05 363.951 450.051 362.404V322.736C450.05 321.189 449.434 319.707 448.339 318.613C447.244 317.519 445.759 316.904 444.21 316.902H320.382Z" fill="#3F3D56"/>
<path d="M398.535 340.431H355.312C354.486 340.431 353.693 340.103 353.109 339.52C352.525 338.936 352.197 338.145 352.197 337.32C352.197 336.495 352.525 335.703 353.109 335.12C353.693 334.536 354.486 334.208 355.312 334.208H398.535C399.361 334.208 400.153 334.536 400.738 335.12C401.322 335.703 401.65 336.495 401.65 337.32C401.65 338.145 401.322 338.936 400.738 339.52C400.153 340.103 399.361 340.431 398.535 340.431Z" fill="#F47424"/>
<path d="M438.643 350.932H355.312C354.486 350.932 353.693 350.604 353.109 350.02C352.525 349.437 352.197 348.646 352.197 347.82C352.197 346.995 352.525 346.204 353.109 345.62C353.693 345.037 354.486 344.709 355.312 344.709H438.643C439.469 344.709 440.261 345.037 440.845 345.62C441.43 346.204 441.758 346.995 441.758 347.82C441.758 348.646 441.43 349.437 440.845 350.02C440.261 350.604 439.469 350.932 438.643 350.932Z" fill="#F47424"/>
<path d="M334.517 354.237C340.969 354.237 346.199 349.014 346.199 342.57C346.199 336.126 340.969 330.903 334.517 330.903C328.065 330.903 322.835 336.126 322.835 342.57C322.835 349.014 328.065 354.237 334.517 354.237Z" fill="#F47424"/>
<path d="M423.763 308.402H346.139C345.233 308.401 344.364 308.081 343.723 307.513C343.082 306.944 342.722 306.172 342.72 305.368V259.313C342.722 258.508 343.082 257.737 343.723 257.168C344.364 256.599 345.233 256.279 346.139 256.278H423.763C424.669 256.279 425.538 256.599 426.179 257.168C426.82 257.737 427.18 258.508 427.181 259.313V305.368C427.18 306.172 426.82 306.944 426.179 307.513C425.538 308.081 424.669 308.401 423.763 308.402Z" fill="white"/>
<path d="M353.7 273.566C352.936 273.566 352.19 273.34 351.555 272.915C350.92 272.491 350.425 271.888 350.133 271.183C349.841 270.477 349.764 269.701 349.913 268.952C350.062 268.203 350.43 267.515 350.97 266.975C351.51 266.435 352.198 266.067 352.947 265.918C353.696 265.769 354.472 265.846 355.177 266.138C355.883 266.43 356.486 266.925 356.91 267.56C357.335 268.195 357.561 268.941 357.561 269.705C357.56 270.729 357.153 271.71 356.429 272.434C355.705 273.158 354.724 273.565 353.7 273.566Z" fill="#CCCCCC"/>
<path d="M353.7 286.115C352.936 286.115 352.19 285.888 351.555 285.464C350.92 285.04 350.425 284.437 350.133 283.731C349.841 283.026 349.764 282.249 349.913 281.5C350.062 280.751 350.43 280.063 350.97 279.523C351.51 278.983 352.198 278.616 352.947 278.467C353.696 278.318 354.472 278.394 355.177 278.686C355.883 278.979 356.486 279.473 356.91 280.108C357.335 280.743 357.561 281.49 357.561 282.254C357.56 283.277 357.153 284.259 356.429 284.982C355.705 285.706 354.724 286.113 353.7 286.115Z" fill="#F47424"/>
<path d="M353.7 298.663C352.936 298.663 352.19 298.437 351.555 298.012C350.92 297.588 350.425 296.985 350.133 296.28C349.841 295.574 349.764 294.798 349.913 294.049C350.062 293.3 350.43 292.612 350.97 292.072C351.51 291.532 352.198 291.164 352.947 291.015C353.696 290.866 354.472 290.943 355.177 291.235C355.883 291.527 356.486 292.022 356.91 292.657C357.335 293.292 357.561 294.038 357.561 294.802C357.56 295.826 357.153 296.807 356.429 297.531C355.705 298.255 354.724 298.662 353.7 298.663Z" fill="#F47424"/>
<path d="M372.04 266.568C371.208 266.568 370.41 266.898 369.822 267.487C369.233 268.075 368.903 268.873 368.903 269.705C368.903 270.537 369.233 271.335 369.822 271.923C370.41 272.512 371.208 272.842 372.04 272.842H416.925C417.757 272.842 418.555 272.512 419.143 271.923C419.731 271.335 420.062 270.537 420.062 269.705C420.062 268.873 419.731 268.075 419.143 267.487C418.555 266.898 417.757 266.568 416.925 266.568H372.04Z" fill="#CCCCCC"/>
<path d="M372.04 279.116C371.208 279.116 370.41 279.447 369.822 280.035C369.233 280.623 368.903 281.421 368.903 282.253C368.903 283.085 369.233 283.883 369.822 284.472C370.41 285.06 371.208 285.391 372.04 285.391H416.925C417.757 285.391 418.555 285.06 419.143 284.472C419.731 283.883 420.062 283.085 420.062 282.253C420.062 281.421 419.731 280.623 419.143 280.035C418.555 279.447 417.757 279.116 416.925 279.116H372.04Z" fill="#F47424"/>
<path d="M372.04 291.665C371.208 291.665 370.41 291.995 369.822 292.584C369.233 293.172 368.903 293.97 368.903 294.802C368.903 295.634 369.233 296.432 369.822 297.02C370.41 297.609 371.208 297.939 372.04 297.939H416.925C417.757 297.939 418.555 297.609 419.143 297.02C419.731 296.432 420.062 295.634 420.062 294.802C420.062 293.97 419.731 293.172 419.143 292.584C418.555 291.995 417.757 291.665 416.925 291.665H372.04Z" fill="#F47424"/>
<path d="M344.818 24.9358C349.154 24.9358 352.669 21.4209 352.669 17.085C352.669 12.7491 349.154 9.23413 344.818 9.23413C340.482 9.23413 336.967 12.7491 336.967 17.085C336.967 21.4209 340.482 24.9358 344.818 24.9358Z" fill="#F47424"/>
<path d="M346.388 28.8614H311.059C307.936 28.8614 304.941 27.6207 302.732 25.4123C300.524 23.2038 299.283 20.2085 299.283 17.0852C299.283 13.962 300.524 10.9666 302.732 8.75814C304.941 6.54966 307.936 5.30896 311.059 5.30896H346.388C349.511 5.30896 352.507 6.54966 354.715 8.75814C356.924 10.9666 358.164 13.962 358.164 17.0852C358.164 20.2085 356.924 23.2038 354.715 25.4123C352.507 27.6207 349.511 28.8614 346.388 28.8614ZM311.059 6.87912C308.353 6.87912 305.757 7.95441 303.843 9.86842C301.929 11.7824 300.853 14.3784 300.853 17.0852C300.853 19.792 301.929 22.388 303.843 24.302C305.757 26.216 308.353 27.2913 311.059 27.2913H346.388C349.095 27.2913 351.691 26.216 353.605 24.302C355.519 22.388 356.594 19.792 356.594 17.0852C356.594 14.3784 355.519 11.7824 353.605 9.86842C351.691 7.95441 349.095 6.87912 346.388 6.87912H311.059Z" fill="#3F3D56"/>
<path d="M403.05 55.6461L403.05 34.398C403.004 31.2255 404.218 28.1632 406.429 25.879C408.64 23.5947 411.668 22.2737 414.852 22.204C418.037 22.1342 421.12 23.3213 423.429 25.5066C425.739 27.6918 427.087 30.6978 427.181 33.8694H424.525C424.43 31.4468 423.399 29.1545 421.646 27.4725C419.893 25.7904 417.555 24.8491 415.121 24.8455C415.075 24.8455 415.029 24.8459 414.983 24.8465C412.484 24.8864 410.103 25.9128 408.364 27.7002C406.624 29.4876 405.668 31.8897 405.705 34.3789V55.6572C405.704 55.7115 405.704 55.7656 405.705 55.8148C405.727 57.4688 406.401 59.0477 407.583 60.2104C408.764 61.373 410.357 62.026 412.018 62.0282C412.043 62.0282 412.069 62.0281 412.095 62.0278C413.772 62.0048 415.37 61.3198 416.54 60.1233C417.709 58.9269 418.354 57.3168 418.332 55.647L418.318 34.542C418.305 33.7123 417.965 32.9209 417.372 32.3379C416.78 31.7549 415.981 31.4267 415.148 31.424C414.315 31.4213 413.514 31.7442 412.918 32.3233C412.321 32.9025 411.976 33.6917 411.958 34.5212V50.638C411.958 50.9887 411.818 51.325 411.569 51.573C411.32 51.821 410.982 51.9603 410.63 51.9603C410.278 51.9603 409.94 51.821 409.692 51.573C409.443 51.325 409.303 50.9887 409.303 50.638L409.303 34.5003C409.327 32.973 409.954 31.5166 411.048 30.446C412.141 29.3754 413.614 28.7766 415.148 28.7793C416.681 28.7819 418.152 29.3857 419.242 30.46C420.332 31.5344 420.954 32.993 420.973 34.5203L420.987 55.6301C421.013 57.9987 420.095 60.2808 418.434 61.9759C416.773 63.6711 414.505 64.6407 412.127 64.6721C412.09 64.6726 412.054 64.6727 412.017 64.6727C409.657 64.6691 407.394 63.7408 405.716 62.0883C404.038 60.4359 403.081 58.1922 403.05 55.842C403.05 55.7731 403.05 55.704 403.05 55.6461Z" fill="#F47424"/>
</g>
</svg>
