<svg width="50" height="50" viewBox="0 0 50 50" fill="none" xmlns="http://www.w3.org/2000/svg">
<g clip-path="url(#clip0)">
<mask id="path-1-outside-1" maskUnits="userSpaceOnUse" x="4.47852" y="-0.999847" width="41" height="52" fill="black">
<rect fill="white" x="4.47852" y="-0.999847" width="41" height="52"/>
<path d="M44.0914 18.5996C44.8525 17.2417 44.5855 15.5558 43.442 14.4995C42.9629 14.0569 42.7444 13.3848 42.8719 12.7452C43.1762 11.2187 42.4012 9.69766 40.9874 9.04649C40.395 8.77373 39.9796 8.20186 39.9032 7.5542C39.7208 6.0083 38.5137 4.80117 36.9678 4.61895C36.3202 4.54258 35.7484 4.12705 35.4756 3.53467C34.8244 2.1208 33.3032 1.346 31.7769 1.6501C31.1372 1.77764 30.4651 1.55909 30.0226 1.08008C28.9665 -0.0633759 27.2802 -0.33027 25.9225 0.430667C25.3536 0.749515 24.6468 0.749612 24.078 0.430667C22.7201 -0.33027 21.0342 -0.0633759 19.9779 1.08008C19.5354 1.55909 18.8632 1.77793 18.2236 1.6501C16.6969 1.3461 15.1761 2.1208 14.5249 3.53467C14.2521 4.12705 13.6802 4.54248 13.0327 4.61885C11.4868 4.80117 10.2796 6.00821 10.0973 7.5542C10.021 8.20186 9.60543 8.77364 9.01315 9.04639C7.59928 9.69756 6.82418 11.2186 7.12858 12.7451C7.25612 13.3848 7.03766 14.0569 6.55856 14.4994C5.4151 15.5556 5.14801 17.2417 5.90914 18.5995C6.22809 19.1685 6.22809 19.8751 5.90914 20.444C5.14801 21.802 5.415 23.4879 6.55856 24.5441C7.03766 24.9867 7.25612 25.6588 7.12858 26.2983C6.82428 27.8249 7.59928 29.3459 9.01315 29.9971C9.60553 30.2699 10.021 30.8418 10.0973 31.4895C10.249 32.7749 11.1095 33.8256 12.284 34.2481L7.12067 44.8261C7.0069 45.059 7.02486 45.3347 7.16764 45.551C7.31041 45.7673 7.55631 45.8937 7.81578 45.8788L12.7704 45.6282L15.621 49.6886C15.7588 49.8848 15.983 50.0001 16.2203 50.0001C16.2395 50.0001 16.2588 49.9993 16.2782 49.9979C16.5366 49.9774 16.7649 49.8219 16.8786 49.589L22.0375 39.0196C22.7236 39.1023 23.4373 38.9724 24.0779 38.6132C24.6467 38.2943 25.3534 38.2942 25.9224 38.6132C26.4396 38.903 27.0042 39.0439 27.5636 39.0438C27.7105 39.0438 27.8568 39.033 28.0019 39.0138L33.1637 49.589C33.2774 49.8219 33.5057 49.9774 33.7641 49.9979C33.7835 49.9994 33.8028 50.0001 33.822 50.0001C34.0593 50.0001 34.2836 49.8848 34.4214 49.6886L37.2719 45.6282L42.2265 45.8788C42.4845 45.8923 42.7319 45.7672 42.8747 45.551C43.0175 45.3347 43.0354 45.059 42.9216 44.8261L37.7521 34.2351C38.9083 33.8042 39.753 32.7619 39.9031 31.4894C39.9795 30.8417 40.395 30.2699 40.9873 29.9971C42.4011 29.3459 43.1762 27.8249 42.8718 26.2983C42.7443 25.6587 42.9628 24.9866 43.4419 24.544C44.5853 23.4879 44.8524 21.8018 44.0913 20.4439C43.7724 19.8753 43.7724 19.1685 44.0914 18.5996ZM16.1066 47.831L13.7368 44.4555C13.5921 44.2495 13.3525 44.1314 13.1004 44.1448L8.98141 44.3532L13.7193 34.6465C14.068 34.839 14.3546 35.1396 14.5248 35.5091C14.8727 36.2648 15.4693 36.8374 16.1822 37.1609L14.6161 40.3694C14.4386 40.7329 14.5895 41.1714 14.953 41.3488C15.0564 41.3993 15.1659 41.4232 15.2737 41.4232C15.5448 41.4232 15.8054 41.2721 15.9325 41.0119L17.6674 37.4573C17.8517 37.4515 18.0376 37.4308 18.2235 37.3938C18.8632 37.266 19.5353 37.4847 19.9778 37.9638C20.1806 38.1834 20.4069 38.3704 20.6495 38.5242L16.1066 47.831ZM41.0608 44.3532L36.9418 44.1449C36.69 44.1309 36.45 44.2495 36.3053 44.4556L33.9355 47.8311L29.3825 38.5031C29.613 38.3532 29.8285 38.1736 30.0224 37.9637C30.4649 37.4846 31.1371 37.2662 31.7767 37.3937C31.977 37.4336 32.1772 37.4544 32.3754 37.4582L34.1099 41.0119C34.2369 41.272 34.4974 41.4231 34.7686 41.4231C34.8764 41.4231 34.986 41.3992 35.0894 41.3487C35.4529 41.1713 35.6038 40.7328 35.4263 40.3693L33.8525 37.1449C34.5502 36.8188 35.1332 36.2523 35.4756 35.509C35.6512 35.1277 35.9509 34.8205 36.3147 34.6291L41.0608 44.3532ZM42.4482 23.4682C41.597 24.2543 41.2091 25.4485 41.4356 26.5848C41.6069 27.4441 41.1707 28.3002 40.3749 28.6667C39.3225 29.1514 38.5844 30.1672 38.4487 31.3179C38.3461 32.1881 37.6666 32.8675 36.7964 32.9701C35.6459 33.1059 34.6299 33.8439 34.1453 34.8963C33.7788 35.6922 32.9226 36.1286 32.0632 35.957C30.9272 35.7308 29.7327 36.1186 28.9466 36.9697C28.3521 37.6135 27.4031 37.7638 26.6387 37.3354C26.1333 37.0521 25.5669 36.9104 25.0003 36.9104C24.4338 36.9104 23.8671 37.0521 23.3618 37.3353C22.5974 37.7637 21.6484 37.6134 21.0539 36.9697C20.2677 36.1187 19.0734 35.7307 17.9373 35.957C17.078 36.1284 16.2218 35.6921 15.8553 34.8963C15.3707 33.8439 14.3548 33.1059 13.2042 32.9701C12.3339 32.8675 11.6546 32.188 11.5519 31.3179C11.4162 30.1673 10.6781 29.1514 9.62574 28.6666C8.82985 28.3001 8.39371 27.444 8.565 26.5847C8.79147 25.4484 8.40348 24.2542 7.5524 23.4681C6.90875 22.8735 6.75836 21.9245 7.18678 21.1602C7.75338 20.1495 7.75338 18.8939 7.18678 17.8831C6.75826 17.1188 6.90865 16.1698 7.55231 15.5752C8.40348 14.7891 8.79137 13.5948 8.565 12.4586C8.39371 11.5993 8.82994 10.7432 9.62574 10.3767C10.6781 9.892 11.4162 8.87617 11.5519 7.72549C11.6546 6.85518 12.334 6.17588 13.2042 6.07325C14.3547 5.9375 15.3708 5.19942 15.8553 4.14707C16.2218 3.35117 17.0778 2.91504 17.9374 3.08633C19.0741 3.31289 20.2678 2.92471 21.054 2.07364C21.6485 1.42998 22.5976 1.2795 23.3619 1.70811C24.3725 2.27461 25.6282 2.27461 26.6388 1.70811C27.4032 1.2795 28.3521 1.42989 28.9467 2.07364C29.7329 2.92471 30.9269 3.3128 32.0633 3.08633C32.923 2.91485 33.7787 3.35137 34.1453 4.14707C34.6299 5.19942 35.6458 5.9375 36.7964 6.07325C37.6667 6.17588 38.3461 6.85537 38.4487 7.72549C38.5844 8.87608 39.3225 9.89209 40.3749 10.3767C41.1708 10.7432 41.6069 11.5993 41.4356 12.4586C41.2091 13.5948 41.5971 14.7891 42.4483 15.5752C43.092 16.1697 43.2423 17.1188 42.8139 17.8831C42.2473 18.894 42.2473 20.1497 42.8139 21.1603C43.2422 21.9246 43.0918 22.8736 42.4482 23.4682Z"/>
</mask>
<path d="M44.0914 18.5996C44.8525 17.2417 44.5855 15.5558 43.442 14.4995C42.9629 14.0569 42.7444 13.3848 42.8719 12.7452C43.1762 11.2187 42.4012 9.69766 40.9874 9.04649C40.395 8.77373 39.9796 8.20186 39.9032 7.5542C39.7208 6.0083 38.5137 4.80117 36.9678 4.61895C36.3202 4.54258 35.7484 4.12705 35.4756 3.53467C34.8244 2.1208 33.3032 1.346 31.7769 1.6501C31.1372 1.77764 30.4651 1.55909 30.0226 1.08008C28.9665 -0.0633759 27.2802 -0.33027 25.9225 0.430667C25.3536 0.749515 24.6468 0.749612 24.078 0.430667C22.7201 -0.33027 21.0342 -0.0633759 19.9779 1.08008C19.5354 1.55909 18.8632 1.77793 18.2236 1.6501C16.6969 1.3461 15.1761 2.1208 14.5249 3.53467C14.2521 4.12705 13.6802 4.54248 13.0327 4.61885C11.4868 4.80117 10.2796 6.00821 10.0973 7.5542C10.021 8.20186 9.60543 8.77364 9.01315 9.04639C7.59928 9.69756 6.82418 11.2186 7.12858 12.7451C7.25612 13.3848 7.03766 14.0569 6.55856 14.4994C5.4151 15.5556 5.14801 17.2417 5.90914 18.5995C6.22809 19.1685 6.22809 19.8751 5.90914 20.444C5.14801 21.802 5.415 23.4879 6.55856 24.5441C7.03766 24.9867 7.25612 25.6588 7.12858 26.2983C6.82428 27.8249 7.59928 29.3459 9.01315 29.9971C9.60553 30.2699 10.021 30.8418 10.0973 31.4895C10.249 32.7749 11.1095 33.8256 12.284 34.2481L7.12067 44.8261C7.0069 45.059 7.02486 45.3347 7.16764 45.551C7.31041 45.7673 7.55631 45.8937 7.81578 45.8788L12.7704 45.6282L15.621 49.6886C15.7588 49.8848 15.983 50.0001 16.2203 50.0001C16.2395 50.0001 16.2588 49.9993 16.2782 49.9979C16.5366 49.9774 16.7649 49.8219 16.8786 49.589L22.0375 39.0196C22.7236 39.1023 23.4373 38.9724 24.0779 38.6132C24.6467 38.2943 25.3534 38.2942 25.9224 38.6132C26.4396 38.903 27.0042 39.0439 27.5636 39.0438C27.7105 39.0438 27.8568 39.033 28.0019 39.0138L33.1637 49.589C33.2774 49.8219 33.5057 49.9774 33.7641 49.9979C33.7835 49.9994 33.8028 50.0001 33.822 50.0001C34.0593 50.0001 34.2836 49.8848 34.4214 49.6886L37.2719 45.6282L42.2265 45.8788C42.4845 45.8923 42.7319 45.7672 42.8747 45.551C43.0175 45.3347 43.0354 45.059 42.9216 44.8261L37.7521 34.2351C38.9083 33.8042 39.753 32.7619 39.9031 31.4894C39.9795 30.8417 40.395 30.2699 40.9873 29.9971C42.4011 29.3459 43.1762 27.8249 42.8718 26.2983C42.7443 25.6587 42.9628 24.9866 43.4419 24.544C44.5853 23.4879 44.8524 21.8018 44.0913 20.4439C43.7724 19.8753 43.7724 19.1685 44.0914 18.5996ZM16.1066 47.831L13.7368 44.4555C13.5921 44.2495 13.3525 44.1314 13.1004 44.1448L8.98141 44.3532L13.7193 34.6465C14.068 34.839 14.3546 35.1396 14.5248 35.5091C14.8727 36.2648 15.4693 36.8374 16.1822 37.1609L14.6161 40.3694C14.4386 40.7329 14.5895 41.1714 14.953 41.3488C15.0564 41.3993 15.1659 41.4232 15.2737 41.4232C15.5448 41.4232 15.8054 41.2721 15.9325 41.0119L17.6674 37.4573C17.8517 37.4515 18.0376 37.4308 18.2235 37.3938C18.8632 37.266 19.5353 37.4847 19.9778 37.9638C20.1806 38.1834 20.4069 38.3704 20.6495 38.5242L16.1066 47.831ZM41.0608 44.3532L36.9418 44.1449C36.69 44.1309 36.45 44.2495 36.3053 44.4556L33.9355 47.8311L29.3825 38.5031C29.613 38.3532 29.8285 38.1736 30.0224 37.9637C30.4649 37.4846 31.1371 37.2662 31.7767 37.3937C31.977 37.4336 32.1772 37.4544 32.3754 37.4582L34.1099 41.0119C34.2369 41.272 34.4974 41.4231 34.7686 41.4231C34.8764 41.4231 34.986 41.3992 35.0894 41.3487C35.4529 41.1713 35.6038 40.7328 35.4263 40.3693L33.8525 37.1449C34.5502 36.8188 35.1332 36.2523 35.4756 35.509C35.6512 35.1277 35.9509 34.8205 36.3147 34.6291L41.0608 44.3532ZM42.4482 23.4682C41.597 24.2543 41.2091 25.4485 41.4356 26.5848C41.6069 27.4441 41.1707 28.3002 40.3749 28.6667C39.3225 29.1514 38.5844 30.1672 38.4487 31.3179C38.3461 32.1881 37.6666 32.8675 36.7964 32.9701C35.6459 33.1059 34.6299 33.8439 34.1453 34.8963C33.7788 35.6922 32.9226 36.1286 32.0632 35.957C30.9272 35.7308 29.7327 36.1186 28.9466 36.9697C28.3521 37.6135 27.4031 37.7638 26.6387 37.3354C26.1333 37.0521 25.5669 36.9104 25.0003 36.9104C24.4338 36.9104 23.8671 37.0521 23.3618 37.3353C22.5974 37.7637 21.6484 37.6134 21.0539 36.9697C20.2677 36.1187 19.0734 35.7307 17.9373 35.957C17.078 36.1284 16.2218 35.6921 15.8553 34.8963C15.3707 33.8439 14.3548 33.1059 13.2042 32.9701C12.3339 32.8675 11.6546 32.188 11.5519 31.3179C11.4162 30.1673 10.6781 29.1514 9.62574 28.6666C8.82985 28.3001 8.39371 27.444 8.565 26.5847C8.79147 25.4484 8.40348 24.2542 7.5524 23.4681C6.90875 22.8735 6.75836 21.9245 7.18678 21.1602C7.75338 20.1495 7.75338 18.8939 7.18678 17.8831C6.75826 17.1188 6.90865 16.1698 7.55231 15.5752C8.40348 14.7891 8.79137 13.5948 8.565 12.4586C8.39371 11.5993 8.82994 10.7432 9.62574 10.3767C10.6781 9.892 11.4162 8.87617 11.5519 7.72549C11.6546 6.85518 12.334 6.17588 13.2042 6.07325C14.3547 5.9375 15.3708 5.19942 15.8553 4.14707C16.2218 3.35117 17.0778 2.91504 17.9374 3.08633C19.0741 3.31289 20.2678 2.92471 21.054 2.07364C21.6485 1.42998 22.5976 1.2795 23.3619 1.70811C24.3725 2.27461 25.6282 2.27461 26.6388 1.70811C27.4032 1.2795 28.3521 1.42989 28.9467 2.07364C29.7329 2.92471 30.9269 3.3128 32.0633 3.08633C32.923 2.91485 33.7787 3.35137 34.1453 4.14707C34.6299 5.19942 35.6458 5.9375 36.7964 6.07325C37.6667 6.17588 38.3461 6.85537 38.4487 7.72549C38.5844 8.87608 39.3225 9.89209 40.3749 10.3767C41.1708 10.7432 41.6069 11.5993 41.4356 12.4586C41.2091 13.5948 41.5971 14.7891 42.4483 15.5752C43.092 16.1697 43.2423 17.1188 42.8139 17.8831C42.2473 18.894 42.2473 20.1497 42.8139 21.1603C43.2422 21.9246 43.0918 22.8736 42.4482 23.4682Z" fill="#F98731"/>
<path d="M44.0914 18.5996C44.8525 17.2417 44.5855 15.5558 43.442 14.4995C42.9629 14.0569 42.7444 13.3848 42.8719 12.7452C43.1762 11.2187 42.4012 9.69766 40.9874 9.04649C40.395 8.77373 39.9796 8.20186 39.9032 7.5542C39.7208 6.0083 38.5137 4.80117 36.9678 4.61895C36.3202 4.54258 35.7484 4.12705 35.4756 3.53467C34.8244 2.1208 33.3032 1.346 31.7769 1.6501C31.1372 1.77764 30.4651 1.55909 30.0226 1.08008C28.9665 -0.0633759 27.2802 -0.33027 25.9225 0.430667C25.3536 0.749515 24.6468 0.749612 24.078 0.430667C22.7201 -0.33027 21.0342 -0.0633759 19.9779 1.08008C19.5354 1.55909 18.8632 1.77793 18.2236 1.6501C16.6969 1.3461 15.1761 2.1208 14.5249 3.53467C14.2521 4.12705 13.6802 4.54248 13.0327 4.61885C11.4868 4.80117 10.2796 6.00821 10.0973 7.5542C10.021 8.20186 9.60543 8.77364 9.01315 9.04639C7.59928 9.69756 6.82418 11.2186 7.12858 12.7451C7.25612 13.3848 7.03766 14.0569 6.55856 14.4994C5.4151 15.5556 5.14801 17.2417 5.90914 18.5995C6.22809 19.1685 6.22809 19.8751 5.90914 20.444C5.14801 21.802 5.415 23.4879 6.55856 24.5441C7.03766 24.9867 7.25612 25.6588 7.12858 26.2983C6.82428 27.8249 7.59928 29.3459 9.01315 29.9971C9.60553 30.2699 10.021 30.8418 10.0973 31.4895C10.249 32.7749 11.1095 33.8256 12.284 34.2481L7.12067 44.8261C7.0069 45.059 7.02486 45.3347 7.16764 45.551C7.31041 45.7673 7.55631 45.8937 7.81578 45.8788L12.7704 45.6282L15.621 49.6886C15.7588 49.8848 15.983 50.0001 16.2203 50.0001C16.2395 50.0001 16.2588 49.9993 16.2782 49.9979C16.5366 49.9774 16.7649 49.8219 16.8786 49.589L22.0375 39.0196C22.7236 39.1023 23.4373 38.9724 24.0779 38.6132C24.6467 38.2943 25.3534 38.2942 25.9224 38.6132C26.4396 38.903 27.0042 39.0439 27.5636 39.0438C27.7105 39.0438 27.8568 39.033 28.0019 39.0138L33.1637 49.589C33.2774 49.8219 33.5057 49.9774 33.7641 49.9979C33.7835 49.9994 33.8028 50.0001 33.822 50.0001C34.0593 50.0001 34.2836 49.8848 34.4214 49.6886L37.2719 45.6282L42.2265 45.8788C42.4845 45.8923 42.7319 45.7672 42.8747 45.551C43.0175 45.3347 43.0354 45.059 42.9216 44.8261L37.7521 34.2351C38.9083 33.8042 39.753 32.7619 39.9031 31.4894C39.9795 30.8417 40.395 30.2699 40.9873 29.9971C42.4011 29.3459 43.1762 27.8249 42.8718 26.2983C42.7443 25.6587 42.9628 24.9866 43.4419 24.544C44.5853 23.4879 44.8524 21.8018 44.0913 20.4439C43.7724 19.8753 43.7724 19.1685 44.0914 18.5996ZM16.1066 47.831L13.7368 44.4555C13.5921 44.2495 13.3525 44.1314 13.1004 44.1448L8.98141 44.3532L13.7193 34.6465C14.068 34.839 14.3546 35.1396 14.5248 35.5091C14.8727 36.2648 15.4693 36.8374 16.1822 37.1609L14.6161 40.3694C14.4386 40.7329 14.5895 41.1714 14.953 41.3488C15.0564 41.3993 15.1659 41.4232 15.2737 41.4232C15.5448 41.4232 15.8054 41.2721 15.9325 41.0119L17.6674 37.4573C17.8517 37.4515 18.0376 37.4308 18.2235 37.3938C18.8632 37.266 19.5353 37.4847 19.9778 37.9638C20.1806 38.1834 20.4069 38.3704 20.6495 38.5242L16.1066 47.831ZM41.0608 44.3532L36.9418 44.1449C36.69 44.1309 36.45 44.2495 36.3053 44.4556L33.9355 47.8311L29.3825 38.5031C29.613 38.3532 29.8285 38.1736 30.0224 37.9637C30.4649 37.4846 31.1371 37.2662 31.7767 37.3937C31.977 37.4336 32.1772 37.4544 32.3754 37.4582L34.1099 41.0119C34.2369 41.272 34.4974 41.4231 34.7686 41.4231C34.8764 41.4231 34.986 41.3992 35.0894 41.3487C35.4529 41.1713 35.6038 40.7328 35.4263 40.3693L33.8525 37.1449C34.5502 36.8188 35.1332 36.2523 35.4756 35.509C35.6512 35.1277 35.9509 34.8205 36.3147 34.6291L41.0608 44.3532ZM42.4482 23.4682C41.597 24.2543 41.2091 25.4485 41.4356 26.5848C41.6069 27.4441 41.1707 28.3002 40.3749 28.6667C39.3225 29.1514 38.5844 30.1672 38.4487 31.3179C38.3461 32.1881 37.6666 32.8675 36.7964 32.9701C35.6459 33.1059 34.6299 33.8439 34.1453 34.8963C33.7788 35.6922 32.9226 36.1286 32.0632 35.957C30.9272 35.7308 29.7327 36.1186 28.9466 36.9697C28.3521 37.6135 27.4031 37.7638 26.6387 37.3354C26.1333 37.0521 25.5669 36.9104 25.0003 36.9104C24.4338 36.9104 23.8671 37.0521 23.3618 37.3353C22.5974 37.7637 21.6484 37.6134 21.0539 36.9697C20.2677 36.1187 19.0734 35.7307 17.9373 35.957C17.078 36.1284 16.2218 35.6921 15.8553 34.8963C15.3707 33.8439 14.3548 33.1059 13.2042 32.9701C12.3339 32.8675 11.6546 32.188 11.5519 31.3179C11.4162 30.1673 10.6781 29.1514 9.62574 28.6666C8.82985 28.3001 8.39371 27.444 8.565 26.5847C8.79147 25.4484 8.40348 24.2542 7.5524 23.4681C6.90875 22.8735 6.75836 21.9245 7.18678 21.1602C7.75338 20.1495 7.75338 18.8939 7.18678 17.8831C6.75826 17.1188 6.90865 16.1698 7.55231 15.5752C8.40348 14.7891 8.79137 13.5948 8.565 12.4586C8.39371 11.5993 8.82994 10.7432 9.62574 10.3767C10.6781 9.892 11.4162 8.87617 11.5519 7.72549C11.6546 6.85518 12.334 6.17588 13.2042 6.07325C14.3547 5.9375 15.3708 5.19942 15.8553 4.14707C16.2218 3.35117 17.0778 2.91504 17.9374 3.08633C19.0741 3.31289 20.2678 2.92471 21.054 2.07364C21.6485 1.42998 22.5976 1.2795 23.3619 1.70811C24.3725 2.27461 25.6282 2.27461 26.6388 1.70811C27.4032 1.2795 28.3521 1.42989 28.9467 2.07364C29.7329 2.92471 30.9269 3.3128 32.0633 3.08633C32.923 2.91485 33.7787 3.35137 34.1453 4.14707C34.6299 5.19942 35.6458 5.9375 36.7964 6.07325C37.6667 6.17588 38.3461 6.85537 38.4487 7.72549C38.5844 8.87608 39.3225 9.89209 40.3749 10.3767C41.1708 10.7432 41.6069 11.5993 41.4356 12.4586C41.2091 13.5948 41.5971 14.7891 42.4483 15.5752C43.092 16.1697 43.2423 17.1188 42.8139 17.8831C42.2473 18.894 42.2473 20.1497 42.8139 21.1603C43.2422 21.9246 43.0918 22.8736 42.4482 23.4682Z" stroke="#F98731" mask="url(#path-1-outside-1)"/>
<path d="M28.3481 9.93527L28.5737 10.043C27.8168 11.6276 26.0795 14.512 23.0165 15.7372M28.3481 9.93527C27.5983 11.505 25.8962 14.316 22.9237 15.5051C22.8371 15.5398 22.7448 15.5575 22.6516 15.5575H22.8512V15.787M28.3481 9.93527L28.5737 10.043C28.6461 9.89144 28.8119 9.8253 28.9506 9.87142M28.3481 9.93527L28.9506 9.87142M23.0165 15.7372L22.9241 15.5062L23.0166 15.7372C23.0166 15.7372 23.0166 15.7372 23.0165 15.7372ZM23.0165 15.7372C22.9629 15.7587 22.9075 15.7753 22.8512 15.787M22.8512 15.787V16.3906C22.8512 16.9332 22.4114 17.3731 21.8688 17.3731C21.3262 17.3731 20.8864 16.9332 20.8864 16.3906V15.6079C20.8864 15.2866 20.6246 15.0247 20.3032 15.0247H17.1721C16.8508 15.0247 16.5889 15.2865 16.5889 15.6079V26.5672C16.5889 26.8885 16.8507 27.1504 17.1721 27.1504H20.3032C20.6245 27.1504 20.8864 26.8886 20.8864 26.5672V19.5222C20.8864 18.9796 21.3262 18.5398 21.8688 18.5398C22.4114 18.5398 22.8512 18.9796 22.8512 19.5222V26.3676H32.045C32.3663 26.3676 32.6282 26.1057 32.6282 25.7844C32.6282 25.4631 32.3664 25.2012 32.045 25.2012H30.4795C29.9369 25.2012 29.497 24.7613 29.497 24.2188C29.497 23.6762 29.9369 23.2363 30.4795 23.2363H32.8277C33.149 23.2363 33.4109 22.9744 33.4109 22.6531C33.4109 22.3318 33.1491 22.0699 32.8277 22.0699H31.2622C30.7196 22.0699 30.2797 21.6301 30.2797 21.0875C30.2797 20.545 30.7196 20.1051 31.2622 20.1051H33.6105C33.9318 20.1051 34.1937 19.8432 34.1937 19.5219C34.1937 19.2006 33.9319 18.9387 33.6105 18.9387H32.045C31.5024 18.9387 31.0626 18.4988 31.0626 17.9563C31.0626 17.4137 31.5024 16.9738 32.045 16.9738H34.3933C34.7149 16.9738 34.9767 16.712 34.9767 16.3908C34.9767 16.0695 34.7149 15.8076 34.3935 15.8076H28.1312C27.7689 15.8076 27.4359 15.6082 27.265 15.2888L27.2649 15.2887C27.0942 14.9694 27.1127 14.5818 27.3138 14.2803M22.8512 15.787C22.7857 15.8006 22.7188 15.8075 22.6516 15.8075H22.6012V16.3906C22.6012 16.7951 22.2733 17.1231 21.8688 17.1231C21.4643 17.1231 21.1364 16.7951 21.1364 16.3906V15.6079C21.1364 15.1486 20.7626 14.7747 20.3032 14.7747H17.1721C16.7127 14.7747 16.3389 15.1485 16.3389 15.6079V26.5672C16.3389 27.0266 16.7126 27.4004 17.1721 27.4004H20.3032C20.7626 27.4004 21.1364 27.0267 21.1364 26.5672V19.5222C21.1364 19.1177 21.4643 18.7898 21.8688 18.7898C22.2733 18.7898 22.6012 19.1177 22.6012 19.5222L28.9506 9.87142M28.9506 9.87142L28.9953 9.8864L28.9957 9.88652C29.1614 9.94173 29.2411 10.1118 29.1944 10.254C28.8102 11.423 28.3415 12.4277 27.9673 13.1423C27.7804 13.4994 27.6173 13.7834 27.5007 13.9786C27.4424 14.0762 27.3958 14.1515 27.3636 14.2026C27.3312 14.254 27.3137 14.2805 27.3138 14.2803M27.3138 14.2803L27.5218 14.419L27.3139 14.2802C27.3138 14.2802 27.3138 14.2803 27.3138 14.2803ZM26.8009 9.1961L26.8008 9.19615C26.1643 10.5285 24.7728 12.8344 22.4551 13.8429H22.1384C21.6751 13.3614 21.0241 13.0601 20.3033 13.0601H17.1722C15.7671 13.0601 14.6243 14.2029 14.6243 15.608V26.567C14.6243 27.9722 15.7671 29.115 17.1722 29.115H20.3033C21.0241 29.115 21.6751 28.8137 22.1384 28.3321H32.0451C33.4502 28.3321 34.593 27.1894 34.593 25.7842C34.593 25.3955 34.5054 25.0264 34.3489 24.6962C34.9713 24.2317 35.3757 23.4891 35.3757 22.6531C35.3757 22.2644 35.2881 21.8953 35.1316 21.5651C35.754 21.1006 36.1585 20.358 36.1585 19.5221C36.1585 19.1334 36.0709 18.7643 35.9143 18.4341C36.5368 17.9696 36.9414 17.2269 36.9414 16.391C36.9414 14.9856 35.7986 13.8428 34.3933 13.8428H29.8187C30.2104 13.0737 30.6716 12.0519 31.0608 10.8674C31.4477 9.69062 30.7975 8.41616 29.6171 8.02271L29.5721 8.00769C29.572 8.00768 29.572 8.00768 29.572 8.00767C28.4867 7.64562 27.2967 8.15882 26.8009 9.1961Z" fill="#F98731" stroke="#F98731" stroke-width="0.5"/>
<path d="M18.75 25.7341C19.1545 25.7341 19.4824 25.4062 19.4824 25.0017C19.4824 24.5972 19.1545 24.2693 18.75 24.2693C18.3455 24.2693 18.0176 24.5972 18.0176 25.0017C18.0176 25.4062 18.3455 25.7341 18.75 25.7341Z" fill="#F98731"/>
</g>
<defs>
<clipPath id="clip0">
<rect width="50" height="50" fill="white"/>
</clipPath>
</defs>
</svg>
