<svg width="750" height="308" viewBox="0 0 750 308" fill="none" xmlns="http://www.w3.org/2000/svg">
<g clip-path="url(#clip0)">
<path d="M62.0107 121.94H1V183.336H62.0107V121.94Z" fill="#EC008C"/>
<path d="M283.259 122.033C298.016 122.033 305.329 130.753 305.329 130.753L299.988 138.705C295.629 134.4 289.811 131.953 283.73 131.867C271.885 131.867 263.279 140.825 263.279 153.07C263.279 165.315 271.885 174.512 284.069 174.512C294.987 174.512 302.195 166.561 302.195 166.561L306.727 174.923C306.727 174.923 298.591 184.464 283.22 184.464C264.755 184.464 251.748 171.212 251.748 153.242C251.787 135.537 264.741 122.033 283.259 122.033Z" fill="#808285"/>
<path d="M344.586 122.033C362.125 122.033 376.294 135.113 376.294 153.15C376.294 171.186 362.125 184.491 344.586 184.491C327.048 184.491 312.878 171.239 312.878 153.15C312.878 135.06 327.048 122.033 344.586 122.033ZM344.586 174.592C355.739 174.592 364.789 165.633 364.789 153.15C364.789 140.666 355.739 131.946 344.586 131.946C333.434 131.946 324.371 140.785 324.371 153.15C324.371 165.514 333.551 174.592 344.586 174.592Z" fill="#808285"/>
<path d="M387.289 123.451H398.167V133.815C398.167 135.31 398.093 136.805 397.945 138.294H398.167C400.845 129.574 407.701 122.749 416.751 122.749C417.725 122.755 418.698 122.831 419.663 122.974V134.292C418.594 134.061 417.504 133.941 416.411 133.934C409.202 133.934 402.581 139.129 399.917 147.968C398.925 151.45 398.454 155.064 398.52 158.689V183.086H387.289V123.451Z" fill="#808285"/>
<path d="M453.461 122.033C470.059 122.033 478.887 134.53 478.887 149.969C478.887 151.493 478.547 154.912 478.547 154.912H435.687C436.262 167.992 445.442 174.592 455.89 174.592C465.998 174.592 473.311 167.647 473.311 167.647L477.96 176.01C471.611 181.5 463.539 184.508 455.198 184.491C436.732 184.491 424.064 170.947 424.064 153.269C424.064 134.292 436.732 122.033 453.461 122.033ZM467.395 146.311C467.042 136.054 460.774 131.111 453.226 131.111C444.633 131.111 437.659 136.531 436.04 146.311H467.395Z" fill="#808285"/>
<path d="M490.274 123.451H500.604V128.514C500.604 130.873 500.382 132.874 500.382 132.874H500.604C500.604 132.874 505.606 122.033 520.35 122.033C536.151 122.033 546.142 134.769 546.142 153.269C546.142 172.246 534.872 184.491 519.54 184.491C515.959 184.604 512.411 183.761 509.253 182.044C506.094 180.328 503.436 177.799 501.544 174.711H501.309C501.474 176.437 501.553 178.171 501.544 179.906V206.635H490.274V123.451ZM517.803 174.711C527.088 174.711 534.78 166.932 534.78 153.388C534.78 140.414 527.924 132.052 518.169 132.052C509.341 132.052 501.192 138.294 501.192 153.507C501.192 164.109 506.99 174.711 517.803 174.711Z" fill="#58595B"/>
<path d="M556.941 99.8757H568.198V164.811C568.198 172.007 570.993 173.306 574.467 173.306C575.13 173.304 575.793 173.264 576.452 173.187V183.311C575.217 183.465 573.974 183.545 572.73 183.55C566.344 183.55 556.941 181.787 556.941 166.812V99.8757Z" fill="#58595B"/>
<path d="M585.28 123.451H596.537V159.047C596.537 167.29 598.17 173.889 607.572 173.889C619.535 173.889 626.626 163.168 626.626 151.36V123.451H637.883V183.086H626.965V175.135C626.962 173.678 627.041 172.223 627.2 170.775H626.965C625.022 174.904 621.956 178.384 618.13 180.804C614.303 183.225 609.874 184.486 605.365 184.438C592.123 184.438 585.28 177.374 585.28 161.578V123.451Z" fill="#58595B"/>
<path d="M653.906 167.647C658.473 172.003 664.474 174.479 670.74 174.592C675.624 174.592 680.495 171.941 680.495 167.17C680.495 156.211 650.302 158.45 650.302 139.009C650.302 128.169 659.822 122.033 671.549 122.033C684.452 122.033 690.485 128.66 690.485 128.66L685.954 137.26C681.93 133.733 676.761 131.845 671.445 131.959C666.561 131.959 661.794 134.08 661.794 139.275C661.794 149.996 692 147.637 692 167.197C692 177.096 683.629 184.517 670.74 184.517C662.471 184.683 654.468 181.552 648.448 175.797L653.906 167.647Z" fill="#58595B"/>
<path d="M496.96 232.02C499.631 232.02 501.828 229.727 501.828 225.814C501.828 221.9 499.868 219.639 497.087 219.639C494.558 219.639 492.187 221.483 492.187 225.846C492.187 228.941 493.878 232.02 497.008 232.02H496.96ZM490.228 218.115H492.187V219.607C492.209 220.008 492.209 220.409 492.187 220.81C492.668 219.836 493.42 219.026 494.35 218.482C495.28 217.937 496.347 217.681 497.419 217.747C501.496 217.747 504.025 221.05 504.025 225.766C504.025 230.481 501.164 233.785 497.245 233.785C496.23 233.814 495.227 233.555 494.35 233.037C493.473 232.518 492.757 231.76 492.282 230.85C492.305 231.298 492.305 231.748 492.282 232.197V239.574H490.228V218.115Z" fill="#808285"/>
<path d="M507.881 218.115H509.904V220.842C509.925 221.248 509.925 221.654 509.904 222.06C510.144 220.946 510.738 219.943 511.595 219.204C512.451 218.465 513.523 218.032 514.645 217.971C514.916 217.974 515.185 218.001 515.451 218.051V220.104C515.199 220.084 514.945 220.084 514.693 220.104C513.633 220.189 512.629 220.624 511.836 221.342C511.043 222.06 510.503 223.022 510.299 224.081C510.016 225.055 509.877 226.065 509.888 227.08V233.496H507.833L507.881 218.115Z" fill="#808285"/>
<path d="M522.849 232.084C525.741 232.084 527.48 229.021 527.48 226.375V225.701H526.579C524.192 225.701 519.435 225.781 519.435 229.181C519.454 229.603 519.558 230.016 519.742 230.395C519.925 230.774 520.184 231.11 520.501 231.383C520.819 231.655 521.188 231.858 521.587 231.979C521.986 232.1 522.404 232.135 522.817 232.084H522.849ZM526.61 223.985H527.448V223.536C527.533 223.008 527.495 222.468 527.339 221.957C527.182 221.447 526.911 220.98 526.546 220.594C526.181 220.208 525.733 219.914 525.236 219.734C524.74 219.554 524.21 219.494 523.687 219.558C522.147 219.582 520.653 220.099 519.419 221.034L518.455 219.43C520.008 218.25 521.906 217.635 523.845 217.682C527.48 217.682 529.503 219.735 529.503 223.584V233.431H527.543V231.747C527.519 231.32 527.519 230.892 527.543 230.464C527.113 231.459 526.404 232.304 525.505 232.895C524.606 233.485 523.556 233.794 522.485 233.784C519.957 233.784 517.333 232.293 517.333 229.245C517.333 224.049 523.987 223.921 526.61 223.921" fill="#808285"/>
<path d="M541.15 217.746C542.174 217.709 543.194 217.885 544.148 218.263C545.102 218.641 545.97 219.213 546.698 219.944L545.639 221.547C544.458 220.365 542.872 219.692 541.214 219.671C540.419 219.657 539.629 219.808 538.895 220.116C538.16 220.424 537.495 220.881 536.941 221.46C536.387 222.038 535.956 222.726 535.674 223.48C535.392 224.235 535.266 225.04 535.303 225.846C535.275 226.655 535.409 227.461 535.698 228.216C535.987 228.97 536.424 229.657 536.983 230.235C537.542 230.812 538.211 231.269 538.949 231.576C539.687 231.883 540.479 232.034 541.277 232.02C542.186 232.014 543.084 231.818 543.916 231.446C544.748 231.074 545.495 230.532 546.113 229.855L547.046 231.459C546.275 232.244 545.355 232.863 544.341 233.276C543.328 233.69 542.242 233.89 541.15 233.865C539.055 233.865 537.045 233.02 535.563 231.516C534.081 230.012 533.248 227.972 533.248 225.846C533.248 223.719 534.081 221.679 535.563 220.175C537.045 218.671 539.055 217.827 541.15 217.827" fill="#808285"/>
<path d="M551.36 220.04H549.369V218.308H551.392V213.913H553.446V218.356H557.239V220.088H553.446V227.738C553.446 231.331 555.706 231.796 556.844 231.796C557.075 231.82 557.308 231.82 557.54 231.796V233.656C557.25 233.681 556.96 233.681 556.67 233.656C554.932 233.656 551.407 233.079 551.407 227.947L551.36 220.04Z" fill="#808285"/>
<path d="M560.875 218.115H562.93V233.48H560.875V218.115ZM560.875 212.005H562.93V214.603H560.796L560.875 212.005Z" fill="#808285"/>
<path d="M574.751 217.746C575.774 217.709 576.795 217.885 577.749 218.263C578.703 218.641 579.57 219.213 580.298 219.944L579.24 221.547C578.059 220.365 576.473 219.692 574.814 219.671C573.2 219.671 571.653 220.321 570.512 221.479C569.37 222.637 568.729 224.208 568.729 225.846C568.729 227.483 569.37 229.054 570.512 230.212C571.653 231.37 573.2 232.02 574.814 232.02C575.726 232.015 576.627 231.82 577.461 231.448C578.296 231.075 579.046 230.533 579.666 229.855L580.599 231.459C579.828 232.244 578.908 232.863 577.895 233.276C576.881 233.69 575.796 233.89 574.704 233.865C572.608 233.865 570.598 233.02 569.116 231.516C567.634 230.012 566.801 227.972 566.801 225.846C566.801 223.719 567.634 221.679 569.116 220.175C570.598 218.671 572.608 217.827 574.704 217.827" fill="#808285"/>
<path d="M595.045 224.193C594.918 220.986 592.99 219.494 590.73 219.494C589.439 219.468 588.186 219.938 587.222 220.809C586.258 221.68 585.653 222.889 585.53 224.193H595.045ZM590.793 217.778C594.981 217.778 597.115 220.986 597.115 224.867C597.115 225.236 597.115 225.942 597.115 225.942H585.499C585.459 226.741 585.583 227.54 585.863 228.288C586.143 229.036 586.573 229.718 587.125 230.289C587.677 230.86 588.341 231.309 589.073 231.607C589.805 231.905 590.59 232.045 591.378 232.02C593.083 231.986 594.717 231.325 595.977 230.16L596.91 231.763C595.352 233.124 593.37 233.88 591.315 233.896C590.267 233.932 589.224 233.749 588.249 233.359C587.275 232.969 586.389 232.379 585.649 231.627C584.908 230.875 584.327 229.977 583.942 228.988C583.557 227.999 583.377 226.94 583.412 225.877C583.343 224.844 583.484 223.807 583.829 222.832C584.173 221.857 584.712 220.964 585.413 220.211C586.114 219.458 586.96 218.86 587.9 218.455C588.84 218.05 589.851 217.847 590.872 217.858" fill="#808285"/>
<path d="M609.126 212.005H611.181V220.329C611.203 220.745 611.203 221.163 611.181 221.58C611.711 220.419 612.563 219.44 613.632 218.762C614.702 218.085 615.942 217.737 617.203 217.763C620.933 217.763 622.26 219.944 622.26 223.729V233.512H620.205V224.274C620.205 221.868 619.858 219.719 616.934 219.719C615.669 219.734 614.443 220.171 613.446 220.962C612.45 221.753 611.737 222.855 611.418 224.098C611.239 224.761 611.16 225.447 611.181 226.135V233.512H609.126V212.005Z" fill="#808285"/>
<path d="M631.222 232.084C634.114 232.084 635.868 229.021 635.868 226.375V225.701H634.999C632.613 225.701 627.855 225.781 627.855 229.181C627.874 229.602 627.978 230.013 628.161 230.391C628.343 230.768 628.6 231.104 628.916 231.376C629.232 231.648 629.6 231.852 629.996 231.974C630.393 232.096 630.81 232.133 631.222 232.084ZM635.015 223.985H635.868V223.536C635.953 223.008 635.916 222.468 635.759 221.957C635.603 221.447 635.331 220.98 634.966 220.594C634.601 220.208 634.153 219.914 633.657 219.734C633.161 219.555 632.63 219.494 632.107 219.559C630.562 219.584 629.065 220.1 627.824 221.034L626.86 219.43C628.414 218.254 630.311 217.639 632.249 217.682C635.9 217.682 637.907 219.735 637.907 223.584V233.432H635.963V231.748C635.963 230.978 635.963 230.465 635.963 230.465C635.532 231.462 634.821 232.309 633.919 232.899C633.017 233.49 631.963 233.797 630.89 233.784C628.361 233.784 625.753 232.293 625.753 229.246C625.753 224.049 632.407 223.921 635.015 223.921" fill="#808285"/>
<path d="M649.444 232.02C652.131 232.02 654.328 229.727 654.328 225.814C654.328 221.9 652.368 219.639 649.586 219.639C647.058 219.639 644.671 221.483 644.671 225.846C644.671 228.941 646.362 232.02 649.491 232.02H649.444ZM642.68 218.115H644.639V219.607C644.661 220.007 644.661 220.409 644.639 220.81C645.123 219.834 645.878 219.024 646.81 218.48C647.743 217.935 648.813 217.68 649.887 217.746C653.948 217.746 656.477 221.05 656.477 225.765C656.477 230.481 653.617 233.785 649.697 233.785C648.683 233.811 647.682 233.55 646.805 233.031C645.929 232.513 645.212 231.758 644.734 230.85C644.757 231.298 644.757 231.748 644.734 232.197V239.574H642.68V218.115Z" fill="#808285"/>
<path d="M667.24 232.02C669.911 232.02 672.124 229.727 672.124 225.814C672.124 221.9 670.164 219.639 667.383 219.639C664.854 219.639 662.467 221.483 662.467 225.846C662.467 228.941 664.158 232.02 667.209 232.02H667.24ZM660.397 218.115H662.357V219.607C662.378 220.007 662.378 220.409 662.357 220.81C662.84 219.834 663.595 219.024 664.528 218.48C665.46 217.935 666.53 217.68 667.604 217.746C671.666 217.746 674.194 221.05 674.194 225.765C674.194 230.481 671.334 233.785 667.414 233.785C666.415 233.808 665.428 233.552 664.561 233.046C663.695 232.54 662.981 231.803 662.499 230.914C662.522 231.362 662.522 231.812 662.499 232.261V239.574H660.444L660.397 218.115Z" fill="#808285"/>
<path d="M676.627 237.345C677.146 237.753 677.774 237.993 678.429 238.034C679.757 238.034 680.689 236.944 681.29 235.532L682.222 233.367L675.9 218.115H678.16L682.617 229.342C682.918 230.112 683.155 230.946 683.155 230.946C683.302 230.402 683.476 229.867 683.676 229.342L688.038 218.115H690.267L682.791 236.703C682.483 237.632 681.897 238.439 681.115 239.014C680.333 239.589 679.394 239.902 678.429 239.911C677.471 239.899 676.541 239.579 675.774 238.997L676.627 237.345Z" fill="#808285"/>
<path d="M229.459 122.563H168.167L203.286 183.364L229.459 122.563Z" fill="url(#paint0_linear)"/>
<path d="M203.285 183.378V107.019L167.677 121.715L203.285 183.378Z" fill="#FDC17B"/>
<path d="M167.676 121.689L203.285 183.378H132.068L167.676 121.689Z" fill="#F68A33"/>
<path d="M132.081 60.0134L167.677 121.676H96.4727L132.081 60.0134Z" fill="#FFCB3B"/>
<path d="M96.459 121.676H167.689L132.068 183.378L96.459 121.676Z" fill="#E4018B"/>
<path d="M99.2949 126.552L99.2817 126.566V126.552H99.2949Z" fill="#E51E25"/>
<path d="M132.081 60L96.4724 121.676L60.8506 60H132.081Z" fill="#FFF68F"/>
<path d="M116.761 156.847L132.068 183.338H60.8506L96.4592 121.676L116.761 156.847Z" fill="#60C5BA"/>
<path d="M60.8506 183.338H132.068L96.4592 245L60.8506 183.338Z" fill="#B0DFE3"/>
<path d="M386.197 183.562H0.416504" stroke="#EC008C" stroke-width="0.802139" stroke-dasharray="3.19 3.19"/>
<path d="M386.197 122.037H0.656738" stroke="#EC008C" stroke-width="0.802139" stroke-dasharray="3.19 3.19"/>
<path d="M61.3145 68.6633V239.888" stroke="#EC008C" stroke-width="1.29947" stroke-dasharray="5.12 5.12"/>
<path d="M69.0474 245.006H685.828" stroke="#EC008C" stroke-width="1.29947" stroke-dasharray="5.17 5.17"/>
<path d="M690.994 237.337V66.0964" stroke="#EC008C" stroke-width="1.29947" stroke-dasharray="5.12 5.12"/>
<path d="M683.246 60.9949H66.4814" stroke="#EC008C" stroke-width="1.29947" stroke-dasharray="5.17 5.17"/>
<path d="M61.3145 242.423V244.973H63.8973M63.8973 60.9626H61.3145V63.5134L63.8973 60.9626ZM690.994 63.5134V60.9626H688.411L690.994 63.5134ZM688.411 244.973H690.994V242.423L688.411 244.973Z" stroke="#EC008C" stroke-width="1.29947"/>
<path d="M0.656738 8.64722V301.123" stroke="#EC008C" stroke-width="1.29947" stroke-dasharray="5.28 5.28"/>
<path d="M8.45312 306.401H744.143" stroke="#EC008C" stroke-width="1.29947" stroke-dasharray="5.2 5.2"/>
<path d="M749.342 298.492V6.00024" stroke="#EC008C" stroke-width="1.29947" stroke-dasharray="5.28 5.28"/>
<path d="M741.545 0.738037H5.85547" stroke="#EC008C" stroke-width="1.29947" stroke-dasharray="5.2 5.2"/>
<path d="M0.656738 303.77V306.417H3.20754M3.20754 0.738037H0.656738V3.36905L3.20754 0.738037ZM749.341 3.36905V0.738037H746.742L749.341 3.36905ZM746.742 306.401H749.341V303.77L746.742 306.401Z" stroke="#EC008C" stroke-width="1.29947"/>
<path d="M18.0133 168.94H23.1258L29.0214 158.945C30.0807 157.149 30.9558 155.214 30.9558 155.214H31.0479C31.0479 155.214 32.0612 157.103 33.1206 158.945L39.0161 168.94H44.1747L33.9036 152.175L43.5299 136.422H38.2792L33.1666 145.22C32.1073 147.016 31.1861 149.089 31.1861 149.089H31.094C31.094 149.089 30.0346 146.97 29.0214 145.22L23.9088 136.422H18.6581L28.2844 152.175L18.0133 168.94Z" fill="white"/>
<path d="M191.011 -0.0600586H130V61.3357H191.011V-0.0600586Z" fill="#EC008C"/>
<path d="M147.013 45.9399H152.126L158.021 35.9452C159.081 34.1489 159.956 32.2144 159.956 32.2144H160.048C160.048 32.2144 161.061 34.1028 162.121 35.9452L168.016 45.9399H173.175L162.904 29.1745L172.53 13.4224H167.279L162.167 22.2196C161.107 24.0159 160.186 26.0886 160.186 26.0886H160.094C160.094 26.0886 159.035 23.9699 158.021 22.2196L152.909 13.4224H147.658L157.284 29.1745L147.013 45.9399Z" fill="white"/>
</g>
<defs>
<linearGradient id="paint0_linear" x1="5943.64" y1="4387.75" x2="8061.27" y2="3155.79" gradientUnits="userSpaceOnUse">
<stop offset="0.24" stop-color="#BCBEC0"/>
<stop offset="1" stop-color="#E6E7E8"/>
</linearGradient>
<clipPath id="clip0">
<rect width="750" height="307.043" fill="white" transform="translate(0 0.0600586)"/>
</clipPath>
</defs>
</svg>
