<svg width="50" height="50" viewBox="0 0 50 50" fill="none" xmlns="http://www.w3.org/2000/svg">
<g clip-path="url(#clip0)">
<path d="M16.1181 11.903C13.6954 11.903 11.7244 13.8741 11.7244 16.2968C11.7244 18.7194 13.6955 20.6905 16.1181 20.6905C18.5408 20.6905 20.5119 18.7194 20.5119 16.2968C20.5119 13.8741 18.5409 11.903 16.1181 11.903ZM16.1181 17.7614C15.3105 17.7614 14.6536 17.1044 14.6536 16.2969C14.6536 15.4893 15.3106 14.8323 16.1181 14.8323C16.9256 14.8323 17.5827 15.4893 17.5827 16.2969C17.5827 17.1044 16.9257 17.7614 16.1181 17.7614Z" fill="#F98731"/>
<path d="M10.26 20.6906C7.8372 20.6906 5.86621 22.6617 5.86621 25.0843C5.86621 27.5071 7.8373 29.478 10.26 29.478C12.6826 29.478 14.6537 27.507 14.6537 25.0843C14.6538 22.6617 12.6827 20.6906 10.26 20.6906ZM10.26 26.549C9.45234 26.549 8.7954 25.8919 8.7954 25.0844C8.7954 24.2768 9.45243 23.6199 10.26 23.6199C11.0675 23.6199 11.7245 24.2769 11.7245 25.0844C11.7246 25.8919 11.0676 26.549 10.26 26.549Z" fill="#F98731"/>
<path d="M13.1891 32.4073C10.7664 32.4073 8.79541 34.3784 8.79541 36.8011C8.79541 39.2238 10.7665 41.1948 13.1891 41.1948C15.6118 41.1948 17.5829 39.2237 17.5829 36.8011C17.583 34.3783 15.6119 32.4073 13.1891 32.4073ZM13.1891 38.2656C12.3815 38.2656 11.7246 37.6086 11.7246 36.8011C11.7246 35.9935 12.3816 35.3365 13.1891 35.3365C13.9967 35.3365 14.6537 35.9936 14.6537 36.8011C14.6538 37.6087 13.9968 38.2656 13.1891 38.2656Z" fill="#F98731"/>
<path d="M47.9064 6.95527C49.3755 4.80059 50.8693 2.13467 49.3671 0.632624C48.6582 -0.0762615 47.5916 -0.190031 46.1965 0.294539C45.3036 0.604695 44.2194 1.16817 42.9745 1.96934C40.4106 3.61914 37.085 6.346 34.0169 9.60078C28.3909 5.93301 21.4202 5.1374 15.2657 7.10625C5.09761 10.3591 -1.74789 20.7486 0.404161 32.2464C1.99176 40.7276 8.71655 47.6515 17.1378 49.4756C18.751 49.825 20.3691 50 21.9763 50C23.0729 50 24.1646 49.9185 25.2459 49.7554C27.5828 49.403 29.5001 47.7688 30.2494 45.4908C31.0225 43.1413 30.4261 40.6051 28.6927 38.8716C27.5482 37.7282 27.5475 35.8749 28.6931 34.7302C29.8384 33.585 31.6895 33.5849 32.835 34.7302C34.5667 36.462 37.0981 37.0587 39.4412 36.2879C41.716 35.5394 43.3482 33.6217 43.701 31.2831C44.4771 26.1391 43.445 20.5105 40.2369 15.7375C42.8113 13.3061 45.8999 9.89795 47.9064 6.95527ZM46.7184 3.23555C46.0049 4.73203 44.5558 6.64512 43.5082 7.93008L41.9109 6.33281C43.244 5.28916 45.1603 3.91631 46.7184 3.23555ZM40.8045 30.8462C40.6147 32.1043 39.7628 33.0983 38.5257 33.5053C37.517 33.8371 36.0365 33.7891 34.9061 32.6589C32.6223 30.375 28.9058 30.3748 26.6223 32.6585C24.332 34.9468 24.3312 38.6545 26.6219 40.9433C27.7537 42.0752 27.8006 43.5616 27.4671 44.5753C27.059 45.8158 26.0653 46.6694 24.8091 46.8588C22.4955 47.2079 20.1234 47.125 17.7579 46.6126C10.4738 45.0349 4.65689 39.0449 3.28335 31.7073C0.773496 18.2988 12.2501 6.82891 25.6703 9.34101C27.9154 9.76123 30.0854 10.6067 32.0326 11.8094C30.3547 13.7743 28.514 16.2133 27.6942 18.2753C25.7153 17.7132 23.4968 18.2084 21.9419 19.7633C21.253 20.452 20.7434 21.3074 20.4679 22.2368C20.0241 23.7339 18.641 24.8784 16.9445 25.1525C16.4016 25.2402 15.9536 25.6247 15.7844 26.1479C15.6153 26.6712 15.7535 27.2451 16.1424 27.634L16.5567 28.0481C18.3823 29.8739 20.8098 30.8794 23.3917 30.8794C25.9736 30.8794 28.4011 29.8739 30.2268 28.0481C31.8461 26.4288 32.3159 24.0897 31.6393 22.0512C33.6926 21.2019 36.0988 19.3771 38.0343 17.7204C40.6586 21.817 41.449 26.5734 40.8045 30.8462ZM28.1555 25.977C26.8829 27.2495 25.1911 27.9504 23.3915 27.9504C22.2116 27.9504 21.0779 27.649 20.0785 27.0829C21.6118 26.1776 22.7759 24.7564 23.276 23.0693C23.4152 22.5998 23.6632 22.1844 24.013 21.8346C25.1549 20.6925 27.0134 20.6925 28.1555 21.8346C29.2896 22.969 29.3039 24.8286 28.1555 25.977ZM33.0825 17.8634C31.8019 18.7448 30.9407 19.1815 30.3972 19.3975C30.6134 18.854 31.0499 17.9929 31.9313 16.7123C33.9301 13.8086 36.9757 10.5822 39.6518 8.21601L41.5924 10.1565C39.1451 12.8627 36.0535 15.8183 33.0825 17.8634Z" fill="#F98731"/>
</g>
<defs>
<clipPath id="clip0">
<rect width="50" height="50" fill="white"/>
</clipPath>
</defs>
</svg>
