<svg width="50" height="50" viewBox="0 0 50 50" fill="none" xmlns="http://www.w3.org/2000/svg">
<path d="M48.913 19.5652C49.5133 19.5652 50 19.0785 50 18.4782C50 17.8779 49.5133 17.3912 48.913 17.3912H45.6521V6.52173H48.913C49.5133 6.52173 50 6.03505 50 5.43474C50 4.83444 49.5133 4.34786 48.913 4.34786H45.6521V1.08699C45.6521 0.486684 45.1655 0 44.5652 0C43.9648 0 43.4782 0.486684 43.4782 1.08699V4.34786H32.6087V1.08699C32.6087 0.486684 32.122 0 31.5217 0C30.9214 0 30.4347 0.486684 30.4347 1.08699V4.34786H19.5652V1.08699C19.5652 0.486684 19.0785 0 18.4782 0C17.8779 0 17.3912 0.486684 17.3912 1.08699V4.34786H6.52173V1.08699C6.52173 0.486684 6.03505 0 5.43474 0C4.83444 0 4.34786 0.486684 4.34786 1.08699V4.34786H1.08699C0.486684 4.34786 0 4.83444 0 5.43474C0 6.03505 0.486684 6.52173 1.08699 6.52173H4.34786V17.3913H1.08699C0.486684 17.3913 0 17.8779 0 18.4782C0 19.0785 0.486684 19.5652 1.08699 19.5652H4.34786V30.4348H1.08699C0.486684 30.4348 0 30.9214 0 31.5217C0 32.122 0.486684 32.6087 1.08699 32.6087H4.34786V43.4783H1.08699C0.486684 43.4783 0 43.9648 0 44.5652C0 45.1655 0.486684 45.6521 1.08699 45.6521H4.34786V48.913C4.34786 49.5133 4.83454 50 5.43485 50C6.03515 50 6.52173 49.5133 6.52173 48.913V45.6521H17.3913V48.913C17.3913 49.5133 17.878 50 18.4783 50C19.0786 50 19.5653 49.5133 19.5653 48.913V45.6521H30.4349V48.913C30.4349 49.5133 30.9216 50 31.5219 50C32.1222 50 32.6087 49.5133 32.6087 48.913V45.6521H43.4783V48.913C43.4783 49.5133 43.965 50 44.5653 50C45.1656 50 45.6521 49.5133 45.6521 48.913V45.6521H48.913C49.5133 45.6521 50 45.1655 50 44.5652C50 43.9648 49.5133 43.4782 48.913 43.4782H45.6521V32.6087H48.913C49.5133 32.6087 50 32.122 50 31.5217C50 30.9214 49.5133 30.4347 48.913 30.4347H45.6521V19.5652H48.913ZM43.4783 6.52173V17.3913H32.6087V6.52173H43.4783ZM30.4348 6.52173V17.3913H19.5652V6.52173H30.4348ZM30.4348 19.5652V30.4348H19.5652V19.5652H30.4348ZM6.52173 6.52173H17.3913V17.3913H6.52173V6.52173ZM6.52173 19.5652H17.3913V30.4348H6.52173V19.5652ZM6.52173 43.4783V32.6087H17.3913V43.4783H6.52173ZM19.5652 43.4783V32.6087H30.4348V43.4783H19.5652ZM43.4783 43.4783H32.6087V32.6087H43.4783V43.4783ZM43.4783 30.4348H32.6087V19.5652H43.4783V30.4348Z" fill="#455A64"/>
<path d="M5.43489 50C4.83458 50 4.3479 49.5133 4.3479 48.913V1.08699C4.348 0.486684 4.83458 0 5.43489 0C6.0352 0 6.52188 0.486684 6.52188 1.08699V48.913C6.52188 49.5133 6.0352 50 5.43489 50Z" fill="#F98731"/>
<path d="M18.4782 50C17.8779 50 17.3912 49.5133 17.3912 48.913V1.08699C17.3913 0.486684 17.8779 0 18.4782 0C19.0785 0 19.5652 0.486684 19.5652 1.08699V48.913C19.5652 49.5133 19.0785 50 18.4782 50Z" fill="#F98731"/>
<path d="M31.5216 50C30.9213 50 30.4346 49.5133 30.4346 48.913V1.08699C30.4347 0.486684 30.9213 0 31.5216 0C32.1219 0 32.6086 0.486684 32.6086 1.08699V48.913C32.6086 49.5133 32.1219 50 31.5216 50Z" fill="#F98731"/>
<path d="M44.5651 50C43.9648 50 43.4781 49.5133 43.4781 48.913V1.08699C43.4783 0.486684 43.9648 0 44.5651 0C45.1654 0 45.6521 0.486684 45.6521 1.08699V48.913C45.6521 49.5133 45.1654 50 44.5651 50Z" fill="#F98731"/>
<path d="M48.913 45.6521H1.08699C0.486684 45.6521 0 45.1655 0 44.5652C0 43.9649 0.486684 43.4782 1.08699 43.4782H48.913C49.5133 43.4782 50 43.9649 50 44.5652C50 45.1655 49.5133 45.6521 48.913 45.6521Z" fill="#F98731"/>
<path d="M48.913 32.6087H1.08699C0.486684 32.6087 0 32.122 0 31.5217C0 30.9214 0.486684 30.4347 1.08699 30.4347H48.913C49.5133 30.4347 50 30.9214 50 31.5217C50 32.122 49.5133 32.6087 48.913 32.6087Z" fill="#F98731"/>
<path d="M48.913 19.5652H1.08699C0.486684 19.5652 0 19.0785 0 18.4782C0 17.8779 0.486684 17.3912 1.08699 17.3912H48.913C49.5133 17.3912 50 17.8779 50 18.4782C50 19.0785 49.5133 19.5652 48.913 19.5652Z" fill="#F98731"/>
<path d="M48.913 6.52174H1.08699C0.486684 6.52174 0 6.03505 0 5.43475C0 4.83444 0.486684 4.34776 1.08699 4.34776H48.913C49.5133 4.34776 50 4.83444 50 5.43475C50 6.03505 49.5133 6.52174 48.913 6.52174Z" fill="#F98731"/>
</svg>
