<svg width="883" height="224" viewBox="0 0 883 224" fill="none" xmlns="http://www.w3.org/2000/svg">
<path d="M564.98 219H570.634C573.516 219 576.024 217.592 576.024 214.468C576.024 212.884 575.21 211.3 573.494 210.794V210.75C574.682 210.112 575.386 208.858 575.386 207.406C575.386 204.832 573.384 203.38 570.568 203.38H564.98V219ZM567.818 209.76V205.822H570.524C571.844 205.822 572.504 206.636 572.504 207.758C572.504 208.88 571.8 209.76 570.568 209.76H567.818ZM567.818 216.558V212.048H570.854C572.284 212.048 573.12 212.994 573.12 214.292C573.12 215.612 572.306 216.558 570.854 216.558H567.818ZM578.655 219H581.449V214.556C581.449 213.896 581.515 213.28 581.691 212.73C582.219 211.058 583.561 210.376 584.749 210.376C585.123 210.376 585.409 210.42 585.409 210.42V207.67C585.409 207.67 585.167 207.626 584.903 207.626C583.187 207.626 581.845 208.902 581.339 210.508H581.295C581.295 210.508 581.339 210.134 581.339 209.716V207.78H578.655V219ZM586.346 215.766C586.346 218.01 588.15 219.264 590.152 219.264C592.704 219.264 593.584 217.284 593.562 217.284H593.606C593.606 217.284 593.562 217.636 593.562 218.076V219H596.136V211.982C596.136 209.144 594.42 207.516 591.472 207.516C588.81 207.516 587.072 208.902 587.072 208.902L588.128 210.904C588.128 210.904 589.602 209.826 591.208 209.826C592.44 209.826 593.364 210.332 593.364 211.806V211.96H592.99C591.164 211.96 586.346 212.202 586.346 215.766ZM589.162 215.634C589.162 214.072 591.472 213.874 592.902 213.874H593.386V214.138C593.386 215.502 592.33 217.086 590.856 217.086C589.712 217.086 589.162 216.382 589.162 215.634ZM599.044 219H601.838V213.852C601.838 213.324 601.882 212.818 602.036 212.356C602.454 211.014 603.554 210.068 605.05 210.068C606.48 210.068 606.832 210.992 606.832 212.356V219H609.604V211.784C609.604 208.814 608.196 207.516 605.71 207.516C603.444 207.516 602.212 208.902 601.728 209.848H601.684C601.684 209.848 601.728 209.496 601.728 209.078V207.78H599.044V219ZM611.766 213.39C611.766 216.866 613.702 219.264 616.738 219.264C619.312 219.264 620.258 217.35 620.258 217.35H620.302C620.302 217.35 620.258 217.658 620.258 218.076V219H622.898V203.38H620.104V208.308C620.104 208.66 620.126 208.946 620.126 208.946H620.082C620.082 208.946 619.312 207.516 616.848 207.516C613.878 207.516 611.766 209.826 611.766 213.39ZM614.582 213.39C614.582 211.168 615.858 209.914 617.398 209.914C619.268 209.914 620.192 211.63 620.192 213.368C620.192 215.854 618.828 216.91 617.376 216.91C615.726 216.91 614.582 215.524 614.582 213.39ZM631.775 219H634.613V210.002C634.613 209.078 634.459 207.582 634.459 207.582H634.503C634.503 207.582 635.207 209.1 635.801 210.002L641.719 219H644.535V203.38H641.719V212.4C641.719 213.324 641.873 214.82 641.873 214.82H641.829C641.829 214.82 641.125 213.302 640.531 212.4L634.613 203.38H631.775V219ZM647.104 215.766C647.104 218.01 648.908 219.264 650.91 219.264C653.462 219.264 654.342 217.284 654.32 217.284H654.364C654.364 217.284 654.32 217.636 654.32 218.076V219H656.894V211.982C656.894 209.144 655.178 207.516 652.23 207.516C649.568 207.516 647.83 208.902 647.83 208.902L648.886 210.904C648.886 210.904 650.36 209.826 651.966 209.826C653.198 209.826 654.122 210.332 654.122 211.806V211.96H653.748C651.922 211.96 647.104 212.202 647.104 215.766ZM649.92 215.634C649.92 214.072 652.23 213.874 653.66 213.874H654.144V214.138C654.144 215.502 653.088 217.086 651.614 217.086C650.47 217.086 649.92 216.382 649.92 215.634ZM659.802 219H662.596V214.072C662.596 213.566 662.618 213.06 662.728 212.642C663.08 211.212 664.026 210.068 665.478 210.068C666.798 210.068 666.996 211.102 666.996 212.312V219H669.79V214.072C669.79 213.544 669.812 213.06 669.922 212.62C670.252 211.212 671.198 210.068 672.628 210.068C673.926 210.068 674.168 211.036 674.168 212.312V219H676.962V211.784C676.962 208.836 675.62 207.516 673.288 207.516C671.528 207.516 670.076 208.616 669.46 209.826H669.416C668.954 208.308 667.854 207.516 666.138 207.516C664.378 207.516 663.036 208.748 662.486 209.848H662.442C662.442 209.848 662.486 209.496 662.486 209.078V207.78H659.802V219ZM679.098 213.39C679.098 216.58 681.408 219.264 685.126 219.264C687.92 219.264 689.636 217.658 689.636 217.658L688.558 215.656C688.558 215.656 687.128 216.888 685.324 216.888C683.652 216.888 682.134 215.876 681.958 213.918H689.702C689.702 213.918 689.768 213.17 689.768 212.84C689.768 209.87 688.03 207.516 684.796 207.516C681.452 207.516 679.098 209.936 679.098 213.39ZM682.046 212.004C682.31 210.552 683.3 209.672 684.73 209.672C685.962 209.672 686.908 210.486 686.952 212.004H682.046Z" fill="#404040"/>
<path d="M813.385 219H816.223V205.822H821.349V203.38H808.259V205.822H813.385V219ZM820.603 215.766C820.603 218.01 822.407 219.264 824.409 219.264C826.961 219.264 827.841 217.284 827.819 217.284H827.863C827.863 217.284 827.819 217.636 827.819 218.076V219H830.393V211.982C830.393 209.144 828.677 207.516 825.729 207.516C823.067 207.516 821.329 208.902 821.329 208.902L822.385 210.904C822.385 210.904 823.859 209.826 825.465 209.826C826.697 209.826 827.621 210.332 827.621 211.806V211.96H827.247C825.421 211.96 820.603 212.202 820.603 215.766ZM823.419 215.634C823.419 214.072 825.729 213.874 827.159 213.874H827.643V214.138C827.643 215.502 826.587 217.086 825.113 217.086C823.969 217.086 823.419 216.382 823.419 215.634ZM834.445 220.518L833.609 222.652C834.687 223.224 836.183 223.62 837.591 223.62C840.517 223.62 843.509 222.168 843.509 218.318V207.78H840.891V208.638C840.891 208.814 840.913 208.946 840.913 208.946H840.847C840.847 208.946 839.967 207.516 837.525 207.516C834.291 207.516 832.553 210.024 832.553 213.104C832.553 216.184 834.379 218.78 837.591 218.78C839.087 218.78 840.055 218.252 840.715 217.262H840.759C840.759 217.262 840.715 217.592 840.715 217.856V218.516C840.715 220.518 839.263 221.244 837.547 221.244C835.853 221.244 834.445 220.518 834.445 220.518ZM838.185 216.426C836.381 216.426 835.369 214.974 835.369 213.016C835.369 211.124 836.315 209.892 838.009 209.892C839.527 209.892 840.781 210.574 840.781 213.126C840.781 215.656 839.527 216.426 838.185 216.426ZM846.424 215.502C846.424 218.714 848.338 219.11 849.878 219.11C850.34 219.11 850.758 219.044 850.758 219.044V216.602C850.758 216.602 850.56 216.624 850.34 216.624C849.614 216.624 849.196 216.316 849.196 215.084V203.38H846.424V215.502ZM852.83 205.866H855.602V203.38H852.83V205.866ZM852.83 219H855.624V207.78H852.83V219ZM858.695 219H861.489V213.852C861.489 213.324 861.533 212.818 861.687 212.356C862.105 211.014 863.205 210.068 864.701 210.068C866.131 210.068 866.483 210.992 866.483 212.356V219H869.255V211.784C869.255 208.814 867.847 207.516 865.361 207.516C863.095 207.516 861.863 208.902 861.379 209.848H861.335C861.335 209.848 861.379 209.496 861.379 209.078V207.78H858.695V219ZM871.395 213.39C871.395 216.58 873.705 219.264 877.423 219.264C880.217 219.264 881.933 217.658 881.933 217.658L880.855 215.656C880.855 215.656 879.425 216.888 877.621 216.888C875.949 216.888 874.431 215.876 874.255 213.918H881.999C881.999 213.918 882.065 213.17 882.065 212.84C882.065 209.87 880.327 207.516 877.093 207.516C873.749 207.516 871.395 209.936 871.395 213.39ZM874.343 212.004C874.607 210.552 875.597 209.672 877.027 209.672C878.259 209.672 879.205 210.486 879.249 212.004H874.343Z" fill="#404040"/>
<path d="M321.929 217.218C321.929 217.218 323.777 219.264 327.077 219.264C330.157 219.264 332.005 217.284 332.005 214.886C332.005 209.848 324.481 210.706 324.481 207.494C324.481 206.262 325.647 205.228 327.297 205.228C329.277 205.228 330.707 206.57 330.707 206.57L331.697 204.766C331.697 204.766 330.179 203.204 327.297 203.204C324.371 203.204 322.281 205.118 322.281 207.538C322.281 212.312 329.805 211.586 329.805 214.952C329.805 216.426 328.573 217.24 327.121 217.24C324.811 217.24 323.161 215.568 323.161 215.568L321.929 217.218ZM333.039 222.938C333.039 222.938 333.941 223.62 335.195 223.62C336.757 223.62 338.121 222.718 338.803 221.002L344.017 207.868H341.707L339.001 215.172C338.803 215.744 338.627 216.492 338.627 216.492H338.583C338.583 216.492 338.385 215.722 338.165 215.15L335.371 207.868H332.973L337.637 218.868L337.087 220.144C336.669 221.156 335.943 221.772 335.085 221.772C334.403 221.772 333.787 221.31 333.787 221.31L333.039 222.938ZM345.816 219H347.95V213.918C347.95 213.412 347.972 212.906 348.082 212.466C348.5 210.882 349.644 209.54 351.272 209.54C352.988 209.54 353.208 210.882 353.208 212.334V219H355.342V213.918C355.342 213.346 355.386 212.84 355.496 212.378C355.892 210.86 357.058 209.54 358.62 209.54C360.292 209.54 360.6 210.772 360.6 212.334V219H362.734V211.872C362.734 209.034 361.568 207.604 359.06 207.604C357.256 207.604 355.716 208.792 355.1 210.134H355.056C354.682 208.462 353.582 207.604 351.712 207.604C349.974 207.604 348.412 208.858 347.884 210.156H347.84C347.84 210.156 347.884 209.782 347.884 209.342V207.868H345.816V219ZM365.925 219H367.949V218.186C367.949 217.702 367.905 217.35 367.905 217.35H367.949C367.949 217.35 368.961 219.264 371.447 219.264C374.373 219.264 376.507 216.976 376.507 213.434C376.507 209.98 374.615 207.604 371.623 207.604C369.005 207.604 368.059 209.496 368.059 209.496H368.015C368.015 209.496 368.059 209.1 368.059 208.55V203.468H365.925V219ZM367.993 213.478C367.993 210.64 369.533 209.474 371.205 209.474C373.053 209.474 374.351 211.036 374.351 213.456C374.351 215.986 372.899 217.438 371.139 217.438C369.027 217.438 367.993 215.458 367.993 213.478ZM378.302 213.412C378.302 216.8 380.986 219.264 384.308 219.264C387.63 219.264 390.314 216.8 390.314 213.412C390.314 210.046 387.63 207.604 384.308 207.604C380.986 207.604 378.302 210.046 378.302 213.412ZM380.48 213.412C380.48 211.102 382.218 209.452 384.308 209.452C386.42 209.452 388.136 211.102 388.136 213.412C388.136 215.744 386.42 217.416 384.308 217.416C382.218 217.416 380.48 215.744 380.48 213.412ZM392.713 215.964C392.713 218.758 394.495 219.088 395.705 219.088C396.079 219.088 396.409 219.044 396.409 219.044V217.152C396.409 217.152 396.233 217.174 396.035 217.174C395.375 217.174 394.847 216.932 394.847 215.59V203.468H392.713V215.964Z" fill="#404040"/>
<path d="M471.928 50.2975C484.07 50.2975 490.087 57.3677 490.087 57.3677L485.692 63.8147C482.105 60.3247 477.318 58.3407 472.314 58.2703C462.569 58.2703 455.488 65.5339 455.488 75.4623C455.488 85.3907 462.569 92.8477 472.594 92.8477C481.577 92.8477 487.508 86.4007 487.508 86.4007L491.236 93.1808C491.236 93.1808 484.542 100.917 471.895 100.917C456.702 100.917 446 90.1722 446 75.602C446.032 61.2466 456.691 50.2975 471.928 50.2975Z" fill="#808285"/>
<path d="M522.387 50.2975C536.817 50.2975 548.476 60.9028 548.476 75.5267C548.476 90.1507 536.817 100.939 522.387 100.939C507.956 100.939 496.298 90.1937 496.298 75.5267C496.298 60.8598 507.956 50.2975 522.387 50.2975ZM522.387 92.9121C531.563 92.9121 539.009 85.6485 539.009 75.5267C539.009 65.405 531.563 58.3347 522.387 58.3347C513.21 58.3347 505.753 65.5017 505.753 75.5267C505.753 85.5518 513.307 92.9121 522.387 92.9121Z" fill="#808285"/>
<path d="M557.522 51.4471H566.473V59.8496C566.473 61.0625 566.412 62.2747 566.29 63.4814H566.473C568.676 56.4112 574.317 50.8776 581.763 50.8776C582.565 50.8828 583.366 50.9438 584.159 51.0602V60.2365C583.28 60.0492 582.383 59.952 581.484 59.9463C575.553 59.9463 570.105 64.1584 567.913 71.3253C567.097 74.149 566.709 77.0792 566.763 80.018V99.7995H557.522V51.4471Z" fill="#808285"/>
<path d="M611.968 50.2975C625.625 50.2975 632.888 60.43 632.888 72.9479C632.888 74.1836 632.609 76.9558 632.609 76.9558H597.344C597.817 87.5611 605.37 92.9121 613.966 92.9121C622.283 92.9121 628.3 87.2818 628.3 87.2818L632.125 94.0619C626.902 98.5134 620.26 100.952 613.397 100.939C598.203 100.939 587.781 89.9573 587.781 75.6234C587.781 60.2366 598.203 50.2975 611.968 50.2975ZM623.433 69.9823C623.143 61.6657 617.985 57.6578 611.774 57.6578C604.704 57.6578 598.966 62.0525 597.634 69.9823H623.433Z" fill="#808285"/>
<path d="M642.258 51.4472H650.757V55.5518C650.757 57.4644 650.574 59.0869 650.574 59.0869H650.757C650.757 59.0869 654.872 50.2975 667.004 50.2975C680.005 50.2975 688.225 60.6234 688.225 75.6234C688.225 91.0103 678.952 100.939 666.337 100.939C663.391 101.031 660.472 100.347 657.873 98.9548C655.274 97.563 653.087 95.5125 651.531 93.0088H651.337C651.473 94.4087 651.537 95.8145 651.531 97.2209V118.894H642.258V51.4472ZM664.908 93.0088C672.548 93.0088 678.877 86.7015 678.877 75.7201C678.877 65.2008 673.236 58.4207 665.209 58.4207C657.945 58.4207 651.241 63.4816 651.241 75.8169C651.241 84.4128 656.011 93.0088 664.908 93.0088Z" fill="#58595B"/>
<path d="M697.111 32.3317H706.373V84.9822C706.373 90.8167 708.672 91.8698 711.531 91.8698C712.076 91.8681 712.622 91.8358 713.164 91.7731V99.9822C712.148 100.107 711.125 100.172 710.102 100.176C704.847 100.176 697.111 98.7466 697.111 86.6047V32.3317Z" fill="#58595B"/>
<path d="M720.428 51.447H729.69V80.3081C729.69 86.9915 731.033 92.3425 738.769 92.3425C748.612 92.3425 754.446 83.6498 754.446 74.076V51.447H763.709V99.7995H754.726V93.3525C754.723 92.1714 754.788 90.9912 754.919 89.8174H754.726C753.127 93.1654 750.605 95.9868 747.456 97.9494C744.307 99.9121 740.664 100.934 736.954 100.896C726.058 100.896 720.428 95.1684 720.428 82.3604V51.447Z" fill="#58595B"/>
<path d="M776.893 87.2818C780.65 90.8136 785.587 92.8207 790.743 92.9121C794.762 92.9121 798.77 90.7631 798.77 86.895C798.77 78.0088 773.927 79.8247 773.927 64.0618C773.927 55.2724 781.76 50.2975 791.409 50.2975C802.025 50.2975 806.99 55.67 806.99 55.67L803.261 62.6435C799.95 59.7837 795.697 58.2524 791.323 58.3455C787.305 58.3455 783.383 60.0647 783.383 64.2767C783.383 72.9694 808.236 71.0568 808.236 86.9164C808.236 94.943 801.348 100.96 790.743 100.96C783.94 101.094 777.355 98.5559 772.401 93.8899L776.893 87.2818Z" fill="#58595B"/>
<path d="M647.54 139.476C649.737 139.476 651.545 137.617 651.545 134.444C651.545 131.271 649.932 129.437 647.644 129.437C645.563 129.437 643.612 130.933 643.612 134.47C643.612 136.979 645.004 139.476 647.579 139.476H647.54ZM642 128.202H643.612V129.411C643.63 129.736 643.63 130.061 643.612 130.386C644.008 129.596 644.627 128.94 645.392 128.499C646.157 128.057 647.035 127.85 647.917 127.903C651.272 127.903 653.352 130.581 653.352 134.405C653.352 138.228 650.999 140.907 647.774 140.907C646.939 140.931 646.114 140.72 645.392 140.3C644.671 139.879 644.081 139.265 643.69 138.527C643.709 138.891 643.709 139.255 643.69 139.619V145.601H642V128.202Z" fill="#808285"/>
<path d="M656.525 128.201H658.19V130.412C658.207 130.741 658.207 131.071 658.19 131.4C658.388 130.497 658.876 129.683 659.581 129.084C660.286 128.485 661.168 128.134 662.091 128.084C662.314 128.087 662.535 128.109 662.754 128.149V129.814C662.546 129.798 662.338 129.798 662.13 129.814C661.258 129.883 660.432 130.236 659.78 130.818C659.127 131.4 658.683 132.18 658.515 133.039C658.282 133.828 658.168 134.648 658.177 135.471V140.672H656.486L656.525 128.201Z" fill="#808285"/>
<path d="M668.84 139.528C671.22 139.528 672.65 137.044 672.65 134.898V134.352H671.909C669.945 134.352 666.031 134.417 666.031 137.174C666.047 137.516 666.133 137.851 666.283 138.158C666.434 138.465 666.647 138.738 666.909 138.959C667.17 139.18 667.474 139.344 667.802 139.442C668.13 139.54 668.474 139.569 668.814 139.528H668.84ZM671.935 132.961H672.624V132.597C672.694 132.169 672.663 131.731 672.534 131.317C672.406 130.903 672.182 130.524 671.882 130.211C671.582 129.899 671.213 129.66 670.805 129.514C670.396 129.368 669.96 129.32 669.529 129.372C668.262 129.391 667.034 129.81 666.018 130.568L665.225 129.268C666.502 128.311 668.064 127.812 669.659 127.85C672.65 127.85 674.315 129.515 674.315 132.636V140.62H672.702V139.255C672.683 138.908 672.683 138.561 672.702 138.214C672.348 139.021 671.765 139.706 671.026 140.185C670.286 140.663 669.422 140.914 668.541 140.906C666.46 140.906 664.302 139.697 664.302 137.226C664.302 133.013 669.776 132.909 671.935 132.909" fill="#808285"/>
<path d="M683.899 127.902C684.741 127.872 685.58 128.015 686.365 128.321C687.15 128.628 687.864 129.091 688.463 129.684L687.592 130.984C686.621 130.026 685.316 129.48 683.951 129.463C683.297 129.451 682.648 129.574 682.043 129.824C681.438 130.073 680.891 130.444 680.435 130.913C679.98 131.382 679.625 131.94 679.393 132.552C679.161 133.163 679.057 133.816 679.087 134.469C679.064 135.125 679.175 135.779 679.413 136.391C679.651 137.003 680.01 137.56 680.47 138.028C680.93 138.496 681.48 138.866 682.088 139.115C682.695 139.364 683.347 139.487 684.003 139.476C684.751 139.471 685.49 139.312 686.174 139.01C686.859 138.708 687.474 138.269 687.982 137.72L688.749 139.021C688.115 139.657 687.358 140.159 686.524 140.494C685.691 140.829 684.797 140.992 683.899 140.971C682.175 140.971 680.521 140.286 679.301 139.067C678.082 137.848 677.397 136.194 677.397 134.469C677.397 132.745 678.082 131.091 679.301 129.872C680.521 128.652 682.175 127.967 683.899 127.967" fill="#808285"/>
<path d="M692.3 129.762H690.661V128.358H692.326V124.795H694.016V128.397H697.137V129.801H694.016V136.004C694.016 138.917 695.876 139.294 696.812 139.294C697.002 139.314 697.194 139.314 697.384 139.294V140.802C697.146 140.823 696.907 140.823 696.669 140.802C695.239 140.802 692.339 140.334 692.339 136.173L692.3 129.762Z" fill="#808285"/>
<path d="M700.128 128.202H701.819V140.659H700.128V128.202ZM700.128 123.247H701.819V125.354H700.063L700.128 123.247Z" fill="#808285"/>
<path d="M711.545 127.902C712.387 127.872 713.226 128.015 714.011 128.321C714.796 128.628 715.51 129.091 716.109 129.684L715.238 130.984C714.267 130.026 712.962 129.48 711.597 129.463C710.269 129.463 708.996 129.99 708.057 130.929C707.118 131.868 706.59 133.141 706.59 134.469C706.59 135.797 707.118 137.071 708.057 138.009C708.996 138.948 710.269 139.476 711.597 139.476C712.347 139.472 713.088 139.314 713.775 139.012C714.461 138.71 715.079 138.27 715.589 137.72L716.356 139.021C715.722 139.657 714.965 140.159 714.131 140.494C713.298 140.829 712.404 140.992 711.506 140.971C709.781 140.971 708.128 140.286 706.908 139.067C705.689 137.848 705.004 136.194 705.004 134.469C705.004 132.745 705.689 131.091 706.908 129.872C708.128 128.652 709.781 127.967 711.506 127.967" fill="#808285"/>
<path d="M728.242 133.13C728.138 130.529 726.552 129.32 724.692 129.32C723.63 129.298 722.599 129.679 721.806 130.386C721.013 131.092 720.515 132.072 720.414 133.13H728.242ZM724.744 127.928C728.19 127.928 729.946 130.529 729.946 133.676C729.946 133.975 729.946 134.547 729.946 134.547H720.388C720.355 135.195 720.457 135.843 720.688 136.45C720.918 137.057 721.272 137.609 721.726 138.072C722.181 138.535 722.726 138.899 723.329 139.141C723.931 139.382 724.577 139.496 725.225 139.476C726.628 139.448 727.973 138.912 729.01 137.967L729.777 139.268C728.496 140.371 726.864 140.984 725.173 140.997C724.312 141.026 723.453 140.878 722.651 140.561C721.849 140.245 721.121 139.767 720.511 139.157C719.902 138.548 719.424 137.819 719.107 137.017C718.791 136.215 718.643 135.357 718.671 134.495C718.614 133.657 718.731 132.817 719.014 132.026C719.297 131.235 719.741 130.512 720.318 129.901C720.894 129.29 721.591 128.806 722.364 128.477C723.137 128.149 723.97 127.984 724.809 127.993" fill="#808285"/>
<path d="M739.829 123.247H741.52V129.996C741.537 130.334 741.537 130.673 741.52 131.01C741.956 130.069 742.657 129.276 743.537 128.726C744.416 128.177 745.437 127.895 746.474 127.916C749.543 127.916 750.635 129.684 750.635 132.753V140.685H748.945V133.195C748.945 131.245 748.659 129.502 746.253 129.502C745.212 129.514 744.204 129.868 743.384 130.51C742.563 131.151 741.977 132.045 741.715 133.052C741.568 133.59 741.502 134.146 741.52 134.704V140.685H739.829V123.247Z" fill="#808285"/>
<path d="M758.009 139.528C760.388 139.528 761.832 137.044 761.832 134.898V134.352H761.117C759.153 134.352 755.239 134.417 755.239 137.174C755.254 137.515 755.34 137.849 755.49 138.155C755.64 138.461 755.852 138.733 756.112 138.954C756.371 139.174 756.674 139.339 757 139.438C757.327 139.537 757.67 139.567 758.009 139.528ZM761.13 132.961H761.832V132.597C761.901 132.169 761.871 131.731 761.742 131.317C761.613 130.903 761.39 130.524 761.09 130.212C760.789 129.899 760.421 129.66 760.012 129.514C759.604 129.369 759.167 129.32 758.737 129.372C757.466 129.393 756.234 129.811 755.213 130.568L754.42 129.268C755.698 128.314 757.259 127.815 758.854 127.85C761.858 127.85 763.509 129.515 763.509 132.636V140.62H761.91V139.255C761.91 138.631 761.91 138.214 761.91 138.214C761.555 139.023 760.97 139.71 760.228 140.189C759.485 140.667 758.619 140.917 757.736 140.906C755.655 140.906 753.509 139.697 753.509 137.226C753.509 133.013 758.984 132.909 761.13 132.909" fill="#808285"/>
<path d="M773.002 139.476C775.212 139.476 777.02 137.616 777.02 134.443C777.02 131.271 775.407 129.437 773.119 129.437C771.038 129.437 769.075 130.932 769.075 134.469C769.075 136.979 770.466 139.476 773.041 139.476H773.002ZM767.436 128.202H769.049V129.411C769.066 129.736 769.066 130.061 769.049 130.386C769.446 129.595 770.067 128.938 770.835 128.497C771.602 128.055 772.482 127.849 773.366 127.902C776.708 127.902 778.788 130.581 778.788 134.404C778.788 138.228 776.435 140.906 773.21 140.906C772.375 140.928 771.552 140.716 770.831 140.296C770.109 139.876 769.519 139.263 769.127 138.527C769.145 138.891 769.145 139.255 769.127 139.619V145.601H767.436V128.202Z" fill="#808285"/>
<path d="M787.644 139.476C789.842 139.476 791.663 137.616 791.663 134.443C791.663 131.271 790.05 129.437 787.761 129.437C785.681 129.437 783.717 130.932 783.717 134.469C783.717 136.979 785.109 139.476 787.618 139.476H787.644ZM782.014 128.202H783.626V129.411C783.644 129.736 783.644 130.061 783.626 130.386C784.024 129.595 784.645 128.938 785.412 128.497C786.18 128.055 787.06 127.849 787.943 127.902C791.285 127.902 793.366 130.581 793.366 134.404C793.366 138.228 791.012 140.906 787.787 140.906C786.965 140.925 786.153 140.718 785.44 140.308C784.727 139.897 784.14 139.299 783.743 138.579C783.762 138.943 783.762 139.307 783.743 139.671V145.601H782.053L782.014 128.202Z" fill="#808285"/>
<path d="M795.368 143.793C795.795 144.124 796.312 144.319 796.851 144.352C797.943 144.352 798.71 143.468 799.204 142.324L799.972 140.568L794.77 128.201H796.63L800.297 137.304C800.544 137.928 800.739 138.605 800.739 138.605C800.86 138.164 801.003 137.73 801.168 137.304L804.757 128.201H806.591L800.44 143.273C800.186 144.026 799.704 144.68 799.061 145.147C798.417 145.613 797.645 145.867 796.851 145.874C796.062 145.865 795.297 145.605 794.666 145.133L795.368 143.793Z" fill="#808285"/>
<path d="M427.709 50.7271H378.014L406.488 100.025L427.709 50.7271Z" fill="url(#paint0_linear)"/>
<path d="M406.488 100.036V38.1233L377.616 50.0395L406.488 100.036Z" fill="#FDC17B"/>
<path d="M377.615 50.0181L406.487 100.036H348.744L377.615 50.0181Z" fill="#F68A33"/>
<path d="M348.755 0.0108032L377.616 50.0073H319.883L348.755 0.0108032Z" fill="#FFCB3B"/>
<path d="M319.872 50.0073H377.626L348.743 100.036L319.872 50.0073Z" fill="#E4018B"/>
<path d="M322.171 53.9614L322.161 53.9721V53.9614H322.171Z" fill="#E51E25"/>
<path d="M348.754 0L319.883 50.0072L291 0H348.754Z" fill="#FFF68F"/>
<path d="M336.333 78.5245L348.744 100.004H291L319.872 50.0073L336.333 78.5245Z" fill="#60C5BA"/>
<path d="M291 100.004H348.744L319.872 150L291 100.004Z" fill="#B0DFE3"/>
<path d="M1.98 219H11.572V216.558H4.818V203.38H1.98V219ZM13.3994 205.866H16.1714V203.38H13.3994V205.866ZM13.3994 219H16.1934V207.78H13.3994V219ZM21.7946 219H25.0946L29.1206 207.78H26.1726L23.8406 214.732C23.6206 215.392 23.4666 216.426 23.4446 216.426H23.4006C23.3786 216.426 23.2246 215.392 23.0046 214.732L20.6726 207.78H17.7246L21.7946 219ZM29.8808 213.39C29.8808 216.58 32.1908 219.264 35.9088 219.264C38.7028 219.264 40.4188 217.658 40.4188 217.658L39.3408 215.656C39.3408 215.656 37.9108 216.888 36.1068 216.888C34.4348 216.888 32.9168 215.876 32.7408 213.918H40.4848C40.4848 213.918 40.5508 213.17 40.5508 212.84C40.5508 209.87 38.8128 207.516 35.5788 207.516C32.2348 207.516 29.8808 209.936 29.8808 213.39ZM32.8288 212.004C33.0928 210.552 34.0828 209.672 35.5128 209.672C36.7448 209.672 37.6908 210.486 37.7348 212.004H32.8288ZM47.4561 217.13C47.4561 217.13 49.3701 219.264 52.8461 219.264C56.1021 219.264 57.9941 217.174 57.9941 214.688C57.9941 209.694 50.6461 210.376 50.6461 207.604C50.6461 206.504 51.6801 205.734 53.0001 205.734C54.9581 205.734 56.4541 207.098 56.4541 207.098L57.6861 204.788C57.6861 204.788 56.1021 203.116 53.0221 203.116C50.0301 203.116 47.7861 205.052 47.7861 207.648C47.7861 212.444 55.1561 211.96 55.1561 214.754C55.1561 216.03 54.0781 216.646 52.8901 216.646C50.6901 216.646 48.9961 214.996 48.9961 214.996L47.4561 217.13ZM60.8697 214.886C60.8697 218.648 63.9717 219.11 65.5337 219.11C66.0617 219.11 66.3917 219.044 66.3917 219.044V216.602C66.3917 216.602 66.1937 216.646 65.8857 216.646C65.1157 216.646 63.6637 216.382 63.6637 214.534V210.178H66.2157V207.956H63.6637V204.722H60.9357V207.956H59.4177V210.178H60.8697V214.886ZM68.6787 219H71.4727V214.556C71.4727 213.896 71.5387 213.28 71.7147 212.73C72.2427 211.058 73.5847 210.376 74.7727 210.376C75.1467 210.376 75.4327 210.42 75.4327 210.42V207.67C75.4327 207.67 75.1907 207.626 74.9267 207.626C73.2107 207.626 71.8687 208.902 71.3627 210.508H71.3187C71.3187 210.508 71.3627 210.134 71.3627 209.716V207.78H68.6787V219ZM76.5234 213.39C76.5234 216.58 78.8334 219.264 82.5514 219.264C85.3454 219.264 87.0614 217.658 87.0614 217.658L85.9834 215.656C85.9834 215.656 84.5534 216.888 82.7494 216.888C81.0774 216.888 79.5594 215.876 79.3834 213.918H87.1274C87.1274 213.918 87.1934 213.17 87.1934 212.84C87.1934 209.87 85.4554 207.516 82.2214 207.516C78.8774 207.516 76.5234 209.936 76.5234 213.39ZM79.4714 212.004C79.7354 210.552 80.7254 209.672 82.1554 209.672C83.3874 209.672 84.3334 210.486 84.3774 212.004H79.4714ZM88.705 213.39C88.705 216.58 91.015 219.264 94.733 219.264C97.527 219.264 99.243 217.658 99.243 217.658L98.165 215.656C98.165 215.656 96.735 216.888 94.931 216.888C93.259 216.888 91.741 215.876 91.565 213.918H99.309C99.309 213.918 99.375 213.17 99.375 212.84C99.375 209.87 97.637 207.516 94.403 207.516C91.059 207.516 88.705 209.936 88.705 213.39ZM91.653 212.004C91.917 210.552 92.907 209.672 94.337 209.672C95.569 209.672 96.515 210.486 96.559 212.004H91.653ZM101.679 219H104.473V214.072C104.473 213.566 104.495 213.06 104.605 212.642C104.957 211.212 105.903 210.068 107.355 210.068C108.675 210.068 108.873 211.102 108.873 212.312V219H111.667V214.072C111.667 213.544 111.689 213.06 111.799 212.62C112.129 211.212 113.075 210.068 114.505 210.068C115.803 210.068 116.045 211.036 116.045 212.312V219H118.839V211.784C118.839 208.836 117.497 207.516 115.165 207.516C113.405 207.516 111.953 208.616 111.337 209.826H111.293C110.831 208.308 109.731 207.516 108.015 207.516C106.255 207.516 104.913 208.748 104.363 209.848H104.319C104.319 209.848 104.363 209.496 104.363 209.078V207.78H101.679V219Z" fill="#404040"/>
<circle cx="75" cy="75" r="74" stroke="#F47424" stroke-width="2"/>
<path d="M142.367 61.5817H102.61L125.39 101.02L142.367 61.5817Z" fill="url(#paint1_linear)"/>
<path d="M125.388 101.029V51.4987L102.291 61.0316L125.388 101.029Z" fill="#FDC17B"/>
<path d="M102.292 61.0142L125.39 101.029H79.1948L102.292 61.0142Z" fill="#F68A33"/>
<path d="M79.2029 21.0085L102.292 61.0056H56.1055L79.2029 21.0085Z" fill="#FFCB3B"/>
<path d="M56.0952 61.0058H102.299L79.1926 101.029L56.0952 61.0058Z" fill="#E4018B"/>
<path d="M57.9367 64.1689L57.9282 64.1774V64.1689H57.9367Z" fill="#E51E25"/>
<path d="M79.2044 21L56.107 61.0057L33.001 21H79.2044Z" fill="#FFF68F"/>
<path d="M69.266 83.8195L79.1943 101.003H32.9995L56.0969 61.0058L69.266 83.8195Z" fill="#60C5BA"/>
<path d="M32.9995 101.003H79.1943L56.0969 141L32.9995 101.003Z" fill="#B0DFE3"/>
<defs>
<linearGradient id="paint0_linear" x1="5060.83" y1="3508.99" x2="6777.82" y2="2510.1" gradientUnits="userSpaceOnUse">
<stop offset="0.24" stop-color="#BCBEC0"/>
<stop offset="1" stop-color="#E6E7E8"/>
</linearGradient>
<linearGradient id="paint1_linear" x1="3848.86" y1="2828.18" x2="5222.45" y2="2029.07" gradientUnits="userSpaceOnUse">
<stop offset="0.24" stop-color="#BCBEC0"/>
<stop offset="1" stop-color="#E6E7E8"/>
</linearGradient>
</defs>
</svg>
