<svg width="431" height="266" viewBox="0 0 431 266" fill="none" xmlns="http://www.w3.org/2000/svg">
<rect width="266" height="266" fill="#ED135D"/>
<path d="M290.728 64H292.51V58.942H295.228L297.91 64H299.926L297.226 59.068C296.992 58.654 296.848 58.492 296.848 58.492V58.456C298.234 58.006 299.134 56.638 299.134 55.018C299.134 53.344 298.288 52.066 296.992 51.58C296.506 51.4 295.948 51.292 294.616 51.292H290.728V64ZM292.51 57.394V52.84H294.562C295.552 52.84 295.966 52.948 296.308 53.128C296.956 53.488 297.316 54.154 297.316 55.09C297.316 56.512 296.452 57.394 295.066 57.394H292.51ZM301.413 57.628C301.413 61.516 304.239 64.216 307.659 64.216C310.179 64.216 311.565 62.668 311.565 62.668H311.601C311.601 62.668 311.583 62.938 311.583 63.208V64H313.149V57.61H309.459V59.158H311.529V60.994C311.529 60.994 310.125 62.578 307.929 62.578C305.265 62.578 303.249 60.544 303.249 57.592C303.249 54.874 305.049 52.696 308.037 52.696C310.197 52.696 311.619 53.938 311.619 53.938L312.519 52.606C312.519 52.606 310.935 51.076 307.893 51.076C304.185 51.076 301.413 53.956 301.413 57.628ZM315.935 64H320.489C322.721 64 324.575 62.776 324.575 60.382C324.575 58.96 323.819 57.7 322.487 57.304V57.268C323.459 56.764 324.071 55.774 324.071 54.532C324.071 52.48 322.523 51.292 320.381 51.292H315.935V64ZM317.717 56.638V52.84H320.345C321.569 52.84 322.253 53.596 322.253 54.712C322.253 55.828 321.533 56.638 320.381 56.638H317.717ZM317.717 62.452V58.114H320.561C321.893 58.114 322.757 58.996 322.757 60.292C322.757 61.588 321.947 62.452 320.579 62.452H317.717Z" fill="#404040"/>
<path d="M289.864 111.574C289.864 115.3 292.546 118.216 296.362 118.216C299.548 118.216 301.294 116.2 301.294 116.2L300.34 114.922C300.34 114.922 298.81 116.578 296.416 116.578C293.59 116.578 291.7 114.274 291.7 111.556C291.7 108.856 293.554 106.696 296.398 106.696C298.594 106.696 300.07 108.082 300.07 108.082L300.952 106.75C300.952 106.75 299.386 105.076 296.326 105.076C292.636 105.076 289.864 107.884 289.864 111.574ZM303.322 118H305.104L305.716 109.99C305.77 109.216 305.752 108.082 305.752 108.082H305.788C305.788 108.082 306.184 109.306 306.472 109.99L308.992 115.714H310.576L313.114 109.99C313.42 109.288 313.798 108.118 313.798 108.118H313.834C313.834 108.118 313.798 109.216 313.852 109.99L314.482 118H316.246L315.22 105.292H313.348L310.432 112.168C310.144 112.87 309.802 113.878 309.802 113.878H309.766C309.766 113.878 309.424 112.87 309.136 112.168L306.22 105.292H304.348L303.322 118ZM321.816 118H323.598V112.618L327.846 105.292H325.83L323.508 109.468C323.112 110.188 322.734 111.07 322.734 111.07H322.698C322.698 111.07 322.32 110.17 321.924 109.468L319.566 105.292H317.55L321.816 112.618V118ZM329.716 118H331.498V112.168H333.388L336.772 118H338.788L334.864 111.358V111.322L338.554 105.292H336.592L333.388 110.638H331.498V105.292H329.716V118Z" fill="#404040"/>
<path d="M290.728 164H292.51V158.42H299.098V164H300.88V151.292H299.098V156.872H292.51V151.292H290.728V164ZM304.333 164H312.019V162.452H306.115V158.366H310.669V156.818H306.115V152.84H311.713V151.292H304.333V164ZM313.32 164H315.318L317.622 160.094C318.036 159.392 318.378 158.636 318.378 158.636H318.414C318.414 158.636 318.81 159.374 319.224 160.094L321.528 164H323.544L319.53 157.448L323.292 151.292H321.24L319.242 154.73C318.828 155.432 318.468 156.242 318.468 156.242H318.432C318.432 156.242 318.018 155.414 317.622 154.73L315.624 151.292H313.572L317.334 157.448L313.32 164Z" fill="#404040"/>
<path d="M290.728 214H292.51V209.302H295.372C297.694 209.302 299.368 207.682 299.368 205.27C299.368 202.858 297.694 201.292 295.372 201.292H290.728V214ZM292.51 207.754V202.84H295.102C296.614 202.84 297.55 203.74 297.55 205.27C297.55 206.8 296.614 207.754 295.084 207.754H292.51ZM301.266 214H303.048L303.66 205.99C303.714 205.216 303.696 204.082 303.696 204.082H303.732C303.732 204.082 304.128 205.306 304.416 205.99L306.936 211.714H308.52L311.058 205.99C311.364 205.288 311.742 204.118 311.742 204.118H311.778C311.778 204.118 311.742 205.216 311.796 205.99L312.426 214H314.19L313.164 201.292H311.292L308.376 208.168C308.088 208.87 307.746 209.878 307.746 209.878H307.71C307.71 209.878 307.368 208.87 307.08 208.168L304.164 201.292H302.292L301.266 214ZM316.281 212.542C316.281 212.542 317.793 214.216 320.493 214.216C323.013 214.216 324.525 212.596 324.525 210.634C324.525 206.512 318.369 207.214 318.369 204.586C318.369 203.578 319.323 202.732 320.673 202.732C322.293 202.732 323.463 203.83 323.463 203.83L324.273 202.354C324.273 202.354 323.031 201.076 320.673 201.076C318.279 201.076 316.569 202.642 316.569 204.622C316.569 208.528 322.725 207.934 322.725 210.688C322.725 211.894 321.717 212.56 320.529 212.56C318.639 212.56 317.289 211.192 317.289 211.192L316.281 212.542Z" fill="#404040"/>
<path d="M352.08 64H360.27V62.452H353.97C354.006 59.554 360.072 58.906 360.072 54.73C360.072 52.534 358.398 51.076 356.058 51.076C353.196 51.076 352.044 53.488 352.044 53.488L353.358 54.37C353.358 54.37 354.258 52.75 355.932 52.75C357.264 52.75 358.218 53.596 358.218 54.856C358.218 57.844 351.99 58.492 351.99 63.028C351.99 63.334 352.026 63.658 352.08 64ZM362.021 62.488C362.021 62.488 363.551 64.216 366.143 64.216C368.753 64.216 370.463 62.308 370.463 60.13C370.463 57.664 368.411 56.584 366.737 56.404L370.193 52.426V51.292H362.597V52.84H366.899C367.601 52.84 367.979 52.786 367.979 52.786V52.822C367.979 52.822 367.601 53.164 367.187 53.65L364.415 56.908L364.829 57.862H365.711C367.277 57.862 368.663 58.636 368.663 60.202C368.663 61.57 367.493 62.524 366.071 62.524C364.235 62.524 362.993 61.138 362.993 61.138L362.021 62.488ZM373.062 64H374.898L380.64 52.516V51.292H372.144V52.84H377.814C378.462 52.84 378.75 52.786 378.75 52.786V52.822C378.75 52.822 378.372 53.272 378.012 53.992L373.062 64ZM386.672 64H393.98V62.452H391.208V51.292H389.624L386.582 54.244L387.662 55.36L388.85 54.19C389.318 53.74 389.462 53.452 389.462 53.452H389.498C389.498 53.452 389.48 53.848 389.48 54.244V62.452H386.672V64ZM398.467 64.216C402.409 64.216 404.191 60.328 404.191 57.07C404.191 53.434 402.139 51.076 399.439 51.076C397.063 51.076 395.353 52.822 395.353 55.324C395.353 57.682 396.955 59.5 399.367 59.5C400.483 59.5 401.653 59.032 402.175 58.312H402.211C401.941 60.418 400.735 62.578 398.395 62.578C397.387 62.578 396.577 62.146 396.577 62.146L396.001 63.694C396.001 63.694 396.955 64.216 398.467 64.216ZM399.727 58.006C398.089 58.006 397.117 56.872 397.117 55.324C397.117 53.848 397.981 52.714 399.457 52.714C401.077 52.714 402.319 54.568 402.319 56.224C402.319 57.124 401.167 58.006 399.727 58.006ZM413.865 64.216C417.807 64.216 419.589 60.328 419.589 57.07C419.589 53.434 417.537 51.076 414.837 51.076C412.461 51.076 410.751 52.822 410.751 55.324C410.751 57.682 412.353 59.5 414.765 59.5C415.881 59.5 417.051 59.032 417.573 58.312H417.609C417.339 60.418 416.133 62.578 413.793 62.578C412.785 62.578 411.975 62.146 411.975 62.146L411.399 63.694C411.399 63.694 412.353 64.216 413.865 64.216ZM415.125 58.006C413.487 58.006 412.515 56.872 412.515 55.324C412.515 53.848 413.379 52.714 414.855 52.714C416.475 52.714 417.717 54.568 417.717 56.224C417.717 57.124 416.565 58.006 415.125 58.006ZM421.365 62.488C421.365 62.488 422.895 64.216 425.487 64.216C428.097 64.216 429.807 62.308 429.807 60.13C429.807 57.664 427.755 56.584 426.081 56.404L429.537 52.426V51.292H421.941V52.84H426.243C426.945 52.84 427.323 52.786 427.323 52.786V52.822C427.323 52.822 426.945 53.164 426.531 53.65L423.759 56.908L424.173 57.862H425.055C426.621 57.862 428.007 58.636 428.007 60.202C428.007 61.57 426.837 62.524 425.415 62.524C423.579 62.524 422.337 61.138 422.337 61.138L421.365 62.488Z" fill="#404040"/>
<path d="M356.616 118.216C360.018 118.216 361.116 115.3 361.116 111.628C361.116 107.974 360.018 105.076 356.616 105.076C353.232 105.076 352.134 107.974 352.134 111.628C352.134 115.3 353.232 118.216 356.616 118.216ZM356.616 116.578C354.546 116.578 353.952 114.4 353.952 111.628C353.952 108.874 354.546 106.714 356.616 106.714C358.704 106.714 359.298 108.874 359.298 111.628C359.298 114.4 358.704 116.578 356.616 116.578ZM370.869 118.216C374.811 118.216 376.593 114.328 376.593 111.07C376.593 107.434 374.541 105.076 371.841 105.076C369.465 105.076 367.755 106.822 367.755 109.324C367.755 111.682 369.357 113.5 371.769 113.5C372.885 113.5 374.055 113.032 374.577 112.312H374.613C374.343 114.418 373.137 116.578 370.797 116.578C369.789 116.578 368.979 116.146 368.979 116.146L368.403 117.694C368.403 117.694 369.357 118.216 370.869 118.216ZM372.129 112.006C370.491 112.006 369.519 110.872 369.519 109.324C369.519 107.848 370.383 106.714 371.859 106.714C373.479 106.714 374.721 108.568 374.721 110.224C374.721 111.124 373.569 112.006 372.129 112.006ZM378.728 118H386.918V116.452H380.618C380.654 113.554 386.72 112.906 386.72 108.73C386.72 106.534 385.046 105.076 382.706 105.076C379.844 105.076 378.692 107.488 378.692 107.488L380.006 108.37C380.006 108.37 380.906 106.75 382.58 106.75C383.912 106.75 384.866 107.596 384.866 108.856C384.866 111.844 378.638 112.492 378.638 117.028C378.638 117.334 378.674 117.658 378.728 118ZM398.386 118.216C400.762 118.216 402.472 116.47 402.472 113.968C402.472 111.61 400.87 109.774 398.458 109.774C397.342 109.774 396.19 110.26 395.65 110.98H395.614C395.884 108.874 397.09 106.714 399.43 106.714C400.438 106.714 401.248 107.128 401.248 107.128L401.824 105.598C401.824 105.598 400.852 105.076 399.358 105.076C395.416 105.076 393.634 108.964 393.634 112.222C393.634 115.84 395.668 118.216 398.386 118.216ZM398.368 116.578C396.748 116.578 395.506 114.724 395.506 113.068C395.506 112.15 396.658 111.286 398.098 111.286C399.718 111.286 400.708 112.42 400.708 113.968C400.708 115.444 399.826 116.578 398.368 116.578ZM404.356 118H411.664V116.452H408.892V105.292H407.308L404.266 108.244L405.346 109.36L406.534 108.19C407.002 107.74 407.146 107.452 407.146 107.452H407.182C407.182 107.452 407.164 107.848 407.164 108.244V116.452H404.356V118ZM418.325 118H420.161L425.903 106.516V105.292H417.407V106.84H423.077C423.725 106.84 424.013 106.786 424.013 106.786V106.822C424.013 106.822 423.635 107.272 423.275 107.992L418.325 118Z" fill="#404040"/>
<path d="M353.538 164H354.996L355.59 160.562H358.38L357.786 164H359.244L359.856 160.562H362.178L362.412 159.23H360.072L360.612 156.206H362.952L363.186 154.892H360.828L361.458 151.292H360L359.37 154.892H356.58L357.21 151.292H355.752L355.122 154.892H352.782L352.566 156.206H354.888L354.366 159.23H352.008L351.792 160.562H354.132L353.538 164ZM355.824 159.23L356.364 156.206H359.154L358.614 159.23H355.824ZM365.648 164H373.334V162.452H367.43V158.366H371.984V156.818H367.43V152.84H373.028V151.292H365.648V164ZM375.966 164H380.178C384.066 164 386.622 161.66 386.622 157.628C386.622 153.614 384.066 151.292 380.178 151.292H375.966V164ZM377.748 162.452V152.84H380.052C382.896 152.84 384.786 154.514 384.786 157.628C384.786 160.76 382.914 162.452 380.052 162.452H377.748ZM388.571 164H395.879V162.452H393.107V151.292H391.523L388.481 154.244L389.561 155.36L390.749 154.19C391.217 153.74 391.361 153.452 391.361 153.452H391.397C391.397 153.452 391.379 153.848 391.379 154.244V162.452H388.571V164ZM397.089 162.488C397.089 162.488 398.619 164.216 401.211 164.216C403.821 164.216 405.531 162.308 405.531 160.13C405.531 157.664 403.479 156.584 401.805 156.404L405.261 152.426V151.292H397.665V152.84H401.967C402.669 152.84 403.047 152.786 403.047 152.786V152.822C403.047 152.822 402.669 153.164 402.255 153.65L399.483 156.908L399.897 157.862H400.779C402.345 157.862 403.731 158.636 403.731 160.202C403.731 161.57 402.561 162.524 401.139 162.524C399.303 162.524 398.061 161.138 398.061 161.138L397.089 162.488ZM407.446 162.452C407.446 162.452 408.724 164.216 411.334 164.216C413.908 164.216 415.834 162.38 415.834 159.932C415.834 157.646 414.088 155.792 411.406 155.792C410.47 155.792 409.768 156.188 409.768 156.188H409.732C409.732 156.188 409.804 155.9 409.822 155.522L410.128 152.84H414.988V151.292H408.58L407.95 157.592L408.976 157.97C408.976 157.97 409.876 157.34 411.118 157.34C412.756 157.34 414.016 158.42 414.016 159.95C414.016 161.498 412.72 162.524 411.226 162.524C409.426 162.524 408.436 161.156 408.436 161.156L407.446 162.452ZM418.453 164H422.665C426.553 164 429.109 161.66 429.109 157.628C429.109 153.614 426.553 151.292 422.665 151.292H418.453V164ZM420.235 162.452V152.84H422.539C425.383 152.84 427.273 154.514 427.273 157.628C427.273 160.76 425.401 162.452 422.539 162.452H420.235Z" fill="#404040"/>
<path d="M352.08 214H360.27V212.452H353.97C354.006 209.554 360.072 208.906 360.072 204.73C360.072 202.534 358.398 201.076 356.058 201.076C353.196 201.076 352.044 203.488 352.044 203.488L353.358 204.37C353.358 204.37 354.258 202.75 355.932 202.75C357.264 202.75 358.218 203.596 358.218 204.856C358.218 207.844 351.99 208.492 351.99 213.028C351.99 213.334 352.026 213.658 352.08 214ZM366.917 214.216C370.319 214.216 371.417 211.3 371.417 207.628C371.417 203.974 370.319 201.076 366.917 201.076C363.533 201.076 362.435 203.974 362.435 207.628C362.435 211.3 363.533 214.216 366.917 214.216ZM366.917 212.578C364.847 212.578 364.253 210.4 364.253 207.628C364.253 204.874 364.847 202.714 366.917 202.714C369.005 202.714 369.599 204.874 369.599 207.628C369.599 210.4 369.005 212.578 366.917 212.578ZM378.365 214.216C380.741 214.216 382.451 212.47 382.451 209.968C382.451 207.61 380.849 205.774 378.437 205.774C377.321 205.774 376.169 206.26 375.629 206.98H375.593C375.863 204.874 377.069 202.714 379.409 202.714C380.417 202.714 381.227 203.128 381.227 203.128L381.803 201.598C381.803 201.598 380.831 201.076 379.337 201.076C375.395 201.076 373.613 204.964 373.613 208.222C373.613 211.84 375.647 214.216 378.365 214.216ZM378.347 212.578C376.727 212.578 375.485 210.724 375.485 209.068C375.485 208.15 376.637 207.286 378.077 207.286C379.697 207.286 380.687 208.42 380.687 209.968C380.687 211.444 379.805 212.578 378.347 212.578ZM384.19 207.574C384.19 211.3 386.872 214.216 390.688 214.216C393.874 214.216 395.62 212.2 395.62 212.2L394.666 210.922C394.666 210.922 393.136 212.578 390.742 212.578C387.916 212.578 386.026 210.274 386.026 207.556C386.026 204.856 387.88 202.696 390.724 202.696C392.92 202.696 394.396 204.082 394.396 204.082L395.278 202.75C395.278 202.75 393.712 201.076 390.652 201.076C386.962 201.076 384.19 203.884 384.19 207.574Z" fill="#404040"/>
<g filter="url(#filter0_d)">
<rect x="85" y="113" width="96" height="36" rx="3" fill="#404040"/>
</g>
<path d="M100.256 136H101.552L102.08 132.944H104.56L104.032 136H105.328L105.872 132.944H107.936L108.144 131.76H106.064L106.544 129.072H108.624L108.832 127.904H106.736L107.296 124.704H106L105.44 127.904H102.96L103.52 124.704H102.224L101.664 127.904H99.584L99.392 129.072H101.456L100.992 131.76H98.896L98.704 132.944H100.784L100.256 136ZM102.288 131.76L102.768 129.072H105.248L104.768 131.76H102.288ZM111.02 136H117.852V134.624H112.604V130.992H116.652V129.616H112.604V126.08H117.58V124.704H111.02V136ZM120.192 136H123.936C127.392 136 129.664 133.92 129.664 130.336C129.664 126.768 127.392 124.704 123.936 124.704H120.192V136ZM121.776 134.624V126.08H123.824C126.352 126.08 128.032 127.568 128.032 130.336C128.032 133.12 126.368 134.624 123.824 134.624H121.776ZM131.396 136H137.892V134.624H135.428V124.704H134.02L131.316 127.328L132.276 128.32L133.332 127.28C133.748 126.88 133.876 126.624 133.876 126.624H133.908C133.908 126.624 133.892 126.976 133.892 127.328V134.624H131.396V136ZM138.968 134.656C138.968 134.656 140.328 136.192 142.632 136.192C144.952 136.192 146.472 134.496 146.472 132.56C146.472 130.368 144.648 129.408 143.16 129.248L146.232 125.712V124.704H139.48V126.08H143.304C143.928 126.08 144.264 126.032 144.264 126.032V126.064C144.264 126.064 143.928 126.368 143.56 126.8L141.096 129.696L141.464 130.544H142.248C143.64 130.544 144.872 131.232 144.872 132.624C144.872 133.84 143.832 134.688 142.568 134.688C140.936 134.688 139.832 133.456 139.832 133.456L138.968 134.656ZM148.174 134.624C148.174 134.624 149.31 136.192 151.63 136.192C153.918 136.192 155.63 134.56 155.63 132.384C155.63 130.352 154.078 128.704 151.694 128.704C150.862 128.704 150.238 129.056 150.238 129.056H150.206C150.206 129.056 150.27 128.8 150.286 128.464L150.558 126.08H154.878V124.704H149.182L148.622 130.304L149.534 130.64C149.534 130.64 150.334 130.08 151.438 130.08C152.894 130.08 154.014 131.04 154.014 132.4C154.014 133.776 152.862 134.688 151.534 134.688C149.934 134.688 149.054 133.472 149.054 133.472L148.174 134.624ZM157.958 136H161.702C165.158 136 167.43 133.92 167.43 130.336C167.43 126.768 165.158 124.704 161.702 124.704H157.958V136ZM159.542 134.624V126.08H161.59C164.118 126.08 165.798 127.568 165.798 130.336C165.798 133.12 164.134 134.624 161.59 134.624H159.542Z" fill="white"/>
<path d="M133.67 153.993L129.34 149L138 149L133.67 153.993Z" fill="#404040"/>
<defs>
<filter id="filter0_d" x="81" y="113" width="104" height="44" filterUnits="userSpaceOnUse" color-interpolation-filters="sRGB">
<feFlood flood-opacity="0" result="BackgroundImageFix"/>
<feColorMatrix in="SourceAlpha" type="matrix" values="0 0 0 0 0 0 0 0 0 0 0 0 0 0 0 0 0 0 127 0" result="hardAlpha"/>
<feOffset dy="4"/>
<feGaussianBlur stdDeviation="2"/>
<feColorMatrix type="matrix" values="0 0 0 0 0 0 0 0 0 0 0 0 0 0 0 0 0 0 0.05 0"/>
<feBlend mode="normal" in2="BackgroundImageFix" result="effect1_dropShadow"/>
<feBlend mode="normal" in="SourceGraphic" in2="effect1_dropShadow" result="shape"/>
</filter>
</defs>
</svg>
