<svg width="171" height="86" viewBox="0 0 171 86" fill="none" xmlns="http://www.w3.org/2000/svg">
<path d="M68.5658 78.3906H71.6258V80.0906H71.9913V78.3906H72.8753V78.0506H71.9913V74.1406H71.6513L68.5658 78.1356V78.3906ZM69.0758 78.0506V78.0336L71.3368 75.1351C71.4898 74.9396 71.6343 74.7271 71.6343 74.7271H71.6513C71.6513 74.7271 71.6258 75.0246 71.6258 75.2626V78.0506H69.0758ZM73.7583 79.3341C73.7583 79.3341 74.2768 80.1926 75.4328 80.1926C76.5548 80.1926 77.4643 79.3511 77.4643 78.2801C77.4643 77.2091 76.5718 76.3506 75.4328 76.3506C74.8293 76.3506 74.4128 76.6226 74.4128 76.6226H74.3958C74.3958 76.6226 74.4298 76.4866 74.4553 76.2571L74.6678 74.4806H77.1073V74.1406H74.3448L74.0048 76.9711L74.2768 77.0646C74.2768 77.0646 74.7528 76.7076 75.4328 76.7076C76.3593 76.7076 77.0818 77.3791 77.0818 78.2801C77.0818 79.1726 76.3593 79.8356 75.4328 79.8356C74.4638 79.8356 74.0558 79.1046 74.0558 79.1046L73.7583 79.3341ZM78.7114 80.0906H79.0684V78.0166C79.0684 77.8126 79.0854 77.6171 79.1364 77.4386C79.3319 76.7331 79.9269 76.0701 80.6834 76.0701C81.6184 76.0701 81.7204 76.7926 81.7204 77.5236V80.0906H82.0774V78.0166C82.0774 77.7701 82.1029 77.5576 82.1624 77.3621C82.3494 76.6991 82.9529 76.0701 83.6584 76.0701C84.5594 76.0701 84.7209 76.7246 84.7209 77.5236V80.0906H85.0779V77.3961C85.0779 76.3846 84.7549 75.7386 83.6584 75.7386C82.9274 75.7386 82.2814 76.2996 82.0434 76.8946H82.0264C81.9329 76.1381 81.5334 75.7386 80.6834 75.7386C80.0204 75.7386 79.2639 76.2996 79.0514 76.9371H79.0344C79.0344 76.9371 79.0684 76.7841 79.0684 76.5886V75.8406H78.7114V80.0906ZM86.5141 80.0906H86.8711V78.0166C86.8711 77.8126 86.8881 77.6171 86.9391 77.4386C87.1346 76.7331 87.7296 76.0701 88.4861 76.0701C89.4211 76.0701 89.5231 76.7926 89.5231 77.5236V80.0906H89.8801V78.0166C89.8801 77.7701 89.9056 77.5576 89.9651 77.3621C90.1521 76.6991 90.7556 76.0701 91.4611 76.0701C92.3621 76.0701 92.5236 76.7246 92.5236 77.5236V80.0906H92.8806V77.3961C92.8806 76.3846 92.5576 75.7386 91.4611 75.7386C90.7301 75.7386 90.0841 76.2996 89.8461 76.8946H89.8291C89.7356 76.1381 89.3361 75.7386 88.4861 75.7386C87.8231 75.7386 87.0666 76.2996 86.8541 76.9371H86.8371C86.8371 76.9371 86.8711 76.7841 86.8711 76.5886V75.8406H86.5141V80.0906Z" fill="#6D6E71"/>
<path d="M169.576 66.4043H0.503418" stroke="#EC008C" stroke-width="0.5" stroke-dasharray="2.03 2.03"/>
<path d="M59.4188 16.5383C63.4111 16.5383 65.3897 18.8631 65.3897 18.8631L63.9446 20.9829C62.7653 19.8354 61.1913 19.183 59.546 19.1599C56.3415 19.1599 54.0132 21.5482 54.0132 24.8127C54.0132 28.0773 56.3415 30.5292 59.6379 30.5292C62.5915 30.5292 64.5417 28.4094 64.5417 28.4094L65.7677 30.6387C65.7677 30.6387 63.5666 33.1825 59.4082 33.1825C54.4125 33.1825 50.8936 29.6495 50.8936 24.8587C50.9042 20.1385 54.4089 16.5383 59.4188 16.5383Z" fill="#808285"/>
<path d="M76.0099 16.5383C80.7548 16.5383 84.5881 20.0255 84.5881 24.8339C84.5881 29.6424 80.7548 33.1896 76.0099 33.1896C71.265 33.1896 67.4316 29.6565 67.4316 24.8339C67.4316 20.0113 71.265 16.5383 76.0099 16.5383ZM76.0099 30.5504C79.0271 30.5504 81.4755 28.1621 81.4755 24.8339C81.4755 21.5058 79.0271 19.1811 76.0099 19.1811C72.9927 19.1811 70.5407 21.5376 70.5407 24.8339C70.5407 28.1303 73.0245 30.5504 76.0099 30.5504Z" fill="#808285"/>
<path d="M87.5635 16.9165H90.5065V19.6793C90.5065 20.0782 90.4864 20.4767 90.4464 20.8735H90.5065C91.2308 18.5488 93.0856 16.7292 95.534 16.7292C95.7977 16.731 96.061 16.751 96.3219 16.7893V19.8065C96.0327 19.745 95.7379 19.713 95.4422 19.7111C93.4919 19.7111 91.7007 21.0961 90.9799 23.4526C90.7116 24.3811 90.5842 25.3446 90.6019 26.3109V32.8152H87.5635V16.9165Z" fill="#808285"/>
<path d="M105.466 16.5383C109.956 16.5383 112.344 19.87 112.344 23.986C112.344 24.3923 112.253 25.3038 112.253 25.3038H100.657C100.813 28.791 103.296 30.5504 106.123 30.5504C108.857 30.5504 110.836 28.6991 110.836 28.6991L112.094 30.9284C110.376 32.3922 108.192 33.1941 105.935 33.1896C100.94 33.1896 97.5127 29.5788 97.5127 24.8657C97.5127 19.8064 100.94 16.5383 105.466 16.5383ZM109.235 23.0109C109.14 20.2763 107.444 18.9585 105.402 18.9585C103.077 18.9585 101.191 20.4035 100.753 23.0109H109.235Z" fill="#808285"/>
<path d="M115.425 16.9164H118.219V18.266C118.219 18.8949 118.159 19.4284 118.159 19.4284H118.219C118.219 19.4284 119.573 16.5383 123.561 16.5383C127.836 16.5383 130.539 19.9336 130.539 24.8657C130.539 29.9251 127.49 33.1896 123.342 33.1896C122.374 33.2199 121.414 32.9949 120.559 32.5373C119.705 32.0797 118.986 31.4054 118.474 30.5822H118.41C118.455 31.0425 118.476 31.5047 118.474 31.9672V39.0933H115.425V16.9164ZM122.872 30.5822C125.384 30.5822 127.465 28.5083 127.465 24.8975C127.465 21.4387 125.611 19.2093 122.971 19.2093C120.583 19.2093 118.378 20.8734 118.378 24.9293C118.378 27.7558 119.947 30.5822 122.872 30.5822Z" fill="#58595B"/>
<path d="M133.461 10.6311H136.506V27.9431C136.506 29.8615 137.263 30.2077 138.202 30.2077C138.382 30.2072 138.561 30.1966 138.739 30.1759V32.8752C138.405 32.9163 138.069 32.9375 137.732 32.9388C136.005 32.9388 133.461 32.4689 133.461 28.4765V10.6311Z" fill="#58595B"/>
<path d="M141.128 16.9163H144.173V26.406C144.173 28.6036 144.615 30.3631 147.159 30.3631C150.395 30.3631 152.314 27.5048 152.314 24.3569V16.9163H155.359V32.815H152.405V30.6952C152.405 30.3068 152.426 29.9187 152.469 29.5328H152.405C151.88 30.6336 151.05 31.5613 150.015 32.2067C148.98 32.852 147.782 33.1881 146.562 33.1754C142.979 33.1754 141.128 31.2922 141.128 27.0808V16.9163Z" fill="#58595B"/>
<path d="M159.694 28.6991C160.93 29.8604 162.553 30.5203 164.248 30.5504C165.57 30.5504 166.887 29.8438 166.887 28.5719C166.887 25.6501 158.719 26.2472 158.719 21.0642C158.719 18.1741 161.295 16.5383 164.467 16.5383C167.958 16.5383 169.59 18.3049 169.59 18.3049L168.364 20.5978C167.276 19.6575 165.877 19.154 164.439 19.1846C163.118 19.1846 161.828 19.7499 161.828 21.1348C161.828 23.9931 170 23.3642 170 28.579C170 31.2182 167.735 33.1967 164.248 33.1967C162.011 33.2407 159.846 32.4061 158.217 30.8719L159.694 28.6991Z" fill="#58595B"/>
<path d="M117.234 45.8611C117.956 45.8611 118.551 45.2497 118.551 44.2064C118.551 43.1631 118.02 42.5602 117.268 42.5602C116.584 42.5602 115.942 43.0519 115.942 44.2149C115.942 45.0401 116.4 45.8611 117.246 45.8611H117.234ZM115.412 42.154H115.942V42.5516C115.948 42.6584 115.948 42.7655 115.942 42.8723C116.072 42.6126 116.276 42.3968 116.527 42.2516C116.779 42.1064 117.068 42.0383 117.358 42.0556C118.461 42.0556 119.145 42.9364 119.145 44.1935C119.145 45.4506 118.371 46.3314 117.311 46.3314C117.036 46.3394 116.765 46.2703 116.528 46.132C116.29 45.9937 116.096 45.7917 115.968 45.549C115.974 45.6686 115.974 45.7885 115.968 45.9081V47.875H115.412V42.154Z" fill="#808285"/>
<path d="M120.188 42.154H120.735V42.8809C120.741 42.9891 120.741 43.0976 120.735 43.2058C120.8 42.9088 120.961 42.6412 121.192 42.4443C121.424 42.2473 121.714 42.1318 122.018 42.1155C122.091 42.1164 122.164 42.1235 122.236 42.1369V42.6842C122.167 42.679 122.099 42.679 122.031 42.6842C121.744 42.7068 121.472 42.8228 121.258 43.0143C121.043 43.2058 120.897 43.4622 120.842 43.7446C120.765 44.0041 120.728 44.2736 120.731 44.5441V46.2545H120.175L120.188 42.154Z" fill="#808285"/>
<path d="M124.237 45.8779C125.02 45.8779 125.49 45.0613 125.49 44.3558V44.1762H125.246C124.601 44.1762 123.314 44.1976 123.314 45.104C123.319 45.2164 123.347 45.3266 123.397 45.4276C123.446 45.5286 123.516 45.6182 123.602 45.6909C123.688 45.7635 123.788 45.8177 123.896 45.8499C124.004 45.882 124.117 45.8916 124.229 45.8779H124.237ZM125.255 43.7187H125.482V43.5989C125.505 43.4582 125.494 43.3141 125.452 43.178C125.41 43.0419 125.336 42.9175 125.238 42.8147C125.139 42.7118 125.018 42.6333 124.883 42.5854C124.749 42.5375 124.606 42.5214 124.464 42.5385C124.047 42.5449 123.643 42.6826 123.31 42.9319L123.049 42.5043C123.469 42.1898 123.982 42.0257 124.507 42.0383C125.49 42.0383 126.037 42.5856 126.037 43.6118V46.2371H125.507V45.7881C125.501 45.6742 125.501 45.56 125.507 45.4461C125.391 45.7114 125.199 45.9367 124.956 46.094C124.713 46.2513 124.429 46.3338 124.139 46.3312C123.455 46.3312 122.745 45.9335 122.745 45.1211C122.745 43.7358 124.545 43.7016 125.255 43.7016" fill="#808285"/>
<path d="M129.188 42.0555C129.465 42.0456 129.741 42.0925 129.999 42.1932C130.257 42.294 130.492 42.4464 130.689 42.6413L130.403 43.0689C130.083 42.7536 129.654 42.5743 129.205 42.5686C128.99 42.5649 128.777 42.6052 128.578 42.6873C128.379 42.7693 128.199 42.8912 128.049 43.0455C127.899 43.1997 127.783 43.3831 127.707 43.5842C127.63 43.7853 127.596 43.9999 127.606 44.2148C127.599 44.4305 127.635 44.6454 127.713 44.8466C127.791 45.0478 127.91 45.2309 128.061 45.3849C128.212 45.5389 128.393 45.6606 128.593 45.7424C128.792 45.8242 129.007 45.8646 129.222 45.861C129.468 45.8592 129.711 45.8071 129.936 45.7078C130.161 45.6086 130.364 45.4642 130.531 45.2837L130.783 45.7113C130.575 45.9207 130.326 46.0855 130.052 46.1958C129.777 46.306 129.484 46.3594 129.188 46.3527C128.621 46.3527 128.077 46.1274 127.676 45.7265C127.276 45.3256 127.05 44.7818 127.05 44.2148C127.05 43.6478 127.276 43.104 127.676 42.703C128.077 42.3021 128.621 42.0769 129.188 42.0769" fill="#808285"/>
<path d="M131.951 42.6671H131.412V42.2053H131.959V41.0337H132.515V42.2181H133.541V42.6799H132.515V44.7194C132.515 45.6772 133.127 45.8012 133.435 45.8012C133.497 45.8078 133.56 45.8078 133.623 45.8012V46.2972C133.544 46.3039 133.466 46.3039 133.388 46.2972C132.917 46.2972 131.964 46.1433 131.964 44.775L131.951 42.6671Z" fill="#808285"/>
<path d="M134.525 42.154H135.081V46.2502H134.525V42.154ZM134.525 40.5249H135.081V41.2176H134.503L134.525 40.5249Z" fill="#808285"/>
<path d="M138.279 42.0555C138.556 42.0456 138.832 42.0925 139.09 42.1932C139.348 42.294 139.583 42.4464 139.78 42.6413L139.493 43.0689C139.174 42.7536 138.745 42.5743 138.296 42.5686C137.86 42.5686 137.441 42.742 137.132 43.0507C136.823 43.3595 136.65 43.7782 136.65 44.2148C136.65 44.6514 136.823 45.0701 137.132 45.3788C137.441 45.6875 137.86 45.861 138.296 45.861C138.543 45.8596 138.787 45.8076 139.012 45.7083C139.238 45.6091 139.441 45.4646 139.609 45.2837L139.861 45.7113C139.653 45.9207 139.404 46.0855 139.13 46.1958C138.855 46.306 138.562 46.3594 138.266 46.3527C137.699 46.3527 137.156 46.1274 136.755 45.7265C136.354 45.3256 136.128 44.7818 136.128 44.2148C136.128 43.6478 136.354 43.104 136.755 42.703C137.156 42.3021 137.699 42.0769 138.266 42.0769" fill="#808285"/>
<path d="M143.769 43.7743C143.735 42.9191 143.214 42.5215 142.602 42.5215C142.253 42.5145 141.914 42.6397 141.653 42.872C141.392 43.1043 141.229 43.4266 141.195 43.7743H143.769ZM142.619 42.064C143.752 42.064 144.329 42.9191 144.329 43.9539C144.329 44.0522 144.329 44.2403 144.329 44.2403H141.187C141.176 44.4535 141.21 44.6665 141.285 44.866C141.361 45.0654 141.477 45.2471 141.627 45.3993C141.776 45.5516 141.956 45.6713 142.154 45.7507C142.352 45.8301 142.564 45.8677 142.777 45.8609C143.239 45.8518 143.681 45.6756 144.022 45.3649L144.274 45.7925C143.853 46.1553 143.316 46.3568 142.76 46.3612C142.477 46.3707 142.195 46.3219 141.931 46.2178C141.667 46.1138 141.428 45.9566 141.227 45.7562C141.027 45.5557 140.87 45.3162 140.766 45.0525C140.662 44.7888 140.613 44.5066 140.622 44.2232C140.603 43.9477 140.642 43.6713 140.735 43.4113C140.828 43.1514 140.974 42.9135 141.164 42.7127C141.353 42.5118 141.582 42.3524 141.836 42.2445C142.091 42.1365 142.364 42.0823 142.641 42.0853" fill="#808285"/>
<path d="M147.58 40.5249H148.135V42.744C148.141 42.8551 148.141 42.9665 148.135 43.0776C148.279 42.7681 148.509 42.5072 148.799 42.3265C149.088 42.1458 149.424 42.0532 149.765 42.0599C150.774 42.0599 151.133 42.6414 151.133 43.6505V46.2588H150.577V43.7959C150.577 43.1545 150.483 42.5816 149.692 42.5816C149.35 42.5855 149.018 42.7019 148.748 42.9129C148.479 43.1238 148.286 43.4176 148.2 43.7489C148.151 43.9257 148.13 44.1087 148.135 44.2919V46.2588H147.58V40.5249Z" fill="#808285"/>
<path d="M153.557 45.8781C154.339 45.8781 154.814 45.0614 154.814 44.3559V44.1763H154.578C153.933 44.1763 152.646 44.1977 152.646 45.1042C152.651 45.2162 152.679 45.3259 152.728 45.4266C152.778 45.5273 152.847 45.6167 152.933 45.6893C153.018 45.7619 153.118 45.8161 153.225 45.8486C153.332 45.8811 153.445 45.8911 153.557 45.8781ZM154.583 43.7188H154.814V43.5991C154.837 43.4584 154.826 43.3143 154.784 43.1782C154.742 43.0421 154.668 42.9177 154.57 42.8148C154.471 42.712 154.35 42.6335 154.215 42.5855C154.081 42.5376 153.938 42.5216 153.796 42.5387C153.378 42.5456 152.973 42.6832 152.637 42.9321L152.376 42.5045C152.797 42.1909 153.31 42.0268 153.834 42.0384C154.822 42.0384 155.365 42.5857 155.365 43.6119V46.2373H154.839V45.7883C154.839 45.5831 154.839 45.4462 154.839 45.4462C154.723 45.7122 154.53 45.9379 154.286 46.0953C154.042 46.2527 153.757 46.3348 153.467 46.3313C152.783 46.3313 152.077 45.9337 152.077 45.1213C152.077 43.7359 153.877 43.7017 154.583 43.7017" fill="#808285"/>
<path d="M158.487 45.8609C159.214 45.8609 159.808 45.2495 159.808 44.2062C159.808 43.1629 159.278 42.56 158.525 42.56C157.841 42.56 157.195 43.0517 157.195 44.2148C157.195 45.04 157.653 45.8609 158.5 45.8609H158.487ZM156.657 42.1538H157.187V42.5515C157.193 42.6583 157.193 42.7653 157.187 42.8722C157.318 42.6121 157.522 42.3961 157.774 42.2509C158.027 42.1058 158.316 42.0378 158.607 42.0555C159.705 42.0555 160.39 42.9363 160.39 44.1934C160.39 45.4505 159.616 46.3313 158.555 46.3313C158.281 46.3382 158.01 46.2687 157.773 46.1305C157.536 45.9923 157.342 45.7909 157.213 45.5488C157.219 45.6685 157.219 45.7883 157.213 45.908V47.8748H156.657V42.1538Z" fill="#808285"/>
<path d="M163.301 45.8609C164.024 45.8609 164.622 45.2495 164.622 44.2062C164.622 43.1629 164.092 42.56 163.34 42.56C162.655 42.56 162.01 43.0517 162.01 44.2148C162.01 45.04 162.467 45.8609 163.293 45.8609H163.301ZM161.45 42.1538H161.98V42.5515C161.986 42.6583 161.986 42.7653 161.98 42.8722C162.111 42.6121 162.315 42.3961 162.567 42.2509C162.82 42.1058 163.109 42.0378 163.399 42.0555C164.498 42.0555 165.182 42.9363 165.182 44.1934C165.182 45.4505 164.409 46.3313 163.348 46.3313C163.078 46.3375 162.811 46.2694 162.576 46.1345C162.342 45.9995 162.149 45.8029 162.018 45.5659C162.025 45.6856 162.025 45.8054 162.018 45.9251V47.8748H161.463L161.45 42.1538Z" fill="#808285"/>
<path d="M165.841 47.2805C165.982 47.3893 166.151 47.4534 166.329 47.4644C166.688 47.4644 166.94 47.1736 167.103 46.7973L167.355 46.2201L165.645 42.1538H166.256L167.462 45.1469C167.543 45.3521 167.607 45.5745 167.607 45.5745C167.647 45.4296 167.694 45.2869 167.748 45.1469L168.928 42.1538H169.531L167.509 47.1095C167.425 47.3569 167.267 47.5723 167.055 47.7255C166.844 47.8788 166.59 47.9624 166.329 47.9646C166.069 47.9616 165.818 47.8762 165.61 47.7209L165.841 47.2805Z" fill="#808285"/>
<path d="M44.9512 16.6797H28.6108L37.9734 32.8893L44.9512 16.6797Z" fill="url(#paint0_linear)"/>
<path d="M37.9733 32.8928V12.5354L28.48 16.4536L37.9733 32.8928Z" fill="#FDC17B"/>
<path d="M28.4801 16.4463L37.9734 32.8926H18.9868L28.4801 16.4463Z" fill="#F68A33"/>
<path d="M18.9904 0.00366211L28.4802 16.443H9.49707L18.9904 0.00366211Z" fill="#FFCB3B"/>
<path d="M9.49316 16.4429H28.4833L18.9865 32.8928L9.49316 16.4429Z" fill="#E4018B"/>
<path d="M10.2504 17.7432L10.2456 17.7479V17.7432H10.2504Z" fill="#E51E25"/>
<path d="M18.9901 0L9.49684 16.4428L0 0H18.9901Z" fill="#FFF68F"/>
<path d="M14.9059 25.8196L18.9866 32.8822H0L9.49331 16.4429L14.9059 25.8196Z" fill="#60C5BA"/>
<path d="M0 32.8821H18.9866L9.49331 49.3214L0 32.8821Z" fill="#B0DFE3"/>
<defs>
<linearGradient id="paint0_linear" x1="1568.36" y1="1153.79" x2="2132.93" y2="825.343" gradientUnits="userSpaceOnUse">
<stop offset="0.24" stop-color="#BCBEC0"/>
<stop offset="1" stop-color="#E6E7E8"/>
</linearGradient>
</defs>
</svg>
