<svg width="50" height="34" viewBox="0 0 50 34" fill="none" xmlns="http://www.w3.org/2000/svg">
<mask id="path-1-outside-1" maskUnits="userSpaceOnUse" x="-1" y="-0.692688" width="52" height="35" fill="black">
<rect fill="white" x="-1" y="-0.692688" width="52" height="35"/>
<path d="M49.8786 19.9563C49.6534 18.3932 49.1324 16.9188 48.3473 15.5876C48.3308 15.5535 48.3126 15.5199 48.2917 15.4872L48.1405 15.2507C48.0952 15.1794 48.051 15.1076 48.0041 15.0373L42.2254 5.99833C41.0113 4.09921 38.9408 2.96542 36.6868 2.96542H28.5148C28.0871 1.43397 26.6793 0.307312 25.0134 0.307312C23.3474 0.307312 21.9396 1.43397 21.5119 2.96542H13.3171C11.0631 2.96542 8.99258 4.09911 7.77852 5.99823L1.71221 15.4872C1.68369 15.5318 1.66045 15.5782 1.63994 15.6253C0.598144 17.4036 0 19.4718 0 21.6774C0 28.301 5.38867 33.6896 12.0122 33.6896C16.6106 33.6896 20.613 31.092 22.6312 27.2873C23.2342 27.9024 24.0736 28.285 25.001 28.285C25.9271 28.285 26.7655 27.9035 27.3684 27.2899C27.9154 28.3267 28.6244 29.3 29.4958 30.1714C31.8035 32.479 34.8778 33.6926 37.996 33.6926C39.7915 33.6926 41.6021 33.2898 43.2877 32.4616C43.7718 32.2237 43.9713 31.6386 43.7334 31.1544C43.4955 30.6703 42.9104 30.4705 42.4262 30.7087C38.5636 32.6066 33.9223 31.8356 30.8768 28.7902C30.8207 28.7342 30.7656 28.6773 30.7111 28.6203L35.7295 23.6019L37.7409 25.6134C37.9241 25.7965 38.1725 25.8994 38.4314 25.8994C38.6904 25.8994 38.9389 25.7965 39.122 25.6134L42.0641 22.6713C42.176 23.0873 42.5547 23.394 43.0061 23.394C43.5453 23.394 43.9826 22.9567 43.9826 22.4175V20.3489C43.9826 19.8097 43.5453 19.3724 43.0061 19.3724H40.9375C40.3982 19.3724 39.9609 19.8097 39.9609 20.3489C39.9609 20.7997 40.2669 21.1782 40.6822 21.2906L38.4313 23.5417L36.4198 21.5303C36.0384 21.149 35.4202 21.149 35.0386 21.5303L29.4979 27.0709C27.0273 23.1823 27.4864 17.9547 30.8766 14.5646C34.7985 10.6427 41.1802 10.6427 45.1021 14.5646C45.5839 15.0464 46.008 15.5662 46.3745 16.115L46.5917 16.4548C48.4081 19.4259 48.5764 23.1646 46.8958 26.3589C46.6448 26.8363 46.8281 27.4267 47.3054 27.6779C47.7829 27.9292 48.3732 27.7456 48.6244 27.2683C49.7928 25.0482 50.2381 22.4515 49.8786 19.9563ZM12.0122 31.7364C9.21221 31.7364 6.67617 30.586 4.85068 28.7335L9.98213 23.6019L11.9936 25.6134C12.375 25.9946 12.9932 25.9946 13.3748 25.6134L16.3169 22.6713C16.4288 23.0873 16.8076 23.3939 17.2589 23.3939C17.7981 23.3939 18.2354 22.9566 18.2354 22.4174V20.3488C18.2354 19.8096 17.7981 19.3723 17.2589 19.3723H15.1904C14.6512 19.3723 14.2139 19.8096 14.2139 20.3488C14.2139 20.7996 14.5198 21.1781 14.9351 21.2905L12.684 23.5416L10.6726 21.5302C10.4894 21.3471 10.241 21.2441 9.98203 21.2441C9.72305 21.2441 9.47471 21.3471 9.2915 21.5302L3.61416 27.2076C2.56514 25.6197 1.95322 23.7188 1.95322 21.6774C1.95322 16.1309 6.46572 11.6184 12.0122 11.6184C17.5587 11.6184 22.0712 16.1309 22.0712 21.6774C22.0712 27.2239 17.5587 31.7364 12.0122 31.7364ZM25.001 26.3319C24.2471 26.3319 23.6337 25.7186 23.6337 24.9646C23.6337 24.2107 24.247 23.5974 25.001 23.5974C25.755 23.5974 26.3683 24.2106 26.3683 24.9646C26.3683 25.7186 25.7549 26.3319 25.001 26.3319ZM29.4958 13.1835C28.8976 13.7817 28.3763 14.4281 27.9308 15.1101V8.01805C27.9308 7.4788 27.4935 7.04149 26.9542 7.04149C26.4149 7.04149 25.9776 7.4788 25.9776 8.01805V21.6774C25.9776 21.7155 25.9804 21.7529 25.9846 21.7898C25.9846 21.7909 25.9846 21.7919 25.9846 21.793C25.6736 21.6964 25.3433 21.6442 25.001 21.6442C24.6607 21.6442 24.3323 21.6959 24.0229 21.7914C24.0233 21.7534 24.0244 21.7155 24.0244 21.6774V11.3342C24.0244 10.7949 23.5871 10.3576 23.0479 10.3576C22.5086 10.3576 22.0713 10.7949 22.0713 11.3342V15.1195C19.9246 11.8382 16.2178 9.66532 12.0123 9.66532C10.2527 9.66532 8.58037 10.0456 7.07295 10.7283L9.42441 7.05018C10.2776 5.71542 11.733 4.91854 13.3173 4.91854H22.3556C22.8948 4.91854 23.3321 4.48124 23.3321 3.94198C23.3321 3.01483 24.0864 2.26044 25.0137 2.26044C25.9408 2.26044 26.6952 3.01473 26.6952 3.94198C26.6952 4.48124 27.1325 4.91854 27.6718 4.91854H36.6871C38.2715 4.91854 39.7267 5.71542 40.58 7.05028L42.932 10.7293C38.5102 8.73934 33.1227 9.55682 29.4958 13.1835Z"/>
</mask>
<path d="M49.8786 19.9563C49.6534 18.3932 49.1324 16.9188 48.3473 15.5876C48.3308 15.5535 48.3126 15.5199 48.2917 15.4872L48.1405 15.2507C48.0952 15.1794 48.051 15.1076 48.0041 15.0373L42.2254 5.99833C41.0113 4.09921 38.9408 2.96542 36.6868 2.96542H28.5148C28.0871 1.43397 26.6793 0.307312 25.0134 0.307312C23.3474 0.307312 21.9396 1.43397 21.5119 2.96542H13.3171C11.0631 2.96542 8.99258 4.09911 7.77852 5.99823L1.71221 15.4872C1.68369 15.5318 1.66045 15.5782 1.63994 15.6253C0.598144 17.4036 0 19.4718 0 21.6774C0 28.301 5.38867 33.6896 12.0122 33.6896C16.6106 33.6896 20.613 31.092 22.6312 27.2873C23.2342 27.9024 24.0736 28.285 25.001 28.285C25.9271 28.285 26.7655 27.9035 27.3684 27.2899C27.9154 28.3267 28.6244 29.3 29.4958 30.1714C31.8035 32.479 34.8778 33.6926 37.996 33.6926C39.7915 33.6926 41.6021 33.2898 43.2877 32.4616C43.7718 32.2237 43.9713 31.6386 43.7334 31.1544C43.4955 30.6703 42.9104 30.4705 42.4262 30.7087C38.5636 32.6066 33.9223 31.8356 30.8768 28.7902C30.8207 28.7342 30.7656 28.6773 30.7111 28.6203L35.7295 23.6019L37.7409 25.6134C37.9241 25.7965 38.1725 25.8994 38.4314 25.8994C38.6904 25.8994 38.9389 25.7965 39.122 25.6134L42.0641 22.6713C42.176 23.0873 42.5547 23.394 43.0061 23.394C43.5453 23.394 43.9826 22.9567 43.9826 22.4175V20.3489C43.9826 19.8097 43.5453 19.3724 43.0061 19.3724H40.9375C40.3982 19.3724 39.9609 19.8097 39.9609 20.3489C39.9609 20.7997 40.2669 21.1782 40.6822 21.2906L38.4313 23.5417L36.4198 21.5303C36.0384 21.149 35.4202 21.149 35.0386 21.5303L29.4979 27.0709C27.0273 23.1823 27.4864 17.9547 30.8766 14.5646C34.7985 10.6427 41.1802 10.6427 45.1021 14.5646C45.5839 15.0464 46.008 15.5662 46.3745 16.115L46.5917 16.4548C48.4081 19.4259 48.5764 23.1646 46.8958 26.3589C46.6448 26.8363 46.8281 27.4267 47.3054 27.6779C47.7829 27.9292 48.3732 27.7456 48.6244 27.2683C49.7928 25.0482 50.2381 22.4515 49.8786 19.9563ZM12.0122 31.7364C9.21221 31.7364 6.67617 30.586 4.85068 28.7335L9.98213 23.6019L11.9936 25.6134C12.375 25.9946 12.9932 25.9946 13.3748 25.6134L16.3169 22.6713C16.4288 23.0873 16.8076 23.3939 17.2589 23.3939C17.7981 23.3939 18.2354 22.9566 18.2354 22.4174V20.3488C18.2354 19.8096 17.7981 19.3723 17.2589 19.3723H15.1904C14.6512 19.3723 14.2139 19.8096 14.2139 20.3488C14.2139 20.7996 14.5198 21.1781 14.9351 21.2905L12.684 23.5416L10.6726 21.5302C10.4894 21.3471 10.241 21.2441 9.98203 21.2441C9.72305 21.2441 9.47471 21.3471 9.2915 21.5302L3.61416 27.2076C2.56514 25.6197 1.95322 23.7188 1.95322 21.6774C1.95322 16.1309 6.46572 11.6184 12.0122 11.6184C17.5587 11.6184 22.0712 16.1309 22.0712 21.6774C22.0712 27.2239 17.5587 31.7364 12.0122 31.7364ZM25.001 26.3319C24.2471 26.3319 23.6337 25.7186 23.6337 24.9646C23.6337 24.2107 24.247 23.5974 25.001 23.5974C25.755 23.5974 26.3683 24.2106 26.3683 24.9646C26.3683 25.7186 25.7549 26.3319 25.001 26.3319ZM29.4958 13.1835C28.8976 13.7817 28.3763 14.4281 27.9308 15.1101V8.01805C27.9308 7.4788 27.4935 7.04149 26.9542 7.04149C26.4149 7.04149 25.9776 7.4788 25.9776 8.01805V21.6774C25.9776 21.7155 25.9804 21.7529 25.9846 21.7898C25.9846 21.7909 25.9846 21.7919 25.9846 21.793C25.6736 21.6964 25.3433 21.6442 25.001 21.6442C24.6607 21.6442 24.3323 21.6959 24.0229 21.7914C24.0233 21.7534 24.0244 21.7155 24.0244 21.6774V11.3342C24.0244 10.7949 23.5871 10.3576 23.0479 10.3576C22.5086 10.3576 22.0713 10.7949 22.0713 11.3342V15.1195C19.9246 11.8382 16.2178 9.66532 12.0123 9.66532C10.2527 9.66532 8.58037 10.0456 7.07295 10.7283L9.42441 7.05018C10.2776 5.71542 11.733 4.91854 13.3173 4.91854H22.3556C22.8948 4.91854 23.3321 4.48124 23.3321 3.94198C23.3321 3.01483 24.0864 2.26044 25.0137 2.26044C25.9408 2.26044 26.6952 3.01473 26.6952 3.94198C26.6952 4.48124 27.1325 4.91854 27.6718 4.91854H36.6871C38.2715 4.91854 39.7267 5.71542 40.58 7.05028L42.932 10.7293C38.5102 8.73934 33.1227 9.55682 29.4958 13.1835Z" fill="white"/>
<path d="M49.8786 19.9563C49.6534 18.3932 49.1324 16.9188 48.3473 15.5876C48.3308 15.5535 48.3126 15.5199 48.2917 15.4872L48.1405 15.2507C48.0952 15.1794 48.051 15.1076 48.0041 15.0373L42.2254 5.99833C41.0113 4.09921 38.9408 2.96542 36.6868 2.96542H28.5148C28.0871 1.43397 26.6793 0.307312 25.0134 0.307312C23.3474 0.307312 21.9396 1.43397 21.5119 2.96542H13.3171C11.0631 2.96542 8.99258 4.09911 7.77852 5.99823L1.71221 15.4872C1.68369 15.5318 1.66045 15.5782 1.63994 15.6253C0.598144 17.4036 0 19.4718 0 21.6774C0 28.301 5.38867 33.6896 12.0122 33.6896C16.6106 33.6896 20.613 31.092 22.6312 27.2873C23.2342 27.9024 24.0736 28.285 25.001 28.285C25.9271 28.285 26.7655 27.9035 27.3684 27.2899C27.9154 28.3267 28.6244 29.3 29.4958 30.1714C31.8035 32.479 34.8778 33.6926 37.996 33.6926C39.7915 33.6926 41.6021 33.2898 43.2877 32.4616C43.7718 32.2237 43.9713 31.6386 43.7334 31.1544C43.4955 30.6703 42.9104 30.4705 42.4262 30.7087C38.5636 32.6066 33.9223 31.8356 30.8768 28.7902C30.8207 28.7342 30.7656 28.6773 30.7111 28.6203L35.7295 23.6019L37.7409 25.6134C37.9241 25.7965 38.1725 25.8994 38.4314 25.8994C38.6904 25.8994 38.9389 25.7965 39.122 25.6134L42.0641 22.6713C42.176 23.0873 42.5547 23.394 43.0061 23.394C43.5453 23.394 43.9826 22.9567 43.9826 22.4175V20.3489C43.9826 19.8097 43.5453 19.3724 43.0061 19.3724H40.9375C40.3982 19.3724 39.9609 19.8097 39.9609 20.3489C39.9609 20.7997 40.2669 21.1782 40.6822 21.2906L38.4313 23.5417L36.4198 21.5303C36.0384 21.149 35.4202 21.149 35.0386 21.5303L29.4979 27.0709C27.0273 23.1823 27.4864 17.9547 30.8766 14.5646C34.7985 10.6427 41.1802 10.6427 45.1021 14.5646C45.5839 15.0464 46.008 15.5662 46.3745 16.115L46.5917 16.4548C48.4081 19.4259 48.5764 23.1646 46.8958 26.3589C46.6448 26.8363 46.8281 27.4267 47.3054 27.6779C47.7829 27.9292 48.3732 27.7456 48.6244 27.2683C49.7928 25.0482 50.2381 22.4515 49.8786 19.9563ZM12.0122 31.7364C9.21221 31.7364 6.67617 30.586 4.85068 28.7335L9.98213 23.6019L11.9936 25.6134C12.375 25.9946 12.9932 25.9946 13.3748 25.6134L16.3169 22.6713C16.4288 23.0873 16.8076 23.3939 17.2589 23.3939C17.7981 23.3939 18.2354 22.9566 18.2354 22.4174V20.3488C18.2354 19.8096 17.7981 19.3723 17.2589 19.3723H15.1904C14.6512 19.3723 14.2139 19.8096 14.2139 20.3488C14.2139 20.7996 14.5198 21.1781 14.9351 21.2905L12.684 23.5416L10.6726 21.5302C10.4894 21.3471 10.241 21.2441 9.98203 21.2441C9.72305 21.2441 9.47471 21.3471 9.2915 21.5302L3.61416 27.2076C2.56514 25.6197 1.95322 23.7188 1.95322 21.6774C1.95322 16.1309 6.46572 11.6184 12.0122 11.6184C17.5587 11.6184 22.0712 16.1309 22.0712 21.6774C22.0712 27.2239 17.5587 31.7364 12.0122 31.7364ZM25.001 26.3319C24.2471 26.3319 23.6337 25.7186 23.6337 24.9646C23.6337 24.2107 24.247 23.5974 25.001 23.5974C25.755 23.5974 26.3683 24.2106 26.3683 24.9646C26.3683 25.7186 25.7549 26.3319 25.001 26.3319ZM29.4958 13.1835C28.8976 13.7817 28.3763 14.4281 27.9308 15.1101V8.01805C27.9308 7.4788 27.4935 7.04149 26.9542 7.04149C26.4149 7.04149 25.9776 7.4788 25.9776 8.01805V21.6774C25.9776 21.7155 25.9804 21.7529 25.9846 21.7898C25.9846 21.7909 25.9846 21.7919 25.9846 21.793C25.6736 21.6964 25.3433 21.6442 25.001 21.6442C24.6607 21.6442 24.3323 21.6959 24.0229 21.7914C24.0233 21.7534 24.0244 21.7155 24.0244 21.6774V11.3342C24.0244 10.7949 23.5871 10.3576 23.0479 10.3576C22.5086 10.3576 22.0713 10.7949 22.0713 11.3342V15.1195C19.9246 11.8382 16.2178 9.66532 12.0123 9.66532C10.2527 9.66532 8.58037 10.0456 7.07295 10.7283L9.42441 7.05018C10.2776 5.71542 11.733 4.91854 13.3173 4.91854H22.3556C22.8948 4.91854 23.3321 4.48124 23.3321 3.94198C23.3321 3.01483 24.0864 2.26044 25.0137 2.26044C25.9408 2.26044 26.6952 3.01473 26.6952 3.94198C26.6952 4.48124 27.1325 4.91854 27.6718 4.91854H36.6871C38.2715 4.91854 39.7267 5.71542 40.58 7.05028L42.932 10.7293C38.5102 8.73934 33.1227 9.55682 29.4958 13.1835Z" stroke="white" stroke-width="0.6" mask="url(#path-1-outside-1)"/>
</svg>
