<svg width="56" height="50" viewBox="0 0 56 50" fill="none" xmlns="http://www.w3.org/2000/svg">
<path d="M54.3461 0H1.54607C0.693559 0 0 0.69345 0 1.54574V48.4543C0 49.3065 0.693559 50 1.54607 50H26.0584C26.5106 50 26.8772 49.6335 26.8772 49.1812C26.8772 48.7289 26.5106 48.3624 26.0584 48.3624H1.63755V13.121L26.0584 13.118C26.5106 13.1179 26.8772 12.7514 26.8771 12.2991C26.877 11.8468 26.5104 11.4803 26.0582 11.4805L1.63755 11.4834V1.63755H54.2576V11.4834L29.837 11.4805C29.3848 11.4805 29.0182 11.8469 29.0182 12.2991C29.0182 12.7514 29.3847 13.1179 29.8369 13.118L54.2576 13.121V48.3624H29.9204C29.4682 48.3624 29.1016 48.7289 29.1016 49.1812C29.1016 49.6335 29.4682 50 29.9204 50H54.3461C55.2002 50 55.8952 49.3065 55.8952 48.4543V1.54574C55.8952 0.69345 55.2002 0 54.3461 0Z" fill="#F98731"/>
<path d="M27.4787 38.6587C29.0888 38.6587 30.3987 37.3491 30.3987 35.7393C30.3987 34.4047 29.498 33.2773 28.2727 32.9306V27.1843C29.4853 26.8295 30.374 25.7082 30.374 24.3826C30.374 22.7711 29.0641 21.4601 27.4539 21.4601C26.6911 21.4601 25.996 21.7546 25.4754 22.2356L20.5394 19.4898C20.5734 19.3118 20.5919 19.1285 20.5919 18.9409C20.5919 17.3312 19.282 16.0215 17.6719 16.0215C16.0601 16.0215 14.7488 17.3312 14.7488 18.9409C14.7488 19.129 14.7673 19.3128 14.8016 19.4912L9.86667 22.2351C9.3455 21.7544 8.64997 21.4602 7.88676 21.4602C6.27661 21.4602 4.96667 22.7712 4.96667 24.3827C4.96667 25.7082 5.85521 26.8295 7.06799 27.1844V32.9457C5.86951 33.3094 4.99462 34.4241 4.99462 35.7394C4.99462 37.3492 6.30456 38.6588 7.9146 38.6588C8.65554 38.6588 9.3324 38.3809 9.84779 37.9247L14.8016 40.6801C14.7673 40.8584 14.7488 41.0423 14.7488 41.2305C14.7488 42.842 16.0601 44.153 17.6719 44.153C19.2821 44.153 20.5919 42.842 20.5919 41.2305C20.5919 41.0423 20.5733 40.8583 20.5391 40.6798L25.5242 37.9063C26.0421 38.3736 26.7277 38.6587 27.4787 38.6587ZM28.7611 35.7393C28.7611 36.4461 28.1858 37.0211 27.4787 37.0211C26.7716 37.0211 26.1961 36.446 26.1961 35.7393C26.1961 35.0327 26.7715 34.4576 27.4787 34.4576C28.1859 34.4576 28.7611 35.0326 28.7611 35.7393ZM27.4539 23.0977C28.1611 23.0977 28.7364 23.6742 28.7364 24.3827C28.7364 25.0896 28.1611 25.6645 27.4539 25.6645C26.7467 25.6645 26.1715 25.0894 26.1715 24.3827C26.1714 23.6742 26.7467 23.0977 27.4539 23.0977ZM17.6718 17.6592C18.379 17.6592 18.9542 18.2343 18.9542 18.941C18.9542 19.6476 18.3789 20.2227 17.6718 20.2227C16.963 20.2227 16.3862 19.6476 16.3862 18.941C16.3862 18.2343 16.963 17.6592 17.6718 17.6592ZM17.6718 21.8603C18.5053 21.8603 19.2577 21.5088 19.7903 20.947L24.6299 23.6392C24.5674 23.8767 24.5338 24.1258 24.5338 24.3827C24.5338 24.6386 24.5672 24.8867 24.6293 25.1234L19.7891 27.8171C19.2566 27.2559 18.5047 26.9051 17.6718 26.9051C16.838 26.9051 16.085 27.2562 15.552 27.8174L10.7138 25.1248C10.7763 24.8877 10.8098 24.6391 10.8098 24.3827C10.8098 24.1254 10.7761 23.8759 10.7133 23.638L15.5518 20.9477C16.0849 21.5091 16.8379 21.8603 17.6718 21.8603ZM17.6718 31.1062C16.963 31.1062 16.3862 30.531 16.3862 29.8244C16.3862 29.1177 16.963 28.5426 17.6718 28.5426C18.379 28.5426 18.9542 29.1177 18.9542 29.8244C18.9542 30.531 18.379 31.1062 17.6718 31.1062ZM6.60423 24.3827C6.60423 23.6743 7.17956 23.0977 7.88676 23.0977C8.59561 23.0977 9.17224 23.6742 9.17224 24.3827C9.17224 24.6293 9.10085 24.8591 8.97923 25.0548C8.97279 25.0652 8.96591 25.075 8.95991 25.0858C8.95914 25.0872 8.95871 25.0885 8.95794 25.0898C8.72748 25.4357 8.33349 25.6646 7.88665 25.6646C7.17956 25.6644 6.60423 25.0894 6.60423 24.3827ZM7.9146 37.0211C7.2074 37.0211 6.63218 36.446 6.63218 35.7393C6.63218 35.0327 7.2075 34.4576 7.9146 34.4576C8.6217 34.4576 9.19713 35.0327 9.19713 35.7393C9.19713 36.446 8.6217 37.0211 7.9146 37.0211ZM10.7228 36.5375C10.7951 36.2837 10.8346 36.0161 10.8346 35.7393C10.8346 34.4036 9.9324 33.2755 8.70554 32.9297V27.1846C9.14386 27.0567 9.53993 26.8291 9.867 26.5277L14.8016 29.2738C14.7673 29.4522 14.7488 29.6362 14.7488 29.8244C14.7488 31.1503 15.6387 32.2718 16.8531 32.6263V38.4286C16.3503 38.5755 15.9035 38.8536 15.552 39.2236L10.7228 36.5375ZM17.6718 42.5153C16.963 42.5153 16.3862 41.9389 16.3862 41.2304C16.3862 40.5235 16.963 39.9486 17.6718 39.9486C18.379 39.9486 18.9542 40.5236 18.9542 41.2304C18.9543 41.9389 18.379 42.5153 17.6718 42.5153ZM18.4906 38.4288V32.626C19.7032 32.2712 20.5918 31.1499 20.5918 29.8243C20.5918 29.6361 20.5732 29.4521 20.5389 29.2737L25.4749 26.5269C25.8016 26.8285 26.1971 27.0563 26.635 27.1843V32.9447C25.435 33.3075 24.5585 34.4229 24.5585 35.7393C24.5585 36.0066 24.5953 36.2653 24.663 36.5115L19.7891 39.2232C19.4384 38.8536 18.9924 38.5756 18.4906 38.4288Z" fill="#F98731"/>
<path d="M34.9489 24.2207H49.5833C50.3232 24.2207 50.9251 23.6203 50.9251 22.8822V19.7237C50.9251 18.9839 50.3232 18.3821 49.5833 18.3821H34.9489C34.2108 18.3821 33.6103 18.9839 33.6103 19.7237V22.8822C33.6103 23.6203 34.2108 24.2207 34.9489 24.2207ZM35.2478 20.0197H49.2876V22.5832H35.2478V20.0197Z" fill="#F98731"/>
<path d="M33.6103 31.6653C33.6103 32.405 34.2108 33.0068 34.9489 33.0068H44.4649C45.2047 33.0068 45.8067 32.405 45.8067 31.6653V28.5066C45.8067 27.7685 45.2047 27.1681 44.4649 27.1681H34.9489C34.2108 27.1681 33.6103 27.7685 33.6103 28.5066V31.6653ZM35.2478 28.8056H44.169V31.3692H35.2478V28.8056Z" fill="#F98731"/>
<path d="M33.6103 40.4478C33.6103 41.1875 34.2108 41.7894 34.9489 41.7894H46.662C47.4019 41.7894 48.0038 41.1875 48.0038 40.4478V37.2892C48.0038 36.5511 47.4019 35.9506 46.662 35.9506H34.9489C34.2108 35.9506 33.6103 36.5511 33.6103 37.2892V40.4478ZM35.2478 37.5883H46.3662V40.1518H35.2478V37.5883Z" fill="#F98731"/>
<path d="M32.5339 6.36901C32.5339 5.91672 32.1673 5.55023 31.7151 5.55023H7.94543C7.49324 5.55023 7.12665 5.91672 7.12665 6.36901C7.12665 6.8213 7.49324 7.18779 7.94543 7.18779H31.715C32.1673 7.18779 32.5339 6.82119 32.5339 6.36901Z" fill="#F98731"/>
<path d="M38.5272 6.95106L38.5302 6.94801C38.85 6.62814 38.8485 6.11133 38.5287 5.79157C38.209 5.4717 37.689 5.47323 37.3692 5.7931C37.0495 6.11297 37.0495 6.63131 37.3692 6.95106C37.529 7.11089 37.7386 7.1908 37.9481 7.1908C38.1576 7.1908 38.3674 7.11089 38.5272 6.95106Z" fill="#F98731"/>
<path d="M42.6522 6.95106L42.6552 6.94801C42.975 6.62814 42.9735 6.11133 42.6537 5.79157C42.334 5.4717 41.814 5.47323 41.4942 5.7931C41.1745 6.11297 41.1745 6.63131 41.4942 6.95106C41.654 7.11089 41.8636 7.1908 42.0731 7.1908C42.2826 7.1908 42.4924 7.11089 42.6522 6.95106Z" fill="#F98731"/>
<path d="M46.7799 6.95106L46.7829 6.94801C47.1027 6.62814 47.1011 6.11133 46.7814 5.79157C46.4616 5.4717 45.9417 5.47323 45.6219 5.7931C45.3021 6.11297 45.3021 6.63131 45.6219 6.95106C45.7817 7.11089 45.9913 7.1908 46.2008 7.1908C46.4103 7.1908 46.62 7.11089 46.7799 6.95106Z" fill="#F98731"/>
</svg>
