<svg width="169" height="241" viewBox="0 0 169 241" fill="none" xmlns="http://www.w3.org/2000/svg">
<rect x="0.000488281" width="169" height="153.636" fill="#E20177"/>
<path d="M46.7685 182.637H52.0365V181.893H47.6325C47.6445 179.649 51.9045 179.253 51.9045 176.421C51.9045 175.101 50.9445 174.057 49.3365 174.057C47.5485 174.057 46.7805 175.581 46.7805 175.581L47.4045 176.001C47.4045 176.001 48.0525 174.849 49.2885 174.849C50.3445 174.849 51.0405 175.545 51.0405 176.469C51.0405 178.749 46.7205 179.133 46.7205 182.097C46.7205 182.265 46.7325 182.445 46.7685 182.637ZM53.5536 182.637H58.8216V181.893H54.4176C54.4296 179.649 58.6896 179.253 58.6896 176.421C58.6896 175.101 57.7296 174.057 56.1216 174.057C54.3336 174.057 53.5656 175.581 53.5656 175.581L54.1896 176.001C54.1896 176.001 54.8376 174.849 56.0736 174.849C57.1296 174.849 57.8256 175.545 57.8256 176.469C57.8256 178.749 53.5056 179.133 53.5056 182.097C53.5056 182.265 53.5176 182.445 53.5536 182.637ZM63.3988 182.781C64.8748 182.781 66.0508 181.713 66.0508 179.961C66.0508 178.365 64.9588 177.237 63.4228 177.237C62.5468 177.237 61.6948 177.621 61.2868 178.221H61.2628C61.4068 176.577 62.3068 174.837 64.0708 174.837C64.7668 174.837 65.2948 175.137 65.2948 175.137L65.6068 174.405C65.6068 174.405 64.9948 174.057 64.0588 174.057C61.4548 174.057 60.3508 176.709 60.3508 178.821C60.3508 181.101 61.5628 182.781 63.3988 182.781ZM63.3868 182.001C62.1268 182.001 61.2508 180.549 61.2508 179.421C61.2508 178.737 62.1628 177.981 63.2908 177.981C64.4428 177.981 65.1988 178.773 65.1988 179.973C65.1988 181.137 64.5268 182.001 63.3868 182.001ZM70.6022 182.637H75.1742V181.893H73.3142V174.201H72.5462L70.6382 176.097L71.1662 176.637L72.0662 175.737C72.4022 175.413 72.4862 175.233 72.4862 175.233H72.5102C72.5102 175.233 72.4982 175.461 72.4982 175.701V181.893H70.6022V182.637ZM79.4147 182.637H83.9867V181.893H82.1267V174.201H81.3587L79.4507 176.097L79.9787 176.637L80.8787 175.737C81.2147 175.413 81.2987 175.233 81.2987 175.233H81.3227C81.3227 175.233 81.3107 175.461 81.3107 175.701V181.893H79.4147V182.637ZM85.0045 182.637H89.5765V181.893H87.7165V174.201H86.9485L85.0405 176.097L85.5685 176.637L86.4685 175.737C86.8045 175.413 86.8885 175.233 86.8885 175.233H86.9125C86.9125 175.233 86.9005 175.461 86.9005 175.701V181.893H85.0045V182.637ZM92.5624 182.781C95.1784 182.781 96.2704 180.129 96.2704 178.017C96.2704 175.737 95.0584 174.057 93.2224 174.057C91.7464 174.057 90.5824 175.125 90.5824 176.877C90.5824 178.473 91.6624 179.601 93.1984 179.601C94.0744 179.601 94.9264 179.217 95.3464 178.617H95.3704C95.2144 180.261 94.3264 182.001 92.5504 182.001C91.8544 182.001 91.3264 181.701 91.3264 181.701L91.0144 182.433C91.0144 182.433 91.6384 182.781 92.5624 182.781ZM93.3304 178.857C92.1784 178.857 91.4224 178.065 91.4224 176.865C91.4224 175.701 92.0944 174.837 93.2344 174.837C94.4944 174.837 95.3704 176.289 95.3704 177.417C95.3704 178.101 94.4704 178.857 93.3304 178.857Z" fill="#404040"/>
<path d="M49.7565 202.781C51.9525 202.781 52.6605 200.861 52.6605 198.413C52.6605 195.989 51.9525 194.057 49.7565 194.057C47.5605 194.057 46.8405 195.989 46.8405 198.413C46.8405 200.861 47.5605 202.781 49.7565 202.781ZM49.7565 202.001C48.1485 202.001 47.7045 200.429 47.7045 198.413C47.7045 196.409 48.1485 194.837 49.7565 194.837C51.3525 194.837 51.7965 196.409 51.7965 198.413C51.7965 200.429 51.3525 202.001 49.7565 202.001ZM57.3951 202.637H61.9671V201.893H60.1071V194.201H59.3391L57.4311 196.097L57.9591 196.637L58.8591 195.737C59.1951 195.413 59.2791 195.233 59.2791 195.233H59.3031C59.3031 195.233 59.2911 195.461 59.2911 195.701V201.893H57.3951V202.637ZM66.069 202.781C68.265 202.781 68.973 200.861 68.973 198.413C68.973 195.989 68.265 194.057 66.069 194.057C63.873 194.057 63.153 195.989 63.153 198.413C63.153 200.861 63.873 202.781 66.069 202.781ZM66.069 202.001C64.461 202.001 64.017 200.429 64.017 198.413C64.017 196.409 64.461 194.837 66.069 194.837C67.665 194.837 68.109 196.409 68.109 198.413C68.109 200.429 67.665 202.001 66.069 202.001ZM73.569 202.781C75.765 202.781 76.473 200.861 76.473 198.413C76.473 195.989 75.765 194.057 73.569 194.057C71.373 194.057 70.653 195.989 70.653 198.413C70.653 200.861 71.373 202.781 73.569 202.781ZM73.569 202.001C71.961 202.001 71.517 200.429 71.517 198.413C71.517 196.409 71.961 194.837 73.569 194.837C75.165 194.837 75.609 196.409 75.609 198.413C75.609 200.429 75.165 202.001 73.569 202.001ZM80.9436 200.297H85.1676V202.637H85.9956V200.297H87.1956V199.565H85.9956V194.201H85.0956L80.9436 199.757V200.297ZM81.9516 199.565V199.541L84.7596 195.881C84.9876 195.581 85.1796 195.245 85.1796 195.245H85.2036C85.2036 195.245 85.1676 195.677 85.1676 196.037V199.565H81.9516ZM88.8598 202.637H89.7238L93.6358 194.777V194.201H88.1518V194.945H92.0998C92.5198 194.945 92.7358 194.921 92.7358 194.921V194.945C92.7358 194.945 92.4958 195.269 92.2678 195.725L88.8598 202.637ZM97.8248 202.637H102.397V201.893H100.537V194.201H99.7688L97.8608 196.097L98.3888 196.637L99.2888 195.737C99.6248 195.413 99.7088 195.233 99.7088 195.233H99.7328C99.7328 195.233 99.7208 195.461 99.7208 195.701V201.893H97.8248V202.637ZM103.415 202.637H107.987V201.893H106.127V194.201H105.359L103.451 196.097L103.979 196.637L104.879 195.737C105.215 195.413 105.299 195.233 105.299 195.233H105.323C105.323 195.233 105.311 195.461 105.311 195.701V201.893H103.415V202.637Z" fill="#404040"/>
<path d="M47.8605 221.637H48.5925L49.0005 219.297H51.0765L50.6685 221.637H51.4005L51.8085 219.297H53.4885L53.5965 218.625H51.9285L52.3365 216.273H54.0165L54.1365 215.601H52.4565L52.8765 213.201H52.1445L51.7245 215.601H49.6485L50.0685 213.201H49.3365L48.9165 215.601H47.2125L47.1045 216.273H48.7965L48.3765 218.625H46.6845L46.5645 219.297H48.2685L47.8605 221.637ZM49.1205 218.625L49.5285 216.273H51.6045L51.1845 218.625H49.1205ZM55.9081 221.637H60.8761V220.893H56.7361V217.761H59.9401V217.017H56.7361V213.945H60.6601V213.201H55.9081V221.637ZM62.3076 221.637H67.5756V220.893H63.1716C63.1836 218.649 67.4436 218.253 67.4436 215.421C67.4436 214.101 66.4836 213.057 64.8756 213.057C63.0876 213.057 62.3196 214.581 62.3196 214.581L62.9436 215.001C62.9436 215.001 63.5916 213.849 64.8276 213.849C65.8836 213.849 66.5796 214.545 66.5796 215.469C66.5796 217.749 62.2596 218.133 62.2596 221.097C62.2596 221.265 62.2716 221.445 62.3076 221.637ZM72.0807 221.781C74.2767 221.781 74.9847 219.861 74.9847 217.413C74.9847 214.989 74.2767 213.057 72.0807 213.057C69.8847 213.057 69.1647 214.989 69.1647 217.413C69.1647 219.861 69.8847 221.781 72.0807 221.781ZM72.0807 221.001C70.4727 221.001 70.0287 219.429 70.0287 217.413C70.0287 215.409 70.4727 213.837 72.0807 213.837C73.6767 213.837 74.1207 215.409 74.1207 217.413C74.1207 219.429 73.6767 221.001 72.0807 221.001ZM76.4967 221.637H81.0687V220.893H79.2087V213.201H78.4407L76.5327 215.097L77.0607 215.637L77.9607 214.737C78.2967 214.413 78.3807 214.233 78.3807 214.233H78.4047C78.4047 214.233 78.3927 214.461 78.3927 214.701V220.893H76.4967V221.637ZM82.5786 221.637H83.4426L87.3546 213.777V213.201H81.8706V213.945H85.8186C86.2386 213.945 86.4546 213.921 86.4546 213.921V213.945C86.4546 213.945 86.2146 214.269 85.9866 214.725L82.5786 221.637ZM88.8129 221.637H89.6769L93.5889 213.777V213.201H88.1049V213.945H92.0529C92.4729 213.945 92.6889 213.921 92.6889 213.921V213.945C92.6889 213.945 92.4489 214.269 92.2209 214.725L88.8129 221.637Z" fill="#404040"/>
<path d="M47.2245 240.637H48.0525V237.085H50.1765L52.0845 240.637H53.0325L51.1965 237.241C51.0645 237.013 50.9805 236.905 50.9805 236.905V236.881C51.9285 236.617 52.5765 235.741 52.5765 234.601C52.5765 233.581 52.0965 232.777 51.3045 232.429C50.9685 232.285 50.5845 232.201 49.7205 232.201H47.2245V240.637ZM48.0525 236.341V232.945H49.7565C50.4045 232.945 50.7045 233.017 50.9565 233.149C51.4485 233.413 51.7245 233.929 51.7245 234.625C51.7245 235.681 51.0765 236.341 50.0565 236.341H48.0525ZM54.4356 238.441C54.4356 240.013 55.0356 240.781 56.4516 240.781C57.7836 240.781 58.5756 239.845 58.8156 239.257H58.8396C58.8396 239.257 58.8156 239.473 58.8156 239.737V240.637H59.6076V234.601H58.7916V237.493C58.7916 238.801 57.9396 240.013 56.5596 240.013C55.3956 240.013 55.2516 239.173 55.2516 238.225V234.601H54.4356V238.441ZM61.5743 240.637H62.3663V240.097C62.3663 239.809 62.3423 239.605 62.3423 239.605H62.3663C62.3663 239.605 62.9063 240.781 64.3463 240.781C65.9303 240.781 67.0703 239.533 67.0703 237.625C67.0703 235.753 66.0623 234.457 64.4423 234.457C62.8943 234.457 62.3903 235.621 62.3903 235.621H62.3663C62.3663 235.621 62.3903 235.405 62.3903 235.129V232.201H61.5743V240.637ZM62.3663 237.637C62.3663 235.921 63.3143 235.201 64.3223 235.201C65.4503 235.201 66.2303 236.149 66.2303 237.625C66.2303 239.161 65.3543 240.061 64.2863 240.061C62.9903 240.061 62.3663 238.849 62.3663 237.637ZM68.6167 233.221H69.4687V232.201H68.6167V233.221ZM68.6407 240.637H69.4567V234.601H68.6407V240.637ZM71.4298 240.637H72.2458V237.745C72.2458 237.457 72.2698 237.181 72.3418 236.929C72.6178 235.933 73.5058 235.225 74.5378 235.225C75.7018 235.225 75.8458 236.065 75.8458 237.013V240.637H76.6618V236.797C76.6618 235.309 76.1338 234.457 74.6458 234.457C73.2178 234.457 72.4498 235.429 72.2338 235.981H72.2098C72.2098 235.981 72.2338 235.765 72.2338 235.501V234.601H71.4298V240.637ZM78.1231 237.625C78.1231 239.485 79.4791 240.781 81.2791 240.781C82.6351 240.781 83.5111 239.941 83.5111 239.941L83.1391 239.317C83.1391 239.317 82.4071 240.049 81.3031 240.049C80.0551 240.049 78.9991 239.209 78.9631 237.661H83.5951C83.5951 237.661 83.6191 237.385 83.6191 237.241C83.6191 235.741 82.7671 234.457 81.0991 234.457C79.4671 234.457 78.1231 235.645 78.1231 237.625ZM78.9991 236.989C79.1911 235.777 80.0671 235.141 81.0751 235.141C81.9751 235.141 82.7431 235.729 82.7911 236.989H78.9991ZM88.6386 240.637H89.4666V237.085H91.5906L93.4986 240.637H94.4466L92.6106 237.241C92.4786 237.013 92.3946 236.905 92.3946 236.905V236.881C93.3426 236.617 93.9906 235.741 93.9906 234.601C93.9906 233.581 93.5106 232.777 92.7186 232.429C92.3826 232.285 91.9986 232.201 91.1346 232.201H88.6386V240.637ZM89.4666 236.341V232.945H91.1706C91.8186 232.945 92.1186 233.017 92.3706 233.149C92.8626 233.413 93.1386 233.929 93.1386 234.625C93.1386 235.681 92.4906 236.341 91.4706 236.341H89.4666ZM95.5137 237.625C95.5137 239.485 96.8697 240.781 98.6697 240.781C100.026 240.781 100.902 239.941 100.902 239.941L100.53 239.317C100.53 239.317 99.7977 240.049 98.6937 240.049C97.4457 240.049 96.3897 239.209 96.3537 237.661H100.986C100.986 237.661 101.01 237.385 101.01 237.241C101.01 235.741 100.158 234.457 98.4897 234.457C96.8577 234.457 95.5137 235.645 95.5137 237.625ZM96.3897 236.989C96.5817 235.777 97.4577 235.141 98.4657 235.141C99.3657 235.141 100.134 235.729 100.182 236.989H96.3897ZM102.171 237.613C102.171 239.485 103.179 240.781 104.799 240.781C106.383 240.781 106.875 239.569 106.875 239.569H106.899C106.899 239.569 106.875 239.737 106.875 240.001V240.637H107.667V232.201H106.851V235.141C106.851 235.393 106.875 235.597 106.875 235.597H106.851C106.851 235.597 106.347 234.457 104.883 234.457C103.299 234.457 102.171 235.705 102.171 237.613ZM103.011 237.613C103.011 236.089 103.887 235.189 104.955 235.189C106.251 235.189 106.875 236.389 106.875 237.613C106.875 239.329 105.927 240.049 104.919 240.049C103.791 240.049 103.011 239.101 103.011 237.613ZM112.532 236.365C112.532 238.825 114.308 240.781 116.804 240.781C118.88 240.781 120.032 239.473 120.032 239.473L119.552 238.885C119.552 238.885 118.52 240.013 116.816 240.013C114.812 240.013 113.396 238.369 113.396 236.353C113.396 234.361 114.812 232.825 116.792 232.825C118.376 232.825 119.36 233.761 119.36 233.761L119.804 233.149C119.804 233.149 118.784 232.057 116.768 232.057C114.356 232.057 112.532 233.917 112.532 236.365Z" fill="#404040"/>
<path d="M1.22449 182.637H2.05249V179.085H4.17649L6.08449 182.637H7.03249L5.19649 179.241C5.06449 179.013 4.98049 178.905 4.98049 178.905V178.881C5.92849 178.617 6.57649 177.741 6.57649 176.601C6.57649 175.581 6.09649 174.777 5.30449 174.429C4.96849 174.285 4.58449 174.201 3.72049 174.201H1.22449V182.637ZM2.05249 178.341V174.945H3.75649C4.40449 174.945 4.70449 175.017 4.95649 175.149C5.44849 175.413 5.72449 175.929 5.72449 176.625C5.72449 177.681 5.07649 178.341 4.05649 178.341H2.05249ZM8.19564 178.413C8.19564 180.921 10.0196 182.781 12.3236 182.781C14.0996 182.781 15.0716 181.641 15.0716 181.641H15.0956C15.0956 181.641 15.0836 181.821 15.0836 182.001V182.637H15.8516V178.605H13.6196V179.349H15.0596V180.777C15.0596 180.777 14.0516 182.013 12.4076 182.013C10.4876 182.013 9.05964 180.477 9.05964 178.401C9.05964 176.397 10.4396 174.825 12.4796 174.825C14.0156 174.825 14.9996 175.665 14.9996 175.665L15.4436 175.041C15.4436 175.041 14.3996 174.057 12.4436 174.057C10.0196 174.057 8.19564 175.977 8.19564 178.413ZM17.8534 182.637H20.8294C22.2454 182.637 23.3614 181.773 23.3614 180.273C23.3614 179.253 22.8094 178.425 21.9454 178.185V178.161C22.5934 177.837 23.0134 177.201 23.0134 176.325C23.0134 175.005 22.0654 174.201 20.7334 174.201H17.8534V182.637ZM18.6814 177.861V174.945H20.7214C21.6214 174.945 22.1614 175.521 22.1614 176.385C22.1614 177.261 21.5854 177.861 20.7334 177.861H18.6814ZM18.6814 181.893V178.581H20.8294C21.8134 178.581 22.4974 179.241 22.4974 180.249C22.4974 181.257 21.8614 181.893 20.8414 181.893H18.6814Z" fill="#404040"/>
<path d="M0.660488 198.365C0.660488 200.825 2.43649 202.781 4.93249 202.781C7.00849 202.781 8.16049 201.473 8.16049 201.473L7.68049 200.885C7.68049 200.885 6.64849 202.013 4.94449 202.013C2.94049 202.013 1.52449 200.369 1.52449 198.353C1.52449 196.361 2.94049 194.825 4.92049 194.825C6.50449 194.825 7.48849 195.761 7.48849 195.761L7.93249 195.149C7.93249 195.149 6.91249 194.057 4.89649 194.057C2.48449 194.057 0.660488 195.917 0.660488 198.365ZM9.69096 202.637H10.519L10.987 196.733C11.023 196.277 11.011 195.533 11.011 195.533H11.035C11.035 195.533 11.299 196.313 11.491 196.733L13.471 201.065H14.251L16.231 196.733C16.423 196.301 16.675 195.557 16.675 195.557H16.699C16.699 195.557 16.687 196.277 16.723 196.733L17.191 202.637H18.019L17.347 194.201H16.495L14.287 199.157C14.095 199.589 13.867 200.189 13.867 200.189H13.843C13.843 200.189 13.627 199.589 13.435 199.157L11.227 194.201H10.363L9.69096 202.637ZM21.8917 202.637H22.7317V199.013L25.5637 194.201H24.6277L22.8397 197.261C22.5757 197.705 22.3237 198.269 22.3237 198.269H22.2997C22.2997 198.269 22.0357 197.693 21.7837 197.261L19.9957 194.201H19.0477L21.8917 199.013V202.637ZM26.9823 202.637H27.8103V198.605H29.2383L31.6503 202.637H32.6223L29.9343 198.209V198.185L32.4543 194.201H31.5063L29.2383 197.861H27.8103V194.201H26.9823V202.637Z" fill="#404040"/>
<path d="M1.22449 221.637H2.05249V217.785H6.94849V221.637H7.77649V213.201H6.94849V217.041H2.05249V213.201H1.22449V221.637ZM10.2245 221.637H15.1925V220.893H11.0525V217.761H14.2565V217.017H11.0525V213.945H14.9765V213.201H10.2245V221.637ZM16.168 221.637H17.128L18.856 218.733C19.12 218.289 19.372 217.785 19.372 217.785H19.396C19.396 217.785 19.66 218.289 19.924 218.721L21.676 221.637H22.636L19.936 217.233L22.408 213.201H21.424L19.936 215.697C19.672 216.129 19.432 216.669 19.432 216.669H19.408C19.408 216.669 19.108 216.129 18.856 215.697L17.38 213.201H16.408L18.856 217.233L16.168 221.637Z" fill="#404040"/>
<path d="M1.22449 240.637H2.05249V237.325H4.14049C5.65249 237.325 6.74449 236.317 6.74449 234.745C6.74449 233.185 5.65249 232.201 4.14049 232.201H1.22449V240.637ZM2.05249 236.581V232.945H4.04449C5.16049 232.945 5.89249 233.605 5.89249 234.745C5.89249 235.897 5.16049 236.581 4.03249 236.581H2.05249ZM8.13236 240.637H8.96036L9.42836 234.733C9.46436 234.277 9.45236 233.533 9.45236 233.533H9.47636C9.47636 233.533 9.74036 234.313 9.93236 234.733L11.9124 239.065H12.6924L14.6724 234.733C14.8644 234.301 15.1164 233.557 15.1164 233.557H15.1404C15.1404 233.557 15.1284 234.277 15.1644 234.733L15.6324 240.637H16.4604L15.7884 232.201H14.9364L12.7284 237.157C12.5364 237.589 12.3084 238.189 12.3084 238.189H12.2844C12.2844 238.189 12.0684 237.589 11.8764 237.157L9.66836 232.201H8.80436L8.13236 240.637ZM18.0146 239.701C18.0146 239.701 18.9626 240.781 20.6906 240.781C22.2746 240.781 23.2466 239.761 23.2466 238.501C23.2466 235.729 19.0346 236.305 19.0346 234.301C19.0346 233.557 19.7306 232.849 20.8106 232.849C21.9146 232.849 22.6586 233.569 22.6586 233.569L23.0666 232.873C23.0666 232.873 22.2746 232.057 20.8106 232.057C19.2506 232.057 18.1826 233.113 18.1826 234.325C18.1826 236.941 22.3946 236.401 22.3946 238.525C22.3946 239.437 21.6386 239.989 20.7146 239.989C19.3826 239.989 18.5066 239.065 18.5066 239.065L18.0146 239.701Z" fill="#404040"/>
</svg>
