<svg width="460" height="382" viewBox="0 0 460 382" fill="none" xmlns="http://www.w3.org/2000/svg">
<path opacity="0.08" d="M0 357.774C0 371.033 103.005 381.735 230.043 381.682C357.081 381.63 460 370.851 460 357.591C460 344.332 356.995 333.631 229.957 333.683C102.918 333.735 0 344.436 0 357.774Z" fill="#F98731"/>
<path d="M148.792 53.9836C148.792 53.9836 154.16 66.7267 142.94 73.1357C131.719 79.5448 173.692 89.9395 177.748 74.9061C177.748 74.9061 166.262 70.4688 170.967 56.0962L148.792 53.9836Z" fill="#DC9C9C"/>
<path d="M168.889 319.689L168.606 333.942L179.394 335.685L179.045 321.449L168.889 319.689Z" fill="#FFB9B9"/>
<path d="M128.462 320.784L129.442 335.003L118.754 337.327L118.405 323.091L128.462 320.784Z" fill="#FFB9B9"/>
<path d="M161.414 65.6253C171.182 65.3607 178.867 55.6077 178.579 43.8415C178.291 32.0752 170.138 22.7513 160.37 23.0159C150.602 23.2805 142.917 33.0335 143.205 44.7997C143.493 56.566 151.646 65.89 161.414 65.6253Z" fill="#FFB9B9"/>
<path d="M188.841 179.41L188.342 184.849L191.816 197.644L195.955 186.001L188.841 179.41Z" fill="#FFB9B9"/>
<path d="M118.775 183.343L116.164 231.576C116.164 231.576 111.958 240.508 114.667 247.897C114.667 247.897 111.126 258.168 112.472 261.523C113.819 264.878 114.533 268.251 113.303 269.641C112.073 271.031 112.371 309.01 114.349 312.348C116.327 315.686 117.79 323.787 117.79 323.787C117.79 323.787 128.595 326.207 130.939 318.682C133.283 311.157 132.003 310.513 134.48 308.411C136.956 306.309 136.259 277.837 136.259 277.837C136.259 277.837 133.018 274.533 134.88 273.126C136.742 271.719 138.038 273.041 136.06 269.702C134.082 266.364 130.924 266.45 134.049 265.009C135.791 264.229 137.46 263.275 139.036 262.16L156.093 210.144C156.093 210.144 164.452 267.577 165.782 270.254C167.111 272.931 168.923 269.49 167.111 272.931C165.299 276.372 164.618 274.356 165.299 276.372C165.981 278.389 162.273 307.658 164.949 313.69C166.51 317.177 167.865 320.765 169.005 324.434C169.005 324.434 179.228 328.906 180.408 325.482C181.588 322.058 180.807 315.974 182.686 315.245C184.564 314.516 186.426 313.109 186.293 307.686C186.16 302.262 189.303 275.722 189.303 275.722C189.303 275.722 184.831 273.808 186.012 270.384C187.192 266.961 187.209 267.638 186.511 264.944C185.813 262.25 184.533 261.606 185.746 259.538C186.96 257.47 186.81 251.369 186.81 251.369L193.079 197.61L186.777 179.466L118.775 183.343Z" fill="#2F2E41"/>
<path d="M169.786 330.518C169.786 330.518 167.841 328.536 167.259 330.587C166.677 332.637 167.142 351.618 167.142 351.618C167.142 351.618 172.295 355.549 172.345 357.583C172.395 359.616 176.351 366.292 185.161 364.697C185.249 364.681 185.336 364.665 185.422 364.648C186.697 364.39 187.898 363.818 188.931 362.976C189.964 362.134 190.8 361.046 191.373 359.798C191.946 358.549 192.24 357.174 192.233 355.782C192.225 354.389 191.916 353.018 191.329 351.775L181.821 331.549C181.821 331.549 175.338 324.941 169.786 330.518Z" fill="#2F2E41"/>
<path d="M128.096 331.648C128.096 331.648 129.941 329.563 130.623 331.579C131.304 333.596 131.769 352.577 131.769 352.577C131.769 352.577 126.815 356.781 126.865 358.815C126.915 360.848 123.291 367.73 114.414 366.614C114.325 366.603 114.237 366.591 114.151 366.578C112.865 366.39 111.637 365.884 110.565 365.099C109.492 364.314 108.604 363.273 107.971 362.057C107.337 360.841 106.976 359.484 106.915 358.093C106.855 356.702 107.096 355.316 107.621 354.043L116.127 333.328C116.127 333.328 122.278 326.378 128.096 331.648Z" fill="#2F2E41"/>
<path d="M146.852 22.2703L143.658 20.9982C143.658 20.9982 150.074 13.0126 159.284 13.4425L156.624 10.4577C156.624 10.4577 162.877 7.57116 168.797 14.5433C171.909 18.2084 175.512 22.518 177.812 27.4204L181.196 27.3287L179.865 30.7045L184.891 33.9082L179.802 33.4462C180.353 36.3146 180.261 39.2818 179.534 42.1032L179.734 44.7376C179.734 44.7376 173.614 35.131 173.58 33.7734L173.663 37.1676C173.663 37.1676 170.429 34.1984 170.379 32.1619L168.713 34.5845L167.76 30.8742L157.222 34.8958L158.871 31.7944L152.289 32.9916L154.783 29.1879C154.783 29.1879 147.422 33.8027 147.226 37.5441C147.03 41.2855 143.412 46.1385 143.412 46.1385L141.605 42.791C141.605 42.791 138.645 27.5873 146.852 22.2703Z" fill="#2F2E41"/>
<path d="M189.027 83.7582L196.064 83.5675C196.582 83.5532 197.088 83.7283 197.5 84.0638C197.913 84.3994 198.207 84.8755 198.334 85.4138C199.546 90.5451 202.703 105.098 202.474 116.633C202.191 130.886 203.703 141.02 203.121 143.071C202.539 145.121 203.188 145.782 203.237 147.816C203.287 149.85 205.149 148.442 203.32 151.205C201.492 153.968 201.475 153.29 201.525 155.324C201.575 157.358 196.022 188.712 196.022 188.712C196.022 188.712 191.491 181.17 186.75 182.756L186.98 155.04L187.961 143.481L185.568 123.196L189.027 83.7582Z" fill="#3F3D56"/>
<path d="M158.216 77.4702C158.216 77.4702 147.468 77.3423 143.874 72.5616C143.874 72.5616 121.646 81.1743 119.285 88.0217C116.924 94.8691 129.042 125.066 129.042 125.066C129.042 125.066 110.987 187.963 120.462 187.706C129.937 187.45 151.613 195.002 164.13 189.915C171.887 186.789 179.856 184.306 187.968 182.486C187.968 182.486 188.783 164.148 187.437 160.793C186.09 157.438 182.982 159.557 184.76 154.761C186.539 149.964 185.891 149.303 185.209 147.287C184.528 145.27 186.357 142.507 186.29 139.796C186.224 137.084 185.443 131 185.443 131C185.443 131 201.452 87.8308 197.562 83.8661C193.673 79.9014 174.189 72.587 174.189 72.587C174.189 72.587 169.021 79.8909 158.216 77.4702Z" fill="#3F3D56"/>
<path d="M111.311 188.293C111.311 188.293 106.407 220.308 115.815 217.34C125.224 214.372 120.155 188.054 120.155 188.054L111.311 188.293Z" fill="#FFB9B9"/>
<path d="M123.333 85.5379L121.119 86.8024C120.257 87.2946 119.513 87.9943 118.946 88.8468C118.379 89.6992 118.003 90.6811 117.848 91.7158L110.199 142.875C110.199 142.875 107.822 149.044 107.838 149.722C107.855 150.4 109.118 150.366 107.905 152.433C106.691 154.501 104.779 153.875 106.076 155.196C106.814 155.88 107.288 156.835 107.406 157.874L109.482 191.056C109.482 191.056 120.138 187.376 123.379 190.68C123.379 190.68 119.972 180.597 121.784 177.156C123.596 173.715 123.48 168.97 123.48 168.97C123.48 168.97 122.216 169.004 125.292 165.529C128.367 162.054 128.965 160.681 128.317 160.021C127.669 159.36 126.888 153.276 126.871 152.598C126.855 151.92 132.059 106.33 132.059 106.33L123.333 85.5379Z" fill="#3F3D56"/>
<path d="M225.341 164.149L224.427 161.056C224.26 160.488 223.96 159.967 223.553 159.538C223.146 159.108 222.642 158.781 222.083 158.584L216.729 156.745C215.673 156.384 214.546 156.28 213.442 156.441C212.338 156.601 211.288 157.023 210.379 157.67L209.207 158.49C210.379 163.716 215.499 168.508 215.499 168.508L216.799 170.031C217.059 170.351 217.38 170.617 217.743 170.813C218.106 171.009 218.505 171.131 218.915 171.173C219.326 171.214 219.741 171.174 220.135 171.054C220.53 170.935 220.898 170.738 221.216 170.476L224.274 167.922C224.798 167.464 225.177 166.863 225.367 166.194C225.556 165.524 225.547 164.814 225.341 164.149Z" fill="#FFC3BD"/>
<path d="M196.115 101.074C195.79 101.919 195.573 102.517 195.326 103.221C195.08 103.925 194.873 104.57 194.656 105.238C194.222 106.587 193.848 107.948 193.483 109.297C192.766 112.027 192.167 114.799 191.689 117.602C191.195 120.432 190.846 123.296 190.644 126.177C190.428 129.102 190.375 132.041 190.486 134.974V135.479C190.499 135.799 190.539 136.117 190.604 136.429C190.994 138.177 191.574 139.857 192.33 141.426C192.954 142.718 193.638 143.967 194.38 145.168C195.745 147.362 197.23 149.446 198.826 151.408C200.384 153.308 201.981 155.103 203.627 156.816C205.273 158.528 206.949 160.135 208.783 161.683C209.402 162.196 210.153 162.435 210.905 162.358C211.657 162.282 212.363 161.894 212.9 161.263C213.437 160.632 213.772 159.798 213.847 158.904C213.921 158.01 213.73 157.114 213.307 156.37V156.288L209.808 150.258C208.654 148.241 207.511 146.247 206.446 144.241C205.382 142.235 204.366 140.229 203.489 138.317C203.087 137.419 202.728 136.495 202.414 135.549C202.187 134.9 202.034 134.217 201.961 133.52L202.089 134.974C202.257 132.628 202.464 130.341 202.819 127.995C203.173 125.649 203.587 123.303 204.1 120.957C204.613 118.611 205.184 116.265 205.825 113.989C206.141 112.816 206.486 111.643 206.811 110.564L207.333 108.886L207.817 107.373L207.945 106.974C208.495 105.134 208.433 103.112 207.771 101.324C207.108 99.5365 205.896 98.1182 204.383 97.3603C202.869 96.6025 201.169 96.5626 199.632 97.2488C198.095 97.9351 196.836 99.2954 196.115 101.051V101.074Z" fill="#FFC3BD"/>
<path d="M222.766 51.7361C215.631 40.2425 218.455 33.4705 226.281 32.1115L257.575 43.8862C268.706 57.3247 247.031 56.5398 259.052 67.2484C271.072 77.957 236.369 91.5713 219.31 77.5821C202.251 63.5929 229.89 63.2297 222.766 51.7361Z" fill="#263238"/>
<path d="M257.15 354.776L266.98 352.597C265.609 343.224 265.105 332.328 263.957 326.54L252.604 328.122L257.15 354.776Z" fill="#FFC3BD"/>
<path d="M208.408 356.37L217.664 356.288C218.519 346.915 221.823 335.737 222.14 329.832L210.705 329.551L208.408 356.37Z" fill="#FFC3BD"/>
<path d="M250.46 364.161C258.286 362.509 257.701 362.509 262.059 361.419C265.797 360.494 266.804 360.763 269.815 360.06C272.334 359.463 271.725 357.072 270.354 354.448C269.757 353.276 268.948 351.976 268.093 350.242C267.979 349.999 267.786 349.803 267.545 349.686C267.304 349.569 267.03 349.537 266.769 349.598L256.459 351.788C256.255 351.831 256.066 351.927 255.911 352.067C255.757 352.207 255.642 352.386 255.58 352.585C254.92 354.306 253.879 355.855 252.536 357.117C251.193 358.379 249.582 359.321 247.824 359.873C243.747 361.337 247.344 364.829 250.46 364.161Z" fill="#263238"/>
<path d="M196.317 364.161C202.035 364.161 205.819 363.645 210.26 363.493C214.067 363.364 214.583 364.161 218.461 364.161C221.003 364.161 221.718 361.302 221.074 359.146C220.448 357.51 219.916 355.84 219.48 354.143C219.431 353.9 219.296 353.681 219.101 353.527C218.906 353.373 218.663 353.292 218.414 353.3H207.776C207.576 353.306 207.38 353.357 207.201 353.448C207.023 353.539 206.867 353.669 206.745 353.827C205.438 355.597 203.745 357.045 201.794 358.06C199.842 359.075 197.685 359.631 195.486 359.685C191.151 360.025 193.177 364.161 196.317 364.161Z" fill="#263238"/>
<path d="M205.872 149.813C205.872 149.813 201.654 206.39 203.33 242.371C201.537 276.102 208.772 342.462 208.96 344.185C209.147 345.907 218.227 345.227 219.809 344.185C219.809 344.185 229.375 297.085 224.419 242.371C245.918 185.301 243.516 149.813 243.516 149.813H205.872Z" fill="#F98731"/>
<path opacity="0.2" d="M227.195 172.519C230.546 173.069 239.532 179.455 240.704 183.485C238.346 197.159 235.042 210.654 230.816 223.871C225.403 208.827 224.512 187.117 227.195 172.519Z" fill="black"/>
<path d="M217.167 149.813C217.167 149.813 232.726 213.678 240.189 245.03C248.015 277.965 250.067 321.303 253.359 342.966C255.409 343.646 261.876 342.345 265.239 340.447C265.239 340.447 272.5 297 263.153 246.495C267.429 168.477 249.093 149.813 249.093 149.813H217.167Z" fill="#F98731"/>
<path d="M252.043 338.701C252.323 340.183 252.499 341.682 252.57 343.189C252.571 343.315 252.598 343.441 252.65 343.556C252.701 343.672 252.776 343.776 252.869 343.862C252.963 343.947 253.073 344.013 253.193 344.054C253.312 344.096 253.439 344.112 253.566 344.103C258.065 343.88 264.11 341.525 266.067 340.74C266.245 340.669 266.397 340.544 266.5 340.382C266.603 340.22 266.652 340.03 266.641 339.838L266.418 335.585C266.41 335.446 266.372 335.311 266.306 335.189C266.239 335.066 266.147 334.96 266.035 334.877C265.924 334.795 265.795 334.737 265.659 334.71C265.523 334.682 265.382 334.685 265.247 334.718L252.734 337.635C252.504 337.691 252.305 337.833 252.176 338.031C252.048 338.229 252 338.469 252.043 338.701Z" fill="#263238"/>
<path opacity="0.1" d="M252.043 338.701C252.323 340.183 252.499 341.682 252.57 343.189C252.571 343.315 252.598 343.441 252.65 343.556C252.701 343.672 252.776 343.776 252.869 343.862C252.963 343.947 253.073 344.013 253.193 344.054C253.312 344.096 253.439 344.112 253.566 344.103C258.065 343.88 264.11 341.525 266.067 340.74C266.245 340.669 266.397 340.544 266.5 340.382C266.603 340.22 266.652 340.03 266.641 339.838L266.418 335.585C266.41 335.446 266.372 335.311 266.306 335.189C266.239 335.066 266.147 334.96 266.035 334.877C265.924 334.795 265.795 334.737 265.659 334.71C265.523 334.682 265.382 334.685 265.247 334.718L252.734 337.635C252.504 337.691 252.305 337.833 252.176 338.031C252.048 338.229 252 338.469 252.043 338.701Z" fill="white"/>
<path d="M207.941 339.381C207.859 340.553 207.683 342.65 207.507 344.185C207.48 344.428 207.55 344.672 207.701 344.865C207.852 345.058 208.073 345.183 208.315 345.216C212.32 345.568 216.348 345.544 220.348 345.145C220.542 345.126 220.725 345.047 220.872 344.919C221.019 344.791 221.123 344.62 221.168 344.431L222.164 340.236C222.199 340.101 222.203 339.96 222.177 339.822C222.15 339.685 222.093 339.556 222.01 339.444C221.927 339.331 221.82 339.239 221.696 339.173C221.573 339.108 221.437 339.071 221.297 339.065L208.972 338.573C208.728 338.546 208.484 338.616 208.291 338.767C208.099 338.918 207.973 339.138 207.941 339.381Z" fill="#263238"/>
<path opacity="0.1" d="M207.941 339.381C207.859 340.553 207.683 342.65 207.507 344.185C207.48 344.428 207.55 344.672 207.701 344.865C207.852 345.058 208.073 345.183 208.315 345.216C212.32 345.568 216.348 345.544 220.348 345.145C220.542 345.126 220.725 345.047 220.872 344.919C221.019 344.791 221.123 344.62 221.168 344.431L222.164 340.236C222.199 340.101 222.203 339.96 222.177 339.822C222.15 339.685 222.093 339.556 222.01 339.444C221.927 339.331 221.82 339.239 221.696 339.173C221.573 339.108 221.437 339.071 221.297 339.065L208.972 338.573C208.728 338.546 208.484 338.616 208.291 338.767C208.099 338.918 207.973 339.138 207.941 339.381Z" fill="white"/>
<path d="M216.674 84.0729C208.567 83.8502 200.705 91.4072 195.738 99.9483C196.909 105.408 209.176 114.43 209.176 114.43C209.176 114.43 227.348 96.9021 216.674 84.0729Z" fill="#263238"/>
<path d="M203.423 98.9642C203.184 105.553 203.282 112.15 203.716 118.729C204.044 127.306 204.629 135.741 205.871 149.813H249.069C248.19 137.651 249.608 123.779 257.364 96.41C257.822 94.9786 257.954 93.4627 257.751 91.9736C257.547 90.4845 257.013 89.0598 256.187 87.8039C255.361 86.5479 254.265 85.4927 252.979 84.7153C251.693 83.938 250.249 83.4583 248.753 83.3113C247.042 83.1356 245.238 82.995 243.363 82.9012C236.834 82.438 230.28 82.438 223.75 82.9012C221.618 83.1004 219.415 83.3699 217.295 83.6628C213.568 84.212 210.148 86.0379 207.618 88.8286C205.088 91.6193 203.605 95.2018 203.423 98.9642Z" fill="#263238"/>
<path d="M241.981 60.8162C240.271 67.1312 238.173 78.6951 242.274 82.9013C242.274 82.9013 236.299 82.0108 223.61 89.8607C219.931 84.5884 222.661 82.9013 222.661 82.9013C229.82 81.2258 230.031 76.0004 229.175 71.103L241.981 60.8162Z" fill="#FFC3BD"/>
<path d="M226.293 88.279C230.464 88.8648 231.776 95.1798 231.776 95.1798C231.776 95.1798 241.817 88.0798 244.992 83.077C243.73 82.3591 242.506 81.577 241.325 80.7338C241.325 80.7338 228.73 85.8655 226.293 88.279Z" fill="white"/>
<path d="M222.31 87.5994C222.31 87.5994 218.701 88.5719 217.401 93.6567C216.44 84.4478 220.74 82.8895 220.74 82.8895C221.887 82.2482 223.23 82.0522 224.513 82.3389C223.593 82.8245 222.87 83.6146 222.468 84.5742C222.066 85.5338 222.01 86.6032 222.31 87.5994Z" fill="white"/>
<path opacity="0.2" d="M236.767 65.0106L229.187 71.0913C229.409 72.25 229.527 73.4264 229.539 74.6061C232.257 74.2078 236.17 71.2553 236.662 68.4434C236.905 67.3149 236.94 66.1518 236.767 65.0106Z" fill="black"/>
<path d="M247.382 48.1627C245.461 58.344 244.863 62.6908 239.052 67.5764C230.312 74.9225 218.291 71.0327 217.143 60.6521C216.112 51.2792 219.416 36.2121 229.913 32.8378C232.145 32.0415 234.549 31.8559 236.877 32.3003C239.204 32.7448 241.371 33.8031 243.152 35.3658C244.933 36.9285 246.265 38.9387 247.009 41.1886C247.752 43.4385 247.881 45.8462 247.382 48.1627Z" fill="#FFC3BD"/>
<path d="M247.64 53.5052C241.512 55.9305 237.505 46.1709 239.321 39.4458C228.683 44.4017 211.202 37.208 213.862 30.1431C217.799 33.1073 220.154 32.1349 220.154 32.1349C220.154 32.1349 253.1 11.0457 250.546 29.6862C268.928 37.0088 258.595 49.9787 247.64 53.5052Z" fill="#263238"/>
<path d="M224.231 23.7812C222.497 24.9528 223.669 29.5104 232.678 25.398L236.041 24.5545C228.648 30.9867 221.911 35.2279 218.349 32.5801C214.788 29.9322 217.705 22.5979 224.231 23.7812Z" fill="#263238"/>
<path d="M249.456 55.7547C249.019 56.6458 248.399 57.4343 247.636 58.0684C246.872 58.7025 245.983 59.1677 245.027 59.4336C242.684 60.0077 241.688 57.2661 242.544 54.5714C243.317 52.1462 245.484 48.9242 247.781 49.5686C250.077 50.213 250.71 53.4115 249.456 55.7547Z" fill="#FFC3BD"/>
<path d="M234.237 43.8745C234.162 43.8794 234.088 43.8695 234.017 43.8453C233.947 43.8212 233.882 43.7833 233.827 43.7339C233.318 43.2571 232.712 42.8969 232.051 42.6784C231.389 42.4598 230.688 42.3882 229.995 42.4686C229.926 42.486 229.854 42.4895 229.783 42.4789C229.713 42.4683 229.645 42.4437 229.584 42.4066C229.523 42.3696 229.47 42.3208 229.428 42.263C229.386 42.2052 229.356 42.1397 229.339 42.0702C229.332 41.9236 229.382 41.78 229.478 41.6688C229.574 41.5577 229.709 41.4875 229.855 41.4727C230.731 41.3579 231.621 41.4369 232.464 41.7041C233.306 41.9714 234.079 42.4203 234.729 43.0192C234.776 43.0689 234.812 43.1284 234.834 43.1935C234.855 43.2585 234.863 43.3276 234.855 43.3958C234.847 43.4639 234.824 43.5295 234.788 43.588C234.752 43.6464 234.704 43.6962 234.647 43.7339C234.53 43.8267 234.385 43.8764 234.237 43.8745Z" fill="#263238"/>
<path d="M245.215 172.53C254.67 167.199 263.691 158.682 272.467 148.348C262.438 134.207 252.28 121.658 241.758 113.727C232.573 123.346 223.469 131.652 214.495 137.897C224.641 146.403 234.951 159.01 245.215 172.53Z" fill="white"/>
<path d="M218.326 43.8745C218.265 43.8869 218.202 43.886 218.142 43.8718C218.081 43.8577 218.024 43.8306 217.975 43.7925C217.872 43.7059 217.808 43.5828 217.795 43.4494C217.782 43.316 217.821 43.1827 217.904 43.0778C218.384 42.4144 219.01 41.8698 219.733 41.4859C220.456 41.1021 221.257 40.8891 222.075 40.8634C222.141 40.866 222.206 40.8824 222.265 40.9117C222.324 40.941 222.377 40.9824 222.419 41.0333C222.461 41.0841 222.492 41.1433 222.509 41.2069C222.527 41.2705 222.531 41.3371 222.521 41.4024C222.503 41.5359 222.438 41.6586 222.337 41.7471C222.235 41.8356 222.105 41.8839 221.97 41.8828C221.321 41.9102 220.686 42.086 220.116 42.3968C219.545 42.7075 219.053 43.1449 218.678 43.6753C218.638 43.7326 218.585 43.7803 218.525 43.8147C218.464 43.8492 218.396 43.8696 218.326 43.8745Z" fill="#263238"/>
<path d="M250.561 172.663L275.173 150.603C276.002 149.861 276.072 148.587 275.329 147.758L245.95 114.979C245.207 114.151 243.933 114.081 243.104 114.824L218.492 136.884C217.663 137.627 217.593 138.901 218.336 139.729L247.716 172.508C248.458 173.336 249.733 173.406 250.561 172.663Z" fill="#F98731"/>
<path opacity="0.4" d="M250.561 172.663L275.173 150.603C276.002 149.861 276.072 148.587 275.329 147.758L245.95 114.979C245.207 114.151 243.933 114.081 243.104 114.824L218.492 136.884C217.663 137.627 217.593 138.901 218.336 139.729L247.716 172.508C248.458 173.336 249.733 173.406 250.561 172.663Z" fill="white"/>
<path d="M232.198 157.498L233.112 154.405C233.279 153.837 233.578 153.317 233.986 152.887C234.393 152.457 234.897 152.13 235.455 151.933L240.809 150.094C241.865 149.733 242.992 149.629 244.096 149.79C245.201 149.951 246.251 150.372 247.16 151.019L248.331 151.839C247.16 157.065 242.04 161.857 242.04 161.857L240.739 163.38C240.479 163.7 240.158 163.966 239.795 164.162C239.432 164.358 239.034 164.481 238.623 164.522C238.213 164.563 237.798 164.523 237.403 164.403C237.008 164.284 236.641 164.087 236.322 163.825L233.264 161.271C232.741 160.813 232.361 160.212 232.172 159.543C231.983 158.873 231.992 158.163 232.198 157.498Z" fill="#FFC3BD"/>
<path d="M261.524 94.4183C261.91 95.2619 262.168 95.8594 262.461 96.5624C262.754 97.2653 263 97.9097 263.258 98.5775C263.773 99.9249 264.218 101.284 264.652 102.631C265.504 105.358 266.216 108.127 266.784 110.926C267.371 113.754 267.786 116.614 268.026 119.491C268.283 122.413 268.345 125.348 268.214 128.278V128.782C268.198 129.102 268.151 129.42 268.073 129.731C267.611 131.477 266.921 133.155 266.023 134.722C265.281 136.013 264.468 137.26 263.586 138.46C261.963 140.651 260.198 142.733 258.302 144.693C256.451 146.591 254.553 148.383 252.596 150.094C250.639 151.804 248.648 153.409 246.468 154.956C245.732 155.468 244.839 155.707 243.946 155.63C243.052 155.553 242.213 155.166 241.575 154.536C240.936 153.906 240.538 153.073 240.45 152.18C240.361 151.287 240.588 150.392 241.091 149.649V149.567L245.25 143.544C246.621 141.529 247.98 139.537 249.245 137.534C250.51 135.531 251.717 133.527 252.76 131.617C253.238 130.721 253.664 129.797 254.037 128.852C254.307 128.204 254.489 127.522 254.576 126.825L254.424 128.278C254.224 125.935 253.978 123.65 253.557 121.307C253.135 118.964 252.643 116.621 252.034 114.277C251.424 111.934 250.745 109.591 249.983 107.318C249.608 106.146 249.198 104.975 248.812 103.897L248.191 102.221L247.617 100.71L247.464 100.312C246.81 98.473 246.884 96.4538 247.671 94.6681C248.458 92.8824 249.899 91.4657 251.698 90.7088C253.497 89.9518 255.517 89.9119 257.344 90.5974C259.171 91.2828 260.667 92.6416 261.524 94.3949V94.4183Z" fill="#FFC3BD"/>
<path d="M249.152 83.3699C256.181 84.4478 259.005 86.5919 264.746 100.722C262.145 105.994 249.937 111.032 249.937 111.032C249.937 111.032 240.189 95.8008 249.152 83.3699Z" fill="#263238"/>
<path d="M347.066 357.579C346.54 359.461 346.296 361.655 347.388 363.244C347.992 364.04 348.787 364.652 349.69 365.017C352.015 365.974 354.517 366.361 357.005 366.146C357.481 366.17 357.957 366.089 358.403 365.909C358.848 365.729 359.253 365.454 359.592 365.101C365.365 360.075 369.269 353.07 370.62 345.316C370.729 344.916 370.708 344.489 370.561 344.102C370.371 343.803 370.105 343.565 369.793 343.417C368.509 342.571 367.124 341.906 365.675 341.439C357.744 339.286 349.031 350.547 347.066 357.579Z" fill="#2F2E41"/>
<path d="M423.205 355.763C423.914 357.31 424.923 358.684 426.169 359.795C426.795 360.345 427.532 360.739 428.324 360.947C429.116 361.155 429.942 361.172 430.741 360.996C433.17 360.328 434.514 357.564 434.994 354.972C435.882 350.179 434.825 345.335 433.348 340.799C432.88 339.363 432.082 335.258 430.584 334.788C429.872 334.564 426.493 336.544 425.631 336.859C422.484 338.01 420.293 338.851 419.917 342.658C419.498 346.905 421.346 352.096 423.205 355.763Z" fill="#2F2E41"/>
<path d="M406.067 129.7C394.331 128.743 383.122 129.097 371.365 128.463C370.377 128.409 370.853 140.305 369.83 146.764C369.304 150.084 351.607 344.562 353.803 344.956C359.444 346.197 365.149 347.086 370.889 347.617C373.218 347.833 394.923 221.116 393.883 210.817C396.724 215.201 406.733 235.441 411.794 258.723C418.472 289.442 415.611 343.216 419.762 341.268C422.434 337.408 428.814 339.262 433 337.416C439.86 334.732 430.815 163.068 419.068 156.275C418.924 151.95 418.773 147.519 417.223 143.51C415.038 137.855 410.725 133.34 406.067 129.7Z" fill="#2F2E41"/>
<path d="M403.176 35.3701C397.085 24.5453 385.034 24.0408 385.034 24.0408C385.034 24.0408 373.292 22.4614 365.759 38.9478C358.738 54.3144 349.048 69.1512 364.199 72.7484L366.936 63.7893L368.63 73.4154C370.788 73.5786 372.952 73.6175 375.113 73.5319C391.339 72.9809 406.791 73.6931 406.294 67.5691C405.632 59.4282 409.036 45.7858 403.176 35.3701Z" fill="#2F2E41"/>
<path d="M380.705 72.2514C380.735 73.4699 380.726 74.7549 380.15 75.8127C379.009 77.9097 376.223 78.2235 374.548 79.8763C372.785 81.6144 372.586 84.4353 372.502 86.9747C372.414 89.6297 372.34 92.3717 373.261 94.8453C373.825 96.2079 374.538 97.4967 375.386 98.6857C376.409 100.237 377.442 101.781 378.484 103.318C379.04 104.184 379.661 105.003 380.339 105.766C382.205 107.766 384.765 108.872 387.32 109.662C388.972 110.172 390.755 110.57 392.393 110.015C393.477 109.57 394.476 108.924 395.343 108.107C396.609 107.152 397.735 106.005 398.682 104.704C400.058 102.604 400.439 99.9767 400.724 97.4449C401.567 89.958 401.895 82.4169 401.706 74.8804C401.74 74.0591 401.6 73.2401 401.296 72.4829C400.447 70.7402 398.175 70.3682 396.977 68.8692C395.953 67.5876 395.912 65.7585 395.92 64.0845L395.943 59.8231C395.978 59.464 395.91 59.102 395.746 58.7849C395.597 58.614 395.418 58.4757 395.219 58.3779C395.019 58.28 394.803 58.2245 394.584 58.2145C392.065 57.775 389.512 57.5954 386.961 57.6782C384.892 57.7446 380.924 57.5625 379.135 58.7743C377.511 59.8742 379.544 62.9121 379.92 64.6185C380.426 67.1285 380.689 69.6858 380.705 72.2514Z" fill="#FFB8B8"/>
<path d="M385.5 67.5684C394.613 67.5684 402 59.2857 402 49.0684C402 38.8512 394.613 30.5684 385.5 30.5684C376.387 30.5684 369 38.8512 369 49.0684C369 59.2857 376.387 67.5684 385.5 67.5684Z" fill="#FFB8B8"/>
<path d="M381.744 84.9598C373.292 56.7877 368.839 96.3579 363.51 107.162C363.56 114.612 363.752 135.215 365.408 143.025C371.843 173.362 403.708 170.98 413.291 145.395C418.395 131.765 407.072 97.9879 407.455 82.2274C393.423 67.2721 392.557 114.718 381.744 84.9598Z" fill="#E5028B"/>
<path d="M372.466 75.2966C354.152 84.659 362.889 109.813 356.251 126.275C350.949 148.86 337.465 155.962 368.295 156.488C374.937 135.844 368.449 113.42 377.506 92.3989C378.13 84.166 380.815 81.0699 380.577 74.0979C378.801 71.2043 374.201 74.4002 372.466 75.2966Z" fill="#575A88"/>
<path d="M400.483 34.3269L388.577 27.7673L372.137 30.4508L368.735 46.2527L377.203 45.9096L379.568 40.1043V45.8136L383.475 45.656L385.743 36.4137L387.16 46.2527L401.05 45.9541L400.483 34.3269Z" fill="#2F2E41"/>
<path d="M393.119 83.2256C402.545 82.0685 393.355 70.1618 400.837 70.3641C423.241 66.4006 429.944 80.9956 421.423 101.366C413.613 117.682 441.241 140.602 425.807 149.732C420.329 151.847 412.486 158.499 407.132 155.603C398.537 132.881 398.227 106.921 393.119 83.2256Z" fill="#575A88"/>
<path d="M419.356 148.089C416.073 149.74 413.477 152.366 411.28 155.416C410.815 156.062 411.439 157.266 412.833 157.246C414.13 157.228 414.904 155.479 416.201 155.46C416.598 159.106 417.315 162.705 418.345 166.211C420.932 163.822 422.482 160.458 423.964 157.189L426.894 150.728C427.969 148.355 429.046 145.982 430.015 143.56C430.279 142.993 430.442 142.381 430.496 141.753C430.623 137.585 426.716 137.559 425.031 140.168C423.188 143.022 422.614 146.451 419.356 148.089Z" fill="#FFB8B8"/>
<path d="M420.029 76.4252C422.535 79.1631 425.057 81.9243 427.002 85.1266C428.947 88.329 439.007 117.13 439.414 117.741C440.867 119.995 439.17 125.823 439.085 126.156C438.917 127.203 436.818 137.653 436.292 139.96C435.924 141.575 435.929 143.256 435.688 144.897C435.447 146.539 434.906 148.226 433.704 149.303C433.551 149.457 433.362 149.568 433.157 149.625C432.491 149.761 432.036 148.95 431.803 148.279C431.077 146.191 430.343 144.061 429.062 142.291C427.781 140.522 425.839 139.136 423.725 139.142C423.55 138.702 423.477 138.225 423.513 137.749C423.549 137.274 423.693 136.815 423.932 136.409C424.355 135.569 424.977 134.856 425.444 134.042C426.036 132.932 426.439 131.721 426.634 130.465C427.678 124.695 426.627 118.722 423.688 113.727C423.005 112.543 422.178 111.457 421.23 110.496C420.197 109.478 418.989 108.66 418.036 107.56C416.566 105.73 415.677 103.462 415.494 101.074C415.318 98.7016 415.378 96.3168 415.673 93.9578C416.102 89.2765 416.653 84.5884 417.289 79.9332C417.338 79.3268 417.487 78.734 417.73 78.1816C418.229 77.2025 419.073 76.8977 420.029 76.4252Z" fill="#575A88"/>
<path d="M365.353 141.104C363.668 138.495 359.76 138.52 359.888 142.688C359.942 143.316 360.105 143.929 360.369 144.495C361.338 146.917 362.414 149.291 363.49 151.663L366.42 158.124C367.902 161.393 369.452 164.757 372.039 167.147C373.068 163.641 373.786 160.041 374.183 156.396C375.479 156.414 376.254 158.163 377.551 158.181C378.945 158.201 379.569 156.997 379.104 156.351C376.907 153.301 374.31 150.676 371.028 149.025C367.77 147.386 367.196 143.957 365.353 141.104Z" fill="#FFB8B8"/>
<path d="M372.654 79.117C372.896 79.6693 373.046 80.2621 373.095 80.8685C373.731 85.5237 374.282 90.2118 374.71 94.8932C375.005 97.2521 375.065 99.637 374.89 102.009C374.707 104.397 373.818 106.665 372.348 108.495C371.395 109.595 370.187 110.413 369.154 111.431C368.205 112.392 367.379 113.478 366.696 114.663C363.757 119.658 362.706 125.63 363.75 131.401C363.945 132.657 364.348 133.867 364.94 134.977C365.407 135.792 366.028 136.504 366.452 137.345C366.691 137.75 366.834 138.209 366.87 138.685C366.906 139.16 366.834 139.638 366.659 140.078C364.544 140.071 362.603 141.457 361.322 143.227C360.041 144.996 359.307 147.126 358.581 149.215C358.347 149.886 357.893 150.697 357.227 150.56C357.021 150.503 356.833 150.393 356.68 150.238C355.478 149.161 354.936 147.474 354.696 145.833C354.455 144.192 354.459 142.51 354.091 140.896C353.566 138.588 351.467 128.138 351.299 127.092C351.213 126.758 349.517 120.93 350.969 118.676C351.377 118.065 361.437 89.2643 363.381 86.062C365.326 82.8596 367.849 80.0985 370.354 77.3606C371.31 77.833 372.154 78.1378 372.654 79.117Z" fill="#575A88"/>
<path d="M407.982 119.232C404.188 102.225 408.598 93.0096 413.445 92.8554C418.292 92.7013 423.319 103.513 418.395 119.232" stroke="#0A1D35" stroke-width="0.794581" stroke-miterlimit="10"/>
<path d="M407.982 120.211C408.492 120.211 408.906 119.773 408.906 119.232C408.906 118.691 408.492 118.252 407.982 118.252C407.471 118.252 407.057 118.691 407.057 119.232C407.057 119.773 407.471 120.211 407.982 120.211Z" fill="#0A1D35"/>
<path d="M418.395 120.211C418.906 120.211 419.32 119.773 419.32 119.232C419.32 118.691 418.906 118.252 418.395 118.252C417.884 118.252 417.47 118.691 417.47 119.232C417.47 119.773 417.884 120.211 418.395 120.211Z" fill="#0A1D35"/>
<path d="M408.033 119.232C408.033 119.431 407.958 119.623 407.825 119.764C407.691 119.905 407.511 119.984 407.322 119.984H406.783C406.594 119.984 406.413 119.905 406.28 119.764C406.147 119.623 406.072 119.431 406.072 119.232C406.072 119.032 406.147 118.841 406.28 118.699C406.413 118.558 406.594 118.479 406.783 118.479H407.322C407.511 118.479 407.691 118.558 407.825 118.699C407.958 118.841 408.033 119.032 408.033 119.232Z" fill="#0A1D35"/>
<path d="M420.16 119.232C420.16 119.431 420.085 119.623 419.952 119.764C419.818 119.905 419.638 119.984 419.449 119.984H418.91C418.721 119.984 418.54 119.905 418.407 119.764C418.274 119.623 418.199 119.431 418.199 119.232C418.199 119.032 418.274 118.841 418.407 118.699C418.54 118.558 418.721 118.479 418.91 118.479H419.449C419.638 118.479 419.818 118.558 419.952 118.699C420.085 118.841 420.16 119.032 420.16 119.232Z" fill="#0A1D35"/>
<path d="M368.93 105.536C368.928 106.043 368.785 106.539 368.518 106.96C368.25 107.38 367.871 107.708 367.428 107.901C366.985 108.094 366.498 108.143 366.029 108.043C365.559 107.943 365.128 107.698 364.79 107.339C364.452 106.979 364.222 106.522 364.129 106.024C364.036 105.527 364.085 105.011 364.268 104.542C364.452 104.074 364.763 103.674 365.161 103.392C365.559 103.11 366.028 102.96 366.507 102.96C366.826 102.96 367.141 103.027 367.436 103.156C367.731 103.286 367.998 103.476 368.223 103.715C368.449 103.954 368.627 104.238 368.748 104.551C368.869 104.863 368.931 105.198 368.93 105.536Z" fill="#9ABAD8"/>
<path d="M367.86 105.536C367.858 105.819 367.777 106.095 367.628 106.33C367.478 106.564 367.266 106.746 367.019 106.854C366.771 106.961 366.5 106.988 366.238 106.931C365.976 106.875 365.735 106.738 365.547 106.537C365.359 106.336 365.231 106.081 365.179 105.803C365.128 105.525 365.155 105.238 365.258 104.976C365.36 104.715 365.534 104.492 365.756 104.335C365.978 104.178 366.24 104.094 366.507 104.094C366.685 104.094 366.862 104.131 367.027 104.204C367.191 104.276 367.341 104.383 367.467 104.517C367.592 104.651 367.692 104.81 367.759 104.985C367.827 105.16 367.861 105.347 367.86 105.536Z" fill="#799EBC"/>
<path d="M366.507 105.536C365.436 89.0553 372.056 67.3594 391.71 67.3594C406.449 67.3594 411.57 80.6381 413.445 92.8375" stroke="#0A1D35" stroke-width="0.794581" stroke-linecap="round" stroke-linejoin="round"/>
<path d="M381.265 75.6544C381.841 74.5966 380.735 73.4698 380.706 72.2514C380.689 69.6858 380.426 67.1285 379.92 64.6185C379.544 62.912 381.05 64.6081 382.673 63.5082C384.462 62.2964 385.834 61.8256 385.834 61.8256C388.386 61.7428 390.939 61.9225 393.457 62.362C393.677 62.372 393.893 62.4275 394.092 62.5253C394.292 62.6232 394.471 62.7615 394.619 62.9323C394.783 63.2495 394.852 63.6115 394.816 63.9706L395.921 64.0845C395.912 65.7585 395.954 67.5876 396.977 68.8692C398.175 70.3682 395.094 70.9492 395.943 72.6919C396.247 73.4491 395.253 73.6481 395.219 74.4694L381.265 75.6544Z" fill="#FFB8B8"/>
<path d="M301.378 68.197L321.664 67.3548L320.719 44.5957L300.433 45.4379L301.378 68.197Z" fill="#F1ADAD"/>
<path d="M286.697 350.869L295.662 348.805L293.788 331.824L284.073 333.254L286.697 350.869Z" fill="#FFB8B8"/>
<path d="M333.787 345.672L323.915 345.687L323.762 328.874L334.823 327.296L333.787 345.672Z" fill="#FFB8B8"/>
<path d="M280.646 336.139L295.176 334.101C298.768 282.879 302.55 235.451 312.743 195.095L321.603 330.903L337.075 329.196L343.91 175.184L289.469 175.463C276.973 227.547 274.615 281.196 280.646 336.139Z" fill="#2F2E41"/>
<path d="M279.772 365.55C281.425 366.01 283.168 365.92 284.759 365.295C286.351 364.669 287.713 363.537 288.657 362.056L291.812 357.108L298.148 352.828L295.768 341.1C295.726 340.89 295.622 340.699 295.471 340.554C295.321 340.409 295.131 340.316 294.929 340.29C294.727 340.264 294.522 340.305 294.345 340.407C294.168 340.509 294.026 340.668 293.94 340.861L290.797 347.91C288.77 342.652 285.992 340.11 282.201 341.222C281.03 341.592 279.957 342.238 279.063 343.112C278.17 343.985 277.48 345.063 277.045 346.264L274.142 353.901C273.709 355.04 273.514 356.265 273.569 357.496C273.624 358.726 273.928 359.933 274.46 361.035C274.993 362.138 275.743 363.111 276.659 363.89C277.574 364.668 278.636 365.234 279.772 365.55Z" fill="#2F2E41"/>
<path d="M341.619 360.497C340.053 361.201 338.317 361.375 336.649 360.997C334.982 360.618 333.465 359.705 332.308 358.383L328.443 353.967L321.533 350.692L322.117 338.739C322.128 338.525 322.202 338.321 322.329 338.155C322.456 337.989 322.629 337.869 322.825 337.812C323.021 337.756 323.229 337.765 323.42 337.84C323.611 337.914 323.775 338.05 323.889 338.227L328.059 344.721C329.269 339.218 331.633 336.286 335.548 336.813C336.762 337.003 337.92 337.48 338.935 338.209C339.949 338.938 340.794 339.899 341.405 341.02L345.427 348.132C346.026 349.193 346.404 350.375 346.536 351.599C346.667 352.824 346.549 354.063 346.188 355.233C345.828 356.403 345.234 357.478 344.446 358.386C343.658 359.294 342.694 360.013 341.619 360.497Z" fill="#2F2E41"/>
<path d="M311.293 54.1346C320.269 53.762 327.171 44.4263 326.708 33.2827C326.245 22.1391 318.594 13.4076 309.617 13.7802C300.641 14.1528 293.74 23.4886 294.202 34.6321C294.665 45.7757 302.316 54.5073 311.293 54.1346Z" fill="#FFB8B8"/>
<path d="M291.224 174.417C308.389 177.9 326.609 183.217 338.059 176.747L333.13 66.1663C328.083 64.457 323.822 60.82 321.191 55.9753L313.372 63.4243L300.876 56.1062C296.868 61.659 291.418 67.5515 284.855 69.9515L291.224 174.417Z" fill="#F5F2F2"/>
<path d="M317.828 154.432C316.175 184.862 329.679 182.295 347.38 180.991C338.403 142.634 337.129 106 344.861 71.3789C335.419 67.0987 327.073 62.0431 321.162 55.264C321.47 56.0199 320.592 55.5912 320.868 56.3449C327.352 74.0577 326.184 92.3489 315.938 108.914L317.828 154.432Z" fill="#2F2E41"/>
<path d="M351.878 183.298L347.616 193.317C347.168 194.37 346.953 195.516 346.988 196.671C347.023 197.826 347.307 198.958 347.818 199.982C348.329 201.007 349.053 201.898 349.938 202.587C350.822 203.276 351.842 203.745 352.922 203.961C353.977 204.171 355.063 204.133 356.1 203.849C357.137 203.565 358.101 203.043 358.922 202.319C359.743 201.596 360.4 200.69 360.846 199.666C361.293 198.641 361.518 197.525 361.504 196.397L361.345 182.905L360.902 172.237L351.435 172.63L351.878 183.298Z" fill="#FFB8B8"/>
<path d="M319.209 155.088C319.504 178.262 317.398 181.847 285.11 182.151C290.876 143.182 289.11 106.568 278.534 72.7075C287.589 67.6594 295.488 61.9294 300.816 54.6838C300.479 55.7611 301.502 56.0837 301.258 57.159C297.176 75.1292 305.896 93.4545 317.29 108.858L319.209 155.088Z" fill="#2F2E41"/>
<path d="M280.083 183.429L285.161 193.06C285.695 194.072 286.004 195.197 286.064 196.35C286.125 197.504 285.936 198.656 285.512 199.719C285.088 200.783 284.439 201.73 283.615 202.49C282.791 203.25 281.813 203.803 280.755 204.107C279.721 204.404 278.636 204.456 277.579 204.259C276.521 204.062 275.518 203.621 274.64 202.968C273.762 202.316 273.032 201.467 272.502 200.483C271.972 199.5 271.656 198.406 271.576 197.28L270.616 183.822L270.173 173.153L279.64 172.76L280.083 183.429Z" fill="#FFB8B8"/>
<path d="M310.019 1.89231C312.781 1.91104 315.5 2.63108 317.946 3.99118C318.509 4.30418 318.306 5.5256 318.829 5.89946C319.488 6.3703 320.862 6.01073 321.451 6.5698C323.354 8.36799 324.854 10.5877 325.842 13.0677C326.829 15.5477 327.28 18.2257 327.161 20.9069L326.652 30.3585L324.427 28.0038C320.435 23.7212 315.035 21.2112 309.347 20.9938C309.106 20.9865 308.864 20.983 308.622 20.9833L310.131 17.9082L307.415 21.0126C306.121 21.0814 304.832 21.2457 303.56 21.5044L305.567 17.415L301.58 21.9729L301.58 21.9731C299.891 22.4382 298.332 23.3144 297.027 24.5311C295.723 25.7477 294.709 27.2708 294.069 28.9776L293.651 30.0762L292.759 21.1165C292.605 18.6363 292.937 16.1513 293.736 13.8161C294.534 11.4809 295.782 9.34537 297.4 7.54232C299.019 5.73926 300.975 4.30722 303.145 3.33523C305.316 2.36325 307.656 1.87209 310.019 1.89231Z" fill="#2F2E41"/>
<path d="M326.331 32.9359C327.047 32.9062 327.567 31.4329 327.492 29.6452C327.418 27.8575 326.778 26.4324 326.062 26.4621C325.347 26.4918 324.827 27.9651 324.901 29.7528C324.975 31.5405 325.615 32.9656 326.331 32.9359Z" fill="#FFB8B8"/>
<path d="M293.894 33.2583C294.609 33.2286 295.129 31.7553 295.055 29.9677C294.981 28.18 294.341 26.7549 293.625 26.7846C292.909 26.8143 292.389 28.2876 292.463 30.0752C292.538 31.8629 293.178 33.288 293.894 33.2583Z" fill="#FFB8B8"/>
<path d="M281.934 179.077L266.088 180.804L270.308 86.6731C270.163 83.1646 271.108 79.7065 273 76.8221C274.893 73.9378 277.63 71.7841 280.797 70.6871L283.826 69.638C289.835 107.996 286.429 145.101 281.934 179.077Z" fill="#2F2E41"/>
<path d="M350.319 178.375L362.521 178.581L354.217 84.6147C354.071 81.1062 352.843 77.7383 350.718 75.0207C348.593 72.3031 345.686 70.3837 342.439 69.553L339.334 68.7586C336.525 107.482 343.024 144.889 350.319 178.375Z" fill="#2F2E41"/>
<path d="M63.4957 348.325C63.5928 349.385 63.6355 350.45 63.6236 351.514C63.6236 352.267 64.6071 357.11 65.1578 360.061C65.4332 361.398 65.0103 362.379 63.9678 362.428C59.1191 362.696 45.222 363.419 42.1927 363.419C38.5046 363.419 35.0032 363.161 34.3246 361.715C33.2624 359.546 34.659 355.516 41.9174 353.257C45.5564 352.128 46.4907 347.513 46.5202 348.306L63.4957 348.325Z" fill="black"/>
<path d="M90.09 349.038C90.5325 353.158 85.615 355.397 85.8117 359.259C85.8117 360.002 85.8117 361.527 86.2444 362.121C87.5328 363.904 90.6112 364.102 93.129 364.102C96.7779 364.102 100.525 363.845 103.338 362.735C108.049 360.883 104.98 353.248 104.813 349.009C104.764 347.226 90.09 349.038 90.09 349.038Z" fill="black"/>
<path d="M75.1407 219.983C75.4554 223.766 78.8387 247.822 85.2905 281.237C91.8407 315.207 90.2081 349.742 90.2081 349.742C92.395 350.531 94.6918 350.969 97.014 351.039C99.6748 351.195 102.341 350.859 104.882 350.049C104.882 350.049 108.01 296.836 105.177 277.316C100.83 246.951 107.075 200.215 102.335 185.706C102.335 185.706 54.7721 184.716 46.9236 185.706C46.5597 195.689 43.6288 237.384 46.2155 275.097C48.5267 308.701 46.5794 338.61 46.4712 348.325C46.4712 348.325 48.6841 350.039 55.0081 350.633C61.3321 351.227 63.5647 349.573 63.5647 349.573C63.5647 349.573 69.2002 295.4 67.9315 275.176C66.948 258.677 72.4458 219.983 72.4458 219.983H75.1407Z" fill="#275389"/>
<g style="mix-blend-mode:multiply" opacity="0.5">
<path d="M45.2913 235.225C55.2543 237.859 69.2694 232.323 72.4658 219.983H75.141C75.141 219.983 78.5046 240.979 103.476 234.71L103.85 228.104L73.3608 192.698L45.2913 228.589V235.225Z" fill="#9B9B9B"/>
</g>
<path d="M70.7443 64.5237C72.9277 71.1691 72.0032 79.1317 67.0266 84.3312C62.7975 88.7086 54.7425 93.8091 48.3398 92.7593C53.7 87.9659 58.4504 79.4189 59.4634 72.1595C60.3682 65.6824 56.2965 60.5424 54.8606 54.5506C53.641 49.4304 54.2803 42.6662 57.3488 38.2986" fill="#0E263F"/>
<path d="M91.8897 44.0627C94.0928 52.3521 90.4144 60.0473 90.4144 68.3269C90.3982 72.5595 91.1792 76.7569 92.7158 80.6966C93.5069 82.6213 94.4372 84.4849 95.4992 86.2724C96.0991 87.2628 97.3875 88.6097 97.4662 89.7685C92.9038 88.5219 88.6206 86.4073 84.8477 83.539C82.0684 81.4238 79.96 78.5403 78.7794 75.2397C76.9402 69.7728 78.1991 64.5139 78.1205 58.948" fill="#0E263F"/>
<path d="M64.1057 66.9602C61.1428 65.0954 58.7138 62.4851 57.0581 59.3868C55.4024 56.2886 54.5772 52.8092 54.6639 49.2919C54.6639 42.29 58.0079 33.446 65.4826 30.1282C75.7013 25.5725 87.1199 29.1973 91.5457 39.6853C94.634 47.0339 93.1489 63.3751 84.0022 66.1481L64.1057 66.9602Z" fill="#0E263F"/>
<path d="M84.4938 78.9041L76.8223 73.4273L71.2753 73.5165L65.7676 79.3696L55.6768 83.2717L57.9782 186.033L86.6378 186.498L91.0636 91.8087L84.4938 78.9041Z" fill="white"/>
<path d="M73.4391 128.542C73.4391 126.214 65.276 107.368 62.8565 93.1755C61.6173 85.8765 63.1221 80.2412 65.807 79.3697C60.1223 81.5584 56.1096 81.6773 48.8021 85.203L46.3334 111.725C45.763 116.311 46.6777 136.792 45.8614 155.569C45.4188 165.562 42.4486 173.396 41.5142 183.3C41.3569 184.557 42.8518 194.164 42.7239 195.451C40.9929 213.07 39.6357 222.192 39.262 226.49C39.262 226.797 46.54 230.956 56.6604 227.589C61.9615 225.826 72.3966 214.407 73.2621 195.451C74.3636 170.563 73.449 128.71 73.4391 128.542Z" fill="#A2D6F4"/>
<path d="M73.262 131.077C73.262 120.53 83.0184 106.615 85.6149 94.1163C86.8738 88.0453 88.1229 82.2912 82.4972 77.4483C85.4477 79.9639 97.9679 83.3906 102.03 85.8863L100.063 115.31C99.6005 121.867 102.246 136.039 102.59 151.568C102.59 153.975 102.748 156.401 102.895 158.827C102.954 159.738 104.577 161.095 104.646 162.006C105.187 169.098 107.124 173.653 108.049 180.725C108.206 181.883 107.282 184.627 107.419 185.815C109.009 198.633 111.38 211.341 114.52 223.865C114.52 223.994 100.141 232.145 87.6115 228.134C77.8648 225.014 73.2226 207.029 73.3013 192.48L73.262 131.077Z" fill="#A2D6F4"/>
<path d="M48.8021 85.203C43.9632 87.0153 23.2307 129.592 21.2637 137.118C19.2966 144.645 28.7384 158.659 36.2033 174.228C36.518 174.881 38.1703 175.367 38.426 175.961C40.1767 179.595 42.665 181.388 43.1764 182.21C44.6713 184.636 53.1984 177.337 51.969 174.861C51.5953 174.109 49.2348 171.682 48.035 168.503L47.7792 167.82C45.3303 161.402 35.7902 143.061 37.5999 138.921C40.5504 132.216 47.553 114.617 47.553 114.617" fill="#A2D6F4"/>
<g style="mix-blend-mode:multiply" opacity="0.5">
<path d="M65.7681 79.3697L62.011 80.677L53.8184 103.03L60.9488 105.634L57.3197 109.022L73.3707 128.106C73.3707 128.106 72.3871 124.927 70.7938 120.351C68.2269 112.963 64.3912 101.96 62.9946 94.1263C60.9685 82.2022 65.7681 79.3697 65.7681 79.3697Z" fill="#919191"/>
</g>
<g style="mix-blend-mode:multiply" opacity="0.5">
<path d="M82.6646 77.6462L86.9527 79.8251L93.2866 103.03L86.1561 105.634L89.7852 109.021L73.3704 128.106C74.2567 124.31 75.4507 120.593 76.9405 116.994C79.773 110.061 84.2579 101.257 85.6151 94.2152C87.8969 82.2713 82.6646 77.6462 82.6646 77.6462Z" fill="#919191"/>
</g>
<g style="mix-blend-mode:multiply" opacity="0.5">
<path d="M73.3704 128.106L73.1245 195.451C74.6947 173.033 74.7768 150.535 73.3704 128.106Z" fill="#919191"/>
</g>
<g style="mix-blend-mode:multiply" opacity="0.5">
<path d="M79.5174 134.048C79.5174 134.38 79.4197 134.704 79.2366 134.979C79.0535 135.254 78.7933 135.469 78.489 135.595C78.1848 135.722 77.85 135.754 77.5274 135.689C77.2047 135.624 76.9085 135.463 76.6765 135.228C76.4444 134.993 76.2869 134.694 76.2239 134.369C76.1608 134.043 76.1952 133.706 76.3225 133.401C76.4498 133.095 76.6644 132.834 76.939 132.652C77.2136 132.469 77.5359 132.372 77.8651 132.374C78.0829 132.374 78.2986 132.418 78.4997 132.502C78.7008 132.586 78.8834 132.71 79.0369 132.865C79.1905 133.021 79.312 133.205 79.3945 133.408C79.4769 133.611 79.5187 133.829 79.5174 134.048Z" fill="#919191"/>
</g>
<g style="mix-blend-mode:multiply" opacity="0.5">
<path d="M79.5174 152.449C79.5174 152.781 79.4197 153.105 79.2366 153.38C79.0535 153.656 78.7933 153.87 78.489 153.997C78.1847 154.123 77.85 154.156 77.5274 154.09C77.2047 154.025 76.9085 153.864 76.6765 153.629C76.4444 153.394 76.2869 153.095 76.2239 152.77C76.1608 152.445 76.1952 152.108 76.3225 151.802C76.4498 151.496 76.6644 151.236 76.939 151.053C77.2136 150.87 77.5359 150.774 77.8651 150.776C78.3042 150.778 78.7245 150.956 79.0341 151.269C79.3436 151.583 79.5174 152.007 79.5174 152.449Z" fill="#919191"/>
</g>
<g style="mix-blend-mode:multiply" opacity="0.5">
<path d="M79.5174 170.821C79.5174 171.152 79.4197 171.476 79.2366 171.751C79.0535 172.027 78.7933 172.241 78.489 172.368C78.1847 172.494 77.85 172.527 77.5274 172.461C77.2047 172.396 76.9085 172.236 76.6765 172.001C76.4444 171.765 76.2869 171.466 76.2239 171.141C76.1608 170.816 76.1952 170.479 76.3225 170.173C76.4498 169.868 76.6644 169.607 76.939 169.424C77.2136 169.241 77.5359 169.145 77.8651 169.147C78.3042 169.149 78.7245 169.327 79.0341 169.641C79.3436 169.954 79.5174 170.378 79.5174 170.821Z" fill="#919191"/>
</g>
<g style="mix-blend-mode:multiply" opacity="0.5">
<path d="M79.5174 190.034C79.5174 190.365 79.4197 190.689 79.2366 190.965C79.0535 191.24 78.7933 191.455 78.489 191.581C78.1848 191.707 77.85 191.74 77.5274 191.675C77.2047 191.609 76.9085 191.449 76.6765 191.214C76.4444 190.979 76.2869 190.68 76.2239 190.354C76.1608 190.029 76.1952 189.692 76.3225 189.386C76.4498 189.081 76.6644 188.82 76.939 188.637C77.2136 188.455 77.5359 188.358 77.8651 188.36C78.0829 188.36 78.2986 188.403 78.4997 188.488C78.7008 188.572 78.8834 188.695 79.0369 188.851C79.1905 189.006 79.312 189.191 79.3945 189.394C79.4769 189.597 79.5187 189.814 79.5174 190.034Z" fill="#919191"/>
</g>
<g style="mix-blend-mode:multiply" opacity="0.5">
<path d="M45.5369 159.798L41.7996 180.715C41.2514 180.174 40.742 179.595 40.2751 178.981C39.6358 178.14 45.1829 165.116 45.5369 159.798Z" fill="#919191"/>
</g>
<path d="M100.987 85.3413C106.485 86.9754 126.618 129.591 128.604 137.118C130.591 144.645 121.13 158.659 113.655 174.227C113.35 174.881 111.688 175.366 111.442 175.961C109.691 179.595 107.203 181.388 106.692 182.21C105.197 184.636 96.6697 177.337 97.8991 174.861C98.2728 174.109 100.633 171.682 101.833 168.503C102.099 167.82 101.833 168.582 102.099 167.82C104.538 161.402 114.078 143.06 112.268 138.921C109.318 132.216 99.4825 113.052 99.4825 113.052" fill="#A2D6F4"/>
<g style="mix-blend-mode:multiply" opacity="0.5">
<path d="M104.587 161.878L108.01 180.754C108.558 180.213 109.067 179.634 109.534 179.021C110.203 178.14 105.876 166.73 104.587 161.878Z" fill="#919191"/>
</g>
<g style="mix-blend-mode:multiply" opacity="0.5">
<path d="M48.0742 194.114C48.0742 194.114 58.2831 195.283 59.3158 192.421C60.3485 189.559 57.6438 168.711 57.6438 168.711C57.6438 168.711 58.352 189.459 57.9586 191.935C57.5651 194.411 48.0742 194.114 48.0742 194.114Z" fill="#919191"/>
</g>
<g style="mix-blend-mode:multiply" opacity="0.5">
<path d="M103.476 194.114C103.476 194.114 93.2571 195.283 92.2244 192.421C91.1917 189.559 93.9062 168.711 93.9062 168.711C93.9062 168.711 93.198 189.459 93.5816 191.935C93.9652 194.411 103.476 194.114 103.476 194.114Z" fill="#919191"/>
</g>
<path d="M84.9365 119.767C81.4745 105.01 85.4971 96.9883 89.9327 96.8793C94.3684 96.7704 98.9319 106.12 94.4667 119.767" stroke="#0A1D35" stroke-width="0.822457" stroke-miterlimit="10"/>
<path d="M85.7825 119.767C85.7825 119.935 85.7329 120.1 85.6399 120.24C85.547 120.38 85.4149 120.489 85.2603 120.554C85.1058 120.618 84.9357 120.635 84.7716 120.602C84.6076 120.569 84.4568 120.488 84.3386 120.369C84.2203 120.25 84.1397 120.098 84.1071 119.933C84.0744 119.768 84.0912 119.597 84.1552 119.441C84.2192 119.285 84.3276 119.152 84.4667 119.059C84.6058 118.965 84.7694 118.915 84.9366 118.915C85.161 118.915 85.3761 119.005 85.5347 119.165C85.6934 119.324 85.7825 119.541 85.7825 119.767Z" fill="#0A1D35"/>
<path d="M95.2927 119.767C95.2901 119.994 95.1988 120.21 95.0386 120.37C94.8785 120.529 94.6623 120.619 94.4371 120.619C94.2702 120.617 94.1077 120.565 93.9699 120.47C93.8321 120.375 93.7252 120.242 93.6627 120.086C93.6002 119.93 93.5848 119.759 93.6185 119.595C93.6523 119.43 93.7336 119.279 93.8523 119.161C93.9709 119.043 94.1217 118.963 94.2855 118.931C94.4493 118.899 94.6188 118.916 94.7728 118.981C94.9268 119.046 95.0583 119.155 95.1508 119.295C95.2433 119.435 95.2927 119.599 95.2927 119.767Z" fill="#0A1D35"/>
<path d="M84.9858 119.767C84.9858 119.94 84.9174 120.107 84.7957 120.229C84.6739 120.352 84.5088 120.421 84.3367 120.421H83.8449C83.6736 120.418 83.5099 120.348 83.3887 120.226C83.2675 120.104 83.1983 119.94 83.1958 119.767C83.1958 119.594 83.2642 119.427 83.3859 119.305C83.5077 119.182 83.6728 119.113 83.8449 119.113H84.3367C84.4223 119.112 84.5073 119.128 84.5867 119.16C84.666 119.193 84.7381 119.241 84.7986 119.302C84.8592 119.363 84.9069 119.435 84.9391 119.515C84.9712 119.595 84.9871 119.681 84.9858 119.767Z" fill="#0A1D35"/>
<path d="M96.0601 119.767C96.0575 119.94 95.9883 120.104 95.8672 120.226C95.746 120.348 95.5823 120.418 95.411 120.421H94.9094C94.738 120.418 94.5744 120.348 94.4532 120.226C94.332 120.104 94.2628 119.94 94.2603 119.767C94.2603 119.594 94.3286 119.427 94.4504 119.305C94.5721 119.182 94.7372 119.113 94.9094 119.113H95.4503C95.6225 119.113 95.7876 119.182 95.9093 119.305C96.031 119.427 96.0994 119.594 96.0994 119.767H96.0601Z" fill="#0A1D35"/>
<path d="M55.195 110.695C56.7322 110.695 57.9783 109.44 57.9783 107.892C57.9783 106.344 56.7322 105.089 55.195 105.089C53.6578 105.089 52.4116 106.344 52.4116 107.892C52.4116 109.44 53.6578 110.695 55.195 110.695Z" fill="#9ABAD8"/>
<path d="M55.1948 109.457C56.053 109.457 56.7488 108.757 56.7488 107.892C56.7488 107.028 56.053 106.328 55.1948 106.328C54.3366 106.328 53.6409 107.028 53.6409 107.892C53.6409 108.757 54.3366 109.457 55.1948 109.457Z" fill="#799EBC"/>
<path d="M55.2734 107.892C54.4866 93.5912 60.0434 75.2891 74.1274 75.2891C86.0967 75.2891 88.5358 86.2921 89.9324 96.8792" stroke="#0A1D35" stroke-width="0.822457" stroke-linecap="round" stroke-linejoin="round"/>
<path d="M57.3784 55.0261C57.7128 57.5912 59.6897 60.8792 61.578 59.8888C62.4603 59.5082 63.1865 58.8348 63.6356 57.9806C64.0848 57.1265 64.2299 56.1432 64.0467 55.1945C63.7123 52.6294 62.3747 51.3716 60.3487 50.9557C58.1751 50.5199 57.0342 52.461 57.3784 55.0261Z" fill="#ED906B"/>
<path d="M57.9785 51.7876C58.2546 51.6014 58.5701 51.4827 58.8998 51.4409C59.2295 51.3992 59.5644 51.4355 59.8777 51.5471C60.191 51.6587 60.4741 51.8424 60.7044 52.0836C60.9347 52.3248 61.106 52.6168 61.2044 52.9364L60.9684 51.1141C60.48 50.9124 59.9473 50.8441 59.4243 50.916C59.1342 50.9444 58.8541 51.0373 58.604 51.188C58.354 51.3387 58.1403 51.5435 57.9785 51.7876Z" fill="#FFBC80"/>
<path d="M90.2377 55.0261C89.9033 57.5912 87.9264 60.8792 86.0282 59.8888C85.1478 59.5065 84.4238 58.8324 83.9765 57.9784C83.5292 57.1244 83.3855 56.142 83.5694 55.1945C83.9038 52.6294 85.2414 51.3716 87.2576 50.9557C89.441 50.5199 90.5327 52.461 90.2377 55.0261Z" fill="#ED906B"/>
<path d="M89.6378 51.7876C89.3623 51.5992 89.0466 51.4788 88.7163 51.4359C88.386 51.393 88.0504 51.4289 87.7364 51.5408C87.4225 51.6526 87.139 51.8371 86.9089 52.0796C86.6788 52.322 86.5086 52.6155 86.4119 52.9364L86.6479 51.1141C87.1327 50.9119 87.6624 50.8435 88.1822 50.916C88.474 50.943 88.7561 51.0352 89.0079 51.186C89.2597 51.3368 89.4749 51.5423 89.6378 51.7876Z" fill="#FFBC80"/>
<path d="M82.1825 66.9605C81.3859 69.7732 82.4972 76.072 82.6841 77.6467C83.8367 79.0766 84.7381 80.6944 85.3494 82.4302C87.0903 87.7683 85.6937 96.4836 84.9659 96.8203C79.6549 99.1972 69.1214 99.2863 63.9973 96.8203C62.9941 96.4143 61.8926 89.4816 62.9154 84.5298C63.4564 81.8855 64.7054 79.6868 65.7676 79.36C65.9938 78.7559 67.4298 71.9025 66.4561 67.2973L82.1825 66.9605Z" fill="#FFBC80"/>
<path d="M81.9465 68.6244C81.8685 69.5173 81.8685 70.4154 81.9465 71.3083C81.9465 71.3083 77.3928 76.7454 74.1374 76.7454C70.8819 76.7454 66.7315 71.7242 66.7315 71.7242C66.7315 71.7242 66.8004 68.3669 66.6528 66.9605L81.9465 68.6244Z" fill="#F3A07F"/>
<path d="M60.9683 49.6883C60.9683 51.3856 61.3002 53.0662 61.9453 54.6343C62.5903 56.2023 63.5357 57.6271 64.7275 58.8272C65.9193 60.0274 67.3342 60.9794 68.8914 61.6289C70.4486 62.2784 72.1176 62.6127 73.8031 62.6127C75.4886 62.6127 77.1576 62.2784 78.7148 61.6289C80.272 60.9794 81.6869 60.0274 82.8788 58.8272C84.0706 57.6271 85.016 56.2023 85.661 54.6343C86.306 53.0662 86.638 51.3856 86.638 49.6883C86.5987 40.1114 80.8943 35.4963 73.813 35.4963C66.7317 35.4963 60.9683 40.3095 60.9683 49.6883Z" fill="#FFBC80"/>
<path d="M61 50C61 57.3052 61 63.3894 63.6539 67.3447C65.2502 69.7345 69.4006 73.8359 72.4137 74.869C73.6142 75.0838 74.8443 75.034 76.0253 74.7229C79.0184 73.6167 82.8396 69.6197 84.3661 67.3447C87 63.3894 87 57.2843 87 50" fill="#FFBC80"/>
<path d="M61.2632 58.7797C60.826 56.1181 61.0836 53.3877 62.0107 50.8567C64.4105 44.9144 70.2821 47.4894 72.1409 38.1106C72.6462 39.2691 73.3868 40.3083 74.315 41.1612C75.2433 42.014 76.3387 42.6617 77.5306 43.0624C85.3987 45.8751 86.6576 51.0745 86.3822 58.4429C86.3822 58.4429 90.0114 55.8184 89.0672 47.4003C88.123 38.9821 83.3136 34.7334 83.3136 34.7334L74.1178 33.0299L65.5612 35.0107C65.5612 35.0107 53.582 43.6269 61.2632 58.7797Z" fill="#0E263F"/>
</svg>
