<svg width="518" height="150" viewBox="0 0 518 150" fill="none" xmlns="http://www.w3.org/2000/svg">
<path d="M180.709 50.2975C192.851 50.2975 198.868 57.3677 198.868 57.3677L194.474 63.8147C190.887 60.3247 186.1 58.3407 181.096 58.2703C171.351 58.2703 164.27 65.5339 164.27 75.4623C164.27 85.3907 171.351 92.8477 181.376 92.8477C190.358 92.8477 196.29 86.4007 196.29 86.4007L200.018 93.1808C200.018 93.1808 193.324 100.917 180.677 100.917C165.484 100.917 154.782 90.1722 154.782 75.602C154.814 61.2466 165.473 50.2975 180.709 50.2975Z" fill="#808285"/>
<path d="M231.168 50.2975C245.599 50.2975 257.257 60.9028 257.257 75.5267C257.257 90.1507 245.599 100.939 231.168 100.939C216.738 100.939 205.08 90.1937 205.08 75.5267C205.08 60.8598 216.738 50.2975 231.168 50.2975ZM231.168 92.9121C240.345 92.9121 247.791 85.6485 247.791 75.5267C247.791 65.405 240.345 58.3347 231.168 58.3347C221.992 58.3347 214.535 65.5017 214.535 75.5267C214.535 85.5518 222.089 92.9121 231.168 92.9121Z" fill="#808285"/>
<path d="M266.304 51.4471H275.255V59.8496C275.255 61.0625 275.194 62.2747 275.072 63.4814H275.255C277.458 56.4112 283.099 50.8776 290.545 50.8776C291.347 50.8828 292.148 50.9438 292.941 51.0602V60.2365C292.061 60.0492 291.165 59.952 290.266 59.9463C284.334 59.9463 278.887 64.1584 276.695 71.3253C275.879 74.149 275.491 77.0792 275.545 80.018V99.7995H266.304V51.4471Z" fill="#808285"/>
<path d="M320.75 50.2975C334.406 50.2975 341.67 60.43 341.67 72.9479C341.67 74.1836 341.391 76.9558 341.391 76.9558H306.126C306.598 87.5611 314.152 92.9121 322.748 92.9121C331.065 92.9121 337.082 87.2818 337.082 87.2818L340.907 94.0619C335.684 98.5134 329.042 100.952 322.179 100.939C306.985 100.939 296.562 89.9573 296.562 75.6234C296.562 60.2366 306.985 50.2975 320.75 50.2975ZM332.214 69.9823C331.924 61.6657 326.767 57.6578 320.556 57.6578C313.486 57.6578 307.748 62.0525 306.416 69.9823H332.214Z" fill="#808285"/>
<path d="M351.04 51.4472H359.539V55.5518C359.539 57.4644 359.356 59.0869 359.356 59.0869H359.539C359.539 59.0869 363.654 50.2975 375.785 50.2975C388.787 50.2975 397.007 60.6234 397.007 75.6234C397.007 91.0103 387.734 100.939 375.119 100.939C372.173 101.031 369.254 100.347 366.655 98.9548C364.056 97.563 361.869 95.5125 360.312 93.0088H360.119C360.255 94.4087 360.319 95.8145 360.312 97.2209V118.894H351.04V51.4472ZM373.69 93.0088C381.33 93.0088 387.658 86.7015 387.658 75.7201C387.658 65.2008 382.017 58.4207 373.991 58.4207C366.727 58.4207 360.022 63.4816 360.022 75.8169C360.022 84.4128 364.793 93.0088 373.69 93.0088Z" fill="#58595B"/>
<path d="M405.893 32.3317H415.155V84.9822C415.155 90.8167 417.454 91.8698 420.312 91.8698C420.858 91.8681 421.403 91.8358 421.946 91.7731V99.9822C420.93 100.107 419.907 100.172 418.883 100.176C413.629 100.176 405.893 98.7466 405.893 86.6047V32.3317Z" fill="#58595B"/>
<path d="M429.209 51.447H438.472V80.3081C438.472 86.9915 439.815 92.3425 447.551 92.3425C457.394 92.3425 463.228 83.6498 463.228 74.076V51.447H472.49V99.7995H463.507V93.3525C463.505 92.1714 463.57 90.9912 463.701 89.8174H463.507C461.909 93.1654 459.386 95.9868 456.238 97.9494C453.089 99.9121 449.445 100.934 445.735 100.896C434.84 100.896 429.209 95.1684 429.209 82.3604V51.447Z" fill="#58595B"/>
<path d="M485.675 87.2818C489.432 90.8136 494.369 92.8207 499.525 92.9121C503.543 92.9121 507.551 90.7631 507.551 86.895C507.551 78.0088 482.709 79.8247 482.709 64.0618C482.709 55.2724 490.542 50.2975 500.191 50.2975C510.807 50.2975 515.771 55.67 515.771 55.67L512.043 62.6435C508.732 59.7837 504.479 58.2524 500.105 58.3455C496.086 58.3455 492.164 60.0647 492.164 64.2767C492.164 72.9694 517.018 71.0568 517.018 86.9164C517.018 94.943 510.13 100.96 499.525 100.96C492.721 101.094 486.136 98.5559 481.183 93.8899L485.675 87.2818Z" fill="#58595B"/>
<path d="M356.54 139.476C358.737 139.476 360.545 137.617 360.545 134.444C360.545 131.271 358.932 129.437 356.644 129.437C354.563 129.437 352.612 130.933 352.612 134.47C352.612 136.979 354.004 139.476 356.579 139.476H356.54ZM351 128.202H352.612V129.411C352.63 129.736 352.63 130.061 352.612 130.386C353.008 129.596 353.627 128.94 354.392 128.499C355.157 128.057 356.035 127.85 356.917 127.903C360.272 127.903 362.352 130.581 362.352 134.405C362.352 138.228 359.999 140.907 356.774 140.907C355.939 140.931 355.114 140.72 354.392 140.3C353.671 139.879 353.081 139.265 352.69 138.527C352.709 138.891 352.709 139.255 352.69 139.619V145.601H351V128.202Z" fill="#808285"/>
<path d="M365.525 128.201H367.19V130.412C367.207 130.741 367.207 131.071 367.19 131.4C367.388 130.497 367.876 129.683 368.581 129.084C369.286 128.485 370.168 128.134 371.091 128.084C371.314 128.087 371.535 128.109 371.754 128.149V129.814C371.546 129.798 371.338 129.798 371.13 129.814C370.258 129.883 369.432 130.236 368.78 130.818C368.127 131.4 367.683 132.18 367.515 133.039C367.282 133.828 367.168 134.648 367.177 135.471V140.672H365.486L365.525 128.201Z" fill="#808285"/>
<path d="M377.84 139.528C380.22 139.528 381.65 137.044 381.65 134.898V134.352H380.909C378.945 134.352 375.031 134.417 375.031 137.174C375.047 137.516 375.133 137.851 375.283 138.158C375.434 138.465 375.647 138.738 375.909 138.959C376.17 139.18 376.474 139.344 376.802 139.442C377.13 139.54 377.474 139.569 377.814 139.528H377.84ZM380.935 132.961H381.624V132.597C381.694 132.169 381.663 131.731 381.534 131.317C381.406 130.903 381.182 130.524 380.882 130.211C380.582 129.899 380.213 129.66 379.805 129.514C379.396 129.368 378.96 129.32 378.529 129.372C377.262 129.391 376.034 129.81 375.018 130.568L374.225 129.268C375.502 128.311 377.064 127.812 378.659 127.85C381.65 127.85 383.315 129.515 383.315 132.636V140.62H381.702V139.255C381.683 138.908 381.683 138.561 381.702 138.214C381.348 139.021 380.765 139.706 380.026 140.185C379.286 140.663 378.422 140.914 377.541 140.906C375.46 140.906 373.302 139.697 373.302 137.226C373.302 133.013 378.776 132.909 380.935 132.909" fill="#808285"/>
<path d="M392.899 127.902C393.741 127.872 394.58 128.015 395.365 128.321C396.15 128.628 396.864 129.091 397.463 129.684L396.592 130.984C395.621 130.026 394.316 129.48 392.951 129.463C392.297 129.451 391.648 129.574 391.043 129.824C390.438 130.073 389.891 130.444 389.435 130.913C388.98 131.382 388.625 131.94 388.393 132.552C388.161 133.163 388.057 133.816 388.087 134.469C388.064 135.125 388.175 135.779 388.413 136.391C388.651 137.003 389.01 137.56 389.47 138.028C389.93 138.496 390.48 138.866 391.088 139.115C391.695 139.364 392.347 139.487 393.003 139.476C393.751 139.471 394.49 139.312 395.174 139.01C395.859 138.708 396.474 138.269 396.982 137.72L397.749 139.021C397.115 139.657 396.358 140.159 395.524 140.494C394.691 140.829 393.797 140.992 392.899 140.971C391.175 140.971 389.521 140.286 388.301 139.067C387.082 137.848 386.397 136.194 386.397 134.469C386.397 132.745 387.082 131.091 388.301 129.872C389.521 128.652 391.175 127.967 392.899 127.967" fill="#808285"/>
<path d="M401.3 129.762H399.661V128.358H401.326V124.795H403.016V128.397H406.137V129.801H403.016V136.004C403.016 138.917 404.876 139.294 405.812 139.294C406.002 139.314 406.194 139.314 406.384 139.294V140.802C406.146 140.823 405.907 140.823 405.669 140.802C404.239 140.802 401.339 140.334 401.339 136.173L401.3 129.762Z" fill="#808285"/>
<path d="M409.128 128.202H410.819V140.659H409.128V128.202ZM409.128 123.247H410.819V125.354H409.063L409.128 123.247Z" fill="#808285"/>
<path d="M420.545 127.902C421.387 127.872 422.226 128.015 423.011 128.321C423.796 128.628 424.51 129.091 425.109 129.684L424.238 130.984C423.267 130.026 421.962 129.48 420.597 129.463C419.269 129.463 417.996 129.99 417.057 130.929C416.118 131.868 415.59 133.141 415.59 134.469C415.59 135.797 416.118 137.071 417.057 138.009C417.996 138.948 419.269 139.476 420.597 139.476C421.347 139.472 422.088 139.314 422.775 139.012C423.461 138.71 424.079 138.27 424.589 137.72L425.356 139.021C424.722 139.657 423.965 140.159 423.131 140.494C422.298 140.829 421.404 140.992 420.506 140.971C418.781 140.971 417.128 140.286 415.908 139.067C414.689 137.848 414.004 136.194 414.004 134.469C414.004 132.745 414.689 131.091 415.908 129.872C417.128 128.652 418.781 127.967 420.506 127.967" fill="#808285"/>
<path d="M437.242 133.13C437.138 130.529 435.552 129.32 433.692 129.32C432.63 129.298 431.599 129.679 430.806 130.386C430.013 131.092 429.515 132.072 429.414 133.13H437.242ZM433.744 127.928C437.19 127.928 438.946 130.529 438.946 133.676C438.946 133.975 438.946 134.547 438.946 134.547H429.388C429.355 135.195 429.457 135.843 429.688 136.45C429.918 137.057 430.272 137.609 430.726 138.072C431.181 138.535 431.726 138.899 432.329 139.141C432.931 139.382 433.577 139.496 434.225 139.476C435.628 139.448 436.973 138.912 438.01 137.967L438.777 139.268C437.496 140.371 435.864 140.984 434.173 140.997C433.312 141.026 432.453 140.878 431.651 140.561C430.849 140.245 430.121 139.767 429.511 139.157C428.902 138.548 428.424 137.819 428.107 137.017C427.791 136.215 427.643 135.357 427.671 134.495C427.614 133.657 427.731 132.817 428.014 132.026C428.297 131.235 428.741 130.512 429.318 129.901C429.894 129.29 430.591 128.806 431.364 128.477C432.137 128.149 432.97 127.984 433.809 127.993" fill="#808285"/>
<path d="M448.829 123.247H450.52V129.996C450.537 130.334 450.537 130.673 450.52 131.01C450.956 130.069 451.657 129.276 452.537 128.726C453.416 128.177 454.437 127.895 455.474 127.916C458.543 127.916 459.635 129.684 459.635 132.753V140.685H457.945V133.195C457.945 131.245 457.659 129.502 455.253 129.502C454.212 129.514 453.204 129.868 452.384 130.51C451.563 131.151 450.977 132.045 450.715 133.052C450.568 133.59 450.502 134.146 450.52 134.704V140.685H448.829V123.247Z" fill="#808285"/>
<path d="M467.009 139.528C469.388 139.528 470.832 137.044 470.832 134.898V134.352H470.117C468.153 134.352 464.239 134.417 464.239 137.174C464.254 137.515 464.34 137.849 464.49 138.155C464.64 138.461 464.852 138.733 465.112 138.954C465.371 139.174 465.674 139.339 466 139.438C466.327 139.537 466.67 139.567 467.009 139.528ZM470.13 132.961H470.832V132.597C470.901 132.169 470.871 131.731 470.742 131.317C470.613 130.903 470.39 130.524 470.09 130.212C469.789 129.899 469.421 129.66 469.012 129.514C468.604 129.369 468.167 129.32 467.737 129.372C466.466 129.393 465.234 129.811 464.213 130.568L463.42 129.268C464.698 128.314 466.259 127.815 467.854 127.85C470.858 127.85 472.509 129.515 472.509 132.636V140.62H470.91V139.255C470.91 138.631 470.91 138.214 470.91 138.214C470.555 139.023 469.97 139.71 469.228 140.189C468.485 140.667 467.619 140.917 466.736 140.906C464.655 140.906 462.509 139.697 462.509 137.226C462.509 133.013 467.984 132.909 470.13 132.909" fill="#808285"/>
<path d="M482.002 139.476C484.212 139.476 486.02 137.616 486.02 134.443C486.02 131.271 484.407 129.437 482.119 129.437C480.038 129.437 478.075 130.932 478.075 134.469C478.075 136.979 479.466 139.476 482.041 139.476H482.002ZM476.436 128.202H478.049V129.411C478.066 129.736 478.066 130.061 478.049 130.386C478.446 129.595 479.067 128.938 479.835 128.497C480.602 128.055 481.482 127.849 482.366 127.902C485.708 127.902 487.788 130.581 487.788 134.404C487.788 138.228 485.435 140.906 482.21 140.906C481.375 140.928 480.552 140.716 479.831 140.296C479.109 139.876 478.519 139.263 478.127 138.527C478.145 138.891 478.145 139.255 478.127 139.619V145.601H476.436V128.202Z" fill="#808285"/>
<path d="M496.644 139.476C498.842 139.476 500.663 137.616 500.663 134.443C500.663 131.271 499.05 129.437 496.761 129.437C494.681 129.437 492.717 130.932 492.717 134.469C492.717 136.979 494.109 139.476 496.618 139.476H496.644ZM491.014 128.202H492.626V129.411C492.644 129.736 492.644 130.061 492.626 130.386C493.024 129.595 493.645 128.938 494.412 128.497C495.18 128.055 496.06 127.849 496.943 127.902C500.285 127.902 502.366 130.581 502.366 134.404C502.366 138.228 500.012 140.906 496.787 140.906C495.965 140.925 495.153 140.718 494.44 140.308C493.727 139.897 493.14 139.299 492.743 138.579C492.762 138.943 492.762 139.307 492.743 139.671V145.601H491.053L491.014 128.202Z" fill="#808285"/>
<path d="M504.368 143.793C504.795 144.124 505.312 144.319 505.851 144.352C506.943 144.352 507.71 143.468 508.204 142.324L508.972 140.568L503.77 128.201H505.63L509.297 137.304C509.544 137.928 509.739 138.605 509.739 138.605C509.86 138.164 510.003 137.73 510.168 137.304L513.757 128.201H515.591L509.44 143.273C509.186 144.026 508.704 144.68 508.061 145.147C507.417 145.613 506.645 145.867 505.851 145.874C505.062 145.865 504.297 145.605 503.666 145.133L504.368 143.793Z" fill="#808285"/>
<path d="M136.709 50.7271H87.0137L115.488 100.025L136.709 50.7271Z" fill="url(#paint0_linear)"/>
<path d="M115.488 100.036V38.1234L86.6157 50.0396L115.488 100.036Z" fill="#FDC17B"/>
<path d="M86.6155 50.0181L115.487 100.036H57.7437L86.6155 50.0181Z" fill="#F68A33"/>
<path d="M57.7546 0.0108032L86.6157 50.0073H28.8828L57.7546 0.0108032Z" fill="#FFCB3B"/>
<path d="M28.8716 50.0073H86.6259L57.7434 100.036L28.8716 50.0073Z" fill="#E4018B"/>
<path d="M31.1713 53.9614L31.1606 53.9721V53.9614H31.1713Z" fill="#E51E25"/>
<path d="M57.7544 0L28.8826 50.0072L0 0H57.7544Z" fill="#FFF68F"/>
<path d="M45.3331 78.5245L57.7436 100.004H0L28.8718 50.0073L45.3331 78.5245Z" fill="#60C5BA"/>
<path d="M0 100.004H57.7436L28.8718 150L0 100.004Z" fill="#B0DFE3"/>
<defs>
<linearGradient id="paint0_linear" x1="4769.83" y1="3508.99" x2="6486.82" y2="2510.1" gradientUnits="userSpaceOnUse">
<stop offset="0.24" stop-color="#BCBEC0"/>
<stop offset="1" stop-color="#E6E7E8"/>
</linearGradient>
</defs>
</svg>
