<svg width="50" height="50" viewBox="0 0 50 50" fill="none" xmlns="http://www.w3.org/2000/svg">
<g clip-path="url(#clip0)">
<path d="M9.93334 13.3333H15.0667C15.4847 13.3334 15.8751 13.1246 16.107 12.7768C16.3389 12.429 16.3816 11.9883 16.2208 11.6025L13.6533 5.43583C13.4592 4.97014 13.0041 4.66682 12.4996 4.66682C11.9951 4.66682 11.54 4.97014 11.3458 5.43583L8.77917 11.6025C8.61837 11.9883 8.66109 12.429 8.893 12.7768C9.12491 13.1246 9.51532 13.3334 9.93334 13.3333ZM12.5 6.99999L14.4425 11.6667H10.5575L12.5 6.99999Z" fill="#F98731"/>
<path d="M1.66667 24.1667H6.66667C7.58714 24.1667 8.33333 23.4205 8.33333 22.5V21.6667C8.33097 20.8446 7.9263 20.0757 7.25 19.6083L8.4725 16.6667H16.5275L17.99 20.1808C17.671 20.6105 17.4992 21.1316 17.5 21.6667V22.5C17.5 23.4205 18.2462 24.1667 19.1667 24.1667H24.1667C25.0871 24.1667 25.8333 23.4205 25.8333 22.5V21.6667C25.8316 20.3677 24.8368 19.2857 23.5425 19.175L15.9833 1.02583C15.7245 0.404443 15.1173 -0.000252295 14.4442 1.18007e-07H11.3892C10.716 -0.000252295 10.1088 0.404443 9.85 1.02583L2.29083 19.175C0.996541 19.2857 0.00176194 20.3677 0 21.6667V22.5C0 23.4205 0.746192 24.1667 1.66667 24.1667ZM1.66667 21.6667C1.66667 21.2064 2.03976 20.8333 2.5 20.8333H2.85C3.18652 20.8332 3.48994 20.6307 3.61917 20.32L11.3892 1.66667H14.4442L22.2142 20.32C22.3434 20.6307 22.6468 20.8332 22.9833 20.8333H23.3333C23.7936 20.8333 24.1667 21.2064 24.1667 21.6667V22.5H19.1667V21.6667C19.17 21.4099 19.288 21.1681 19.4883 21.0075C19.778 20.776 19.8799 20.381 19.7383 20.0383L18.0717 16.0258C17.8122 15.4028 17.2025 14.9977 16.5275 15H8.4725C7.79946 14.9986 7.19204 15.4033 6.93417 16.025L5.3975 19.7125C5.30183 19.9424 5.31395 20.203 5.43057 20.423C5.54718 20.643 5.75605 20.7993 6 20.8492C6.3866 20.9313 6.66395 21.2714 6.66667 21.6667V22.5H1.66667V21.6667Z" fill="#F98731"/>
<path d="M35.0933 42.7333L40.2433 41.7033C40.647 41.623 41.0177 41.4246 41.3083 41.1333L43.7883 38.6533C44.0062 38.4354 44.173 38.1718 44.2767 37.8816L49.8583 22.25C50.0969 21.5744 49.9265 20.8218 49.42 20.315C49.1646 20.0637 48.8398 19.8945 48.4875 19.8291C48.3841 19.2994 48.055 18.8411 47.5861 18.5739C47.1172 18.3068 46.5551 18.2572 46.0467 18.4383L45 18.815V9.64164C45 6.03581 45 -2.4545e-05 37.2917 -2.4545e-05C34.869 -0.0154149 32.4803 0.569805 30.3392 1.70331C29.7038 2.06914 29.3822 2.8072 29.5467 3.52164L30.0558 5.71747C30.1707 6.20685 30.5019 6.61743 30.9558 6.83331C31.417 7.05202 31.9525 7.04957 32.4117 6.82664C33.7758 6.17568 35.2677 5.83638 36.7792 5.83331C37.4257 5.79569 38.0739 5.86868 38.6958 6.04914C39.0567 6.19247 39.2792 6.40747 39.2642 7.04914C39.2642 7.26747 39.2533 7.85831 39.2367 8.33247C35.9408 8.35247 32.82 8.67997 30.435 10.9833C28.2026 13.0969 27.32 16.2707 28.1408 19.2333C28.7294 21.1381 30.128 22.6864 31.9633 23.465L30.4158 24.0183C30.1255 24.1221 29.8617 24.2889 29.6433 24.5066L27.1667 26.9916C26.8752 27.2819 26.6768 27.6524 26.5967 28.0558L25.5667 33.2066C25.5504 33.2872 25.5107 33.3611 25.4525 33.4191L24.2392 34.6325C23.5934 34.5391 22.9414 34.7553 22.4792 35.2158L18.9433 38.75C18.1301 39.5635 18.1301 40.8823 18.9433 41.6958L26.6042 49.3566C27.4177 50.1699 28.7365 50.1699 29.55 49.3566L33.0833 45.8208C33.5439 45.3583 33.76 44.706 33.6667 44.06L34.8792 42.8475C34.9377 42.789 35.0122 42.7493 35.0933 42.7333ZM29.74 18.7591C29.0934 16.3924 29.8075 13.8621 31.5958 12.1825C33.7175 10.135 36.6667 9.97914 40 9.99997C40.9333 9.99997 40.9333 9.25664 40.9333 7.06664C41.0386 5.94304 40.3742 4.88938 39.315 4.49998C38.5007 4.22938 37.6424 4.11625 36.7858 4.16664C35.0176 4.16903 33.2723 4.56769 31.6783 5.33331L31.1483 3.15664C33.0417 2.16032 35.1523 1.64841 37.2917 1.66664C42.9 1.66664 43.3333 4.97164 43.3333 9.64164V19.41L34.75 22.4758C32.4582 22.4323 30.4463 20.9398 29.74 18.7591ZM28.3717 48.1758C28.209 48.3385 27.9452 48.3385 27.7825 48.1758L20.1217 40.5158C19.959 40.3531 19.959 40.0893 20.1217 39.9266L21.595 38.4533L29.845 46.7033L28.3717 48.1758ZM31.9075 44.6408L31.0233 45.5241L22.7733 37.2741L23.6575 36.39C23.8202 36.2273 24.084 36.2273 24.2467 36.39L31.9075 44.05C31.9867 44.1282 32.0312 44.2349 32.0312 44.3462C32.0312 44.4575 31.9867 44.5642 31.9075 44.6425V44.6408ZM33.7017 41.6666L32.7908 42.5833L25.72 35.5083L26.63 34.5983C26.9217 34.3078 27.1204 33.9371 27.2008 33.5333L28.23 28.3833C28.2464 28.3024 28.2864 28.2281 28.345 28.17L30.8242 25.69C30.868 25.6464 30.9209 25.6131 30.9792 25.5925L35.1558 24.1008L35.1808 24.0916L44.4825 20.7691H44.495L46.6075 20.0191C46.6893 19.9911 46.7796 20.0225 46.8263 20.0952C46.8729 20.168 46.8638 20.2632 46.8042 20.3258L39.1892 27.94C37.7435 27.0871 35.8891 27.4421 34.8608 28.7688C33.8325 30.0954 33.9511 31.9798 35.1375 33.1671C36.324 34.3544 38.2083 34.4743 39.5356 33.4469C40.863 32.4195 41.2194 30.5654 40.3675 29.1191L47.9825 21.5C48.0124 21.4567 48.0616 21.4309 48.1142 21.4309C48.1668 21.4309 48.216 21.4567 48.2458 21.5C48.296 21.5502 48.3129 21.6247 48.2892 21.6916L42.7058 37.3208C42.685 37.3787 42.6517 37.4313 42.6083 37.475L40.1283 39.955C40.0701 40.0133 39.9958 40.053 39.915 40.0691L34.765 41.0991C34.3622 41.1789 33.9921 41.3764 33.7017 41.6666ZM38.6833 31.9733C38.0239 32.6027 36.9862 32.6027 36.3267 31.9733C35.8499 31.4967 35.7072 30.7798 35.9652 30.1569C36.2231 29.5341 36.8309 29.1279 37.505 29.1279C38.1792 29.1279 38.7869 29.5341 39.0449 30.1569C39.3028 30.7798 39.1601 31.4967 38.6833 31.9733Z" fill="#F98731"/>
<path d="M40.0178 12.5C37.3869 12.4483 34.4869 12.6 32.8961 14.1583C32.1488 14.9008 31.745 15.9213 31.7819 16.9742C31.717 18.0099 32.0976 19.0241 32.828 19.7613C33.5584 20.4986 34.5689 20.8886 35.6053 20.8333C37.854 20.8805 39.8762 19.4711 40.6103 17.345C40.7505 16.9353 40.8259 16.5063 40.8336 16.0733V13.3333C40.8337 12.8798 40.4711 12.5095 40.0178 12.5ZM39.1669 16.0733C39.1595 16.3252 39.1137 16.5744 39.0311 16.8125C38.5338 18.2672 37.1416 19.2239 35.6053 19.1667C35.0122 19.2196 34.4266 19.0043 34.0091 18.5798C33.5916 18.1553 33.3859 17.5663 33.4486 16.9742C33.4156 16.3702 33.6386 15.7803 34.0628 15.3492C35.0786 14.3533 37.3019 14.1667 39.1669 14.1583V16.0733Z" fill="#F98731"/>
<path d="M2.5002 25C2.03997 25 1.66687 25.3731 1.66687 25.8333V32.5C1.66687 32.9602 2.03997 33.3333 2.5002 33.3333C2.96044 33.3333 3.33354 32.9602 3.33354 32.5V30H22.5002V32.5C22.5002 32.9602 22.8733 33.3333 23.3335 33.3333C23.7938 33.3333 24.1669 32.9602 24.1669 32.5V25.8333C24.1669 25.3731 23.7938 25 23.3335 25C22.8733 25 22.5002 25.3731 22.5002 25.8333V28.3333H3.33354V25.8333C3.33354 25.3731 2.96044 25 2.5002 25Z" fill="#F98731"/>
</g>
<defs>
<clipPath id="clip0">
<rect width="50" height="50" fill="white"/>
</clipPath>
</defs>
</svg>
