<svg width="50" height="42" viewBox="0 0 50 42" fill="none" xmlns="http://www.w3.org/2000/svg">
<path d="M45.6592 21L49.707 15.6028C50.0399 15.159 50.0936 14.5651 49.8454 14.0688C49.5973 13.5726 49.09 13.2591 48.5352 13.2591H40.6901C40.2291 13.2591 39.7949 13.4762 39.5183 13.845L39.3632 14.0519C36.4869 6.16533 28.898 0.707031 20.293 0.707031C9.10342 0.707031 0 9.81045 0 21C0 32.1896 9.10342 41.293 20.293 41.293C28.898 41.293 36.4869 35.8347 39.3632 27.9481L39.5183 28.155C39.7949 28.5238 40.2291 28.7409 40.6901 28.7409H48.5352C49.09 28.7409 49.5972 28.4274 49.8454 27.9312C50.0936 27.4349 50.0399 26.841 49.707 26.3972L45.6592 21ZM37.1829 25.0413C35.3327 32.7987 28.3309 38.3633 20.293 38.3633C10.7188 38.3633 2.92969 30.5741 2.92969 21C2.92969 11.4259 10.7188 3.63672 20.293 3.63672C28.3309 3.63672 35.3327 9.20127 37.183 16.9587L35.6025 19.0661L35.2507 19.5352H34.2336C33.4988 12.4921 27.5273 6.98311 20.293 6.98311C12.564 6.98311 6.27607 13.2711 6.27607 21C6.27607 28.7289 12.564 35.0169 20.293 35.0169C27.5272 35.0169 33.4988 29.5079 34.2336 22.4648H35.2507L35.6025 22.9339L37.1829 25.0413ZM27.8931 19.5352C27.2062 15.9651 24.0604 13.2591 20.293 13.2591C16.0246 13.2591 12.5521 16.7316 12.5521 21C12.5521 25.2684 16.0246 28.7409 20.293 28.7409C24.0604 28.7409 27.2062 26.035 27.8931 22.4648H31.2833C30.5643 27.8885 25.91 32.0872 20.293 32.0872C14.1794 32.0872 9.20576 27.1135 9.20576 21C9.20576 14.8865 14.1794 9.91279 20.293 9.91279C25.91 9.91279 30.5643 14.1115 31.2833 19.5352H27.8931ZM20.293 22.4648H24.8754C24.2542 24.4035 22.4352 25.8112 20.293 25.8112C17.64 25.8112 15.4817 23.6529 15.4817 21C15.4817 18.3471 17.64 16.1888 20.293 16.1888C22.4353 16.1888 24.2542 17.5965 24.8754 19.5352H20.293C19.484 19.5352 18.8281 20.191 18.8281 21C18.8281 21.809 19.484 22.4648 20.293 22.4648ZM42.6562 21.8789L45.6055 25.8112H41.4226L37.8142 21L41.4226 16.1888H45.6055L42.6562 20.1211C42.2656 20.642 42.2656 21.3581 42.6562 21.8789Z" fill="white"/>
</svg>
