<svg width="363" height="288" viewBox="0 0 363 288" fill="none" xmlns="http://www.w3.org/2000/svg">
<path d="M340.619 0.216797H36.4282V195.034H340.619V0.216797Z" fill="#E6E6E6"/>
<path d="M331.921 24.6533H45.1265V183.51H331.921V24.6533Z" fill="white"/>
<path d="M340.49 0.0449219H36.2993V12.968H340.49V0.0449219Z" fill="#F9A826"/>
<path d="M45.9025 9.04626C47.2254 9.04626 48.2977 7.9739 48.2977 6.65106C48.2977 5.32823 47.2254 4.25586 45.9025 4.25586C44.5797 4.25586 43.5073 5.32823 43.5073 6.65106C43.5073 7.9739 44.5797 9.04626 45.9025 9.04626Z" fill="white"/>
<path d="M54.9943 9.04626C56.3172 9.04626 57.3895 7.9739 57.3895 6.65106C57.3895 5.32823 56.3172 4.25586 54.9943 4.25586C53.6715 4.25586 52.5991 5.32823 52.5991 6.65106C52.5991 7.9739 53.6715 9.04626 54.9943 9.04626Z" fill="white"/>
<path d="M64.0856 9.04626C65.4085 9.04626 66.4808 7.9739 66.4808 6.65106C66.4808 5.32823 65.4085 4.25586 64.0856 4.25586C62.7628 4.25586 61.6904 5.32823 61.6904 6.65106C61.6904 7.9739 62.7628 9.04626 64.0856 9.04626Z" fill="white"/>
<path d="M119.315 62.0573C130.794 64.1755 142.504 62.0573 153.935 60.6219L188.675 56.2722C190.08 56.0939 192.125 55.2544 192.951 56.9725C193.417 57.9338 193.103 60.0173 193.138 61.1221C193.23 64.1668 193.221 67.2116 193.138 70.2564C192.982 76.0763 192.555 81.8831 192.012 87.6768C190.955 99.0165 189.458 110.295 188.71 121.678C188.327 127.472 188.136 133.283 188.306 139.077C188.345 140.46 188.401 141.843 188.484 143.222C188.575 144.766 189.267 147.059 187.584 148.09C186.622 148.681 184.73 148.651 183.63 148.825C181.89 149.099 180.15 149.316 178.375 149.494C166.679 150.665 154.831 150.177 143.091 150.108L107.641 149.925L98.9938 149.877C98.2108 149.877 95.3879 150.347 94.9051 149.416C94.7007 149.02 95.2444 147.167 95.3401 146.672C95.4734 145.854 95.6184 145.037 95.775 144.223C96.7842 138.503 97.976 132.818 99.1765 127.137C101.756 114.958 104.396 102.718 105.457 90.278C105.984 84.0362 105.636 77.7378 106.279 71.5091C106.58 68.6166 106.936 62.1616 110.786 61.905C114.048 61.6875 117.406 61.905 120.677 61.905C120.85 61.905 121.016 61.8363 121.138 61.7139C121.261 61.5916 121.329 61.4256 121.329 61.2526C121.329 61.0795 121.261 60.9136 121.138 60.7912C121.016 60.6689 120.85 60.6001 120.677 60.6001C117.589 60.6001 114.496 60.5175 111.408 60.5784C109.355 60.6175 107.928 61.1047 106.949 62.9924C104.448 67.838 104.705 74.3016 104.627 79.5908C104.44 92.2527 102.495 104.645 99.9638 117.028C98.6893 123.262 97.3148 129.473 96.0491 135.71C95.4532 138.69 94.8833 141.678 94.3614 144.675C94.1178 146.102 92.8868 149.247 93.9699 150.556C95.053 151.865 98.3848 151.16 99.8768 151.169L110.255 151.23L130.142 151.343C142.991 151.417 155.883 151.778 168.728 151.4C174.861 151.217 181.342 150.965 187.314 149.499C189.093 149.064 189.95 148.246 190.02 146.35C190.124 143.409 189.645 140.378 189.585 137.424C189.15 112.152 195.087 87.2332 194.478 61.9529C194.439 60.2347 195.087 55.9025 193.208 54.8629C192.364 54.3931 191.268 54.6498 190.381 54.7541C188.684 54.9499 186.992 55.1891 185.296 55.3892L163.265 58.1382C156.222 59.0081 149.185 59.9477 142.13 60.748C134.661 61.6179 127.119 62.1355 119.677 60.748C118.854 60.5958 118.502 61.8528 119.329 62.0051L119.315 62.0573Z" fill="#E6E6E6"/>
<path d="M105.466 77.4339L192.382 73.1712C193.221 73.1277 193.225 71.8228 192.382 71.8663L105.466 76.129C104.631 76.1681 104.627 77.4731 105.466 77.4339Z" fill="#E6E6E6"/>
<path d="M132.242 66.6774C131.999 66.935 131.823 67.248 131.728 67.5894C131.634 67.9307 131.624 68.2899 131.7 68.6359C131.776 68.9818 131.935 69.304 132.164 69.5745C132.392 69.8449 132.684 70.0553 133.012 70.1876C134.182 70.7226 135.557 70.2746 136.718 69.9831C138.458 69.5482 140.198 69.161 141.986 68.8435C145.877 68.1547 149.818 67.7881 153.769 67.7474C155.57 67.7256 157.357 67.8083 159.158 67.8866C160.463 67.9388 161.868 68.0432 162.973 67.2341C164.234 66.312 164.643 64.5112 163.408 63.389C161.668 61.8014 157.919 62.7235 155.909 62.8888C148.617 63.4946 141.373 64.5756 134.222 66.125C133.404 66.299 133.747 67.5604 134.57 67.382C139.287 66.3642 144.042 65.5465 148.832 64.9288C151.187 64.6388 153.546 64.3938 155.909 64.1937C157.023 64.1024 158.136 64.0197 159.25 63.9545C159.685 63.9284 160.146 63.8805 160.589 63.8936C161.968 63.924 162.129 63.6761 161.303 65.342C160.568 66.8166 160.802 66.6469 159.528 66.5991C158.989 66.5991 158.449 66.5382 157.91 66.5121C156.805 66.4657 155.7 66.441 154.595 66.4381C152.244 66.4381 149.898 66.5512 147.558 66.7774C145.574 66.9688 143.595 67.2385 141.633 67.5865C140.407 67.8039 139.189 68.0562 137.975 68.3346C137.44 68.4607 136.901 68.5912 136.366 68.7261C136.109 68.7957 135.848 68.8566 135.592 68.9218C134.641 69.2524 133.83 68.8174 133.16 67.6169C133.743 67.0123 132.825 66.0858 132.238 66.6948L132.242 66.6774Z" fill="#E6E6E6"/>
<path d="M147.997 85.2421C141.703 84.9985 134.905 86.6992 130.759 91.7666C127.514 95.7292 125.666 102.528 129.102 106.99C132.795 111.775 140.894 110.931 145.779 108.891C150.946 106.716 156.601 102.232 158.154 96.6208C160.089 89.6135 153.804 84.3156 147.258 84.2373C147.089 84.2435 146.929 84.3149 146.811 84.4366C146.694 84.5583 146.629 84.7207 146.629 84.8898C146.629 85.0588 146.694 85.2212 146.811 85.3429C146.929 85.4646 147.089 85.536 147.258 85.5422C150.99 85.5857 154.652 87.1864 156.392 90.6618C158.214 94.3242 156.644 98.1693 154.217 101.101C150.329 105.768 144.248 109.287 138.054 109.187C134.335 109.131 130.224 107.856 129.072 103.933C128.123 100.753 128.845 97.2776 130.498 94.459C134.074 88.3695 141.351 86.3078 148.023 86.5687C148.863 86.5992 148.863 85.2943 148.023 85.2638L147.997 85.2421Z" fill="#E6E6E6"/>
<path d="M141.747 94.9065C141.479 94.807 141.19 94.7771 140.907 94.8195C140.624 94.8618 140.356 94.9751 140.128 95.1488C139.901 95.3224 139.721 95.5508 139.606 95.8126C139.49 96.0745 139.443 96.3613 139.468 96.6464C139.598 98.3427 141.469 98.8212 142.874 98.7212C144.087 98.6168 145.505 98.1687 145.079 96.6507C145.001 96.382 144.865 96.1334 144.682 95.9217C144.499 95.7101 144.272 95.5403 144.018 95.4241C143.629 95.2697 143.206 95.2173 142.791 95.2719C142.63 95.2719 141.156 95.8112 141.782 95.1631L140.756 95.0283C140.869 95.1406 140.957 95.2771 141.011 95.4277C141.065 95.5782 141.085 95.739 141.069 95.8982C141.071 96.0119 141.102 96.1231 141.16 96.221C141.218 96.3189 141.3 96.4001 141.399 96.4567C141.497 96.5132 141.609 96.5432 141.723 96.5437C141.836 96.5441 141.948 96.5151 142.047 96.4593C142.197 96.3969 142.36 96.3772 142.52 96.4027C142.68 96.4281 142.829 96.4976 142.952 96.6033C143.074 96.7091 143.165 96.8469 143.213 97.0012C143.262 97.1556 143.266 97.3204 143.226 97.4771C143.191 97.6278 143.21 97.786 143.281 97.9239C143.351 98.0618 143.467 98.1704 143.61 98.2307C143.752 98.291 143.911 98.2991 144.059 98.2536C144.207 98.208 144.334 98.1117 144.418 97.9817C144.853 97.1988 145.379 95.6416 144.727 94.8238C144.292 94.2714 143.452 94.4367 142.93 94.7586C142.608 94.9866 142.308 95.2443 142.034 95.5285C141.508 95.9939 141.164 96.2114 141.36 95.3197C141.686 93.6973 143.235 92.4054 144.648 91.7573L143.692 91.0222C143.19 92.9075 142.293 94.6646 141.06 96.1766L142.174 96.6377C142.142 96.0404 142.295 95.448 142.613 94.9412C142.931 94.4344 143.397 94.038 143.948 93.806H143.309L143.648 94.3628C143.522 95.1849 144.779 95.5372 144.905 94.7064C145.07 93.632 144.392 92.2358 143.135 92.7621C141.634 93.3884 140.856 95.1066 140.886 96.6377C140.886 97.1596 141.625 97.5641 142.004 97.1031C143.387 95.4225 144.397 93.4668 144.966 91.3658C144.996 91.2412 144.99 91.1104 144.947 90.9895C144.904 90.8686 144.827 90.7627 144.725 90.6848C144.623 90.6069 144.501 90.5603 144.373 90.5507C144.245 90.5411 144.117 90.5689 144.005 90.6308C142.702 91.2197 141.601 92.1787 140.838 93.3884C140.307 94.2584 139.642 95.6155 140.181 96.6159C140.269 96.7749 140.387 96.9151 140.529 97.0284C140.671 97.1417 140.834 97.2259 141.009 97.2762C141.183 97.3265 141.366 97.342 141.547 97.3217C141.727 97.3014 141.902 97.2458 142.061 97.158L142.073 97.1509C142.476 96.9125 142.843 96.6197 143.165 96.281C143.326 96.1375 143.505 95.8895 143.718 95.846C143.909 95.7155 143.9 95.7895 143.687 96.0766C143.684 96.5273 143.553 96.9679 143.309 97.3467L144.501 97.8469C144.608 97.4407 144.595 97.0122 144.464 96.613C144.334 96.2139 144.09 95.8612 143.763 95.5976C143.436 95.334 143.039 95.1707 142.621 95.1276C142.203 95.0845 141.782 95.1633 141.408 95.3545L142.391 95.92C142.412 95.3664 142.238 94.8232 141.899 94.3845C141.848 94.2999 141.778 94.2279 141.696 94.1739C141.613 94.1198 141.519 94.085 141.421 94.072C141.323 94.0591 141.223 94.0683 141.129 94.0991C141.035 94.1298 140.949 94.1813 140.877 94.2497C140.216 94.9413 140.09 96.1374 140.921 96.7769C141.543 97.251 141.847 96.7769 142.53 96.6681C144.849 96.368 143.496 97.4119 142.678 97.4467C142.312 97.4859 141.943 97.4594 141.586 97.3684C140.679 97.061 140.622 96.6652 141.417 96.1809C142.195 96.4985 142.53 95.2371 141.765 94.9239L141.747 94.9065Z" fill="#E6E6E6"/>
<path d="M140.699 97.2903C141.234 99.0302 139.025 99.6043 137.976 100.205C137.241 100.617 136.599 101.179 136.093 101.853C134.997 103.323 134.588 105.194 134.227 106.955C134.062 107.777 135.319 108.125 135.488 107.303C135.687 106.009 136.057 104.747 136.589 103.55C137.372 101.992 138.494 101.47 139.955 100.67C141.417 99.8697 142.474 98.63 141.956 96.9423C141.713 96.142 140.451 96.4856 140.699 97.2903Z" fill="#E6E6E6"/>
<path d="M142.873 96.416C142.562 96.459 142.278 96.6167 142.077 96.858C141.875 97.0994 141.772 97.4071 141.785 97.7209C141.785 98.2385 142.129 98.5691 142.364 98.9823C142.922 99.8278 143.347 100.753 143.625 101.727C143.834 102.662 144.039 104.337 143.551 105.207C142.651 106.82 141.024 106.512 139.637 106.512C138.332 106.512 137.323 106.947 137.366 105.128C137.392 104.106 138.106 103.071 138.671 102.266L137.479 102.11C137.731 103.438 137.863 104.786 137.875 106.138C137.875 106.742 138.802 107.077 139.089 106.464C139.788 104.993 140.343 103.457 140.746 101.879L139.463 101.705L139.689 105.011C139.693 105.152 139.742 105.288 139.829 105.399C139.916 105.51 140.037 105.59 140.173 105.627C140.309 105.664 140.454 105.657 140.585 105.605C140.716 105.554 140.828 105.461 140.902 105.342C141.055 105.173 141.166 104.973 141.229 104.754C141.272 104.55 140.872 103.171 140.711 103.663L141.99 103.837L142.081 100.696L140.776 100.87C141.052 101.756 141.135 102.69 141.02 103.61C140.937 104.337 142.16 104.502 142.325 103.784L143.143 99.5652L141.951 99.7174C142.234 100.301 142.312 100.963 142.173 101.596C142.077 102.432 143.382 102.423 143.477 101.596C143.588 100.73 143.449 99.8506 143.077 99.0606C143.011 98.9517 142.915 98.8644 142.8 98.8093C142.685 98.7542 142.557 98.7337 142.43 98.7503C142.304 98.7669 142.185 98.8199 142.089 98.9028C141.992 98.9857 141.921 99.0949 141.885 99.2172L141.063 103.436L142.347 103.61C142.477 102.573 142.378 101.521 142.055 100.526C142.012 100.377 141.916 100.247 141.785 100.162C141.654 100.077 141.498 100.041 141.343 100.062C141.188 100.082 141.046 100.158 140.942 100.274C140.838 100.39 140.779 100.54 140.776 100.696L140.685 103.837C140.688 103.993 140.748 104.142 140.852 104.259C140.956 104.375 141.098 104.451 141.252 104.472C141.407 104.492 141.564 104.458 141.695 104.373C141.826 104.289 141.923 104.16 141.968 104.011L142.038 103.797C142.068 103.686 142.068 103.569 142.039 103.458C142.01 103.347 141.953 103.245 141.872 103.162C140.52 101.692 140.246 104.032 139.776 104.68L140.994 105.011L140.768 101.705C140.72 101.001 139.676 100.783 139.484 101.531C139.117 103.002 138.607 104.434 137.962 105.807L139.18 106.138C139.166 104.669 139.02 103.204 138.745 101.762C138.632 101.162 137.845 101.188 137.553 101.605C136.683 102.858 135.178 105.594 136.34 107.094C137.353 108.399 140.541 107.895 141.903 107.812C144.052 107.69 144.83 106.329 145.065 104.302C145.177 103.331 145.123 102.349 144.904 101.396C144.787 100.883 143.599 97.6296 143.243 97.6948C144.069 97.5426 143.717 96.2812 142.895 96.4334L142.873 96.416Z" fill="#E6E6E6"/>
<path d="M140.347 99.3474L136.785 104.049L137.911 104.706L140.521 100.931L139.329 100.426L138.029 105.389C137.994 105.54 138.013 105.698 138.083 105.836C138.153 105.974 138.27 106.082 138.412 106.143C138.555 106.203 138.714 106.211 138.862 106.166C139.01 106.12 139.137 106.024 139.221 105.894C139.812 104.913 140.477 103.978 141.208 103.097L140.121 102.462C139.829 103.585 139.266 104.62 138.481 105.476L139.573 106.111C139.64 105.51 139.8 104.923 140.047 104.371C140.382 103.619 139.321 102.953 138.92 103.71C138.552 104.399 138.132 105.06 137.663 105.685L138.855 105.841L139.12 104.602L137.929 104.445L138.12 105.533C138.151 105.642 138.211 105.741 138.292 105.821C138.374 105.901 138.474 105.958 138.584 105.987C138.694 106.016 138.81 106.015 138.92 105.986C139.03 105.957 139.131 105.9 139.212 105.82C140.315 104.678 141.2 103.344 141.822 101.883H140.699C140.994 102.427 141.201 103.014 141.313 103.623C141.469 104.406 142.509 104.115 142.592 103.449C142.778 101.992 142.874 100.525 142.879 99.056H141.574V101.792C141.574 102.501 142.735 102.71 142.857 101.966C142.943 101.306 143.16 100.67 143.496 100.096H142.352C142.628 100.54 142.778 101.051 142.787 101.574C142.787 101.747 142.856 101.913 142.978 102.036C143.101 102.158 143.267 102.227 143.44 102.227C143.613 102.227 143.779 102.158 143.901 102.036C144.023 101.913 144.092 101.747 144.092 101.574L144.257 100.704H143C143.127 101.474 143.605 105.811 141.904 105.302C141.617 105.233 141.535 105.25 141.656 105.35L142.043 104.524L142.953 102.597L141.735 102.266C141.813 103.162 141.896 104.441 141.356 105.206C140.921 105.828 139.582 106.076 138.899 105.711C138.448 105.39 138.062 104.985 137.763 104.519L136.872 105.389C137.594 105.915 138.764 107.207 139.695 107.281C140.404 107.338 141 106.751 141.465 106.281C142.179 105.543 142.735 104.668 143.101 103.709C143.467 102.749 143.634 101.726 143.592 100.7C143.592 100.527 143.523 100.361 143.401 100.239C143.278 100.116 143.113 100.048 142.939 100.048C142.766 100.048 142.6 100.116 142.478 100.239C142.356 100.361 142.287 100.527 142.287 100.7V102.188C142.287 102.361 142.356 102.527 142.478 102.649C142.6 102.771 142.766 102.84 142.939 102.84C143.113 102.84 143.278 102.771 143.401 102.649C143.523 102.527 143.592 102.361 143.592 102.188V98.5383C143.592 98.3653 143.523 98.1994 143.401 98.077C143.278 97.9546 143.113 97.8859 142.939 97.8859C142.766 97.8859 142.6 97.9546 142.478 98.077C142.356 98.1994 142.287 98.3653 142.287 98.5383C142.285 99.4131 142.209 100.286 142.061 101.148L143.344 101.322C143.242 100.283 143.194 99.239 143.2 98.1947C143.198 98.0384 143.14 97.888 143.037 97.7709C142.933 97.6538 142.791 97.5778 142.636 97.5567C142.481 97.5357 142.324 97.5709 142.193 97.6561C142.062 97.7412 141.965 97.8706 141.922 98.0207C141.726 98.8515 141.487 99.6693 141.256 100.483L142.448 100.326L142.357 99.9781C142.296 99.1473 140.991 99.143 141.052 99.9781C141.066 100.33 141.158 100.675 141.321 100.987C141.574 101.518 142.361 101.331 142.513 100.831C142.761 100.013 142.983 99.1952 143.179 98.3687L141.896 98.1947C141.889 99.239 141.937 100.283 142.039 101.322C142.104 101.992 143.183 102.279 143.318 101.496C143.492 100.514 143.583 99.5186 143.592 98.5209H142.287V102.17H143.592V100.683H142.287C142.364 102.324 141.794 103.929 140.699 105.154C140.53 105.347 140.347 105.527 140.151 105.694C139.843 105.989 139.56 105.946 139.312 105.559C138.694 105.302 138.055 104.641 137.515 104.254C136.976 103.867 136.237 104.632 136.619 105.145C137.62 106.476 139.112 107.96 140.969 107.32C142.922 106.629 143.187 103.984 143.04 102.244C142.992 101.666 142.126 101.274 141.826 101.918C141.391 102.836 140.956 103.749 140.521 104.671C140.296 105.015 140.161 105.41 140.13 105.82C140.273 106.798 141.461 106.637 142.191 106.581C145.023 106.368 144.575 102.353 144.249 100.335C144.14 99.6649 143.166 99.7692 142.992 100.335C142.853 100.732 142.781 101.149 142.779 101.57H144.083C144.036 100.822 143.827 100.093 143.47 99.4343C143.412 99.337 143.329 99.2565 143.231 99.2006C143.132 99.1447 143.02 99.1153 142.907 99.1153C142.793 99.1153 142.682 99.1447 142.583 99.2006C142.484 99.2565 142.402 99.337 142.344 99.4343C141.955 100.106 141.692 100.843 141.569 101.609L142.874 101.783V99.0472C142.874 98.8742 142.805 98.7082 142.683 98.5858C142.561 98.4635 142.395 98.3947 142.222 98.3947C142.049 98.3947 141.883 98.4635 141.76 98.5858C141.638 98.7082 141.569 98.8742 141.569 99.0472C141.565 100.516 141.469 101.983 141.282 103.44L142.565 103.266C142.418 102.555 142.167 101.87 141.822 101.231C141.763 101.133 141.681 101.053 141.582 100.997C141.483 100.941 141.372 100.912 141.258 100.912C141.145 100.912 141.033 100.941 140.935 100.997C140.836 101.053 140.753 101.133 140.695 101.231C140.128 102.593 139.312 103.838 138.29 104.902L139.381 105.189L139.19 104.102C139.09 103.523 138.272 103.506 137.998 103.945C137.782 104.272 137.635 104.64 137.567 105.026C137.499 105.412 137.511 105.808 137.602 106.189C137.711 106.807 138.494 106.742 138.794 106.346C139.263 105.722 139.683 105.064 140.051 104.376L138.925 103.714C138.624 104.364 138.419 105.054 138.316 105.763C138.237 106.337 138.92 106.938 139.408 106.398C140.343 105.375 141.02 104.143 141.382 102.805C141.543 102.214 140.726 101.653 140.291 102.17C139.49 103.129 138.763 104.147 138.116 105.215L139.308 105.72L140.634 100.774C140.669 100.623 140.65 100.465 140.58 100.327C140.51 100.189 140.393 100.081 140.25 100.02C140.108 99.9601 139.949 99.952 139.801 99.9976C139.653 100.043 139.526 100.139 139.442 100.269L136.833 104.049C136.345 104.75 137.463 105.354 137.959 104.706L141.508 100.008C142.013 99.3386 140.882 98.7036 140.382 99.3473L140.347 99.3474Z" fill="#E6E6E6"/>
<path d="M195.84 115.046C201.06 111.853 205.209 107.091 209.82 103.106C214.822 98.787 220.072 94.7636 225.479 90.9532C235.979 83.5588 247.005 76.9429 258.023 70.3445C258.166 70.2541 258.268 70.112 258.308 69.9478C258.348 69.7837 258.323 69.6104 258.238 69.4645C258.153 69.3185 258.014 69.2112 257.852 69.1653C257.689 69.1193 257.515 69.1381 257.366 69.2179C246.348 75.8164 235.318 82.4192 224.818 89.8267C219.863 93.3064 215.026 96.995 210.39 100.91C205.344 105.172 200.851 110.479 195.166 113.92C194.448 114.355 195.105 115.485 195.823 115.046H195.84Z" fill="#E6E6E6"/>
<path d="M274.869 50.0829C269.214 50.657 263.125 52.0968 259.645 57.0423C256.639 61.2963 256.704 68.7169 259.527 73.084C262.733 78.0469 269.284 78.2253 274.373 76.6203C279.462 75.0152 284.729 72.201 284.682 66.1201C284.656 62.8579 283.477 59.4608 282.176 56.503C281.054 53.9497 279.066 51.7183 276.056 52.0011C275.225 52.0794 275.217 53.3843 276.056 53.306C280.088 52.9319 281.385 57.7209 282.341 60.7439C283.211 63.5669 284.016 66.9074 282.65 69.713C281.285 72.5185 277.992 73.9496 275.178 74.9761C272.133 76.0809 268.788 76.7551 265.608 75.846C259.31 74.0844 257.57 66.1027 259.384 60.4394C261.472 53.9149 268.866 51.9967 274.89 51.3878C275.717 51.3051 275.726 50.0002 274.89 50.0829H274.869Z" fill="#E6E6E6"/>
<path d="M283.568 100.539C277.914 101.113 271.824 102.553 268.345 107.498C265.339 111.752 265.404 119.173 268.227 123.54C271.433 128.503 277.983 128.681 283.073 127.076C288.162 125.471 293.429 122.657 293.381 116.576C293.355 113.314 292.176 109.917 290.876 106.959C289.754 104.406 287.766 102.174 284.756 102.457C283.925 102.535 283.916 103.84 284.756 103.762C288.788 103.388 290.084 108.177 291.041 111.2C291.911 114.023 292.716 117.363 291.35 120.169C289.984 122.975 286.692 124.406 283.877 125.432C280.832 126.537 277.488 127.211 274.308 126.302C268.01 124.54 266.27 116.559 268.084 110.895C270.171 104.371 277.566 102.453 283.59 101.844C284.417 101.761 284.425 100.456 283.59 100.539H283.568Z" fill="#E6E6E6"/>
<path d="M266.339 62.7892L270.458 67.4868C270.54 67.5655 270.64 67.6218 270.75 67.6501C270.86 67.6785 270.975 67.6779 271.084 67.6486C271.194 67.6193 271.294 67.5621 271.375 67.4827C271.456 67.4033 271.514 67.3043 271.546 67.1954C272.416 64.9074 272.25 62.5369 272.455 60.1315C272.68 57.6454 273.304 55.2118 274.303 52.9241C276.31 48.284 279.713 44.3843 284.038 41.7672C284.756 41.3322 284.099 40.2013 283.381 40.6406C279.116 43.2087 275.695 46.9672 273.538 51.4539C272.482 53.6372 271.749 55.9625 271.363 58.3568C270.928 61.1798 271.324 64.1376 270.28 66.8474L271.372 66.556L267.274 61.867C266.718 61.2363 265.8 62.1628 266.352 62.7892H266.339Z" fill="#E6E6E6"/>
<path d="M197.94 120.13C220.376 119.446 242.817 119.301 265.265 119.695C265.434 119.689 265.593 119.618 265.711 119.496C265.828 119.374 265.894 119.212 265.894 119.043C265.894 118.874 265.828 118.711 265.711 118.59C265.593 118.468 265.434 118.396 265.265 118.39C242.823 117.99 220.382 118.135 197.94 118.825C197.101 118.851 197.096 120.156 197.94 120.13Z" fill="#E6E6E6"/>
<path d="M269.953 107.265C277.623 110.275 285 113.982 291.993 118.34C292.706 118.775 293.363 117.657 292.65 117.213C285.565 112.802 278.09 109.051 270.319 106.008C269.54 105.699 269.201 106.961 269.975 107.265H269.953Z" fill="#E6E6E6"/>
<path d="M283.881 101.352C276.104 110.419 271.599 121.836 271.089 133.77C271.054 134.61 272.359 134.61 272.394 133.77C272.888 122.178 277.258 111.088 284.804 102.274C285.347 101.639 284.429 100.713 283.881 101.352Z" fill="#E6E6E6"/>
<path d="M109.916 115.394L158.532 114.759L164.122 114.685C165.126 114.685 166.131 114.65 167.136 114.646C168.55 114.646 169.502 115.82 169.476 117.256C169.411 120.3 167.497 120.192 164.992 120.3L158.95 120.574L134.348 121.657C129.942 121.853 125.531 122.092 121.125 122.245C117.15 122.366 109.59 121.07 111.356 115.285C111.599 114.481 110.342 114.137 110.094 114.937C109.224 117.782 110.764 120.67 113.243 122.162C116.762 124.276 121.399 123.558 125.283 123.384L155.488 122.014L162.821 121.688C164.7 121.601 167.314 121.984 169.041 121.109C171.068 120.087 171.425 116.029 170.146 114.32C169.489 113.45 168.567 113.371 167.536 113.332C164.831 113.228 162.077 113.406 159.367 113.441L144.309 113.641L109.899 114.076C109.73 114.082 109.57 114.154 109.452 114.275C109.335 114.397 109.27 114.559 109.27 114.728C109.27 114.897 109.335 115.06 109.452 115.182C109.57 115.303 109.73 115.375 109.899 115.381L109.916 115.394Z" fill="#E6E6E6"/>
<path d="M252.746 149.275L238.625 140.768L242.748 156.73L245.234 150.915L249.38 156.474L250.61 155.557L246.464 149.998L252.746 149.275Z" fill="#F9A826"/>
<path d="M273.82 158.438H249.896V166.703H273.82V158.438Z" fill="#F9A826"/>
<path d="M169.187 81.8562L183.308 73.3486L179.184 89.3111L176.698 83.4956L172.552 89.0553L171.322 88.1384L175.468 82.5786L169.187 81.8562Z" fill="#3F3D56"/>
<path d="M172.037 91.4551H148.113V99.7195H172.037V91.4551Z" fill="#3F3D56"/>
<path d="M357.452 256.819L359.914 266.669L349.08 269.623L348.095 259.282L357.452 256.819Z" fill="#A0616A"/>
<path d="M318.056 269.13V278.486L307.222 280.456L305.252 275.531L309.192 267.16L318.056 269.13Z" fill="#A0616A"/>
<path d="M339.723 167.194L338.246 180.49L339.231 206.098C339.231 206.098 339.231 208.56 340.708 209.545C341.501 210.083 358.929 258.789 358.929 258.789C358.929 258.789 354.989 263.714 347.602 262.237L346.125 257.312C346.125 257.312 344.155 250.91 343.17 249.433C342.186 247.956 327.412 217.916 327.412 217.916L320.518 205.605L318.548 222.348C318.548 222.348 322.488 243.524 321.503 253.373C320.518 263.221 318.548 273.563 318.548 273.563L306.729 271.593C306.676 270.004 306.163 268.464 305.252 267.161C303.775 265.191 304.267 258.297 304.267 258.297V256.82L301.312 218.901L295.896 169.164L339.723 167.194Z" fill="#2F2E41"/>
<path d="M306.237 77.5687C313.58 77.5687 319.533 71.6158 319.533 64.2726C319.533 56.9294 313.58 50.9766 306.237 50.9766C298.894 50.9766 292.941 56.9294 292.941 64.2726C292.941 71.6158 298.894 77.5687 306.237 77.5687Z" fill="#A0616A"/>
<path d="M317.809 64.5176L323.226 77.8136L310.422 87.1704L302.543 73.3814L317.809 64.5176Z" fill="#A0616A"/>
<path d="M318.548 74.6136L323.473 72.1514L326.428 79.0456C326.428 79.0456 345.633 84.955 344.156 112.04C342.678 139.124 339.231 149.466 339.231 149.466C339.231 149.466 347.603 167.194 342.678 169.163C337.754 171.133 295.896 178.52 294.911 171.626C293.926 164.731 298.358 124.351 298.358 124.351C298.358 124.351 296.881 95.2964 309.192 89.387L306.73 83.9701L318.548 74.6136Z" fill="#3F3D56"/>
<path d="M291.464 170.148C291.464 170.148 280.137 181.967 286.539 184.922C292.941 187.877 296.88 171.626 296.88 171.626L291.464 170.148Z" fill="#A0616A"/>
<path d="M314.609 276.024L320.026 274.054C320.026 274.054 325.935 287.35 321.01 287.35H308.207C308.207 287.35 300.82 284.888 296.881 284.888C292.941 284.888 285.554 277.502 290.971 274.054C296.388 270.607 303.282 271.592 303.282 271.592L305.252 267.16L307.714 274.054C307.714 274.054 310.669 278.979 314.609 276.024Z" fill="#2F2E41"/>
<path d="M354.497 265.19C354.497 265.19 357.581 263.244 359.24 263.971C360.899 264.698 361.884 272.577 361.884 272.577C361.884 272.577 366.808 278.486 355.974 279.471C345.14 280.456 342.678 278.486 341.693 275.531C340.708 272.577 342.678 269.622 342.678 269.622L345.633 268.637C345.633 268.637 349.08 266.175 348.095 265.19C347.11 264.205 348.095 262.235 348.095 262.235C348.095 262.235 351.542 269.13 354.497 265.19Z" fill="#2F2E41"/>
<path d="M310.785 64.0592C310.731 63.6289 310.634 63.2051 310.496 62.794C309.781 61.2947 306.993 61.7323 306.496 60.1475C306.399 59.8374 306.419 59.5 306.324 59.1892C306.081 58.3968 305.149 58.0037 304.321 58.0418C303.5 58.1552 302.694 58.3626 301.92 58.6599C299.972 59.2128 297.9 59.0018 295.886 58.7862C294.989 58.756 294.109 58.527 293.31 58.1156C292.548 57.6465 291.998 56.7022 292.276 55.8511C292.542 55.0351 293.435 54.5867 293.836 53.828C294.474 52.6234 293.695 51.0675 294.212 49.8065C295.042 47.7836 298.182 48.1898 299.777 46.6946C300.164 46.3317 300.443 45.8678 300.814 45.4884C301.915 44.3629 303.654 44.1451 305.221 44.3003C306.788 44.4556 308.328 44.9157 309.902 44.8879C311.395 44.8615 312.96 44.4068 314.336 44.9875C315.145 45.4015 315.855 45.9851 316.418 46.6985L319.947 50.5684C320.431 51.0253 320.805 51.5873 321.038 52.2111C321.25 52.9526 321.054 53.7487 321.145 54.5147C321.352 56.2615 322.987 57.581 323.208 59.3261C323.252 59.8674 323.226 60.4121 323.13 60.9465L322.636 64.5908C322.611 64.9462 322.516 65.2932 322.357 65.612C322.213 65.8576 321.996 66.0516 321.834 66.2856C321.377 66.9465 321.419 67.82 321.192 68.5907C320.965 69.3613 320.151 70.1239 319.439 69.7525C318.974 69.5102 318.667 67.5064 318.102 66.9861C317.316 66.2614 316.905 66.3508 315.935 66.363C313.991 66.3876 311.407 66.5543 310.785 64.0592Z" fill="#2F2E41"/>
<path d="M313.132 92.8332C313.132 92.8332 327.905 98.7426 323.473 112.039C319.041 125.335 307.222 166.208 307.222 166.208L300.328 169.655L298.358 175.072L289.002 171.625L290.479 164.238L293.926 156.851L302.79 101.697C302.79 101.697 302.79 92.3408 313.132 92.8332Z" fill="#3F3D56"/>
<path opacity="0.1" d="M324.211 114.748L308.945 166.947L302.543 173.35L306.236 166.701L324.211 114.748Z" fill="black"/>
<path d="M24.5298 123.764L27.4082 144.232L39.5615 165.98C43.0796 169.179 39.8814 176.854 39.8814 176.854L36.6831 174.616L36.0435 170.778C36.0435 170.778 21.9712 154.787 18.4531 150.949C14.935 147.111 13.6558 126.002 13.6558 126.002L24.5298 123.764Z" fill="#FBBEBE"/>
<path d="M13.9365 262.572C13.9365 262.572 14.5762 269.928 14.2563 271.847C13.9365 273.766 4.3418 271.527 4.3418 271.527C5.94092 268.329 6.90039 258.734 6.90039 258.734L13.9365 262.572Z" fill="#FBBEBE"/>
<path d="M61.5903 264.492C61.5903 264.492 62.5498 274.726 62.23 276.645C61.9102 278.564 52.3154 276.325 52.3154 276.325C53.9146 273.127 54.874 263.532 54.874 263.532L61.5903 264.492Z" fill="#FBBEBE"/>
<path d="M41.9914 100.422C48.4161 100.422 53.6244 95.2139 53.6244 88.7892C53.6244 82.3645 48.4161 77.1562 41.9914 77.1562C35.5667 77.1562 30.3584 82.3645 30.3584 88.7892C30.3584 95.2139 35.5667 100.422 41.9914 100.422Z" fill="#FBBEBE"/>
<path d="M43.9996 99.7817C42.0806 102.34 43.0401 106.818 43.0401 106.818C43.0401 106.818 23.5308 129.525 20.0128 129.525C16.4947 129.525 17.1343 113.534 17.1343 113.534C17.1343 113.534 22.2515 107.458 25.13 106.178C28.0084 104.899 33.1256 91.1465 33.1256 91.1465C33.1256 91.1465 45.9185 97.2231 43.9996 99.7817Z" fill="#FBBEBE"/>
<path d="M57.1135 143.278L69.6327 164.308C71.9176 168.067 67.6677 187.094 67.6677 187.094L65.7488 227.712L62.5505 268.639V273.117L51.9964 272.797L48.4783 228.991L43.3611 196.049L35.0457 221.315L21.2932 252.338C20.119 256.165 18.676 259.904 16.975 263.527L14.4164 268.005L4.82422 266.883L19.3743 217.797L22.2527 185.815C22.5726 167.905 28.3294 157.99 28.3294 157.99V154.152L57.1135 143.278Z" fill="#2F2E41"/>
<path d="M13.2972 270.248C13.2972 270.248 14.8964 267.689 14.8964 268.649C14.8964 269.608 19.0541 272.167 19.0541 272.167C19.0541 272.167 23.2118 271.527 23.8514 276.325C24.4911 281.122 18.0946 282.081 16.4955 281.762C14.8964 281.442 10.7387 282.081 10.7387 282.081C10.7387 282.081 7.54042 282.721 2.42324 282.081C-2.69395 281.442 1.78359 272.807 2.42324 271.207C3.06288 269.608 6.26112 270.888 6.26112 270.888C12.018 272.487 13.2972 270.248 13.2972 270.248Z" fill="#2F2E41"/>
<path d="M61.2709 275.046C61.2709 275.046 62.87 272.487 62.87 273.447C62.87 274.406 67.0277 276.965 67.0277 276.965C67.0277 276.965 71.1854 276.325 71.8251 281.122C72.4647 285.92 66.0683 286.879 64.4691 286.56C62.87 286.24 58.7123 286.879 58.7123 286.879C58.7123 286.879 55.5141 287.519 50.3969 286.879C45.2797 286.24 49.7572 277.604 50.3969 276.005C51.0365 274.406 54.2348 275.686 54.2348 275.686C59.9916 277.285 61.2709 275.046 61.2709 275.046Z" fill="#2F2E41"/>
<path d="M39.2031 106.499C47.1987 98.1841 55.834 118.973 55.834 118.973C55.834 118.973 58.7124 126.648 56.4736 130.806C54.2348 134.964 58.7124 144.239 58.7124 144.239C47.7598 153.563 36.8454 162.183 26.73 156.072C28.0093 148.396 23.8516 144.559 20.9731 137.203C18.0947 129.847 12.6577 131.446 12.6577 131.446C12.6577 131.446 12.9775 123.13 13.937 116.414C14.8965 109.698 23.5318 107.176 23.5318 107.176C25.0973 109.988 31.2075 114.815 39.2031 106.499Z" fill="#3F3D56"/>
<path d="M53.2759 119.931L56.1543 140.399L68.3076 162.147C71.8257 165.346 68.6275 173.021 68.6275 173.021L65.4292 170.783L64.7896 166.945C64.7896 166.945 50.7173 150.954 47.1992 147.116C43.6811 143.278 42.4019 122.169 42.4019 122.169L53.2759 119.931Z" fill="#FBBEBE"/>
<path d="M55.1935 123.129L41.7609 124.728C41.7609 124.728 40.8015 109.056 42.8298 105.142C44.8582 101.229 52.3151 105.538 52.3151 105.538C54.2341 105.858 55.1935 123.129 55.1935 123.129Z" fill="#3F3D56"/>
<path d="M55.015 82.0534C46.4126 86.353 51.3757 98.0924 50.3604 103.018C48.6975 111.086 24.1741 106.986 24.1741 106.986C21.1904 106.45 19.372 73.2543 35.7119 73.5478C43.9483 73.6958 62.3836 78.3706 55.015 82.0534Z" fill="#2F2E41"/>
<path d="M49.771 92.2605C50.4325 92.2605 50.9687 91.4025 50.9687 90.3441C50.9687 89.2857 50.4325 88.4277 49.771 88.4277C49.1095 88.4277 48.5732 89.2857 48.5732 90.3441C48.5732 91.4025 49.1095 92.2605 49.771 92.2605Z" fill="#FBBEBE"/>
</svg>
