<svg width="50" height="50" viewBox="0 0 50 50" fill="none" xmlns="http://www.w3.org/2000/svg">
<g clip-path="url(#clip0)">
<rect width="50" height="50" fill="white"/>
<path d="M37.3098 32.5258L29.5438 25.8684L37.0436 18.3686L39.2987 10.7016L31.6318 12.9565L24.6622 19.9263L25.7445 21.0085L31.4939 15.2591L31.494 15.2592C31.7925 14.9608 32.278 14.9607 32.5764 15.2591C32.8748 15.5574 32.8748 16.043 32.5764 16.3414V16.3413L26.0473 22.8705L19.7767 17.4949C20.4161 15.9557 20.0695 14.2289 18.7343 12.8937C17.3745 11.5339 13.7919 10.8744 12.4019 11.2468C11.7649 11.4174 11.5423 11.7853 11.4676 12.0639C11.3926 12.344 11.4031 12.7779 11.8796 13.2545C13.1553 14.5302 12.8384 15.2052 12.3998 16.1394C12.0581 16.8672 11.5415 17.9673 12.6012 19.0268C13.5039 19.9295 14.5858 20.381 15.6677 20.381C16.1859 20.381 16.7039 20.2763 17.2024 20.0691L20.5796 24.0086L10.7495 33.8387L16.1613 39.2505L24.7127 30.6991L23.6305 29.6169L20.8515 32.3959L17.6042 29.1486L21.5787 25.174L22.578 26.3398L19.5887 29.3291L20.6709 30.4113L23.5771 27.5051L32.233 37.6023C32.8836 38.3611 33.8296 38.8184 34.8285 38.8566C34.8741 38.8585 34.9196 38.8593 34.9652 38.8593C35.916 38.8593 36.8379 38.4793 37.5124 37.8048C38.2191 37.098 38.6025 36.1197 38.5643 35.1209C38.5258 34.1224 38.0687 33.1764 37.3098 32.5258ZM16.1615 37.086L12.9143 33.8388L14.7183 32.0348L17.9655 35.282L16.1615 37.086ZM19.7693 33.4782L19.0479 34.1997L15.8006 30.9524L16.5221 30.231L19.7693 33.4782ZM37.0386 12.9617L35.9897 16.5278C35.9381 16.4637 35.8831 16.4011 35.8235 16.3415C35.4193 15.9374 34.8907 15.7052 34.3242 15.6751C34.2946 15.1297 34.0745 14.5927 33.6588 14.1769C33.5992 14.1173 33.5367 14.0623 33.4725 14.0107L37.0386 12.9617ZM33.6589 17.4238C33.8034 17.2792 33.9956 17.1996 34.2 17.1996C34.4044 17.1996 34.5967 17.2792 34.7411 17.4238C35.0395 17.7222 35.0395 18.2077 34.7411 18.5061L34.7412 18.5063L28.3784 24.8691L27.2128 23.8698L33.6589 17.4238ZM13.6836 17.9446C13.4254 17.6864 13.4112 17.587 13.7854 16.79C14.2281 15.8473 14.8782 14.4625 13.4139 12.6696C14.5917 12.6944 16.8279 13.1521 17.6521 13.9762C18.8574 15.1815 18.8574 16.7393 17.6521 17.9446C16.4467 19.1499 14.889 19.15 13.6836 17.9446ZM21.9404 23.2441L18.5074 19.2395C18.5841 19.1712 18.66 19.1012 18.7344 19.0268C18.8088 18.9524 18.8789 18.8765 18.9472 18.7997L22.9516 22.2325C22.6956 22.6413 22.3485 22.9885 21.9404 23.2441ZM36.43 36.7227C36.0178 37.1349 35.4682 37.3493 34.8872 37.3274C34.3046 37.305 33.7746 37.0488 33.3951 36.6063L22.9435 24.4143C23.402 24.0945 23.8018 23.6946 24.1215 23.2359L36.3136 33.6878C36.7563 34.0673 37.0123 34.5972 37.0347 35.1799C37.057 35.7625 36.8422 36.3105 36.43 36.7227Z" fill="#F98731"/>
<path d="M48.6694 45.4029V27.4959H50H50.2V27.2959V22.7041V22.5041H50H48.6694V4.59706C49.5672 4.21913 50.2 3.33071 50.2 2.2959C50.2 0.91942 49.0805 -0.2 47.7041 -0.2C46.3277 -0.2 45.2082 0.91942 45.2082 2.2959C45.2082 3.33071 45.8411 4.21913 46.7388 4.59706V15.6324C45.5633 12.9058 43.8743 10.4009 41.7367 8.26318C37.8946 4.42103 32.8669 2.02734 27.4959 1.4625V0V-0.2H27.2959H22.7041H22.5041V0V1.4625C17.1331 2.02743 12.1054 4.42103 8.26336 8.26317L8.40479 8.40459L8.26336 8.26318C6.12571 10.401 4.4367 12.9058 3.26123 15.6324V4.59706C4.15903 4.21915 4.7918 3.3308 4.7918 2.2959C4.7918 0.919426 3.67237 -0.2 2.2959 -0.2C0.919426 -0.2 -0.2 0.919426 -0.2 2.2959C-0.2 3.33081 0.432856 4.21915 1.33057 4.59706V22.5041H0H-0.2V22.7041V27.2959V27.4959H0H1.33057V45.4029C0.432861 45.7809 -0.2 46.6693 -0.2 47.7041C-0.2 49.0806 0.919426 50.2 2.2959 50.2C3.67237 50.2 4.7918 49.0806 4.7918 47.7041C4.7918 46.6693 4.15894 45.7809 3.26113 45.4029V34.3676C4.43661 37.0942 6.12561 39.5991 8.26326 41.7368C12.1053 45.579 17.133 47.9727 22.504 48.5375V50V50.2H22.704H27.2958H27.4958V50V48.5366C32.8667 47.9722 37.8945 45.5789 41.7367 41.7367C43.8742 39.5994 45.5631 37.0948 46.7387 34.3686V45.4028C45.8409 45.7808 45.2081 46.6692 45.2081 47.704C45.2081 49.0805 46.3276 50.1999 47.704 50.1999C49.0804 50.1999 50.2 49.0806 50.2 47.7041C50.2 46.6693 49.5672 45.7809 48.6694 45.4029ZM2.86113 25.5653H1.73057V24.4348H2.86113V25.5653ZM27.4958 4.5918V3.40463C32.3514 3.96151 36.8907 6.14752 40.3713 9.62833C43.852 13.1092 46.0378 17.6486 46.5943 22.5041H45.4082H45.2082V22.7041V27.2959V27.4959H45.4082H46.5955C46.0385 32.3515 43.8525 36.8909 40.3717 40.3716C36.8908 43.8523 32.3514 46.0381 27.4959 46.5945V45.4082V45.2082H27.2959H22.7041H22.5041V45.4082V46.5955C17.6485 46.0386 13.1092 43.8526 9.62853 40.3718C6.14781 36.8909 3.9619 32.3516 3.40559 27.496H4.5918H4.7918V27.296V22.7042V22.5042H4.5918H3.4055C3.962 17.6486 6.14772 13.1093 9.62844 9.62843C13.1092 6.14762 17.6484 3.96152 22.504 3.40473V4.5918V4.7918H22.704H27.2958H27.4958V4.5918ZM2.2959 1.73057C2.60751 1.73057 2.86123 1.98429 2.86123 2.2959C2.86123 2.60751 2.60751 2.86123 2.2959 2.86123C1.98429 2.86123 1.73057 2.60751 1.73057 2.2959C1.73057 1.98438 1.98438 1.73057 2.2959 1.73057ZM2.2959 48.2694C1.98428 48.2694 1.73057 48.0157 1.73057 47.7041C1.73057 47.3925 1.98428 47.1388 2.2959 47.1388C2.60751 47.1388 2.86123 47.3925 2.86123 47.7041C2.86123 48.0156 2.6075 48.2694 2.2959 48.2694ZM24.4347 1.73057H25.5652V2.86113H24.4347V1.73057ZM25.5653 48.2694H24.4348V47.1389H25.5653V48.2694ZM47.7041 1.73057C48.0157 1.73057 48.2694 1.98428 48.2694 2.2959C48.2694 2.60751 48.0157 2.86123 47.7041 2.86123C47.3925 2.86123 47.1388 2.60751 47.1388 2.2959C47.1388 1.98437 47.3925 1.73057 47.7041 1.73057ZM47.7041 48.2694C47.3925 48.2694 47.1388 48.0157 47.1388 47.7041C47.1388 47.3925 47.3925 47.1388 47.7041 47.1388C48.0157 47.1388 48.2694 47.3925 48.2694 47.7041C48.2694 48.0156 48.0156 48.2694 47.7041 48.2694ZM48.2694 25.5653H47.1389V24.4348H48.2694V25.5653Z" fill="#F98731" stroke="#F98731" stroke-width="0.4"/>
</g>
<defs>
<clipPath id="clip0">
<rect width="50" height="50" fill="white"/>
</clipPath>
</defs>
</svg>
