<svg width="443" height="266" viewBox="0 0 443 266" fill="none" xmlns="http://www.w3.org/2000/svg">
<rect width="266" height="266" fill="#F47424"/>
<path d="M291.728 64H293.51V58.942H296.228L298.91 64H300.926L298.226 59.068C297.992 58.654 297.848 58.492 297.848 58.492V58.456C299.234 58.006 300.134 56.638 300.134 55.018C300.134 53.344 299.288 52.066 297.992 51.58C297.506 51.4 296.948 51.292 295.616 51.292H291.728V64ZM293.51 57.394V52.84H295.562C296.552 52.84 296.966 52.948 297.308 53.128C297.956 53.488 298.316 54.154 298.316 55.09C298.316 56.512 297.452 57.394 296.066 57.394H293.51ZM302.413 57.628C302.413 61.516 305.239 64.216 308.659 64.216C311.179 64.216 312.565 62.668 312.565 62.668H312.601C312.601 62.668 312.583 62.938 312.583 63.208V64H314.149V57.61H310.459V59.158H312.529V60.994C312.529 60.994 311.125 62.578 308.929 62.578C306.265 62.578 304.249 60.544 304.249 57.592C304.249 54.874 306.049 52.696 309.037 52.696C311.197 52.696 312.619 53.938 312.619 53.938L313.519 52.606C313.519 52.606 311.935 51.076 308.893 51.076C305.185 51.076 302.413 53.956 302.413 57.628ZM316.935 64H321.489C323.721 64 325.575 62.776 325.575 60.382C325.575 58.96 324.819 57.7 323.487 57.304V57.268C324.459 56.764 325.071 55.774 325.071 54.532C325.071 52.48 323.523 51.292 321.381 51.292H316.935V64ZM318.717 56.638V52.84H321.345C322.569 52.84 323.253 53.596 323.253 54.712C323.253 55.828 322.533 56.638 321.381 56.638H318.717ZM318.717 62.452V58.114H321.561C322.893 58.114 323.757 58.996 323.757 60.292C323.757 61.588 322.947 62.452 321.579 62.452H318.717Z" fill="#404040"/>
<path d="M290.864 111.574C290.864 115.3 293.546 118.216 297.362 118.216C300.548 118.216 302.294 116.2 302.294 116.2L301.34 114.922C301.34 114.922 299.81 116.578 297.416 116.578C294.59 116.578 292.7 114.274 292.7 111.556C292.7 108.856 294.554 106.696 297.398 106.696C299.594 106.696 301.07 108.082 301.07 108.082L301.952 106.75C301.952 106.75 300.386 105.076 297.326 105.076C293.636 105.076 290.864 107.884 290.864 111.574ZM304.322 118H306.104L306.716 109.99C306.77 109.216 306.752 108.082 306.752 108.082H306.788C306.788 108.082 307.184 109.306 307.472 109.99L309.992 115.714H311.576L314.114 109.99C314.42 109.288 314.798 108.118 314.798 108.118H314.834C314.834 108.118 314.798 109.216 314.852 109.99L315.482 118H317.246L316.22 105.292H314.348L311.432 112.168C311.144 112.87 310.802 113.878 310.802 113.878H310.766C310.766 113.878 310.424 112.87 310.136 112.168L307.22 105.292H305.348L304.322 118ZM322.816 118H324.598V112.618L328.846 105.292H326.83L324.508 109.468C324.112 110.188 323.734 111.07 323.734 111.07H323.698C323.698 111.07 323.32 110.17 322.924 109.468L320.566 105.292H318.55L322.816 112.618V118ZM330.716 118H332.498V112.168H334.388L337.772 118H339.788L335.864 111.358V111.322L339.554 105.292H337.592L334.388 110.638H332.498V105.292H330.716V118Z" fill="#404040"/>
<path d="M291.728 164H293.51V158.42H300.098V164H301.88V151.292H300.098V156.872H293.51V151.292H291.728V164ZM305.333 164H313.019V162.452H307.115V158.366H311.669V156.818H307.115V152.84H312.713V151.292H305.333V164ZM314.32 164H316.318L318.622 160.094C319.036 159.392 319.378 158.636 319.378 158.636H319.414C319.414 158.636 319.81 159.374 320.224 160.094L322.528 164H324.544L320.53 157.448L324.292 151.292H322.24L320.242 154.73C319.828 155.432 319.468 156.242 319.468 156.242H319.432C319.432 156.242 319.018 155.414 318.622 154.73L316.624 151.292H314.572L318.334 157.448L314.32 164Z" fill="#404040"/>
<path d="M291.728 214H293.51V209.302H296.372C298.694 209.302 300.368 207.682 300.368 205.27C300.368 202.858 298.694 201.292 296.372 201.292H291.728V214ZM293.51 207.754V202.84H296.102C297.614 202.84 298.55 203.74 298.55 205.27C298.55 206.8 297.614 207.754 296.084 207.754H293.51ZM302.266 214H304.048L304.66 205.99C304.714 205.216 304.696 204.082 304.696 204.082H304.732C304.732 204.082 305.128 205.306 305.416 205.99L307.936 211.714H309.52L312.058 205.99C312.364 205.288 312.742 204.118 312.742 204.118H312.778C312.778 204.118 312.742 205.216 312.796 205.99L313.426 214H315.19L314.164 201.292H312.292L309.376 208.168C309.088 208.87 308.746 209.878 308.746 209.878H308.71C308.71 209.878 308.368 208.87 308.08 208.168L305.164 201.292H303.292L302.266 214ZM317.281 212.542C317.281 212.542 318.793 214.216 321.493 214.216C324.013 214.216 325.525 212.596 325.525 210.634C325.525 206.512 319.369 207.214 319.369 204.586C319.369 203.578 320.323 202.732 321.673 202.732C323.293 202.732 324.463 203.83 324.463 203.83L325.273 202.354C325.273 202.354 324.031 201.076 321.673 201.076C319.279 201.076 317.569 202.642 317.569 204.622C317.569 208.528 323.725 207.934 323.725 210.688C323.725 211.894 322.717 212.56 321.529 212.56C319.639 212.56 318.289 211.192 318.289 211.192L317.281 212.542Z" fill="#404040"/>
<path d="M353.08 64H361.27V62.452H354.97C355.006 59.554 361.072 58.906 361.072 54.73C361.072 52.534 359.398 51.076 357.058 51.076C354.196 51.076 353.044 53.488 353.044 53.488L354.358 54.37C354.358 54.37 355.258 52.75 356.932 52.75C358.264 52.75 359.218 53.596 359.218 54.856C359.218 57.844 352.99 58.492 352.99 63.028C352.99 63.334 353.026 63.658 353.08 64ZM362.56 60.598H368.716V64H370.462V60.598H372.19V59.086H370.462V51.292H368.428L362.56 59.482V60.598ZM364.522 59.086V59.05L368.122 54.244C368.464 53.794 368.752 53.2 368.752 53.2H368.788C368.788 53.2 368.716 53.866 368.716 54.46V59.086H364.522ZM373.476 60.598H379.632V64H381.378V60.598H383.106V59.086H381.378V51.292H379.344L373.476 59.482V60.598ZM375.438 59.086V59.05L379.038 54.244C379.38 53.794 379.668 53.2 379.668 53.2H379.704C379.704 53.2 379.632 53.866 379.632 54.46V59.086H375.438ZM389.465 64H396.773V62.452H394.001V51.292H392.417L389.375 54.244L390.455 55.36L391.643 54.19C392.111 53.74 392.255 53.452 392.255 53.452H392.291C392.291 53.452 392.273 53.848 392.273 54.244V62.452H389.465V64ZM398.272 64H405.58V62.452H402.808V51.292H401.224L398.182 54.244L399.262 55.36L400.45 54.19C400.918 53.74 401.062 53.452 401.062 53.452H401.098C401.098 53.452 401.08 53.848 401.08 54.244V62.452H398.272V64ZM411.884 64.216C414.26 64.216 415.97 62.47 415.97 59.968C415.97 57.61 414.368 55.774 411.956 55.774C410.84 55.774 409.688 56.26 409.148 56.98H409.112C409.382 54.874 410.588 52.714 412.928 52.714C413.936 52.714 414.746 53.128 414.746 53.128L415.322 51.598C415.322 51.598 414.35 51.076 412.856 51.076C408.914 51.076 407.132 54.964 407.132 58.222C407.132 61.84 409.166 64.216 411.884 64.216ZM411.866 62.578C410.246 62.578 409.004 60.724 409.004 59.068C409.004 58.15 410.156 57.286 411.596 57.286C413.216 57.286 414.206 58.42 414.206 59.968C414.206 61.444 413.324 62.578 411.866 62.578ZM422.189 62.488C422.189 62.488 423.719 64.216 426.311 64.216C428.921 64.216 430.631 62.308 430.631 60.13C430.631 57.664 428.579 56.584 426.905 56.404L430.361 52.426V51.292H422.765V52.84H427.067C427.769 52.84 428.147 52.786 428.147 52.786V52.822C428.147 52.822 427.769 53.164 427.355 53.65L424.583 56.908L424.997 57.862H425.879C427.445 57.862 428.831 58.636 428.831 60.202C428.831 61.57 427.661 62.524 426.239 62.524C424.403 62.524 423.161 61.138 423.161 61.138L422.189 62.488ZM437.496 64.216C439.872 64.216 441.582 62.47 441.582 59.968C441.582 57.61 439.98 55.774 437.568 55.774C436.452 55.774 435.3 56.26 434.76 56.98H434.724C434.994 54.874 436.2 52.714 438.54 52.714C439.548 52.714 440.358 53.128 440.358 53.128L440.934 51.598C440.934 51.598 439.962 51.076 438.468 51.076C434.526 51.076 432.744 54.964 432.744 58.222C432.744 61.84 434.778 64.216 437.496 64.216ZM437.478 62.578C435.858 62.578 434.616 60.724 434.616 59.068C434.616 58.15 435.768 57.286 437.208 57.286C438.828 57.286 439.818 58.42 439.818 59.968C439.818 61.444 438.936 62.578 437.478 62.578Z" fill="#404040"/>
<path d="M357.616 118.216C361.018 118.216 362.116 115.3 362.116 111.628C362.116 107.974 361.018 105.076 357.616 105.076C354.232 105.076 353.134 107.974 353.134 111.628C353.134 115.3 354.232 118.216 357.616 118.216ZM357.616 116.578C355.546 116.578 354.952 114.4 354.952 111.628C354.952 108.874 355.546 106.714 357.616 106.714C359.704 106.714 360.298 108.874 360.298 111.628C360.298 114.4 359.704 116.578 357.616 116.578ZM368.737 116.452C368.737 116.452 370.015 118.216 372.625 118.216C375.199 118.216 377.125 116.38 377.125 113.932C377.125 111.646 375.379 109.792 372.697 109.792C371.761 109.792 371.059 110.188 371.059 110.188H371.023C371.023 110.188 371.095 109.9 371.113 109.522L371.419 106.84H376.279V105.292H369.871L369.241 111.592L370.267 111.97C370.267 111.97 371.167 111.34 372.409 111.34C374.047 111.34 375.307 112.42 375.307 113.95C375.307 115.498 374.011 116.524 372.517 116.524C370.717 116.524 369.727 115.156 369.727 115.156L368.737 116.452ZM379.096 118H387.286V116.452H380.986C381.022 113.554 387.088 112.906 387.088 108.73C387.088 106.534 385.414 105.076 383.074 105.076C380.212 105.076 379.06 107.488 379.06 107.488L380.374 108.37C380.374 108.37 381.274 106.75 382.948 106.75C384.28 106.75 385.234 107.596 385.234 108.856C385.234 111.844 379.006 112.492 379.006 117.028C379.006 117.334 379.042 117.658 379.096 118ZM393.965 114.328C393.965 116.632 395.855 118.216 398.393 118.216C401.039 118.216 402.749 116.47 402.749 114.49C402.749 113.176 401.993 112.384 401.021 111.79C401.183 111.61 402.533 110.17 402.533 108.478C402.533 106.39 400.895 105.076 398.537 105.076C395.855 105.076 394.577 106.714 394.577 108.406C394.577 109.576 395.171 110.35 395.999 110.944C395.657 111.178 393.965 112.384 393.965 114.328ZM400.913 114.436C400.913 115.75 399.725 116.614 398.393 116.614C397.043 116.614 395.783 115.678 395.783 114.22C395.783 112.852 396.899 111.988 397.313 111.7C399.023 112.528 400.913 113.068 400.913 114.436ZM396.341 108.442C396.341 107.47 397.115 106.678 398.519 106.678C399.851 106.678 400.787 107.416 400.787 108.586C400.787 109.918 399.869 110.89 399.671 111.088C398.033 110.386 396.341 109.846 396.341 108.442ZM404.737 116.452C404.737 116.452 406.015 118.216 408.625 118.216C411.199 118.216 413.125 116.38 413.125 113.932C413.125 111.646 411.379 109.792 408.697 109.792C407.761 109.792 407.059 110.188 407.059 110.188H407.023C407.023 110.188 407.095 109.9 407.113 109.522L407.419 106.84H412.279V105.292H405.871L405.241 111.592L406.267 111.97C406.267 111.97 407.167 111.34 408.409 111.34C410.047 111.34 411.307 112.42 411.307 113.95C411.307 115.498 410.011 116.524 408.517 116.524C406.717 116.524 405.727 115.156 405.727 115.156L404.737 116.452ZM419.197 114.598H425.353V118H427.099V114.598H428.827V113.086H427.099V105.292H425.065L419.197 113.482V114.598ZM421.159 113.086V113.05L424.759 108.244C425.101 107.794 425.389 107.2 425.389 107.2H425.425C425.425 107.2 425.353 107.866 425.353 108.46V113.086H421.159Z" fill="#404040"/>
<path d="M354.538 164H355.996L356.59 160.562H359.38L358.786 164H360.244L360.856 160.562H363.178L363.412 159.23H361.072L361.612 156.206H363.952L364.186 154.892H361.828L362.458 151.292H361L360.37 154.892H357.58L358.21 151.292H356.752L356.122 154.892H353.782L353.566 156.206H355.888L355.366 159.23H353.008L352.792 160.562H355.132L354.538 164ZM356.824 159.23L357.364 156.206H360.154L359.614 159.23H356.824ZM366.648 164H368.43V158.564H372.876V157.016H368.43V152.84H373.65V151.292H366.648V164ZM374.865 160.598H381.021V164H382.767V160.598H384.495V159.086H382.767V151.292H380.733L374.865 159.482V160.598ZM376.827 159.086V159.05L380.427 154.244C380.769 153.794 381.057 153.2 381.057 153.2H381.093C381.093 153.2 381.021 153.866 381.021 154.46V159.086H376.827ZM386.771 164H388.607L394.349 152.516V151.292H385.853V152.84H391.523C392.171 152.84 392.459 152.786 392.459 152.786V152.822C392.459 152.822 392.081 153.272 391.721 153.992L386.771 164ZM394.921 160.598H401.077V164H402.823V160.598H404.551V159.086H402.823V151.292H400.789L394.921 159.482V160.598ZM396.883 159.086V159.05L400.483 154.244C400.825 153.794 401.113 153.2 401.113 153.2H401.149C401.149 153.2 401.077 153.866 401.077 154.46V159.086H396.883ZM406.359 164H414.549V162.452H408.249C408.285 159.554 414.351 158.906 414.351 154.73C414.351 152.534 412.677 151.076 410.337 151.076C407.475 151.076 406.323 153.488 406.323 153.488L407.637 154.37C407.637 154.37 408.537 152.75 410.211 152.75C411.543 152.75 412.497 153.596 412.497 154.856C412.497 157.844 406.269 158.492 406.269 163.028C406.269 163.334 406.305 163.658 406.359 164ZM415.839 160.598H421.995V164H423.741V160.598H425.469V159.086H423.741V151.292H421.707L415.839 159.482V160.598ZM417.801 159.086V159.05L421.401 154.244C421.743 153.794 422.031 153.2 422.031 153.2H422.067C422.067 153.2 421.995 153.866 421.995 154.46V159.086H417.801Z" fill="#404040"/>
<path d="M353.008 214H360.316V212.452H357.544V201.292H355.96L352.918 204.244L353.998 205.36L355.186 204.19C355.654 203.74 355.798 203.452 355.798 203.452H355.834C355.834 203.452 355.816 203.848 355.816 204.244V212.452H353.008V214ZM366.621 214.216C368.997 214.216 370.707 212.47 370.707 209.968C370.707 207.61 369.105 205.774 366.693 205.774C365.577 205.774 364.425 206.26 363.885 206.98H363.849C364.119 204.874 365.325 202.714 367.665 202.714C368.673 202.714 369.483 203.128 369.483 203.128L370.059 201.598C370.059 201.598 369.087 201.076 367.593 201.076C363.651 201.076 361.869 204.964 361.869 208.222C361.869 211.84 363.903 214.216 366.621 214.216ZM366.603 212.578C364.983 212.578 363.741 210.724 363.741 209.068C363.741 208.15 364.893 207.286 366.333 207.286C367.953 207.286 368.943 208.42 368.943 209.968C368.943 211.444 368.061 212.578 366.603 212.578ZM372.446 212.452C372.446 212.452 373.724 214.216 376.334 214.216C378.908 214.216 380.834 212.38 380.834 209.932C380.834 207.646 379.088 205.792 376.406 205.792C375.47 205.792 374.768 206.188 374.768 206.188H374.732C374.732 206.188 374.804 205.9 374.822 205.522L375.128 202.84H379.988V201.292H373.58L372.95 207.592L373.976 207.97C373.976 207.97 374.876 207.34 376.118 207.34C377.756 207.34 379.016 208.42 379.016 209.95C379.016 211.498 377.72 212.524 376.226 212.524C374.426 212.524 373.436 211.156 373.436 211.156L372.446 212.452ZM382.589 207.574C382.589 211.3 385.271 214.216 389.087 214.216C392.273 214.216 394.019 212.2 394.019 212.2L393.065 210.922C393.065 210.922 391.535 212.578 389.141 212.578C386.315 212.578 384.425 210.274 384.425 207.556C384.425 204.856 386.279 202.696 389.123 202.696C391.319 202.696 392.795 204.082 392.795 204.082L393.677 202.75C393.677 202.75 392.111 201.076 389.051 201.076C385.361 201.076 382.589 203.884 382.589 207.574Z" fill="#404040"/>
</svg>
