<svg width="50" height="50" viewBox="0 0 50 50" fill="none" xmlns="http://www.w3.org/2000/svg">
<path d="M45.6661 40.1363C46.8266 39.2516 47.5806 37.8589 47.5806 36.2903C47.5806 33.8976 45.8331 31.9105 43.5484 31.5242V30.6452C43.5484 28.4218 41.7395 26.6129 39.5161 26.6129H25.8065V23.6742C26.2419 24.0056 26.7653 24.1935 27.3218 24.1935C28.6798 24.1935 29.7823 23.1113 29.8298 21.7653C31.146 21.7185 32.2024 20.6621 32.2492 19.346C33.5653 19.2992 34.6218 18.2427 34.6685 16.9266C36.0145 16.879 37.0968 15.7758 37.0968 14.4185C37.0968 13.746 36.8347 13.1137 36.3597 12.6387L36.1919 12.471C37.3 11.1113 37.9032 9.42742 37.9032 7.64919C37.9032 3.43145 34.4718 0 30.254 0C28.2806 0 26.4266 0.748387 25 2.1C23.5734 0.748387 21.7194 0 19.746 0C15.5282 0 12.0968 3.43145 12.0968 7.64919C12.0968 9.63064 12.8508 11.4927 14.2137 12.9218C13.8919 13.354 13.7097 13.8702 13.7097 14.4185C13.7097 15.7766 14.7919 16.879 16.1379 16.9266C16.1847 18.2427 17.2411 19.2992 18.5573 19.346C18.604 20.6621 19.6605 21.7185 20.9766 21.7653C21.0242 23.1113 22.1274 24.1935 23.4847 24.1935C23.7298 24.1935 23.9653 24.1476 24.1935 24.0806V26.6129H10.4839C8.26048 26.6129 6.45161 28.4218 6.45161 30.6452V31.5242C4.16694 31.9105 2.41935 33.8976 2.41935 36.2903C2.41935 37.8589 3.17339 39.2516 4.33387 40.1363C1.78548 41.2637 0 43.8129 0 46.7742V50H14.5161V46.7742C14.5161 43.8129 12.7306 41.2637 10.1823 40.1363C11.3427 39.2516 12.0968 37.8589 12.0968 36.2903C12.0968 33.8976 10.3492 31.9105 8.06452 31.5242V30.6452C8.06452 29.3113 9.15 28.2258 10.4839 28.2258H24.1935V31.5242C21.9089 31.9097 20.1613 33.8968 20.1613 36.2903C20.1613 37.8589 20.9153 39.2516 22.0758 40.1363C19.5274 41.2637 17.7419 43.8129 17.7419 46.7742V50H32.2581V46.7742C32.2581 43.8129 30.4726 41.2637 27.9242 40.1363C29.0847 39.2516 29.8387 37.8589 29.8387 36.2903C29.8387 33.8976 28.0911 31.9105 25.8065 31.5242V28.2258H39.5161C40.85 28.2258 41.9355 29.3113 41.9355 30.6452V31.5242C39.6508 31.9097 37.9032 33.8968 37.9032 36.2903C37.9032 37.8589 38.6573 39.2516 39.8177 40.1363C37.2694 41.2637 35.4839 43.8129 35.4839 46.7742V50H50V46.7742C50 43.8129 48.2145 41.2637 45.6661 40.1363ZM30.254 1.6129C33.5823 1.6129 36.2903 4.32097 36.2903 7.64919C36.2903 8.99516 35.8476 10.2702 35.0403 11.3185L31.3323 7.61048C31.5726 7.42984 31.8056 7.2379 32.0226 7.02177L30.8823 5.88145C29.9935 6.76935 28.8137 7.25806 27.5573 7.25806H26.279L24.9024 8.63468C24.75 8.7871 24.5468 8.87097 24.3315 8.87097H21.3016C21.1177 8.87097 20.9677 8.72097 20.9677 8.5371C20.9677 8.44919 21.0032 8.3629 21.0653 8.30081L25.9855 3.38065C27.1258 2.24113 28.6411 1.6129 30.254 1.6129ZM19.746 1.6129C21.2847 1.6129 22.7315 2.19032 23.8516 3.23306L19.9242 7.16048C19.5573 7.52742 19.3548 8.01694 19.3548 8.5371C19.3548 9.61048 20.2282 10.4839 21.3016 10.4839H24.3315C24.9774 10.4839 25.5855 10.2323 26.0427 9.775L26.9468 8.87097H27.5573C28.3629 8.87097 29.1435 8.71694 29.871 8.43065L35.2194 13.779C35.3895 13.95 35.4839 14.1766 35.4839 14.4185C35.4839 14.9169 35.0782 15.3226 34.5798 15.3226C34.3379 15.3226 34.1113 15.2282 33.9403 15.0581L32.0218 13.1395L30.8815 14.2798L32.8 16.1984C32.9702 16.3694 33.0645 16.596 33.0645 16.8379C33.0645 17.3363 32.6589 17.7419 32.1605 17.7419C31.9186 17.7419 31.6919 17.6476 31.521 17.4774L29.6024 15.5589L28.4621 16.6992L30.3806 18.6177C30.5508 18.7887 30.6452 19.0153 30.6452 19.2573C30.6452 19.7556 30.2395 20.1613 29.7411 20.1613C29.4992 20.1613 29.2726 20.0669 29.1016 19.8968L27.1831 17.9782L26.0427 19.1185L27.9613 21.0371C28.1315 21.2081 28.2258 21.4347 28.2258 21.6766C28.2258 22.175 27.8202 22.5806 27.3218 22.5806C27.0798 22.5806 26.8532 22.4863 26.6823 22.3161L26.4129 22.0468C26.5427 21.7403 26.6129 21.4089 26.6129 21.0653C26.6129 19.7073 25.5306 18.6048 24.1847 18.5573C24.1379 17.2411 23.0815 16.1847 21.7653 16.1379C21.7185 14.8218 20.6621 13.7653 19.346 13.7185C19.2984 12.3726 18.1952 11.2903 16.8379 11.2903C16.2952 11.2903 15.7839 11.4677 15.3556 11.7831C14.296 10.6589 13.7097 9.20081 13.7097 7.64919C13.7097 4.32097 16.4177 1.6129 19.746 1.6129ZM15.3226 14.4185C15.3226 14.1766 15.4169 13.95 15.5871 13.779L16.1984 13.1677C16.3694 12.9976 16.596 12.9032 16.8379 12.9032C17.3363 12.9032 17.7419 13.3089 17.7419 13.8073C17.7419 14.0492 17.6476 14.2758 17.4774 14.4468L16.8661 15.0581C16.6952 15.2282 16.4685 15.3226 16.2266 15.3226C15.7282 15.3226 15.3226 14.9169 15.3226 14.4185ZM17.7419 16.8379C17.7419 16.596 17.8363 16.3694 18.0065 16.1984L18.6177 15.5871C18.7887 15.4169 19.0153 15.3226 19.2573 15.3226C19.7556 15.3226 20.1613 15.7282 20.1613 16.2266C20.1613 16.4685 20.0669 16.6952 19.8968 16.8661L19.2855 17.4774C19.1145 17.6476 18.8879 17.7419 18.646 17.7419C18.1476 17.7419 17.7419 17.3363 17.7419 16.8379ZM20.1613 19.2573C20.1613 19.0153 20.2556 18.7887 20.4258 18.6177L21.0371 18.0065C21.2081 17.8363 21.4347 17.7419 21.6766 17.7419C22.175 17.7419 22.5806 18.1476 22.5806 18.646C22.5806 18.8879 22.4863 19.1145 22.3161 19.2855L21.7048 19.8968C21.5339 20.0669 21.3073 20.1613 21.0653 20.1613C20.5669 20.1613 20.1613 19.7556 20.1613 19.2573ZM23.4847 22.5806C22.9863 22.5806 22.5806 22.175 22.5806 21.6766C22.5806 21.4347 22.675 21.2081 22.8452 21.0371L23.4565 20.4258C23.6274 20.2556 23.854 20.1613 24.096 20.1613C24.5944 20.1613 25 20.5669 25 21.0653C25 21.3073 24.9056 21.5339 24.7355 21.7048L24.1242 22.3161C23.9532 22.4863 23.7266 22.5806 23.4847 22.5806ZM12.9032 46.7742V48.3871H11.2903V45.1613H9.67742V48.3871H4.83871V45.1613H3.22581V48.3871H1.6129V46.7742C1.6129 43.6613 4.14516 41.129 7.25806 41.129C10.371 41.129 12.9032 43.6613 12.9032 46.7742ZM10.4839 36.2903C10.4839 38.0694 9.0371 39.5161 7.25806 39.5161C5.47903 39.5161 4.03226 38.0694 4.03226 36.2903C4.03226 34.5113 5.47903 33.0645 7.25806 33.0645C9.0371 33.0645 10.4839 34.5113 10.4839 36.2903ZM30.6452 46.7742V48.3871H29.0323V45.1613H27.4194V48.3871H22.5806V45.1613H20.9677V48.3871H19.3548V46.7742C19.3548 43.6613 21.8871 41.129 25 41.129C28.1129 41.129 30.6452 43.6613 30.6452 46.7742ZM28.2258 36.2903C28.2258 38.0694 26.779 39.5161 25 39.5161C23.221 39.5161 21.7742 38.0694 21.7742 36.2903C21.7742 34.5113 23.221 33.0645 25 33.0645C26.779 33.0645 28.2258 34.5113 28.2258 36.2903ZM39.5161 36.2903C39.5161 34.5113 40.9629 33.0645 42.7419 33.0645C44.521 33.0645 45.9677 34.5113 45.9677 36.2903C45.9677 38.0694 44.521 39.5161 42.7419 39.5161C40.9629 39.5161 39.5161 38.0694 39.5161 36.2903ZM48.3871 48.3871H46.7742V45.1613H45.1613V48.3871H40.3226V45.1613H38.7097V48.3871H37.0968V46.7742C37.0968 43.6613 39.629 41.129 42.7419 41.129C45.8548 41.129 48.3871 43.6613 48.3871 46.7742V48.3871Z" fill="#F98731"/>
<path d="M29.8387 29.8387H31.4516V31.4516H29.8387V29.8387Z" fill="#F98731"/>
<path d="M33.0645 29.8387H34.6774V31.4516H33.0645V29.8387Z" fill="#F98731"/>
<path d="M36.2903 29.8387H37.9032V31.4516H36.2903V29.8387Z" fill="#F98731"/>
<path d="M12.0968 29.8387H13.7097V31.4516H12.0968V29.8387Z" fill="#F98731"/>
<path d="M15.3226 29.8387H16.9355V31.4516H15.3226V29.8387Z" fill="#F98731"/>
<path d="M18.5484 29.8387H20.1613V31.4516H18.5484V29.8387Z" fill="#F98731"/>
</svg>
