<svg width="38" height="50" viewBox="0 0 38 50" fill="none" xmlns="http://www.w3.org/2000/svg">
<path d="M22.4609 18.5547C23.0003 18.5547 23.4375 18.1175 23.4375 17.5781C23.4375 17.0388 23.0003 16.6016 22.4609 16.6016C21.9216 16.6016 21.4844 17.0388 21.4844 17.5781C21.4844 18.1175 21.9216 18.5547 22.4609 18.5547Z" fill="#F98731"/>
<path d="M14.6484 18.5547C15.1878 18.5547 15.625 18.1175 15.625 17.5781C15.625 17.0388 15.1878 16.6016 14.6484 16.6016C14.1091 16.6016 13.6719 17.0388 13.6719 17.5781C13.6719 18.1175 14.1091 18.5547 14.6484 18.5547Z" fill="#F98731"/>
<path d="M18.5547 27.3438C20.2069 27.3438 21.6872 26.2973 22.2381 24.7397C22.4178 24.2312 22.1514 23.6732 21.6429 23.4934C21.1347 23.3138 20.5765 23.58 20.3967 24.0885C20.1213 24.8674 19.3809 25.3906 18.5547 25.3906C17.7284 25.3906 16.9881 24.8674 16.7127 24.0885C16.5329 23.58 15.9749 23.3138 15.4664 23.4934C14.9579 23.6732 14.6915 24.2312 14.8713 24.7397C15.4222 26.2973 16.9024 27.3438 18.5547 27.3438Z" fill="#F98731"/>
<path d="M28.3203 50C28.8597 50 29.2969 49.5628 29.2969 49.0234C29.2969 48.4841 28.8597 48.0469 28.3203 48.0469C27.781 48.0469 27.3438 48.4841 27.3438 49.0234C27.3438 49.5628 27.781 50 28.3203 50Z" fill="#F98731"/>
<path d="M32.7148 48.0469C32.1755 48.0469 31.7383 48.4842 31.7383 49.0234C31.7383 49.5627 32.1755 50 32.7148 50H36.1328C36.6722 50 37.1094 49.5627 37.1094 49.0234V40.9551C37.1094 36.578 33.8879 32.8727 29.5633 32.255L25.6396 31.6945C24.5768 31.5418 23.7057 30.7416 23.4895 29.6657C25.5478 28.3118 27.4245 26.1352 28.8554 23.4375H29.2969C31.4508 23.4375 33.2031 21.6852 33.2031 19.5312C33.2031 18.0713 32.3699 16.7458 31.1035 16.0824C31.1035 16.0824 31.25 12.7095 31.25 12.6953C31.25 5.69502 25.5549 0 18.5547 0C11.5545 0 5.85938 5.69502 5.85938 12.6953C5.85938 12.7095 5.85967 12.7236 5.86025 12.7378L6.00576 16.0824C4.73945 16.7458 3.90625 18.0713 3.90625 19.5312C3.90625 21.6852 5.65859 23.4375 7.8125 23.4375H8.254C9.68496 26.1354 11.5617 28.312 13.6198 29.6657C13.4051 30.7339 12.5376 31.541 11.4705 31.6944L7.54648 32.255C3.21416 32.8736 0 36.5854 0 40.9551V49.0234C0 49.5627 0.437207 50 0.976562 50H23.9258C24.4651 50 24.9023 49.5627 24.9023 49.0234C24.9023 48.4842 24.4651 48.0469 23.9258 48.0469H19.5312V40.3815L24.9904 33.5566C25.1132 33.5848 25.2371 33.6099 25.363 33.6278L27.3438 33.9108V40.4023C26.2071 40.8055 25.3906 41.8909 25.3906 43.1641C25.3906 44.7795 26.7049 46.0938 28.3203 46.0938C29.9357 46.0938 31.25 44.7795 31.25 43.1641C31.25 41.891 30.4335 40.8055 29.2969 40.4023V34.1901C32.638 34.6725 35.1562 37.5788 35.1562 40.9551V48.0469H32.7148ZM18.5547 38.4757L13.9254 32.6883C14.6046 32.1485 15.1116 31.4254 15.3878 30.6056C16.43 31.033 17.4906 31.25 18.5547 31.25C19.6187 31.25 20.6793 31.0329 21.7215 30.6057C21.9979 31.4262 22.505 32.1497 23.1838 32.6891L18.5547 38.4757ZM18.5547 1.95312C24.4711 1.95312 29.2857 6.76064 29.2969 12.6745L29.1757 15.4589C28.1089 15.071 27.3438 14.0461 27.3438 12.8486V12.6953C27.3438 12.1561 26.9065 11.7188 26.3672 11.7188H22.9238C20.6011 11.7188 18.5132 10.4288 17.475 8.35234C17.2725 7.94727 16.8178 7.73477 16.3771 7.83857C15.9364 7.94268 15.625 8.33613 15.625 8.78906C15.625 10.4045 14.3107 11.7188 12.6953 11.7188H10.7422C10.2028 11.7188 9.76562 12.1561 9.76562 12.6953V12.8486C9.76562 14.0467 8.99961 15.0721 7.93398 15.4595L7.8125 12.6745C7.82363 6.76064 12.6383 1.95312 18.5547 1.95312ZM9.72559 22.0272C9.56074 21.6948 9.22168 21.4844 8.85059 21.4844H7.8125C6.73555 21.4844 5.85938 20.6082 5.85938 19.5312C5.85938 17.9761 7.3415 17.6762 7.54375 17.5446C9.61709 17.3007 11.2869 15.7073 11.6468 13.6719H12.6953C14.559 13.6719 16.1822 12.6223 17.0049 11.0832C18.5023 12.7159 20.626 13.6719 22.9238 13.6719H25.4626C25.8223 15.7059 27.4905 17.2985 29.5649 17.5441C29.7617 17.6725 31.25 17.983 31.25 19.5312C31.25 20.6082 30.3738 21.4844 29.2969 21.4844H28.2588C27.8877 21.4844 27.5486 21.6947 27.3838 22.0272C25.6653 25.4941 22.4274 29.2969 18.5547 29.2969C14.6932 29.2969 11.4702 25.5471 9.72559 22.0272ZM1.95312 48.0469V40.9551C1.95312 37.5789 4.47119 34.6728 7.8125 34.1902V37.2076C5.58643 37.6613 3.90625 39.6341 3.90625 41.9922V45.1172C3.90625 45.6564 4.34346 46.0938 4.88281 46.0938H6.83594C7.37529 46.0938 7.8125 45.6564 7.8125 45.1172C7.8125 44.5779 7.37529 44.1406 6.83594 44.1406H5.85938V41.9922C5.85938 40.3768 7.17363 39.0625 8.78906 39.0625C10.4045 39.0625 11.7188 40.3768 11.7188 41.9922V44.1406H10.7422C10.2028 44.1406 9.76562 44.5779 9.76562 45.1172C9.76562 45.6564 10.2028 46.0938 10.7422 46.0938H12.6953C13.2347 46.0938 13.6719 45.6564 13.6719 45.1172V41.9922C13.6719 39.6342 11.9917 37.6613 9.76562 37.2076V33.9109L11.7471 33.6278C11.8727 33.6098 11.9963 33.5849 12.1187 33.5568L17.5781 40.3815V48.0469H1.95312ZM28.3203 44.1406C27.7818 44.1406 27.3438 43.7025 27.3438 43.1641C27.3438 42.6256 27.7818 42.1875 28.3203 42.1875C28.8588 42.1875 29.2969 42.6256 29.2969 43.1641C29.2969 43.7025 28.8588 44.1406 28.3203 44.1406Z" fill="#F98731"/>
</svg>
