<svg width="169" height="238" viewBox="0 0 169 238" fill="none" xmlns="http://www.w3.org/2000/svg">
<rect x="0.000488281" width="169" height="150" fill="#A94E91"/>
<path d="M46.6725 179.818H51.2445V179.074H49.3845V171.382H48.6165L46.7085 173.278L47.2365 173.818L48.1365 172.918C48.4725 172.594 48.5565 172.414 48.5565 172.414H48.5805C48.5805 172.414 48.5685 172.642 48.5685 172.882V179.074H46.6725V179.818ZM55.4183 179.962C56.8943 179.962 58.0703 178.894 58.0703 177.142C58.0703 175.546 56.9783 174.418 55.4423 174.418C54.5663 174.418 53.7143 174.802 53.3063 175.402H53.2823C53.4263 173.758 54.3263 172.018 56.0903 172.018C56.7863 172.018 57.3143 172.318 57.3143 172.318L57.6263 171.586C57.6263 171.586 57.0143 171.238 56.0783 171.238C53.4743 171.238 52.3703 173.89 52.3703 176.002C52.3703 178.282 53.5823 179.962 55.4183 179.962ZM55.4063 179.182C54.1463 179.182 53.2703 177.73 53.2703 176.602C53.2703 175.918 54.1823 175.162 55.3103 175.162C56.4623 175.162 57.2183 175.954 57.2183 177.154C57.2183 178.318 56.5463 179.182 55.4063 179.182ZM61.3671 179.962C63.9831 179.962 65.0751 177.31 65.0751 175.198C65.0751 172.918 63.8631 171.238 62.0271 171.238C60.5511 171.238 59.3871 172.306 59.3871 174.058C59.3871 175.654 60.4671 176.782 62.0031 176.782C62.8791 176.782 63.7311 176.398 64.1511 175.798H64.1751C64.0191 177.442 63.1311 179.182 61.3551 179.182C60.6591 179.182 60.1311 178.882 60.1311 178.882L59.8191 179.614C59.8191 179.614 60.4431 179.962 61.3671 179.962ZM62.1351 176.038C60.9831 176.038 60.2271 175.246 60.2271 174.046C60.2271 172.882 60.8991 172.018 62.0391 172.018C63.2991 172.018 64.1751 173.47 64.1751 174.598C64.1751 175.282 63.2751 176.038 62.1351 176.038ZM70.2387 179.818H71.1027L75.0147 171.958V171.382H69.5307V172.126H73.4787C73.8987 172.126 74.1147 172.102 74.1147 172.102V172.126C74.1147 172.126 73.8747 172.45 73.6467 172.906L70.2387 179.818ZM76.0771 177.394C76.0771 178.99 77.4091 179.962 78.9331 179.962C80.5651 179.962 81.7291 178.846 81.7291 177.526C81.7291 176.65 81.2011 176.11 80.5051 175.714C80.6011 175.618 81.5371 174.634 81.5371 173.434C81.5371 172.114 80.5291 171.238 78.9571 171.238C77.2531 171.238 76.4131 172.282 76.4131 173.374C76.4131 174.178 76.8571 174.694 77.4571 175.09C77.2651 175.21 76.0771 176.038 76.0771 177.394ZM80.8771 177.514C80.8771 178.51 79.9291 179.194 78.9331 179.194C77.9131 179.194 76.9291 178.498 76.9291 177.358C76.9291 176.278 77.8771 175.606 78.1411 175.45C79.3891 176.05 80.8771 176.422 80.8771 177.514ZM77.2531 173.386C77.2531 172.63 77.8771 172.006 78.9571 172.006C79.9771 172.006 80.6971 172.57 80.6971 173.47C80.6971 174.478 79.9771 175.234 79.8211 175.378C78.6091 174.85 77.2531 174.478 77.2531 173.386ZM86.4225 179.818H90.9945V179.074H89.1345V171.382H88.3665L86.4585 173.278L86.9865 173.818L87.8865 172.918C88.2225 172.594 88.3065 172.414 88.3065 172.414H88.3305C88.3305 172.414 88.3185 172.642 88.3185 172.882V179.074H86.4225V179.818ZM91.5491 177.478H95.7731V179.818H96.6011V177.478H97.8011V176.746H96.6011V171.382H95.7011L91.5491 176.938V177.478ZM92.5571 176.746V176.722L95.3651 173.062C95.5931 172.762 95.7851 172.426 95.7851 172.426H95.8091C95.8091 172.426 95.7731 172.858 95.7731 173.218V176.746H92.5571ZM98.9493 178.762C98.9493 178.762 99.7413 179.962 101.421 179.962C103.065 179.962 104.349 178.75 104.349 177.19C104.349 175.666 103.137 174.442 101.445 174.442C100.689 174.442 100.161 174.766 100.161 174.766H100.137C100.137 174.766 100.185 174.586 100.221 174.286L100.461 172.126H103.821V171.382H99.7413L99.2853 175.474L99.8133 175.666C99.8133 175.666 100.449 175.21 101.349 175.21C102.549 175.21 103.485 176.038 103.485 177.19C103.485 178.342 102.549 179.17 101.385 179.17C100.101 179.17 99.4773 178.186 99.4773 178.186L98.9493 178.762Z" fill="#404040"/>
<path d="M49.7565 199.962C51.9525 199.962 52.6605 198.042 52.6605 195.594C52.6605 193.17 51.9525 191.238 49.7565 191.238C47.5605 191.238 46.8405 193.17 46.8405 195.594C46.8405 198.042 47.5605 199.962 49.7565 199.962ZM49.7565 199.182C48.1485 199.182 47.7045 197.61 47.7045 195.594C47.7045 193.59 48.1485 192.018 49.7565 192.018C51.3525 192.018 51.7965 193.59 51.7965 195.594C51.7965 197.61 51.3525 199.182 49.7565 199.182ZM57.3711 198.762C57.3711 198.762 58.1631 199.962 59.8431 199.962C61.4871 199.962 62.7711 198.75 62.7711 197.19C62.7711 195.666 61.5591 194.442 59.8671 194.442C59.1111 194.442 58.5831 194.766 58.5831 194.766H58.5591C58.5591 194.766 58.6071 194.586 58.6431 194.286L58.8831 192.126H62.2431V191.382H58.1631L57.7071 195.474L58.2351 195.666C58.2351 195.666 58.8711 195.21 59.7711 195.21C60.9711 195.21 61.9071 196.038 61.9071 197.19C61.9071 198.342 60.9711 199.17 59.8071 199.17C58.5231 199.17 57.8991 198.186 57.8991 198.186L57.3711 198.762ZM63.8226 197.478H68.0466V199.818H68.8746V197.478H70.0746V196.746H68.8746V191.382H67.9746L63.8226 196.938V197.478ZM64.8306 196.746V196.722L67.6386 193.062C67.8666 192.762 68.0586 192.426 68.0586 192.426H68.0826C68.0826 192.426 68.0466 192.858 68.0466 193.218V196.746H64.8306ZM74.4694 199.818H79.0414V199.074H77.1814V191.382H76.4134L74.5054 193.278L75.0334 193.818L75.9334 192.918C76.2694 192.594 76.3534 192.414 76.3534 192.414H76.3774C76.3774 192.414 76.3654 192.642 76.3654 192.882V199.074H74.4694V199.818ZM79.596 197.478H83.82V199.818H84.648V197.478H85.848V196.746H84.648V191.382H83.748L79.596 196.938V197.478ZM80.604 196.746V196.722L83.412 193.062C83.64 192.762 83.832 192.426 83.832 192.426H83.856C83.856 192.426 83.82 192.858 83.82 193.218V196.746H80.604ZM90.1108 198.81C90.1108 198.81 91.1308 199.962 92.7868 199.962C94.3828 199.962 95.5588 198.762 95.5588 197.322C95.5588 195.498 93.9868 194.898 92.9188 194.838L95.4388 191.934V191.382H90.5068V192.126H93.6748C94.1188 192.126 94.3588 192.09 94.3588 192.09V192.114C94.3588 192.114 94.1428 192.318 93.9148 192.582L91.8028 195.054L92.0068 195.546H92.5828C93.6868 195.546 94.7068 196.158 94.7068 197.346C94.7068 198.426 93.7828 199.17 92.7748 199.17C91.4788 199.17 90.6148 198.174 90.6148 198.174L90.1108 198.81ZM96.7171 197.478H100.941V199.818H101.769V197.478H102.969V196.746H101.769V191.382H100.869L96.7171 196.938V197.478ZM97.7251 196.746V196.722L100.533 193.062C100.761 192.762 100.953 192.426 100.953 192.426H100.977C100.977 192.426 100.941 192.858 100.941 193.218V196.746H97.7251Z" fill="#404040"/>
<path d="M47.8605 218.818H48.5925L49.0005 216.478H51.0765L50.6685 218.818H51.4005L51.8085 216.478H53.4885L53.5965 215.806H51.9285L52.3365 213.454H54.0165L54.1365 212.782H52.4565L52.8765 210.382H52.1445L51.7245 212.782H49.6485L50.0685 210.382H49.3365L48.9165 212.782H47.2125L47.1045 213.454H48.7965L48.3765 215.806H46.6845L46.5645 216.478H48.2685L47.8605 218.818ZM49.1205 215.806L49.5285 213.454H51.6045L51.1845 215.806H49.1205ZM61.0441 218.818H61.9201L58.8241 210.382H57.9361L54.8401 218.818H55.7161L56.6761 216.13H60.0721L61.0441 218.818ZM58.3921 211.258C58.3921 211.258 58.5721 211.954 58.7161 212.35L59.8201 215.41H56.9161L58.0441 212.35C58.1881 211.954 58.3681 211.258 58.3681 211.258H58.3921ZM64.7186 218.962C67.3346 218.962 68.4266 216.31 68.4266 214.198C68.4266 211.918 67.2146 210.238 65.3786 210.238C63.9026 210.238 62.7386 211.306 62.7386 213.058C62.7386 214.654 63.8186 215.782 65.3546 215.782C66.2306 215.782 67.0826 215.398 67.5026 214.798H67.5266C67.3706 216.442 66.4826 218.182 64.7066 218.182C64.0106 218.182 63.4826 217.882 63.4826 217.882L63.1706 218.614C63.1706 218.614 63.7946 218.962 64.7186 218.962ZM65.4866 215.038C64.3346 215.038 63.5786 214.246 63.5786 213.046C63.5786 211.882 64.2506 211.018 65.3906 211.018C66.6506 211.018 67.5266 212.47 67.5266 213.598C67.5266 214.282 66.6266 215.038 65.4866 215.038ZM69.6116 216.478H73.8356V218.818H74.6636V216.478H75.8636V215.746H74.6636V210.382H73.7636L69.6116 215.938V216.478ZM70.6196 215.746V215.722L73.4276 212.062C73.6556 211.762 73.8476 211.426 73.8476 211.426H73.8716C73.8716 211.426 73.8356 211.858 73.8356 212.218V215.746H70.6196ZM77.5878 218.818H82.5558V218.074H78.4158V214.942H81.6198V214.198H78.4158V211.126H82.3398V210.382H77.5878V218.818ZM85.8592 218.962C88.4752 218.962 89.5672 216.31 89.5672 214.198C89.5672 211.918 88.3552 210.238 86.5192 210.238C85.0432 210.238 83.8792 211.306 83.8792 213.058C83.8792 214.654 84.9592 215.782 86.4952 215.782C87.3712 215.782 88.2232 215.398 88.6432 214.798H88.6672C88.5112 216.442 87.6232 218.182 85.8472 218.182C85.1512 218.182 84.6232 217.882 84.6232 217.882L84.3112 218.614C84.3112 218.614 84.9352 218.962 85.8592 218.962ZM86.6272 215.038C85.4752 215.038 84.7192 214.246 84.7192 213.046C84.7192 211.882 85.3912 211.018 86.5312 211.018C87.7912 211.018 88.6672 212.47 88.6672 213.598C88.6672 214.282 87.7672 215.038 86.6272 215.038ZM91.0162 218.818H95.5882V218.074H93.7282V210.382H92.9602L91.0522 212.278L91.5802 212.818L92.4802 211.918C92.8162 211.594 92.9002 211.414 92.9002 211.414H92.9242C92.9242 211.414 92.9122 211.642 92.9122 211.882V218.074H91.0162V218.818Z" fill="#404040"/>
<path d="M49.8285 237.962C51.3045 237.962 52.4805 236.894 52.4805 235.142C52.4805 233.546 51.3885 232.418 49.8525 232.418C48.9765 232.418 48.1245 232.802 47.7165 233.402H47.6925C47.8365 231.758 48.7365 230.018 50.5005 230.018C51.1965 230.018 51.7245 230.318 51.7245 230.318L52.0365 229.586C52.0365 229.586 51.4245 229.238 50.4885 229.238C47.8845 229.238 46.7805 231.89 46.7805 234.002C46.7805 236.282 47.9925 237.962 49.8285 237.962ZM49.8165 237.182C48.5565 237.182 47.6805 235.73 47.6805 234.602C47.6805 233.918 48.5925 233.162 49.7205 233.162C50.8725 233.162 51.6285 233.954 51.6285 235.154C51.6285 236.318 50.9565 237.182 49.8165 237.182ZM53.9052 235.394C53.9052 236.99 55.2372 237.962 56.7612 237.962C58.3932 237.962 59.5572 236.846 59.5572 235.526C59.5572 234.65 59.0292 234.11 58.3332 233.714C58.4292 233.618 59.3652 232.634 59.3652 231.434C59.3652 230.114 58.3572 229.238 56.7852 229.238C55.0812 229.238 54.2412 230.282 54.2412 231.374C54.2412 232.178 54.6852 232.694 55.2852 233.09C55.0932 233.21 53.9052 234.038 53.9052 235.394ZM58.7052 235.514C58.7052 236.51 57.7572 237.194 56.7612 237.194C55.7412 237.194 54.7572 236.498 54.7572 235.358C54.7572 234.278 55.7052 233.606 55.9692 233.45C57.2172 234.05 58.7052 234.422 58.7052 235.514ZM55.0812 231.386C55.0812 230.63 55.7052 230.006 56.7852 230.006C57.8052 230.006 58.5252 230.57 58.5252 231.47C58.5252 232.478 57.8052 233.234 57.6492 233.378C56.4372 232.85 55.0812 232.478 55.0812 231.386ZM61.124 237.818H66.392V237.074H61.988C62 234.83 66.26 234.434 66.26 231.602C66.26 230.282 65.3 229.238 63.692 229.238C61.904 229.238 61.136 230.762 61.136 230.762L61.76 231.182C61.76 231.182 62.408 230.03 63.644 230.03C64.7 230.03 65.396 230.726 65.396 231.65C65.396 233.93 61.076 234.314 61.076 237.278C61.076 237.446 61.088 237.626 61.124 237.818ZM67.8011 233.546C67.8011 236.006 69.5771 237.962 72.0731 237.962C74.1491 237.962 75.3011 236.654 75.3011 236.654L74.8211 236.066C74.8211 236.066 73.7891 237.194 72.0851 237.194C70.0811 237.194 68.6651 235.55 68.6651 233.534C68.6651 231.542 70.0811 230.006 72.0611 230.006C73.6451 230.006 74.6291 230.942 74.6291 230.942L75.0731 230.33C75.0731 230.33 74.0531 229.238 72.0371 229.238C69.6251 229.238 67.8011 231.098 67.8011 233.546Z" fill="#404040"/>
<path d="M1.22449 179.818H2.05249V176.266H4.17649L6.08449 179.818H7.03249L5.19649 176.422C5.06449 176.194 4.98049 176.086 4.98049 176.086V176.062C5.92849 175.798 6.57649 174.922 6.57649 173.782C6.57649 172.762 6.09649 171.958 5.30449 171.61C4.96849 171.466 4.58449 171.382 3.72049 171.382H1.22449V179.818ZM2.05249 175.522V172.126H3.75649C4.40449 172.126 4.70449 172.198 4.95649 172.33C5.44849 172.594 5.72449 173.11 5.72449 173.806C5.72449 174.862 5.07649 175.522 4.05649 175.522H2.05249ZM8.19564 175.594C8.19564 178.102 10.0196 179.962 12.3236 179.962C14.0996 179.962 15.0716 178.822 15.0716 178.822H15.0956C15.0956 178.822 15.0836 179.002 15.0836 179.182V179.818H15.8516V175.786H13.6196V176.53H15.0596V177.958C15.0596 177.958 14.0516 179.194 12.4076 179.194C10.4876 179.194 9.05964 177.658 9.05964 175.582C9.05964 173.578 10.4396 172.006 12.4796 172.006C14.0156 172.006 14.9996 172.846 14.9996 172.846L15.4436 172.222C15.4436 172.222 14.3996 171.238 12.4436 171.238C10.0196 171.238 8.19564 173.158 8.19564 175.594ZM17.8534 179.818H20.8294C22.2454 179.818 23.3614 178.954 23.3614 177.454C23.3614 176.434 22.8094 175.606 21.9454 175.366V175.342C22.5934 175.018 23.0134 174.382 23.0134 173.506C23.0134 172.186 22.0654 171.382 20.7334 171.382H17.8534V179.818ZM18.6814 175.042V172.126H20.7214C21.6214 172.126 22.1614 172.702 22.1614 173.566C22.1614 174.442 21.5854 175.042 20.7334 175.042H18.6814ZM18.6814 179.074V175.762H20.8294C21.8134 175.762 22.4974 176.422 22.4974 177.43C22.4974 178.438 21.8614 179.074 20.8414 179.074H18.6814Z" fill="#404040"/>
<path d="M0.660488 195.546C0.660488 198.006 2.43649 199.962 4.93249 199.962C7.00849 199.962 8.16049 198.654 8.16049 198.654L7.68049 198.066C7.68049 198.066 6.64849 199.194 4.94449 199.194C2.94049 199.194 1.52449 197.55 1.52449 195.534C1.52449 193.542 2.94049 192.006 4.92049 192.006C6.50449 192.006 7.48849 192.942 7.48849 192.942L7.93249 192.33C7.93249 192.33 6.91249 191.238 4.89649 191.238C2.48449 191.238 0.660488 193.098 0.660488 195.546ZM9.69096 199.818H10.519L10.987 193.914C11.023 193.458 11.011 192.714 11.011 192.714H11.035C11.035 192.714 11.299 193.494 11.491 193.914L13.471 198.246H14.251L16.231 193.914C16.423 193.482 16.675 192.738 16.675 192.738H16.699C16.699 192.738 16.687 193.458 16.723 193.914L17.191 199.818H18.019L17.347 191.382H16.495L14.287 196.338C14.095 196.77 13.867 197.37 13.867 197.37H13.843C13.843 197.37 13.627 196.77 13.435 196.338L11.227 191.382H10.363L9.69096 199.818ZM21.8917 199.818H22.7317V196.194L25.5637 191.382H24.6277L22.8397 194.442C22.5757 194.886 22.3237 195.45 22.3237 195.45H22.2997C22.2997 195.45 22.0357 194.874 21.7837 194.442L19.9957 191.382H19.0477L21.8917 196.194V199.818ZM26.9823 199.818H27.8103V195.786H29.2383L31.6503 199.818H32.6223L29.9343 195.39V195.366L32.4543 191.382H31.5063L29.2383 195.042H27.8103V191.382H26.9823V199.818Z" fill="#404040"/>
<path d="M1.22449 218.818H2.05249V214.966H6.94849V218.818H7.77649V210.382H6.94849V214.222H2.05249V210.382H1.22449V218.818ZM10.2245 218.818H15.1925V218.074H11.0525V214.942H14.2565V214.198H11.0525V211.126H14.9765V210.382H10.2245V218.818ZM16.168 218.818H17.128L18.856 215.914C19.12 215.47 19.372 214.966 19.372 214.966H19.396C19.396 214.966 19.66 215.47 19.924 215.902L21.676 218.818H22.636L19.936 214.414L22.408 210.382H21.424L19.936 212.878C19.672 213.31 19.432 213.85 19.432 213.85H19.408C19.408 213.85 19.108 213.31 18.856 212.878L17.38 210.382H16.408L18.856 214.414L16.168 218.818Z" fill="#404040"/>
<path d="M1.22449 237.818H2.05249V234.506H4.14049C5.65249 234.506 6.74449 233.498 6.74449 231.926C6.74449 230.366 5.65249 229.382 4.14049 229.382H1.22449V237.818ZM2.05249 233.762V230.126H4.04449C5.16049 230.126 5.89249 230.786 5.89249 231.926C5.89249 233.078 5.16049 233.762 4.03249 233.762H2.05249ZM8.13236 237.818H8.96036L9.42836 231.914C9.46436 231.458 9.45236 230.714 9.45236 230.714H9.47636C9.47636 230.714 9.74036 231.494 9.93236 231.914L11.9124 236.246H12.6924L14.6724 231.914C14.8644 231.482 15.1164 230.738 15.1164 230.738H15.1404C15.1404 230.738 15.1284 231.458 15.1644 231.914L15.6324 237.818H16.4604L15.7884 229.382H14.9364L12.7284 234.338C12.5364 234.77 12.3084 235.37 12.3084 235.37H12.2844C12.2844 235.37 12.0684 234.77 11.8764 234.338L9.66836 229.382H8.80436L8.13236 237.818ZM18.0146 236.882C18.0146 236.882 18.9626 237.962 20.6906 237.962C22.2746 237.962 23.2466 236.942 23.2466 235.682C23.2466 232.91 19.0346 233.486 19.0346 231.482C19.0346 230.738 19.7306 230.03 20.8106 230.03C21.9146 230.03 22.6586 230.75 22.6586 230.75L23.0666 230.054C23.0666 230.054 22.2746 229.238 20.8106 229.238C19.2506 229.238 18.1826 230.294 18.1826 231.506C18.1826 234.122 22.3946 233.582 22.3946 235.706C22.3946 236.618 21.6386 237.17 20.7146 237.17C19.3826 237.17 18.5066 236.246 18.5066 236.246L18.0146 236.882Z" fill="#404040"/>
</svg>
