<svg width="329" height="293" viewBox="0 0 329 293" fill="none" xmlns="http://www.w3.org/2000/svg">
<path d="M257.84 198.75H264.21V197.546H259.31C259.338 195.292 264.056 194.788 264.056 191.54C264.056 189.832 262.754 188.698 260.934 188.698C258.708 188.698 257.812 190.574 257.812 190.574L258.834 191.26C258.834 191.26 259.534 190 260.836 190C261.872 190 262.614 190.658 262.614 191.638C262.614 193.962 257.77 194.466 257.77 197.994C257.77 198.232 257.798 198.484 257.84 198.75ZM265.214 196.104H270.002V198.75H271.36V196.104H272.704V194.928H271.36V188.866H269.778L265.214 195.236V196.104ZM266.74 194.928V194.9L269.54 191.162C269.806 190.812 270.03 190.35 270.03 190.35H270.058C270.058 190.35 270.002 190.868 270.002 191.33V194.928H266.74ZM273.704 196.104H278.492V198.75H279.85V196.104H281.194V194.928H279.85V188.866H278.268L273.704 195.236V196.104ZM275.23 194.928V194.9L278.03 191.162C278.296 190.812 278.52 190.35 278.52 190.35H278.548C278.548 190.35 278.492 190.868 278.492 191.33V194.928H275.23ZM286.14 198.75H291.824V197.546H289.668V188.866H288.436L286.07 191.162L286.91 192.03L287.834 191.12C288.198 190.77 288.31 190.546 288.31 190.546H288.338C288.338 190.546 288.324 190.854 288.324 191.162V197.546H286.14V198.75ZM292.99 198.75H298.674V197.546H296.518V188.866H295.286L292.92 191.162L293.76 192.03L294.684 191.12C295.048 190.77 295.16 190.546 295.16 190.546H295.188C295.188 190.546 295.174 190.854 295.174 191.162V197.546H292.99V198.75ZM303.577 198.918C305.425 198.918 306.755 197.56 306.755 195.614C306.755 193.78 305.509 192.352 303.633 192.352C302.765 192.352 301.869 192.73 301.449 193.29H301.421C301.631 191.652 302.569 189.972 304.389 189.972C305.173 189.972 305.803 190.294 305.803 190.294L306.251 189.104C306.251 189.104 305.495 188.698 304.333 188.698C301.267 188.698 299.881 191.722 299.881 194.256C299.881 197.07 301.463 198.918 303.577 198.918ZM303.563 197.644C302.303 197.644 301.337 196.202 301.337 194.914C301.337 194.2 302.233 193.528 303.353 193.528C304.613 193.528 305.383 194.41 305.383 195.614C305.383 196.762 304.697 197.644 303.563 197.644ZM311.592 197.574C311.592 197.574 312.782 198.918 314.798 198.918C316.828 198.918 318.158 197.434 318.158 195.74C318.158 193.822 316.562 192.982 315.26 192.842L317.948 189.748V188.866H312.04V190.07H315.386C315.932 190.07 316.226 190.028 316.226 190.028V190.056C316.226 190.056 315.932 190.322 315.61 190.7L313.454 193.234L313.776 193.976H314.462C315.68 193.976 316.758 194.578 316.758 195.796C316.758 196.86 315.848 197.602 314.742 197.602C313.314 197.602 312.348 196.524 312.348 196.524L311.592 197.574ZM323.497 198.918C325.345 198.918 326.675 197.56 326.675 195.614C326.675 193.78 325.429 192.352 323.553 192.352C322.685 192.352 321.789 192.73 321.369 193.29H321.341C321.551 191.652 322.489 189.972 324.309 189.972C325.093 189.972 325.723 190.294 325.723 190.294L326.171 189.104C326.171 189.104 325.415 188.698 324.253 188.698C321.187 188.698 319.801 191.722 319.801 194.256C319.801 197.07 321.383 198.918 323.497 198.918ZM323.483 197.644C322.223 197.644 321.257 196.202 321.257 194.914C321.257 194.2 322.153 193.528 323.273 193.528C324.533 193.528 325.303 194.41 325.303 195.614C325.303 196.762 324.617 197.644 323.483 197.644Z" fill="#404040"/>
<path d="M261.368 219.918C264.014 219.918 264.868 217.65 264.868 214.794C264.868 211.952 264.014 209.698 261.368 209.698C258.736 209.698 257.882 211.952 257.882 214.794C257.882 217.65 258.736 219.918 261.368 219.918ZM261.368 218.644C259.758 218.644 259.296 216.95 259.296 214.794C259.296 212.652 259.758 210.972 261.368 210.972C262.992 210.972 263.454 212.652 263.454 214.794C263.454 216.95 262.992 218.644 261.368 218.644ZM270.018 218.546C270.018 218.546 271.012 219.918 273.042 219.918C275.044 219.918 276.542 218.49 276.542 216.586C276.542 214.808 275.184 213.366 273.098 213.366C272.37 213.366 271.824 213.674 271.824 213.674H271.796C271.796 213.674 271.852 213.45 271.866 213.156L272.104 211.07H275.884V209.866H270.9L270.41 214.766L271.208 215.06C271.208 215.06 271.908 214.57 272.874 214.57C274.148 214.57 275.128 215.41 275.128 216.6C275.128 217.804 274.12 218.602 272.958 218.602C271.558 218.602 270.788 217.538 270.788 217.538L270.018 218.546ZM278.075 219.75H284.445V218.546H279.545C279.573 216.292 284.291 215.788 284.291 212.54C284.291 210.832 282.989 209.698 281.169 209.698C278.943 209.698 278.047 211.574 278.047 211.574L279.069 212.26C279.069 212.26 279.769 211 281.071 211C282.107 211 282.849 211.658 282.849 212.638C282.849 214.962 278.005 215.466 278.005 218.994C278.005 219.232 278.033 219.484 278.075 219.75ZM289.64 216.894C289.64 218.686 291.11 219.918 293.084 219.918C295.142 219.918 296.472 218.56 296.472 217.02C296.472 215.998 295.884 215.382 295.128 214.92C295.254 214.78 296.304 213.66 296.304 212.344C296.304 210.72 295.03 209.698 293.196 209.698C291.11 209.698 290.116 210.972 290.116 212.288C290.116 213.198 290.578 213.8 291.222 214.262C290.956 214.444 289.64 215.382 289.64 216.894ZM295.044 216.978C295.044 218 294.12 218.672 293.084 218.672C292.034 218.672 291.054 217.944 291.054 216.81C291.054 215.746 291.922 215.074 292.244 214.85C293.574 215.494 295.044 215.914 295.044 216.978ZM291.488 212.316C291.488 211.56 292.09 210.944 293.182 210.944C294.218 210.944 294.946 211.518 294.946 212.428C294.946 213.464 294.232 214.22 294.078 214.374C292.804 213.828 291.488 213.408 291.488 212.316ZM298.018 218.546C298.018 218.546 299.012 219.918 301.042 219.918C303.044 219.918 304.542 218.49 304.542 216.586C304.542 214.808 303.184 213.366 301.098 213.366C300.37 213.366 299.824 213.674 299.824 213.674H299.796C299.796 213.674 299.852 213.45 299.866 213.156L300.104 211.07H303.884V209.866H298.9L298.41 214.766L299.208 215.06C299.208 215.06 299.908 214.57 300.874 214.57C302.148 214.57 303.128 215.41 303.128 216.6C303.128 217.804 302.12 218.602 300.958 218.602C299.558 218.602 298.788 217.538 298.788 217.538L298.018 218.546ZM309.265 217.104H314.053V219.75H315.411V217.104H316.755V215.928H315.411V209.866H313.829L309.265 216.236V217.104ZM310.791 215.928V215.9L313.591 212.162C313.857 211.812 314.081 211.35 314.081 211.35H314.109C314.109 211.35 314.053 211.868 314.053 212.33V215.928H310.791Z" fill="#404040"/>
<path d="M258.974 240.75H260.108L260.57 238.076H262.74L262.278 240.75H263.412L263.888 238.076H265.694L265.876 237.04H264.056L264.476 234.688H266.296L266.478 233.666H264.644L265.134 230.866H264L263.51 233.666H261.34L261.83 230.866H260.696L260.206 233.666H258.386L258.218 234.688H260.024L259.618 237.04H257.784L257.616 238.076H259.436L258.974 240.75ZM260.752 237.04L261.172 234.688H263.342L262.922 237.04H260.752ZM268.393 240.75H269.779V236.522H273.237V235.318H269.779V232.07H273.839V230.866H268.393V240.75ZM274.784 238.104H279.572V240.75H280.93V238.104H282.274V236.928H280.93V230.866H279.348L274.784 237.236V238.104ZM276.31 236.928V236.9L279.11 233.162C279.376 232.812 279.6 232.35 279.6 232.35H279.628C279.628 232.35 279.572 232.868 279.572 233.33V236.928H276.31ZM284.044 240.75H285.472L289.938 231.818V230.866H283.33V232.07H287.74C288.244 232.07 288.468 232.028 288.468 232.028V232.056C288.468 232.056 288.174 232.406 287.894 232.966L284.044 240.75ZM290.384 238.104H295.172V240.75H296.53V238.104H297.874V236.928H296.53V230.866H294.948L290.384 237.236V238.104ZM291.91 236.928V236.9L294.71 233.162C294.976 232.812 295.2 232.35 295.2 232.35H295.228C295.228 232.35 295.172 232.868 295.172 233.33V236.928H291.91ZM299.28 240.75H305.65V239.546H300.75C300.778 237.292 305.496 236.788 305.496 233.54C305.496 231.832 304.194 230.698 302.374 230.698C300.148 230.698 299.252 232.574 299.252 232.574L300.274 233.26C300.274 233.26 300.974 232 302.276 232C303.312 232 304.054 232.658 304.054 233.638C304.054 235.962 299.21 236.466 299.21 239.994C299.21 240.232 299.238 240.484 299.28 240.75ZM306.653 238.104H311.441V240.75H312.799V238.104H314.143V236.928H312.799V230.866H311.217L306.653 237.236V238.104ZM308.179 236.928V236.9L310.979 233.162C311.245 232.812 311.469 232.35 311.469 232.35H311.497C311.497 232.35 311.441 232.868 311.441 233.33V236.928H308.179Z" fill="#404040"/>
<path d="M257.784 261.75H263.468V260.546H261.312V251.866H260.08L257.714 254.162L258.554 255.03L259.478 254.12C259.842 253.77 259.954 253.546 259.954 253.546H259.982C259.982 253.546 259.968 253.854 259.968 254.162V260.546H257.784V261.75ZM268.372 261.918C270.22 261.918 271.55 260.56 271.55 258.614C271.55 256.78 270.304 255.352 268.428 255.352C267.56 255.352 266.664 255.73 266.244 256.29H266.216C266.426 254.652 267.364 252.972 269.184 252.972C269.968 252.972 270.598 253.294 270.598 253.294L271.046 252.104C271.046 252.104 270.29 251.698 269.128 251.698C266.062 251.698 264.676 254.722 264.676 257.256C264.676 260.07 266.258 261.918 268.372 261.918ZM268.358 260.644C267.098 260.644 266.132 259.202 266.132 257.914C266.132 257.2 267.028 256.528 268.148 256.528C269.408 256.528 270.178 257.41 270.178 258.614C270.178 259.762 269.492 260.644 268.358 260.644ZM272.903 260.546C272.903 260.546 273.897 261.918 275.927 261.918C277.929 261.918 279.427 260.49 279.427 258.586C279.427 256.808 278.069 255.366 275.983 255.366C275.255 255.366 274.709 255.674 274.709 255.674H274.681C274.681 255.674 274.737 255.45 274.751 255.156L274.989 253.07H278.769V251.866H273.785L273.295 256.766L274.093 257.06C274.093 257.06 274.793 256.57 275.759 256.57C277.033 256.57 278.013 257.41 278.013 258.6C278.013 259.804 277.005 260.602 275.843 260.602C274.443 260.602 273.673 259.538 273.673 259.538L272.903 260.546ZM280.792 256.752C280.792 259.65 282.878 261.918 285.846 261.918C288.324 261.918 289.682 260.35 289.682 260.35L288.94 259.356C288.94 259.356 287.75 260.644 285.888 260.644C283.69 260.644 282.22 258.852 282.22 256.738C282.22 254.638 283.662 252.958 285.874 252.958C287.582 252.958 288.73 254.036 288.73 254.036L289.416 253C289.416 253 288.198 251.698 285.818 251.698C282.948 251.698 280.792 253.882 280.792 256.752Z" fill="#404040"/>
<path d="M208.344 198.75H209.73V194.816H211.844L213.93 198.75H215.498L213.398 194.914C213.216 194.592 213.104 194.466 213.104 194.466V194.438C214.182 194.088 214.882 193.024 214.882 191.764C214.882 190.462 214.224 189.468 213.216 189.09C212.838 188.95 212.404 188.866 211.368 188.866H208.344V198.75ZM209.73 193.612V190.07H211.326C212.096 190.07 212.418 190.154 212.684 190.294C213.188 190.574 213.468 191.092 213.468 191.82C213.468 192.926 212.796 193.612 211.718 193.612H209.73ZM216.655 193.794C216.655 196.818 218.853 198.918 221.513 198.918C223.473 198.918 224.551 197.714 224.551 197.714H224.579C224.579 197.714 224.565 197.924 224.565 198.134V198.75H225.783V193.78H222.913V194.984H224.523V196.412C224.523 196.412 223.431 197.644 221.723 197.644C219.651 197.644 218.083 196.062 218.083 193.766C218.083 191.652 219.483 189.958 221.807 189.958C223.487 189.958 224.593 190.924 224.593 190.924L225.293 189.888C225.293 189.888 224.061 188.698 221.695 188.698C218.811 188.698 216.655 190.938 216.655 193.794ZM227.95 198.75H231.492C233.228 198.75 234.67 197.798 234.67 195.936C234.67 194.83 234.082 193.85 233.046 193.542V193.514C233.802 193.122 234.278 192.352 234.278 191.386C234.278 189.79 233.074 188.866 231.408 188.866H227.95V198.75ZM229.336 193.024V190.07H231.38C232.332 190.07 232.864 190.658 232.864 191.526C232.864 192.394 232.304 193.024 231.408 193.024H229.336ZM229.336 197.546V194.172H231.548C232.584 194.172 233.256 194.858 233.256 195.866C233.256 196.874 232.626 197.546 231.562 197.546H229.336Z" fill="#404040"/>
<path d="M207.672 214.752C207.672 217.65 209.758 219.918 212.726 219.918C215.204 219.918 216.562 218.35 216.562 218.35L215.82 217.356C215.82 217.356 214.63 218.644 212.768 218.644C210.57 218.644 209.1 216.852 209.1 214.738C209.1 212.638 210.542 210.958 212.754 210.958C214.462 210.958 215.61 212.036 215.61 212.036L216.296 211C216.296 211 215.078 209.698 212.698 209.698C209.828 209.698 207.672 211.882 207.672 214.752ZM218.14 219.75H219.526L220.002 213.52C220.044 212.918 220.03 212.036 220.03 212.036H220.058C220.058 212.036 220.366 212.988 220.59 213.52L222.55 217.972H223.782L225.756 213.52C225.994 212.974 226.288 212.064 226.288 212.064H226.316C226.316 212.064 226.288 212.918 226.33 213.52L226.82 219.75H228.192L227.394 209.866H225.938L223.67 215.214C223.446 215.76 223.18 216.544 223.18 216.544H223.152C223.152 216.544 222.886 215.76 222.662 215.214L220.394 209.866H218.938L218.14 219.75ZM232.524 219.75H233.91V215.564L237.214 209.866H235.646L233.84 213.114C233.532 213.674 233.238 214.36 233.238 214.36H233.21C233.21 214.36 232.916 213.66 232.608 213.114L230.774 209.866H229.206L232.524 215.564V219.75ZM238.669 219.75H240.055V215.214H241.525L244.157 219.75H245.725L242.673 214.584V214.556L245.543 209.866H244.017L241.525 214.024H240.055V209.866H238.669V219.75Z" fill="#404040"/>
<path d="M208.344 240.75H209.73V236.41H214.854V240.75H216.24V230.866H214.854V235.206H209.73V230.866H208.344V240.75ZM218.927 240.75H224.905V239.546H220.313V236.368H223.855V235.164H220.313V232.07H224.667V230.866H218.927V240.75ZM225.916 240.75H227.47L229.262 237.712C229.584 237.166 229.85 236.578 229.85 236.578H229.878C229.878 236.578 230.186 237.152 230.508 237.712L232.3 240.75H233.868L230.746 235.654L233.672 230.866H232.076L230.522 233.54C230.2 234.086 229.92 234.716 229.92 234.716H229.892C229.892 234.716 229.57 234.072 229.262 233.54L227.708 230.866H226.112L229.038 235.654L225.916 240.75Z" fill="#404040"/>
<path d="M208.344 261.75H209.73V258.096H211.956C213.762 258.096 215.064 256.836 215.064 254.96C215.064 253.084 213.762 251.866 211.956 251.866H208.344V261.75ZM209.73 256.892V253.07H211.746C212.922 253.07 213.65 253.77 213.65 254.96C213.65 256.15 212.922 256.892 211.732 256.892H209.73ZM216.54 261.75H217.926L218.402 255.52C218.444 254.918 218.43 254.036 218.43 254.036H218.458C218.458 254.036 218.766 254.988 218.99 255.52L220.95 259.972H222.182L224.156 255.52C224.394 254.974 224.688 254.064 224.688 254.064H224.716C224.716 254.064 224.688 254.918 224.73 255.52L225.22 261.75H226.592L225.794 251.866H224.338L222.07 257.214C221.846 257.76 221.58 258.544 221.58 258.544H221.552C221.552 258.544 221.286 257.76 221.062 257.214L218.794 251.866H217.338L216.54 261.75ZM228.219 260.616C228.219 260.616 229.395 261.918 231.495 261.918C233.455 261.918 234.631 260.658 234.631 259.132C234.631 255.926 229.843 256.472 229.843 254.428C229.843 253.644 230.585 252.986 231.635 252.986C232.895 252.986 233.805 253.84 233.805 253.84L234.435 252.692C234.435 252.692 233.469 251.698 231.635 251.698C229.773 251.698 228.443 252.916 228.443 254.456C228.443 257.494 233.231 257.032 233.231 259.174C233.231 260.112 232.447 260.63 231.523 260.63C230.053 260.63 229.003 259.566 229.003 259.566L228.219 260.616Z" fill="#404040"/>
<path d="M97.5005 292.5L13.063 146.25L181.938 146.25L97.5005 292.5Z" fill="#F47424"/>
<path d="M257.84 39.75H264.21V38.546H259.31C259.338 36.292 264.056 35.788 264.056 32.54C264.056 30.832 262.754 29.698 260.934 29.698C258.708 29.698 257.812 31.574 257.812 31.574L258.834 32.26C258.834 32.26 259.534 31 260.836 31C261.872 31 262.614 31.658 262.614 32.638C262.614 34.962 257.77 35.466 257.77 38.994C257.77 39.232 257.798 39.484 257.84 39.75ZM265.572 38.574C265.572 38.574 266.762 39.918 268.778 39.918C270.808 39.918 272.138 38.434 272.138 36.74C272.138 34.822 270.542 33.982 269.24 33.842L271.928 30.748V29.866H266.02V31.07H269.366C269.912 31.07 270.206 31.028 270.206 31.028V31.056C270.206 31.056 269.912 31.322 269.59 31.7L267.434 34.234L267.756 34.976H268.442C269.66 34.976 270.738 35.578 270.738 36.796C270.738 37.86 269.828 38.602 268.722 38.602C267.294 38.602 266.328 37.524 266.328 37.524L265.572 38.574ZM274.16 39.75H275.588L280.054 30.818V29.866H273.446V31.07H277.856C278.36 31.07 278.584 31.028 278.584 31.028V31.056C278.584 31.056 278.29 31.406 278.01 31.966L274.16 39.75ZM284.745 39.75H290.429V38.546H288.273V29.866H287.041L284.675 32.162L285.515 33.03L286.439 32.12C286.803 31.77 286.915 31.546 286.915 31.546H286.943C286.943 31.546 286.929 31.854 286.929 32.162V38.546H284.745V39.75ZM293.919 39.918C296.985 39.918 298.371 36.894 298.371 34.36C298.371 31.532 296.775 29.698 294.675 29.698C292.827 29.698 291.497 31.056 291.497 33.002C291.497 34.836 292.743 36.25 294.619 36.25C295.487 36.25 296.397 35.886 296.803 35.326H296.831C296.621 36.964 295.683 38.644 293.863 38.644C293.079 38.644 292.449 38.308 292.449 38.308L292.001 39.512C292.001 39.512 292.743 39.918 293.919 39.918ZM294.899 35.088C293.625 35.088 292.869 34.206 292.869 33.002C292.869 31.854 293.541 30.972 294.689 30.972C295.949 30.972 296.915 32.414 296.915 33.702C296.915 34.402 296.019 35.088 294.899 35.088ZM305.896 39.918C308.962 39.918 310.348 36.894 310.348 34.36C310.348 31.532 308.752 29.698 306.652 29.698C304.804 29.698 303.474 31.056 303.474 33.002C303.474 34.836 304.72 36.25 306.596 36.25C307.464 36.25 308.374 35.886 308.78 35.326H308.808C308.598 36.964 307.66 38.644 305.84 38.644C305.056 38.644 304.426 38.308 304.426 38.308L303.978 39.512C303.978 39.512 304.72 39.918 305.896 39.918ZM306.876 35.088C305.602 35.088 304.846 34.206 304.846 33.002C304.846 31.854 305.518 30.972 306.666 30.972C307.926 30.972 308.892 32.414 308.892 33.702C308.892 34.402 307.996 35.088 306.876 35.088ZM311.728 38.574C311.728 38.574 312.918 39.918 314.934 39.918C316.964 39.918 318.294 38.434 318.294 36.74C318.294 34.822 316.698 33.982 315.396 33.842L318.084 30.748V29.866H312.176V31.07H315.522C316.068 31.07 316.362 31.028 316.362 31.028V31.056C316.362 31.056 316.068 31.322 315.746 31.7L313.59 34.234L313.912 34.976H314.598C315.816 34.976 316.894 35.578 316.894 36.796C316.894 37.86 315.984 38.602 314.878 38.602C313.45 38.602 312.484 37.524 312.484 37.524L311.728 38.574Z" fill="#404040"/>
<path d="M261.368 60.918C264.014 60.918 264.868 58.65 264.868 55.794C264.868 52.952 264.014 50.698 261.368 50.698C258.736 50.698 257.882 52.952 257.882 55.794C257.882 58.65 258.736 60.918 261.368 60.918ZM261.368 59.644C259.758 59.644 259.296 57.95 259.296 55.794C259.296 53.652 259.758 51.972 261.368 51.972C262.992 51.972 263.454 53.652 263.454 55.794C263.454 57.95 262.992 59.644 261.368 59.644ZM272.454 60.918C275.52 60.918 276.906 57.894 276.906 55.36C276.906 52.532 275.31 50.698 273.21 50.698C271.362 50.698 270.032 52.056 270.032 54.002C270.032 55.836 271.278 57.25 273.154 57.25C274.022 57.25 274.932 56.886 275.338 56.326H275.366C275.156 57.964 274.218 59.644 272.398 59.644C271.614 59.644 270.984 59.308 270.984 59.308L270.536 60.512C270.536 60.512 271.278 60.918 272.454 60.918ZM273.434 56.088C272.16 56.088 271.404 55.206 271.404 54.002C271.404 52.854 272.076 51.972 273.224 51.972C274.484 51.972 275.45 53.414 275.45 54.702C275.45 55.402 274.554 56.088 273.434 56.088ZM278.567 60.75H284.937V59.546H280.037C280.065 57.292 284.783 56.788 284.783 53.54C284.783 51.832 283.481 50.698 281.661 50.698C279.435 50.698 278.539 52.574 278.539 52.574L279.561 53.26C279.561 53.26 280.261 52 281.563 52C282.599 52 283.341 52.658 283.341 53.638C283.341 55.962 278.497 56.466 278.497 59.994C278.497 60.232 278.525 60.484 278.567 60.75ZM293.856 60.918C295.704 60.918 297.034 59.56 297.034 57.614C297.034 55.78 295.788 54.352 293.912 54.352C293.044 54.352 292.148 54.73 291.728 55.29H291.7C291.91 53.652 292.848 51.972 294.668 51.972C295.452 51.972 296.082 52.294 296.082 52.294L296.53 51.104C296.53 51.104 295.774 50.698 294.612 50.698C291.546 50.698 290.16 53.722 290.16 56.256C290.16 59.07 291.742 60.918 293.856 60.918ZM293.842 59.644C292.582 59.644 291.616 58.202 291.616 56.914C291.616 56.2 292.512 55.528 293.632 55.528C294.892 55.528 295.662 56.41 295.662 57.614C295.662 58.762 294.976 59.644 293.842 59.644ZM298.499 60.75H304.183V59.546H302.027V50.866H300.795L298.429 53.162L299.269 54.03L300.193 53.12C300.557 52.77 300.669 52.546 300.669 52.546H300.697C300.697 52.546 300.683 52.854 300.683 53.162V59.546H298.499V60.75ZM309.365 60.75H310.793L315.259 51.818V50.866H308.651V52.07H313.061C313.565 52.07 313.789 52.028 313.789 52.028V52.056C313.789 52.056 313.495 52.406 313.215 52.966L309.365 60.75Z" fill="#404040"/>
<path d="M258.974 81.75H260.108L260.57 79.076H262.74L262.278 81.75H263.412L263.888 79.076H265.694L265.876 78.04H264.056L264.476 75.688H266.296L266.478 74.666H264.644L265.134 71.866H264L263.51 74.666H261.34L261.83 71.866H260.696L260.206 74.666H258.386L258.218 75.688H260.024L259.618 78.04H257.784L257.616 79.076H259.436L258.974 81.75ZM260.752 78.04L261.172 75.688H263.342L262.922 78.04H260.752ZM268.393 81.75H274.371V80.546H269.779V77.368H273.321V76.164H269.779V73.07H274.133V71.866H268.393V81.75ZM276.419 81.75H279.695C282.719 81.75 284.707 79.93 284.707 76.794C284.707 73.672 282.719 71.866 279.695 71.866H276.419V81.75ZM277.805 80.546V73.07H279.597C281.809 73.07 283.279 74.372 283.279 76.794C283.279 79.23 281.823 80.546 279.597 80.546H277.805ZM286.222 81.75H291.906V80.546H289.75V71.866H288.518L286.152 74.162L286.992 75.03L287.916 74.12C288.28 73.77 288.392 73.546 288.392 73.546H288.42C288.42 73.546 288.406 73.854 288.406 74.162V80.546H286.222V81.75ZM292.848 80.574C292.848 80.574 294.038 81.918 296.054 81.918C298.084 81.918 299.414 80.434 299.414 78.74C299.414 76.822 297.818 75.982 296.516 75.842L299.204 72.748V71.866H293.296V73.07H296.642C297.188 73.07 297.482 73.028 297.482 73.028V73.056C297.482 73.056 297.188 73.322 296.866 73.7L294.71 76.234L295.032 76.976H295.718C296.936 76.976 298.014 77.578 298.014 78.796C298.014 79.86 297.104 80.602 295.998 80.602C294.57 80.602 293.604 79.524 293.604 79.524L292.848 80.574ZM300.903 80.546C300.903 80.546 301.897 81.918 303.927 81.918C305.929 81.918 307.427 80.49 307.427 78.586C307.427 76.808 306.069 75.366 303.983 75.366C303.255 75.366 302.709 75.674 302.709 75.674H302.681C302.681 75.674 302.737 75.45 302.751 75.156L302.989 73.07H306.769V71.866H301.785L301.295 76.766L302.093 77.06C302.093 77.06 302.793 76.57 303.759 76.57C305.033 76.57 306.013 77.41 306.013 78.6C306.013 79.804 305.005 80.602 303.843 80.602C302.443 80.602 301.673 79.538 301.673 79.538L300.903 80.546ZM309.464 81.75H312.74C315.764 81.75 317.752 79.93 317.752 76.794C317.752 73.672 315.764 71.866 312.74 71.866H309.464V81.75ZM310.85 80.546V73.07H312.642C314.854 73.07 316.324 74.372 316.324 76.794C316.324 79.23 314.868 80.546 312.642 80.546H310.85Z" fill="#404040"/>
<path d="M257.84 102.75H264.21V101.546H259.31C259.338 99.292 264.056 98.788 264.056 95.54C264.056 93.832 262.754 92.698 260.934 92.698C258.708 92.698 257.812 94.574 257.812 94.574L258.834 95.26C258.834 95.26 259.534 94 260.836 94C261.872 94 262.614 94.658 262.614 95.638C262.614 97.962 257.77 98.466 257.77 101.994C257.77 102.232 257.798 102.484 257.84 102.75ZM269.38 102.918C272.026 102.918 272.88 100.65 272.88 97.794C272.88 94.952 272.026 92.698 269.38 92.698C266.748 92.698 265.894 94.952 265.894 97.794C265.894 100.65 266.748 102.918 269.38 102.918ZM269.38 101.644C267.77 101.644 267.308 99.95 267.308 97.794C267.308 95.652 267.77 93.972 269.38 93.972C271.004 93.972 271.466 95.652 271.466 97.794C271.466 99.95 271.004 101.644 269.38 101.644ZM278.284 102.918C280.132 102.918 281.462 101.56 281.462 99.614C281.462 97.78 280.216 96.352 278.34 96.352C277.472 96.352 276.576 96.73 276.156 97.29H276.128C276.338 95.652 277.276 93.972 279.096 93.972C279.88 93.972 280.51 94.294 280.51 94.294L280.958 93.104C280.958 93.104 280.202 92.698 279.04 92.698C275.974 92.698 274.588 95.722 274.588 98.256C274.588 101.07 276.17 102.918 278.284 102.918ZM278.27 101.644C277.01 101.644 276.044 100.202 276.044 98.914C276.044 98.2 276.94 97.528 278.06 97.528C279.32 97.528 280.09 98.41 280.09 99.614C280.09 100.762 279.404 101.644 278.27 101.644ZM282.815 97.752C282.815 100.65 284.901 102.918 287.869 102.918C290.347 102.918 291.705 101.35 291.705 101.35L290.963 100.356C290.963 100.356 289.773 101.644 287.911 101.644C285.713 101.644 284.243 99.852 284.243 97.738C284.243 95.638 285.685 93.958 287.897 93.958C289.605 93.958 290.753 95.036 290.753 95.036L291.439 94C291.439 94 290.221 92.698 287.841 92.698C284.971 92.698 282.815 94.882 282.815 97.752Z" fill="#404040"/>
<path d="M208.344 39.75H209.73V35.816H211.844L213.93 39.75H215.498L213.398 35.914C213.216 35.592 213.104 35.466 213.104 35.466V35.438C214.182 35.088 214.882 34.024 214.882 32.764C214.882 31.462 214.224 30.468 213.216 30.09C212.838 29.95 212.404 29.866 211.368 29.866H208.344V39.75ZM209.73 34.612V31.07H211.326C212.096 31.07 212.418 31.154 212.684 31.294C213.188 31.574 213.468 32.092 213.468 32.82C213.468 33.926 212.796 34.612 211.718 34.612H209.73ZM216.655 34.794C216.655 37.818 218.853 39.918 221.513 39.918C223.473 39.918 224.551 38.714 224.551 38.714H224.579C224.579 38.714 224.565 38.924 224.565 39.134V39.75H225.783V34.78H222.913V35.984H224.523V37.412C224.523 37.412 223.431 38.644 221.723 38.644C219.651 38.644 218.083 37.062 218.083 34.766C218.083 32.652 219.483 30.958 221.807 30.958C223.487 30.958 224.593 31.924 224.593 31.924L225.293 30.888C225.293 30.888 224.061 29.698 221.695 29.698C218.811 29.698 216.655 31.938 216.655 34.794ZM227.95 39.75H231.492C233.228 39.75 234.67 38.798 234.67 36.936C234.67 35.83 234.082 34.85 233.046 34.542V34.514C233.802 34.122 234.278 33.352 234.278 32.386C234.278 30.79 233.074 29.866 231.408 29.866H227.95V39.75ZM229.336 34.024V31.07H231.38C232.332 31.07 232.864 31.658 232.864 32.526C232.864 33.394 232.304 34.024 231.408 34.024H229.336ZM229.336 38.546V35.172H231.548C232.584 35.172 233.256 35.858 233.256 36.866C233.256 37.874 232.626 38.546 231.562 38.546H229.336Z" fill="#404040"/>
<path d="M207.672 55.752C207.672 58.65 209.758 60.918 212.726 60.918C215.204 60.918 216.562 59.35 216.562 59.35L215.82 58.356C215.82 58.356 214.63 59.644 212.768 59.644C210.57 59.644 209.1 57.852 209.1 55.738C209.1 53.638 210.542 51.958 212.754 51.958C214.462 51.958 215.61 53.036 215.61 53.036L216.296 52C216.296 52 215.078 50.698 212.698 50.698C209.828 50.698 207.672 52.882 207.672 55.752ZM218.14 60.75H219.526L220.002 54.52C220.044 53.918 220.03 53.036 220.03 53.036H220.058C220.058 53.036 220.366 53.988 220.59 54.52L222.55 58.972H223.782L225.756 54.52C225.994 53.974 226.288 53.064 226.288 53.064H226.316C226.316 53.064 226.288 53.918 226.33 54.52L226.82 60.75H228.192L227.394 50.866H225.938L223.67 56.214C223.446 56.76 223.18 57.544 223.18 57.544H223.152C223.152 57.544 222.886 56.76 222.662 56.214L220.394 50.866H218.938L218.14 60.75ZM232.524 60.75H233.91V56.564L237.214 50.866H235.646L233.84 54.114C233.532 54.674 233.238 55.36 233.238 55.36H233.21C233.21 55.36 232.916 54.66 232.608 54.114L230.774 50.866H229.206L232.524 56.564V60.75ZM238.669 60.75H240.055V56.214H241.525L244.157 60.75H245.725L242.673 55.584V55.556L245.543 50.866H244.017L241.525 55.024H240.055V50.866H238.669V60.75Z" fill="#404040"/>
<path d="M208.344 81.75H209.73V77.41H214.854V81.75H216.24V71.866H214.854V76.206H209.73V71.866H208.344V81.75ZM218.927 81.75H224.905V80.546H220.313V77.368H223.855V76.164H220.313V73.07H224.667V71.866H218.927V81.75ZM225.916 81.75H227.47L229.262 78.712C229.584 78.166 229.85 77.578 229.85 77.578H229.878C229.878 77.578 230.186 78.152 230.508 78.712L232.3 81.75H233.868L230.746 76.654L233.672 71.866H232.076L230.522 74.54C230.2 75.086 229.92 75.716 229.92 75.716H229.892C229.892 75.716 229.57 75.072 229.262 74.54L227.708 71.866H226.112L229.038 76.654L225.916 81.75Z" fill="#404040"/>
<path d="M208.344 102.75H209.73V99.096H211.956C213.762 99.096 215.064 97.836 215.064 95.96C215.064 94.084 213.762 92.866 211.956 92.866H208.344V102.75ZM209.73 97.892V94.07H211.746C212.922 94.07 213.65 94.77 213.65 95.96C213.65 97.15 212.922 97.892 211.732 97.892H209.73ZM216.54 102.75H217.926L218.402 96.52C218.444 95.918 218.43 95.036 218.43 95.036H218.458C218.458 95.036 218.766 95.988 218.99 96.52L220.95 100.972H222.182L224.156 96.52C224.394 95.974 224.688 95.064 224.688 95.064H224.716C224.716 95.064 224.688 95.918 224.73 96.52L225.22 102.75H226.592L225.794 92.866H224.338L222.07 98.214C221.846 98.76 221.58 99.544 221.58 99.544H221.552C221.552 99.544 221.286 98.76 221.062 98.214L218.794 92.866H217.338L216.54 102.75ZM228.219 101.616C228.219 101.616 229.395 102.918 231.495 102.918C233.455 102.918 234.631 101.658 234.631 100.132C234.631 96.926 229.843 97.472 229.843 95.428C229.843 94.644 230.585 93.986 231.635 93.986C232.895 93.986 233.805 94.84 233.805 94.84L234.435 93.692C234.435 93.692 233.469 92.698 231.635 92.698C229.773 92.698 228.443 93.916 228.443 95.456C228.443 98.494 233.231 98.032 233.231 100.174C233.231 101.112 232.447 101.63 231.523 101.63C230.053 101.63 229.003 100.566 229.003 100.566L228.219 101.616Z" fill="#404040"/>
<path d="M97.5005 0L181.938 146.25H13.063L97.5005 0Z" fill="#ED135D"/>
</svg>
