<svg width="169" height="238" viewBox="0 0 169 238" fill="none" xmlns="http://www.w3.org/2000/svg">
<rect x="0.000488281" width="169" height="150" fill="#EF4135"/>
<path d="M46.7685 179H52.0365V178.256H47.6325C47.6445 176.012 51.9045 175.616 51.9045 172.784C51.9045 171.464 50.9445 170.42 49.3365 170.42C47.5485 170.42 46.7805 171.944 46.7805 171.944L47.4045 172.364C47.4045 172.364 48.0525 171.212 49.2885 171.212C50.3445 171.212 51.0405 171.908 51.0405 172.832C51.0405 175.112 46.7205 175.496 46.7205 178.46C46.7205 178.628 46.7325 178.808 46.7685 179ZM53.3256 177.992C53.3256 177.992 54.3456 179.144 56.0016 179.144C57.5976 179.144 58.7736 177.944 58.7736 176.504C58.7736 174.68 57.2016 174.08 56.1336 174.02L58.6536 171.116V170.564H53.7216V171.308H56.8896C57.3336 171.308 57.5736 171.272 57.5736 171.272V171.296C57.5736 171.296 57.3576 171.5 57.1296 171.764L55.0176 174.236L55.2216 174.728H55.7976C56.9016 174.728 57.9216 175.34 57.9216 176.528C57.9216 177.608 56.9976 178.352 55.9896 178.352C54.6936 178.352 53.8296 177.356 53.8296 177.356L53.3256 177.992ZM62.1639 179.144C64.7799 179.144 65.8719 176.492 65.8719 174.38C65.8719 172.1 64.6599 170.42 62.8239 170.42C61.3479 170.42 60.1839 171.488 60.1839 173.24C60.1839 174.836 61.2639 175.964 62.7999 175.964C63.6759 175.964 64.5279 175.58 64.9479 174.98H64.9719C64.8159 176.624 63.9279 178.364 62.1519 178.364C61.4559 178.364 60.9279 178.064 60.9279 178.064L60.6159 178.796C60.6159 178.796 61.2399 179.144 62.1639 179.144ZM62.9319 175.22C61.7799 175.22 61.0239 174.428 61.0239 173.228C61.0239 172.064 61.6959 171.2 62.8359 171.2C64.0959 171.2 64.9719 172.652 64.9719 173.78C64.9719 174.464 64.0719 175.22 62.9319 175.22ZM73.6996 179.144C75.1756 179.144 76.3516 178.076 76.3516 176.324C76.3516 174.728 75.2596 173.6 73.7236 173.6C72.8476 173.6 71.9956 173.984 71.5876 174.584H71.5636C71.7076 172.94 72.6076 171.2 74.3716 171.2C75.0676 171.2 75.5956 171.5 75.5956 171.5L75.9076 170.768C75.9076 170.768 75.2956 170.42 74.3596 170.42C71.7556 170.42 70.6516 173.072 70.6516 175.184C70.6516 177.464 71.8636 179.144 73.6996 179.144ZM73.6876 178.364C72.4276 178.364 71.5516 176.912 71.5516 175.784C71.5516 175.1 72.4636 174.344 73.5916 174.344C74.7436 174.344 75.4996 175.136 75.4996 176.336C75.4996 177.5 74.8276 178.364 73.6876 178.364ZM77.6563 177.944C77.6563 177.944 78.4483 179.144 80.1283 179.144C81.7723 179.144 83.0563 177.932 83.0563 176.372C83.0563 174.848 81.8443 173.624 80.1523 173.624C79.3963 173.624 78.8683 173.948 78.8683 173.948H78.8443C78.8443 173.948 78.8923 173.768 78.9283 173.468L79.1683 171.308H82.5283V170.564H78.4483L77.9923 174.656L78.5203 174.848C78.5203 174.848 79.1563 174.392 80.0563 174.392C81.2563 174.392 82.1923 175.22 82.1923 176.372C82.1923 177.524 81.2563 178.352 80.0923 178.352C78.8083 178.352 78.1843 177.368 78.1843 177.368L77.6563 177.944ZM87.5704 177.944C87.5704 177.944 88.3624 179.144 90.0424 179.144C91.6864 179.144 92.9704 177.932 92.9704 176.372C92.9704 174.848 91.7584 173.624 90.0664 173.624C89.3104 173.624 88.7824 173.948 88.7824 173.948H88.7584C88.7584 173.948 88.8064 173.768 88.8424 173.468L89.0824 171.308H92.4424V170.564H88.3624L87.9064 174.656L88.4344 174.848C88.4344 174.848 89.0704 174.392 89.9704 174.392C91.1704 174.392 92.1064 175.22 92.1064 176.372C92.1064 177.524 91.1704 178.352 90.0064 178.352C88.7224 178.352 88.0984 177.368 88.0984 177.368L87.5704 177.944ZM94.1538 177.992C94.1538 177.992 95.1738 179.144 96.8298 179.144C98.4258 179.144 99.6018 177.944 99.6018 176.504C99.6018 174.68 98.0298 174.08 96.9618 174.02L99.4818 171.116V170.564H94.5498V171.308H97.7178C98.1618 171.308 98.4018 171.272 98.4018 171.272V171.296C98.4018 171.296 98.1858 171.5 97.9578 171.764L95.8458 174.236L96.0498 174.728H96.6258C97.7298 174.728 98.7498 175.34 98.7498 176.528C98.7498 177.608 97.8258 178.352 96.8178 178.352C95.5218 178.352 94.6578 177.356 94.6578 177.356L94.1538 177.992Z" fill="#404040"/>
<path d="M49.7565 199.144C51.9525 199.144 52.6605 197.224 52.6605 194.776C52.6605 192.352 51.9525 190.42 49.7565 190.42C47.5605 190.42 46.8405 192.352 46.8405 194.776C46.8405 197.224 47.5605 199.144 49.7565 199.144ZM49.7565 198.364C48.1485 198.364 47.7045 196.792 47.7045 194.776C47.7045 192.772 48.1485 191.2 49.7565 191.2C51.3525 191.2 51.7965 192.772 51.7965 194.776C51.7965 196.792 51.3525 198.364 49.7565 198.364ZM57.8871 199H58.7511L62.6631 191.14V190.564H57.1791V191.308H61.1271C61.5471 191.308 61.7631 191.284 61.7631 191.284V191.308C61.7631 191.308 61.5231 191.632 61.2951 192.088L57.8871 199ZM63.4975 197.992C63.4975 197.992 64.5175 199.144 66.1735 199.144C67.7695 199.144 68.9455 197.944 68.9455 196.504C68.9455 194.68 67.3735 194.08 66.3055 194.02L68.8255 191.116V190.564H63.8935V191.308H67.0615C67.5055 191.308 67.7455 191.272 67.7455 191.272V191.296C67.7455 191.296 67.5295 191.5 67.3015 191.764L65.1895 194.236L65.3935 194.728H65.9695C67.0735 194.728 68.0935 195.34 68.0935 196.528C68.0935 197.608 67.1695 198.352 66.1615 198.352C64.8655 198.352 64.0015 197.356 64.0015 197.356L63.4975 197.992ZM74.0825 199H74.9465L78.8585 191.14V190.564H73.3745V191.308H77.3225C77.7425 191.308 77.9585 191.284 77.9585 191.284V191.308C77.9585 191.308 77.7185 191.632 77.4905 192.088L74.0825 199ZM79.9208 196.576C79.9208 198.172 81.2528 199.144 82.7768 199.144C84.4088 199.144 85.5728 198.028 85.5728 196.708C85.5728 195.832 85.0448 195.292 84.3488 194.896C84.4448 194.8 85.3808 193.816 85.3808 192.616C85.3808 191.296 84.3728 190.42 82.8008 190.42C81.0968 190.42 80.2568 191.464 80.2568 192.556C80.2568 193.36 80.7008 193.876 81.3008 194.272C81.1088 194.392 79.9208 195.22 79.9208 196.576ZM84.7208 196.696C84.7208 197.692 83.7728 198.376 82.7768 198.376C81.7568 198.376 80.7728 197.68 80.7728 196.54C80.7728 195.46 81.7208 194.788 81.9848 194.632C83.2328 195.232 84.7208 195.604 84.7208 196.696ZM81.0968 192.568C81.0968 191.812 81.7208 191.188 82.8008 191.188C83.8208 191.188 84.5408 191.752 84.5408 192.652C84.5408 193.66 83.8208 194.416 83.6648 194.56C82.4528 194.032 81.0968 193.66 81.0968 192.568ZM93.4222 199.144C94.8982 199.144 96.0742 198.076 96.0742 196.324C96.0742 194.728 94.9822 193.6 93.4462 193.6C92.5702 193.6 91.7182 193.984 91.3102 194.584H91.2862C91.4302 192.94 92.3302 191.2 94.0942 191.2C94.7902 191.2 95.3182 191.5 95.3182 191.5L95.6302 190.768C95.6302 190.768 95.0182 190.42 94.0822 190.42C91.4782 190.42 90.3742 193.072 90.3742 195.184C90.3742 197.464 91.5862 199.144 93.4222 199.144ZM93.4102 198.364C92.1502 198.364 91.2742 196.912 91.2742 195.784C91.2742 195.1 92.1862 194.344 93.3142 194.344C94.4662 194.344 95.2222 195.136 95.2222 196.336C95.2222 197.5 94.5502 198.364 93.4102 198.364Z" fill="#404040"/>
<path d="M47.8605 218H48.5925L49.0005 215.66H51.0765L50.6685 218H51.4005L51.8085 215.66H53.4885L53.5965 214.988H51.9285L52.3365 212.636H54.0165L54.1365 211.964H52.4565L52.8765 209.564H52.1445L51.7245 211.964H49.6485L50.0685 209.564H49.3365L48.9165 211.964H47.2125L47.1045 212.636H48.7965L48.3765 214.988H46.6845L46.5645 215.66H48.2685L47.8605 218ZM49.1205 214.988L49.5285 212.636H51.6045L51.1845 214.988H49.1205ZM55.9081 218H60.8761V217.256H56.7361V214.124H59.9401V213.38H56.7361V210.308H60.6601V209.564H55.9081V218ZM62.7636 218H63.5916V214.22H66.6876V213.476H63.5916V210.308H67.2036V209.564H62.7636V218ZM68.1116 215.66H72.3356V218H73.1636V215.66H74.3636V214.928H73.1636V209.564H72.2636L68.1116 215.12V215.66ZM69.1196 214.928V214.904L71.9276 211.244C72.1556 210.944 72.3476 210.608 72.3476 210.608H72.3716C72.3716 210.608 72.3356 211.04 72.3356 211.4V214.928H69.1196ZM75.5358 218H80.1078V217.256H78.2478V209.564H77.4798L75.5718 211.46L76.0998 212L76.9998 211.1C77.3358 210.776 77.4198 210.596 77.4198 210.596H77.4438C77.4438 210.596 77.4318 210.824 77.4318 211.064V217.256H75.5358V218ZM80.9936 216.992C80.9936 216.992 82.0136 218.144 83.6696 218.144C85.2656 218.144 86.4416 216.944 86.4416 215.504C86.4416 213.68 84.8696 213.08 83.8016 213.02L86.3216 210.116V209.564H81.3896V210.308H84.5576C85.0016 210.308 85.2416 210.272 85.2416 210.272V210.296C85.2416 210.296 85.0256 210.5 84.7976 210.764L82.6856 213.236L82.8896 213.728H83.4656C84.5696 213.728 85.5896 214.34 85.5896 215.528C85.5896 216.608 84.6656 217.352 83.6576 217.352C82.3616 217.352 81.4976 216.356 81.4976 216.356L80.9936 216.992ZM87.8399 216.944C87.8399 216.944 88.6319 218.144 90.3119 218.144C91.9559 218.144 93.2399 216.932 93.2399 215.372C93.2399 213.848 92.0279 212.624 90.3359 212.624C89.5799 212.624 89.0519 212.948 89.0519 212.948H89.0279C89.0279 212.948 89.0759 212.768 89.1119 212.468L89.3519 210.308H92.7119V209.564H88.6319L88.1759 213.656L88.7039 213.848C88.7039 213.848 89.3399 213.392 90.2399 213.392C91.4399 213.392 92.3759 214.22 92.3759 215.372C92.3759 216.524 91.4399 217.352 90.2759 217.352C88.9919 217.352 88.3679 216.368 88.3679 216.368L87.8399 216.944Z" fill="#404040"/>
<path d="M49.7565 237.144C51.9525 237.144 52.6605 235.224 52.6605 232.776C52.6605 230.352 51.9525 228.42 49.7565 228.42C47.5605 228.42 46.8405 230.352 46.8405 232.776C46.8405 235.224 47.5605 237.144 49.7565 237.144ZM49.7565 236.364C48.1485 236.364 47.7045 234.792 47.7045 232.776C47.7045 230.772 48.1485 229.2 49.7565 229.2C51.3525 229.2 51.7965 230.772 51.7965 232.776C51.7965 234.792 51.3525 236.364 49.7565 236.364ZM54.0405 235.992C54.0405 235.992 55.0605 237.144 56.7165 237.144C58.3125 237.144 59.4885 235.944 59.4885 234.504C59.4885 232.68 57.9165 232.08 56.8485 232.02L59.3685 229.116V228.564H54.4365V229.308H57.6045C58.0485 229.308 58.2885 229.272 58.2885 229.272V229.296C58.2885 229.296 58.0725 229.5 57.8445 229.764L55.7325 232.236L55.9365 232.728H56.5125C57.6165 232.728 58.6365 233.34 58.6365 234.528C58.6365 235.608 57.7125 236.352 56.7045 236.352C55.4085 236.352 54.5445 235.356 54.5445 235.356L54.0405 235.992ZM61.0068 237H66.2748V236.256H61.8708C61.8828 234.012 66.1428 233.616 66.1428 230.784C66.1428 229.464 65.1828 228.42 63.5748 228.42C61.7868 228.42 61.0188 229.944 61.0188 229.944L61.6428 230.364C61.6428 230.364 62.2908 229.212 63.5268 229.212C64.5828 229.212 65.2788 229.908 65.2788 230.832C65.2788 233.112 60.9588 233.496 60.9588 236.46C60.9588 236.628 60.9708 236.808 61.0068 237ZM67.6839 232.728C67.6839 235.188 69.4599 237.144 71.9559 237.144C74.0319 237.144 75.1839 235.836 75.1839 235.836L74.7039 235.248C74.7039 235.248 73.6719 236.376 71.9679 236.376C69.9639 236.376 68.5479 234.732 68.5479 232.716C68.5479 230.724 69.9639 229.188 71.9439 229.188C73.5279 229.188 74.5119 230.124 74.5119 230.124L74.9559 229.512C74.9559 229.512 73.9359 228.42 71.9199 228.42C69.5079 228.42 67.6839 230.28 67.6839 232.728Z" fill="#404040"/>
<path d="M1.22449 179H2.05249V175.448H4.17649L6.08449 179H7.03249L5.19649 175.604C5.06449 175.376 4.98049 175.268 4.98049 175.268V175.244C5.92849 174.98 6.57649 174.104 6.57649 172.964C6.57649 171.944 6.09649 171.14 5.30449 170.792C4.96849 170.648 4.58449 170.564 3.72049 170.564H1.22449V179ZM2.05249 174.704V171.308H3.75649C4.40449 171.308 4.70449 171.38 4.95649 171.512C5.44849 171.776 5.72449 172.292 5.72449 172.988C5.72449 174.044 5.07649 174.704 4.05649 174.704H2.05249ZM8.19564 174.776C8.19564 177.284 10.0196 179.144 12.3236 179.144C14.0996 179.144 15.0716 178.004 15.0716 178.004H15.0956C15.0956 178.004 15.0836 178.184 15.0836 178.364V179H15.8516V174.968H13.6196V175.712H15.0596V177.14C15.0596 177.14 14.0516 178.376 12.4076 178.376C10.4876 178.376 9.05964 176.84 9.05964 174.764C9.05964 172.76 10.4396 171.188 12.4796 171.188C14.0156 171.188 14.9996 172.028 14.9996 172.028L15.4436 171.404C15.4436 171.404 14.3996 170.42 12.4436 170.42C10.0196 170.42 8.19564 172.34 8.19564 174.776ZM17.8534 179H20.8294C22.2454 179 23.3614 178.136 23.3614 176.636C23.3614 175.616 22.8094 174.788 21.9454 174.548V174.524C22.5934 174.2 23.0134 173.564 23.0134 172.688C23.0134 171.368 22.0654 170.564 20.7334 170.564H17.8534V179ZM18.6814 174.224V171.308H20.7214C21.6214 171.308 22.1614 171.884 22.1614 172.748C22.1614 173.624 21.5854 174.224 20.7334 174.224H18.6814ZM18.6814 178.256V174.944H20.8294C21.8134 174.944 22.4974 175.604 22.4974 176.612C22.4974 177.62 21.8614 178.256 20.8414 178.256H18.6814Z" fill="#404040"/>
<path d="M0.660488 194.728C0.660488 197.188 2.43649 199.144 4.93249 199.144C7.00849 199.144 8.16049 197.836 8.16049 197.836L7.68049 197.248C7.68049 197.248 6.64849 198.376 4.94449 198.376C2.94049 198.376 1.52449 196.732 1.52449 194.716C1.52449 192.724 2.94049 191.188 4.92049 191.188C6.50449 191.188 7.48849 192.124 7.48849 192.124L7.93249 191.512C7.93249 191.512 6.91249 190.42 4.89649 190.42C2.48449 190.42 0.660488 192.28 0.660488 194.728ZM9.69096 199H10.519L10.987 193.096C11.023 192.64 11.011 191.896 11.011 191.896H11.035C11.035 191.896 11.299 192.676 11.491 193.096L13.471 197.428H14.251L16.231 193.096C16.423 192.664 16.675 191.92 16.675 191.92H16.699C16.699 191.92 16.687 192.64 16.723 193.096L17.191 199H18.019L17.347 190.564H16.495L14.287 195.52C14.095 195.952 13.867 196.552 13.867 196.552H13.843C13.843 196.552 13.627 195.952 13.435 195.52L11.227 190.564H10.363L9.69096 199ZM21.8917 199H22.7317V195.376L25.5637 190.564H24.6277L22.8397 193.624C22.5757 194.068 22.3237 194.632 22.3237 194.632H22.2997C22.2997 194.632 22.0357 194.056 21.7837 193.624L19.9957 190.564H19.0477L21.8917 195.376V199ZM26.9823 199H27.8103V194.968H29.2383L31.6503 199H32.6223L29.9343 194.572V194.548L32.4543 190.564H31.5063L29.2383 194.224H27.8103V190.564H26.9823V199Z" fill="#404040"/>
<path d="M1.22449 218H2.05249V214.148H6.94849V218H7.77649V209.564H6.94849V213.404H2.05249V209.564H1.22449V218ZM10.2245 218H15.1925V217.256H11.0525V214.124H14.2565V213.38H11.0525V210.308H14.9765V209.564H10.2245V218ZM16.168 218H17.128L18.856 215.096C19.12 214.652 19.372 214.148 19.372 214.148H19.396C19.396 214.148 19.66 214.652 19.924 215.084L21.676 218H22.636L19.936 213.596L22.408 209.564H21.424L19.936 212.06C19.672 212.492 19.432 213.032 19.432 213.032H19.408C19.408 213.032 19.108 212.492 18.856 212.06L17.38 209.564H16.408L18.856 213.596L16.168 218Z" fill="#404040"/>
<path d="M1.22449 237H2.05249V233.688H4.14049C5.65249 233.688 6.74449 232.68 6.74449 231.108C6.74449 229.548 5.65249 228.564 4.14049 228.564H1.22449V237ZM2.05249 232.944V229.308H4.04449C5.16049 229.308 5.89249 229.968 5.89249 231.108C5.89249 232.26 5.16049 232.944 4.03249 232.944H2.05249ZM8.13236 237H8.96036L9.42836 231.096C9.46436 230.64 9.45236 229.896 9.45236 229.896H9.47636C9.47636 229.896 9.74036 230.676 9.93236 231.096L11.9124 235.428H12.6924L14.6724 231.096C14.8644 230.664 15.1164 229.92 15.1164 229.92H15.1404C15.1404 229.92 15.1284 230.64 15.1644 231.096L15.6324 237H16.4604L15.7884 228.564H14.9364L12.7284 233.52C12.5364 233.952 12.3084 234.552 12.3084 234.552H12.2844C12.2844 234.552 12.0684 233.952 11.8764 233.52L9.66836 228.564H8.80436L8.13236 237ZM18.0146 236.064C18.0146 236.064 18.9626 237.144 20.6906 237.144C22.2746 237.144 23.2466 236.124 23.2466 234.864C23.2466 232.092 19.0346 232.668 19.0346 230.664C19.0346 229.92 19.7306 229.212 20.8106 229.212C21.9146 229.212 22.6586 229.932 22.6586 229.932L23.0666 229.236C23.0666 229.236 22.2746 228.42 20.8106 228.42C19.2506 228.42 18.1826 229.476 18.1826 230.688C18.1826 233.304 22.3946 232.764 22.3946 234.888C22.3946 235.8 21.6386 236.352 20.7146 236.352C19.3826 236.352 18.5066 235.428 18.5066 235.428L18.0146 236.064Z" fill="#404040"/>
</svg>
