<svg width="169" height="238" viewBox="0 0 169 238" fill="none" xmlns="http://www.w3.org/2000/svg">
<rect x="0.000488281" width="169" height="150" fill="#F58466"/>
<path d="M46.7685 179H52.0365V178.256H47.6325C47.6445 176.012 51.9045 175.616 51.9045 172.784C51.9045 171.464 50.9445 170.42 49.3365 170.42C47.5485 170.42 46.7805 171.944 46.7805 171.944L47.4045 172.364C47.4045 172.364 48.0525 171.212 49.2885 171.212C50.3445 171.212 51.0405 171.908 51.0405 172.832C51.0405 175.112 46.7205 175.496 46.7205 178.46C46.7205 178.628 46.7325 178.808 46.7685 179ZM52.9358 176.66H57.1598V179H57.9878V176.66H59.1878V175.928H57.9878V170.564H57.0878L52.9358 176.12V176.66ZM53.9438 175.928V175.904L56.7518 172.244C56.9798 171.944 57.1718 171.608 57.1718 171.608H57.1958C57.1958 171.608 57.1598 172.04 57.1598 172.4V175.928H53.9438ZM60.336 177.944C60.336 177.944 61.128 179.144 62.808 179.144C64.452 179.144 65.736 177.932 65.736 176.372C65.736 174.848 64.524 173.624 62.832 173.624C62.076 173.624 61.548 173.948 61.548 173.948H61.524C61.524 173.948 61.572 173.768 61.608 173.468L61.848 171.308H65.208V170.564H61.128L60.672 174.656L61.2 174.848C61.2 174.848 61.836 174.392 62.736 174.392C63.936 174.392 64.872 175.22 64.872 176.372C64.872 177.524 63.936 178.352 62.772 178.352C61.488 178.352 60.864 177.368 60.864 177.368L60.336 177.944ZM70.2741 179H74.8461V178.256H72.9861V170.564H72.2181L70.3101 172.46L70.8381 173L71.7381 172.1C72.0741 171.776 72.1581 171.596 72.1581 171.596H72.1821C72.1821 171.596 72.1701 171.824 72.1701 172.064V178.256H70.2741V179ZM75.7319 177.992C75.7319 177.992 76.7519 179.144 78.4079 179.144C80.0039 179.144 81.1799 177.944 81.1799 176.504C81.1799 174.68 79.6079 174.08 78.5399 174.02L81.0599 171.116V170.564H76.1279V171.308H79.2959C79.7399 171.308 79.9799 171.272 79.9799 171.272V171.296C79.9799 171.296 79.7639 171.5 79.5359 171.764L77.4239 174.236L77.6279 174.728H78.2039C79.3079 174.728 80.3279 175.34 80.3279 176.528C80.3279 177.608 79.4039 178.352 78.3959 178.352C77.0999 178.352 76.2359 177.356 76.2359 177.356L75.7319 177.992ZM82.6982 179H87.9662V178.256H83.5622C83.5742 176.012 87.8342 175.616 87.8342 172.784C87.8342 171.464 86.8742 170.42 85.2662 170.42C83.4782 170.42 82.7102 171.944 82.7102 171.944L83.3342 172.364C83.3342 172.364 83.9822 171.212 85.2182 171.212C86.2742 171.212 86.9702 171.908 86.9702 172.832C86.9702 175.112 82.6502 175.496 82.6502 178.46C82.6502 178.628 82.6622 178.808 82.6982 179ZM92.61 179H97.182V178.256H95.322V170.564H94.554L92.646 172.46L93.174 173L94.074 172.1C94.41 171.776 94.494 171.596 94.494 171.596H94.518C94.518 171.596 94.506 171.824 94.506 172.064V178.256H92.61V179ZM101.284 179.144C103.48 179.144 104.188 177.224 104.188 174.776C104.188 172.352 103.48 170.42 101.284 170.42C99.0878 170.42 98.3678 172.352 98.3678 174.776C98.3678 177.224 99.0878 179.144 101.284 179.144ZM101.284 178.364C99.6758 178.364 99.2318 176.792 99.2318 174.776C99.2318 172.772 99.6758 171.2 101.284 171.2C102.88 171.2 103.324 172.772 103.324 174.776C103.324 176.792 102.88 178.364 101.284 178.364ZM105.796 179H111.064V178.256H106.66C106.672 176.012 110.932 175.616 110.932 172.784C110.932 171.464 109.972 170.42 108.364 170.42C106.576 170.42 105.808 171.944 105.808 171.944L106.432 172.364C106.432 172.364 107.08 171.212 108.316 171.212C109.372 171.212 110.068 171.908 110.068 172.832C110.068 175.112 105.748 175.496 105.748 178.46C105.748 178.628 105.76 178.808 105.796 179Z" fill="#404040"/>
<path d="M49.7565 199.144C51.9525 199.144 52.6605 197.224 52.6605 194.776C52.6605 192.352 51.9525 190.42 49.7565 190.42C47.5605 190.42 46.8405 192.352 46.8405 194.776C46.8405 197.224 47.5605 199.144 49.7565 199.144ZM49.7565 198.364C48.1485 198.364 47.7045 196.792 47.7045 194.776C47.7045 192.772 48.1485 191.2 49.7565 191.2C51.3525 191.2 51.7965 192.772 51.7965 194.776C51.7965 196.792 51.3525 198.364 49.7565 198.364ZM57.1311 196.66H61.3551V199H62.1831V196.66H63.3831V195.928H62.1831V190.564H61.2831L57.1311 196.12V196.66ZM58.1391 195.928V195.904L60.9471 192.244C61.1751 191.944 61.3671 191.608 61.3671 191.608H61.3911C61.3911 191.608 61.3551 192.04 61.3551 192.4V195.928H58.1391ZM67.7113 199.144C69.1873 199.144 70.3633 198.076 70.3633 196.324C70.3633 194.728 69.2713 193.6 67.7353 193.6C66.8593 193.6 66.0073 193.984 65.5993 194.584H65.5753C65.7193 192.94 66.6193 191.2 68.3833 191.2C69.0793 191.2 69.6073 191.5 69.6073 191.5L69.9193 190.768C69.9193 190.768 69.3073 190.42 68.3713 190.42C65.7673 190.42 64.6633 193.072 64.6633 195.184C64.6633 197.464 65.8753 199.144 67.7113 199.144ZM67.6993 198.364C66.4393 198.364 65.5633 196.912 65.5633 195.784C65.5633 195.1 66.4753 194.344 67.6033 194.344C68.7553 194.344 69.5113 195.136 69.5113 196.336C69.5113 197.5 68.8393 198.364 67.6993 198.364ZM74.8907 197.944C74.8907 197.944 75.6827 199.144 77.3627 199.144C79.0067 199.144 80.2907 197.932 80.2907 196.372C80.2907 194.848 79.0787 193.624 77.3867 193.624C76.6307 193.624 76.1027 193.948 76.1027 193.948H76.0787C76.0787 193.948 76.1267 193.768 76.1627 193.468L76.4027 191.308H79.7627V190.564H75.6827L75.2267 194.656L75.7547 194.848C75.7547 194.848 76.3907 194.392 77.2907 194.392C78.4907 194.392 79.4267 195.22 79.4267 196.372C79.4267 197.524 78.4907 198.352 77.3267 198.352C76.0427 198.352 75.4187 197.368 75.4187 197.368L74.8907 197.944ZM81.7021 196.576C81.7021 198.172 83.0341 199.144 84.5581 199.144C86.1901 199.144 87.3541 198.028 87.3541 196.708C87.3541 195.832 86.8261 195.292 86.1301 194.896C86.2261 194.8 87.1621 193.816 87.1621 192.616C87.1621 191.296 86.1541 190.42 84.5821 190.42C82.8781 190.42 82.0381 191.464 82.0381 192.556C82.0381 193.36 82.4821 193.876 83.0821 194.272C82.8901 194.392 81.7021 195.22 81.7021 196.576ZM86.5021 196.696C86.5021 197.692 85.5541 198.376 84.5581 198.376C83.5381 198.376 82.5541 197.68 82.5541 196.54C82.5541 195.46 83.5021 194.788 83.7661 194.632C85.0141 195.232 86.5021 195.604 86.5021 196.696ZM82.8781 192.568C82.8781 191.812 83.5021 191.188 84.5821 191.188C85.6021 191.188 86.3221 191.752 86.3221 192.652C86.3221 193.66 85.6021 194.416 85.4461 194.56C84.2341 194.032 82.8781 193.66 82.8781 192.568ZM91.7835 196.66H96.0075V199H96.8355V196.66H98.0355V195.928H96.8355V190.564H95.9355L91.7835 196.12V196.66ZM92.7915 195.928V195.904L95.5995 192.244C95.8275 191.944 96.0195 191.608 96.0195 191.608H96.0435C96.0435 191.608 96.0075 192.04 96.0075 192.4V195.928H92.7915Z" fill="#404040"/>
<path d="M47.8605 218H48.5925L49.0005 215.66H51.0765L50.6685 218H51.4005L51.8085 215.66H53.4885L53.5965 214.988H51.9285L52.3365 212.636H54.0165L54.1365 211.964H52.4565L52.8765 209.564H52.1445L51.7245 211.964H49.6485L50.0685 209.564H49.3365L48.9165 211.964H47.2125L47.1045 212.636H48.7965L48.3765 214.988H46.6845L46.5645 215.66H48.2685L47.8605 218ZM49.1205 214.988L49.5285 212.636H51.6045L51.1845 214.988H49.1205ZM55.9081 218H56.7361V214.22H59.8321V213.476H56.7361V210.308H60.3481V209.564H55.9081V218ZM61.4961 216.944C61.4961 216.944 62.2881 218.144 63.9681 218.144C65.6121 218.144 66.8961 216.932 66.8961 215.372C66.8961 213.848 65.6841 212.624 63.9921 212.624C63.2361 212.624 62.7081 212.948 62.7081 212.948H62.6841C62.6841 212.948 62.7321 212.768 62.7681 212.468L63.0081 210.308H66.3681V209.564H62.2881L61.8321 213.656L62.3601 213.848C62.3601 213.848 62.9961 213.392 63.8961 213.392C65.0961 213.392 66.0321 214.22 66.0321 215.372C66.0321 216.524 65.0961 217.352 63.9321 217.352C62.6481 217.352 62.0241 216.368 62.0241 216.368L61.4961 216.944ZM68.3076 215.576C68.3076 217.172 69.6396 218.144 71.1636 218.144C72.7956 218.144 73.9596 217.028 73.9596 215.708C73.9596 214.832 73.4316 214.292 72.7356 213.896C72.8316 213.8 73.7676 212.816 73.7676 211.616C73.7676 210.296 72.7596 209.42 71.1876 209.42C69.4836 209.42 68.6436 210.464 68.6436 211.556C68.6436 212.36 69.0876 212.876 69.6876 213.272C69.4956 213.392 68.3076 214.22 68.3076 215.576ZM73.1076 215.696C73.1076 216.692 72.1596 217.376 71.1636 217.376C70.1436 217.376 69.1596 216.68 69.1596 215.54C69.1596 214.46 70.1076 213.788 70.3716 213.632C71.6196 214.232 73.1076 214.604 73.1076 215.696ZM69.4836 211.568C69.4836 210.812 70.1076 210.188 71.1876 210.188C72.2076 210.188 72.9276 210.752 72.9276 211.652C72.9276 212.66 72.2076 213.416 72.0516 213.56C70.8396 213.032 69.4836 212.66 69.4836 211.568ZM75.1663 215.66H79.3903V218H80.2183V215.66H81.4183V214.928H80.2183V209.564H79.3183L75.1663 215.12V215.66ZM76.1743 214.928V214.904L78.9823 211.244C79.2103 210.944 79.4023 210.608 79.4023 210.608H79.4263C79.4263 210.608 79.3903 211.04 79.3903 211.4V214.928H76.1743ZM85.7465 218.144C87.2225 218.144 88.3985 217.076 88.3985 215.324C88.3985 213.728 87.3065 212.6 85.7705 212.6C84.8945 212.6 84.0425 212.984 83.6345 213.584H83.6105C83.7545 211.94 84.6545 210.2 86.4185 210.2C87.1145 210.2 87.6425 210.5 87.6425 210.5L87.9545 209.768C87.9545 209.768 87.3425 209.42 86.4065 209.42C83.8025 209.42 82.6985 212.072 82.6985 214.184C82.6985 216.464 83.9105 218.144 85.7465 218.144ZM85.7345 217.364C84.4745 217.364 83.5985 215.912 83.5985 214.784C83.5985 214.1 84.5105 213.344 85.6385 213.344C86.7905 213.344 87.5465 214.136 87.5465 215.336C87.5465 216.5 86.8745 217.364 85.7345 217.364ZM92.8832 218.144C94.3592 218.144 95.5352 217.076 95.5352 215.324C95.5352 213.728 94.4432 212.6 92.9072 212.6C92.0312 212.6 91.1792 212.984 90.7712 213.584H90.7472C90.8912 211.94 91.7912 210.2 93.5552 210.2C94.2512 210.2 94.7792 210.5 94.7792 210.5L95.0912 209.768C95.0912 209.768 94.4792 209.42 93.5432 209.42C90.9392 209.42 89.8352 212.072 89.8352 214.184C89.8352 216.464 91.0472 218.144 92.8832 218.144ZM92.8712 217.364C91.6112 217.364 90.7352 215.912 90.7352 214.784C90.7352 214.1 91.6472 213.344 92.7752 213.344C93.9272 213.344 94.6832 214.136 94.6832 215.336C94.6832 216.5 94.0112 217.364 92.8712 217.364Z" fill="#404040"/>
<path d="M47.1645 237H48.0285L51.9405 229.14V228.564H46.4565V229.308H50.4045C50.8245 229.308 51.0405 229.284 51.0405 229.284V229.308C51.0405 229.308 50.8005 229.632 50.5725 230.088L47.1645 237ZM52.3616 234.66H56.5856V237H57.4136V234.66H58.6136V233.928H57.4136V228.564H56.5136L52.3616 234.12V234.66ZM53.3696 233.928V233.904L56.1776 230.244C56.4056 229.944 56.5976 229.608 56.5976 229.608H56.6216C56.6216 229.608 56.5856 230.04 56.5856 230.4V233.928H53.3696ZM59.7858 237H64.3578V236.256H62.4978V228.564H61.7298L59.8218 230.46L60.3498 231L61.2498 230.1C61.5858 229.776 61.6698 229.596 61.6698 229.596H61.6938C61.6938 229.596 61.6818 229.824 61.6818 230.064V236.256H59.7858V237ZM68.5316 237.144C70.0076 237.144 71.1836 236.076 71.1836 234.324C71.1836 232.728 70.0916 231.6 68.5556 231.6C67.6796 231.6 66.8276 231.984 66.4196 232.584H66.3956C66.5396 230.94 67.4396 229.2 69.2036 229.2C69.8996 229.2 70.4276 229.5 70.4276 229.5L70.7396 228.768C70.7396 228.768 70.1276 228.42 69.1916 228.42C66.5876 228.42 65.4836 231.072 65.4836 233.184C65.4836 235.464 66.6956 237.144 68.5316 237.144ZM68.5196 236.364C67.2596 236.364 66.3836 234.912 66.3836 233.784C66.3836 233.1 67.2956 232.344 68.4236 232.344C69.5756 232.344 70.3316 233.136 70.3316 234.336C70.3316 235.5 69.6596 236.364 68.5196 236.364ZM72.5003 232.728C72.5003 235.188 74.2763 237.144 76.7723 237.144C78.8483 237.144 80.0003 235.836 80.0003 235.836L79.5203 235.248C79.5203 235.248 78.4883 236.376 76.7843 236.376C74.7803 236.376 73.3643 234.732 73.3643 232.716C73.3643 230.724 74.7803 229.188 76.7603 229.188C78.3443 229.188 79.3283 230.124 79.3283 230.124L79.7723 229.512C79.7723 229.512 78.7523 228.42 76.7363 228.42C74.3243 228.42 72.5003 230.28 72.5003 232.728Z" fill="#404040"/>
<path d="M1.22449 179H2.05249V175.448H4.17649L6.08449 179H7.03249L5.19649 175.604C5.06449 175.376 4.98049 175.268 4.98049 175.268V175.244C5.92849 174.98 6.57649 174.104 6.57649 172.964C6.57649 171.944 6.09649 171.14 5.30449 170.792C4.96849 170.648 4.58449 170.564 3.72049 170.564H1.22449V179ZM2.05249 174.704V171.308H3.75649C4.40449 171.308 4.70449 171.38 4.95649 171.512C5.44849 171.776 5.72449 172.292 5.72449 172.988C5.72449 174.044 5.07649 174.704 4.05649 174.704H2.05249ZM8.19564 174.776C8.19564 177.284 10.0196 179.144 12.3236 179.144C14.0996 179.144 15.0716 178.004 15.0716 178.004H15.0956C15.0956 178.004 15.0836 178.184 15.0836 178.364V179H15.8516V174.968H13.6196V175.712H15.0596V177.14C15.0596 177.14 14.0516 178.376 12.4076 178.376C10.4876 178.376 9.05964 176.84 9.05964 174.764C9.05964 172.76 10.4396 171.188 12.4796 171.188C14.0156 171.188 14.9996 172.028 14.9996 172.028L15.4436 171.404C15.4436 171.404 14.3996 170.42 12.4436 170.42C10.0196 170.42 8.19564 172.34 8.19564 174.776ZM17.8534 179H20.8294C22.2454 179 23.3614 178.136 23.3614 176.636C23.3614 175.616 22.8094 174.788 21.9454 174.548V174.524C22.5934 174.2 23.0134 173.564 23.0134 172.688C23.0134 171.368 22.0654 170.564 20.7334 170.564H17.8534V179ZM18.6814 174.224V171.308H20.7214C21.6214 171.308 22.1614 171.884 22.1614 172.748C22.1614 173.624 21.5854 174.224 20.7334 174.224H18.6814ZM18.6814 178.256V174.944H20.8294C21.8134 174.944 22.4974 175.604 22.4974 176.612C22.4974 177.62 21.8614 178.256 20.8414 178.256H18.6814Z" fill="#404040"/>
<path d="M0.660488 194.728C0.660488 197.188 2.43649 199.144 4.93249 199.144C7.00849 199.144 8.16049 197.836 8.16049 197.836L7.68049 197.248C7.68049 197.248 6.64849 198.376 4.94449 198.376C2.94049 198.376 1.52449 196.732 1.52449 194.716C1.52449 192.724 2.94049 191.188 4.92049 191.188C6.50449 191.188 7.48849 192.124 7.48849 192.124L7.93249 191.512C7.93249 191.512 6.91249 190.42 4.89649 190.42C2.48449 190.42 0.660488 192.28 0.660488 194.728ZM9.69096 199H10.519L10.987 193.096C11.023 192.64 11.011 191.896 11.011 191.896H11.035C11.035 191.896 11.299 192.676 11.491 193.096L13.471 197.428H14.251L16.231 193.096C16.423 192.664 16.675 191.92 16.675 191.92H16.699C16.699 191.92 16.687 192.64 16.723 193.096L17.191 199H18.019L17.347 190.564H16.495L14.287 195.52C14.095 195.952 13.867 196.552 13.867 196.552H13.843C13.843 196.552 13.627 195.952 13.435 195.52L11.227 190.564H10.363L9.69096 199ZM21.8917 199H22.7317V195.376L25.5637 190.564H24.6277L22.8397 193.624C22.5757 194.068 22.3237 194.632 22.3237 194.632H22.2997C22.2997 194.632 22.0357 194.056 21.7837 193.624L19.9957 190.564H19.0477L21.8917 195.376V199ZM26.9823 199H27.8103V194.968H29.2383L31.6503 199H32.6223L29.9343 194.572V194.548L32.4543 190.564H31.5063L29.2383 194.224H27.8103V190.564H26.9823V199Z" fill="#404040"/>
<path d="M1.22449 218H2.05249V214.148H6.94849V218H7.77649V209.564H6.94849V213.404H2.05249V209.564H1.22449V218ZM10.2245 218H15.1925V217.256H11.0525V214.124H14.2565V213.38H11.0525V210.308H14.9765V209.564H10.2245V218ZM16.168 218H17.128L18.856 215.096C19.12 214.652 19.372 214.148 19.372 214.148H19.396C19.396 214.148 19.66 214.652 19.924 215.084L21.676 218H22.636L19.936 213.596L22.408 209.564H21.424L19.936 212.06C19.672 212.492 19.432 213.032 19.432 213.032H19.408C19.408 213.032 19.108 212.492 18.856 212.06L17.38 209.564H16.408L18.856 213.596L16.168 218Z" fill="#404040"/>
<path d="M1.22449 237H2.05249V233.688H4.14049C5.65249 233.688 6.74449 232.68 6.74449 231.108C6.74449 229.548 5.65249 228.564 4.14049 228.564H1.22449V237ZM2.05249 232.944V229.308H4.04449C5.16049 229.308 5.89249 229.968 5.89249 231.108C5.89249 232.26 5.16049 232.944 4.03249 232.944H2.05249ZM8.13236 237H8.96036L9.42836 231.096C9.46436 230.64 9.45236 229.896 9.45236 229.896H9.47636C9.47636 229.896 9.74036 230.676 9.93236 231.096L11.9124 235.428H12.6924L14.6724 231.096C14.8644 230.664 15.1164 229.92 15.1164 229.92H15.1404C15.1404 229.92 15.1284 230.64 15.1644 231.096L15.6324 237H16.4604L15.7884 228.564H14.9364L12.7284 233.52C12.5364 233.952 12.3084 234.552 12.3084 234.552H12.2844C12.2844 234.552 12.0684 233.952 11.8764 233.52L9.66836 228.564H8.80436L8.13236 237ZM18.0146 236.064C18.0146 236.064 18.9626 237.144 20.6906 237.144C22.2746 237.144 23.2466 236.124 23.2466 234.864C23.2466 232.092 19.0346 232.668 19.0346 230.664C19.0346 229.92 19.7306 229.212 20.8106 229.212C21.9146 229.212 22.6586 229.932 22.6586 229.932L23.0666 229.236C23.0666 229.236 22.2746 228.42 20.8106 228.42C19.2506 228.42 18.1826 229.476 18.1826 230.688C18.1826 233.304 22.3946 232.764 22.3946 234.888C22.3946 235.8 21.6386 236.352 20.7146 236.352C19.3826 236.352 18.5066 235.428 18.5066 235.428L18.0146 236.064Z" fill="#404040"/>
</svg>
