<svg width="50" height="50" viewBox="0 0 50 50" fill="none" xmlns="http://www.w3.org/2000/svg">
<g clip-path="url(#clip0)">
<path d="M22.9166 37.5C22.9166 38.65 23.85 39.5834 25 39.5834C26.15 39.5834 27.0833 38.65 27.0833 37.5V12.5C27.0833 11.35 26.15 10.4167 25 10.4167C23.85 10.4167 22.9166 11.35 22.9166 12.5V37.5Z" fill="#F98731"/>
<path d="M2.08333 12.5C0.933329 12.5 0 13.4333 0 14.5833V35.4167C0 36.5667 0.933329 37.5 2.08333 37.5C3.23334 37.5 4.16667 36.5667 4.16667 35.4167V14.5833C4.16667 13.4333 3.23334 12.5 2.08333 12.5Z" fill="#F98731"/>
<path d="M19.7917 33.3333V16.6666C19.7917 15.5166 18.8583 14.5833 17.7083 14.5833C16.5583 14.5833 15.625 15.5166 15.625 16.6666V33.3333C15.625 34.4833 16.5583 35.4166 17.7083 35.4166C18.8583 35.4166 19.7917 34.4833 19.7917 33.3333Z" fill="#F98731"/>
<path d="M10.4167 31.25C11.5667 31.25 12.5 30.3167 12.5 29.1667V20.8333C12.5 19.6833 11.5667 18.75 10.4167 18.75C9.2667 18.75 8.33337 19.6833 8.33337 20.8333V29.1667C8.33337 30.3167 9.2667 31.25 10.4167 31.25Z" fill="#F98731"/>
<path d="M34.375 33.3333V16.6666C34.375 15.5166 33.4417 14.5833 32.2917 14.5833C31.1417 14.5833 30.2084 15.5166 30.2084 16.6666V33.3333C30.2084 34.4833 31.1417 35.4166 32.2917 35.4166C33.4417 35.4166 34.375 34.4833 34.375 33.3333Z" fill="#F98731"/>
<path d="M47.9167 12.5C46.7667 12.5 45.8334 13.4333 45.8334 14.5833V35.4167C45.8334 36.5667 46.7667 37.5 47.9167 37.5C49.0667 37.5 50 36.5667 50 35.4167V14.5833C50 13.4333 49.0667 12.5 47.9167 12.5Z" fill="#F98731"/>
<path d="M39.5833 18.75C38.4333 18.75 37.5 19.6833 37.5 20.8333V29.1667C37.5 30.3167 38.4333 31.25 39.5833 31.25C40.7333 31.25 41.6667 30.3167 41.6667 29.1667V20.8333C41.6667 19.6833 40.7333 18.75 39.5833 18.75Z" fill="#F98731"/>
<path d="M22.9166 47.9167C22.9166 49.0667 23.85 50 25 50C26.15 50 27.0833 49.0667 27.0833 47.9167V45.8333C27.0833 44.6833 26.15 43.75 25 43.75C23.85 43.75 22.9166 44.6833 22.9166 45.8333V47.9167Z" fill="#F98731"/>
<path d="M25 6.25C26.15 6.25 27.0833 5.31667 27.0833 4.16667V2.08333C27.0833 0.933329 26.15 0 25 0C23.85 0 22.9166 0.933329 22.9166 2.08333V4.16667C22.9166 5.31667 23.85 6.25 25 6.25Z" fill="#F98731"/>
</g>
<defs>
<clipPath id="clip0">
<rect width="50" height="50" fill="white"/>
</clipPath>
</defs>
</svg>
