<svg width="169" height="229" viewBox="0 0 169 229" fill="none" xmlns="http://www.w3.org/2000/svg">
<rect width="169" height="150" fill="#00A891"/>
<path d="M49.756 189.144C51.952 189.144 52.66 187.224 52.66 184.776C52.66 182.352 51.952 180.42 49.756 180.42C47.56 180.42 46.84 182.352 46.84 184.776C46.84 187.224 47.56 189.144 49.756 189.144ZM49.756 188.364C48.148 188.364 47.704 186.792 47.704 184.776C47.704 182.772 48.148 181.2 49.756 181.2C51.352 181.2 51.796 182.772 51.796 184.776C51.796 186.792 51.352 188.364 49.756 188.364ZM57.3947 189H61.9667V188.256H60.1067V180.564H59.3387L57.4307 182.46L57.9587 183L58.8587 182.1C59.1947 181.776 59.2787 181.596 59.2787 181.596H59.3027C59.3027 181.596 59.2907 181.824 59.2907 182.064V188.256H57.3947V189ZM66.1405 189.144C67.6165 189.144 68.7925 188.076 68.7925 186.324C68.7925 184.728 67.7005 183.6 66.1645 183.6C65.2885 183.6 64.4365 183.984 64.0285 184.584H64.0045C64.1485 182.94 65.0485 181.2 66.8125 181.2C67.5085 181.2 68.0365 181.5 68.0365 181.5L68.3485 180.768C68.3485 180.768 67.7365 180.42 66.8005 180.42C64.1965 180.42 63.0925 183.072 63.0925 185.184C63.0925 187.464 64.3045 189.144 66.1405 189.144ZM66.1285 188.364C64.8685 188.364 63.9925 186.912 63.9925 185.784C63.9925 185.1 64.9045 184.344 66.0325 184.344C67.1845 184.344 67.9405 185.136 67.9405 186.336C67.9405 187.5 67.2685 188.364 66.1285 188.364ZM70.2172 186.576C70.2172 188.172 71.5492 189.144 73.0732 189.144C74.7052 189.144 75.8692 188.028 75.8692 186.708C75.8692 185.832 75.3412 185.292 74.6452 184.896C74.7412 184.8 75.6772 183.816 75.6772 182.616C75.6772 181.296 74.6692 180.42 73.0972 180.42C71.3932 180.42 70.5532 181.464 70.5532 182.556C70.5532 183.36 70.9972 183.876 71.5972 184.272C71.4052 184.392 70.2172 185.22 70.2172 186.576ZM75.0172 186.696C75.0172 187.692 74.0692 188.376 73.0732 188.376C72.0532 188.376 71.0692 187.68 71.0692 186.54C71.0692 185.46 72.0172 184.788 72.2812 184.632C73.5292 185.232 75.0172 185.604 75.0172 186.696ZM71.3932 182.568C71.3932 181.812 72.0172 181.188 73.0972 181.188C74.1172 181.188 74.8372 181.752 74.8372 182.652C74.8372 183.66 74.1172 184.416 73.9612 184.56C72.7492 184.032 71.3932 183.66 71.3932 182.568ZM80.5626 189H85.1346V188.256H83.2746V180.564H82.5066L80.5986 182.46L81.1266 183L82.0266 182.1C82.3626 181.776 82.4466 181.596 82.4466 181.596H82.4706C82.4706 181.596 82.4586 181.824 82.4586 182.064V188.256H80.5626V189ZM85.6893 186.66H89.9133V189H90.7413V186.66H91.9413V185.928H90.7413V180.564H89.8413L85.6893 186.12V186.66ZM86.6973 185.928V185.904L89.5053 182.244C89.7333 181.944 89.9253 181.608 89.9253 181.608H89.9493C89.9493 181.608 89.9133 182.04 89.9133 182.4V185.928H86.6973ZM93.0894 187.944C93.0894 187.944 93.8814 189.144 95.5614 189.144C97.2054 189.144 98.4894 187.932 98.4894 186.372C98.4894 184.848 97.2774 183.624 95.5854 183.624C94.8294 183.624 94.3014 183.948 94.3014 183.948H94.2774C94.2774 183.948 94.3254 183.768 94.3614 183.468L94.6014 181.308H97.9614V180.564H93.8814L93.4254 184.656L93.9534 184.848C93.9534 184.848 94.5894 184.392 95.4894 184.392C96.6894 184.392 97.6254 185.22 97.6254 186.372C97.6254 187.524 96.6894 188.352 95.5254 188.352C94.2414 188.352 93.6174 187.368 93.6174 187.368L93.0894 187.944Z" fill="#404040"/>
<path d="M46.672 209H51.244V208.256H49.384V200.564H48.616L46.708 202.46L47.236 203L48.136 202.1C48.472 201.776 48.556 201.596 48.556 201.596H48.58C48.58 201.596 48.568 201.824 48.568 202.064V208.256H46.672V209ZM55.3458 209.144C57.5418 209.144 58.2498 207.224 58.2498 204.776C58.2498 202.352 57.5418 200.42 55.3458 200.42C53.1498 200.42 52.4298 202.352 52.4298 204.776C52.4298 207.224 53.1498 209.144 55.3458 209.144ZM55.3458 208.364C53.7378 208.364 53.2938 206.792 53.2938 204.776C53.2938 202.772 53.7378 201.2 55.3458 201.2C56.9418 201.2 57.3858 202.772 57.3858 204.776C57.3858 206.792 56.9418 208.364 55.3458 208.364ZM62.8458 209.144C65.0418 209.144 65.7498 207.224 65.7498 204.776C65.7498 202.352 65.0418 200.42 62.8458 200.42C60.6498 200.42 59.9298 202.352 59.9298 204.776C59.9298 207.224 60.6498 209.144 62.8458 209.144ZM62.8458 208.364C61.2378 208.364 60.7938 206.792 60.7938 204.776C60.7938 202.772 61.2378 201.2 62.8458 201.2C64.4418 201.2 64.8858 202.772 64.8858 204.776C64.8858 206.792 64.4418 208.364 62.8458 208.364ZM73.5685 209.144C75.7645 209.144 76.4725 207.224 76.4725 204.776C76.4725 202.352 75.7645 200.42 73.5685 200.42C71.3725 200.42 70.6525 202.352 70.6525 204.776C70.6525 207.224 71.3725 209.144 73.5685 209.144ZM73.5685 208.364C71.9605 208.364 71.5165 206.792 71.5165 204.776C71.5165 202.772 71.9605 201.2 73.5685 201.2C75.1645 201.2 75.6085 202.772 75.6085 204.776C75.6085 206.792 75.1645 208.364 73.5685 208.364ZM81.2072 209H85.7792V208.256H83.9192V200.564H83.1512L81.2432 202.46L81.7712 203L82.6712 202.1C83.0072 201.776 83.0912 201.596 83.0912 201.596H83.1152C83.1152 201.596 83.1032 201.824 83.1032 202.064V208.256H81.2072V209ZM86.3338 206.66H90.5578V209H91.3858V206.66H92.5858V205.928H91.3858V200.564H90.4858L86.3338 206.12V206.66ZM87.3418 205.928V205.904L90.1498 202.244C90.3778 201.944 90.5698 201.608 90.5698 201.608H90.5938C90.5938 201.608 90.5578 202.04 90.5578 202.4V205.928H87.3418ZM96.8486 207.992C96.8486 207.992 97.8686 209.144 99.5246 209.144C101.121 209.144 102.297 207.944 102.297 206.504C102.297 204.68 100.725 204.08 99.6566 204.02L102.177 201.116V200.564H97.2446V201.308H100.413C100.857 201.308 101.097 201.272 101.097 201.272V201.296C101.097 201.296 100.881 201.5 100.653 201.764L98.5406 204.236L98.7446 204.728H99.3206C100.425 204.728 101.445 205.34 101.445 206.528C101.445 207.608 100.521 208.352 99.5126 208.352C98.2166 208.352 97.3526 207.356 97.3526 207.356L96.8486 207.992ZM103.455 206.66H107.679V209H108.507V206.66H109.707V205.928H108.507V200.564H107.607L103.455 206.12V206.66ZM104.463 205.928V205.904L107.271 202.244C107.499 201.944 107.691 201.608 107.691 201.608H107.715C107.715 201.608 107.679 202.04 107.679 202.4V205.928H104.463Z" fill="#404040"/>
<path d="M47.86 228H48.592L49 225.66H51.076L50.668 228H51.4L51.808 225.66H53.488L53.596 224.988H51.928L52.336 222.636H54.016L54.136 221.964H52.456L52.876 219.564H52.144L51.724 221.964H49.648L50.068 219.564H49.336L48.916 221.964H47.212L47.104 222.636H48.796L48.376 224.988H46.684L46.564 225.66H48.268L47.86 228ZM49.12 224.988L49.528 222.636H51.604L51.184 224.988H49.12ZM58.4396 228.144C60.6356 228.144 61.3436 226.224 61.3436 223.776C61.3436 221.352 60.6356 219.42 58.4396 219.42C56.2436 219.42 55.5236 221.352 55.5236 223.776C55.5236 226.224 56.2436 228.144 58.4396 228.144ZM58.4396 227.364C56.8316 227.364 56.3876 225.792 56.3876 223.776C56.3876 221.772 56.8316 220.2 58.4396 220.2C60.0356 220.2 60.4796 221.772 60.4796 223.776C60.4796 225.792 60.0356 227.364 58.4396 227.364ZM65.9396 228.144C68.1356 228.144 68.8436 226.224 68.8436 223.776C68.8436 221.352 68.1356 219.42 65.9396 219.42C63.7436 219.42 63.0236 221.352 63.0236 223.776C63.0236 226.224 63.7436 228.144 65.9396 228.144ZM65.9396 227.364C64.3316 227.364 63.8876 225.792 63.8876 223.776C63.8876 221.772 64.3316 220.2 65.9396 220.2C67.5356 220.2 67.9796 221.772 67.9796 223.776C67.9796 225.792 67.5356 227.364 65.9396 227.364ZM76.0436 228H76.9196L73.8236 219.564H72.9356L69.8396 228H70.7156L71.6756 225.312H75.0716L76.0436 228ZM73.3916 220.44C73.3916 220.44 73.5716 221.136 73.7156 221.532L74.8196 224.592H71.9156L73.0436 221.532C73.1876 221.136 73.3676 220.44 73.3676 220.44H73.3916ZM77.8461 225.576C77.8461 227.172 79.1781 228.144 80.7021 228.144C82.3341 228.144 83.4981 227.028 83.4981 225.708C83.4981 224.832 82.9701 224.292 82.2741 223.896C82.3701 223.8 83.3061 222.816 83.3061 221.616C83.3061 220.296 82.2981 219.42 80.7261 219.42C79.0221 219.42 78.1821 220.464 78.1821 221.556C78.1821 222.36 78.6261 222.876 79.2261 223.272C79.0341 223.392 77.8461 224.22 77.8461 225.576ZM82.6461 225.696C82.6461 226.692 81.6981 227.376 80.7021 227.376C79.6821 227.376 78.6981 226.68 78.6981 225.54C78.6981 224.46 79.6461 223.788 79.9101 223.632C81.1581 224.232 82.6461 224.604 82.6461 225.696ZM79.0221 221.568C79.0221 220.812 79.6461 220.188 80.7261 220.188C81.7461 220.188 82.4661 220.752 82.4661 221.652C82.4661 222.66 81.7461 223.416 81.5901 223.56C80.3781 223.032 79.0221 222.66 79.0221 221.568ZM86.9369 228.144C89.5529 228.144 90.6449 225.492 90.6449 223.38C90.6449 221.1 89.4329 219.42 87.5969 219.42C86.1209 219.42 84.9569 220.488 84.9569 222.24C84.9569 223.836 86.0369 224.964 87.5729 224.964C88.4489 224.964 89.3009 224.58 89.7209 223.98H89.7449C89.5889 225.624 88.7009 227.364 86.9249 227.364C86.2289 227.364 85.7009 227.064 85.7009 227.064L85.3889 227.796C85.3889 227.796 86.0129 228.144 86.9369 228.144ZM87.7049 224.22C86.5529 224.22 85.7969 223.428 85.7969 222.228C85.7969 221.064 86.4689 220.2 87.6089 220.2C88.8689 220.2 89.7449 221.652 89.7449 222.78C89.7449 223.464 88.8449 224.22 87.7049 224.22ZM92.0939 228H96.6659V227.256H94.8059V219.564H94.0379L92.1299 221.46L92.6579 222L93.5579 221.1C93.8939 220.776 93.9779 220.596 93.9779 220.596H94.0019C94.0019 220.596 93.9899 220.824 93.9899 221.064V227.256H92.0939V228Z" fill="#404040"/>
<path d="M1.224 189H2.052V185.448H4.176L6.084 189H7.032L5.196 185.604C5.064 185.376 4.98 185.268 4.98 185.268V185.244C5.928 184.98 6.576 184.104 6.576 182.964C6.576 181.944 6.096 181.14 5.304 180.792C4.968 180.648 4.584 180.564 3.72 180.564H1.224V189ZM2.052 184.704V181.308H3.756C4.404 181.308 4.704 181.38 4.956 181.512C5.448 181.776 5.724 182.292 5.724 182.988C5.724 184.044 5.076 184.704 4.056 184.704H2.052ZM8.19516 184.776C8.19516 187.284 10.0192 189.144 12.3232 189.144C14.0992 189.144 15.0712 188.004 15.0712 188.004H15.0952C15.0952 188.004 15.0832 188.184 15.0832 188.364V189H15.8512V184.968H13.6192V185.712H15.0592V187.14C15.0592 187.14 14.0512 188.376 12.4072 188.376C10.4872 188.376 9.05916 186.84 9.05916 184.764C9.05916 182.76 10.4392 181.188 12.4792 181.188C14.0152 181.188 14.9992 182.028 14.9992 182.028L15.4432 181.404C15.4432 181.404 14.3992 180.42 12.4432 180.42C10.0192 180.42 8.19516 182.34 8.19516 184.776ZM17.8529 189H20.8289C22.2449 189 23.3609 188.136 23.3609 186.636C23.3609 185.616 22.8089 184.788 21.9449 184.548V184.524C22.5929 184.2 23.0129 183.564 23.0129 182.688C23.0129 181.368 22.0649 180.564 20.7329 180.564H17.8529V189ZM18.6809 184.224V181.308H20.7209C21.6209 181.308 22.1609 181.884 22.1609 182.748C22.1609 183.624 21.5849 184.224 20.7329 184.224H18.6809ZM18.6809 188.256V184.944H20.8289C21.8129 184.944 22.4969 185.604 22.4969 186.612C22.4969 187.62 21.8609 188.256 20.8409 188.256H18.6809Z" fill="#404040"/>
<path d="M0.66 204.728C0.66 207.188 2.436 209.144 4.932 209.144C7.008 209.144 8.16 207.836 8.16 207.836L7.68 207.248C7.68 207.248 6.648 208.376 4.944 208.376C2.94 208.376 1.524 206.732 1.524 204.716C1.524 202.724 2.94 201.188 4.92 201.188C6.504 201.188 7.488 202.124 7.488 202.124L7.932 201.512C7.932 201.512 6.912 200.42 4.896 200.42C2.484 200.42 0.66 202.28 0.66 204.728ZM9.69047 209H10.5185L10.9865 203.096C11.0225 202.64 11.0105 201.896 11.0105 201.896H11.0345C11.0345 201.896 11.2985 202.676 11.4905 203.096L13.4705 207.428H14.2505L16.2305 203.096C16.4225 202.664 16.6745 201.92 16.6745 201.92H16.6985C16.6985 201.92 16.6865 202.64 16.7225 203.096L17.1905 209H18.0185L17.3465 200.564H16.4945L14.2865 205.52C14.0945 205.952 13.8665 206.552 13.8665 206.552H13.8425C13.8425 206.552 13.6265 205.952 13.4345 205.52L11.2265 200.564H10.3625L9.69047 209ZM21.8912 209H22.7312V205.376L25.5632 200.564H24.6272L22.8392 203.624C22.5752 204.068 22.3232 204.632 22.3232 204.632H22.2992C22.2992 204.632 22.0352 204.056 21.7832 203.624L19.9952 200.564H19.0472L21.8912 205.376V209ZM26.9818 209H27.8098V204.968H29.2378L31.6498 209H32.6218L29.9338 204.572V204.548L32.4538 200.564H31.5058L29.2378 204.224H27.8098V200.564H26.9818V209Z" fill="#404040"/>
<path d="M1.224 228H2.052V224.148H6.948V228H7.776V219.564H6.948V223.404H2.052V219.564H1.224V228ZM10.224 228H15.192V227.256H11.052V224.124H14.256V223.38H11.052V220.308H14.976V219.564H10.224V228ZM16.1675 228H17.1275L18.8555 225.096C19.1195 224.652 19.3715 224.148 19.3715 224.148H19.3955C19.3955 224.148 19.6595 224.652 19.9235 225.084L21.6755 228H22.6355L19.9355 223.596L22.4075 219.564H21.4235L19.9355 222.06C19.6715 222.492 19.4315 223.032 19.4315 223.032H19.4075C19.4075 223.032 19.1075 222.492 18.8555 222.06L17.3795 219.564H16.4075L18.8555 223.596L16.1675 228Z" fill="#404040"/>
</svg>
