<svg width="337" height="293" viewBox="0 0 337 293" fill="none" xmlns="http://www.w3.org/2000/svg">
<path d="M257.784 219H263.468V217.796H261.312V209.116H260.08L257.714 211.412L258.554 212.28L259.478 211.37C259.842 211.02 259.954 210.796 259.954 210.796H259.982C259.982 210.796 259.968 211.104 259.968 211.412V217.796H257.784V219ZM265.054 219H266.482L270.948 210.068V209.116H264.34V210.32H268.75C269.254 210.32 269.478 210.278 269.478 210.278V210.306C269.478 210.306 269.184 210.656 268.904 211.216L265.054 219ZM271.393 216.354H276.181V219H277.539V216.354H278.883V215.178H277.539V209.116H275.957L271.393 215.486V216.354ZM272.919 215.178V215.15L275.719 211.412C275.985 211.062 276.209 210.6 276.209 210.6H276.237C276.237 210.6 276.181 211.118 276.181 211.58V215.178H272.919ZM283.885 219H290.255V217.796H285.355C285.383 215.542 290.101 215.038 290.101 211.79C290.101 210.082 288.799 208.948 286.979 208.948C284.753 208.948 283.857 210.824 283.857 210.824L284.879 211.51C284.879 211.51 285.579 210.25 286.881 210.25C287.917 210.25 288.659 210.908 288.659 211.888C288.659 214.212 283.815 214.716 283.815 218.244C283.815 218.482 283.843 218.734 283.885 219ZM291.897 219H298.267V217.796H293.367C293.395 215.542 298.113 215.038 298.113 211.79C298.113 210.082 296.811 208.948 294.991 208.948C292.765 208.948 291.869 210.824 291.869 210.824L292.891 211.51C292.891 211.51 293.591 210.25 294.893 210.25C295.929 210.25 296.671 210.908 296.671 211.888C296.671 214.212 291.827 214.716 291.827 218.244C291.827 218.482 291.855 218.734 291.897 219ZM299.628 217.824C299.628 217.824 300.818 219.168 302.834 219.168C304.864 219.168 306.194 217.684 306.194 215.99C306.194 214.072 304.598 213.232 303.296 213.092L305.984 209.998V209.116H300.076V210.32H303.422C303.968 210.32 304.262 210.278 304.262 210.278V210.306C304.262 210.306 303.968 210.572 303.646 210.95L301.49 213.484L301.812 214.226H302.498C303.716 214.226 304.794 214.828 304.794 216.046C304.794 217.11 303.884 217.852 302.778 217.852C301.35 217.852 300.384 216.774 300.384 216.774L299.628 217.824ZM311.447 219H317.817V217.796H312.917C312.945 215.542 317.663 215.038 317.663 211.79C317.663 210.082 316.361 208.948 314.541 208.948C312.315 208.948 311.419 210.824 311.419 210.824L312.441 211.51C312.441 211.51 313.141 210.25 314.443 210.25C315.479 210.25 316.221 210.908 316.221 211.888C316.221 214.212 311.377 214.716 311.377 218.244C311.377 218.482 311.405 218.734 311.447 219ZM319.459 219H325.829V217.796H320.929C320.957 215.542 325.675 215.038 325.675 211.79C325.675 210.082 324.373 208.948 322.553 208.948C320.327 208.948 319.431 210.824 319.431 210.824L320.453 211.51C320.453 211.51 321.153 210.25 322.455 210.25C323.491 210.25 324.233 210.908 324.233 211.888C324.233 214.212 319.389 214.716 319.389 218.244C319.389 218.482 319.417 218.734 319.459 219ZM327.835 219H329.263L333.729 210.068V209.116H327.121V210.32H331.531C332.035 210.32 332.259 210.278 332.259 210.278V210.306C332.259 210.306 331.965 210.656 331.685 211.216L327.835 219Z" fill="#404040"/>
<path d="M257.84 240H264.21V238.796H259.31C259.338 236.542 264.056 236.038 264.056 232.79C264.056 231.082 262.754 229.948 260.934 229.948C258.708 229.948 257.812 231.824 257.812 231.824L258.834 232.51C258.834 232.51 259.534 231.25 260.836 231.25C261.872 231.25 262.614 231.908 262.614 232.888C262.614 235.212 257.77 235.716 257.77 239.244C257.77 239.482 257.798 239.734 257.84 240ZM265.572 238.824C265.572 238.824 266.762 240.168 268.778 240.168C270.808 240.168 272.138 238.684 272.138 236.99C272.138 235.072 270.542 234.232 269.24 234.092L271.928 230.998V230.116H266.02V231.32H269.366C269.912 231.32 270.206 231.278 270.206 231.278V231.306C270.206 231.306 269.912 231.572 269.59 231.95L267.434 234.484L267.756 235.226H268.442C269.66 235.226 270.738 235.828 270.738 237.046C270.738 238.11 269.828 238.852 268.722 238.852C267.294 238.852 266.328 237.774 266.328 237.774L265.572 238.824ZM277.391 240H283.761V238.796H278.861C278.889 236.542 283.607 236.038 283.607 232.79C283.607 231.082 282.305 229.948 280.485 229.948C278.259 229.948 277.363 231.824 277.363 231.824L278.385 232.51C278.385 232.51 279.085 231.25 280.387 231.25C281.423 231.25 282.165 231.908 282.165 232.888C282.165 235.212 277.321 235.716 277.321 239.244C277.321 239.482 277.349 239.734 277.391 240ZM292.526 240.168C295.172 240.168 296.026 237.9 296.026 235.044C296.026 232.202 295.172 229.948 292.526 229.948C289.894 229.948 289.04 232.202 289.04 235.044C289.04 237.9 289.894 240.168 292.526 240.168ZM292.526 238.894C290.916 238.894 290.454 237.2 290.454 235.044C290.454 232.902 290.916 231.222 292.526 231.222C294.15 231.222 294.612 232.902 294.612 235.044C294.612 237.2 294.15 238.894 292.526 238.894ZM301.288 240H306.972V238.796H304.816V230.116H303.584L301.218 232.412L302.058 233.28L302.982 232.37C303.346 232.02 303.458 231.796 303.458 231.796H303.486C303.486 231.796 303.472 232.104 303.472 232.412V238.796H301.288V240ZM308.138 240H313.822V238.796H311.666V230.116H310.434L308.068 232.412L308.908 233.28L309.832 232.37C310.196 232.02 310.308 231.796 310.308 231.796H310.336C310.336 231.796 310.322 232.104 310.322 232.412V238.796H308.138V240Z" fill="#404040"/>
<path d="M258.974 261H260.108L260.57 258.326H262.74L262.278 261H263.412L263.888 258.326H265.694L265.876 257.29H264.056L264.476 254.938H266.296L266.478 253.916H264.644L265.134 251.116H264L263.51 253.916H261.34L261.83 251.116H260.696L260.206 253.916H258.386L258.218 254.938H260.024L259.618 257.29H257.784L257.616 258.326H259.436L258.974 261ZM260.752 257.29L261.172 254.938H263.342L262.922 257.29H260.752ZM274.287 261H275.729L272.173 251.116H270.717L267.161 261H268.589L269.569 258.158H273.293L274.287 261ZM271.459 252.474C271.459 252.474 271.669 253.37 271.837 253.874L272.929 257.01H269.933L271.039 253.874C271.207 253.37 271.431 252.474 271.431 252.474H271.459ZM277.184 261H283.162V259.796H278.57V256.618H282.112V255.414H278.57V252.32H282.924V251.116H277.184V261ZM285.209 261H288.485C291.509 261 293.497 259.18 293.497 256.044C293.497 252.922 291.509 251.116 288.485 251.116H285.209V261ZM286.595 259.796V252.32H288.387C290.599 252.32 292.069 253.622 292.069 256.044C292.069 258.48 290.613 259.796 288.387 259.796H286.595ZM295.573 261H296.959V256.772H300.417V255.568H296.959V252.32H301.019V251.116H295.573V261ZM302.873 261H308.851V259.796H304.259V256.618H307.801V255.414H304.259V252.32H308.613V251.116H302.873V261ZM310.115 259.824C310.115 259.824 311.305 261.168 313.321 261.168C315.351 261.168 316.681 259.684 316.681 257.99C316.681 256.072 315.085 255.232 313.783 255.092L316.471 251.998V251.116H310.563V252.32H313.909C314.455 252.32 314.749 252.278 314.749 252.278V252.306C314.749 252.306 314.455 252.572 314.133 252.95L311.977 255.484L312.299 256.226H312.985C314.203 256.226 315.281 256.828 315.281 258.046C315.281 259.11 314.371 259.852 313.265 259.852C311.837 259.852 310.871 258.774 310.871 258.774L310.115 259.824Z" fill="#404040"/>
<path d="M208.344 219H209.73V215.066H211.844L213.93 219H215.498L213.398 215.164C213.216 214.842 213.104 214.716 213.104 214.716V214.688C214.182 214.338 214.882 213.274 214.882 212.014C214.882 210.712 214.224 209.718 213.216 209.34C212.838 209.2 212.404 209.116 211.368 209.116H208.344V219ZM209.73 213.862V210.32H211.326C212.096 210.32 212.418 210.404 212.684 210.544C213.188 210.824 213.468 211.342 213.468 212.07C213.468 213.176 212.796 213.862 211.718 213.862H209.73ZM216.655 214.044C216.655 217.068 218.853 219.168 221.513 219.168C223.473 219.168 224.551 217.964 224.551 217.964H224.579C224.579 217.964 224.565 218.174 224.565 218.384V219H225.783V214.03H222.913V215.234H224.523V216.662C224.523 216.662 223.431 217.894 221.723 217.894C219.651 217.894 218.083 216.312 218.083 214.016C218.083 211.902 219.483 210.208 221.807 210.208C223.487 210.208 224.593 211.174 224.593 211.174L225.293 210.138C225.293 210.138 224.061 208.948 221.695 208.948C218.811 208.948 216.655 211.188 216.655 214.044ZM227.949 219H231.491C233.227 219 234.669 218.048 234.669 216.186C234.669 215.08 234.081 214.1 233.045 213.792V213.764C233.801 213.372 234.277 212.602 234.277 211.636C234.277 210.04 233.073 209.116 231.407 209.116H227.949V219ZM229.335 213.274V210.32H231.379C232.331 210.32 232.863 210.908 232.863 211.776C232.863 212.644 232.303 213.274 231.407 213.274H229.335ZM229.335 217.796V214.422H231.547C232.583 214.422 233.255 215.108 233.255 216.116C233.255 217.124 232.625 217.796 231.561 217.796H229.335Z" fill="#404040"/>
<path d="M207.672 235.002C207.672 237.9 209.758 240.168 212.726 240.168C215.204 240.168 216.562 238.6 216.562 238.6L215.82 237.606C215.82 237.606 214.63 238.894 212.768 238.894C210.57 238.894 209.1 237.102 209.1 234.988C209.1 232.888 210.542 231.208 212.754 231.208C214.462 231.208 215.61 232.286 215.61 232.286L216.296 231.25C216.296 231.25 215.078 229.948 212.698 229.948C209.828 229.948 207.672 232.132 207.672 235.002ZM218.14 240H219.526L220.002 233.77C220.044 233.168 220.03 232.286 220.03 232.286H220.058C220.058 232.286 220.366 233.238 220.59 233.77L222.55 238.222H223.782L225.756 233.77C225.994 233.224 226.288 232.314 226.288 232.314H226.316C226.316 232.314 226.288 233.168 226.33 233.77L226.82 240H228.192L227.394 230.116H225.938L223.67 235.464C223.446 236.01 223.18 236.794 223.18 236.794H223.152C223.152 236.794 222.886 236.01 222.662 235.464L220.394 230.116H218.938L218.14 240ZM232.524 240H233.91V235.814L237.214 230.116H235.646L233.84 233.364C233.532 233.924 233.238 234.61 233.238 234.61H233.21C233.21 234.61 232.916 233.91 232.608 233.364L230.774 230.116H229.206L232.524 235.814V240ZM238.668 240H240.054V235.464H241.524L244.156 240H245.724L242.672 234.834V234.806L245.542 230.116H244.016L241.524 234.274H240.054V230.116H238.668V240Z" fill="#404040"/>
<path d="M208.344 261H209.73V256.66H214.854V261H216.24V251.116H214.854V255.456H209.73V251.116H208.344V261ZM218.926 261H224.904V259.796H220.312V256.618H223.854V255.414H220.312V252.32H224.666V251.116H218.926V261ZM225.915 261H227.469L229.261 257.962C229.583 257.416 229.849 256.828 229.849 256.828H229.877C229.877 256.828 230.185 257.402 230.507 257.962L232.299 261H233.867L230.745 255.904L233.671 251.116H232.075L230.521 253.79C230.199 254.336 229.919 254.966 229.919 254.966H229.891C229.891 254.966 229.569 254.322 229.261 253.79L227.707 251.116H226.111L229.037 255.904L225.915 261Z" fill="#404040"/>
<path d="M97.5 292.5L13.0625 146.25L181.937 146.25L97.5 292.5Z" fill="#AEDFE3"/>
<path d="M260.108 40.168C263.174 40.168 264.56 37.144 264.56 34.61C264.56 31.782 262.964 29.948 260.864 29.948C259.016 29.948 257.686 31.306 257.686 33.252C257.686 35.086 258.932 36.5 260.808 36.5C261.676 36.5 262.586 36.136 262.992 35.576H263.02C262.81 37.214 261.872 38.894 260.052 38.894C259.268 38.894 258.638 38.558 258.638 38.558L258.19 39.762C258.19 39.762 258.932 40.168 260.108 40.168ZM261.088 35.338C259.814 35.338 259.058 34.456 259.058 33.252C259.058 32.104 259.73 31.222 260.878 31.222C262.138 31.222 263.104 32.664 263.104 33.952C263.104 34.652 262.208 35.338 261.088 35.338ZM266.585 40H268.013L272.479 31.068V30.116H265.871V31.32H270.281C270.785 31.32 271.009 31.278 271.009 31.278V31.306C271.009 31.306 270.715 31.656 270.435 32.216L266.585 40ZM277.171 40H282.855V38.796H280.699V30.116H279.467L277.101 32.412L277.941 33.28L278.865 32.37C279.229 32.02 279.341 31.796 279.341 31.796H279.369C279.369 31.796 279.355 32.104 279.355 32.412V38.796H277.171V40ZM286.344 40.168C289.41 40.168 290.796 37.144 290.796 34.61C290.796 31.782 289.2 29.948 287.1 29.948C285.252 29.948 283.922 31.306 283.922 33.252C283.922 35.086 285.168 36.5 287.044 36.5C287.912 36.5 288.822 36.136 289.228 35.576H289.256C289.046 37.214 288.108 38.894 286.288 38.894C285.504 38.894 284.874 38.558 284.874 38.558L284.426 39.762C284.426 39.762 285.168 40.168 286.344 40.168ZM287.324 35.338C286.05 35.338 285.294 34.456 285.294 33.252C285.294 32.104 285.966 31.222 287.114 31.222C288.374 31.222 289.34 32.664 289.34 33.952C289.34 34.652 288.444 35.338 287.324 35.338ZM292.821 40H294.249L298.715 31.068V30.116H292.107V31.32H296.517C297.021 31.32 297.245 31.278 297.245 31.278V31.306C297.245 31.306 296.951 31.656 296.671 32.216L292.821 40ZM303.407 40H309.091V38.796H306.935V30.116H305.703L303.337 32.412L304.177 33.28L305.101 32.37C305.465 32.02 305.577 31.796 305.577 31.796H305.605C305.605 31.796 305.591 32.104 305.591 32.412V38.796H303.407V40ZM310.271 37.144C310.271 38.936 311.741 40.168 313.715 40.168C315.773 40.168 317.103 38.81 317.103 37.27C317.103 36.248 316.515 35.632 315.759 35.17C315.885 35.03 316.935 33.91 316.935 32.594C316.935 30.97 315.661 29.948 313.827 29.948C311.741 29.948 310.747 31.222 310.747 32.538C310.747 33.448 311.209 34.05 311.853 34.512C311.587 34.694 310.271 35.632 310.271 37.144ZM315.675 37.228C315.675 38.25 314.751 38.922 313.715 38.922C312.665 38.922 311.685 38.194 311.685 37.06C311.685 35.996 312.553 35.324 312.875 35.1C314.205 35.744 315.675 36.164 315.675 37.228ZM312.119 32.566C312.119 31.81 312.721 31.194 313.813 31.194C314.849 31.194 315.577 31.768 315.577 32.678C315.577 33.714 314.863 34.47 314.709 34.624C313.435 34.078 312.119 33.658 312.119 32.566ZM322.499 40.168C324.347 40.168 325.677 38.81 325.677 36.864C325.677 35.03 324.431 33.602 322.555 33.602C321.687 33.602 320.791 33.98 320.371 34.54H320.343C320.553 32.902 321.491 31.222 323.311 31.222C324.095 31.222 324.725 31.544 324.725 31.544L325.173 30.354C325.173 30.354 324.417 29.948 323.255 29.948C320.189 29.948 318.803 32.972 318.803 35.506C318.803 38.32 320.385 40.168 322.499 40.168ZM322.485 38.894C321.225 38.894 320.259 37.452 320.259 36.164C320.259 35.45 321.155 34.778 322.275 34.778C323.535 34.778 324.305 35.66 324.305 36.864C324.305 38.012 323.619 38.894 322.485 38.894Z" fill="#404040"/>
<path d="M257.672 59.796C257.672 59.796 258.666 61.168 260.696 61.168C262.698 61.168 264.196 59.74 264.196 57.836C264.196 56.058 262.838 54.616 260.752 54.616C260.024 54.616 259.478 54.924 259.478 54.924H259.45C259.45 54.924 259.506 54.7 259.52 54.406L259.758 52.32H263.538V51.116H258.554L258.064 56.016L258.862 56.31C258.862 56.31 259.562 55.82 260.528 55.82C261.802 55.82 262.782 56.66 262.782 57.85C262.782 59.054 261.774 59.852 260.612 59.852C259.212 59.852 258.442 58.788 258.442 58.788L257.672 59.796ZM265.673 61H271.357V59.796H269.201V51.116H267.969L265.603 53.412L266.443 54.28L267.367 53.37C267.731 53.02 267.843 52.796 267.843 52.796H267.871C267.871 52.796 267.857 53.104 267.857 53.412V59.796H265.673V61ZM279.702 61.168C282.348 61.168 283.202 58.9 283.202 56.044C283.202 53.202 282.348 50.948 279.702 50.948C277.07 50.948 276.216 53.202 276.216 56.044C276.216 58.9 277.07 61.168 279.702 61.168ZM279.702 59.894C278.092 59.894 277.63 58.2 277.63 56.044C277.63 53.902 278.092 52.222 279.702 52.222C281.326 52.222 281.788 53.902 281.788 56.044C281.788 58.2 281.326 59.894 279.702 59.894ZM292.202 61.168C294.05 61.168 295.38 59.81 295.38 57.864C295.38 56.03 294.134 54.602 292.258 54.602C291.39 54.602 290.494 54.98 290.074 55.54H290.046C290.256 53.902 291.194 52.222 293.014 52.222C293.798 52.222 294.428 52.544 294.428 52.544L294.876 51.354C294.876 51.354 294.12 50.948 292.958 50.948C289.892 50.948 288.506 53.972 288.506 56.506C288.506 59.32 290.088 61.168 292.202 61.168ZM292.188 59.894C290.928 59.894 289.962 58.452 289.962 57.164C289.962 56.45 290.858 55.778 291.978 55.778C293.238 55.778 294.008 56.66 294.008 57.864C294.008 59.012 293.322 59.894 292.188 59.894ZM300.496 61H306.866V59.796H301.966C301.994 57.542 306.712 57.038 306.712 53.79C306.712 52.082 305.41 50.948 303.59 50.948C301.364 50.948 300.468 52.824 300.468 52.824L301.49 53.51C301.49 53.51 302.19 52.25 303.492 52.25C304.528 52.25 305.27 52.908 305.27 53.888C305.27 56.212 300.426 56.716 300.426 60.244C300.426 60.482 300.454 60.734 300.496 61ZM308.228 59.824C308.228 59.824 309.418 61.168 311.434 61.168C313.464 61.168 314.794 59.684 314.794 57.99C314.794 56.072 313.198 55.232 311.896 55.092L314.584 51.998V51.116H308.676V52.32H312.022C312.568 52.32 312.862 52.278 312.862 52.278V52.306C312.862 52.306 312.568 52.572 312.246 52.95L310.09 55.484L310.412 56.226H311.098C312.316 56.226 313.394 56.828 313.394 58.046C313.394 59.11 312.484 59.852 311.378 59.852C309.95 59.852 308.984 58.774 308.984 58.774L308.228 59.824Z" fill="#404040"/>
<path d="M258.974 82H260.108L260.57 79.326H262.74L262.278 82H263.412L263.888 79.326H265.694L265.876 78.29H264.056L264.476 75.938H266.296L266.478 74.916H264.644L265.134 72.116H264L263.51 74.916H261.34L261.83 72.116H260.696L260.206 74.916H258.386L258.218 75.938H260.024L259.618 78.29H257.784L257.616 79.326H259.436L258.974 82ZM260.752 78.29L261.172 75.938H263.342L262.922 78.29H260.752ZM271.571 82.168C273.419 82.168 274.749 80.81 274.749 78.864C274.749 77.03 273.503 75.602 271.627 75.602C270.759 75.602 269.863 75.98 269.443 76.54H269.415C269.625 74.902 270.563 73.222 272.383 73.222C273.167 73.222 273.797 73.544 273.797 73.544L274.245 72.354C274.245 72.354 273.489 71.948 272.327 71.948C269.261 71.948 267.875 74.972 267.875 77.506C267.875 80.32 269.457 82.168 271.571 82.168ZM271.557 80.894C270.297 80.894 269.331 79.452 269.331 78.164C269.331 77.45 270.227 76.778 271.347 76.778C272.607 76.778 273.377 77.66 273.377 78.864C273.377 80.012 272.691 80.894 271.557 80.894ZM276.214 82H281.898V80.796H279.742V72.116H278.51L276.144 74.412L276.984 75.28L277.908 74.37C278.272 74.02 278.384 73.796 278.384 73.796H278.412C278.412 73.796 278.398 74.104 278.398 74.412V80.796H276.214V82ZM282.951 77.002C282.951 79.9 285.037 82.168 288.005 82.168C290.483 82.168 291.841 80.6 291.841 80.6L291.099 79.606C291.099 79.606 289.909 80.894 288.047 80.894C285.849 80.894 284.379 79.102 284.379 76.988C284.379 74.888 285.821 73.208 288.033 73.208C289.741 73.208 290.889 74.286 290.889 74.286L291.575 73.25C291.575 73.25 290.357 71.948 287.977 71.948C285.107 71.948 282.951 74.132 282.951 77.002ZM293.055 80.796C293.055 80.796 294.049 82.168 296.079 82.168C298.081 82.168 299.579 80.74 299.579 78.836C299.579 77.058 298.221 75.616 296.135 75.616C295.407 75.616 294.861 75.924 294.861 75.924H294.833C294.833 75.924 294.889 75.7 294.903 75.406L295.141 73.32H298.921V72.116H293.937L293.447 77.016L294.245 77.31C294.245 77.31 294.945 76.82 295.911 76.82C297.185 76.82 298.165 77.66 298.165 78.85C298.165 80.054 297.157 80.852 295.995 80.852C294.595 80.852 293.825 79.788 293.825 79.788L293.055 80.796ZM301.615 82H305.157C306.893 82 308.335 81.048 308.335 79.186C308.335 78.08 307.747 77.1 306.711 76.792V76.764C307.467 76.372 307.943 75.602 307.943 74.636C307.943 73.04 306.739 72.116 305.073 72.116H301.615V82ZM303.001 76.274V73.32H305.045C305.997 73.32 306.529 73.908 306.529 74.776C306.529 75.644 305.969 76.274 305.073 76.274H303.001ZM303.001 80.796V77.422H305.213C306.249 77.422 306.921 78.108 306.921 79.116C306.921 80.124 306.291 80.796 305.227 80.796H303.001ZM316.383 82H317.825L314.269 72.116H312.813L309.257 82H310.685L311.665 79.158H315.389L316.383 82ZM313.555 73.474C313.555 73.474 313.765 74.37 313.933 74.874L315.025 78.01H312.029L313.135 74.874C313.303 74.37 313.527 73.474 313.527 73.474H313.555Z" fill="#404040"/>
<path d="M208.344 40H209.73V36.066H211.844L213.93 40H215.498L213.398 36.164C213.216 35.842 213.104 35.716 213.104 35.716V35.688C214.182 35.338 214.882 34.274 214.882 33.014C214.882 31.712 214.224 30.718 213.216 30.34C212.838 30.2 212.404 30.116 211.368 30.116H208.344V40ZM209.73 34.862V31.32H211.326C212.096 31.32 212.418 31.404 212.684 31.544C213.188 31.824 213.468 32.342 213.468 33.07C213.468 34.176 212.796 34.862 211.718 34.862H209.73ZM216.655 35.044C216.655 38.068 218.853 40.168 221.513 40.168C223.473 40.168 224.551 38.964 224.551 38.964H224.579C224.579 38.964 224.565 39.174 224.565 39.384V40H225.783V35.03H222.913V36.234H224.523V37.662C224.523 37.662 223.431 38.894 221.723 38.894C219.651 38.894 218.083 37.312 218.083 35.016C218.083 32.902 219.483 31.208 221.807 31.208C223.487 31.208 224.593 32.174 224.593 32.174L225.293 31.138C225.293 31.138 224.061 29.948 221.695 29.948C218.811 29.948 216.655 32.188 216.655 35.044ZM227.949 40H231.491C233.227 40 234.669 39.048 234.669 37.186C234.669 36.08 234.081 35.1 233.045 34.792V34.764C233.801 34.372 234.277 33.602 234.277 32.636C234.277 31.04 233.073 30.116 231.407 30.116H227.949V40ZM229.335 34.274V31.32H231.379C232.331 31.32 232.863 31.908 232.863 32.776C232.863 33.644 232.303 34.274 231.407 34.274H229.335ZM229.335 38.796V35.422H231.547C232.583 35.422 233.255 36.108 233.255 37.116C233.255 38.124 232.625 38.796 231.561 38.796H229.335Z" fill="#404040"/>
<path d="M207.672 56.002C207.672 58.9 209.758 61.168 212.726 61.168C215.204 61.168 216.562 59.6 216.562 59.6L215.82 58.606C215.82 58.606 214.63 59.894 212.768 59.894C210.57 59.894 209.1 58.102 209.1 55.988C209.1 53.888 210.542 52.208 212.754 52.208C214.462 52.208 215.61 53.286 215.61 53.286L216.296 52.25C216.296 52.25 215.078 50.948 212.698 50.948C209.828 50.948 207.672 53.132 207.672 56.002ZM218.14 61H219.526L220.002 54.77C220.044 54.168 220.03 53.286 220.03 53.286H220.058C220.058 53.286 220.366 54.238 220.59 54.77L222.55 59.222H223.782L225.756 54.77C225.994 54.224 226.288 53.314 226.288 53.314H226.316C226.316 53.314 226.288 54.168 226.33 54.77L226.82 61H228.192L227.394 51.116H225.938L223.67 56.464C223.446 57.01 223.18 57.794 223.18 57.794H223.152C223.152 57.794 222.886 57.01 222.662 56.464L220.394 51.116H218.938L218.14 61ZM232.524 61H233.91V56.814L237.214 51.116H235.646L233.84 54.364C233.532 54.924 233.238 55.61 233.238 55.61H233.21C233.21 55.61 232.916 54.91 232.608 54.364L230.774 51.116H229.206L232.524 56.814V61ZM238.668 61H240.054V56.464H241.524L244.156 61H245.724L242.672 55.834V55.806L245.542 51.116H244.016L241.524 55.274H240.054V51.116H238.668V61Z" fill="#404040"/>
<path d="M208.344 82H209.73V77.66H214.854V82H216.24V72.116H214.854V76.456H209.73V72.116H208.344V82ZM218.926 82H224.904V80.796H220.312V77.618H223.854V76.414H220.312V73.32H224.666V72.116H218.926V82ZM225.915 82H227.469L229.261 78.962C229.583 78.416 229.849 77.828 229.849 77.828H229.877C229.877 77.828 230.185 78.402 230.507 78.962L232.299 82H233.867L230.745 76.904L233.671 72.116H232.075L230.521 74.79C230.199 75.336 229.919 75.966 229.919 75.966H229.891C229.891 75.966 229.569 75.322 229.261 74.79L227.707 72.116H226.111L229.037 76.904L225.915 82Z" fill="#404040"/>
<path d="M97.5 0L181.937 146.25H13.0625L97.5 0Z" fill="#61C5BA"/>
</svg>
