<svg width="169" height="229" viewBox="0 0 169 229" fill="none" xmlns="http://www.w3.org/2000/svg">
<rect width="169" height="150" fill="#99D1A3"/>
<path d="M46.672 189H51.244V188.256H49.384V180.564H48.616L46.708 182.46L47.236 183L48.136 182.1C48.472 181.776 48.556 181.596 48.556 181.596H48.58C48.58 181.596 48.568 181.824 48.568 182.064V188.256H46.672V189ZM52.2378 187.944C52.2378 187.944 53.0298 189.144 54.7098 189.144C56.3538 189.144 57.6378 187.932 57.6378 186.372C57.6378 184.848 56.4258 183.624 54.7338 183.624C53.9778 183.624 53.4498 183.948 53.4498 183.948H53.4258C53.4258 183.948 53.4738 183.768 53.5098 183.468L53.7498 181.308H57.1098V180.564H53.0298L52.5738 184.656L53.1018 184.848C53.1018 184.848 53.7378 184.392 54.6378 184.392C55.8378 184.392 56.7738 185.22 56.7738 186.372C56.7738 187.524 55.8378 188.352 54.6738 188.352C53.3898 188.352 52.7658 187.368 52.7658 187.368L52.2378 187.944ZM58.8213 187.992C58.8213 187.992 59.8413 189.144 61.4973 189.144C63.0933 189.144 64.2693 187.944 64.2693 186.504C64.2693 184.68 62.6973 184.08 61.6293 184.02L64.1493 181.116V180.564H59.2173V181.308H62.3853C62.8293 181.308 63.0693 181.272 63.0693 181.272V181.296C63.0693 181.296 62.8533 181.5 62.6253 181.764L60.5133 184.236L60.7173 184.728H61.2933C62.3973 184.728 63.4173 185.34 63.4173 186.528C63.4173 187.608 62.4933 188.352 61.4853 188.352C60.1893 188.352 59.3253 187.356 59.3253 187.356L58.8213 187.992ZM69.0102 189H74.2782V188.256H69.8742C69.8862 186.012 74.1462 185.616 74.1462 182.784C74.1462 181.464 73.1862 180.42 71.5782 180.42C69.7902 180.42 69.0222 181.944 69.0222 181.944L69.6462 182.364C69.6462 182.364 70.2942 181.212 71.5302 181.212C72.5862 181.212 73.2822 181.908 73.2822 182.832C73.2822 185.112 68.9622 185.496 68.9622 188.46C68.9622 188.628 68.9742 188.808 69.0102 189ZM78.7833 189.144C80.9793 189.144 81.6873 187.224 81.6873 184.776C81.6873 182.352 80.9793 180.42 78.7833 180.42C76.5873 180.42 75.8673 182.352 75.8673 184.776C75.8673 187.224 76.5873 189.144 78.7833 189.144ZM78.7833 188.364C77.1753 188.364 76.7313 186.792 76.7313 184.776C76.7313 182.772 77.1753 181.2 78.7833 181.2C80.3793 181.2 80.8233 182.772 80.8233 184.776C80.8233 186.792 80.3793 188.364 78.7833 188.364ZM85.1673 189.144C87.7833 189.144 88.8753 186.492 88.8753 184.38C88.8753 182.1 87.6633 180.42 85.8273 180.42C84.3513 180.42 83.1873 181.488 83.1873 183.24C83.1873 184.836 84.2673 185.964 85.8033 185.964C86.6793 185.964 87.5313 185.58 87.9513 184.98H87.9753C87.8193 186.624 86.9313 188.364 85.1553 188.364C84.4593 188.364 83.9313 188.064 83.9313 188.064L83.6193 188.796C83.6193 188.796 84.2433 189.144 85.1673 189.144ZM85.9353 185.22C84.7833 185.22 84.0273 184.428 84.0273 183.228C84.0273 182.064 84.6993 181.2 85.8393 181.2C87.0993 181.2 87.9753 182.652 87.9753 183.78C87.9753 184.464 87.0753 185.22 85.9353 185.22ZM93.547 189H98.119V188.256H96.259V180.564H95.491L93.583 182.46L94.111 183L95.011 182.1C95.347 181.776 95.431 181.596 95.431 181.596H95.455C95.455 181.596 95.443 181.824 95.443 182.064V188.256H93.547V189ZM102.293 189.144C103.769 189.144 104.945 188.076 104.945 186.324C104.945 184.728 103.853 183.6 102.317 183.6C101.441 183.6 100.589 183.984 100.181 184.584H100.157C100.301 182.94 101.201 181.2 102.965 181.2C103.661 181.2 104.189 181.5 104.189 181.5L104.501 180.768C104.501 180.768 103.889 180.42 102.953 180.42C100.349 180.42 99.2448 183.072 99.2448 185.184C99.2448 187.464 100.457 189.144 102.293 189.144ZM102.281 188.364C101.021 188.364 100.145 186.912 100.145 185.784C100.145 185.1 101.057 184.344 102.185 184.344C103.337 184.344 104.093 185.136 104.093 186.336C104.093 187.5 103.421 188.364 102.281 188.364ZM106.142 187.992C106.142 187.992 107.162 189.144 108.818 189.144C110.414 189.144 111.59 187.944 111.59 186.504C111.59 184.68 110.018 184.08 108.95 184.02L111.47 181.116V180.564H106.538V181.308H109.706C110.15 181.308 110.39 181.272 110.39 181.272V181.296C110.39 181.296 110.174 181.5 109.946 181.764L107.834 184.236L108.038 184.728H108.614C109.718 184.728 110.738 185.34 110.738 186.528C110.738 187.608 109.814 188.352 108.806 188.352C107.51 188.352 106.646 187.356 106.646 187.356L106.142 187.992Z" fill="#404040"/>
<path d="M46.768 209H52.036V208.256H47.632C47.644 206.012 51.904 205.616 51.904 202.784C51.904 201.464 50.944 200.42 49.336 200.42C47.548 200.42 46.78 201.944 46.78 201.944L47.404 202.364C47.404 202.364 48.052 201.212 49.288 201.212C50.344 201.212 51.04 201.908 51.04 202.832C51.04 205.112 46.72 205.496 46.72 208.46C46.72 208.628 46.732 208.808 46.768 209ZM53.9492 209H54.8132L58.7252 201.14V200.564H53.2412V201.308H57.1892C57.6092 201.308 57.8252 201.284 57.8252 201.284V201.308C57.8252 201.308 57.5852 201.632 57.3572 202.088L53.9492 209ZM65.9982 209.144C68.1942 209.144 68.9022 207.224 68.9022 204.776C68.9022 202.352 68.1942 200.42 65.9982 200.42C63.8022 200.42 63.0822 202.352 63.0822 204.776C63.0822 207.224 63.8022 209.144 65.9982 209.144ZM65.9982 208.364C64.3902 208.364 63.9462 206.792 63.9462 204.776C63.9462 202.772 64.3902 201.2 65.9982 201.2C67.5942 201.2 68.0382 202.772 68.0382 204.776C68.0382 206.792 67.5942 208.364 65.9982 208.364ZM73.7328 209H79.0008V208.256H74.5968C74.6088 206.012 78.8688 205.616 78.8688 202.784C78.8688 201.464 77.9088 200.42 76.3008 200.42C74.5128 200.42 73.7448 201.944 73.7448 201.944L74.3688 202.364C74.3688 202.364 75.0168 201.212 76.2528 201.212C77.3088 201.212 78.0048 201.908 78.0048 202.832C78.0048 205.112 73.6848 205.496 73.6848 208.46C73.6848 208.628 73.6968 208.808 73.7328 209ZM80.518 209H85.786V208.256H81.382C81.394 206.012 85.654 205.616 85.654 202.784C85.654 201.464 84.694 200.42 83.086 200.42C81.298 200.42 80.53 201.944 80.53 201.944L81.154 202.364C81.154 202.364 81.802 201.212 83.038 201.212C84.094 201.212 84.79 201.908 84.79 202.832C84.79 205.112 80.47 205.496 80.47 208.46C80.47 208.628 80.482 208.808 80.518 209ZM90.4298 209H95.0018V208.256H93.1418V200.564H92.3738L90.4658 202.46L90.9938 203L91.8938 202.1C92.2298 201.776 92.3138 201.596 92.3138 201.596H92.3378C92.3378 201.596 92.3258 201.824 92.3258 202.064V208.256H90.4298V209ZM96.1157 206.576C96.1157 208.172 97.4477 209.144 98.9717 209.144C100.604 209.144 101.768 208.028 101.768 206.708C101.768 205.832 101.24 205.292 100.544 204.896C100.64 204.8 101.576 203.816 101.576 202.616C101.576 201.296 100.568 200.42 98.9957 200.42C97.2917 200.42 96.4517 201.464 96.4517 202.556C96.4517 203.36 96.8957 203.876 97.4957 204.272C97.3037 204.392 96.1157 205.22 96.1157 206.576ZM100.916 206.696C100.916 207.692 99.9677 208.376 98.9717 208.376C97.9517 208.376 96.9677 207.68 96.9677 206.54C96.9677 205.46 97.9157 204.788 98.1797 204.632C99.4277 205.232 100.916 205.604 100.916 206.696ZM97.2917 202.568C97.2917 201.812 97.9157 201.188 98.9957 201.188C100.016 201.188 100.736 201.752 100.736 202.652C100.736 203.66 100.016 204.416 99.8597 204.56C98.6477 204.032 97.2917 203.66 97.2917 202.568Z" fill="#404040"/>
<path d="M47.86 228H48.592L49 225.66H51.076L50.668 228H51.4L51.808 225.66H53.488L53.596 224.988H51.928L52.336 222.636H54.016L54.136 221.964H52.456L52.876 219.564H52.144L51.724 221.964H49.648L50.068 219.564H49.336L48.916 221.964H47.212L47.104 222.636H48.796L48.376 224.988H46.684L46.564 225.66H48.268L47.86 228ZM49.12 224.988L49.528 222.636H51.604L51.184 224.988H49.12ZM57.3236 228.144C59.9396 228.144 61.0316 225.492 61.0316 223.38C61.0316 221.1 59.8196 219.42 57.9836 219.42C56.5076 219.42 55.3436 220.488 55.3436 222.24C55.3436 223.836 56.4236 224.964 57.9596 224.964C58.8356 224.964 59.6876 224.58 60.1076 223.98H60.1316C59.9756 225.624 59.0876 227.364 57.3116 227.364C56.6156 227.364 56.0876 227.064 56.0876 227.064L55.7756 227.796C55.7756 227.796 56.3996 228.144 57.3236 228.144ZM58.0916 224.22C56.9396 224.22 56.1836 223.428 56.1836 222.228C56.1836 221.064 56.8556 220.2 57.9956 220.2C59.2556 220.2 60.1316 221.652 60.1316 222.78C60.1316 223.464 59.2316 224.22 58.0916 224.22ZM64.4486 228.144C67.0646 228.144 68.1566 225.492 68.1566 223.38C68.1566 221.1 66.9446 219.42 65.1086 219.42C63.6326 219.42 62.4686 220.488 62.4686 222.24C62.4686 223.836 63.5486 224.964 65.0846 224.964C65.9606 224.964 66.8126 224.58 67.2326 223.98H67.2566C67.1006 225.624 66.2126 227.364 64.4366 227.364C63.7406 227.364 63.2126 227.064 63.2126 227.064L62.9006 227.796C62.9006 227.796 63.5246 228.144 64.4486 228.144ZM65.2166 224.22C64.0646 224.22 63.3086 223.428 63.3086 222.228C63.3086 221.064 63.9806 220.2 65.1206 220.2C66.3806 220.2 67.2566 221.652 67.2566 222.78C67.2566 223.464 66.3566 224.22 65.2166 224.22ZM70.1576 228H72.8816C75.4136 228 77.1176 226.464 77.1176 223.776C77.1176 221.112 75.4136 219.564 72.8816 219.564H70.1576V228ZM70.9856 227.256V220.308H72.7976C74.8616 220.308 76.2536 221.532 76.2536 223.776C76.2536 226.032 74.8736 227.256 72.7976 227.256H70.9856ZM78.4884 228H83.0604V227.256H81.2004V219.564H80.4324L78.5244 221.46L79.0524 222L79.9524 221.1C80.2884 220.776 80.3724 220.596 80.3724 220.596H80.3964C80.3964 220.596 80.3844 220.824 80.3844 221.064V227.256H78.4884V228ZM89.7663 228H90.6423L87.5463 219.564H86.6583L83.5623 228H84.4383L85.3983 225.312H88.7943L89.7663 228ZM87.1143 220.44C87.1143 220.44 87.2943 221.136 87.4383 221.532L88.5423 224.592H85.6383L86.7663 221.532C86.9103 221.136 87.0903 220.44 87.0903 220.44H87.1143ZM91.3408 226.992C91.3408 226.992 92.3608 228.144 94.0168 228.144C95.6128 228.144 96.7888 226.944 96.7888 225.504C96.7888 223.68 95.2168 223.08 94.1488 223.02L96.6688 220.116V219.564H91.7368V220.308H94.9048C95.3488 220.308 95.5888 220.272 95.5888 220.272V220.296C95.5888 220.296 95.3728 220.5 95.1448 220.764L93.0328 223.236L93.2368 223.728H93.8128C94.9168 223.728 95.9368 224.34 95.9368 225.528C95.9368 226.608 95.0128 227.352 94.0048 227.352C92.7088 227.352 91.8448 226.356 91.8448 226.356L91.3408 226.992Z" fill="#404040"/>
<path d="M1.224 189H2.052V185.448H4.176L6.084 189H7.032L5.196 185.604C5.064 185.376 4.98 185.268 4.98 185.268V185.244C5.928 184.98 6.576 184.104 6.576 182.964C6.576 181.944 6.096 181.14 5.304 180.792C4.968 180.648 4.584 180.564 3.72 180.564H1.224V189ZM2.052 184.704V181.308H3.756C4.404 181.308 4.704 181.38 4.956 181.512C5.448 181.776 5.724 182.292 5.724 182.988C5.724 184.044 5.076 184.704 4.056 184.704H2.052ZM8.19516 184.776C8.19516 187.284 10.0192 189.144 12.3232 189.144C14.0992 189.144 15.0712 188.004 15.0712 188.004H15.0952C15.0952 188.004 15.0832 188.184 15.0832 188.364V189H15.8512V184.968H13.6192V185.712H15.0592V187.14C15.0592 187.14 14.0512 188.376 12.4072 188.376C10.4872 188.376 9.05916 186.84 9.05916 184.764C9.05916 182.76 10.4392 181.188 12.4792 181.188C14.0152 181.188 14.9992 182.028 14.9992 182.028L15.4432 181.404C15.4432 181.404 14.3992 180.42 12.4432 180.42C10.0192 180.42 8.19516 182.34 8.19516 184.776ZM17.8529 189H20.8289C22.2449 189 23.3609 188.136 23.3609 186.636C23.3609 185.616 22.8089 184.788 21.9449 184.548V184.524C22.5929 184.2 23.0129 183.564 23.0129 182.688C23.0129 181.368 22.0649 180.564 20.7329 180.564H17.8529V189ZM18.6809 184.224V181.308H20.7209C21.6209 181.308 22.1609 181.884 22.1609 182.748C22.1609 183.624 21.5849 184.224 20.7329 184.224H18.6809ZM18.6809 188.256V184.944H20.8289C21.8129 184.944 22.4969 185.604 22.4969 186.612C22.4969 187.62 21.8609 188.256 20.8409 188.256H18.6809Z" fill="#404040"/>
<path d="M0.66 204.728C0.66 207.188 2.436 209.144 4.932 209.144C7.008 209.144 8.16 207.836 8.16 207.836L7.68 207.248C7.68 207.248 6.648 208.376 4.944 208.376C2.94 208.376 1.524 206.732 1.524 204.716C1.524 202.724 2.94 201.188 4.92 201.188C6.504 201.188 7.488 202.124 7.488 202.124L7.932 201.512C7.932 201.512 6.912 200.42 4.896 200.42C2.484 200.42 0.66 202.28 0.66 204.728ZM9.69047 209H10.5185L10.9865 203.096C11.0225 202.64 11.0105 201.896 11.0105 201.896H11.0345C11.0345 201.896 11.2985 202.676 11.4905 203.096L13.4705 207.428H14.2505L16.2305 203.096C16.4225 202.664 16.6745 201.92 16.6745 201.92H16.6985C16.6985 201.92 16.6865 202.64 16.7225 203.096L17.1905 209H18.0185L17.3465 200.564H16.4945L14.2865 205.52C14.0945 205.952 13.8665 206.552 13.8665 206.552H13.8425C13.8425 206.552 13.6265 205.952 13.4345 205.52L11.2265 200.564H10.3625L9.69047 209ZM21.8912 209H22.7312V205.376L25.5632 200.564H24.6272L22.8392 203.624C22.5752 204.068 22.3232 204.632 22.3232 204.632H22.2992C22.2992 204.632 22.0352 204.056 21.7832 203.624L19.9952 200.564H19.0472L21.8912 205.376V209ZM26.9818 209H27.8098V204.968H29.2378L31.6498 209H32.6218L29.9338 204.572V204.548L32.4538 200.564H31.5058L29.2378 204.224H27.8098V200.564H26.9818V209Z" fill="#404040"/>
<path d="M1.224 228H2.052V224.148H6.948V228H7.776V219.564H6.948V223.404H2.052V219.564H1.224V228ZM10.224 228H15.192V227.256H11.052V224.124H14.256V223.38H11.052V220.308H14.976V219.564H10.224V228ZM16.1675 228H17.1275L18.8555 225.096C19.1195 224.652 19.3715 224.148 19.3715 224.148H19.3955C19.3955 224.148 19.6595 224.652 19.9235 225.084L21.6755 228H22.6355L19.9355 223.596L22.4075 219.564H21.4235L19.9355 222.06C19.6715 222.492 19.4315 223.032 19.4315 223.032H19.4075C19.4075 223.032 19.1075 222.492 18.8555 222.06L17.3795 219.564H16.4075L18.8555 223.596L16.1675 228Z" fill="#404040"/>
</svg>
