<svg width="169" height="229" viewBox="0 0 169 229" fill="none" xmlns="http://www.w3.org/2000/svg">
<rect width="169" height="150" fill="#A3CD39"/>
<path d="M46.672 189H51.244V188.256H49.384V180.564H48.616L46.708 182.46L47.236 183L48.136 182.1C48.472 181.776 48.556 181.596 48.556 181.596H48.58C48.58 181.596 48.568 181.824 48.568 182.064V188.256H46.672V189ZM55.4178 189.144C56.8938 189.144 58.0698 188.076 58.0698 186.324C58.0698 184.728 56.9778 183.6 55.4418 183.6C54.5658 183.6 53.7138 183.984 53.3058 184.584H53.2818C53.4258 182.94 54.3258 181.2 56.0898 181.2C56.7858 181.2 57.3138 181.5 57.3138 181.5L57.6258 180.768C57.6258 180.768 57.0138 180.42 56.0778 180.42C53.4738 180.42 52.3698 183.072 52.3698 185.184C52.3698 187.464 53.5818 189.144 55.4178 189.144ZM55.4058 188.364C54.1458 188.364 53.2698 186.912 53.2698 185.784C53.2698 185.1 54.1818 184.344 55.3098 184.344C56.4618 184.344 57.2178 185.136 57.2178 186.336C57.2178 187.5 56.5458 188.364 55.4058 188.364ZM59.2666 187.992C59.2666 187.992 60.2866 189.144 61.9426 189.144C63.5386 189.144 64.7146 187.944 64.7146 186.504C64.7146 184.68 63.1426 184.08 62.0746 184.02L64.5946 181.116V180.564H59.6626V181.308H62.8306C63.2746 181.308 63.5146 181.272 63.5146 181.272V181.296C63.5146 181.296 63.2986 181.5 63.0706 181.764L60.9586 184.236L61.1626 184.728H61.7386C62.8426 184.728 63.8626 185.34 63.8626 186.528C63.8626 187.608 62.9386 188.352 61.9306 188.352C60.6346 188.352 59.7706 187.356 59.7706 187.356L59.2666 187.992ZM69.4555 189H74.7235V188.256H70.3195C70.3315 186.012 74.5915 185.616 74.5915 182.784C74.5915 181.464 73.6315 180.42 72.0235 180.42C70.2355 180.42 69.4675 181.944 69.4675 181.944L70.0915 182.364C70.0915 182.364 70.7395 181.212 71.9755 181.212C73.0315 181.212 73.7275 181.908 73.7275 182.832C73.7275 185.112 69.4075 185.496 69.4075 188.46C69.4075 188.628 69.4195 188.808 69.4555 189ZM79.2287 189.144C81.4247 189.144 82.1327 187.224 82.1327 184.776C82.1327 182.352 81.4247 180.42 79.2287 180.42C77.0327 180.42 76.3127 182.352 76.3127 184.776C76.3127 187.224 77.0327 189.144 79.2287 189.144ZM79.2287 188.364C77.6207 188.364 77.1767 186.792 77.1767 184.776C77.1767 182.772 77.6207 181.2 79.2287 181.2C80.8247 181.2 81.2687 182.772 81.2687 184.776C81.2687 186.792 80.8247 188.364 79.2287 188.364ZM83.6207 187.944C83.6207 187.944 84.4127 189.144 86.0927 189.144C87.7367 189.144 89.0207 187.932 89.0207 186.372C89.0207 184.848 87.8087 183.624 86.1167 183.624C85.3607 183.624 84.8327 183.948 84.8327 183.948H84.8087C84.8087 183.948 84.8567 183.768 84.8927 183.468L85.1327 181.308H88.4927V180.564H84.4127L83.9567 184.656L84.4847 184.848C84.4847 184.848 85.1207 184.392 86.0207 184.392C87.2207 184.392 88.1567 185.22 88.1567 186.372C88.1567 187.524 87.2207 188.352 86.0567 188.352C84.7727 188.352 84.1487 187.368 84.1487 187.368L83.6207 187.944ZM93.5347 187.944C93.5347 187.944 94.3267 189.144 96.0067 189.144C97.6507 189.144 98.9347 187.932 98.9347 186.372C98.9347 184.848 97.7227 183.624 96.0307 183.624C95.2747 183.624 94.7467 183.948 94.7467 183.948H94.7227C94.7227 183.948 94.7707 183.768 94.8067 183.468L95.0467 181.308H98.4067V180.564H94.3267L93.8707 184.656L94.3987 184.848C94.3987 184.848 95.0347 184.392 95.9347 184.392C97.1347 184.392 98.0707 185.22 98.0707 186.372C98.0707 187.524 97.1347 188.352 95.9707 188.352C94.6867 188.352 94.0627 187.368 94.0627 187.368L93.5347 187.944ZM100.742 189H101.606L105.518 181.14V180.564H100.034V181.308H103.982C104.402 181.308 104.618 181.284 104.618 181.284V181.308C104.618 181.308 104.378 181.632 104.15 182.088L100.742 189Z" fill="#404040"/>
<path d="M46.768 209H52.036V208.256H47.632C47.644 206.012 51.904 205.616 51.904 202.784C51.904 201.464 50.944 200.42 49.336 200.42C47.548 200.42 46.78 201.944 46.78 201.944L47.404 202.364C47.404 202.364 48.052 201.212 49.288 201.212C50.344 201.212 51.04 201.908 51.04 202.832C51.04 205.112 46.72 205.496 46.72 208.46C46.72 208.628 46.732 208.808 46.768 209ZM56.5412 209.144C58.7372 209.144 59.4452 207.224 59.4452 204.776C59.4452 202.352 58.7372 200.42 56.5412 200.42C54.3452 200.42 53.6252 202.352 53.6252 204.776C53.6252 207.224 54.3452 209.144 56.5412 209.144ZM56.5412 208.364C54.9332 208.364 54.4892 206.792 54.4892 204.776C54.4892 202.772 54.9332 201.2 56.5412 201.2C58.1372 201.2 58.5812 202.772 58.5812 204.776C58.5812 206.792 58.1372 208.364 56.5412 208.364ZM64.2758 209H69.5438V208.256H65.1398C65.1518 206.012 69.4118 205.616 69.4118 202.784C69.4118 201.464 68.4518 200.42 66.8438 200.42C65.0558 200.42 64.2878 201.944 64.2878 201.944L64.9118 202.364C64.9118 202.364 65.5598 201.212 66.7958 201.212C67.8518 201.212 68.5478 201.908 68.5478 202.832C68.5478 205.112 64.2278 205.496 64.2278 208.46C64.2278 208.628 64.2398 208.808 64.2758 209ZM74.6796 209H75.5436L79.4556 201.14V200.564H73.9716V201.308H77.9196C78.3396 201.308 78.5556 201.284 78.5556 201.284V201.308C78.5556 201.308 78.3156 201.632 78.0876 202.088L74.6796 209ZM80.518 209H85.786V208.256H81.382C81.394 206.012 85.654 205.616 85.654 202.784C85.654 201.464 84.694 200.42 83.086 200.42C81.298 200.42 80.53 201.944 80.53 201.944L81.154 202.364C81.154 202.364 81.802 201.212 83.038 201.212C84.094 201.212 84.79 201.908 84.79 202.832C84.79 205.112 80.47 205.496 80.47 208.46C80.47 208.628 80.482 208.808 80.518 209ZM90.5258 209H95.7938V208.256H91.3898C91.4018 206.012 95.6618 205.616 95.6618 202.784C95.6618 201.464 94.7018 200.42 93.0938 200.42C91.3058 200.42 90.5378 201.944 90.5378 201.944L91.1618 202.364C91.1618 202.364 91.8098 201.212 93.0458 201.212C94.1018 201.212 94.7978 201.908 94.7978 202.832C94.7978 205.112 90.4778 205.496 90.4778 208.46C90.4778 208.628 90.4898 208.808 90.5258 209ZM100.299 209.144C102.495 209.144 103.203 207.224 103.203 204.776C103.203 202.352 102.495 200.42 100.299 200.42C98.103 200.42 97.383 202.352 97.383 204.776C97.383 207.224 98.103 209.144 100.299 209.144ZM100.299 208.364C98.691 208.364 98.247 206.792 98.247 204.776C98.247 202.772 98.691 201.2 100.299 201.2C101.895 201.2 102.339 202.772 102.339 204.776C102.339 206.792 101.895 208.364 100.299 208.364Z" fill="#404040"/>
<path d="M47.86 228H48.592L49 225.66H51.076L50.668 228H51.4L51.808 225.66H53.488L53.596 224.988H51.928L52.336 222.636H54.016L54.136 221.964H52.456L52.876 219.564H52.144L51.724 221.964H49.648L50.068 219.564H49.336L48.916 221.964H47.212L47.104 222.636H48.796L48.376 224.988H46.684L46.564 225.66H48.268L47.86 228ZM49.12 224.988L49.528 222.636H51.604L51.184 224.988H49.12ZM61.0436 228H61.9196L58.8236 219.564H57.9356L54.8396 228H55.7156L56.6756 225.312H60.0716L61.0436 228ZM58.3916 220.44C58.3916 220.44 58.5716 221.136 58.7156 221.532L59.8196 224.592H56.9156L58.0436 221.532C58.1876 221.136 58.3676 220.44 58.3676 220.44H58.3916ZM62.6181 226.992C62.6181 226.992 63.6381 228.144 65.2941 228.144C66.8901 228.144 68.0661 226.944 68.0661 225.504C68.0661 223.68 66.4941 223.08 65.4261 223.02L67.9461 220.116V219.564H63.0141V220.308H66.1821C66.6261 220.308 66.8661 220.272 66.8661 220.272V220.296C66.8661 220.296 66.6501 220.5 66.4221 220.764L64.3101 223.236L64.5141 223.728H65.0901C66.1941 223.728 67.2141 224.34 67.2141 225.528C67.2141 226.608 66.2901 227.352 65.2821 227.352C63.9861 227.352 63.1221 226.356 63.1221 226.356L62.6181 226.992ZM69.4764 223.728C69.4764 226.188 71.2524 228.144 73.7484 228.144C75.8244 228.144 76.9764 226.836 76.9764 226.836L76.4964 226.248C76.4964 226.248 75.4644 227.376 73.7604 227.376C71.7564 227.376 70.3404 225.732 70.3404 223.716C70.3404 221.724 71.7564 220.188 73.7364 220.188C75.3204 220.188 76.3044 221.124 76.3044 221.124L76.7484 220.512C76.7484 220.512 75.7284 219.42 73.7124 219.42C71.3004 219.42 69.4764 221.28 69.4764 223.728ZM78.7709 228H81.4949C84.0269 228 85.7309 226.464 85.7309 223.776C85.7309 221.112 84.0269 219.564 81.4949 219.564H78.7709V228ZM79.5989 227.256V220.308H81.4109C83.4749 220.308 84.8669 221.532 84.8669 223.776C84.8669 226.032 83.4869 227.256 81.4109 227.256H79.5989ZM86.9697 226.992C86.9697 226.992 87.9897 228.144 89.6457 228.144C91.2417 228.144 92.4177 226.944 92.4177 225.504C92.4177 223.68 90.8457 223.08 89.7777 223.02L92.2977 220.116V219.564H87.3657V220.308H90.5337C90.9777 220.308 91.2177 220.272 91.2177 220.272V220.296C91.2177 220.296 91.0017 220.5 90.7737 220.764L88.6617 223.236L88.8657 223.728H89.4417C90.5457 223.728 91.5657 224.34 91.5657 225.528C91.5657 226.608 90.6417 227.352 89.6337 227.352C88.3377 227.352 87.4737 226.356 87.4737 226.356L86.9697 226.992ZM95.808 228.144C98.424 228.144 99.516 225.492 99.516 223.38C99.516 221.1 98.304 219.42 96.468 219.42C94.992 219.42 93.828 220.488 93.828 222.24C93.828 223.836 94.908 224.964 96.444 224.964C97.32 224.964 98.172 224.58 98.592 223.98H98.616C98.46 225.624 97.572 227.364 95.796 227.364C95.1 227.364 94.572 227.064 94.572 227.064L94.26 227.796C94.26 227.796 94.884 228.144 95.808 228.144ZM96.576 224.22C95.424 224.22 94.668 223.428 94.668 222.228C94.668 221.064 95.34 220.2 96.48 220.2C97.74 220.2 98.616 221.652 98.616 222.78C98.616 223.464 97.716 224.22 96.576 224.22Z" fill="#404040"/>
<path d="M1.224 189H2.052V185.448H4.176L6.084 189H7.032L5.196 185.604C5.064 185.376 4.98 185.268 4.98 185.268V185.244C5.928 184.98 6.576 184.104 6.576 182.964C6.576 181.944 6.096 181.14 5.304 180.792C4.968 180.648 4.584 180.564 3.72 180.564H1.224V189ZM2.052 184.704V181.308H3.756C4.404 181.308 4.704 181.38 4.956 181.512C5.448 181.776 5.724 182.292 5.724 182.988C5.724 184.044 5.076 184.704 4.056 184.704H2.052ZM8.19516 184.776C8.19516 187.284 10.0192 189.144 12.3232 189.144C14.0992 189.144 15.0712 188.004 15.0712 188.004H15.0952C15.0952 188.004 15.0832 188.184 15.0832 188.364V189H15.8512V184.968H13.6192V185.712H15.0592V187.14C15.0592 187.14 14.0512 188.376 12.4072 188.376C10.4872 188.376 9.05916 186.84 9.05916 184.764C9.05916 182.76 10.4392 181.188 12.4792 181.188C14.0152 181.188 14.9992 182.028 14.9992 182.028L15.4432 181.404C15.4432 181.404 14.3992 180.42 12.4432 180.42C10.0192 180.42 8.19516 182.34 8.19516 184.776ZM17.8529 189H20.8289C22.2449 189 23.3609 188.136 23.3609 186.636C23.3609 185.616 22.8089 184.788 21.9449 184.548V184.524C22.5929 184.2 23.0129 183.564 23.0129 182.688C23.0129 181.368 22.0649 180.564 20.7329 180.564H17.8529V189ZM18.6809 184.224V181.308H20.7209C21.6209 181.308 22.1609 181.884 22.1609 182.748C22.1609 183.624 21.5849 184.224 20.7329 184.224H18.6809ZM18.6809 188.256V184.944H20.8289C21.8129 184.944 22.4969 185.604 22.4969 186.612C22.4969 187.62 21.8609 188.256 20.8409 188.256H18.6809Z" fill="#404040"/>
<path d="M0.66 204.728C0.66 207.188 2.436 209.144 4.932 209.144C7.008 209.144 8.16 207.836 8.16 207.836L7.68 207.248C7.68 207.248 6.648 208.376 4.944 208.376C2.94 208.376 1.524 206.732 1.524 204.716C1.524 202.724 2.94 201.188 4.92 201.188C6.504 201.188 7.488 202.124 7.488 202.124L7.932 201.512C7.932 201.512 6.912 200.42 4.896 200.42C2.484 200.42 0.66 202.28 0.66 204.728ZM9.69047 209H10.5185L10.9865 203.096C11.0225 202.64 11.0105 201.896 11.0105 201.896H11.0345C11.0345 201.896 11.2985 202.676 11.4905 203.096L13.4705 207.428H14.2505L16.2305 203.096C16.4225 202.664 16.6745 201.92 16.6745 201.92H16.6985C16.6985 201.92 16.6865 202.64 16.7225 203.096L17.1905 209H18.0185L17.3465 200.564H16.4945L14.2865 205.52C14.0945 205.952 13.8665 206.552 13.8665 206.552H13.8425C13.8425 206.552 13.6265 205.952 13.4345 205.52L11.2265 200.564H10.3625L9.69047 209ZM21.8912 209H22.7312V205.376L25.5632 200.564H24.6272L22.8392 203.624C22.5752 204.068 22.3232 204.632 22.3232 204.632H22.2992C22.2992 204.632 22.0352 204.056 21.7832 203.624L19.9952 200.564H19.0472L21.8912 205.376V209ZM26.9818 209H27.8098V204.968H29.2378L31.6498 209H32.6218L29.9338 204.572V204.548L32.4538 200.564H31.5058L29.2378 204.224H27.8098V200.564H26.9818V209Z" fill="#404040"/>
<path d="M1.224 228H2.052V224.148H6.948V228H7.776V219.564H6.948V223.404H2.052V219.564H1.224V228ZM10.224 228H15.192V227.256H11.052V224.124H14.256V223.38H11.052V220.308H14.976V219.564H10.224V228ZM16.1675 228H17.1275L18.8555 225.096C19.1195 224.652 19.3715 224.148 19.3715 224.148H19.3955C19.3955 224.148 19.6595 224.652 19.9235 225.084L21.6755 228H22.6355L19.9355 223.596L22.4075 219.564H21.4235L19.9355 222.06C19.6715 222.492 19.4315 223.032 19.4315 223.032H19.4075C19.4075 223.032 19.1075 222.492 18.8555 222.06L17.3795 219.564H16.4075L18.8555 223.596L16.1675 228Z" fill="#404040"/>
</svg>
