<svg width="169" height="229" viewBox="0 0 169 229" fill="none" xmlns="http://www.w3.org/2000/svg">
<rect width="169" height="150" fill="#008471"/>
<path d="M49.756 189.144C51.952 189.144 52.66 187.224 52.66 184.776C52.66 182.352 51.952 180.42 49.756 180.42C47.56 180.42 46.84 182.352 46.84 184.776C46.84 187.224 47.56 189.144 49.756 189.144ZM49.756 188.364C48.148 188.364 47.704 186.792 47.704 184.776C47.704 182.772 48.148 181.2 49.756 181.2C51.352 181.2 51.796 182.772 51.796 184.776C51.796 186.792 51.352 188.364 49.756 188.364ZM57.3947 189H61.9667V188.256H60.1067V180.564H59.3387L57.4307 182.46L57.9587 183L58.8587 182.1C59.1947 181.776 59.2787 181.596 59.2787 181.596H59.3027C59.3027 181.596 59.2907 181.824 59.2907 182.064V188.256H57.3947V189ZM62.8525 187.992C62.8525 187.992 63.8725 189.144 65.5285 189.144C67.1245 189.144 68.3005 187.944 68.3005 186.504C68.3005 184.68 66.7285 184.08 65.6605 184.02L68.1805 181.116V180.564H63.2485V181.308H66.4165C66.8605 181.308 67.1005 181.272 67.1005 181.272V181.296C67.1005 181.296 66.8845 181.5 66.6565 181.764L64.5445 184.236L64.7485 184.728H65.3245C66.4285 184.728 67.4485 185.34 67.4485 186.528C67.4485 187.608 66.5245 188.352 65.5165 188.352C64.2205 188.352 63.3565 187.356 63.3565 187.356L62.8525 187.992ZM69.8188 189H75.0868V188.256H70.6828C70.6948 186.012 74.9548 185.616 74.9548 182.784C74.9548 181.464 73.9948 180.42 72.3868 180.42C70.5988 180.42 69.8308 181.944 69.8308 181.944L70.4548 182.364C70.4548 182.364 71.1028 181.212 72.3388 181.212C73.3948 181.212 74.0908 181.908 74.0908 182.832C74.0908 185.112 69.7708 185.496 69.7708 188.46C69.7708 188.628 69.7828 188.808 69.8188 189ZM79.7306 189H84.3026V188.256H82.4426V180.564H81.6746L79.7666 182.46L80.2946 183L81.1946 182.1C81.5306 181.776 81.6146 181.596 81.6146 181.596H81.6386C81.6386 181.596 81.6266 181.824 81.6266 182.064V188.256H79.7306V189ZM85.3204 189H89.8924V188.256H88.0324V180.564H87.2644L85.3564 182.46L85.8844 183L86.7844 182.1C87.1204 181.776 87.2044 181.596 87.2044 181.596H87.2284C87.2284 181.596 87.2164 181.824 87.2164 182.064V188.256H85.3204V189ZM90.7783 187.992C90.7783 187.992 91.7983 189.144 93.4543 189.144C95.0503 189.144 96.2263 187.944 96.2263 186.504C96.2263 184.68 94.6543 184.08 93.5863 184.02L96.1063 181.116V180.564H91.1743V181.308H94.3423C94.7863 181.308 95.0263 181.272 95.0263 181.272V181.296C95.0263 181.296 94.8103 181.5 94.5823 181.764L92.4703 184.236L92.6743 184.728H93.2503C94.3543 184.728 95.3743 185.34 95.3743 186.528C95.3743 187.608 94.4503 188.352 93.4423 188.352C92.1463 188.352 91.2823 187.356 91.2823 187.356L90.7783 187.992Z" fill="#404040"/>
<path d="M46.672 209H51.244V208.256H49.384V200.564H48.616L46.708 202.46L47.236 203L48.136 202.1C48.472 201.776 48.556 201.596 48.556 201.596H48.58C48.58 201.596 48.568 201.824 48.568 202.064V208.256H46.672V209ZM55.3458 209.144C57.5418 209.144 58.2498 207.224 58.2498 204.776C58.2498 202.352 57.5418 200.42 55.3458 200.42C53.1498 200.42 52.4298 202.352 52.4298 204.776C52.4298 207.224 53.1498 209.144 55.3458 209.144ZM55.3458 208.364C53.7378 208.364 53.2938 206.792 53.2938 204.776C53.2938 202.772 53.7378 201.2 55.3458 201.2C56.9418 201.2 57.3858 202.772 57.3858 204.776C57.3858 206.792 56.9418 208.364 55.3458 208.364ZM62.8458 209.144C65.0418 209.144 65.7498 207.224 65.7498 204.776C65.7498 202.352 65.0418 200.42 62.8458 200.42C60.6498 200.42 59.9298 202.352 59.9298 204.776C59.9298 207.224 60.6498 209.144 62.8458 209.144ZM62.8458 208.364C61.2378 208.364 60.7938 206.792 60.7938 204.776C60.7938 202.772 61.2378 201.2 62.8458 201.2C64.4418 201.2 64.8858 202.772 64.8858 204.776C64.8858 206.792 64.4418 208.364 62.8458 208.364ZM73.5685 209.144C75.7645 209.144 76.4725 207.224 76.4725 204.776C76.4725 202.352 75.7645 200.42 73.5685 200.42C71.3725 200.42 70.6525 202.352 70.6525 204.776C70.6525 207.224 71.3725 209.144 73.5685 209.144ZM73.5685 208.364C71.9605 208.364 71.5165 206.792 71.5165 204.776C71.5165 202.772 71.9605 201.2 73.5685 201.2C75.1645 201.2 75.6085 202.772 75.6085 204.776C75.6085 206.792 75.1645 208.364 73.5685 208.364ZM81.2072 209H85.7792V208.256H83.9192V200.564H83.1512L81.2432 202.46L81.7712 203L82.6712 202.1C83.0072 201.776 83.0912 201.596 83.0912 201.596H83.1152C83.1152 201.596 83.1032 201.824 83.1032 202.064V208.256H81.2072V209ZM86.3338 206.66H90.5578V209H91.3858V206.66H92.5858V205.928H91.3858V200.564H90.4858L86.3338 206.12V206.66ZM87.3418 205.928V205.904L90.1498 202.244C90.3778 201.944 90.5698 201.608 90.5698 201.608H90.5938C90.5938 201.608 90.5578 202.04 90.5578 202.4V205.928H87.3418ZM96.7166 206.66H100.941V209H101.769V206.66H102.969V205.928H101.769V200.564H100.869L96.7166 206.12V206.66ZM97.7246 205.928V205.904L100.533 202.244C100.761 201.944 100.953 201.608 100.953 201.608H100.977C100.977 201.608 100.941 202.04 100.941 202.4V205.928H97.7246ZM104.237 206.576C104.237 208.172 105.569 209.144 107.093 209.144C108.725 209.144 109.889 208.028 109.889 206.708C109.889 205.832 109.361 205.292 108.665 204.896C108.761 204.8 109.697 203.816 109.697 202.616C109.697 201.296 108.689 200.42 107.117 200.42C105.413 200.42 104.573 201.464 104.573 202.556C104.573 203.36 105.017 203.876 105.617 204.272C105.425 204.392 104.237 205.22 104.237 206.576ZM109.037 206.696C109.037 207.692 108.089 208.376 107.093 208.376C106.073 208.376 105.089 207.68 105.089 206.54C105.089 205.46 106.037 204.788 106.301 204.632C107.549 205.232 109.037 205.604 109.037 206.696ZM105.413 202.568C105.413 201.812 106.037 201.188 107.117 201.188C108.137 201.188 108.857 201.752 108.857 202.652C108.857 203.66 108.137 204.416 107.981 204.56C106.769 204.032 105.413 203.66 105.413 202.568Z" fill="#404040"/>
<path d="M47.86 228H48.592L49 225.66H51.076L50.668 228H51.4L51.808 225.66H53.488L53.596 224.988H51.928L52.336 222.636H54.016L54.136 221.964H52.456L52.876 219.564H52.144L51.724 221.964H49.648L50.068 219.564H49.336L48.916 221.964H47.212L47.104 222.636H48.796L48.376 224.988H46.684L46.564 225.66H48.268L47.86 228ZM49.12 224.988L49.528 222.636H51.604L51.184 224.988H49.12ZM58.4396 228.144C60.6356 228.144 61.3436 226.224 61.3436 223.776C61.3436 221.352 60.6356 219.42 58.4396 219.42C56.2436 219.42 55.5236 221.352 55.5236 223.776C55.5236 226.224 56.2436 228.144 58.4396 228.144ZM58.4396 227.364C56.8316 227.364 56.3876 225.792 56.3876 223.776C56.3876 221.772 56.8316 220.2 58.4396 220.2C60.0356 220.2 60.4796 221.772 60.4796 223.776C60.4796 225.792 60.0356 227.364 58.4396 227.364ZM65.9396 228.144C68.1356 228.144 68.8436 226.224 68.8436 223.776C68.8436 221.352 68.1356 219.42 65.9396 219.42C63.7436 219.42 63.0236 221.352 63.0236 223.776C63.0236 226.224 63.7436 228.144 65.9396 228.144ZM65.9396 227.364C64.3316 227.364 63.8876 225.792 63.8876 223.776C63.8876 221.772 64.3316 220.2 65.9396 220.2C67.5356 220.2 67.9796 221.772 67.9796 223.776C67.9796 225.792 67.5356 227.364 65.9396 227.364ZM70.4516 225.576C70.4516 227.172 71.7836 228.144 73.3076 228.144C74.9396 228.144 76.1036 227.028 76.1036 225.708C76.1036 224.832 75.5756 224.292 74.8796 223.896C74.9756 223.8 75.9116 222.816 75.9116 221.616C75.9116 220.296 74.9036 219.42 73.3316 219.42C71.6276 219.42 70.7876 220.464 70.7876 221.556C70.7876 222.36 71.2316 222.876 71.8316 223.272C71.6396 223.392 70.4516 224.22 70.4516 225.576ZM75.2516 225.696C75.2516 226.692 74.3036 227.376 73.3076 227.376C72.2876 227.376 71.3036 226.68 71.3036 225.54C71.3036 224.46 72.2516 223.788 72.5156 223.632C73.7636 224.232 75.2516 224.604 75.2516 225.696ZM71.6276 221.568C71.6276 220.812 72.2516 220.188 73.3316 220.188C74.3516 220.188 75.0716 220.752 75.0716 221.652C75.0716 222.66 74.3516 223.416 74.1956 223.56C72.9836 223.032 71.6276 222.66 71.6276 221.568ZM77.3103 225.66H81.5343V228H82.3623V225.66H83.5623V224.928H82.3623V219.564H81.4623L77.3103 225.12V225.66ZM78.3183 224.928V224.904L81.1263 221.244C81.3543 220.944 81.5463 220.608 81.5463 220.608H81.5703C81.5703 220.608 81.5343 221.04 81.5343 221.4V224.928H78.3183ZM85.2265 228H86.0905L90.0025 220.14V219.564H84.5185V220.308H88.4665C88.8865 220.308 89.1025 220.284 89.1025 220.284V220.308C89.1025 220.308 88.8625 220.632 88.6345 221.088L85.2265 228ZM90.9689 228H95.5409V227.256H93.6809V219.564H92.9129L91.0049 221.46L91.5329 222L92.4329 221.1C92.7689 220.776 92.8529 220.596 92.8529 220.596H92.8769C92.8769 220.596 92.8649 220.824 92.8649 221.064V227.256H90.9689V228Z" fill="#404040"/>
<path d="M1.224 189H2.052V185.448H4.176L6.084 189H7.032L5.196 185.604C5.064 185.376 4.98 185.268 4.98 185.268V185.244C5.928 184.98 6.576 184.104 6.576 182.964C6.576 181.944 6.096 181.14 5.304 180.792C4.968 180.648 4.584 180.564 3.72 180.564H1.224V189ZM2.052 184.704V181.308H3.756C4.404 181.308 4.704 181.38 4.956 181.512C5.448 181.776 5.724 182.292 5.724 182.988C5.724 184.044 5.076 184.704 4.056 184.704H2.052ZM8.19516 184.776C8.19516 187.284 10.0192 189.144 12.3232 189.144C14.0992 189.144 15.0712 188.004 15.0712 188.004H15.0952C15.0952 188.004 15.0832 188.184 15.0832 188.364V189H15.8512V184.968H13.6192V185.712H15.0592V187.14C15.0592 187.14 14.0512 188.376 12.4072 188.376C10.4872 188.376 9.05916 186.84 9.05916 184.764C9.05916 182.76 10.4392 181.188 12.4792 181.188C14.0152 181.188 14.9992 182.028 14.9992 182.028L15.4432 181.404C15.4432 181.404 14.3992 180.42 12.4432 180.42C10.0192 180.42 8.19516 182.34 8.19516 184.776ZM17.8529 189H20.8289C22.2449 189 23.3609 188.136 23.3609 186.636C23.3609 185.616 22.8089 184.788 21.9449 184.548V184.524C22.5929 184.2 23.0129 183.564 23.0129 182.688C23.0129 181.368 22.0649 180.564 20.7329 180.564H17.8529V189ZM18.6809 184.224V181.308H20.7209C21.6209 181.308 22.1609 181.884 22.1609 182.748C22.1609 183.624 21.5849 184.224 20.7329 184.224H18.6809ZM18.6809 188.256V184.944H20.8289C21.8129 184.944 22.4969 185.604 22.4969 186.612C22.4969 187.62 21.8609 188.256 20.8409 188.256H18.6809Z" fill="#404040"/>
<path d="M0.66 204.728C0.66 207.188 2.436 209.144 4.932 209.144C7.008 209.144 8.16 207.836 8.16 207.836L7.68 207.248C7.68 207.248 6.648 208.376 4.944 208.376C2.94 208.376 1.524 206.732 1.524 204.716C1.524 202.724 2.94 201.188 4.92 201.188C6.504 201.188 7.488 202.124 7.488 202.124L7.932 201.512C7.932 201.512 6.912 200.42 4.896 200.42C2.484 200.42 0.66 202.28 0.66 204.728ZM9.69047 209H10.5185L10.9865 203.096C11.0225 202.64 11.0105 201.896 11.0105 201.896H11.0345C11.0345 201.896 11.2985 202.676 11.4905 203.096L13.4705 207.428H14.2505L16.2305 203.096C16.4225 202.664 16.6745 201.92 16.6745 201.92H16.6985C16.6985 201.92 16.6865 202.64 16.7225 203.096L17.1905 209H18.0185L17.3465 200.564H16.4945L14.2865 205.52C14.0945 205.952 13.8665 206.552 13.8665 206.552H13.8425C13.8425 206.552 13.6265 205.952 13.4345 205.52L11.2265 200.564H10.3625L9.69047 209ZM21.8912 209H22.7312V205.376L25.5632 200.564H24.6272L22.8392 203.624C22.5752 204.068 22.3232 204.632 22.3232 204.632H22.2992C22.2992 204.632 22.0352 204.056 21.7832 203.624L19.9952 200.564H19.0472L21.8912 205.376V209ZM26.9818 209H27.8098V204.968H29.2378L31.6498 209H32.6218L29.9338 204.572V204.548L32.4538 200.564H31.5058L29.2378 204.224H27.8098V200.564H26.9818V209Z" fill="#404040"/>
<path d="M1.224 228H2.052V224.148H6.948V228H7.776V219.564H6.948V223.404H2.052V219.564H1.224V228ZM10.224 228H15.192V227.256H11.052V224.124H14.256V223.38H11.052V220.308H14.976V219.564H10.224V228ZM16.1675 228H17.1275L18.8555 225.096C19.1195 224.652 19.3715 224.148 19.3715 224.148H19.3955C19.3955 224.148 19.6595 224.652 19.9235 225.084L21.6755 228H22.6355L19.9355 223.596L22.4075 219.564H21.4235L19.9355 222.06C19.6715 222.492 19.4315 223.032 19.4315 223.032H19.4075C19.4075 223.032 19.1075 222.492 18.8555 222.06L17.3795 219.564H16.4075L18.8555 223.596L16.1675 228Z" fill="#404040"/>
</svg>
