<svg width="169" height="229" viewBox="0 0 169 229" fill="none" xmlns="http://www.w3.org/2000/svg">
<rect width="169" height="150" fill="#1B75BC"/>
<path d="M46.768 189H52.036V188.256H47.632C47.644 186.012 51.904 185.616 51.904 182.784C51.904 181.464 50.944 180.42 49.336 180.42C47.548 180.42 46.78 181.944 46.78 181.944L47.404 182.364C47.404 182.364 48.052 181.212 49.288 181.212C50.344 181.212 51.04 181.908 51.04 182.832C51.04 185.112 46.72 185.496 46.72 188.46C46.72 188.628 46.732 188.808 46.768 189ZM53.9492 189H54.8132L58.7252 181.14V180.564H53.2412V181.308H57.1892C57.6092 181.308 57.8252 181.284 57.8252 181.284V181.308C57.8252 181.308 57.5852 181.632 57.3572 182.088L53.9492 189ZM62.9142 189H67.4862V188.256H65.6262V180.564H64.8582L62.9502 182.46L63.4782 183L64.3782 182.1C64.7142 181.776 64.7982 181.596 64.7982 181.596H64.8222C64.8222 181.596 64.8102 181.824 64.8102 182.064V188.256H62.9142V189ZM68.504 189H73.076V188.256H71.216V180.564H70.448L68.54 182.46L69.068 183L69.968 182.1C70.304 181.776 70.388 181.596 70.388 181.596H70.412C70.412 181.596 70.4 181.824 70.4 182.064V188.256H68.504V189ZM74.5859 189H75.4499L79.3619 181.14V180.564H73.8779V181.308H77.8259C78.2459 181.308 78.4619 181.284 78.4619 181.284V181.308C78.4619 181.308 78.2219 181.632 77.9939 182.088L74.5859 189ZM83.5509 189H88.1229V188.256H86.2629V180.564H85.4949L83.5869 182.46L84.1149 183L85.0149 182.1C85.3509 181.776 85.4349 181.596 85.4349 181.596H85.4589C85.4589 181.596 85.4469 181.824 85.4469 182.064V188.256H83.5509V189ZM89.2368 186.576C89.2368 188.172 90.5688 189.144 92.0928 189.144C93.7248 189.144 94.8888 188.028 94.8888 186.708C94.8888 185.832 94.3608 185.292 93.6648 184.896C93.7608 184.8 94.6968 183.816 94.6968 182.616C94.6968 181.296 93.6888 180.42 92.1168 180.42C90.4128 180.42 89.5728 181.464 89.5728 182.556C89.5728 183.36 90.0168 183.876 90.6168 184.272C90.4248 184.392 89.2368 185.22 89.2368 186.576ZM94.0368 186.696C94.0368 187.692 93.0888 188.376 92.0928 188.376C91.0728 188.376 90.0888 187.68 90.0888 186.54C90.0888 185.46 91.0368 184.788 91.3008 184.632C92.5488 185.232 94.0368 185.604 94.0368 186.696ZM90.4128 182.568C90.4128 181.812 91.0368 181.188 92.1168 181.188C93.1368 181.188 93.8568 181.752 93.8568 182.652C93.8568 183.66 93.1368 184.416 92.9808 184.56C91.7688 184.032 90.4128 183.66 90.4128 182.568ZM96.4555 186.576C96.4555 188.172 97.7875 189.144 99.3115 189.144C100.944 189.144 102.108 188.028 102.108 186.708C102.108 185.832 101.58 185.292 100.884 184.896C100.98 184.8 101.916 183.816 101.916 182.616C101.916 181.296 100.908 180.42 99.3355 180.42C97.6315 180.42 96.7915 181.464 96.7915 182.556C96.7915 183.36 97.2355 183.876 97.8355 184.272C97.6435 184.392 96.4555 185.22 96.4555 186.576ZM101.256 186.696C101.256 187.692 100.308 188.376 99.3115 188.376C98.2915 188.376 97.3075 187.68 97.3075 186.54C97.3075 185.46 98.2555 184.788 98.5195 184.632C99.7675 185.232 101.256 185.604 101.256 186.696ZM97.6315 182.568C97.6315 181.812 98.2555 181.188 99.3355 181.188C100.356 181.188 101.076 181.752 101.076 182.652C101.076 183.66 100.356 184.416 100.2 184.56C98.9875 184.032 97.6315 183.66 97.6315 182.568Z" fill="#404040"/>
<path d="M46.768 206.576C46.768 208.172 48.1 209.144 49.624 209.144C51.256 209.144 52.42 208.028 52.42 206.708C52.42 205.832 51.892 205.292 51.196 204.896C51.292 204.8 52.228 203.816 52.228 202.616C52.228 201.296 51.22 200.42 49.648 200.42C47.944 200.42 47.104 201.464 47.104 202.556C47.104 203.36 47.548 203.876 48.148 204.272C47.956 204.392 46.768 205.22 46.768 206.576ZM51.568 206.696C51.568 207.692 50.62 208.376 49.624 208.376C48.604 208.376 47.62 207.68 47.62 206.54C47.62 205.46 48.568 204.788 48.832 204.632C50.08 205.232 51.568 205.604 51.568 206.696ZM47.944 202.568C47.944 201.812 48.568 201.188 49.648 201.188C50.668 201.188 51.388 201.752 51.388 202.652C51.388 203.66 50.668 204.416 50.512 204.56C49.3 204.032 47.944 203.66 47.944 202.568ZM57.0468 209.144C58.5228 209.144 59.6988 208.076 59.6988 206.324C59.6988 204.728 58.6068 203.6 57.0708 203.6C56.1948 203.6 55.3428 203.984 54.9348 204.584H54.9108C55.0548 202.94 55.9548 201.2 57.7188 201.2C58.4148 201.2 58.9428 201.5 58.9428 201.5L59.2548 200.768C59.2548 200.768 58.6428 200.42 57.7068 200.42C55.1028 200.42 53.9988 203.072 53.9988 205.184C53.9988 207.464 55.2108 209.144 57.0468 209.144ZM57.0348 208.364C55.7748 208.364 54.8988 206.912 54.8988 205.784C54.8988 205.1 55.8108 204.344 56.9388 204.344C58.0908 204.344 58.8468 205.136 58.8468 206.336C58.8468 207.5 58.1748 208.364 57.0348 208.364ZM64.1181 207.992C64.1181 207.992 65.1381 209.144 66.7941 209.144C68.3901 209.144 69.5661 207.944 69.5661 206.504C69.5661 204.68 67.9941 204.08 66.9261 204.02L69.4461 201.116V200.564H64.5141V201.308H67.6821C68.1261 201.308 68.3661 201.272 68.3661 201.272V201.296C68.3661 201.296 68.1501 201.5 67.9221 201.764L65.8101 204.236L66.0141 204.728H66.5901C67.6941 204.728 68.7141 205.34 68.7141 206.528C68.7141 207.608 67.7901 208.352 66.7821 208.352C65.4861 208.352 64.6221 207.356 64.6221 207.356L64.1181 207.992ZM71.0844 206.576C71.0844 208.172 72.4164 209.144 73.9404 209.144C75.5724 209.144 76.7364 208.028 76.7364 206.708C76.7364 205.832 76.2084 205.292 75.5124 204.896C75.6084 204.8 76.5444 203.816 76.5444 202.616C76.5444 201.296 75.5364 200.42 73.9644 200.42C72.2604 200.42 71.4204 201.464 71.4204 202.556C71.4204 203.36 71.8644 203.876 72.4644 204.272C72.2724 204.392 71.0844 205.22 71.0844 206.576ZM75.8844 206.696C75.8844 207.692 74.9364 208.376 73.9404 208.376C72.9204 208.376 71.9364 207.68 71.9364 206.54C71.9364 205.46 72.8844 204.788 73.1484 204.632C74.3964 205.232 75.8844 205.604 75.8844 206.696ZM72.2604 202.568C72.2604 201.812 72.8844 201.188 73.9644 201.188C74.9844 201.188 75.7044 201.752 75.7044 202.652C75.7044 203.66 74.9844 204.416 74.8284 204.56C73.6164 204.032 72.2604 203.66 72.2604 202.568ZM84.5138 209.144C86.7098 209.144 87.4178 207.224 87.4178 204.776C87.4178 202.352 86.7098 200.42 84.5138 200.42C82.3178 200.42 81.5978 202.352 81.5978 204.776C81.5978 207.224 82.3178 209.144 84.5138 209.144ZM84.5138 208.364C82.9058 208.364 82.4618 206.792 82.4618 204.776C82.4618 202.772 82.9058 201.2 84.5138 201.2C86.1098 201.2 86.5538 202.772 86.5538 204.776C86.5538 206.792 86.1098 208.364 84.5138 208.364ZM92.2485 209H97.5165V208.256H93.1125C93.1245 206.012 97.3845 205.616 97.3845 202.784C97.3845 201.464 96.4245 200.42 94.8165 200.42C93.0285 200.42 92.2605 201.944 92.2605 201.944L92.8845 202.364C92.8845 202.364 93.5325 201.212 94.7685 201.212C95.8245 201.212 96.5205 201.908 96.5205 202.832C96.5205 205.112 92.2005 205.496 92.2005 208.46C92.2005 208.628 92.2125 208.808 92.2485 209ZM102.094 209.144C103.57 209.144 104.746 208.076 104.746 206.324C104.746 204.728 103.654 203.6 102.118 203.6C101.242 203.6 100.39 203.984 99.9816 204.584H99.9576C100.102 202.94 101.002 201.2 102.766 201.2C103.462 201.2 103.99 201.5 103.99 201.5L104.302 200.768C104.302 200.768 103.69 200.42 102.754 200.42C100.15 200.42 99.0456 203.072 99.0456 205.184C99.0456 207.464 100.258 209.144 102.094 209.144ZM102.082 208.364C100.822 208.364 99.9456 206.912 99.9456 205.784C99.9456 205.1 100.858 204.344 101.986 204.344C103.138 204.344 103.894 205.136 103.894 206.336C103.894 207.5 103.222 208.364 102.082 208.364Z" fill="#404040"/>
<path d="M47.86 228H48.592L49 225.66H51.076L50.668 228H51.4L51.808 225.66H53.488L53.596 224.988H51.928L52.336 222.636H54.016L54.136 221.964H52.456L52.876 219.564H52.144L51.724 221.964H49.648L50.068 219.564H49.336L48.916 221.964H47.212L47.104 222.636H48.796L48.376 224.988H46.684L46.564 225.66H48.268L47.86 228ZM49.12 224.988L49.528 222.636H51.604L51.184 224.988H49.12ZM55.3556 228H59.9276V227.256H58.0676V219.564H57.2996L55.3916 221.46L55.9196 222L56.8196 221.1C57.1556 220.776 57.2396 220.596 57.2396 220.596H57.2636C57.2636 220.596 57.2516 220.824 57.2516 221.064V227.256H55.3556V228ZM61.4974 228H64.4734C65.8894 228 67.0054 227.136 67.0054 225.636C67.0054 224.616 66.4534 223.788 65.5894 223.548V223.524C66.2374 223.2 66.6574 222.564 66.6574 221.688C66.6574 220.368 65.7094 219.564 64.3774 219.564H61.4974V228ZM62.3254 223.224V220.308H64.3654C65.2654 220.308 65.8054 220.884 65.8054 221.748C65.8054 222.624 65.2294 223.224 64.3774 223.224H62.3254ZM62.3254 227.256V223.944H64.4734C65.4574 223.944 66.1414 224.604 66.1414 225.612C66.1414 226.62 65.5054 227.256 64.4854 227.256H62.3254ZM68.9492 228H69.8132L73.7252 220.14V219.564H68.2412V220.308H72.1892C72.6092 220.308 72.8252 220.284 72.8252 220.284V220.308C72.8252 220.308 72.5852 220.632 72.3572 221.088L68.9492 228ZM74.6675 226.944C74.6675 226.944 75.4595 228.144 77.1395 228.144C78.7835 228.144 80.0675 226.932 80.0675 225.372C80.0675 223.848 78.8555 222.624 77.1635 222.624C76.4075 222.624 75.8795 222.948 75.8795 222.948H75.8555C75.8555 222.948 75.9035 222.768 75.9395 222.468L76.1795 220.308H79.5395V219.564H75.4595L75.0035 223.656L75.5315 223.848C75.5315 223.848 76.1675 223.392 77.0675 223.392C78.2675 223.392 79.2035 224.22 79.2035 225.372C79.2035 226.524 78.2675 227.352 77.1035 227.352C75.8195 227.352 75.1955 226.368 75.1955 226.368L74.6675 226.944ZM81.9349 228H84.9109C86.3269 228 87.4429 227.136 87.4429 225.636C87.4429 224.616 86.8909 223.788 86.0269 223.548V223.524C86.6749 223.2 87.0949 222.564 87.0949 221.688C87.0949 220.368 86.1469 219.564 84.8149 219.564H81.9349V228ZM82.7629 223.224V220.308H84.8029C85.7029 220.308 86.2429 220.884 86.2429 221.748C86.2429 222.624 85.6669 223.224 84.8149 223.224H82.7629ZM82.7629 227.256V223.944H84.9109C85.8949 223.944 86.5789 224.604 86.5789 225.612C86.5789 226.62 85.9429 227.256 84.9229 227.256H82.7629ZM88.8827 223.728C88.8827 226.188 90.6587 228.144 93.1547 228.144C95.2307 228.144 96.3827 226.836 96.3827 226.836L95.9027 226.248C95.9027 226.248 94.8707 227.376 93.1667 227.376C91.1627 227.376 89.7467 225.732 89.7467 223.716C89.7467 221.724 91.1627 220.188 93.1427 220.188C94.7267 220.188 95.7107 221.124 95.7107 221.124L96.1547 220.512C96.1547 220.512 95.1347 219.42 93.1187 219.42C90.7067 219.42 88.8827 221.28 88.8827 223.728Z" fill="#404040"/>
<path d="M1.224 189H2.052V185.448H4.176L6.084 189H7.032L5.196 185.604C5.064 185.376 4.98 185.268 4.98 185.268V185.244C5.928 184.98 6.576 184.104 6.576 182.964C6.576 181.944 6.096 181.14 5.304 180.792C4.968 180.648 4.584 180.564 3.72 180.564H1.224V189ZM2.052 184.704V181.308H3.756C4.404 181.308 4.704 181.38 4.956 181.512C5.448 181.776 5.724 182.292 5.724 182.988C5.724 184.044 5.076 184.704 4.056 184.704H2.052ZM8.19516 184.776C8.19516 187.284 10.0192 189.144 12.3232 189.144C14.0992 189.144 15.0712 188.004 15.0712 188.004H15.0952C15.0952 188.004 15.0832 188.184 15.0832 188.364V189H15.8512V184.968H13.6192V185.712H15.0592V187.14C15.0592 187.14 14.0512 188.376 12.4072 188.376C10.4872 188.376 9.05916 186.84 9.05916 184.764C9.05916 182.76 10.4392 181.188 12.4792 181.188C14.0152 181.188 14.9992 182.028 14.9992 182.028L15.4432 181.404C15.4432 181.404 14.3992 180.42 12.4432 180.42C10.0192 180.42 8.19516 182.34 8.19516 184.776ZM17.8529 189H20.8289C22.2449 189 23.3609 188.136 23.3609 186.636C23.3609 185.616 22.8089 184.788 21.9449 184.548V184.524C22.5929 184.2 23.0129 183.564 23.0129 182.688C23.0129 181.368 22.0649 180.564 20.7329 180.564H17.8529V189ZM18.6809 184.224V181.308H20.7209C21.6209 181.308 22.1609 181.884 22.1609 182.748C22.1609 183.624 21.5849 184.224 20.7329 184.224H18.6809ZM18.6809 188.256V184.944H20.8289C21.8129 184.944 22.4969 185.604 22.4969 186.612C22.4969 187.62 21.8609 188.256 20.8409 188.256H18.6809Z" fill="#404040"/>
<path d="M0.66 204.728C0.66 207.188 2.436 209.144 4.932 209.144C7.008 209.144 8.16 207.836 8.16 207.836L7.68 207.248C7.68 207.248 6.648 208.376 4.944 208.376C2.94 208.376 1.524 206.732 1.524 204.716C1.524 202.724 2.94 201.188 4.92 201.188C6.504 201.188 7.488 202.124 7.488 202.124L7.932 201.512C7.932 201.512 6.912 200.42 4.896 200.42C2.484 200.42 0.66 202.28 0.66 204.728ZM9.69047 209H10.5185L10.9865 203.096C11.0225 202.64 11.0105 201.896 11.0105 201.896H11.0345C11.0345 201.896 11.2985 202.676 11.4905 203.096L13.4705 207.428H14.2505L16.2305 203.096C16.4225 202.664 16.6745 201.92 16.6745 201.92H16.6985C16.6985 201.92 16.6865 202.64 16.7225 203.096L17.1905 209H18.0185L17.3465 200.564H16.4945L14.2865 205.52C14.0945 205.952 13.8665 206.552 13.8665 206.552H13.8425C13.8425 206.552 13.6265 205.952 13.4345 205.52L11.2265 200.564H10.3625L9.69047 209ZM21.8912 209H22.7312V205.376L25.5632 200.564H24.6272L22.8392 203.624C22.5752 204.068 22.3232 204.632 22.3232 204.632H22.2992C22.2992 204.632 22.0352 204.056 21.7832 203.624L19.9952 200.564H19.0472L21.8912 205.376V209ZM26.9818 209H27.8098V204.968H29.2378L31.6498 209H32.6218L29.9338 204.572V204.548L32.4538 200.564H31.5058L29.2378 204.224H27.8098V200.564H26.9818V209Z" fill="#404040"/>
<path d="M1.224 228H2.052V224.148H6.948V228H7.776V219.564H6.948V223.404H2.052V219.564H1.224V228ZM10.224 228H15.192V227.256H11.052V224.124H14.256V223.38H11.052V220.308H14.976V219.564H10.224V228ZM16.1675 228H17.1275L18.8555 225.096C19.1195 224.652 19.3715 224.148 19.3715 224.148H19.3955C19.3955 224.148 19.6595 224.652 19.9235 225.084L21.6755 228H22.6355L19.9355 223.596L22.4075 219.564H21.4235L19.9355 222.06C19.6715 222.492 19.4315 223.032 19.4315 223.032H19.4075C19.4075 223.032 19.1075 222.492 18.8555 222.06L17.3795 219.564H16.4075L18.8555 223.596L16.1675 228Z" fill="#404040"/>
</svg>
