<svg width="337" height="293" viewBox="0 0 337 293" fill="none" xmlns="http://www.w3.org/2000/svg">
<path d="M257.798 217.144C257.798 218.936 259.268 220.168 261.242 220.168C263.3 220.168 264.63 218.81 264.63 217.27C264.63 216.248 264.042 215.632 263.286 215.17C263.412 215.03 264.462 213.91 264.462 212.594C264.462 210.97 263.188 209.948 261.354 209.948C259.268 209.948 258.274 211.222 258.274 212.538C258.274 213.448 258.736 214.05 259.38 214.512C259.114 214.694 257.798 215.632 257.798 217.144ZM263.202 217.228C263.202 218.25 262.278 218.922 261.242 218.922C260.192 218.922 259.212 218.194 259.212 217.06C259.212 215.996 260.08 215.324 260.402 215.1C261.732 215.744 263.202 216.164 263.202 217.228ZM259.646 212.566C259.646 211.81 260.248 211.194 261.34 211.194C262.376 211.194 263.104 211.768 263.104 212.678C263.104 213.714 262.39 214.47 262.236 214.624C260.962 214.078 259.646 213.658 259.646 212.566ZM269.884 220H275.568V218.796H273.412V210.116H272.18L269.814 212.412L270.654 213.28L271.578 212.37C271.942 212.02 272.054 211.796 272.054 211.796H272.082C272.082 211.796 272.068 212.104 272.068 212.412V218.796H269.884V220ZM276.621 218.796C276.621 218.796 277.615 220.168 279.645 220.168C281.647 220.168 283.145 218.74 283.145 216.836C283.145 215.058 281.787 213.616 279.701 213.616C278.973 213.616 278.427 213.924 278.427 213.924H278.399C278.399 213.924 278.455 213.7 278.469 213.406L278.707 211.32H282.487V210.116H277.503L277.013 215.016L277.811 215.31C277.811 215.31 278.511 214.82 279.477 214.82C280.751 214.82 281.731 215.66 281.731 216.85C281.731 218.054 280.723 218.852 279.561 218.852C278.161 218.852 277.391 217.788 277.391 217.788L276.621 218.796ZM286.946 220.168C290.012 220.168 291.398 217.144 291.398 214.61C291.398 211.782 289.802 209.948 287.702 209.948C285.854 209.948 284.524 211.306 284.524 213.252C284.524 215.086 285.77 216.5 287.646 216.5C288.514 216.5 289.424 216.136 289.83 215.576H289.858C289.648 217.214 288.71 218.894 286.89 218.894C286.106 218.894 285.476 218.558 285.476 218.558L285.028 219.762C285.028 219.762 285.77 220.168 286.946 220.168ZM287.926 215.338C286.652 215.338 285.896 214.456 285.896 213.252C285.896 212.104 286.568 211.222 287.716 211.222C288.976 211.222 289.942 212.664 289.942 213.952C289.942 214.652 289.046 215.338 287.926 215.338ZM296.654 220H303.024V218.796H298.124C298.152 216.542 302.87 216.038 302.87 212.79C302.87 211.082 301.568 209.948 299.748 209.948C297.522 209.948 296.626 211.824 296.626 211.824L297.648 212.51C297.648 212.51 298.348 211.25 299.65 211.25C300.686 211.25 301.428 211.908 301.428 212.888C301.428 215.212 296.584 215.716 296.584 219.244C296.584 219.482 296.612 219.734 296.654 220ZM304.61 220H310.294V218.796H308.138V210.116H306.906L304.54 212.412L305.38 213.28L306.304 212.37C306.668 212.02 306.78 211.796 306.78 211.796H306.808C306.808 211.796 306.794 212.104 306.794 212.412V218.796H304.61V220ZM311.474 217.144C311.474 218.936 312.944 220.168 314.918 220.168C316.976 220.168 318.306 218.81 318.306 217.27C318.306 216.248 317.718 215.632 316.962 215.17C317.088 215.03 318.138 213.91 318.138 212.594C318.138 210.97 316.864 209.948 315.03 209.948C312.944 209.948 311.95 211.222 311.95 212.538C311.95 213.448 312.412 214.05 313.056 214.512C312.79 214.694 311.474 215.632 311.474 217.144ZM316.878 217.228C316.878 218.25 315.954 218.922 314.918 218.922C313.868 218.922 312.888 218.194 312.888 217.06C312.888 215.996 313.756 215.324 314.078 215.1C315.408 215.744 316.878 216.164 316.878 217.228ZM313.322 212.566C313.322 211.81 313.924 211.194 315.016 211.194C316.052 211.194 316.78 211.768 316.78 212.678C316.78 213.714 316.066 214.47 315.912 214.624C314.638 214.078 313.322 213.658 313.322 212.566Z" fill="#404040"/>
<path d="M260.108 241.168C263.174 241.168 264.56 238.144 264.56 235.61C264.56 232.782 262.964 230.948 260.864 230.948C259.016 230.948 257.686 232.306 257.686 234.252C257.686 236.086 258.932 237.5 260.808 237.5C261.676 237.5 262.586 237.136 262.992 236.576H263.02C262.81 238.214 261.872 239.894 260.052 239.894C259.268 239.894 258.638 239.558 258.638 239.558L258.19 240.762C258.19 240.762 258.932 241.168 260.108 241.168ZM261.088 236.338C259.814 236.338 259.058 235.456 259.058 234.252C259.058 233.104 259.73 232.222 260.878 232.222C262.138 232.222 263.104 233.664 263.104 234.952C263.104 235.652 262.208 236.338 261.088 236.338ZM269.903 241.168C271.751 241.168 273.081 239.81 273.081 237.864C273.081 236.03 271.835 234.602 269.959 234.602C269.091 234.602 268.195 234.98 267.775 235.54H267.747C267.957 233.902 268.895 232.222 270.715 232.222C271.499 232.222 272.129 232.544 272.129 232.544L272.577 231.354C272.577 231.354 271.821 230.948 270.659 230.948C267.593 230.948 266.207 233.972 266.207 236.506C266.207 239.32 267.789 241.168 269.903 241.168ZM269.889 239.894C268.629 239.894 267.663 238.452 267.663 237.164C267.663 236.45 268.559 235.778 269.679 235.778C270.939 235.778 271.709 236.66 271.709 237.864C271.709 239.012 271.023 239.894 269.889 239.894ZM278.197 241H284.567V239.796H279.667C279.695 237.542 284.413 237.038 284.413 233.79C284.413 232.082 283.111 230.948 281.291 230.948C279.065 230.948 278.169 232.824 278.169 232.824L279.191 233.51C279.191 233.51 279.891 232.25 281.193 232.25C282.229 232.25 282.971 232.908 282.971 233.888C282.971 236.212 278.127 236.716 278.127 240.244C278.127 240.482 278.155 240.734 278.197 241ZM286.573 241H288.001L292.467 232.068V231.116H285.859V232.32H290.269C290.773 232.32 290.997 232.278 290.997 232.278V232.306C290.997 232.306 290.703 232.656 290.423 233.216L286.573 241ZM300.743 241.168C303.389 241.168 304.243 238.9 304.243 236.044C304.243 233.202 303.389 230.948 300.743 230.948C298.111 230.948 297.257 233.202 297.257 236.044C297.257 238.9 298.111 241.168 300.743 241.168ZM300.743 239.894C299.133 239.894 298.671 238.2 298.671 236.044C298.671 233.902 299.133 232.222 300.743 232.222C302.367 232.222 302.829 233.902 302.829 236.044C302.829 238.2 302.367 239.894 300.743 239.894ZM309.505 241H315.189V239.796H313.033V231.116H311.801L309.435 233.412L310.275 234.28L311.199 233.37C311.563 233.02 311.675 232.796 311.675 232.796H311.703C311.703 232.796 311.689 233.104 311.689 233.412V239.796H309.505V241ZM316.242 239.796C316.242 239.796 317.236 241.168 319.266 241.168C321.268 241.168 322.766 239.74 322.766 237.836C322.766 236.058 321.408 234.616 319.322 234.616C318.594 234.616 318.048 234.924 318.048 234.924H318.02C318.02 234.924 318.076 234.7 318.09 234.406L318.328 232.32H322.108V231.116H317.124L316.634 236.016L317.432 236.31C317.432 236.31 318.132 235.82 319.098 235.82C320.372 235.82 321.352 236.66 321.352 237.85C321.352 239.054 320.344 239.852 319.182 239.852C317.782 239.852 317.012 238.788 317.012 238.788L316.242 239.796Z" fill="#404040"/>
<path d="M258.974 262H260.108L260.57 259.326H262.74L262.278 262H263.412L263.888 259.326H265.694L265.876 258.29H264.056L264.476 255.938H266.296L266.478 254.916H264.644L265.134 252.116H264L263.51 254.916H261.34L261.83 252.116H260.696L260.206 254.916H258.386L258.218 255.938H260.024L259.618 258.29H257.784L257.616 259.326H259.436L258.974 262ZM260.752 258.29L261.172 255.938H263.342L262.922 258.29H260.752ZM271.417 262.168C274.063 262.168 274.917 259.9 274.917 257.044C274.917 254.202 274.063 251.948 271.417 251.948C268.785 251.948 267.931 254.202 267.931 257.044C267.931 259.9 268.785 262.168 271.417 262.168ZM271.417 260.894C269.807 260.894 269.345 259.2 269.345 257.044C269.345 254.902 269.807 253.222 271.417 253.222C273.041 253.222 273.503 254.902 273.503 257.044C273.503 259.2 273.041 260.894 271.417 260.894ZM276.597 259.144C276.597 260.936 278.067 262.168 280.041 262.168C282.099 262.168 283.429 260.81 283.429 259.27C283.429 258.248 282.841 257.632 282.085 257.17C282.211 257.03 283.261 255.91 283.261 254.594C283.261 252.97 281.987 251.948 280.153 251.948C278.067 251.948 277.073 253.222 277.073 254.538C277.073 255.448 277.535 256.05 278.179 256.512C277.913 256.694 276.597 257.632 276.597 259.144ZM282.001 259.228C282.001 260.25 281.077 260.922 280.041 260.922C278.991 260.922 278.011 260.194 278.011 259.06C278.011 257.996 278.879 257.324 279.201 257.1C280.531 257.744 282.001 258.164 282.001 259.228ZM278.445 254.566C278.445 253.81 279.047 253.194 280.139 253.194C281.175 253.194 281.903 253.768 281.903 254.678C281.903 255.714 281.189 256.47 281.035 256.624C279.761 256.078 278.445 255.658 278.445 254.566ZM287.411 262.168C290.477 262.168 291.863 259.144 291.863 256.61C291.863 253.782 290.267 251.948 288.167 251.948C286.319 251.948 284.989 253.306 284.989 255.252C284.989 257.086 286.235 258.5 288.111 258.5C288.979 258.5 289.889 258.136 290.295 257.576H290.323C290.113 259.214 289.175 260.894 287.355 260.894C286.571 260.894 285.941 260.558 285.941 260.558L285.493 261.762C285.493 261.762 286.235 262.168 287.411 262.168ZM288.391 257.338C287.117 257.338 286.361 256.456 286.361 255.252C286.361 254.104 287.033 253.222 288.181 253.222C289.441 253.222 290.407 254.664 290.407 255.952C290.407 256.652 289.511 257.338 288.391 257.338ZM294.028 262H295.414V257.772H298.872V256.568H295.414V253.32H299.474V252.116H294.028V262ZM301.328 262H304.604C307.628 262 309.616 260.18 309.616 257.044C309.616 253.922 307.628 252.116 304.604 252.116H301.328V262ZM302.714 260.796V253.32H304.506C306.718 253.32 308.188 254.622 308.188 257.044C308.188 259.48 306.732 260.796 304.506 260.796H302.714ZM317.531 262H318.973L315.417 252.116H313.961L310.405 262H311.833L312.813 259.158H316.537L317.531 262ZM314.703 253.474C314.703 253.474 314.913 254.37 315.081 254.874L316.173 258.01H313.177L314.283 254.874C314.451 254.37 314.675 253.474 314.675 253.474H314.703Z" fill="#404040"/>
<path d="M208.344 220H209.73V216.066H211.844L213.93 220H215.498L213.398 216.164C213.216 215.842 213.104 215.716 213.104 215.716V215.688C214.182 215.338 214.882 214.274 214.882 213.014C214.882 211.712 214.224 210.718 213.216 210.34C212.838 210.2 212.404 210.116 211.368 210.116H208.344V220ZM209.73 214.862V211.32H211.326C212.096 211.32 212.418 211.404 212.684 211.544C213.188 211.824 213.468 212.342 213.468 213.07C213.468 214.176 212.796 214.862 211.718 214.862H209.73ZM216.655 215.044C216.655 218.068 218.853 220.168 221.513 220.168C223.473 220.168 224.551 218.964 224.551 218.964H224.579C224.579 218.964 224.565 219.174 224.565 219.384V220H225.783V215.03H222.913V216.234H224.523V217.662C224.523 217.662 223.431 218.894 221.723 218.894C219.651 218.894 218.083 217.312 218.083 215.016C218.083 212.902 219.483 211.208 221.807 211.208C223.487 211.208 224.593 212.174 224.593 212.174L225.293 211.138C225.293 211.138 224.061 209.948 221.695 209.948C218.811 209.948 216.655 212.188 216.655 215.044ZM227.949 220H231.491C233.227 220 234.669 219.048 234.669 217.186C234.669 216.08 234.081 215.1 233.045 214.792V214.764C233.801 214.372 234.277 213.602 234.277 212.636C234.277 211.04 233.073 210.116 231.407 210.116H227.949V220ZM229.335 214.274V211.32H231.379C232.331 211.32 232.863 211.908 232.863 212.776C232.863 213.644 232.303 214.274 231.407 214.274H229.335ZM229.335 218.796V215.422H231.547C232.583 215.422 233.255 216.108 233.255 217.116C233.255 218.124 232.625 218.796 231.561 218.796H229.335Z" fill="#404040"/>
<path d="M207.672 236.002C207.672 238.9 209.758 241.168 212.726 241.168C215.204 241.168 216.562 239.6 216.562 239.6L215.82 238.606C215.82 238.606 214.63 239.894 212.768 239.894C210.57 239.894 209.1 238.102 209.1 235.988C209.1 233.888 210.542 232.208 212.754 232.208C214.462 232.208 215.61 233.286 215.61 233.286L216.296 232.25C216.296 232.25 215.078 230.948 212.698 230.948C209.828 230.948 207.672 233.132 207.672 236.002ZM218.14 241H219.526L220.002 234.77C220.044 234.168 220.03 233.286 220.03 233.286H220.058C220.058 233.286 220.366 234.238 220.59 234.77L222.55 239.222H223.782L225.756 234.77C225.994 234.224 226.288 233.314 226.288 233.314H226.316C226.316 233.314 226.288 234.168 226.33 234.77L226.82 241H228.192L227.394 231.116H225.938L223.67 236.464C223.446 237.01 223.18 237.794 223.18 237.794H223.152C223.152 237.794 222.886 237.01 222.662 236.464L220.394 231.116H218.938L218.14 241ZM232.524 241H233.91V236.814L237.214 231.116H235.646L233.84 234.364C233.532 234.924 233.238 235.61 233.238 235.61H233.21C233.21 235.61 232.916 234.91 232.608 234.364L230.774 231.116H229.206L232.524 236.814V241ZM238.668 241H240.054V236.464H241.524L244.156 241H245.724L242.672 235.834V235.806L245.542 231.116H244.016L241.524 235.274H240.054V231.116H238.668V241Z" fill="#404040"/>
<path d="M208.344 262H209.73V257.66H214.854V262H216.24V252.116H214.854V256.456H209.73V252.116H208.344V262ZM218.926 262H224.904V260.796H220.312V257.618H223.854V256.414H220.312V253.32H224.666V252.116H218.926V262ZM225.915 262H227.469L229.261 258.962C229.583 258.416 229.849 257.828 229.849 257.828H229.877C229.877 257.828 230.185 258.402 230.507 258.962L232.299 262H233.867L230.745 256.904L233.671 252.116H232.075L230.521 254.79C230.199 255.336 229.919 255.966 229.919 255.966H229.891C229.891 255.966 229.569 255.322 229.261 254.79L227.707 252.116H226.111L229.037 256.904L225.915 262Z" fill="#404040"/>
<path d="M97.5 292.5L13.0625 146.25L181.937 146.25L97.5 292.5Z" fill="#089FDA"/>
<path d="M257.84 40H264.21V38.796H259.31C259.338 36.542 264.056 36.038 264.056 32.79C264.056 31.082 262.754 29.948 260.934 29.948C258.708 29.948 257.812 31.824 257.812 31.824L258.834 32.51C258.834 32.51 259.534 31.25 260.836 31.25C261.872 31.25 262.614 31.908 262.614 32.888C262.614 35.212 257.77 35.716 257.77 39.244C257.77 39.482 257.798 39.734 257.84 40ZM266.216 40H267.644L272.11 31.068V30.116H265.502V31.32H269.912C270.416 31.32 270.64 31.278 270.64 31.278V31.306C270.64 31.306 270.346 31.656 270.066 32.216L266.216 40ZM276.802 40H282.486V38.796H280.33V30.116H279.098L276.732 32.412L277.572 33.28L278.496 32.37C278.86 32.02 278.972 31.796 278.972 31.796H279C279 31.796 278.986 32.104 278.986 32.412V38.796H276.802V40ZM283.651 40H289.335V38.796H287.179V30.116H285.947L283.581 32.412L284.421 33.28L285.345 32.37C285.709 32.02 285.821 31.796 285.821 31.796H285.849C285.849 31.796 285.835 32.104 285.835 32.412V38.796H283.651V40ZM290.921 40H292.349L296.815 31.068V30.116H290.207V31.32H294.617C295.121 31.32 295.345 31.278 295.345 31.278V31.306C295.345 31.306 295.051 31.656 294.771 32.216L290.921 40ZM301.507 40H307.191V38.796H305.035V30.116H303.803L301.437 32.412L302.277 33.28L303.201 32.37C303.565 32.02 303.677 31.796 303.677 31.796H303.705C303.705 31.796 303.691 32.104 303.691 32.412V38.796H301.507V40ZM308.37 37.144C308.37 38.936 309.84 40.168 311.814 40.168C313.872 40.168 315.202 38.81 315.202 37.27C315.202 36.248 314.614 35.632 313.858 35.17C313.984 35.03 315.034 33.91 315.034 32.594C315.034 30.97 313.76 29.948 311.926 29.948C309.84 29.948 308.846 31.222 308.846 32.538C308.846 33.448 309.308 34.05 309.952 34.512C309.686 34.694 308.37 35.632 308.37 37.144ZM313.774 37.228C313.774 38.25 312.85 38.922 311.814 38.922C310.764 38.922 309.784 38.194 309.784 37.06C309.784 35.996 310.652 35.324 310.974 35.1C312.304 35.744 313.774 36.164 313.774 37.228ZM310.218 32.566C310.218 31.81 310.82 31.194 311.912 31.194C312.948 31.194 313.676 31.768 313.676 32.678C313.676 33.714 312.962 34.47 312.808 34.624C311.534 34.078 310.218 33.658 310.218 32.566ZM316.874 37.144C316.874 38.936 318.344 40.168 320.318 40.168C322.376 40.168 323.706 38.81 323.706 37.27C323.706 36.248 323.118 35.632 322.362 35.17C322.488 35.03 323.538 33.91 323.538 32.594C323.538 30.97 322.264 29.948 320.43 29.948C318.344 29.948 317.35 31.222 317.35 32.538C317.35 33.448 317.812 34.05 318.456 34.512C318.19 34.694 316.874 35.632 316.874 37.144ZM322.278 37.228C322.278 38.25 321.354 38.922 320.318 38.922C319.268 38.922 318.288 38.194 318.288 37.06C318.288 35.996 319.156 35.324 319.478 35.1C320.808 35.744 322.278 36.164 322.278 37.228ZM318.722 32.566C318.722 31.81 319.324 31.194 320.416 31.194C321.452 31.194 322.18 31.768 322.18 32.678C322.18 33.714 321.466 34.47 321.312 34.624C320.038 34.078 318.722 33.658 318.722 32.566Z" fill="#404040"/>
<path d="M257.798 58.144C257.798 59.936 259.268 61.168 261.242 61.168C263.3 61.168 264.63 59.81 264.63 58.27C264.63 57.248 264.042 56.632 263.286 56.17C263.412 56.03 264.462 54.91 264.462 53.594C264.462 51.97 263.188 50.948 261.354 50.948C259.268 50.948 258.274 52.222 258.274 53.538C258.274 54.448 258.736 55.05 259.38 55.512C259.114 55.694 257.798 56.632 257.798 58.144ZM263.202 58.228C263.202 59.25 262.278 59.922 261.242 59.922C260.192 59.922 259.212 59.194 259.212 58.06C259.212 56.996 260.08 56.324 260.402 56.1C261.732 56.744 263.202 57.164 263.202 58.228ZM259.646 53.566C259.646 52.81 260.248 52.194 261.34 52.194C262.376 52.194 263.104 52.768 263.104 53.678C263.104 54.714 262.39 55.47 262.236 55.624C260.962 55.078 259.646 54.658 259.646 53.566ZM270.026 61.168C271.874 61.168 273.204 59.81 273.204 57.864C273.204 56.03 271.958 54.602 270.082 54.602C269.214 54.602 268.318 54.98 267.898 55.54H267.87C268.08 53.902 269.018 52.222 270.838 52.222C271.622 52.222 272.252 52.544 272.252 52.544L272.7 51.354C272.7 51.354 271.944 50.948 270.782 50.948C267.716 50.948 266.33 53.972 266.33 56.506C266.33 59.32 267.912 61.168 270.026 61.168ZM270.012 59.894C268.752 59.894 267.786 58.452 267.786 57.164C267.786 56.45 268.682 55.778 269.802 55.778C271.062 55.778 271.832 56.66 271.832 57.864C271.832 59.012 271.146 59.894 270.012 59.894ZM278.04 59.824C278.04 59.824 279.23 61.168 281.246 61.168C283.276 61.168 284.606 59.684 284.606 57.99C284.606 56.072 283.01 55.232 281.708 55.092L284.396 51.998V51.116H278.488V52.32H281.834C282.38 52.32 282.674 52.278 282.674 52.278V52.306C282.674 52.306 282.38 52.572 282.058 52.95L279.902 55.484L280.224 56.226H280.91C282.128 56.226 283.206 56.828 283.206 58.046C283.206 59.11 282.296 59.852 281.19 59.852C279.762 59.852 278.796 58.774 278.796 58.774L278.04 59.824ZM286.222 58.144C286.222 59.936 287.692 61.168 289.666 61.168C291.724 61.168 293.054 59.81 293.054 58.27C293.054 57.248 292.466 56.632 291.71 56.17C291.836 56.03 292.886 54.91 292.886 53.594C292.886 51.97 291.612 50.948 289.778 50.948C287.692 50.948 286.698 52.222 286.698 53.538C286.698 54.448 287.16 55.05 287.804 55.512C287.538 55.694 286.222 56.632 286.222 58.144ZM291.626 58.228C291.626 59.25 290.702 59.922 289.666 59.922C288.616 59.922 287.636 59.194 287.636 58.06C287.636 56.996 288.504 56.324 288.826 56.1C290.156 56.744 291.626 57.164 291.626 58.228ZM288.07 53.566C288.07 52.81 288.672 52.194 289.764 52.194C290.8 52.194 291.528 52.768 291.528 53.678C291.528 54.714 290.814 55.47 290.66 55.624C289.386 55.078 288.07 54.658 288.07 53.566ZM301.891 61.168C304.537 61.168 305.391 58.9 305.391 56.044C305.391 53.202 304.537 50.948 301.891 50.948C299.259 50.948 298.405 53.202 298.405 56.044C298.405 58.9 299.259 61.168 301.891 61.168ZM301.891 59.894C300.281 59.894 299.819 58.2 299.819 56.044C299.819 53.902 300.281 52.222 301.891 52.222C303.515 52.222 303.977 53.902 303.977 56.044C303.977 58.2 303.515 59.894 301.891 59.894ZM310.709 61H317.079V59.796H312.179C312.207 57.542 316.925 57.038 316.925 53.79C316.925 52.082 315.623 50.948 313.803 50.948C311.577 50.948 310.681 52.824 310.681 52.824L311.703 53.51C311.703 53.51 312.403 52.25 313.705 52.25C314.741 52.25 315.483 52.908 315.483 53.888C315.483 56.212 310.639 56.716 310.639 60.244C310.639 60.482 310.667 60.734 310.709 61ZM322.403 61.168C324.251 61.168 325.581 59.81 325.581 57.864C325.581 56.03 324.335 54.602 322.459 54.602C321.591 54.602 320.695 54.98 320.275 55.54H320.247C320.457 53.902 321.395 52.222 323.215 52.222C323.999 52.222 324.629 52.544 324.629 52.544L325.077 51.354C325.077 51.354 324.321 50.948 323.159 50.948C320.093 50.948 318.707 53.972 318.707 56.506C318.707 59.32 320.289 61.168 322.403 61.168ZM322.389 59.894C321.129 59.894 320.163 58.452 320.163 57.164C320.163 56.45 321.059 55.778 322.179 55.778C323.439 55.778 324.209 56.66 324.209 57.864C324.209 59.012 323.523 59.894 322.389 59.894Z" fill="#404040"/>
<path d="M258.974 82H260.108L260.57 79.326H262.74L262.278 82H263.412L263.888 79.326H265.694L265.876 78.29H264.056L264.476 75.938H266.296L266.478 74.916H264.644L265.134 72.116H264L263.51 74.916H261.34L261.83 72.116H260.696L260.206 74.916H258.386L258.218 75.938H260.024L259.618 78.29H257.784L257.616 79.326H259.436L258.974 82ZM260.752 78.29L261.172 75.938H263.342L262.922 78.29H260.752ZM267.833 82H273.517V80.796H271.361V72.116H270.129L267.763 74.412L268.603 75.28L269.527 74.37C269.891 74.02 270.003 73.796 270.003 73.796H270.031C270.031 73.796 270.017 74.104 270.017 74.412V80.796H267.833V82ZM275.242 82H278.784C280.52 82 281.962 81.048 281.962 79.186C281.962 78.08 281.374 77.1 280.338 76.792V76.764C281.094 76.372 281.57 75.602 281.57 74.636C281.57 73.04 280.366 72.116 278.7 72.116H275.242V82ZM276.628 76.274V73.32H278.672C279.624 73.32 280.156 73.908 280.156 74.776C280.156 75.644 279.596 76.274 278.7 76.274H276.628ZM276.628 80.796V77.422H278.84C279.876 77.422 280.548 78.108 280.548 79.116C280.548 80.124 279.918 80.796 278.854 80.796H276.628ZM283.975 82H285.403L289.869 73.068V72.116H283.261V73.32H287.671C288.175 73.32 288.399 73.278 288.399 73.278V73.306C288.399 73.306 288.105 73.656 287.825 74.216L283.975 82ZM290.854 80.796C290.854 80.796 291.848 82.168 293.878 82.168C295.88 82.168 297.378 80.74 297.378 78.836C297.378 77.058 296.02 75.616 293.934 75.616C293.206 75.616 292.66 75.924 292.66 75.924H292.632C292.632 75.924 292.688 75.7 292.702 75.406L292.94 73.32H296.72V72.116H291.736L291.246 77.016L292.044 77.31C292.044 77.31 292.744 76.82 293.71 76.82C294.984 76.82 295.964 77.66 295.964 78.85C295.964 80.054 294.956 80.852 293.794 80.852C292.394 80.852 291.624 79.788 291.624 79.788L290.854 80.796ZM299.414 82H302.956C304.692 82 306.134 81.048 306.134 79.186C306.134 78.08 305.546 77.1 304.51 76.792V76.764C305.266 76.372 305.742 75.602 305.742 74.636C305.742 73.04 304.538 72.116 302.872 72.116H299.414V82ZM300.8 76.274V73.32H302.844C303.796 73.32 304.328 73.908 304.328 74.776C304.328 75.644 303.768 76.274 302.872 76.274H300.8ZM300.8 80.796V77.422H303.012C304.048 77.422 304.72 78.108 304.72 79.116C304.72 80.124 304.09 80.796 303.026 80.796H300.8ZM307.615 77.002C307.615 79.9 309.701 82.168 312.669 82.168C315.147 82.168 316.505 80.6 316.505 80.6L315.763 79.606C315.763 79.606 314.573 80.894 312.711 80.894C310.513 80.894 309.043 79.102 309.043 76.988C309.043 74.888 310.485 73.208 312.697 73.208C314.405 73.208 315.553 74.286 315.553 74.286L316.239 73.25C316.239 73.25 315.021 71.948 312.641 71.948C309.771 71.948 307.615 74.132 307.615 77.002Z" fill="#404040"/>
<path d="M208.344 40H209.73V36.066H211.844L213.93 40H215.498L213.398 36.164C213.216 35.842 213.104 35.716 213.104 35.716V35.688C214.182 35.338 214.882 34.274 214.882 33.014C214.882 31.712 214.224 30.718 213.216 30.34C212.838 30.2 212.404 30.116 211.368 30.116H208.344V40ZM209.73 34.862V31.32H211.326C212.096 31.32 212.418 31.404 212.684 31.544C213.188 31.824 213.468 32.342 213.468 33.07C213.468 34.176 212.796 34.862 211.718 34.862H209.73ZM216.655 35.044C216.655 38.068 218.853 40.168 221.513 40.168C223.473 40.168 224.551 38.964 224.551 38.964H224.579C224.579 38.964 224.565 39.174 224.565 39.384V40H225.783V35.03H222.913V36.234H224.523V37.662C224.523 37.662 223.431 38.894 221.723 38.894C219.651 38.894 218.083 37.312 218.083 35.016C218.083 32.902 219.483 31.208 221.807 31.208C223.487 31.208 224.593 32.174 224.593 32.174L225.293 31.138C225.293 31.138 224.061 29.948 221.695 29.948C218.811 29.948 216.655 32.188 216.655 35.044ZM227.949 40H231.491C233.227 40 234.669 39.048 234.669 37.186C234.669 36.08 234.081 35.1 233.045 34.792V34.764C233.801 34.372 234.277 33.602 234.277 32.636C234.277 31.04 233.073 30.116 231.407 30.116H227.949V40ZM229.335 34.274V31.32H231.379C232.331 31.32 232.863 31.908 232.863 32.776C232.863 33.644 232.303 34.274 231.407 34.274H229.335ZM229.335 38.796V35.422H231.547C232.583 35.422 233.255 36.108 233.255 37.116C233.255 38.124 232.625 38.796 231.561 38.796H229.335Z" fill="#404040"/>
<path d="M207.672 56.002C207.672 58.9 209.758 61.168 212.726 61.168C215.204 61.168 216.562 59.6 216.562 59.6L215.82 58.606C215.82 58.606 214.63 59.894 212.768 59.894C210.57 59.894 209.1 58.102 209.1 55.988C209.1 53.888 210.542 52.208 212.754 52.208C214.462 52.208 215.61 53.286 215.61 53.286L216.296 52.25C216.296 52.25 215.078 50.948 212.698 50.948C209.828 50.948 207.672 53.132 207.672 56.002ZM218.14 61H219.526L220.002 54.77C220.044 54.168 220.03 53.286 220.03 53.286H220.058C220.058 53.286 220.366 54.238 220.59 54.77L222.55 59.222H223.782L225.756 54.77C225.994 54.224 226.288 53.314 226.288 53.314H226.316C226.316 53.314 226.288 54.168 226.33 54.77L226.82 61H228.192L227.394 51.116H225.938L223.67 56.464C223.446 57.01 223.18 57.794 223.18 57.794H223.152C223.152 57.794 222.886 57.01 222.662 56.464L220.394 51.116H218.938L218.14 61ZM232.524 61H233.91V56.814L237.214 51.116H235.646L233.84 54.364C233.532 54.924 233.238 55.61 233.238 55.61H233.21C233.21 55.61 232.916 54.91 232.608 54.364L230.774 51.116H229.206L232.524 56.814V61ZM238.668 61H240.054V56.464H241.524L244.156 61H245.724L242.672 55.834V55.806L245.542 51.116H244.016L241.524 55.274H240.054V51.116H238.668V61Z" fill="#404040"/>
<path d="M208.344 82H209.73V77.66H214.854V82H216.24V72.116H214.854V76.456H209.73V72.116H208.344V82ZM218.926 82H224.904V80.796H220.312V77.618H223.854V76.414H220.312V73.32H224.666V72.116H218.926V82ZM225.915 82H227.469L229.261 78.962C229.583 78.416 229.849 77.828 229.849 77.828H229.877C229.877 77.828 230.185 78.402 230.507 78.962L232.299 82H233.867L230.745 76.904L233.671 72.116H232.075L230.521 74.79C230.199 75.336 229.919 75.966 229.919 75.966H229.891C229.891 75.966 229.569 75.322 229.261 74.79L227.707 72.116H226.111L229.037 76.904L225.915 82Z" fill="#404040"/>
<path d="M97.5 0L181.937 146.25H13.0625L97.5 0Z" fill="#1B75BC"/>
</svg>
