<svg width="169" height="229" viewBox="0 0 169 229" fill="none" xmlns="http://www.w3.org/2000/svg">
<rect width="169" height="150" fill="#6789A9"/>
<path d="M46.672 189H51.244V188.256H49.384V180.564H48.616L46.708 182.46L47.236 183L48.136 182.1C48.472 181.776 48.556 181.596 48.556 181.596H48.58C48.58 181.596 48.568 181.824 48.568 182.064V188.256H46.672V189ZM55.3458 189.144C57.5418 189.144 58.2498 187.224 58.2498 184.776C58.2498 182.352 57.5418 180.42 55.3458 180.42C53.1498 180.42 52.4298 182.352 52.4298 184.776C52.4298 187.224 53.1498 189.144 55.3458 189.144ZM55.3458 188.364C53.7378 188.364 53.2938 186.792 53.2938 184.776C53.2938 182.772 53.7378 181.2 55.3458 181.2C56.9418 181.2 57.3858 182.772 57.3858 184.776C57.3858 186.792 56.9418 188.364 55.3458 188.364ZM59.6298 187.992C59.6298 187.992 60.6498 189.144 62.3058 189.144C63.9018 189.144 65.0778 187.944 65.0778 186.504C65.0778 184.68 63.5058 184.08 62.4378 184.02L64.9578 181.116V180.564H60.0258V181.308H63.1938C63.6378 181.308 63.8778 181.272 63.8778 181.272V181.296C63.8778 181.296 63.6618 181.5 63.4338 181.764L61.3218 184.236L61.5258 184.728H62.1018C63.2058 184.728 64.2258 185.34 64.2258 186.528C64.2258 187.608 63.3018 188.352 62.2938 188.352C60.9978 188.352 60.1338 187.356 60.1338 187.356L59.6298 187.992ZM69.7228 189H74.2948V188.256H72.4348V180.564H71.6668L69.7588 182.46L70.2868 183L71.1868 182.1C71.5228 181.776 71.6068 181.596 71.6068 181.596H71.6308C71.6308 181.596 71.6188 181.824 71.6188 182.064V188.256H69.7228V189ZM75.1806 187.992C75.1806 187.992 76.2006 189.144 77.8566 189.144C79.4526 189.144 80.6286 187.944 80.6286 186.504C80.6286 184.68 79.0566 184.08 77.9886 184.02L80.5086 181.116V180.564H75.5766V181.308H78.7446C79.1886 181.308 79.4286 181.272 79.4286 181.272V181.296C79.4286 181.296 79.2126 181.5 78.9846 181.764L76.8726 184.236L77.0766 184.728H77.6526C78.7566 184.728 79.7766 185.34 79.7766 186.528C79.7766 187.608 78.8526 188.352 77.8446 188.352C76.5486 188.352 75.6846 187.356 75.6846 187.356L75.1806 187.992ZM82.5429 189H83.4069L87.3189 181.14V180.564H81.8349V181.308H85.7829C86.2029 181.308 86.4189 181.284 86.4189 181.284V181.308C86.4189 181.308 86.1789 181.632 85.9509 182.088L82.5429 189ZM91.5079 189H96.0799V188.256H94.2199V180.564H93.4519L91.5439 182.46L92.0719 183L92.9719 182.1C93.3079 181.776 93.3919 181.596 93.3919 181.596H93.4159C93.4159 181.596 93.4039 181.824 93.4039 182.064V188.256H91.5079V189ZM100.254 189.144C101.73 189.144 102.906 188.076 102.906 186.324C102.906 184.728 101.814 183.6 100.278 183.6C99.4018 183.6 98.5498 183.984 98.1418 184.584H98.1178C98.2618 182.94 99.1618 181.2 100.926 181.2C101.622 181.2 102.15 181.5 102.15 181.5L102.462 180.768C102.462 180.768 101.85 180.42 100.914 180.42C98.3098 180.42 97.2058 183.072 97.2058 185.184C97.2058 187.464 98.4178 189.144 100.254 189.144ZM100.242 188.364C98.9818 188.364 98.1058 186.912 98.1058 185.784C98.1058 185.1 99.0178 184.344 100.146 184.344C101.298 184.344 102.054 185.136 102.054 186.336C102.054 187.5 101.382 188.364 100.242 188.364ZM106.203 189.144C108.819 189.144 109.911 186.492 109.911 184.38C109.911 182.1 108.699 180.42 106.863 180.42C105.387 180.42 104.223 181.488 104.223 183.24C104.223 184.836 105.303 185.964 106.839 185.964C107.715 185.964 108.567 185.58 108.987 184.98H109.011C108.855 186.624 107.967 188.364 106.191 188.364C105.495 188.364 104.967 188.064 104.967 188.064L104.655 188.796C104.655 188.796 105.279 189.144 106.203 189.144ZM106.971 185.22C105.819 185.22 105.062 184.428 105.062 183.228C105.062 182.064 105.735 181.2 106.875 181.2C108.135 181.2 109.011 182.652 109.011 183.78C109.011 184.464 108.111 185.22 106.971 185.22Z" fill="#404040"/>
<path d="M46.54 207.992C46.54 207.992 47.56 209.144 49.216 209.144C50.812 209.144 51.988 207.944 51.988 206.504C51.988 204.68 50.416 204.08 49.348 204.02L51.868 201.116V200.564H46.936V201.308H50.104C50.548 201.308 50.788 201.272 50.788 201.272V201.296C50.788 201.296 50.572 201.5 50.344 201.764L48.232 204.236L48.436 204.728H49.012C50.116 204.728 51.136 205.34 51.136 206.528C51.136 207.608 50.212 208.352 49.204 208.352C47.908 208.352 47.044 207.356 47.044 207.356L46.54 207.992ZM55.3783 209.144C57.9943 209.144 59.0863 206.492 59.0863 204.38C59.0863 202.1 57.8743 200.42 56.0383 200.42C54.5623 200.42 53.3983 201.488 53.3983 203.24C53.3983 204.836 54.4783 205.964 56.0143 205.964C56.8903 205.964 57.7423 205.58 58.1623 204.98H58.1863C58.0303 206.624 57.1423 208.364 55.3663 208.364C54.6703 208.364 54.1423 208.064 54.1423 208.064L53.8303 208.796C53.8303 208.796 54.4543 209.144 55.3783 209.144ZM56.1463 205.22C54.9943 205.22 54.2383 204.428 54.2383 203.228C54.2383 202.064 54.9103 201.2 56.0503 201.2C57.3103 201.2 58.1863 202.652 58.1863 203.78C58.1863 204.464 57.2863 205.22 56.1463 205.22ZM63.7579 209H68.3299V208.256H66.4699V200.564H65.7019L63.7939 202.46L64.3219 203L65.2219 202.1C65.5579 201.776 65.6419 201.596 65.6419 201.596H65.6659C65.6659 201.596 65.6539 201.824 65.6539 202.064V208.256H63.7579V209ZM71.3158 209.144C73.9318 209.144 75.0238 206.492 75.0238 204.38C75.0238 202.1 73.8118 200.42 71.9758 200.42C70.4998 200.42 69.3358 201.488 69.3358 203.24C69.3358 204.836 70.4158 205.964 71.9518 205.964C72.8278 205.964 73.6798 205.58 74.0998 204.98H74.1238C73.9678 206.624 73.0798 208.364 71.3038 208.364C70.6078 208.364 70.0798 208.064 70.0798 208.064L69.7678 208.796C69.7678 208.796 70.3918 209.144 71.3158 209.144ZM72.0838 205.22C70.9318 205.22 70.1758 204.428 70.1758 203.228C70.1758 202.064 70.8478 201.2 71.9878 201.2C73.2478 201.2 74.1238 202.652 74.1238 203.78C74.1238 204.464 73.2238 205.22 72.0838 205.22ZM82.7794 209.144C84.9754 209.144 85.6834 207.224 85.6834 204.776C85.6834 202.352 84.9754 200.42 82.7794 200.42C80.5834 200.42 79.8634 202.352 79.8634 204.776C79.8634 207.224 80.5834 209.144 82.7794 209.144ZM82.7794 208.364C81.1714 208.364 80.7274 206.792 80.7274 204.776C80.7274 202.772 81.1714 201.2 82.7794 201.2C84.3754 201.2 84.8194 202.772 84.8194 204.776C84.8194 206.792 84.3754 208.364 82.7794 208.364ZM90.2861 207.992C90.2861 207.992 91.3061 209.144 92.9621 209.144C94.5581 209.144 95.7341 207.944 95.7341 206.504C95.7341 204.68 94.1621 204.08 93.0941 204.02L95.6141 201.116V200.564H90.6821V201.308H93.8501C94.2941 201.308 94.5341 201.272 94.5341 201.272V201.296C94.5341 201.296 94.3181 201.5 94.0901 201.764L91.9781 204.236L92.1821 204.728H92.7581C93.8621 204.728 94.8821 205.34 94.8821 206.528C94.8821 207.608 93.9581 208.352 92.9501 208.352C91.6541 208.352 90.7901 207.356 90.7901 207.356L90.2861 207.992ZM96.8924 206.66H101.116V209H101.944V206.66H103.144V205.928H101.944V200.564H101.044L96.8924 206.12V206.66ZM97.9004 205.928V205.904L100.708 202.244C100.936 201.944 101.128 201.608 101.128 201.608H101.152C101.152 201.608 101.116 202.04 101.116 202.4V205.928H97.9004Z" fill="#404040"/>
<path d="M47.86 228H48.592L49 225.66H51.076L50.668 228H51.4L51.808 225.66H53.488L53.596 224.988H51.928L52.336 222.636H54.016L54.136 221.964H52.456L52.876 219.564H52.144L51.724 221.964H49.648L50.068 219.564H49.336L48.916 221.964H47.212L47.104 222.636H48.796L48.376 224.988H46.684L46.564 225.66H48.268L47.86 228ZM49.12 224.988L49.528 222.636H51.604L51.184 224.988H49.12ZM58.5116 228.144C59.9876 228.144 61.1636 227.076 61.1636 225.324C61.1636 223.728 60.0716 222.6 58.5356 222.6C57.6596 222.6 56.8076 222.984 56.3996 223.584H56.3756C56.5196 221.94 57.4196 220.2 59.1836 220.2C59.8796 220.2 60.4076 220.5 60.4076 220.5L60.7196 219.768C60.7196 219.768 60.1076 219.42 59.1716 219.42C56.5676 219.42 55.4636 222.072 55.4636 224.184C55.4636 226.464 56.6756 228.144 58.5116 228.144ZM58.4996 227.364C57.2396 227.364 56.3636 225.912 56.3636 224.784C56.3636 224.1 57.2756 223.344 58.4036 223.344C59.5556 223.344 60.3116 224.136 60.3116 225.336C60.3116 226.5 59.6396 227.364 58.4996 227.364ZM62.9843 228H63.8483L67.7603 220.14V219.564H62.2763V220.308H66.2243C66.6443 220.308 66.8603 220.284 66.8603 220.284V220.308C66.8603 220.308 66.6203 220.632 66.3923 221.088L62.9843 228ZM68.8227 225.576C68.8227 227.172 70.1547 228.144 71.6787 228.144C73.3107 228.144 74.4747 227.028 74.4747 225.708C74.4747 224.832 73.9467 224.292 73.2507 223.896C73.3467 223.8 74.2827 222.816 74.2827 221.616C74.2827 220.296 73.2747 219.42 71.7027 219.42C69.9987 219.42 69.1587 220.464 69.1587 221.556C69.1587 222.36 69.6027 222.876 70.2027 223.272C70.0107 223.392 68.8227 224.22 68.8227 225.576ZM73.6227 225.696C73.6227 226.692 72.6747 227.376 71.6787 227.376C70.6587 227.376 69.6747 226.68 69.6747 225.54C69.6747 224.46 70.6227 223.788 70.8867 223.632C72.1347 224.232 73.6227 224.604 73.6227 225.696ZM69.9987 221.568C69.9987 220.812 70.6227 220.188 71.7027 220.188C72.7227 220.188 73.4427 220.752 73.4427 221.652C73.4427 222.66 72.7227 223.416 72.5667 223.56C71.3547 223.032 69.9987 222.66 69.9987 221.568ZM77.9134 228.144C80.5294 228.144 81.6214 225.492 81.6214 223.38C81.6214 221.1 80.4094 219.42 78.5734 219.42C77.0974 219.42 75.9334 220.488 75.9334 222.24C75.9334 223.836 77.0134 224.964 78.5494 224.964C79.4254 224.964 80.2774 224.58 80.6974 223.98H80.7214C80.5654 225.624 79.6774 227.364 77.9014 227.364C77.2054 227.364 76.6774 227.064 76.6774 227.064L76.3654 227.796C76.3654 227.796 76.9894 228.144 77.9134 228.144ZM78.6814 224.22C77.5294 224.22 76.7734 223.428 76.7734 222.228C76.7734 221.064 77.4454 220.2 78.5854 220.2C79.8454 220.2 80.7214 221.652 80.7214 222.78C80.7214 223.464 79.8214 224.22 78.6814 224.22ZM88.7584 228H89.6344L86.5384 219.564H85.6504L82.5544 228H83.4304L84.3904 225.312H87.7864L88.7584 228ZM86.1064 220.44C86.1064 220.44 86.2864 221.136 86.4304 221.532L87.5344 224.592H84.6304L85.7584 221.532C85.9024 221.136 86.0824 220.44 86.0824 220.44H86.1064ZM92.433 228.144C95.049 228.144 96.141 225.492 96.141 223.38C96.141 221.1 94.929 219.42 93.093 219.42C91.617 219.42 90.453 220.488 90.453 222.24C90.453 223.836 91.533 224.964 93.069 224.964C93.945 224.964 94.797 224.58 95.217 223.98H95.241C95.085 225.624 94.197 227.364 92.421 227.364C91.725 227.364 91.197 227.064 91.197 227.064L90.885 227.796C90.885 227.796 91.509 228.144 92.433 228.144ZM93.201 224.22C92.049 224.22 91.293 223.428 91.293 222.228C91.293 221.064 91.965 220.2 93.105 220.2C94.365 220.2 95.241 221.652 95.241 222.78C95.241 223.464 94.341 224.22 93.201 224.22Z" fill="#404040"/>
<path d="M1.224 189H2.052V185.448H4.176L6.084 189H7.032L5.196 185.604C5.064 185.376 4.98 185.268 4.98 185.268V185.244C5.928 184.98 6.576 184.104 6.576 182.964C6.576 181.944 6.096 181.14 5.304 180.792C4.968 180.648 4.584 180.564 3.72 180.564H1.224V189ZM2.052 184.704V181.308H3.756C4.404 181.308 4.704 181.38 4.956 181.512C5.448 181.776 5.724 182.292 5.724 182.988C5.724 184.044 5.076 184.704 4.056 184.704H2.052ZM8.19516 184.776C8.19516 187.284 10.0192 189.144 12.3232 189.144C14.0992 189.144 15.0712 188.004 15.0712 188.004H15.0952C15.0952 188.004 15.0832 188.184 15.0832 188.364V189H15.8512V184.968H13.6192V185.712H15.0592V187.14C15.0592 187.14 14.0512 188.376 12.4072 188.376C10.4872 188.376 9.05916 186.84 9.05916 184.764C9.05916 182.76 10.4392 181.188 12.4792 181.188C14.0152 181.188 14.9992 182.028 14.9992 182.028L15.4432 181.404C15.4432 181.404 14.3992 180.42 12.4432 180.42C10.0192 180.42 8.19516 182.34 8.19516 184.776ZM17.8529 189H20.8289C22.2449 189 23.3609 188.136 23.3609 186.636C23.3609 185.616 22.8089 184.788 21.9449 184.548V184.524C22.5929 184.2 23.0129 183.564 23.0129 182.688C23.0129 181.368 22.0649 180.564 20.7329 180.564H17.8529V189ZM18.6809 184.224V181.308H20.7209C21.6209 181.308 22.1609 181.884 22.1609 182.748C22.1609 183.624 21.5849 184.224 20.7329 184.224H18.6809ZM18.6809 188.256V184.944H20.8289C21.8129 184.944 22.4969 185.604 22.4969 186.612C22.4969 187.62 21.8609 188.256 20.8409 188.256H18.6809Z" fill="#404040"/>
<path d="M0.66 204.728C0.66 207.188 2.436 209.144 4.932 209.144C7.008 209.144 8.16 207.836 8.16 207.836L7.68 207.248C7.68 207.248 6.648 208.376 4.944 208.376C2.94 208.376 1.524 206.732 1.524 204.716C1.524 202.724 2.94 201.188 4.92 201.188C6.504 201.188 7.488 202.124 7.488 202.124L7.932 201.512C7.932 201.512 6.912 200.42 4.896 200.42C2.484 200.42 0.66 202.28 0.66 204.728ZM9.69047 209H10.5185L10.9865 203.096C11.0225 202.64 11.0105 201.896 11.0105 201.896H11.0345C11.0345 201.896 11.2985 202.676 11.4905 203.096L13.4705 207.428H14.2505L16.2305 203.096C16.4225 202.664 16.6745 201.92 16.6745 201.92H16.6985C16.6985 201.92 16.6865 202.64 16.7225 203.096L17.1905 209H18.0185L17.3465 200.564H16.4945L14.2865 205.52C14.0945 205.952 13.8665 206.552 13.8665 206.552H13.8425C13.8425 206.552 13.6265 205.952 13.4345 205.52L11.2265 200.564H10.3625L9.69047 209ZM21.8912 209H22.7312V205.376L25.5632 200.564H24.6272L22.8392 203.624C22.5752 204.068 22.3232 204.632 22.3232 204.632H22.2992C22.2992 204.632 22.0352 204.056 21.7832 203.624L19.9952 200.564H19.0472L21.8912 205.376V209ZM26.9818 209H27.8098V204.968H29.2378L31.6498 209H32.6218L29.9338 204.572V204.548L32.4538 200.564H31.5058L29.2378 204.224H27.8098V200.564H26.9818V209Z" fill="#404040"/>
<path d="M1.224 228H2.052V224.148H6.948V228H7.776V219.564H6.948V223.404H2.052V219.564H1.224V228ZM10.224 228H15.192V227.256H11.052V224.124H14.256V223.38H11.052V220.308H14.976V219.564H10.224V228ZM16.1675 228H17.1275L18.8555 225.096C19.1195 224.652 19.3715 224.148 19.3715 224.148H19.3955C19.3955 224.148 19.6595 224.652 19.9235 225.084L21.6755 228H22.6355L19.9355 223.596L22.4075 219.564H21.4235L19.9355 222.06C19.6715 222.492 19.4315 223.032 19.4315 223.032H19.4075C19.4075 223.032 19.1075 222.492 18.8555 222.06L17.3795 219.564H16.4075L18.8555 223.596L16.1675 228Z" fill="#404040"/>
</svg>
