<svg width="116" height="63" viewBox="0 0 116 63" fill="none" xmlns="http://www.w3.org/2000/svg">
<g filter="url(#filter0_d)">
<rect x="4.5" y="4.5" width="107" height="54" rx="4.5" fill="white" stroke="#F98731"/>
<path d="M29.3125 17H48.6875C51.625 17 54 19.4359 54 22.4487V41.5513C54 44.5641 51.625 47 48.6875 47H29.3125C26.375 47 24 44.5641 24 41.5513V22.4487C24 19.4359 26.375 17 29.3125 17Z" fill="#001E36"/>
<path d="M30.75 38.0382V24.8459C30.75 24.7561 30.7875 24.7049 30.875 24.7049C31.0875 24.7049 31.2875 24.7049 31.575 24.692C31.875 24.6792 32.1875 24.6792 32.525 24.6664C32.8625 24.6536 33.225 24.6536 33.6125 24.6408C34 24.6279 34.375 24.6279 34.75 24.6279C35.775 24.6279 36.625 24.7561 37.325 25.0254C37.95 25.2433 38.525 25.6023 39 26.0766C39.4 26.4869 39.7125 26.9869 39.9125 27.5382C40.1 28.0766 40.2 28.6279 40.2 29.2049C40.2 30.3074 39.95 31.2177 39.45 31.9356C38.95 32.6536 38.25 33.192 37.4375 33.4997C36.5875 33.8202 35.65 33.9356 34.625 33.9356C34.325 33.9356 34.125 33.9356 34 33.9228C33.875 33.91 33.7 33.91 33.4625 33.91V38.0254C33.475 38.1151 33.4125 38.192 33.325 38.2049C33.3125 38.2049 33.3 38.2049 33.275 38.2049H30.9C30.8 38.2049 30.75 38.1536 30.75 38.0382ZM33.475 27.1792V31.4869C33.65 31.4997 33.8125 31.5125 33.9625 31.5125H34.625C35.1125 31.5125 35.6 31.4356 36.0625 31.2818C36.4625 31.1664 36.8125 30.9228 37.0875 30.6023C37.35 30.2818 37.475 29.8459 37.475 29.2818C37.4875 28.8843 37.3875 28.4869 37.1875 28.1408C36.975 27.8074 36.675 27.551 36.3125 27.41C35.85 27.2177 35.35 27.1407 34.8375 27.1536C34.5125 27.1536 34.225 27.1536 33.9875 27.1664C33.7375 27.1536 33.5625 27.1664 33.475 27.1792Z" fill="#31A8FF"/>
<path d="M48.0002 30.7051C47.6252 30.4999 47.2252 30.3589 46.8002 30.2692C46.3377 30.1666 45.8752 30.1025 45.4002 30.1025C45.1502 30.0897 44.8877 30.1281 44.6502 30.1922C44.4877 30.2307 44.3502 30.3204 44.2627 30.4486C44.2002 30.5512 44.1627 30.6794 44.1627 30.7948C44.1627 30.9102 44.2127 31.0256 44.2877 31.1281C44.4002 31.2692 44.5502 31.3845 44.7127 31.4743C45.0002 31.6281 45.3002 31.7692 45.6002 31.8974C46.2752 32.1281 46.9252 32.4486 47.5252 32.8333C47.9377 33.1025 48.2752 33.4615 48.5127 33.8974C48.7127 34.3076 48.8127 34.7563 48.8002 35.2179C48.8127 35.8204 48.6377 36.423 48.3127 36.923C47.9627 37.4358 47.4752 37.8333 46.9127 38.064C46.3002 38.3333 45.5502 38.4743 44.6502 38.4743C44.0752 38.4743 43.5127 38.423 42.9502 38.3076C42.5127 38.2307 42.0752 38.0897 41.6752 37.8974C41.5877 37.8461 41.5252 37.7563 41.5377 37.6538V35.423C41.5377 35.3845 41.5502 35.3333 41.5877 35.3076C41.6252 35.282 41.6627 35.2948 41.7002 35.3204C42.1877 35.6153 42.7002 35.8204 43.2502 35.9486C43.7252 36.0768 44.2252 36.141 44.7252 36.141C45.2002 36.141 45.5377 36.0768 45.7627 35.9615C45.9627 35.8717 46.1002 35.6538 46.1002 35.423C46.1002 35.2435 46.0002 35.0768 45.8002 34.9102C45.6002 34.7435 45.1877 34.5512 44.5752 34.3076C43.9377 34.0768 43.3502 33.7692 42.8002 33.3845C42.4127 33.1025 42.0877 32.7307 41.8502 32.2948C41.6502 31.8845 41.5502 31.4358 41.5627 30.9871C41.5627 30.4358 41.7127 29.9102 41.9877 29.4358C42.3002 28.923 42.7627 28.5127 43.3002 28.2563C43.8877 27.9486 44.6252 27.8076 45.5127 27.8076C46.0252 27.8076 46.5502 27.8461 47.0627 27.923C47.4377 27.9743 47.8002 28.0768 48.1377 28.2179C48.1877 28.2307 48.2377 28.282 48.2627 28.3333C48.2752 28.3845 48.2877 28.4358 48.2877 28.4871V30.5768C48.2877 30.6281 48.2627 30.6794 48.2252 30.7051C48.1127 30.7307 48.0502 30.7307 48.0002 30.7051Z" fill="#31A8FF"/>
<path d="M90.6329 29.0526C90.689 28.752 90.7174 28.4468 90.7178 28.141C90.7144 25.3004 88.4089 23.0005 85.5683 23.0039C83.406 23.0065 81.4762 24.3613 80.7392 26.3942C79.4196 25.8689 77.9241 26.5128 77.3988 27.8324C77.3533 27.9466 77.3161 28.0639 77.2874 28.1834C75.1804 28.4985 73.7278 30.462 74.043 32.569C74.3256 34.4587 75.9489 35.8567 77.8596 35.8559H81.0741C81.4292 35.8559 81.717 35.5681 81.717 35.213C81.717 34.8579 81.4292 34.5701 81.0741 34.5701H77.8596C76.4393 34.5701 75.2879 33.4187 75.2879 31.9984C75.2879 30.5781 76.4393 29.4268 77.8596 29.4268C78.2147 29.4268 78.5025 29.1389 78.5025 28.7839C78.5037 28.0737 79.0803 27.499 79.7904 27.5002C80.1263 27.5007 80.4486 27.6326 80.6884 27.8677C80.9413 28.1169 81.3483 28.114 81.5976 27.8611C81.6911 27.7661 81.7529 27.6444 81.7742 27.5128C82.1232 25.4133 84.1081 23.9943 86.2076 24.3432C88.3071 24.6922 89.7261 26.6771 89.3771 28.7766C89.3563 28.9018 89.3293 29.0258 89.2963 29.1484C89.2224 29.4167 89.3295 29.7021 89.5618 29.8555C90.7453 30.6408 91.0681 32.2368 90.2828 33.4202C89.8075 34.1365 89.0058 34.568 88.1461 34.57H86.2174C85.8623 34.57 85.5745 34.8578 85.5745 35.2129C85.5745 35.568 85.8623 35.8559 86.2174 35.8559H88.1461C90.2765 35.8539 92.002 34.1252 91.9999 31.9947C91.9989 30.8608 91.4989 29.7848 90.6329 29.0526Z" fill="#F98731"/>
<path d="M87.3005 36.6855C87.0514 36.4449 86.6564 36.4449 86.4073 36.6855L84.2889 38.8027V29.4251C84.2889 29.0701 84.0011 28.7822 83.646 28.7822C83.2909 28.7822 83.0031 29.0701 83.0031 29.4251V38.8026L80.8859 36.6855C80.6305 36.4388 80.2235 36.4459 79.9769 36.7013C79.7362 36.9504 79.7362 37.3454 79.9769 37.5946L83.1914 40.8091C83.4421 41.0605 83.8492 41.061 84.1006 40.8102C84.101 40.8099 84.1014 40.8095 84.1018 40.8091L87.3163 37.5946C87.563 37.3392 87.5559 36.9322 87.3005 36.6855Z" fill="#F98731"/>
</g>
<defs>
<filter id="filter0_d" x="0" y="0" width="116" height="63" filterUnits="userSpaceOnUse" color-interpolation-filters="sRGB">
<feFlood flood-opacity="0" result="BackgroundImageFix"/>
<feColorMatrix in="SourceAlpha" type="matrix" values="0 0 0 0 0 0 0 0 0 0 0 0 0 0 0 0 0 0 127 0" result="hardAlpha"/>
<feOffset/>
<feGaussianBlur stdDeviation="2"/>
<feColorMatrix type="matrix" values="0 0 0 0 0 0 0 0 0 0 0 0 0 0 0 0 0 0 0.25 0"/>
<feBlend mode="normal" in2="BackgroundImageFix" result="effect1_dropShadow"/>
<feBlend mode="normal" in="SourceGraphic" in2="effect1_dropShadow" result="shape"/>
</filter>
</defs>
</svg>
