<svg width="169" height="219" viewBox="0 0 169 219" fill="none" xmlns="http://www.w3.org/2000/svg">
<rect x="0.000488281" width="169" height="150" fill="#FFD773"/>
<path d="M46.7685 179H52.0365V178.256H47.6325C47.6445 176.012 51.9045 175.616 51.9045 172.784C51.9045 171.464 50.9445 170.42 49.3365 170.42C47.5485 170.42 46.7805 171.944 46.7805 171.944L47.4045 172.364C47.4045 172.364 48.0525 171.212 49.2885 171.212C50.3445 171.212 51.0405 171.908 51.0405 172.832C51.0405 175.112 46.7205 175.496 46.7205 178.46C46.7205 178.628 46.7325 178.808 46.7685 179ZM53.4336 177.944C53.4336 177.944 54.2256 179.144 55.9056 179.144C57.5496 179.144 58.8336 177.932 58.8336 176.372C58.8336 174.848 57.6216 173.624 55.9296 173.624C55.1736 173.624 54.6456 173.948 54.6456 173.948H54.6216C54.6216 173.948 54.6696 173.768 54.7056 173.468L54.9456 171.308H58.3056V170.564H54.2256L53.7696 174.656L54.2976 174.848C54.2976 174.848 54.9336 174.392 55.8336 174.392C57.0336 174.392 57.9696 175.22 57.9696 176.372C57.9696 177.524 57.0336 178.352 55.8696 178.352C54.5856 178.352 53.9616 177.368 53.9616 177.368L53.4336 177.944ZM60.1251 177.944C60.1251 177.944 60.9171 179.144 62.5971 179.144C64.2411 179.144 65.5251 177.932 65.5251 176.372C65.5251 174.848 64.3131 173.624 62.6211 173.624C61.8651 173.624 61.3371 173.948 61.3371 173.948H61.3131C61.3131 173.948 61.3611 173.768 61.3971 173.468L61.6371 171.308H64.9971V170.564H60.9171L60.4611 174.656L60.9891 174.848C60.9891 174.848 61.6251 174.392 62.5251 174.392C63.7251 174.392 64.6611 175.22 64.6611 176.372C64.6611 177.524 63.7251 178.352 62.5611 178.352C61.2771 178.352 60.6531 177.368 60.6531 177.368L60.1251 177.944ZM70.1591 179H75.4271V178.256H71.0231C71.0351 176.012 75.2951 175.616 75.2951 172.784C75.2951 171.464 74.3351 170.42 72.7271 170.42C70.9391 170.42 70.1711 171.944 70.1711 171.944L70.7951 172.364C70.7951 172.364 71.4431 171.212 72.6791 171.212C73.7351 171.212 74.4311 171.908 74.4311 172.832C74.4311 175.112 70.1111 175.496 70.1111 178.46C70.1111 178.628 70.1231 178.808 70.1591 179ZM76.8483 179H81.4203V178.256H79.5603V170.564H78.7923L76.8843 172.46L77.4123 173L78.3123 172.1C78.6483 171.776 78.7323 171.596 78.7323 171.596H78.7563C78.7563 171.596 78.7443 171.824 78.7443 172.064V178.256H76.8483V179ZM82.4141 177.944C82.4141 177.944 83.2061 179.144 84.8861 179.144C86.5301 179.144 87.8141 177.932 87.8141 176.372C87.8141 174.848 86.6021 173.624 84.9101 173.624C84.1541 173.624 83.6261 173.948 83.6261 173.948H83.6021C83.6021 173.948 83.6501 173.768 83.6861 173.468L83.9261 171.308H87.2861V170.564H83.2061L82.7501 174.656L83.2781 174.848C83.2781 174.848 83.9141 174.392 84.8141 174.392C86.0141 174.392 86.9501 175.22 86.9501 176.372C86.9501 177.524 86.0141 178.352 84.8501 178.352C83.5661 178.352 82.9421 177.368 82.9421 177.368L82.4141 177.944ZM92.3522 179H96.9242V178.256H95.0642V170.564H94.2962L92.3882 172.46L92.9162 173L93.8162 172.1C94.1522 171.776 94.2362 171.596 94.2362 171.596H94.2602C94.2602 171.596 94.2482 171.824 94.2482 172.064V178.256H92.3522V179ZM97.942 179H102.514V178.256H100.654V170.564H99.886L97.978 172.46L98.506 173L99.406 172.1C99.742 171.776 99.826 171.596 99.826 171.596H99.85C99.85 171.596 99.838 171.824 99.838 172.064V178.256H97.942V179ZM103.508 177.944C103.508 177.944 104.3 179.144 105.98 179.144C107.624 179.144 108.908 177.932 108.908 176.372C108.908 174.848 107.696 173.624 106.004 173.624C105.248 173.624 104.72 173.948 104.72 173.948H104.696C104.696 173.948 104.744 173.768 104.78 173.468L105.02 171.308H108.38V170.564H104.3L103.844 174.656L104.372 174.848C104.372 174.848 105.008 174.392 105.908 174.392C107.108 174.392 108.044 175.22 108.044 176.372C108.044 177.524 107.108 178.352 105.944 178.352C104.66 178.352 104.036 177.368 104.036 177.368L103.508 177.944Z" fill="#404040"/>
<path d="M49.7565 199.144C51.9525 199.144 52.6605 197.224 52.6605 194.776C52.6605 192.352 51.9525 190.42 49.7565 190.42C47.5605 190.42 46.8405 192.352 46.8405 194.776C46.8405 197.224 47.5605 199.144 49.7565 199.144ZM49.7565 198.364C48.1485 198.364 47.7045 196.792 47.7045 194.776C47.7045 192.772 48.1485 191.2 49.7565 191.2C51.3525 191.2 51.7965 192.772 51.7965 194.776C51.7965 196.792 51.3525 198.364 49.7565 198.364ZM57.3951 199H61.9671V198.256H60.1071V190.564H59.3391L57.4311 192.46L57.9591 193L58.8591 192.1C59.1951 191.776 59.2791 191.596 59.2791 191.596H59.3031C59.3031 191.596 59.2911 191.824 59.2911 192.064V198.256H57.3951V199ZM66.141 199.144C67.617 199.144 68.793 198.076 68.793 196.324C68.793 194.728 67.701 193.6 66.165 193.6C65.289 193.6 64.437 193.984 64.029 194.584H64.005C64.149 192.94 65.049 191.2 66.813 191.2C67.509 191.2 68.037 191.5 68.037 191.5L68.349 190.768C68.349 190.768 67.737 190.42 66.801 190.42C64.197 190.42 63.093 193.072 63.093 195.184C63.093 197.464 64.305 199.144 66.141 199.144ZM66.129 198.364C64.869 198.364 63.993 196.912 63.993 195.784C63.993 195.1 64.905 194.344 66.033 194.344C67.185 194.344 67.941 195.136 67.941 196.336C67.941 197.5 67.269 198.364 66.129 198.364ZM73.3204 197.944C73.3204 197.944 74.1124 199.144 75.7924 199.144C77.4364 199.144 78.7204 197.932 78.7204 196.372C78.7204 194.848 77.5084 193.624 75.8164 193.624C75.0604 193.624 74.5324 193.948 74.5324 193.948H74.5084C74.5084 193.948 74.5564 193.768 74.5924 193.468L74.8324 191.308H78.1924V190.564H74.1124L73.6564 194.656L74.1844 194.848C74.1844 194.848 74.8204 194.392 75.7204 194.392C76.9204 194.392 77.8564 195.22 77.8564 196.372C77.8564 197.524 76.9204 198.352 75.7564 198.352C74.4724 198.352 73.8484 197.368 73.8484 197.368L73.3204 197.944ZM80.0118 197.944C80.0118 197.944 80.8038 199.144 82.4838 199.144C84.1278 199.144 85.4118 197.932 85.4118 196.372C85.4118 194.848 84.1998 193.624 82.5078 193.624C81.7518 193.624 81.2238 193.948 81.2238 193.948H81.1998C81.1998 193.948 81.2478 193.768 81.2838 193.468L81.5238 191.308H84.8838V190.564H80.8038L80.3478 194.656L80.8758 194.848C80.8758 194.848 81.5118 194.392 82.4118 194.392C83.6118 194.392 84.5478 195.22 84.5478 196.372C84.5478 197.524 83.6118 198.352 82.4478 198.352C81.1638 198.352 80.5398 197.368 80.5398 197.368L80.0118 197.944ZM93.0338 199.144C95.2298 199.144 95.9378 197.224 95.9378 194.776C95.9378 192.352 95.2298 190.42 93.0338 190.42C90.8378 190.42 90.1178 192.352 90.1178 194.776C90.1178 197.224 90.8378 199.144 93.0338 199.144ZM93.0338 198.364C91.4258 198.364 90.9818 196.792 90.9818 194.776C90.9818 192.772 91.4258 191.2 93.0338 191.2C94.6298 191.2 95.0738 192.772 95.0738 194.776C95.0738 196.792 94.6298 198.364 93.0338 198.364Z" fill="#404040"/>
<path d="M47.8605 218H48.5925L49.0005 215.66H51.0765L50.6685 218H51.4005L51.8085 215.66H53.4885L53.5965 214.988H51.9285L52.3365 212.636H54.0165L54.1365 211.964H52.4565L52.8765 209.564H52.1445L51.7245 211.964H49.6485L50.0685 209.564H49.3365L48.9165 211.964H47.2125L47.1045 212.636H48.7965L48.3765 214.988H46.6845L46.5645 215.66H48.2685L47.8605 218ZM49.1205 214.988L49.5285 212.636H51.6045L51.1845 214.988H49.1205ZM55.9081 218H56.7361V214.22H59.8321V213.476H56.7361V210.308H60.3481V209.564H55.9081V218ZM62.0721 218H62.9001V214.22H65.9961V213.476H62.9001V210.308H66.5121V209.564H62.0721V218ZM68.2362 218H70.9602C73.4922 218 75.1962 216.464 75.1962 213.776C75.1962 211.112 73.4922 209.564 70.9602 209.564H68.2362V218ZM69.0642 217.256V210.308H70.8762C72.9402 210.308 74.3322 211.532 74.3322 213.776C74.3322 216.032 72.9522 217.256 70.8762 217.256H69.0642ZM77.059 218H77.923L81.835 210.14V209.564H76.351V210.308H80.299C80.719 210.308 80.935 210.284 80.935 210.284V210.308C80.935 210.308 80.695 210.632 80.467 211.088L77.059 218ZM83.2934 218H84.1574L88.0694 210.14V209.564H82.5854V210.308H86.5334C86.9534 210.308 87.1694 210.284 87.1694 210.284V210.308C87.1694 210.308 86.9294 210.632 86.7014 211.088L83.2934 218ZM88.9038 216.992C88.9038 216.992 89.9238 218.144 91.5798 218.144C93.1758 218.144 94.3518 216.944 94.3518 215.504C94.3518 213.68 92.7798 213.08 91.7118 213.02L94.2318 210.116V209.564H89.2998V210.308H92.4678C92.9118 210.308 93.1518 210.272 93.1518 210.272V210.296C93.1518 210.296 92.9358 210.5 92.7078 210.764L90.5958 213.236L90.7998 213.728H91.3758C92.4798 213.728 93.4998 214.34 93.4998 215.528C93.4998 216.608 92.5758 217.352 91.5678 217.352C90.2718 217.352 89.4078 216.356 89.4078 216.356L88.9038 216.992Z" fill="#404040"/>
<path d="M1.22449 179H2.05249V175.448H4.17649L6.08449 179H7.03249L5.19649 175.604C5.06449 175.376 4.98049 175.268 4.98049 175.268V175.244C5.92849 174.98 6.57649 174.104 6.57649 172.964C6.57649 171.944 6.09649 171.14 5.30449 170.792C4.96849 170.648 4.58449 170.564 3.72049 170.564H1.22449V179ZM2.05249 174.704V171.308H3.75649C4.40449 171.308 4.70449 171.38 4.95649 171.512C5.44849 171.776 5.72449 172.292 5.72449 172.988C5.72449 174.044 5.07649 174.704 4.05649 174.704H2.05249ZM8.19564 174.776C8.19564 177.284 10.0196 179.144 12.3236 179.144C14.0996 179.144 15.0716 178.004 15.0716 178.004H15.0956C15.0956 178.004 15.0836 178.184 15.0836 178.364V179H15.8516V174.968H13.6196V175.712H15.0596V177.14C15.0596 177.14 14.0516 178.376 12.4076 178.376C10.4876 178.376 9.05964 176.84 9.05964 174.764C9.05964 172.76 10.4396 171.188 12.4796 171.188C14.0156 171.188 14.9996 172.028 14.9996 172.028L15.4436 171.404C15.4436 171.404 14.3996 170.42 12.4436 170.42C10.0196 170.42 8.19564 172.34 8.19564 174.776ZM17.8534 179H20.8294C22.2454 179 23.3614 178.136 23.3614 176.636C23.3614 175.616 22.8094 174.788 21.9454 174.548V174.524C22.5934 174.2 23.0134 173.564 23.0134 172.688C23.0134 171.368 22.0654 170.564 20.7334 170.564H17.8534V179ZM18.6814 174.224V171.308H20.7214C21.6214 171.308 22.1614 171.884 22.1614 172.748C22.1614 173.624 21.5854 174.224 20.7334 174.224H18.6814ZM18.6814 178.256V174.944H20.8294C21.8134 174.944 22.4974 175.604 22.4974 176.612C22.4974 177.62 21.8614 178.256 20.8414 178.256H18.6814Z" fill="#404040"/>
<path d="M0.660488 194.728C0.660488 197.188 2.43649 199.144 4.93249 199.144C7.00849 199.144 8.16049 197.836 8.16049 197.836L7.68049 197.248C7.68049 197.248 6.64849 198.376 4.94449 198.376C2.94049 198.376 1.52449 196.732 1.52449 194.716C1.52449 192.724 2.94049 191.188 4.92049 191.188C6.50449 191.188 7.48849 192.124 7.48849 192.124L7.93249 191.512C7.93249 191.512 6.91249 190.42 4.89649 190.42C2.48449 190.42 0.660488 192.28 0.660488 194.728ZM9.69096 199H10.519L10.987 193.096C11.023 192.64 11.011 191.896 11.011 191.896H11.035C11.035 191.896 11.299 192.676 11.491 193.096L13.471 197.428H14.251L16.231 193.096C16.423 192.664 16.675 191.92 16.675 191.92H16.699C16.699 191.92 16.687 192.64 16.723 193.096L17.191 199H18.019L17.347 190.564H16.495L14.287 195.52C14.095 195.952 13.867 196.552 13.867 196.552H13.843C13.843 196.552 13.627 195.952 13.435 195.52L11.227 190.564H10.363L9.69096 199ZM21.8917 199H22.7317V195.376L25.5637 190.564H24.6277L22.8397 193.624C22.5757 194.068 22.3237 194.632 22.3237 194.632H22.2997C22.2997 194.632 22.0357 194.056 21.7837 193.624L19.9957 190.564H19.0477L21.8917 195.376V199ZM26.9823 199H27.8103V194.968H29.2383L31.6503 199H32.6223L29.9343 194.572V194.548L32.4543 190.564H31.5063L29.2383 194.224H27.8103V190.564H26.9823V199Z" fill="#404040"/>
<path d="M1.22449 218H2.05249V214.148H6.94849V218H7.77649V209.564H6.94849V213.404H2.05249V209.564H1.22449V218ZM10.2245 218H15.1925V217.256H11.0525V214.124H14.2565V213.38H11.0525V210.308H14.9765V209.564H10.2245V218ZM16.168 218H17.128L18.856 215.096C19.12 214.652 19.372 214.148 19.372 214.148H19.396C19.396 214.148 19.66 214.652 19.924 215.084L21.676 218H22.636L19.936 213.596L22.408 209.564H21.424L19.936 212.06C19.672 212.492 19.432 213.032 19.432 213.032H19.408C19.408 213.032 19.108 212.492 18.856 212.06L17.38 209.564H16.408L18.856 213.596L16.168 218Z" fill="#404040"/>
</svg>
